<?xml version="1.0" encoding="utf-8"?>
<!-- Generator: Adobe Illustrator 19.0.1, SVG Export Plug-In . SVG Version: 6.00 Build 0)  -->
<svg version="1.1" id="Layer_1" xmlns="http://www.w3.org/2000/svg" xmlns:xlink="http://www.w3.org/1999/xlink" x="0px" y="0px"
	 viewBox="0 0 1920 1080" style="enable-background:new 0 0 1920 1080;" xml:space="preserve">
<style type="text/css">
	.st0{fill:#FFFFFF;}
	.st1{fill:#33FF4B;}
	.st2{fill:#FF8FE7;}
	.st3{fill:#341FFF;}
	.st4{fill:#5D4CFF;}
	.st5{fill:#8579FF;}
	.st6{fill:#AEA5FF;}
	.st7{fill:#D6D2FF;}
	.st8{fill:#FFD9D2;}
	.st9{fill:#FFB3A5;}
	.st10{fill:#FF8E77;}
	.st11{fill:#FF684A;}
	.st12{fill:#FF421D;}
	.st13{fill:#F71963;}
	.st14{fill:#222222;}
	.st15{fill:#828282;}
	.st16{fill:#1C114C;}
	.st17{clip-path:url(#SVGID_2_);}
	.st18{fill:#AA27FF;}
	.st19{fill:#FF9429;}
	.st20{fill:none;stroke:#FF3E6C;stroke-width:2;stroke-miterlimit:10;}
	.st21{fill:none;stroke:#45FF40;stroke-width:2;stroke-miterlimit:10;}
	.st22{fill:#9292FF;}
	.st23{fill:none;stroke:#C548FF;stroke-width:2;stroke-miterlimit:10;}
</style>
<rect x="0" y="0" width="1920" height="1080"/>
<path class="st22" d="M95.9,74.8L68.2,121H39.7l21.8-36.3h-93.7l21.8,36.3H-39l-27.7-46.2L-39,28.6h28.5l-21.8,36.3h93.7L39.7,28.6
	h28.5L95.9,74.8z"/>
<path class="st22" d="M267.8,74.8L240.1,121h-28.5l21.8-36.3h-93.7l21.8,36.3h-28.5l-27.7-46.2l27.7-46.2h28.5l-21.8,36.3h93.7
	l-21.8-36.3h28.5L267.8,74.8z"/>
<path class="st22" d="M611.5,74.8L583.8,121h-28.5l21.8-36.3h-93.7l21.8,36.3h-28.5l-27.7-46.2l27.7-46.2h28.5l-21.8,36.3h93.7
	l-21.8-36.3h28.5L611.5,74.8z"/>
<path class="st22" d="M783.4,74.8L755.6,121h-28.5l21.8-36.3h-93.7L677,121h-28.5l-27.7-46.2l27.7-46.2H677l-21.8,36.3h93.7
	l-21.8-36.3h28.5L783.4,74.8z"/>
<path class="st22" d="M955.2,74.8L927.5,121H899l21.8-36.3h-93.7l21.8,36.3h-28.5l-27.7-46.2l27.7-46.2h28.5l-21.8,36.3h93.7
	L899,28.6h28.5L955.2,74.8z"/>
<path class="st22" d="M1299,74.8l-27.7,46.2h-28.5l21.8-36.3h-93.7l21.8,36.3h-28.5l-27.7-46.2l27.7-46.2h28.5l-21.8,36.3h93.7
	l-21.8-36.3h28.5L1299,74.8z"/>
<path class="st22" d="M1470.8,74.8l-27.7,46.2h-28.5l21.8-36.3h-93.7l21.8,36.3h-28.5l-27.7-46.2l27.7-46.2h28.5l-21.8,36.3h93.7
	l-21.8-36.3h28.5L1470.8,74.8z"/>
<path class="st22" d="M1814.6,74.8l-27.7,46.2h-28.5l21.8-36.3h-93.7l21.8,36.3h-28.5l-27.7-46.2l27.7-46.2h28.5l-21.8,36.3h93.7
	l-21.8-36.3h28.5L1814.6,74.8z"/>
<path class="st22" d="M1986.4,74.8l-27.7,46.2h-28.5l21.8-36.3h-93.7L1880,121h-28.5l-27.7-46.2l27.7-46.2h28.5l-21.8,36.3h93.7
	l-21.8-36.3h28.5L1986.4,74.8z"/>
<path class="st22" d="M267.8,207.2l-27.7,46.2h-28.5l21.8-36.3h-93.7l21.8,36.3h-28.5l-27.7-46.2l27.7-46.2h28.5l-21.8,36.3h93.7
	L211.5,161h28.5L267.8,207.2z"/>
<path class="st22" d="M439.6,207.2l-27.7,46.2h-28.5l21.8-36.3h-93.7l21.8,36.3h-28.5L277,207.2l27.7-46.2h28.5l-21.8,36.3h93.7
	L383.4,161h28.5L439.6,207.2z"/>
<path class="st22" d="M783.4,207.2l-27.7,46.2h-28.5l21.8-36.3h-93.7l21.8,36.3h-28.5l-27.7-46.2l27.7-46.2H677l-21.8,36.3h93.7
	L727.1,161h28.5L783.4,207.2z"/>
<path class="st22" d="M955.2,207.2l-27.7,46.2H899l21.8-36.3h-93.7l21.8,36.3h-28.5l-27.7-46.2l27.7-46.2h28.5l-21.8,36.3h93.7
	L899,161h28.5L955.2,207.2z"/>
<path class="st22" d="M1127.1,207.2l-27.7,46.2h-28.5l21.8-36.3h-93.7l21.8,36.3h-28.5l-27.7-46.2l27.7-46.2h28.5l-21.8,36.3h93.7
	l-21.8-36.3h28.5L1127.1,207.2z"/>
<path class="st22" d="M1299,207.2l-27.7,46.2h-28.5l21.8-36.3h-93.7l21.8,36.3h-28.5l-27.7-46.2l27.7-46.2h28.5l-21.8,36.3h93.7
	l-21.8-36.3h28.5L1299,207.2z"/>
<path class="st22" d="M1642.7,207.2l-27.7,46.2h-28.5l21.8-36.3h-93.7l21.8,36.3h-28.5l-27.7-46.2l27.7-46.2h28.5l-21.8,36.3h93.7
	l-21.8-36.3h28.5L1642.7,207.2z"/>
<path class="st22" d="M1814.6,207.2l-27.7,46.2h-28.5l21.8-36.3h-93.7l21.8,36.3h-28.5l-27.7-46.2l27.7-46.2h28.5l-21.8,36.3h93.7
	l-21.8-36.3h28.5L1814.6,207.2z"/>
<path class="st22" d="M1986.4,207.2l-27.7,46.2h-28.5l21.8-36.3h-93.7l21.8,36.3h-28.5l-27.7-46.2l27.7-46.2h28.5l-21.8,36.3h93.7
	l-21.8-36.3h28.5L1986.4,207.2z"/>
<path class="st22" d="M95.9,339.6l-27.7,46.2H39.7l21.8-36.3h-93.7l21.8,36.3H-39l-27.7-46.2l27.7-46.2h28.5l-21.8,36.3h93.7
	l-21.8-36.3h28.5L95.9,339.6z"/>
<path class="st22" d="M1154.7,339.6l-27.7,46.2h-28.5l21.8-36.3h-93.7l21.8,36.3h-28.5l-27.7-46.2l27.7-46.2h28.5l-21.8,36.3h93.7
	l-21.8-36.3h28.5L1154.7,339.6z"/>
<path class="st22" d="M1326.5,339.6l-27.7,46.2h-28.5l21.8-36.3h-93.7l21.8,36.3h-28.5l-27.7-46.2l27.7-46.2h28.5l-21.8,36.3h93.7
	l-21.8-36.3h28.5L1326.5,339.6z"/>
<path class="st22" d="M1498.4,339.6l-27.7,46.2h-28.5l21.8-36.3h-93.7l21.8,36.3h-28.5l-27.7-46.2l27.7-46.2h28.5l-21.8,36.3h93.7
	l-21.8-36.3h28.5L1498.4,339.6z"/>
<path class="st22" d="M1842.1,339.6l-27.7,46.2h-28.5l21.8-36.3H1714l21.8,36.3h-28.5l-27.7-46.2l27.7-46.2h28.5l-21.8,36.3h93.7
	l-21.8-36.3h28.5L1842.1,339.6z"/>
<path class="st22" d="M95.9,472l-27.7,46.2H39.7l21.8-36.3h-93.7l21.8,36.3H-39L-66.7,472l27.7-46.2h28.5l-21.8,36.3h93.7
	l-21.8-36.3h28.5L95.9,472z"/>
<path class="st22" d="M1640,472l-27.7,46.2h-28.5l21.8-36.3h-93.7l21.8,36.3h-28.5l-27.7-46.2l27.7-46.2h28.5l-21.8,36.3h93.7
	l-21.8-36.3h28.5L1640,472z"/>
<path class="st22" d="M1983.8,472l-27.7,46.2h-28.5l21.8-36.3h-93.7l21.8,36.3h-28.5l-27.7-46.2l27.7-46.2h28.5l-21.8,36.3h93.7
	l-21.8-36.3h28.5L1983.8,472z"/>
<path class="st22" d="M95.9,604.4l-27.7,46.2H39.7l21.8-36.3h-93.7l21.8,36.3H-39l-27.7-46.2l27.7-46.2h28.5l-21.8,36.3h93.7
	l-21.8-36.3h28.5L95.9,604.4z"/>
<path class="st22" d="M267.8,604.4l-27.7,46.2h-28.5l21.8-36.3h-93.7l21.8,36.3h-28.5l-27.7-46.2l27.7-46.2h28.5l-21.8,36.3h93.7
	l-21.8-36.3h28.5L267.8,604.4z"/>
<path class="st22" d="M611.5,604.4l-27.7,46.2h-28.5l21.8-36.3h-93.7l21.8,36.3h-28.5l-27.7-46.2l27.7-46.2h28.5l-21.8,36.3h93.7
	l-21.8-36.3h28.5L611.5,604.4z"/>
<path class="st22" d="M783.4,604.4l-27.7,46.2h-28.5l21.8-36.3h-93.7l21.8,36.3h-28.5l-27.7-46.2l27.7-46.2H677l-21.8,36.3h93.7
	l-21.8-36.3h28.5L783.4,604.4z"/>
<path class="st22" d="M955.2,604.4l-27.7,46.2H899l21.8-36.3h-93.7l21.8,36.3h-28.5l-27.7-46.2l27.7-46.2h28.5l-21.8,36.3h93.7
	L899,558.2h28.5L955.2,604.4z"/>
<path class="st22" d="M1299,604.4l-27.7,46.2h-28.5l21.8-36.3h-93.7l21.8,36.3h-28.5l-27.7-46.2l27.7-46.2h28.5l-21.8,36.3h93.7
	l-21.8-36.3h28.5L1299,604.4z"/>
<path class="st22" d="M1470.8,604.4l-27.7,46.2h-28.5l21.8-36.3h-93.7l21.8,36.3h-28.5l-27.7-46.2l27.7-46.2h28.5l-21.8,36.3h93.7
	l-21.8-36.3h28.5L1470.8,604.4z"/>
<path class="st22" d="M1642.7,604.4l-27.7,46.2h-28.5l21.8-36.3h-93.7l21.8,36.3h-28.5l-27.7-46.2l27.7-46.2h28.5l-21.8,36.3h93.7
	l-21.8-36.3h28.5L1642.7,604.4z"/>
<path class="st22" d="M1814.6,604.4l-27.7,46.2h-28.5l21.8-36.3h-93.7l21.8,36.3h-28.5l-27.7-46.2l27.7-46.2h28.5l-21.8,36.3h93.7
	l-21.8-36.3h28.5L1814.6,604.4z"/>
<path class="st22" d="M1986.4,604.4l-27.7,46.2h-28.5l21.8-36.3h-93.7l21.8,36.3h-28.5l-27.7-46.2l27.7-46.2h28.5l-21.8,36.3h93.7
	l-21.8-36.3h28.5L1986.4,604.4z"/>
<path class="st22" d="M95.9,736.8L68.2,783H39.7l21.8-36.3h-93.7l21.8,36.3H-39l-27.7-46.2l27.7-46.2h28.5l-21.8,36.3h93.7
	l-21.8-36.3h28.5L95.9,736.8z"/>
<path class="st22" d="M267.8,736.8L240.1,783h-28.5l21.8-36.3h-93.7l21.8,36.3h-28.5l-27.7-46.2l27.7-46.2h28.5l-21.8,36.3h93.7
	l-21.8-36.3h28.5L267.8,736.8z"/>
<path class="st22" d="M439.6,736.8L411.9,783h-28.5l21.8-36.3h-93.7l21.8,36.3h-28.5L277,736.8l27.7-46.2h28.5l-21.8,36.3h93.7
	l-21.8-36.3h28.5L439.6,736.8z"/>
<path class="st22" d="M611.5,736.8L583.8,783h-28.5l21.8-36.3h-93.7l21.8,36.3h-28.5l-27.7-46.2l27.7-46.2h28.5l-21.8,36.3h93.7
	l-21.8-36.3h28.5L611.5,736.8z"/>
<path class="st22" d="M955.2,736.8L927.5,783H899l21.8-36.3h-93.7l21.8,36.3h-28.5l-27.7-46.2l27.7-46.2h28.5l-21.8,36.3h93.7
	L899,690.6h28.5L955.2,736.8z"/>
<path class="st22" d="M1127.1,736.8l-27.7,46.2h-28.5l21.8-36.3h-93.7l21.8,36.3h-28.5l-27.7-46.2l27.7-46.2h28.5l-21.8,36.3h93.7
	l-21.8-36.3h28.5L1127.1,736.8z"/>
<path class="st22" d="M1470.8,736.8l-27.7,46.2h-28.5l21.8-36.3h-93.7l21.8,36.3h-28.5l-27.7-46.2l27.7-46.2h28.5l-21.8,36.3h93.7
	l-21.8-36.3h28.5L1470.8,736.8z"/>
<path class="st22" d="M1814.6,736.8l-27.7,46.2h-28.5l21.8-36.3h-93.7l21.8,36.3h-28.5l-27.7-46.2l27.7-46.2h28.5l-21.8,36.3h93.7
	l-21.8-36.3h28.5L1814.6,736.8z"/>
<path class="st22" d="M95.9,869.2l-27.7,46.2H39.7l21.8-36.3h-93.7l21.8,36.3H-39l-27.7-46.2L-39,823h28.5l-21.8,36.3h93.7L39.7,823
	h28.5L95.9,869.2z"/>
<path class="st22" d="M439.6,869.2l-27.7,46.2h-28.5l21.8-36.3h-93.7l21.8,36.3h-28.5L277,869.2l27.7-46.2h28.5l-21.8,36.3h93.7
	L383.4,823h28.5L439.6,869.2z"/>
<path class="st22" d="M783.4,869.2l-27.7,46.2h-28.5l21.8-36.3h-93.7l21.8,36.3h-28.5l-27.7-46.2l27.7-46.2H677l-21.8,36.3h93.7
	L727.1,823h28.5L783.4,869.2z"/>
<path class="st22" d="M955.2,869.2l-27.7,46.2H899l21.8-36.3h-93.7l21.8,36.3h-28.5l-27.7-46.2l27.7-46.2h28.5l-21.8,36.3h93.7
	L899,823h28.5L955.2,869.2z"/>
<path class="st22" d="M1127.1,869.2l-27.7,46.2h-28.5l21.8-36.3h-93.7l21.8,36.3h-28.5l-27.7-46.2l27.7-46.2h28.5l-21.8,36.3h93.7
	l-21.8-36.3h28.5L1127.1,869.2z"/>
<path class="st22" d="M1299,869.2l-27.7,46.2h-28.5l21.8-36.3h-93.7l21.8,36.3h-28.5l-27.7-46.2l27.7-46.2h28.5l-21.8,36.3h93.7
	l-21.8-36.3h28.5L1299,869.2z"/>
<path class="st22" d="M1470.8,869.2l-27.7,46.2h-28.5l21.8-36.3h-93.7l21.8,36.3h-28.5l-27.7-46.2l27.7-46.2h28.5l-21.8,36.3h93.7
	l-21.8-36.3h28.5L1470.8,869.2z"/>
<path class="st22" d="M1642.7,869.2l-27.7,46.2h-28.5l21.8-36.3h-93.7l21.8,36.3h-28.5l-27.7-46.2l27.7-46.2h28.5l-21.8,36.3h93.7
	l-21.8-36.3h28.5L1642.7,869.2z"/>
<path class="st22" d="M1814.6,869.2l-27.7,46.2h-28.5l21.8-36.3h-93.7l21.8,36.3h-28.5l-27.7-46.2l27.7-46.2h28.5l-21.8,36.3h93.7
	l-21.8-36.3h28.5L1814.6,869.2z"/>
<path class="st22" d="M1986.4,869.2l-27.7,46.2h-28.5l21.8-36.3h-93.7l21.8,36.3h-28.5l-27.7-46.2l27.7-46.2h28.5l-21.8,36.3h93.7
	l-21.8-36.3h28.5L1986.4,869.2z"/>
<path class="st22" d="M95.9,1001.6l-27.7,46.2H39.7l21.8-36.3h-93.7l21.8,36.3H-39l-27.7-46.2l27.7-46.2h28.5l-21.8,36.3h93.7
	l-21.8-36.3h28.5L95.9,1001.6z"/>
<path class="st22" d="M267.8,1001.6l-27.7,46.2h-28.5l21.8-36.3h-93.7l21.8,36.3h-28.5l-27.7-46.2l27.7-46.2h28.5l-21.8,36.3h93.7
	l-21.8-36.3h28.5L267.8,1001.6z"/>
<path class="st22" d="M611.5,1001.6l-27.7,46.2h-28.5l21.8-36.3h-93.7l21.8,36.3h-28.5l-27.7-46.2l27.7-46.2h28.5l-21.8,36.3h93.7
	l-21.8-36.3h28.5L611.5,1001.6z"/>
<path class="st22" d="M955.2,1001.6l-27.7,46.2H899l21.8-36.3h-93.7l21.8,36.3h-28.5l-27.7-46.2l27.7-46.2h28.5l-21.8,36.3h93.7
	L899,955.4h28.5L955.2,1001.6z"/>
<path class="st22" d="M1127.1,1001.6l-27.7,46.2h-28.5l21.8-36.3h-93.7l21.8,36.3h-28.5l-27.7-46.2l27.7-46.2h28.5l-21.8,36.3h93.7
	l-21.8-36.3h28.5L1127.1,1001.6z"/>
<path class="st22" d="M1470.8,1001.6l-27.7,46.2h-28.5l21.8-36.3h-93.7l21.8,36.3h-28.5l-27.7-46.2l27.7-46.2h28.5l-21.8,36.3h93.7
	l-21.8-36.3h28.5L1470.8,1001.6z"/>
<path class="st22" d="M1814.6,1001.6l-27.7,46.2h-28.5l21.8-36.3h-93.7l21.8,36.3h-28.5l-27.7-46.2l27.7-46.2h28.5l-21.8,36.3h93.7
	l-21.8-36.3h28.5L1814.6,1001.6z"/>
<path class="st22" d="M1986.4,1001.6l-27.7,46.2h-28.5l21.8-36.3h-93.7l21.8,36.3h-28.5l-27.7-46.2l27.7-46.2h28.5l-21.8,36.3h93.7
	l-21.8-36.3h28.5L1986.4,1001.6z"/>
<g>
	<path class="st21" d="M100.1,248.7l-84,140h-86.4l66-110h-284l66,110h-86.4l-84-140l84-140h86.4l-66,110h284l-66-110h86.4
		L100.1,248.7z"/>
</g>
<path class="st21" d="M752.3,262.9v280h-80V422.5h-280v120.4h-80v-280h80v99.6h280v-99.6H752.3z"/>
<path class="st21" d="M992.7,576.9v280H849.1L620.3,614.1v242.8h-80v-280h143.6l228.8,242.8V576.9H992.7z"/>
<path class="st21" d="M515.2,884.8l-84,140h-86.4l66-110h-284l66,110h-86.4l-84-140l84-140h86.4l-66,110h284l-66-110h86.4
	L515.2,884.8z"/>
<path class="st21" d="M1607.3,758.8l-84,140h-86.4l66-110h-284l66,110h-86.4l-84-140l84-140h86.4l-66,110h284l-66-110h86.4
	L1607.3,758.8z"/>
<path class="st21" d="M1526.3,1097.8l-84,140h-86.4l66-110h-284l66,110h-86.4l-84-140l84-140h86.4l-66,110h284l-66-110h86.4
	L1526.3,1097.8z"/>
<path class="st21" d="M2213.4,299.8l-84,140H2043l66-110h-284l66,110h-86.4l-84-140l84-140h86.4l-66,110h284l-66-110h86.4
	L2213.4,299.8z"/>
<path class="st21" d="M1260.3,213.7l-84,140h-86.4l66-110h-284l66,110h-86.4l-84-140l84-140h86.4l-66,110h284l-66-110h86.4
	L1260.3,213.7z"/>
<path class="st21" d="M1121.3-34.3l-84,140h-86.4l66-110h-284l66,110h-86.4l-84-140l84-140h86.4l-66,110h284l-66-110h86.4
	L1121.3-34.3z"/>
<path class="st21" d="M993.2,1056.8l-84,140h-86.4l66-110h-284l66,110h-86.4l-84-140l84-140h86.4l-66,110h284l-66-110h86.4
	L993.2,1056.8z"/>
<path class="st21" d="M2005.1,1001.6l-84,140h-86.4l66-110h-284l66,110h-86.4l-84-140l84-140h86.4l-66,110h284l-66-110h86.4
	L2005.1,1001.6z"/>
<path class="st21" d="M2226.4,690.8l-84,140H2056l66-110h-284l66,110h-86.4l-84-140l84-140h86.4l-66,110h284l-66-110h86.4
	L2226.4,690.8z"/>
<path class="st21" d="M1764.3,108.7l-84,140h-86.4l66-110h-284l66,110h-86.4l-84-140l84-140h86.4l-66,110h284l-66-110h86.4
	L1764.3,108.7z"/>
<path class="st21" d="M294.2,576.5l-84,140h-86.4l66-110h-284l66,110h-86.4l-84-140l84-140h86.4l-66,110h284l-66-110h86.4
	L294.2,576.5z"/>
<path class="st21" d="M597.2,134l-84,140h-86.4l66-110h-284l66,110h-86.4l-84-140l84-140h86.4l-66,110h284l-66-110h86.4L597.2,134z"
	/>
<path class="st21" d="M1720,580.8h-108.4l-124-86.4h-153.2v86.4h-80v-280h340c77.2,0,118.4,43.6,118.4,96.8s-41.2,96.8-118.4,96.8
	L1720,580.8z M1585.2,434.4c29.2,0,46-16.8,46-36.8c0-20.4-16.8-36.8-46-36.8h-250.8v73.6H1585.2z"/>
<path class="st21" d="M1127.3,387.9v280h-80v-280H1127.3z"/>
<g>
	<path class="st21" d="M371.2,1196.8l-84,140h-86.4l66-110h-284l66,110h-86.4l-84-140l84-140h86.4l-66,110h284l-66-110h86.4
		L371.2,1196.8z"/>
</g>
<path class="st22" d="M428,293.5v92.4h-26.4v-39.7h-92.4v39.7h-26.4v-92.4h26.4v32.9h92.4v-32.9H428z"/>
<path class="st22" d="M595.8,293.5v92.4h-47.4l-75.5-80.1v80.1h-26.4v-92.4h47.4l75.5,80.1v-80.1H595.8z"/>
<path class="st22" d="M640.7,293.5v92.4h-26.4v-92.4H640.7z"/>
<path class="st22" d="M771.3,357.4l38.3,28.5H777l-39.5-28.5h-52v28.5h-26.4v-92.4h112.2c25.5,0,39.1,14.4,39.1,31.9
	S796.8,357.4,771.3,357.4z M768.3,337.5c9.6,0,15.2-5.5,15.2-12.1c0-6.7-5.5-12.1-15.2-12.1h-82.8v24.3H768.3z"/>
<path class="st22" d="M307.4,445.7v14.3h105.3v19.8H307.4v18.7h119.3v19.8H281v-92.4h145.7v19.8H307.4z"/>
<path class="st22" d="M519.2,518.3L493.9,499l-25.3,19.3h-39.2l46.6-33l-46.6-33h39.2l25.3,19.3l25.3-19.3h39.1l-46.5,33l46.6,33
	H519.2z"/>
<path class="st22" d="M666.7,472.1h-39.6v46.2h-26.4v-46.2h-39.6v-19.8h39.6v-26.4h26.4v26.4h39.6V472.1z"/>
<path class="st22" d="M788.9,491.3h-87.4c3.3,8.1,17,10.6,33.4,10.6c17.8,0,33.3-2.2,38.7-4.8l10.6,15.3c-9.2,5-21.9,9.2-49.2,9.2
	c-39.1,0-61-12.9-61-36.4s21.4-36.4,58.1-36.4c40.3,0,56.9,12.9,56.9,37.6V491.3z M701.1,478.1h61.1c-1.7-7.1-12.1-9.5-30.2-9.5
	C714.4,468.6,703,471,701.1,478.1z"/>
<path class="st22" d="M912.4,485.3v33H886v-26.4c0-16.2-11.5-23.2-25.1-23.2c-19,0-30.5,7-30.5,23.2v26.4h-26.4v-66h25.1l1.3,10.4
	c6.2-7.5,17.3-13.9,36.4-13.9C895.7,448.8,912.4,461.8,912.4,485.3z"/>
<path class="st22" d="M1039.3,412.7v105.6h-25.1l-1.3-7.7c-9,6.9-21.9,11.1-37.4,11.1c-29,0-49.9-12.9-49.9-36.4
	s20.9-36.4,49.9-36.4c15.4,0,28.4,4.2,37.4,11.1v-47.3H1039.3z M1012.9,485.3c0-9.6-11.5-16.6-30.4-16.6c-18.5,0-30,7-30,16.6
	s11.5,16.6,30,16.6C1001.4,501.9,1012.9,494.9,1012.9,485.3z"/>
<path class="st22" d="M1169.4,491.3h-87.4c3.3,8.1,17,10.6,33.4,10.6c17.8,0,33.3-2.2,38.7-4.8l10.6,15.3c-9.2,5-21.9,9.2-49.2,9.2
	c-39.1,0-61-12.9-61-36.4s21.4-36.4,58.1-36.4c40.3,0,56.9,12.9,56.9,37.6V491.3z M1081.7,478.1h61.1c-1.7-7.1-12.1-9.5-30.2-9.5
	C1095,468.6,1083.5,471,1081.7,478.1z"/>
<path class="st22" d="M1295,412.7v105.6h-25.1l-1.3-7.7c-9,6.9-21.9,11.1-37.4,11.1c-29,0-49.9-12.9-49.9-36.4s20.9-36.4,49.9-36.4
	c15.4,0,28.4,4.2,37.4,11.1v-47.3H1295z M1268.6,485.3c0-9.6-11.5-16.6-30.4-16.6c-18.5,0-30,7-30,16.6s11.5,16.6,30,16.6
	C1257.1,501.9,1268.6,494.9,1268.6,485.3z"/>
</svg>
