<?xml version="1.0" encoding="utf-8"?>
<!-- Generator: Adobe Illustrator 19.0.1, SVG Export Plug-In . SVG Version: 6.00 Build 0)  -->
<svg version="1.1" xmlns="http://www.w3.org/2000/svg" xmlns:xlink="http://www.w3.org/1999/xlink" x="0px" y="0px"
	 viewBox="0 0 403 500" style="enable-background:new 0 0 403 500;" xml:space="preserve">
<style type="text/css">
	.st0{display:none;}
	.st1{display:inline;}
	.st2{fill:#F71919;}
	.st3{display:inline;fill:none;stroke:#000000;stroke-miterlimit:10;}
	.st4{display:inline;fill:none;stroke:#FFFFFF;stroke-width:2;stroke-miterlimit:10;}
	.st5{fill:none;stroke:#FFFFFF;stroke-width:2;stroke-miterlimit:10;}
</style>
<g id="Layer_3" class="st0">
	<rect x="-475.6" y="-48.9" class="st1" width="715.5" height="715.5"/>
</g>
<g id="Layer_1" class="st0">
	<g id="_x30_5wUtC.tif" class="st1">
		
			<image style="overflow:visible;" width="1024" height="678" id="Layer_0_1_" xlink:href="A20E8BB6108E2EDE.png"  transform="matrix(1 0 0 1 84 -142)">
		</image>
	</g>
	<g id="_x34_bZtvi.tif" class="st1">
		
			<image style="overflow:visible;" width="1101" height="571" id="Layer_0_2_" xlink:href="A20E8BB6108E2EE2.png"  transform="matrix(1 0 0 1 -964.5026 24.9925)">
		</image>
	</g>
</g>
<g id="Layer_4" class="st0">
	<g class="st1">
		<path class="st2" d="M-26.5,457.7c0,0,0.8,0,2.2-0.1c0.7,0,1.5-0.1,2.5-0.2c1-0.1,2-0.2,3.2-0.3c1.2-0.1,2.4-0.3,3.7-0.5
			c1.3-0.2,2.7-0.5,4.2-0.8c2.9-0.6,5.9-1.3,8.9-2.1c3-0.8,6.1-1.6,8.9-2.3c0.7-0.1,1.4-0.3,2.1-0.4c0.3-0.1,0.7-0.1,1-0.2
			c0.3-0.1,0.7-0.1,1-0.2c1.3-0.3,2.4-0.9,3-1.8c0.6-0.9,0.5-2.1,0.3-2.9c-0.3-0.9-0.7-1.6-1.2-2.1c-0.4-0.5-0.8-0.9-1.1-1.1
			c-0.3-0.2-0.5-0.3-0.5-0.3s0.2,0.1,0.5,0.2c0.3,0.2,0.8,0.5,1.2,1c0.5,0.5,1,1.2,1.3,2.1c0.3,0.9,0.5,2.1-0.2,3.2
			c-0.6,1.1-1.9,1.7-3.3,2.1c-0.3,0.1-0.7,0.2-1,0.2c-0.3,0.1-0.7,0.1-1,0.2c-0.7,0.1-1.4,0.3-2.1,0.5c-2.8,0.7-5.9,1.6-8.9,2.4
			c-3,0.8-6.1,1.5-9,2c-1.4,0.3-2.9,0.5-4.2,0.7c-1.3,0.2-2.6,0.3-3.8,0.4c-1.2,0.1-2.3,0.2-3.2,0.2c-1,0-1.8,0.1-2.5,0
			C-25.7,457.7-26.5,457.7-26.5,457.7z"/>
	</g>
	<g class="st1">
		<path class="st2" d="M11,150.9c0,0,0.1,0.6,0.2,1.8c0.1,1.2,0.4,2.9,0.3,5.1c0,0.5,0,1.1,0,1.7c0,0.6,0,1.2-0.1,1.9
			c-0.1,1.3-0.2,2.7-0.3,4.3c-0.2,1.5-0.5,3.1-0.7,4.8c-0.3,1.7-0.7,3.4-1.1,5.3c-0.5,1.8-1,3.7-1.6,5.7c-0.7,1.9-1.3,3.9-2,6
			c-0.8,2-1.5,4.1-2.5,6.2c-0.9,2.1-1.9,4.2-2.9,6.3c-2.1,4.2-4.5,8.5-7.4,12.5c-1.5,2-3,4-4.9,5.7c-0.9,0.9-1.9,1.6-2.8,2.5
			c-0.9,0.8-1.8,1.7-2.5,2.7c-0.8,1-1.4,2-1.9,3.1c-0.5,1.1-0.9,2.3-1.3,3.5c-0.9,2.4-2.3,4.6-4,6.4c-1.7,1.8-3.6,3.5-5.9,4.5
			c-1.2,0.5-2.4,0.7-3.6,0.8c-1.2,0.1-2.4,0-3.4,0.5c-1,0.5-1.4,1.6-1.7,2.7c-0.2,0.5-0.3,1.1-0.4,1.6c-0.1,0.6-0.2,1.1-0.3,1.7
			c-0.2,1.1-0.3,2.2-0.5,3.3c-0.2,1.1-0.3,2.2-0.3,3.2c0,1.1,0.5,2,1.2,2.7c0.7,0.7,1.5,1.5,2.2,2.2c0.4,0.4,0.7,0.7,1,1.1
			c0.4,0.4,0.7,0.8,0.9,1.2c0.3,0.4,0.5,0.8,0.8,1.3c0.3,0.4,0.4,0.9,0.5,1.4c0.5,1.9,0.2,3.8-0.4,5.4c-0.6,1.6-1.6,3-2.7,4.1
			c-2.1,2.3-4.5,3.6-6.4,4.6c-0.5,0.2-1,0.4-1.4,0.7c-0.5,0.2-0.9,0.3-1.3,0.5c-0.4,0.1-0.8,0.3-1.1,0.4c-0.3,0.1-0.7,0.2-0.9,0.3
			c-1.1,0.3-1.7,0.5-1.7,0.5s0.6-0.2,1.7-0.5c0.3-0.1,0.6-0.2,0.9-0.3c0.3-0.1,0.7-0.3,1.1-0.4c0.4-0.2,0.8-0.3,1.3-0.5
			c0.4-0.2,0.9-0.4,1.4-0.7c1.9-1,4.3-2.4,6.3-4.7c1-1.1,1.9-2.5,2.5-4.1c0.6-1.6,0.8-3.4,0.3-5.2c-0.1-0.4-0.2-0.9-0.5-1.3
			c-0.2-0.4-0.4-0.8-0.7-1.2c-0.3-0.4-0.6-0.8-0.9-1.1c-0.3-0.4-0.7-0.7-1-1.1c-0.7-0.7-1.5-1.4-2.2-2.2c-0.4-0.4-0.7-0.8-1-1.3
			c-0.2-0.5-0.3-1.1-0.4-1.6c0-1.1,0.1-2.2,0.3-3.3c0.2-1.1,0.3-2.2,0.5-3.3c0.1-0.6,0.2-1.1,0.3-1.7c0.1-0.6,0.2-1.1,0.4-1.7
			c0.1-0.6,0.4-1.1,0.7-1.7c0.2-0.3,0.3-0.5,0.5-0.8c0.3-0.2,0.5-0.5,0.8-0.6c1.2-0.6,2.4-0.4,3.6-0.6c1.2-0.1,2.3-0.4,3.4-0.8
			c2.2-0.9,4-2.6,5.7-4.4c1.7-1.8,3-3.9,3.8-6.2c0.4-1.2,0.8-2.4,1.3-3.5c0.5-1.2,1.1-2.3,1.9-3.3c0.8-1,1.7-1.9,2.6-2.8
			c0.9-0.8,2-1.6,2.8-2.4c1.8-1.6,3.4-3.6,4.8-5.6c2.9-4,5.3-8.2,7.4-12.4c1-2.1,2.1-4.2,2.9-6.3c0.9-2.1,1.7-4.1,2.5-6.1
			c0.8-2,1.4-4,2.1-5.9c0.6-1.9,1.1-3.8,1.6-5.6c0.4-1.8,0.8-3.6,1.2-5.3c0.3-1.7,0.6-3.3,0.8-4.8c0.1-1.5,0.3-2.9,0.4-4.3
			c0.1-0.7,0.1-1.3,0.1-1.9c0-0.6,0-1.2,0-1.7c0.1-2.2-0.1-3.9-0.2-5.1C11.1,151.5,11,150.9,11,150.9z"/>
	</g>
</g>
<g id="Layer_2" class="st0">
	<path class="st4" d="M-43,375.8c0,0,6,36.7,7.5,48.7s7.2,24,26.5,24c17,0,20.3-4.2,20.7-6.2c0.3-2,5.8-73.1,4.8-106.5"/>
	<path class="st4" d="M31.6,312.2c0,0-1.6,88.8-2.9,112.8c-1.3,24-9,24-14.7,26.3c-5.7,2.3-25,9-25,9l-144,5.7c0,0-29.3-5-57.7-8
		s-26.7-13.3-41.3-68c-14.7-54.7-13.3-87-13.3-96s3-9.7,6.6-4.3l9.2,11.8"/>
	<path class="st4" d="M-50.3,329.3c38.7,0,81.7-37.3,87.3-79s-14-65.7-14-65.7S6.3,281-55.3,281L-50.3,329.3c0,0,76-10.7,76-86
		c0-17.5-3.3-23.3-9.1-34.2"/>
	<path class="st4" d="M-132.8,75.1c0,0,30.1,10.2,46.4,61.5c12.5,39.2,22.2,78.5,26.1,95c1.1,4.7,6.1,7.4,10.6,5.8
		c16.2-5.8,49.6-26.1,54.8-94.3"/>
	<path class="st4" d="M38,295.4c2,36.1,11.5,171.6,8.5,214.1l-3,3.5l-7.5,0.5L-17,501l-142.2,6l-96.8,18.5l-7.5-3
		c-40-52-45-71-48-82.5s-2.5-56.9-2.5-56.9l5-5.6c-2.5-70.5,10-156,10-156l-10-29c13.5-50.5,43-118,158-118
		c125.5,0,194.5,87,194.5,180.8c0,104.8-100.3,124.5-100.3,124.5c-138-28-222.2-124.5-222.2-124.5s-13.5,7.9-0.3,136.8
		c9.9,96.7,15.8,130.4,15.8,130.4"/>
	<polyline class="st4" points="12.5,340 11.9,367 8,372 8,426.5 12.5,431.9 	"/>
	<polyline class="st4" points="-5,494.2 41.3,509.7 46.5,509.5 	"/>
	<path class="st4" d="M3.2,239.9c1.8,13,3,21.4,3.7,26.8c0.8,5.7,0.1,11.6-2,16.9l-10,25.9"/>
</g>
<g id="Layer_5">
	<path class="st5" d="M75.1,269.7c0,13.8,15,80.5,22,102s5.5,30,33.5,30s31-16.5,33-30c1.6-10.6,3.5-34.9,4.2-44.8
		c0.2-2.6-1-5.2-3.1-6.8c-22.9-17-59.9-45.8-85.1-70.5C79.6,249.7,75.1,248.9,75.1,269.7z"/>
	<path class="st5" d="M288.1,324c0,0,6,36.7,7.5,48.7s7.2,24,26.5,24c17,0,20.3-4.2,20.7-6.2c0.3-2,5.8-73.1,4.8-106.5"/>
	<path class="st5" d="M362.7,260.3c0,0-1.6,88.8-2.9,112.8c-1.3,24-9,24-14.7,26.3s-25,9-25,9l-144,5.7c0,0-29.3-5-57.7-8
		s-26.7-13.3-41.3-68s-13.3-87-13.3-96s3-9.7,6.6-4.3l9.2,11.8"/>
	<line class="st5" x1="130.6" y1="401.7" x2="326.1" y2="396.7"/>
	<path class="st5" d="M164.7,320.2c17.2,10.5,53.7,11.1,81.7,11.1c13.5,0,27.9-3.3,27.9-3.3"/>
	<path class="st5" d="M280.7,277.5c38.7,0,81.7-37.3,87.3-79s-14-65.7-14-65.7s-16.7,96.3-78.3,96.3L280.7,277.5c0,0,76-10.7,76-86
		c0-17.5-3.3-23.3-9.1-34.2"/>
	<path class="st5" d="M253.4,229.2c-45.3,0-130-68-153-91c0,0-15.3,17.3-14.7,33c0.7,15.7,4.7,24,24,38.7
		c19.3,14.7,64.7,63.7,148.3,68.7L253.4,229.2z"/>
	<path class="st5" d="M99.7,201.5c-7.7-26,5-46,12-46s81.7,73.7,141.7,73.7c0,0,10.6,0,22.3,0"/>
	<path class="st5" d="M198.3,23.3c0,0,30.1,10.2,46.4,61.5c12.5,39.2,22.2,78.5,26.1,95c1.1,4.7,6.1,7.4,10.6,5.8
		c16.2-5.8,49.6-26.1,54.8-94.3"/>
	<path class="st5" d="M259.1,229.2l5,49.3c0,0-3.6,0.2-6,0"/>
	<path class="st5" d="M176.6,25.7c20-1.2,42,33,57,79c10.1,31.1,15.7,58.7,18.2,73.4c0.9,5.1-4.1,9.1-8.9,7.3
		c-19.2-7.4-61.7-25.9-106.4-59.2c-60.5-45-48-64.5-34.5-79.5C102.1,46.7,128.6,28.7,176.6,25.7z"/>
	<path class="st5" d="M369.1,243.5c2,36.1,11.5,171.6,8.5,214.1l-3,3.5l-7.5,0.5l-53-12.5l-142.2,6l-96.8,18.5l-7.5-3
		c-40-52-45-71-48-82.5s-2.5-56.9-2.5-56.9l5-5.6c-2.5-70.5,10-156,10-156l-10-29c13.5-50.5,43-118,158-118
		c125.5,0,194.5,87,194.5,180.8c0,104.8-100.3,124.5-100.3,124.5c-138-28-222.2-124.5-222.2-124.5s-13.5,7.9-0.3,136.8
		c9.9,96.7,15.8,130.4,15.8,130.4"/>
	<circle class="st5" cx="233.3" cy="371.4" r="6.7"/>
	<polyline class="st5" points="343.6,288.1 342.9,315.2 339.1,320.2 339.1,374.7 343.6,380.1 	"/>
	<path class="st5" d="M176.9,325.7c-0.3,19.5-5.5,52.5-8,61s-9.2,12.9-12.2,14.3"/>
	<polyline class="st5" points="176.1,414.2 171.7,448.2 75.1,470.2 67.6,470.7 	"/>
	<polyline class="st5" points="171.7,448.2 326.1,442.4 320.1,408.5 	"/>
	<polyline class="st5" points="326.1,442.4 372.4,457.8 377.6,457.7 	"/>
	<path class="st5" d="M334.3,188.1c1.8,13,3,21.4,3.7,26.8c0.8,5.7,0.1,11.6-2,16.9l-10,25.9"/>
</g>
</svg>
