<?xml version="1.0" encoding="utf-8"?>
<!-- Generator: Adobe Illustrator 19.0.1, SVG Export Plug-In . SVG Version: 6.00 Build 0)  -->
<svg version="1.1" id="Layer_1" xmlns="http://www.w3.org/2000/svg" xmlns:xlink="http://www.w3.org/1999/xlink" x="0px" y="0px"
	 viewBox="0 0 2694.4 1968.1" style="enable-background:new 0 0 2694.4 1968.1;" xml:space="preserve">
<style type="text/css">
	.st0{fill:#F800FF;}
	.st1{fill:#FFFFFF;}
	.st2{fill:#33FF4B;}
	.st3{fill:#FF8FE7;}
	.st4{fill:#341FFF;}
	.st5{fill:#5D4CFF;}
	.st6{fill:#8579FF;}
	.st7{fill:#AEA5FF;}
	.st8{fill:#D6D2FF;}
	.st9{fill:#FFD9D2;}
	.st10{fill:#FFB3A5;}
	.st11{fill:#FF8E77;}
	.st12{fill:#FF684A;}
	.st13{fill:#FF421D;}
	.st14{fill:#F71963;}
	.st15{fill:#222222;}
	.st16{fill:#828282;}
	.st17{fill:#1C114C;}
	.st18{clip-path:url(#SVGID_2_);}
	.st19{fill:#AA27FF;}
	.st20{fill:#FF9429;}
	.st21{fill:none;stroke:#FF3E6C;stroke-width:2;stroke-miterlimit:10;}
	.st22{fill:none;stroke:#45FF40;stroke-width:2;stroke-miterlimit:10;}
	.st23{fill:#9292FF;}
	.st24{fill:none;stroke:#C548FF;stroke-width:2;stroke-miterlimit:10;}
	.st25{fill:#F2EB99;}
	.st26{fill:#FFD7FF;}
</style>
<rect width="2694.4" height="1968.1"/>
<g>
	<path d="M577.4,569.3c-5.4,0-10.7,0.1-15.8,0.4h31.7C588.1,569.4,582.8,569.3,577.4,569.3z"/>
	<path class="st0" d="M1172.3,1049.8v29.5c99,22.3,167.7,93.8,180.7,190c5-0.7,16.3-3,27.5-11.3
		C1363.3,1148.9,1283.8,1071.8,1172.3,1049.8z"/>
	<path class="st0" d="M1355.3,1303.4c0,140.3-103.4,239.6-250.9,239.6c-133.1,0-227.3-98.3-291.8-235.5
		c60.3-122.4,139.3-213.8,250.1-232.1v-29.5c-70.5,8.8-124.4,40.2-169.6,88.4c-10.5,15.3-22.2,29.6-35,42.9
		c-21.4,29.7-40.9,63.5-59.8,100.6c-6.8-13.4-13.7-26.4-20.7-38.9c-7.8,4.4-15.9,8.5-24.1,12.3c10.7,17.9,20.8,36.7,30.5,56.3
		C719.4,1444.7,625.3,1543,492.1,1543c-147.4,0-250.9-99.3-250.9-239.6c0-53.4,16.1-100.6,44.7-138.3c-6.7-7.7-13.1-15.6-19.1-23.9
		c-34.5,43-54.3,98.3-54.3,162.2c0,160.8,116.7,268.3,279.5,268.3c152.6,0,234.5-98.3,306.1-235.5
		c71.7,137.2,153.6,235.5,306.1,235.5c162.8,0,279.5-107.5,279.5-268.3c0-11.6-0.7-22.8-1.9-33.8h-29
		C1354.5,1280.6,1355.3,1291.8,1355.3,1303.4z"/>
	<path class="st0" d="M725.8,1209c7.5-6.2,14.5-12.9,21-19.9c-61.3-90.3-137-145.7-254.7-145.7c-55.7,0-106,12.2-148,34.5
		c3.2,9.4,6.8,18.6,10.7,27.8c38.5-21.5,85.1-33.6,137.3-33.6C590.5,1072,665.9,1125.6,725.8,1209z"/>
	<path class="st0" d="M1510.9,849.4c2,8.9,3.6,18.5,4.8,28.7h120c5.1-10.1,10.9-19.6,17.3-28.7H1510.9z"/>
	<path class="st0" d="M1854.3,1093.1l-5.8-126.5h-44.9C1844.4,1025.8,1854.3,1093.1,1854.3,1093.1z"/>
	<path class="st0" d="M1843.1,849.4h-98.2c-9.2,16.3-15.3,33.1-19.2,47.8c21.6,10.6,39.7,24.8,54.8,40.7h66.7L1843.1,849.4z"/>
	<path class="st0" d="M1408.8,1118.5V938.1l-42.9-60.1h38.7c-2-10.7-4.8-20.2-8.4-28.7h-179.8L1408.8,1118.5z"/>
	<path class="st0" d="M1575.7,1269.6h-58.9l59,82.5l-363.5,418.8h630.7l11.3-243.7c0,0-31.7,134.1-215,134.1h-295.9l319.5-365.5
		l-16.4-24.6l-128.1-179.6v97C1518.3,1267.6,1575.7,1269.6,1575.7,1269.6z"/>
	<path class="st0" d="M1948.9,1266.9c-9.3,2.9-18.8,5.3-28.7,7.1v146.4h-167.9v28.7h167.9l1,519.1h28.7l-1-519.1h168.9v-28.7h-168.9
		V1266.9z"/>
	<path class="st0" d="M2225.6,974V786.3h-109.3v-28.7h109.3V578.2c-16-12-34.6-11-34.6-11l34.6-3V338.2c0-78.8,57.3-80.9,57.3-80.9
		H2116v797.6h132.3v-15.8C2236.3,1027.7,2225.6,1008,2225.6,974z"/>
	<path class="st0" d="M2064.9,844V257.3h-109.6c-173,0-283.6,80.9-283.6,252.9c0,114.8,52.5,200.7,139.4,244
		c18.1-3.1,37.3-4.7,57.4-4.7C1964.9,749.5,2028.7,790.2,2064.9,844z M1792.5,520.4c0-144.4,61.4-226.3,162.8-226.3v459.7
		C1871.3,753.9,1792.5,663.8,1792.5,520.4z"/>
	<path class="st0" d="M1982.2,937.9c0-11.5,0.4-70.4-26.9-113.4v113.4H1982.2z"/>
	<path class="st0" d="M1955.3,974c0,78.8-57.3,80.9-57.3,80.9h166.9v-88.4h-109.6V974z"/>
	<path class="st0" d="M2516.2,757.2l-149.5,149.5l149.5,149.5h28.7l149.5-149.5l-149.5-149.5H2516.2z M2530.6,1030.6l-123.9-123.9
		l123.9-123.9l123.9,123.9L2530.6,1030.6z"/>
	<polygon class="st0" points="2266,390.1 2286.5,410.6 2404.2,291.8 2523,410.6 2543.5,390.1 2424.7,271.3 2543.5,151.5 2523,131 
		2404.2,250.8 2285.5,132.1 2265,152.5 2383.8,271.3 	"/>
	<path class="st0" d="M910.1,716.7h49c0,0-58.4-2-58.4-80.9V28.7h153.6v607.2c0,78.8-57.3,80.9-57.3,80.9h225.3
		c0,0-58.4-2-58.4-80.9V28.7h110.6V0H680.6v28.7h110.6v566.9C840.9,625.3,881.4,666.3,910.1,716.7z"/>
	<path class="st0" d="M733.8,716.7h64.9c-5.2-11.4-10.9-22.6-17.4-33.3C765,715.6,733.8,716.7,733.8,716.7z"/>
	<path class="st0" d="M199.2,861c-24.7-26.9-39.1-63.3-40-108.1c-1-75.8,36.9-121.8,72.7-148.5c14,19,29.4,40.1,46.8,63.6
		c21.2-25.3,46-47.2,74-65.4L320,558.4c150.5-69.6,189.4-107.5,189.4-181.2c0-76.8-84-132.1-194.5-132.1s-196.6,55.3-196.6,132.1
		c0,53.2,19.5,92.2,78.8,177.1l15.4,21.5c-88.1,41-167.9,92.2-167.9,188.4c0,105.5,59.6,171.1,154.8,198.7
		c-1.9-16.8-2.9-34-2.9-51.7C196.5,894,197.4,877.3,199.2,861z M314.9,274.8c82.9,0,97.3,57.3,97.3,102.4
		c0,42-12.3,105.5-109.6,157.7c-7.2-11.3-14.3-21.5-21.5-30.7c-45.1-65.5-63.5-100.3-63.5-142.3C217.6,332.1,232,274.8,314.9,274.8z
		"/>
	<path class="st0" d="M743.9,897.3c-52.2,50.2-115.7,32.8-196.6-48.1c24.6-41,43-91.1,54.3-149.5c9.8-49,36.7-88.4,76.7-110.5
		c-24.6-10.9-52.8-17.8-85-19.5h-31.7c-23.3,1.2-44.5,5.2-63.7,11.4c44.2,19.7,77,64.8,65.9,133c-6.1,39.9-20.5,76.8-42,108.5
		c-24.6-27.6-51.2-60.4-79.9-99.3L392.2,656c-22.4,28.7-38.7,62.3-50.2,97c17.2,22.8,35.7,47.3,55.9,73.7
		c16.4,21.5,35.8,43,55.3,61.4c-29.7,18.4-65.5,28.7-104.4,28.7c-10.8,0-21.2-0.6-31.3-1.7c0.1,19.3,1.4,40.7,4.2,63.1
		c67-0.7,123.1-20.1,167.4-58.3C577,989.5,678.4,1010,743.9,897.3z"/>
	<path class="st0" d="M758.2,569.7h-19.7c0.7,0.3,1.4,0.5,2.1,0.8C746.3,570,752.2,569.7,758.2,569.7z"/>
	<path class="st25" d="M837.5,911.2c0,81-19.9,201.9-90.6,277.8c10.6,15.6,20.8,32.3,30.7,49.9c30.1-16.8,57.1-37.5,80.5-61.8
		c11.1-15.5,22.8-29.8,35-42.9c41.7-60.5,65.2-136.4,65.2-223c0-74.3-17.2-139.9-48.2-194.5H798.7
		C827.9,781.4,837.5,855.2,837.5,911.2z"/>
	<path class="st25" d="M577.4,1259.4c-119,0-186.4-70-222.5-153.8c-27.4,15.3-50.6,35.4-68.9,59.5c68,77.6,170.2,123,291.4,123
		c65,0,124.5-12.9,176.1-36.8c-8.8-14.8-18-28.9-27.6-42.2C688.8,1239.8,640.3,1259.4,577.4,1259.4z"/>
	<path class="st25" d="M781.4,683.4c5.8-11.5,9.8-26.9,9.8-47.6v-40.3c-15.9-9.5-32.8-17.9-50.6-25c-23.2,2.2-44.1,8.6-62.3,18.7
		C723.9,609.4,757.3,643.4,781.4,683.4z"/>
	<path class="st25" d="M344.1,1077.8c-11.4-33.2-18.6-67.5-22.6-99.7c-1.2,0-2.4,0-3.6,0c-43.6,0-83.5-5.1-118.5-15.2
		c7.9,68.4,31.4,128.7,67.5,178.2C287.6,1115.3,313.7,1094,344.1,1077.8z"/>
	<path class="st25" d="M341.9,753c-23.6-31.4-44.5-59.6-63.2-84.9c-43,51.4-71,116.7-79.5,193c27.8,30.3,68.6,48.7,118.1,54.1
		c0-1.3,0-2.6,0-3.9C317.3,865.5,323.7,807.9,341.9,753z"/>
	<path class="st25" d="M497.8,581.1c-16.9-7.6-35.5-11.4-53.9-11.4h117.7c5.2-0.3,10.5-0.4,15.8-0.4s10.7,0.1,15.8,0.4h145.3
		c-48-19-102.3-29.1-161.1-29.1c-86.4,0-163.1,22-224.7,62l39.5,53.4C418.3,622.6,452.8,595.6,497.8,581.1z"/>
	<path class="st26" d="M354.8,1105.6c-3.9-9.1-7.5-18.4-10.7-27.8c-30.4,16.1-56.5,37.5-77.2,63.3c6,8.3,12.4,16.3,19.1,23.9
		C304.2,1141,327.5,1120.9,354.8,1105.6z"/>
	<path class="st26" d="M725.8,1209c9.6,13.3,18.8,27.5,27.6,42.2c8.2-3.8,16.3-7.9,24.1-12.3c-9.9-17.6-20.1-34.3-30.7-49.9
		C740.3,1196.1,733.3,1202.8,725.8,1209z"/>
	<path class="st25" d="M893.1,1134.2c-12.3,13.1-23.9,27.4-35,42.9C870.8,1163.9,882.5,1149.6,893.1,1134.2z"/>
	<path class="st26" d="M781.4,683.4c6.4,10.7,12.2,21.9,17.4,33.3h111.3c-28.7-50.5-69.2-91.5-118.9-121.2v40.3
		C791.2,656.6,787.2,672,781.4,683.4z"/>
	<path class="st25" d="M443.9,569.7c18.4,0,37,3.9,53.9,11.4c19.3-6.2,40.5-10.2,63.7-11.4H443.9z"/>
	<path class="st25" d="M678.2,589.2c18.2-10.1,39.1-16.5,62.3-18.7c-0.7-0.3-1.4-0.5-2.1-0.8H593.2
		C625.4,571.4,653.6,578.3,678.2,589.2z"/>
	<path class="st26" d="M278.7,668.1c18.7,25.4,39.6,53.5,63.2,84.9c11.5-34.7,27.8-68.2,50.2-97l-39.5-53.4
		C324.7,620.8,299.9,642.8,278.7,668.1z"/>
	<path class="st26" d="M321.5,978.2c-2.8-22.4-4.1-43.8-4.2-63.1c-49.5-5.4-90.3-23.8-118.1-54.1c-1.8,16.2-2.7,33-2.7,50.2
		c0,17.7,1,35,2.9,51.7c35.1,10.2,75,15.2,118.5,15.2C319.2,978.2,320.3,978.2,321.5,978.2z"/>
	<path class="st25" d="M1172.3,1049.8V825.2l42-12.3c97.5-28.2,157.6-21.8,182,36.4h114.7c-22.2-98.5-96.8-123.2-256.7-77.4
		l-81.9,23.5l-5.1-37.9l-161.8,20.5c0,0,57.3-2,57.3,60.4v207.3c13.3-1.7,27.2-2.5,41.7-2.5
		C1128.1,1043.3,1150.8,1045.5,1172.3,1049.8z"/>
	<path class="st25" d="M1353,1269.6c0-0.1,0-0.2,0-0.3c-1.6,0.2-2.6,0.3-2.6,0.3H1353z"/>
	<path class="st25" d="M1408.8,928.7v9.5l109.6,153.5v-163c0-18.3-0.9-35.1-2.7-50.6h-111.1C1407.4,892.7,1408.8,909.5,1408.8,928.7
		z"/>
	<path class="st25" d="M1004.3,1269.6h225.3c0,0-57.3-2-57.3-80.9v-109.4c-21.3-4.8-44-7.3-67.8-7.3c-14.4,0-28.3,1.2-41.7,3.4
		v113.3C1062.7,1267.6,1004.3,1269.6,1004.3,1269.6z"/>
	<path class="st25" d="M1408.8,1188.7c0,38.6-14,58.8-28.3,69.4c0.6,3.8,1.1,7.6,1.6,11.5h134.8l-108-151.1V1188.7z"/>
	<path class="st26" d="M1104.4,1072c23.8,0,46.5,2.5,67.8,7.3v-29.5c-21.5-4.2-44.2-6.5-67.8-6.5c-14.5,0-28.4,0.9-41.7,2.5v29.5
		C1076.1,1073.1,1090,1072,1104.4,1072z"/>
	<path class="st26" d="M1353,1269.4c0,0.1,0,0.2,0,0.3h29c-0.4-3.9-1-7.7-1.6-11.5C1369.3,1266.3,1358,1268.7,1353,1269.4z"/>
	<path class="st26" d="M1396.2,849.4c3.5,8.4,6.3,18,8.4,28.7h111.1c-1.2-10.2-2.8-19.7-4.8-28.7H1396.2z"/>
	<path class="st26" d="M1408.8,1118.5l108,151.1h58.9c0,0-57.3-2-57.3-80.9v-97l-109.6-153.5V1118.5z"/>
	<path class="st25" d="M1868.5,778.1c43.4,0,70.2,20.2,86.8,46.4v-38.9c-54.5,0-103.2-11-144.2-31.4c-68.8,11.9-122.8,45.4-158,95.2
		h91.8C1765.7,812.4,1803,778.1,1868.5,778.1z"/>
	<path class="st25" d="M1948.9,1251.4v15.5c84.1-26.5,144.2-99.4,157.1-193.9c-29.7,86-98.3,141.3-199.7,141.3
		c-116.7,0-187.4-92.2-187.4-247.8h84.5c-6.8-9.9-14.5-19.6-23.1-28.7H1719c0-5.4,1.4-21.1,6.6-40.7c-24.2-11.8-52.7-19.1-86.4-19.1
		h-3.6c-19.1,37.5-29.3,81.9-29.3,131.5c0,160.8,108.5,268.3,270.3,268.3c15,0,29.5-1.3,43.5-3.8v-22.6H1948.9z"/>
	<polygon class="st25" points="1847.1,937.9 1848.5,966.5 1955.3,966.5 1955.3,937.9 	"/>
	<path class="st25" d="M2102,966.5c0-40.9-11.8-84.9-37.1-122.5v122.5H2102z"/>
	<path class="st26" d="M1780.4,937.9c8.6,9.1,16.3,18.8,23.1,28.7h44.9l-1.3-28.7H1780.4z"/>
	<path class="st26" d="M1725.6,897.2c3.9-14.7,10-31.5,19.2-47.8H1653c-6.4,9-12.2,18.6-17.3,28.7h3.6
		C1672.9,878.1,1701.5,885.3,1725.6,897.2z"/>
	<path class="st26" d="M1948.9,1251.4h-28.7v22.6c9.8-1.8,19.4-4.1,28.7-7.1V1251.4z"/>
	<path class="st26" d="M1955.3,824.5c27.3,43,26.9,101.9,26.9,113.4h-26.9v28.7h109.6V844c-36.2-53.8-99.9-94.6-196.3-94.6
		c-20.1,0-39.3,1.6-57.4,4.7c41,20.4,89.7,31.4,144.2,31.4V824.5z"/>
	<path class="st25" d="M2357.9,1188.7V786.3h123.9v-28.7h-123.9V552.9l-132.3,11.4v14c12.1,9.1,22.8,25.6,22.8,55.6v123.9h-22.8
		v28.7h22.8v252.8c16,15.1,34.6,15.8,34.6,15.8h-34.6v133.8c0,78.8-57.3,80.9-57.3,80.9h225.3
		C2416.3,1269.6,2357.9,1267.6,2357.9,1188.7z"/>
	<path class="st25" d="M2248.4,1039.1v15.8h34.6C2282.9,1054.9,2264.4,1054.2,2248.4,1039.1z"/>
	<path class="st26" d="M2225.6,578.2v-14l-34.6,3C2191,567.2,2209.6,566.2,2225.6,578.2z"/>
	<rect x="2116.3" y="757.7" class="st26" width="109.3" height="28.7"/>
</g>
</svg>
