<?xml version="1.0" encoding="utf-8"?>
<!-- Generator: Adobe Illustrator 19.0.1, SVG Export Plug-In . SVG Version: 6.00 Build 0)  -->
<svg version="1.1" id="Layer_1" xmlns="http://www.w3.org/2000/svg" xmlns:xlink="http://www.w3.org/1999/xlink" x="0px" y="0px"
	 viewBox="0 0 2522.4 1653.6" style="enable-background:new 0 0 2522.4 1653.6;" xml:space="preserve">
<style type="text/css">
	.st0{fill:#F800FF;}
	.st1{fill:#FFFFFF;}
	.st2{fill:#33FF4B;}
	.st3{fill:#FF8FE7;}
	.st4{fill:#341FFF;}
	.st5{fill:#5D4CFF;}
	.st6{fill:#8579FF;}
	.st7{fill:#AEA5FF;}
	.st8{fill:#D6D2FF;}
	.st9{fill:#FFD9D2;}
	.st10{fill:#FFB3A5;}
	.st11{fill:#FF8E77;}
	.st12{fill:#FF684A;}
	.st13{fill:#FF421D;}
	.st14{fill:#F71963;}
	.st15{fill:#222222;}
	.st16{fill:#828282;}
	.st17{fill:#1C114C;}
	.st18{clip-path:url(#SVGID_2_);}
	.st19{fill:#AA27FF;}
	.st20{fill:#FF9429;}
	.st21{fill:none;stroke:#FF3E6C;stroke-width:2;stroke-miterlimit:10;}
	.st22{fill:none;stroke:#45FF40;stroke-width:2;stroke-miterlimit:10;}
	.st23{fill:#9292FF;}
	.st24{fill:none;stroke:#C548FF;stroke-width:2;stroke-miterlimit:10;}
	.st25{fill:#F2EB99;}
	.st26{fill:#7751ED;}
	.st27{fill:#FF5500;}
	.st28{fill:#C98AFF;}
	.st29{fill:none;stroke:#7751ED;stroke-miterlimit:10;}
	.st30{fill:none;stroke:#7751ED;stroke-width:2;stroke-miterlimit:10;}
	.st31{fill:none;stroke:#FF5500;stroke-width:2;stroke-miterlimit:10;}
	.st32{fill:#FF3000;}
	.st33{fill:#8B5EFC;}
</style>
<g>
	<path class="st0" d="M684.8,1045.8c0,82.2-59.7,137.2-142.9,137.2c-78,0-119.9-50.3-156.5-120.4c-36.6,70.2-78.5,120.4-156.5,120.4
		c-83.2,0-142.9-55-142.9-137.2c0-79.6,59.7-133,142.9-133c78,0,119.9,47.6,156.5,119.9c36.6-72.2,78.5-119.9,156.5-119.9
		C625.1,912.8,684.8,966.2,684.8,1045.8z M378,1047.9c-34.6-70.2-81.1-120.4-149.2-120.4c-75.4,0-128.3,49.2-128.3,118.3
		c0,71.7,52.9,122.5,128.3,122.5C296.9,1168.3,345.1,1118.1,378,1047.9z M670.2,1045.8c0-69.1-52.9-118.3-128.3-118.3
		c-68.1,0-114.6,50.3-149.2,120.4c33,70.2,81.1,120.4,149.2,120.4C617.3,1168.3,670.2,1117.5,670.2,1045.8z"/>
</g>
<g>
	<path class="st0" d="M925.3,1160.3l-5.8,124.6h-323l186.4-214.1l-183.8-257h320.4l5.8,124.6c0,0-16.2-109.9-109.9-109.9H675.6
		l152.3,213.1l-163.3,187.4h150.8C909.1,1228.8,925.3,1160.3,925.3,1160.3z"/>
</g>
<g>
	<path class="st0" d="M1060.1,1120.3h-86.4l0.5,265.4h-14.7l-0.5-265.4h-85.9v-14.7H959v-86.4h14.7v86.4h86.4V1120.3z"/>
</g>
<g>
	<path class="st0" d="M976.9,511h56v407.8h-85.3c0,0,29.3-1,29.3-41.4v-96.3c-86.9,0-145-54.4-145-140.8
		C831.9,552.3,888.5,511,976.9,511z M976.9,766.4V525.6c-51.8,0-83.2,46.1-83.2,119.9C893.7,718.8,934,766.4,976.9,766.4z
		 M1144.5,918.8h-85.3V511h85.3c0,0-29.3,1-29.3,41.4v325.1C1115.1,917.7,1144.5,918.8,1144.5,918.8z"/>
</g>
<g>
	<path class="st0" d="M1354.8,843l-76.4,76.4h-14.7l-76.4-76.4l76.4-76.4h14.7L1354.8,843z M1271.1,906.3l63.3-63.3l-63.3-63.3
		l-63.3,63.3L1271.1,906.3z"/>
</g>
<g>
	<path class="st0" d="M1216.9,518.1l60.7,60.7l-10.5,10.5l-60.7-60.7l-60.2,60.7l-10.5-10.5l60.2-60.7l-60.7-60.7l10.5-10.5
		l60.7,60.7l60.7-61.3l10.5,10.5L1216.9,518.1z"/>
</g>
<g>
	<path class="st0" d="M572.3,394.1v310.4c0,40.3,29.8,41.4,29.8,41.4H486.9c0,0,29.3-1,29.3-41.4V394.1h-78.5v310.4
		c0,40.3,29.8,41.4,29.8,41.4H352.4c0,0,29.3-1,29.3-41.4V394.1h-56.5v-14.7h303.6v14.7H572.3z"/>
</g>
<g>
	<path class="st0" d="M357.6,838.2c-33.5,57.6-85.3,47.1-130.4,11.5c-23,19.9-52.4,29.8-87.4,29.8C57.1,879.6,0,844,0,770.1
		c0-49.2,40.8-75.4,85.9-96.3l-7.9-11c-30.4-43.5-40.3-63.3-40.3-90.6c0-39.3,44-67.5,100.5-67.5s99.5,28.3,99.5,67.5
		c0,37.7-19.9,57.1-96.8,92.7l62.3,84.3c14.7,19.9,28.3,36.6,40.8,50.8c11-16.2,18.3-35.1,21.5-55.5c7.9-48.2-27.2-73.8-61.3-73.8
		h160.7c-42.9,0-72.2,27.2-80.1,66.5c-5.8,29.8-15.2,55.5-27.7,76.4C298.4,855,330.9,863.9,357.6,838.2z M208.9,833.5
		c-9.9-9.4-19.9-20.4-28.3-31.4c-37.7-49.2-64.4-85.9-84.8-113.6c-18.3,13.6-37.7,37.2-37.2,75.9c1,53.9,40.3,83.8,96.9,83.8
		C175.4,848.1,193.7,842.9,208.9,833.5z M88.5,564.4c0,21.5,9.4,39.3,32.5,72.8c3.7,4.7,7.3,9.9,11,15.7c49.7-26.7,56-59.2,56-80.6
		c0-23-7.3-52.4-49.7-52.4S88.5,549.2,88.5,564.4z"/>
</g>
<g>
	<path class="st25" d="M467.2,845.3c0,114.6-80.6,192.7-194.7,192.7c-113.6,0-194.7-78-194.7-192.7c0-115.2,81.1-189.5,194.7-189.5
		C386.5,655.8,467.2,730.1,467.2,845.3z M405.4,845.3c0-64.4-24.6-174.9-133-174.9c-108.4,0-133,110.5-133,174.9
		c0,64.4,24.6,178,133,178C380.8,1023.3,405.4,909.7,405.4,845.3z"/>
	<path class="st25" d="M576.6,786.2l41.9-12c100.5-28.8,135.1-3.1,135.1,80.1v133c0,40.3,29.3,41.4,29.3,41.4H667.7
		c0,0,29.8-1,29.8-41.4v-133c0-66-32.5-78.5-99.5-59.2l-21.5,6.3v185.8c0,40.3,29.3,41.4,29.3,41.4H490.7c0,0,29.8-1,29.8-41.4v-179
		c0-31.9-29.3-30.9-29.3-30.9l82.7-10.5L576.6,786.2z"/>
	<path class="st25" d="M932.6,762.6c83.8,0,119.4,60.2,119.4,111H856.1c0,79.6,36.1,126.7,95.8,126.7c51.8,0,86.9-28.3,102.1-72.2
		c-8.4,61.3-55.5,104.7-117.3,104.7c-82.7,0-138.2-55-138.2-137.2C798.5,816,849.8,762.6,932.6,762.6z M990.7,858.9
		c0-9.4,0.5-81.7-58.1-81.7c-68.1,0-76.4,72.2-76.4,81.7H990.7z"/>
	<path class="st25" d="M1182.8,781.4v205.7c0,40.3,29.8,41.4,29.8,41.4h-115.2c0,0,29.3-1,29.3-41.4V781.4h-67.5v-14.7h67.5v-63.3
		c0-35.6-29.3-34-29.3-34l85.3-7.3v104.7h63.3v14.7H1182.8z"/>
</g>
<g>
	<g>
		<path class="st23" d="M1155.9,1177.7V1393h-61.5v-92.6H879.1v92.6h-61.5v-215.3h61.5v76.6h215.3v-76.6H1155.9z"/>
		<path class="st23" d="M1540.7,1177.7V1393h-110.4l-175.9-186.7V1393h-61.5v-215.3h110.4l175.9,186.7v-186.7H1540.7z"/>
		<path class="st23" d="M1639.1,1177.7V1393h-61.5v-215.3H1639.1z"/>
		<path class="st23" d="M1937.4,1326.6l89.2,66.4h-76l-92-66.4h-121.2v66.4H1676v-215.3h261.4c59.4,0,91,33.5,91,74.4
			C2028.5,1293,1996.8,1326.6,1937.4,1326.6z M1930.4,1280.4c22.5,0,35.4-12.9,35.4-28.3c0-15.7-12.9-28.3-35.4-28.3h-192.8v56.6
			H1930.4z"/>
		<path class="st23" d="M2424.3,1285.4l-64.6,107.6h-66.4l50.7-84.6h-218.4l50.7,84.6H2110l-64.6-107.6l64.6-107.6h66.4l-50.7,84.6
			H2344l-50.7-84.6h66.4L2424.3,1285.4z"/>
	</g>
	<path class="st22" d="M1894.5,1284.9l-221.2,368.7h-227.6l173.8-289.7h-748l173.8,289.7H817.8l-221.2-368.7l221.2-368.7h227.6
		l-173.8,289.7h748l-173.8-289.7h227.6L1894.5,1284.9z"/>
	<path class="st22" d="M2522.4,1284.9l-221.2,368.7h-227.6l173.8-289.7h-748l173.8,289.7h-227.6l-221.2-368.7l221.2-368.7h227.6
		l-173.8,289.7h748l-173.8-289.7h227.6L2522.4,1284.9z"/>
</g>
<g>
	<g>
		<path class="st33" d="M1320.5,366.3l-0.5,130.3l-17.7,4.3V370.6c0-69.2-33.9-109.8-97.4-109.3c-51.5,0.5-93.5,38.7-97.4,90.2
			v145.6l-17.7,4.3l-0.5-382.3l17.7-4.3l0.5,196.2c21.5-32.5,61.1-56.3,102.1-56.3C1280.4,254.6,1319.5,294.7,1320.5,366.3z"/>
		<path class="st33" d="M1591.1,492.8l-11,5.7h-146c-49.6,0-80.2-24.8-80.2-66.3c0-37.2,39.1-69.2,85-69.2H1573v-23.9
			c0-46.3-36.7-76.4-90.2-77.3c-61.6-1-96.9,22.9-96.4,72.5l-17.7,4.8c0-47.7,49.6-84,118.8-84.5c64.9-0.5,103.1,28.2,103.1,79.7
			L1591.1,492.8z M1438.9,491.8h134.6l-0.5-122.2l-138.9,0.5c-40.1,0-63,20.5-62.5,57.7C1371.6,462.7,1401.6,491.8,1438.9,491.8z"/>
		<path class="st33" d="M1654.1,114.8l0.5,381.8l-17.7,4.3l-0.5-381.8L1654.1,114.8z"/>
		<path class="st33" d="M1753.8,211.2V258H1898l-4.8,6.7h-139.4v232l-17.7,4.3l-0.5-236.2h-62l4.3-6.7h57.7v-42.5
			c0-56.8,46.3-104,100.7-104c55.8,0,95.9,37.7,96.4,90.2l-18.1,4.8c0-46.3-39.6-88.8-83-88.3
			C1784.9,118.1,1753.4,154.9,1753.8,211.2z"/>
	</g>
	<g>
		<path class="st33" d="M1533.5,635.6l-0.5,130.3l-17.7,4.3V639.9c0-69.2-33.9-109.8-97.4-109.3c-51.5,0.5-93.5,38.7-97.4,90.2
			v145.6l-17.7,4.3l-0.5-382.3l17.7-4.3l0.5,196.2c21.5-32.5,61.1-56.3,102.1-56.3C1493.4,523.9,1532.5,564,1533.5,635.6z"/>
		<path class="st33" d="M1804.1,762.1l-11,5.7h-146c-49.6,0-80.2-24.8-80.2-66.3c0-37.2,39.1-69.2,85-69.2H1786v-23.9
			c0-46.3-36.7-76.4-90.2-77.3c-61.6-1-96.9,22.9-96.4,72.5l-17.7,4.8c0-47.7,49.6-84,118.8-84.5c64.9-0.5,103.1,28.2,103.1,79.7
			L1804.1,762.1z M1651.9,761.1h134.6l-0.5-122.2l-138.9,0.5c-40.1,0-63,20.5-62.5,57.7C1584.6,732,1614.6,761.1,1651.9,761.1z"/>
		<path class="st33" d="M1867.1,384.1l0.5,381.8l-17.7,4.3l-0.5-381.8L1867.1,384.1z"/>
		<path class="st33" d="M1966.8,480.5v46.8H2111l-4.8,6.7h-139.4v232l-17.7,4.3l-0.5-236.2h-62l4.3-6.7h57.7v-42.5
			c0-56.8,46.3-104,100.7-104c55.8,0,95.9,37.7,96.4,90.2l-18.1,4.8c0-46.3-39.6-88.8-83-88.3
			C1997.9,387.4,1966.4,424.2,1966.8,480.5z"/>
	</g>
</g>
<g>
	<path class="st32" d="M1584.6,509.5l224.8,0.5l-4.8,6.7l-224.3-0.5L1584.6,509.5z M1703.9,392.6v67.8l-17.7,4.3v-67.8L1703.9,392.6
		z M1703.9,563.5v67.8l-17.7,4.3v-67.8L1703.9,563.5z"/>
</g>
<g>
	<path class="st32" d="M1800.6,692l224.8,0.5l-4.8,6.7l-224.3-0.5L1800.6,692z M1919.9,575.1v67.8l-17.7,4.3v-67.8L1919.9,575.1z
		 M1919.9,745.9v67.8l-17.7,4.3v-67.8L1919.9,745.9z"/>
</g>
<g>
	<path class="st32" d="M1378.2,428l224.8,0.5l-4.8,6.7l-224.3-0.5L1378.2,428z M1497.5,311v67.8l-17.7,4.3v-67.8L1497.5,311z
		 M1497.5,481.9v67.8l-17.7,4.3v-67.8L1497.5,481.9z"/>
</g>
<g>
	<path class="st32" d="M1729.2,190.9l224.8,0.5l-4.8,6.7l-224.3-0.5L1729.2,190.9z M1848.6,74v67.8l-17.7,4.3V78.3L1848.6,74z
		 M1848.6,244.9v67.8l-17.7,4.3v-67.8L1848.6,244.9z"/>
</g>
<g>
	<path class="st32" d="M1428.2,116.9l224.8,0.5l-4.8,6.7l-224.3-0.5L1428.2,116.9z M1547.5,0v67.8l-17.7,4.3V4.3L1547.5,0z
		 M1547.5,170.9v67.8l-17.7,4.3v-67.8L1547.5,170.9z"/>
</g>
<g>
	<path class="st32" d="M1357.8,737.2l224.8,0.5l-4.8,6.7l-224.3-0.5L1357.8,737.2z M1477.1,620.3v67.8l-17.7,4.3v-67.8L1477.1,620.3
		z M1477.1,791.2v67.8l-17.7,4.3v-67.8L1477.1,791.2z"/>
</g>
<g>
	<path class="st32" d="M937.1,350.2l224.8,0.5l-4.8,6.7l-224.3-0.5L937.1,350.2z M1056.4,233.3V301l-17.7,4.3v-67.8L1056.4,233.3z
		 M1056.4,404.1v67.8l-17.7,4.3v-67.8L1056.4,404.1z"/>
</g>
<g>
	<path class="st32" d="M1896.8,338.2l224.8,0.5l-4.8,6.7l-224.3-0.5L1896.8,338.2z M2016.1,221.3V289l-17.7,4.3v-67.8L2016.1,221.3z
		 M2016.1,392.1v67.8l-17.7,4.3v-67.8L2016.1,392.1z"/>
</g>
<g>
	<path class="st32" d="M1237.6,256l224.8,0.5l-4.8,6.7l-224.3-0.5L1237.6,256z M1356.9,139.1v67.8l-17.7,4.3v-67.8L1356.9,139.1z
		 M1356.9,309.9v67.8l-17.7,4.3v-67.8L1356.9,309.9z"/>
</g>
<g>
	<path class="st32" d="M1166.5,634.2l224.8,0.5l-4.8,6.7l-224.3-0.5L1166.5,634.2z M1285.8,517.2V585l-17.7,4.3v-67.8L1285.8,517.2z
		 M1285.8,688.1v67.8l-17.7,4.3v-67.8L1285.8,688.1z"/>
</g>
</svg>
