<?xml version="1.0" encoding="utf-8"?>
<!-- Generator: Adobe Illustrator 19.0.1, SVG Export Plug-In . SVG Version: 6.00 Build 0)  -->
<svg version="1.1" id="Layer_1" xmlns="http://www.w3.org/2000/svg" xmlns:xlink="http://www.w3.org/1999/xlink" x="0px" y="0px"
	 viewBox="0 0 2522.4 1716.9" style="enable-background:new 0 0 2522.4 1716.9;" xml:space="preserve">
<style type="text/css">
	.st0{fill:#F800FF;}
	.st1{fill:#FFFFFF;}
	.st2{fill:#33FF4B;}
	.st3{fill:#FF8FE7;}
	.st4{fill:#341FFF;}
	.st5{fill:#5D4CFF;}
	.st6{fill:#8579FF;}
	.st7{fill:#AEA5FF;}
	.st8{fill:#D6D2FF;}
	.st9{fill:#FFD9D2;}
	.st10{fill:#FFB3A5;}
	.st11{fill:#FF8E77;}
	.st12{fill:#FF684A;}
	.st13{fill:#FF421D;}
	.st14{fill:#F71963;}
	.st15{fill:#222222;}
	.st16{fill:#828282;}
	.st17{fill:#1C114C;}
	.st18{clip-path:url(#SVGID_2_);}
	.st19{fill:#AA27FF;}
	.st20{fill:#FF9429;}
	.st21{fill:none;stroke:#FF3E6C;stroke-width:2;stroke-miterlimit:10;}
	.st22{fill:none;stroke:#45FF40;stroke-width:2;stroke-miterlimit:10;}
	.st23{fill:#9292FF;}
	.st24{fill:none;stroke:#C548FF;stroke-width:2;stroke-miterlimit:10;}
	.st25{fill:#F2EB99;}
	.st26{fill:#7751ED;}
	.st27{fill:#FF5500;}
	.st28{fill:#C98AFF;}
	.st29{fill:none;stroke:#7751ED;stroke-miterlimit:10;}
	.st30{fill:none;stroke:#7751ED;stroke-width:2;stroke-miterlimit:10;}
	.st31{fill:none;stroke:#FF5500;stroke-width:2;stroke-miterlimit:10;}
	.st32{fill:#FF3000;}
	.st33{fill:#5097FF;}
	.st34{fill:#8B5EFC;}
</style>
<g>
	<path class="st0" d="M684.8,1109.2c0,82.2-59.7,137.2-142.9,137.2c-78,0-119.9-50.3-156.5-120.4c-36.6,70.2-78.5,120.4-156.5,120.4
		c-83.2,0-142.9-55-142.9-137.2c0-79.6,59.7-133,142.9-133c78,0,119.9,47.6,156.5,119.9c36.6-72.2,78.5-119.9,156.5-119.9
		C625.1,976.2,684.8,1029.6,684.8,1109.2z M378,1111.3c-34.6-70.2-81.1-120.4-149.2-120.4c-75.4,0-128.3,49.2-128.3,118.3
		c0,71.7,52.9,122.5,128.3,122.5C296.9,1231.7,345.1,1181.4,378,1111.3z M670.2,1109.2c0-69.1-52.9-118.3-128.3-118.3
		c-68.1,0-114.6,50.3-149.2,120.4c33,70.2,81.1,120.4,149.2,120.4C617.3,1231.7,670.2,1180.9,670.2,1109.2z"/>
</g>
<g>
	<path class="st0" d="M925.3,1223.6l-5.8,124.6h-323l186.4-214.1L599.2,877h320.4l5.8,124.6c0,0-16.2-109.9-109.9-109.9H675.6
		l152.3,213.1l-163.3,187.4h150.8C909.1,1292.2,925.3,1223.6,925.3,1223.6z"/>
</g>
<g>
	<path class="st0" d="M1060.1,1183.6h-86.4l0.5,265.4h-14.7l-0.5-265.4h-85.9V1169H959v-86.4h14.7v86.4h86.4V1183.6z"/>
</g>
<g>
	<path class="st0" d="M976.9,574.3h56v407.8h-85.3c0,0,29.3-1,29.3-41.4v-96.3c-86.9,0-145-54.4-145-140.8
		C831.9,615.7,888.5,574.3,976.9,574.3z M976.9,829.8V589c-51.8,0-83.2,46.1-83.2,119.9C893.7,782.1,934,829.8,976.9,829.8z
		 M1144.5,982.1h-85.3V574.3h85.3c0,0-29.3,1-29.3,41.4v325.1C1115.1,981.1,1144.5,982.1,1144.5,982.1z"/>
</g>
<g>
	<path class="st0" d="M1354.8,906.3l-76.4,76.4h-14.7l-76.4-76.4l76.4-76.4h14.7L1354.8,906.3z M1271.1,969.7l63.3-63.3l-63.3-63.3
		l-63.3,63.3L1271.1,969.7z"/>
</g>
<g>
	<path class="st0" d="M1216.9,581.5l60.7,60.7l-10.5,10.5l-60.7-60.7l-60.2,60.7l-10.5-10.5l60.2-60.7l-60.7-60.7l10.5-10.5
		l60.7,60.7l60.7-61.3l10.5,10.5L1216.9,581.5z"/>
</g>
<g>
	<path class="st0" d="M572.3,457.4v310.4c0,40.3,29.8,41.4,29.8,41.4H486.9c0,0,29.3-1,29.3-41.4V457.4h-78.5v310.4
		c0,40.3,29.8,41.4,29.8,41.4H352.4c0,0,29.3-1,29.3-41.4V457.4h-56.5v-14.7h303.6v14.7H572.3z"/>
</g>
<g>
	<path class="st0" d="M357.6,901.5c-33.5,57.6-85.3,47.1-130.4,11.5c-23,19.9-52.4,29.8-87.4,29.8C57.1,942.9,0,907.3,0,833.5
		c0-49.2,40.8-75.4,85.9-96.3l-7.9-11c-30.4-43.5-40.3-63.3-40.3-90.6c0-39.3,44-67.5,100.5-67.5s99.5,28.3,99.5,67.5
		c0,37.7-19.9,57.1-96.8,92.7l62.3,84.3c14.7,19.9,28.3,36.6,40.8,50.8c11-16.2,18.3-35.1,21.5-55.5c7.9-48.2-27.2-73.8-61.3-73.8
		h160.7c-42.9,0-72.2,27.2-80.1,66.5c-5.8,29.8-15.2,55.5-27.7,76.4C298.4,918.3,330.9,927.2,357.6,901.5z M208.9,896.8
		c-9.9-9.4-19.9-20.4-28.3-31.4c-37.7-49.2-64.4-85.9-84.8-113.6c-18.3,13.6-37.7,37.2-37.2,75.9c1,53.9,40.3,83.8,96.9,83.8
		C175.4,911.5,193.7,906.3,208.9,896.8z M88.5,627.7c0,21.5,9.4,39.3,32.5,72.8c3.7,4.7,7.3,9.9,11,15.7c49.7-26.7,56-59.2,56-80.6
		c0-23-7.3-52.4-49.7-52.4S88.5,612.6,88.5,627.7z"/>
</g>
<g>
	<path class="st25" d="M467.2,908.7c0,114.6-80.6,192.7-194.7,192.7c-113.6,0-194.7-78-194.7-192.7c0-115.2,81.1-189.5,194.7-189.5
		C386.5,719.1,467.2,793.5,467.2,908.7z M405.4,908.7c0-64.4-24.6-174.9-133-174.9c-108.4,0-133,110.5-133,174.9
		c0,64.4,24.6,178,133,178C380.8,1086.7,405.4,973,405.4,908.7z"/>
	<path class="st25" d="M576.6,849.5l41.9-12c100.5-28.8,135.1-3.1,135.1,80.1v133c0,40.3,29.3,41.4,29.3,41.4H667.7
		c0,0,29.8-1,29.8-41.4v-133c0-66-32.5-78.5-99.5-59.2l-21.5,6.3v185.8c0,40.3,29.3,41.4,29.3,41.4H490.7c0,0,29.8-1,29.8-41.4v-179
		c0-31.9-29.3-30.9-29.3-30.9l82.7-10.5L576.6,849.5z"/>
	<path class="st25" d="M932.6,825.9c83.8,0,119.4,60.2,119.4,111H856.1c0,79.6,36.1,126.7,95.8,126.7c51.8,0,86.9-28.3,102.1-72.2
		c-8.4,61.3-55.5,104.7-117.3,104.7c-82.7,0-138.2-55-138.2-137.2C798.5,879.3,849.8,825.9,932.6,825.9z M990.7,922.3
		c0-9.4,0.5-81.7-58.1-81.7c-68.1,0-76.4,72.2-76.4,81.7H990.7z"/>
	<path class="st25" d="M1182.8,844.8v205.7c0,40.3,29.8,41.4,29.8,41.4h-115.2c0,0,29.3-1,29.3-41.4V844.8h-67.5v-14.7h67.5v-63.3
		c0-35.6-29.3-34-29.3-34l85.3-7.3v104.7h63.3v14.7H1182.8z"/>
</g>
<g>
	<g>
		<path class="st33" d="M1155.9,1241.1v215.3h-61.5v-92.6H879.1v92.6h-61.5v-215.3h61.5v76.6h215.3v-76.6H1155.9z"/>
		<path class="st33" d="M1540.7,1241.1v215.3h-110.4l-175.9-186.7v186.7h-61.5v-215.3h110.4l175.9,186.7v-186.7H1540.7z"/>
		<path class="st33" d="M1639.1,1241.1v215.3h-61.5v-215.3H1639.1z"/>
		<path class="st33" d="M1937.4,1389.9l89.2,66.4h-76l-92-66.4h-121.2v66.4H1676v-215.3h261.4c59.4,0,91,33.5,91,74.4
			C2028.5,1356.4,1996.8,1389.9,1937.4,1389.9z M1930.4,1343.8c22.5,0,35.4-12.9,35.4-28.3c0-15.7-12.9-28.3-35.4-28.3h-192.8v56.6
			H1930.4z"/>
		<path class="st33" d="M2424.3,1348.7l-64.6,107.6h-66.4l50.7-84.6h-218.4l50.7,84.6H2110l-64.6-107.6l64.6-107.6h66.4l-50.7,84.6
			H2344l-50.7-84.6h66.4L2424.3,1348.7z"/>
	</g>
	<path class="st22" d="M1894.5,1348.2l-221.2,368.7h-227.6l173.8-289.7h-748l173.8,289.7H817.8l-221.2-368.7l221.2-368.7h227.6
		l-173.8,289.7h748l-173.8-289.7h227.6L1894.5,1348.2z"/>
	<path class="st22" d="M2522.4,1348.2l-221.2,368.7h-227.6l173.8-289.7h-748l173.8,289.7h-227.6l-221.2-368.7l221.2-368.7h227.6
		l-173.8,289.7h748l-173.8-289.7h227.6L2522.4,1348.2z"/>
</g>
<g>
	<g>
		<path class="st34" d="M1348.9,393.2l-0.5,139.9l-19,4.6V397.8c0-74.3-36.4-117.8-104.5-117.3c-55.3,0.5-100.4,41.5-104.5,96.8
			v156.2l-19,4.6l-0.5-410.3l19-4.6l0.5,210.5c23.1-34.8,65.6-60.4,109.6-60.4C1305.9,273.3,1347.9,316.3,1348.9,393.2z"/>
		<path class="st34" d="M1639.4,528.9l-11.8,6.1h-156.8c-53.3,0-86.1-26.6-86.1-71.2c0-40,42-74.3,91.2-74.3h144V364
			c0-49.7-39.4-82-96.8-83c-66.1-1-104,24.6-103.5,77.9l-19,5.1c0-51.2,53.3-90.2,127.6-90.7c69.7-0.5,110.7,30.2,110.7,85.6
			L1639.4,528.9z M1476,527.9h144.5l-0.5-131.1l-149.1,0.5c-43,0-67.6,22-67.1,62C1403.8,496.7,1436,527.9,1476,527.9z"/>
		<path class="st34" d="M1707,123.2l0.5,409.8l-19,4.6l-0.5-409.8L1707,123.2z"/>
		<path class="st34" d="M1814.1,226.7v50.2h154.7l-5.1,7.2h-149.6v249l-19,4.6l-0.5-253.6H1728l4.6-7.2h62v-45.6
			c0-61,49.7-111.7,108.1-111.7c59.9,0,103,40.5,103.5,96.8l-19.5,5.1c0-49.7-42.5-95.3-89.1-94.8
			C1847.4,126.8,1813.6,166.2,1814.1,226.7z"/>
	</g>
	<g>
		<path class="st34" d="M1577.6,682.2l-0.5,139.9l-19,4.6V686.8c0-74.3-36.4-117.8-104.5-117.3c-55.3,0.5-100.4,41.5-104.5,96.8
			v156.2l-19,4.6l-0.5-410.3l19-4.6l0.5,210.5c23.1-34.8,65.6-60.4,109.6-60.4C1534.5,562.3,1576.6,605.4,1577.6,682.2z"/>
		<path class="st34" d="M1868,818l-11.8,6.1h-156.8c-53.3,0-86.1-26.6-86.1-71.2c0-40,42-74.3,91.2-74.3h144V653
			c0-49.7-39.4-82-96.8-83c-66.1-1-104,24.6-103.5,77.9l-19,5.1c0-51.2,53.3-90.2,127.6-90.7c69.7-0.5,110.7,30.2,110.7,85.6
			L1868,818z M1704.6,817h144.5l-0.5-131.1l-149.1,0.5c-43,0-67.6,22-67.1,62C1632.4,785.7,1664.7,817,1704.6,817z"/>
		<path class="st34" d="M1935.7,412.2l0.5,409.8l-19,4.6l-0.5-409.8L1935.7,412.2z"/>
		<path class="st34" d="M2042.7,515.7v50.2h154.7l-5.1,7.2h-149.6v249l-19,4.6l-0.5-253.6h-66.6l4.6-7.2h62v-45.6
			c0-61,49.7-111.7,108.1-111.7c59.9,0,103,40.5,103.5,96.8l-19.5,5.1c0-49.7-42.5-95.3-89.1-94.8
			C2076,415.8,2042.2,455.3,2042.7,515.7z"/>
	</g>
</g>
<g>
	<path class="st32" d="M1632.4,546.9l241.3,0.5l-5.1,7.2l-240.8-0.5L1632.4,546.9z M1760.4,421.4v72.7l-19,4.6V426L1760.4,421.4z
		 M1760.4,604.8v72.7l-19,4.6v-72.7L1760.4,604.8z"/>
</g>
<g>
	<path class="st32" d="M1864.3,742.8l241.3,0.5l-5.1,7.2l-240.8-0.5L1864.3,742.8z M1992.3,617.3V690l-19,4.6v-72.7L1992.3,617.3z
		 M1992.3,800.7v72.7l-19,4.6v-72.7L1992.3,800.7z"/>
</g>
<g>
	<path class="st32" d="M1410.9,459.4l241.3,0.5l-5.1,7.2l-240.8-0.5L1410.9,459.4z M1539,333.9v72.7l-19,4.6v-72.7L1539,333.9z
		 M1539,517.3V590l-19,4.6v-72.7L1539,517.3z"/>
</g>
<g>
	<path class="st32" d="M1787.7,204.9l241.3,0.5l-5.1,7.2l-240.8-0.5L1787.7,204.9z M1915.8,79.4v72.7l-19,4.6V84L1915.8,79.4z
		 M1915.8,262.8v72.7l-19,4.6v-72.7L1915.8,262.8z"/>
</g>
<g>
	<path class="st32" d="M1464.6,125.5l241.3,0.5l-5.1,7.2l-240.8-0.5L1464.6,125.5z M1592.6,0v72.7l-19,4.6V4.6L1592.6,0z
		 M1592.6,183.4v72.7l-19,4.6V188L1592.6,183.4z"/>
</g>
<g>
	<path class="st32" d="M1389,791.3l241.3,0.5l-5.1,7.2l-240.8-0.5L1389,791.3z M1517,665.8v72.7l-19,4.6v-72.7L1517,665.8z
		 M1517,849.2V922l-19,4.6v-72.7L1517,849.2z"/>
</g>
<g>
	<path class="st32" d="M937.4,375.9l241.3,0.5l-5.1,7.2l-240.8-0.5L937.4,375.9z M1065.5,250.4v72.7l-19,4.6V255L1065.5,250.4z
		 M1065.5,433.8v72.7l-19,4.6v-72.7L1065.5,433.8z"/>
</g>
<g>
	<path class="st32" d="M1967.5,363l241.3,0.5l-5.1,7.2l-240.8-0.5L1967.5,363z M2095.6,237.5v72.7l-19,4.6v-72.7L2095.6,237.5z
		 M2095.6,420.9v72.7l-19,4.6v-72.7L2095.6,420.9z"/>
</g>
<g>
	<path class="st32" d="M1259.9,274.8l241.3,0.5l-5.1,7.2l-240.8-0.5L1259.9,274.8z M1388,149.3V222l-19,4.6v-72.7L1388,149.3z
		 M1388,332.7v72.7l-19,4.6v-72.7L1388,332.7z"/>
</g>
<g>
	<path class="st32" d="M1183.7,680.7l241.3,0.5l-5.1,7.2l-240.8-0.5L1183.7,680.7z M1311.7,555.2v72.7l-19,4.6v-72.7L1311.7,555.2z
		 M1311.7,738.6v72.7l-19,4.6v-72.7L1311.7,738.6z"/>
</g>
</svg>
