<?xml version="1.0" encoding="utf-8"?>
<!-- Generator: Adobe Illustrator 19.0.1, SVG Export Plug-In . SVG Version: 6.00 Build 0)  -->
<svg version="1.1" id="Layer_1" xmlns="http://www.w3.org/2000/svg" xmlns:xlink="http://www.w3.org/1999/xlink" x="0px" y="0px"
	 viewBox="0 0 2248.2 1180.3" style="enable-background:new 0 0 2248.2 1180.3;" xml:space="preserve">
<style type="text/css">
	.st0{fill:#F800FF;}
	.st1{fill:#FFFFFF;}
	.st2{fill:#33FF4B;}
	.st3{fill:#FF8FE7;}
	.st4{fill:#341FFF;}
	.st5{fill:#5D4CFF;}
	.st6{fill:#8579FF;}
	.st7{fill:#AEA5FF;}
	.st8{fill:#D6D2FF;}
	.st9{fill:#FFD9D2;}
	.st10{fill:#FFB3A5;}
	.st11{fill:#FF8E77;}
	.st12{fill:#FF684A;}
	.st13{fill:#FF421D;}
	.st14{fill:#F71963;}
	.st15{fill:#222222;}
	.st16{fill:#828282;}
	.st17{fill:#1C114C;}
	.st18{clip-path:url(#SVGID_2_);}
	.st19{fill:#AA27FF;}
	.st20{fill:#FF9429;}
	.st21{fill:none;stroke:#FF3E6C;stroke-width:2;stroke-miterlimit:10;}
	.st22{fill:none;stroke:#45FF40;stroke-width:2;stroke-miterlimit:10;}
	.st23{fill:#9292FF;}
	.st24{fill:none;stroke:#C548FF;stroke-width:2;stroke-miterlimit:10;}
	.st25{fill:#F2EB99;}
</style>
<g>
	<rect width="2248.2" height="1180.3"/>
</g>
<g>
	<path class="st0" d="M684.8,666.4c0,82.2-59.7,137.2-142.9,137.2c-78,0-119.9-50.3-156.5-120.4c-36.6,70.2-78.5,120.4-156.5,120.4
		c-83.2,0-142.9-55-142.9-137.2c0-79.6,59.7-133,142.9-133c78,0,119.9,47.6,156.5,119.9c36.6-72.2,78.5-119.9,156.5-119.9
		C625.1,533.4,684.8,586.8,684.8,666.4z M378,668.5c-34.6-70.2-81.1-120.4-149.2-120.4c-75.4,0-128.3,49.2-128.3,118.3
		c0,71.7,52.9,122.5,128.3,122.5C296.9,788.9,345.1,738.7,378,668.5z M670.2,666.4c0-69.1-52.9-118.3-128.3-118.3
		c-68.1,0-114.6,50.3-149.2,120.4c33,70.2,81.1,120.4,149.2,120.4C617.3,788.9,670.2,738.1,670.2,666.4z"/>
</g>
<g>
	<path class="st0" d="M925.3,780.9l-5.8,124.6h-323l186.4-214.1l-183.8-257h320.4l5.8,124.6c0,0-16.2-109.9-109.9-109.9H675.6
		L827.9,662L664.6,849.4h150.8C909.1,849.4,925.3,780.9,925.3,780.9z"/>
</g>
<g>
	<path class="st0" d="M1060.1,740.9h-86.4l0.5,265.4h-14.7L959,740.9h-85.9v-14.7H959v-86.4h14.7v86.4h86.4V740.9z"/>
</g>
<g>
	<path class="st0" d="M976.9,131.5h56v407.8h-85.3c0,0,29.3-1,29.3-41.4v-96.3c-86.9,0-145-54.4-145-140.8
		C831.9,172.9,888.5,131.5,976.9,131.5z M976.9,387V146.2c-51.8,0-83.2,46.1-83.2,119.9C893.7,339.4,934,387,976.9,387z
		 M1144.5,539.4h-85.3V131.5h85.3c0,0-29.3,1-29.3,41.4V498C1115.1,538.3,1144.5,539.4,1144.5,539.4z"/>
</g>
<g>
	<path class="st0" d="M1354.8,463.6l-76.4,76.4h-14.7l-76.4-76.4l76.4-76.4h14.7L1354.8,463.6z M1271.1,526.9l63.3-63.3l-63.3-63.3
		l-63.3,63.3L1271.1,526.9z"/>
</g>
<g>
	<path class="st0" d="M1216.9,138.7l60.7,60.7l-10.5,10.5l-60.7-60.7l-60.2,60.7l-10.5-10.5l60.2-60.7L1135.3,78l10.5-10.5
		l60.7,60.7l60.7-61.3l10.5,10.5L1216.9,138.7z"/>
</g>
<g>
	<path class="st0" d="M572.3,14.7v310.4c0,40.3,29.8,41.4,29.8,41.4H486.9c0,0,29.3-1,29.3-41.4V14.7h-78.5v310.4
		c0,40.3,29.8,41.4,29.8,41.4H352.4c0,0,29.3-1,29.3-41.4V14.7h-56.5V0h303.6v14.7H572.3z"/>
</g>
<g>
	<path class="st0" d="M357.6,458.8c-33.5,57.6-85.3,47.1-130.4,11.5c-23,19.9-52.4,29.8-87.4,29.8C57.1,500.2,0,464.6,0,390.7
		c0-49.2,40.8-75.4,85.9-96.3l-7.9-11c-30.4-43.5-40.3-63.3-40.3-90.6c0-39.3,44-67.5,100.5-67.5s99.5,28.3,99.5,67.5
		c0,37.7-19.9,57.1-96.8,92.7l62.3,84.3c14.7,19.9,28.3,36.6,40.8,50.8c11-16.2,18.3-35.1,21.5-55.5c7.9-48.2-27.2-73.8-61.3-73.8
		h160.7c-42.9,0-72.2,27.2-80.1,66.5c-5.8,29.8-15.2,55.5-27.7,76.4C298.4,475.6,330.9,484.5,357.6,458.8z M208.9,454.1
		c-9.9-9.4-19.9-20.4-28.3-31.4c-37.7-49.2-64.4-85.9-84.8-113.6c-18.3,13.6-37.7,37.2-37.2,75.9c1,53.9,40.3,83.8,96.9,83.8
		C175.4,468.7,193.7,463.5,208.9,454.1z M88.5,185c0,21.5,9.4,39.3,32.5,72.8c3.7,4.7,7.3,9.9,11,15.7c49.7-26.7,56-59.2,56-80.6
		c0-23-7.3-52.4-49.7-52.4S88.5,169.8,88.5,185z"/>
</g>
<g>
	<path class="st25" d="M467.2,465.9c0,114.6-80.6,192.7-194.7,192.7c-113.6,0-194.7-78-194.7-192.7c0-115.2,81.1-189.5,194.7-189.5
		C386.5,276.4,467.2,350.7,467.2,465.9z M405.4,465.9c0-64.4-24.6-174.9-133-174.9c-108.4,0-133,110.5-133,174.9
		c0,64.4,24.6,178,133,178C380.8,643.9,405.4,530.3,405.4,465.9z"/>
	<path class="st25" d="M576.6,406.8l41.9-12c100.5-28.8,135.1-3.1,135.1,80.1v133c0,40.3,29.3,41.4,29.3,41.4H667.7
		c0,0,29.8-1,29.8-41.4v-133c0-66-32.5-78.5-99.5-59.2l-21.5,6.3v185.8c0,40.3,29.3,41.4,29.3,41.4H490.7c0,0,29.8-1,29.8-41.4v-179
		c0-31.9-29.3-30.9-29.3-30.9l82.7-10.5L576.6,406.8z"/>
	<path class="st25" d="M932.6,383.2c83.8,0,119.4,60.2,119.4,111H856.1c0,79.6,36.1,126.7,95.8,126.7c51.8,0,86.9-28.3,102.1-72.2
		c-8.4,61.3-55.5,104.7-117.3,104.7c-82.7,0-138.2-55-138.2-137.2C798.5,436.6,849.8,383.2,932.6,383.2z M990.7,479.5
		c0-9.4,0.5-81.7-58.1-81.7c-68.1,0-76.4,72.2-76.4,81.7H990.7z"/>
	<path class="st25" d="M1182.8,402v205.7c0,40.3,29.8,41.4,29.8,41.4h-115.2c0,0,29.3-1,29.3-41.4V402h-67.5v-14.7h67.5V324
		c0-35.6-29.3-34-29.3-34l85.3-7.3v104.7h63.3V402H1182.8z"/>
</g>
<g>
	<path class="st23" d="M1058.5,766v187.5h-53.6v-80.6H817.5v80.6h-53.6V766h53.6v66.7h187.5V766H1058.5z"/>
	<path class="st23" d="M1393.5,766v187.5h-96.1l-153.2-162.5v162.5h-53.6V766h96.1l153.2,162.5V766H1393.5z"/>
	<path class="st23" d="M1479.2,766v187.5h-53.6V766H1479.2z"/>
	<path class="st23" d="M1738.9,895.6l77.7,57.8h-66.1l-80.1-57.8h-105.5v57.8h-53.6V766h227.6c51.7,0,79.3,29.2,79.3,64.8
		C1818.2,866.4,1790.6,895.6,1738.9,895.6z M1732.8,855.4c19.5,0,30.8-11.2,30.8-24.6c0-13.7-11.2-24.6-30.8-24.6h-167.9v49.3
		H1732.8z"/>
	<path class="st23" d="M2162.9,859.7l-56.2,93.7h-57.8l44.2-73.6h-190.1l44.2,73.6h-57.8l-56.2-93.7l56.2-93.7h57.8l-44.2,73.6H2093
		l-44.2-73.6h57.8L2162.9,859.7z"/>
</g>
<path class="st22" d="M1701.5,859.3l-192.6,321.1h-198.1l151.4-252.3H810.8l151.4,252.3H764L571.4,859.3L764,538.2h198.1
	L810.8,790.5h651.3l-151.4-252.3h198.1L1701.5,859.3z"/>
<path class="st22" d="M2248.2,859.3l-192.6,321.1h-198.1l151.4-252.3h-651.3l151.4,252.3h-198.1l-192.6-321.1l192.6-321.1h198.1
	l-151.4,252.3h651.3l-151.4-252.3h198.1L2248.2,859.3z"/>
</svg>
