<?xml version="1.0" encoding="utf-8"?>
<!-- Generator: Adobe Illustrator 19.0.1, SVG Export Plug-In . SVG Version: 6.00 Build 0)  -->
<svg version="1.1" xmlns="http://www.w3.org/2000/svg" xmlns:xlink="http://www.w3.org/1999/xlink" x="0px" y="0px"
	 viewBox="0 0 781.7 750.5" style="enable-background:new 0 0 781.7 750.5;" xml:space="preserve">
<style type="text/css">
	.st0{display:none;}
	.st1{display:inline;fill:none;}
	.st2{display:inline;}
	.st3{font-family:'HNIRExtended-Regular';}
	.st4{font-size:72px;}
	.st5{font-size:60px;}
	.st6{display:inline;fill:#3372FF;}
	.st7{fill:#3372FF;}
	.st8{fill:#FFFFFF;}
</style>
<g id="Layer_1" class="st0">
	<rect x="-1148.2" y="42.9" class="st1" width="1174.9" height="874.1"/>
	<text transform="matrix(1 0 0 1 -1148.2167 93.3066)" class="st2"><tspan x="0" y="0" class="st3 st4">BREAKING WAVES </tspan><tspan x="0" y="86.4" class="st3 st4">WHEN I LOOK THIS </tspan><tspan x="0" y="172.8" class="st3 st4">SIDE MIND  </tspan><tspan x="0" y="259.2" class="st3 st4">CONTROL  </tspan><tspan x="0" y="345.6" class="st3 st4">MEMORIES I WANT </tspan><tspan x="0" y="432" class="st3 st4">YOU IT IS  </tspan><tspan x="0" y="518.4" class="st3 st4">HAPPENING AGAIN </tspan><tspan x="0" y="604.8" class="st3 st4">STANDING HIGH </tspan><tspan x="0" y="691.2" class="st3 st4">OWLS TIME WARP </tspan><tspan x="0" y="777.6" class="st3 st4">SONIC SOUL FEAR </tspan></text>
</g>
<g id="Layer_1_copy_2" class="st0">
	<rect x="-1148.2" y="42.9" class="st1" width="1244.9" height="1001.7"/>
	<text transform="matrix(1 0 0 1 -1148.2167 84.9067)" class="st2"><tspan x="0" y="0" class="st3 st5">WALKING MACHINE </tspan><tspan x="0" y="72" class="st3 st5">HUMAN AFTER ALL </tspan><tspan x="0" y="144" class="st3 st5">PARIS FOUR HUNDRED </tspan><tspan x="0" y="216" class="st3 st5">GET MYSELF INTO IT </tspan><tspan x="0" y="288" class="st3 st5">CAMERA WE DANCE  </tspan><tspan x="0" y="360" class="st3 st5">TOGETHER BOSSY </tspan><tspan x="0" y="432" class="st3 st5">CHEAP AND CHEERFUL  </tspan><tspan x="0" y="504" class="st3 st5">TESTAROSSA  </tspan><tspan x="0" y="576" class="st3 st5">AUTODRIVE TEXAS </tspan><tspan x="0" y="648" class="st3 st5">FOOL FOR LOVE I </tspan><tspan x="0" y="720" class="st3 st5">STILL REMEMBER </tspan><tspan x="0" y="792" class="st3 st5">SEXUAL SPORTSWEAR </tspan><tspan x="0" y="864" class="st3 st5">GOLDEN SKANS</tspan></text>
</g>
<g id="Layer_1_copy" class="st0">
	<rect x="-1141.2" y="9.9" class="st1" width="1128.9" height="1231.4"/>
	<text transform="matrix(1 0 0 1 -1141.2167 60.3066)" class="st2"><tspan x="0" y="0" class="st3 st4">LEAN ON ME </tspan><tspan x="0" y="86.4" class="st3 st4">VIBRATIONS </tspan><tspan x="0" y="172.8" class="st3 st4">FOLLOWED BY </tspan><tspan x="0" y="259.2" class="st3 st4">POISONED </tspan><tspan x="0" y="345.6" class="st3 st4">APPLES YOU </tspan><tspan x="0" y="432" class="st3 st4">TOO ALBATROS </tspan><tspan x="0" y="518.4" class="st3 st4">WAKE ME UP </tspan><tspan x="0" y="604.8" class="st3 st4">SIGMUND THE </tspan><tspan x="0" y="691.2" class="st3 st4">TALKING DRUMS </tspan><tspan x="0" y="777.6" class="st3 st4">MOTHER ANIMAL </tspan><tspan x="0" y="864" class="st3 st4">STYLE COMPUTE </tspan><tspan x="0" y="950.4" class="st3 st4">WHEN THE NIGHT</tspan></text>
</g>
<g id="Layer_1_copy_3" class="st0">
</g>
<g id="Layer_5_copy_2" class="st0">
</g>
<g id="Layer_5_copy_3">
	<g>
		<path class="st8" d="M116.5,72.4H37.1l-10.2,15H0l57.1-84h39.4l57.1,84h-26.9L116.5,72.4z M104.3,54.4L76.8,13.9L49.3,54.4H104.3z
			"/>
		<path class="st8" d="M297.5,60.4c0,14.9-12.1,27-33.5,27H159.6v-84H264c19.2,0,30,10.9,30,24c0,5.6-3.2,10.8-7.8,14.9
			C292.6,47,297.5,53.4,297.5,60.4z M183.6,33.6H264c3.2,0,6.1-2.6,6.1-6.1c0-3.4-2.9-6.1-6.1-6.1h-80.4V33.6z M272.9,60.5
			c0-4.8-4.1-8.9-8.9-8.9h-80.4v17.8H264C268.8,69.4,272.9,65.5,272.9,60.5z"/>
		<path class="st8" d="M442.1,65.2c-9.7,16.3-32.3,25.6-64.4,25.6c-43.9,0-70-16.2-70-45.4c0-29.2,26-45.4,70-45.4
			c32,0,54.6,9.1,64.3,25.4l-22.7,7.3C412.6,23.3,398,18,377.6,18c-28.9,0-46,9.6-46,27.4c0,17.8,17,27.4,46,27.4
			c20.6,0,35.3-5.4,41.9-15L442.1,65.2z"/>
		<path class="st8" d="M590.3,45.4c0,26.5-22.9,42-66.8,42h-69.4v-84h69.4C567.4,3.4,590.3,18.8,590.3,45.4z M566.3,45.4
			c0-15.1-14-24-42.8-24h-45.4v48h45.4C552.2,69.4,566.3,60.5,566.3,45.4z"/>
		<path class="st8" d="M627.5,21.4v13h95.8v18h-95.8v17H736v18H603.5v-84H736v18H627.5z"/>
		<path class="st8" d="M31.2,131.4v19.2H121v18H31.2v28.8h-24v-84h126.5v18H31.2z"/>
		<path class="st8" d="M283.9,146.8v11c0,26.6-25.1,42.6-69,42.6c-46.3,0-72.8-16-72.8-45.1c0-29.2,26.5-45.1,72.8-45.1
			c24.5,0,43.3,4.1,55.3,13.9l-16,14.9c-7.4-7.7-21-10.8-39.4-10.8c-31.3,0-48.8,9.4-48.8,27.1c0,17.8,17.5,27.1,48.8,27.1
			c24.1,0,39.4-6.6,43.7-17.6h-56.2v-18H283.9z"/>
		<path class="st8" d="M429.1,113.4v84h-24v-36.1h-84v36.1h-24v-84h24v29.9h84v-29.9H429.1z"/>
		<path class="st8" d="M467.5,113.4v84h-24v-84H467.5z"/>
		<path class="st8" d="M595.2,113.4l-0.1,42c0,29.2-25.3,45.1-67.9,45.1c-22.9,0-40.8-4.6-52.4-13.3l15.7-14
			c11.3,7,22.4,9.4,36.7,9.4c27.8,0,43.9-9.4,43.9-27.1l0.1-42H595.2z"/>
		<path class="st8" d="M704,197.4L633,154v43.3h-24v-84h24v37.9l66.4-37.9h37.1l-69.8,39.2l74.5,44.8H704z"/>
		<path class="st8" d="M122.9,289.4v18H8.4v-84h24v66H122.9z"/>
		<path class="st8" d="M289.7,307.4h-24V234l-36.1,73.3h-35.8L157.7,234v73.3h-24v-84h43.7l34.3,71.8l34.3-71.8h43.7V307.4z"/>
		<path class="st8" d="M442.2,223.4v84h-45.1l-69-73.9v73.9h-24v-84h45.1l69,73.9v-73.9H442.2z"/>
		<path class="st8" d="M455.4,265.4c0-29.2,26.5-45.1,70.4-45.1c43.9,0,70.3,16,70.3,45.1c0,29.2-26.4,45.1-70.3,45.1
			C481.9,310.5,455.4,294.5,455.4,265.4z M572.2,265.4c0-17.8-17.5-27.1-46.3-27.1c-28.9,0-46.4,9.4-46.4,27.1
			c0,17.8,17.5,27.1,46.4,27.1C554.6,292.5,572.2,283.1,572.2,265.4z"/>
		<path class="st8" d="M747.6,252.4c0,16-13.1,29-36.2,29h-78v25.9h-24v-84h102C734.5,223.4,747.6,236.4,747.6,252.4z M722.4,252.4
			c0-6.1-5-11-11-11h-78v22.1h78C717.4,263.4,722.4,258.4,722.4,252.4z"/>
		<path class="st8" d="M143.8,421.7l-21.5-10c-11.6,5.8-27.2,8.8-46.3,8.8c-43.9,0-70-16-70-45.1c0-29.2,26-45.1,70-45.1
			c43.9,0,69.8,16,69.8,45.1c0,9.7-2.9,17.9-8.3,24.6l13.4,6.2L143.8,421.7z M97.7,400.2l-18-8.4l7.2-15.5l29.6,13.8
			c3.5-4,5.3-8.9,5.3-14.8c0-17.8-17-27.1-45.8-27.1c-28.9,0-46,9.4-46,27.1c0,17.8,17,27.1,46,27.1
			C84.2,402.5,91.4,401.8,97.7,400.2z"/>
		<path class="st8" d="M300.2,417.4h-32l-37.4-25.9h-46.2v25.9h-24v-84h102c23.2,0,36.2,13.1,36.2,29c0,16-13.1,29-36.2,29
			L300.2,417.4z M262.6,373.4c6,0,11-5,11-11c0-6.1-5-11-11-11h-78v22.1H262.6z"/>
		<path class="st8" d="M420.5,392.8c0-4.9-7.7-6.8-39.8-9.6c-56-4.8-68.6-11.6-68.6-28.1c0-20.4,28.4-24.8,66.8-24.8
			c21.5,0,49.9,5.9,60.6,13.3l-14.2,13.2c-9.1-4.7-26.3-8.5-46.4-8.5c-25.9,0-42.8,1.6-42.8,5.9c0,4.7,10,7.1,45.8,10.1
			c43.9,3.8,62.6,11.2,62.6,28.6c0,22.6-31.2,27.7-66.8,27.7c-22.7,0-56.4-5.4-68.4-15.2l15.2-14.4c11.2,7.3,32.2,11.6,53.2,11.6
			C403.2,402.5,420.5,399.4,420.5,392.8z"/>
		<path class="st8" d="M592.1,351.4H532v66h-24v-66h-59.9v-18h144V351.4z"/>
		<path class="st8" d="M735.9,333.4l-0.1,42c0,29.2-25.3,45.1-67.9,45.1c-42.6,0-67.9-16-67.9-45.1l-0.1-42h24l0.1,42
			c0,17.8,16.1,27.1,43.9,27.1s43.9-9.4,43.9-27.1l0.1-42H735.9z"/>
		<path class="st8" d="M154.8,443.4l-57.1,84H58.3l-57.1-84h26.9L78,516.8l49.9-73.4H154.8z"/>
		<path class="st8" d="M351.4,443.4l-31.9,84h-40l-27.6-72.6l-27.6,72.6h-40l-31.9-84h25.3l26.6,72.8l27.7-72.8h39.6l27.7,72.8
			l26.6-72.8H351.4z"/>
		<path class="st8" d="M456.6,527.4l-37.7-29.6l-37.8,29.6H349l53.9-42.2l-53.4-41.8h32.2l37.3,29.2l37.2-29.2h32.2L435,485.1
			l53.8,42.2H456.6z"/>
		<path class="st8" d="M565.8,492.9v34.4h-24v-34.4L484,443.4h31.4l38.4,33.1l38.4-33.1h31.4L565.8,492.9z"/>
		<path class="st8" d="M761.6,461.4l-92.4,48h92.4v18h-132v-18l92.4-48h-92.4v-18h132V461.4z"/>
		<path class="st8" d="M56.9,637.4h-24v-66H3.6v-18h53.3V637.4z"/>
		<path class="st8" d="M198.5,619.4v18H68.9v-18c0-17.4,22.1-24.8,64.9-33.7c28.9-6,38.9-6.8,38.9-11.5c0-4.3-16.9-5.9-38.9-5.9
			c-24.1,0-41.3,4.2-52.7,9.7l-11.9-15.1c10.7-6.7,39.1-12.6,64.6-12.6c34.4,0,62.9,4.4,62.9,24.8c0,16.4-13.1,20-61.7,29.4
			c-32,6.1-42.1,10-42.1,14.9H198.5z"/>
		<path class="st8" d="M346.4,610.8c0,19.8-26.4,29.6-68.5,29.6c-38,0-59-8.4-72.2-17.4l15.7-13c7,5,23.3,12.4,56.5,12.4
			c27,0,44.5-4.2,44.5-12.4c0-7.1-17.5-11-46.4-11h-21.4v-8.5l43.8-19.2h-80.8v-18h120.7v18l-31.8,15
			C329.8,586.5,346.4,595.2,346.4,610.8z"/>
		<path class="st8" d="M491.6,617.1h-28.6v20.3h-24v-20.3h-84.2v-18l64-45.7h44.3v45.7h28.6V617.1z M439.1,599.1v-36.4l-50.9,36.4
			H439.1z"/>
		<path class="st8" d="M631.3,611.1c0,21-20,29.4-70.3,29.4c-35.6,0-56.6-8.4-64.6-14.8l13.3-14c4.1,3.5,20.4,10.8,51.2,10.8
			c33.1,0,46.3-2.9,46.3-11.4c0-10.7-25.3-9.8-79.7-9.8h-24.2l4.9-47.9h111.2v18h-88.8l-1.3,12l38.3,0.2
			C613.2,583.1,631.3,590.9,631.3,611.1z"/>
		<path class="st8" d="M781.7,611c0,19.7-26.4,29.5-70.3,29.5c-43.9,0-70.4-9.8-70.4-36.1v-5.3c0-39,30.1-48.8,74-48.8
			c26.6,0,43.8,4.7,55,13.4L751.7,575c-5.3-4.6-15.6-6.7-36.7-6.7c-28.4,0-46.7,2.8-49.7,19.2c11.8-3.5,27.2-6,46-6
			C755.1,581.4,781.7,591.3,781.7,611z M757.7,611c0-8.3-15.2-11.5-46.4-11.5c-31.1,0-46.3,3.2-46.3,11.5c0,8.3,15.2,11.5,46.4,11.5
			C742.4,622.5,757.7,619.2,757.7,611z"/>
		<path class="st8" d="M135,663.4v18l-64,66H39.8l64-66H1.2v-18H135z"/>
		<path class="st8" d="M283,724c0,16.7-26.4,26.5-70.3,26.5c-43.9,0-70.4-9.8-70.4-26.5c0-9.4,7.6-15.2,21.5-18.7
			c-8.8-4.1-14.9-10.4-14.9-19.3c0-16.8,21-25.7,63.8-25.7c39.7,0,63.7,9.8,63.7,25.7c0,6.7-5.2,12.1-14.8,16
			C272.9,705.2,283,711.6,283,724z M259,722.8c0-6-10.9-6.7-73.9-12.2c-0.6,0-1.2-0.1-1.7-0.1c-11.5,2.3-17.2,5.4-17.2,10.3
			c0,8.5,15.2,11.8,46.4,11.8C243.7,732.5,259,729.2,259,722.8z M172.8,685.9c0,5.6,4.7,6.8,69,12.5c8.2-2.9,10.6-5.3,10.6-9.4
			c0-7.4-16-10.8-39.7-10.8C188.8,678.2,172.8,680.2,172.8,685.9z"/>
		<path class="st8" d="M423.8,704l-54.2,43.3h-30.2l37.3-29.8c-5,0.4-10.4,0.5-16.1,0.5c-42.7,0-69.2-6.1-69.2-28.9
			c0-19.1,26.4-28.9,69.1-28.9c43.9,0,70.4,9.8,70.4,28.9C430.9,695,428.4,700,423.8,704z M360.6,700.1c31.1,0,46.3-3.2,46.3-10.9
			s-15.2-10.9-46.4-10.9c-29.9,0-45.1,3.2-45.1,10.9S330.6,700.1,360.6,700.1z"/>
		<path class="st8" d="M582.5,705.4c0,29.2-26.4,45.1-70.3,45.1c-43.9,0-70.4-16-70.4-45.1c0-29.2,26.5-45.1,70.4-45.1
			C556.1,660.2,582.5,676.2,582.5,705.4z M483.4,728l33.7-49.7c-1.6-0.1-3.2-0.1-4.9-0.1c-28.9,0-46.4,9.4-46.4,27.1
			C465.7,716,472.1,723.6,483.4,728z M558.5,705.4c0-10.7-6.2-18.2-17.5-22.7l-33.7,49.7c1.6,0.1,3.2,0.1,4.9,0.1
			C541,732.5,558.5,723.1,558.5,705.4z"/>
	</g>
</g>
<g id="Layer_5" class="st0">
</g>
<g id="Layer_5_copy_4" class="st0">
</g>
<g id="Layer_5_copy" class="st0">
</g>
</svg>
