<?xml version="1.0" encoding="utf-8"?>
<!-- Generator: Adobe Illustrator 19.0.1, SVG Export Plug-In . SVG Version: 6.00 Build 0)  -->
<svg version="1.1" xmlns="http://www.w3.org/2000/svg" xmlns:xlink="http://www.w3.org/1999/xlink" x="0px" y="0px"
	 viewBox="0 0 1111.7 1005.1" style="enable-background:new 0 0 1111.7 1005.1;" xml:space="preserve">
<style type="text/css">
	.st0{display:none;}
	.st1{display:inline;fill:none;}
	.st2{display:inline;}
	.st3{font-family:'HNIRExtended-Regular';}
	.st4{font-size:72px;}
	.st5{font-size:60px;}
	.st6{fill:#3372FF;}
</style>
<g id="Layer_1" class="st0">
	<rect x="26.1" y="63.6" class="st1" width="1174.9" height="874.1"/>
	<text transform="matrix(1 0 0 1 26.0688 124.751)" class="st2"><tspan x="0" y="0" class="st3 st4">BREAKING WAVES </tspan><tspan x="0" y="86.4" class="st3 st4">WHEN I LOOK THIS </tspan><tspan x="0" y="172.8" class="st3 st4">SIDE MIND  </tspan><tspan x="0" y="259.2" class="st3 st4">CONTROL  </tspan><tspan x="0" y="345.6" class="st3 st4">MEMORIES I WANT </tspan><tspan x="0" y="432" class="st3 st4">YOU IT IS  </tspan><tspan x="0" y="518.4" class="st3 st4">HAPPENING AGAIN </tspan><tspan x="0" y="604.8" class="st3 st4">STANDING HIGH </tspan><tspan x="0" y="691.2" class="st3 st4">OWLS TIME WARP </tspan><tspan x="0" y="777.6" class="st3 st4">SONIC SOUL FEAR </tspan></text>
</g>
<g id="Layer_1_copy_2" class="st0">
	<rect x="26.1" y="63.6" class="st1" width="1244.9" height="1001.7"/>
	<text transform="matrix(1 0 0 1 26.0688 114.5513)" class="st2"><tspan x="0" y="0" class="st3 st5">WALKING MACHINE </tspan><tspan x="0" y="72" class="st3 st5">HUMAN AFTER ALL </tspan><tspan x="0" y="144" class="st3 st5">PARIS FOUR HUNDRED </tspan><tspan x="0" y="216" class="st3 st5">GET MYSELF INTO IT </tspan><tspan x="0" y="288" class="st3 st5">CAMERA WE DANCE  </tspan><tspan x="0" y="360" class="st3 st5">TOGETHER BOSSY </tspan><tspan x="0" y="432" class="st3 st5">CHEAP AND CHEERFUL  </tspan><tspan x="0" y="504" class="st3 st5">TESTAROSSA  </tspan><tspan x="0" y="576" class="st3 st5">AUTODRIVE TEXAS </tspan><tspan x="0" y="648" class="st3 st5">FOOL FOR LOVE I STILL </tspan><tspan x="0" y="720" class="st3 st5">REMEMBER SEXUAL </tspan><tspan x="0" y="792" class="st3 st5">SPORTSWEAR GOLDEN </tspan><tspan x="0" y="864" class="st3 st5">SKANS</tspan></text>
</g>
<g id="Layer_1_copy" class="st0">
	<rect x="33.1" y="30.6" class="st1" width="1128.9" height="1231.4"/>
	<text transform="matrix(1 0 0 1 33.0688 91.751)" class="st2"><tspan x="0" y="0" class="st3 st4">LEAN ON ME </tspan><tspan x="0" y="86.4" class="st3 st4">VIBRATIONS </tspan><tspan x="0" y="172.8" class="st3 st4">FOLLOWED BY </tspan><tspan x="0" y="259.2" class="st3 st4">POISONED </tspan><tspan x="0" y="345.6" class="st3 st4">APPLES YOU </tspan><tspan x="0" y="432" class="st3 st4">TOO ALBATROS </tspan><tspan x="0" y="518.4" class="st3 st4">WAKE ME UP </tspan><tspan x="0" y="604.8" class="st3 st4">SIGMUND THE </tspan><tspan x="0" y="691.2" class="st3 st4">TALKING DRUMS </tspan><tspan x="0" y="777.6" class="st3 st4">MOTHER ANIMAL </tspan><tspan x="0" y="864" class="st3 st4">STYLE COMPUTE </tspan><tspan x="0" y="950.4" class="st3 st4">WHEN THE NIGHT</tspan></text>
</g>
<g id="Layer_1_copy_3">
	<g>
		<path class="st6" d="M73.7,41.5v10.8H5V1.9h14.4v39.6H73.7z"/>
		<path class="st6" d="M93.9,12.7v7.8h57.5v10.8H93.9v10.2H159v10.8H79.5V1.9H159v10.8H93.9z"/>
		<path class="st6" d="M231.8,43.3h-47.7l-6.1,9h-16.1l34.3-50.4h23.6L254,52.3h-16.1L231.8,43.3z M224.4,32.5L207.9,8.2l-16.5,24.3
			H224.4z"/>
		<path class="st6" d="M340.5,1.9v50.4h-26.6L272,7.4v44.9h-14.4V1.9h26.6l41.8,44.9V1.9H340.5z"/>
		<path class="st6" d="M391.6,27.1C391.6,9.6,407.5,0,433.9,0c26.4,0,42.2,9.6,42.2,27.1s-15.8,27.1-42.2,27.1
			C407.5,54.1,391.6,44.6,391.6,27.1z M461.7,27.1c0-10.7-10.5-16.3-27.8-16.3c-17.4,0-27.9,5.6-27.9,16.3s10.5,16.3,27.9,16.3
			C451.2,43.3,461.7,37.7,461.7,27.1z"/>
		<path class="st6" d="M566.9,1.9v50.4h-26.6L498.4,7.4v44.9H484V1.9h26.6l41.8,44.9V1.9H566.9z"/>
		<path class="st6" d="M712.3,52.3h-14.4v-44l-21.7,44h-21.5l-21.7-44v44h-14.4V1.9h26.2l20.6,43.1l20.6-43.1h26.2V52.3z"/>
		<path class="st6" d="M735.3,12.7v7.8h57.5v10.8h-57.5v10.2h65.1v10.8h-79.5V1.9h79.5v10.8H735.3z"/>
		<path class="st6" d="M92.9,88.3l-34.3,50.4H35L0.7,88.3h16.1l30,44.1l30-44.1H92.9z"/>
		<path class="st6" d="M111.6,88.3v50.4H97.2V88.3H111.6z"/>
		<path class="st6" d="M203,122.5c0,8.9-7.3,16.2-20.1,16.2h-62.6V88.3h62.6c11.5,0,18,6.6,18,14.4c0,3.4-1.9,6.5-4.7,8.9
			C200,114.5,203,118.3,203,122.5z M134.6,106.4h48.2c1.9,0,3.7-1.6,3.7-3.7c0-2-1.7-3.7-3.7-3.7h-48.2V106.4z M188.2,122.5
			c0-2.9-2.4-5.3-5.3-5.3h-48.2v10.7h48.2C185.8,127.9,188.2,125.6,188.2,122.5z"/>
		<path class="st6" d="M294.8,138.7h-20.3l-22.5-15.6h-26.8v15.6h-14.4V88.3h61.2c13.9,0,21.7,7.8,21.7,17.4
			c0,9.6-7.8,17.4-21.7,17.4L294.8,138.7z M272.1,112.3c3.6,0,6.6-3,6.6-6.6c0-3.7-3-6.6-6.6-6.6h-46.8v13.2H272.1z"/>
		<path class="st6" d="M368,129.7h-47.7l-6.1,9h-16.1l34.3-50.4H356l34.3,50.4h-16.1L368,129.7z M360.7,118.9l-16.5-24.3l-16.5,24.3
			H360.7z"/>
		<path class="st6" d="M475.9,99.1h-36.1v39.6h-14.4V99.1h-35.9V88.3h86.4V99.1z"/>
		<path class="st6" d="M494.6,88.3v50.4h-14.4V88.3H494.6z"/>
		<path class="st6" d="M502.6,113.5c0-17.5,15.9-27.1,42.3-27.1c26.4,0,42.2,9.6,42.2,27.1s-15.8,27.1-42.2,27.1
			C518.5,140.5,502.6,131,502.6,113.5z M572.6,113.5c0-10.7-10.5-16.3-27.8-16.3c-17.4,0-27.9,5.6-27.9,16.3s10.5,16.3,27.9,16.3
			C562.1,129.7,572.6,124.1,572.6,113.5z"/>
		<path class="st6" d="M677.8,88.3v50.4h-26.6l-41.8-44.9v44.9h-14.4V88.3h26.6l41.8,44.9V88.3H677.8z"/>
		<path class="st6" d="M751.7,123.9c0-3-4.5-4.1-23.8-5.8c-33.6-2.9-41.1-7.3-41.1-16.8c0-11.9,17-14.9,40-14.9
			c12.9,0,30,3.5,36.4,8l-8.5,7.9c-5.5-2.8-15.8-5.1-27.9-5.1c-15.6,0-25.7,0.9-25.7,3.5c0,2.8,6,4.2,27.5,6
			c26.4,2.3,37.6,7.1,37.6,17.8c0,12.9-18.7,16-40.1,16c-13.6,0-33.8-3.2-41-9.1l9.1-8.6c6.7,4.4,19.3,7,31.9,7
			C741.4,129.7,751.7,127.9,751.7,123.9z"/>
		<path class="st6" d="M18.7,185.5V197h53.9v10.8H18.7v17.3H4.3v-50.4h75.9v10.8H18.7z"/>
		<path class="st6" d="M87,199.9c0-17.5,15.9-27.1,42.3-27.1c26.4,0,42.2,9.6,42.2,27.1s-15.8,27.1-42.2,27.1
			C103,226.9,87,217.4,87,199.9z M157.1,199.9c0-10.7-10.5-16.3-27.8-16.3c-17.4,0-27.9,5.6-27.9,16.3s10.5,16.3,27.9,16.3
			C146.6,216.1,157.1,210.5,157.1,199.9z"/>
		<path class="st6" d="M248.1,214.3v10.8h-68.7v-50.4h14.4v39.6H248.1z"/>
		<path class="st6" d="M322.6,214.3v10.8h-68.7v-50.4h14.4v39.6H322.6z"/>
		<path class="st6" d="M327.6,199.9c0-17.5,15.9-27.1,42.3-27.1c26.4,0,42.2,9.6,42.2,27.1s-15.8,27.1-42.2,27.1
			C343.5,226.9,327.6,217.4,327.6,199.9z M397.7,199.9c0-10.7-10.5-16.3-27.8-16.3c-17.4,0-27.9,5.6-27.9,16.3s10.5,16.3,27.9,16.3
			C387.1,216.1,397.7,210.5,397.7,199.9z"/>
		<path class="st6" d="M535.8,174.7l-19.2,50.4h-24l-16.6-43.6l-16.6,43.6h-24l-19.2-50.4h15.2l16,43.7l16.6-43.7h23.8l16.6,43.7
			l16-43.7H535.8z"/>
		<path class="st6" d="M555.2,185.5v7.8h57.5v10.8h-57.5v10.2h65.1v10.8h-79.5v-50.4h79.5v10.8H555.2z"/>
		<path class="st6" d="M709.9,199.9c0,15.9-13.8,25.2-40.1,25.2h-41.6v-50.4h41.6C696.2,174.7,709.9,184,709.9,199.9z M695.5,199.9
			c0-9.1-8.4-14.4-25.7-14.4h-27.2v28.8h27.2C687.1,214.3,695.5,208.9,695.5,199.9z"/>
		<path class="st6" d="M844.1,208.9c0,8.9-7.3,16.2-20.1,16.2h-62.6v-50.4H824c11.5,0,18,6.6,18,14.4c0,3.4-1.9,6.5-4.7,8.9
			C841.2,200.9,844.1,204.7,844.1,208.9z M775.8,192.8H824c1.9,0,3.7-1.6,3.7-3.7c0-2-1.7-3.7-3.7-3.7h-48.2V192.8z M829.4,208.9
			c0-2.9-2.4-5.3-5.3-5.3h-48.2v10.7H824C826.9,214.3,829.4,212,829.4,208.9z"/>
		<path class="st6" d="M896.8,201.9v23.2h-14.4v-23.2l-34.7-27.2h19.6l22.3,17.5l22.3-17.5h19.6L896.8,201.9z"/>
		<path class="st6" d="M88,278.5c0,9.6-7.8,17.4-21.7,17.4H19.4v15.6H5v-50.4h61.2C80.1,261.1,88,268.9,88,278.5z M72.9,278.5
			c0-3.7-3-6.6-6.6-6.6H19.4v13.2h46.8C69.8,285.1,72.9,282.1,72.9,278.5z"/>
		<path class="st6" d="M93.7,286.3c0-17.5,15.9-27.1,42.3-27.1c26.4,0,42.2,9.6,42.2,27.1s-15.8,27.1-42.2,27.1
			C109.7,313.3,93.7,303.8,93.7,286.3z M163.8,286.3c0-10.7-10.5-16.3-27.8-16.3c-17.4,0-27.9,5.6-27.9,16.3s10.5,16.3,27.9,16.3
			C153.3,302.5,163.8,296.9,163.8,286.3z"/>
		<path class="st6" d="M200.5,261.1v50.4h-14.4v-50.4H200.5z"/>
		<path class="st6" d="M274.4,296.7c0-3-4.5-4.1-23.8-5.8c-33.6-2.9-41.1-7.3-41.1-16.8c0-11.9,17-14.9,40-14.9
			c12.9,0,30,3.5,36.4,8l-8.5,7.9c-5.5-2.8-15.8-5.1-27.9-5.1c-15.6,0-25.7,0.9-25.7,3.5c0,2.8,6,4.2,27.5,6
			c26.4,2.3,37.6,7.1,37.6,17.8c0,12.9-18.7,16-40.1,16c-13.6,0-33.8-3.2-41-9.1l9.1-8.6c6.7,4.4,19.3,7,31.9,7
			C264.1,302.5,274.4,300.7,274.4,296.7z"/>
		<path class="st6" d="M295.3,286.3c0-17.5,15.9-27.1,42.3-27.1c26.4,0,42.2,9.6,42.2,27.1s-15.8,27.1-42.2,27.1
			C311.3,313.3,295.3,303.8,295.3,286.3z M365.4,286.3c0-10.7-10.5-16.3-27.8-16.3c-17.4,0-27.9,5.6-27.9,16.3s10.5,16.3,27.9,16.3
			C354.9,302.5,365.4,296.9,365.4,286.3z"/>
		<path class="st6" d="M470.6,261.1v50.4H444l-41.8-44.9v44.9h-14.4v-50.4h26.6l41.8,44.9v-44.9H470.6z"/>
		<path class="st6" d="M493.6,271.9v7.8h57.5v10.8h-57.5v10.2h65.1v10.8h-79.5v-50.4h79.5v10.8H493.6z"/>
		<path class="st6" d="M648.4,286.3c0,15.9-13.8,25.2-40.1,25.2h-41.6v-50.4h41.6C634.6,261.1,648.4,270.4,648.4,286.3z M634,286.3
			c0-9.1-8.4-14.4-25.7-14.4H581v28.8h27.2C625.5,300.7,634,295.3,634,286.3z"/>
		<path class="st6" d="M69.9,388.9H22.2l-6.1,9H0l34.3-50.4h23.6l34.3,50.4H76L69.9,388.9z M62.6,378.1l-16.5-24.3l-16.5,24.3H62.6z
			"/>
		<path class="st6" d="M178.7,364.9c0,9.6-7.8,17.4-21.7,17.4h-46.8v15.6H95.8v-50.4H157C170.9,347.5,178.7,355.3,178.7,364.9z
			 M163.6,364.9c0-3.7-3-6.6-6.6-6.6h-46.8v13.2H157C160.6,371.5,163.6,368.5,163.6,364.9z"/>
		<path class="st6" d="M268.1,364.9c0,9.6-7.8,17.4-21.7,17.4h-46.8v15.6h-14.4v-50.4h61.2C260.3,347.5,268.1,355.3,268.1,364.9z
			 M253,364.9c0-3.7-3-6.6-6.6-6.6h-46.8v13.2h46.8C250,371.5,253,368.5,253,364.9z"/>
		<path class="st6" d="M343.3,387.1v10.8h-68.7v-50.4H289v39.6H343.3z"/>
		<path class="st6" d="M363.5,358.3v7.8h57.5v10.8h-57.5v10.2h65.1v10.8h-79.5v-50.4h79.5v10.8H363.5z"/>
		<path class="st6" d="M501.7,383.1c0-3-4.5-4.1-23.8-5.8c-33.6-2.9-41.1-7.3-41.1-16.8c0-11.9,17-14.9,40-14.9
			c12.9,0,30,3.5,36.4,8l-8.5,7.9c-5.5-2.8-15.8-5.1-27.9-5.1c-15.6,0-25.7,0.9-25.7,3.5c0,2.8,6,4.2,27.5,6
			c26.4,2.3,37.6,7.1,37.6,17.8c0,12.9-18.7,16-40.1,16c-13.6,0-33.8-3.2-41-9.1l9.1-8.6c6.7,4.4,19.3,7,31.9,7
			C491.4,388.9,501.7,387.1,501.7,383.1z"/>
		<path class="st6" d="M611.4,374.7v23.2H597v-23.2l-34.7-27.2h19.6l22.3,17.5l22.3-17.5h19.6L611.4,374.7z"/>
		<path class="st6" d="M641.7,372.7c0-17.5,15.9-27.1,42.3-27.1s42.2,9.6,42.2,27.1s-15.8,27.1-42.2,27.1S641.7,390.2,641.7,372.7z
			 M711.8,372.7c0-10.7-10.5-16.3-27.8-16.3c-17.4,0-27.9,5.6-27.9,16.3s10.5,16.3,27.9,16.3C701.3,388.9,711.8,383.3,711.8,372.7z"
			/>
		<path class="st6" d="M815.4,347.5l-0.1,25.2c0,17.5-15.2,27.1-40.8,27.1c-25.6,0-40.8-9.6-40.8-27.1l-0.1-25.2h14.4l0.1,25.2
			c0,10.7,9.6,16.3,26.4,16.3c16.7,0,26.4-5.6,26.4-16.3l0.1-25.2H815.4z"/>
		<path class="st6" d="M87.1,444.7H51.1v39.6H36.7v-39.6H0.7v-10.8h86.4V444.7z"/>
		<path class="st6" d="M90.7,459.1c0-17.5,15.9-27.1,42.3-27.1c26.4,0,42.2,9.6,42.2,27.1c0,17.5-15.8,27.1-42.2,27.1
			C106.6,486.1,90.7,476.6,90.7,459.1z M160.8,459.1c0-10.7-10.5-16.3-27.8-16.3c-17.4,0-27.9,5.6-27.9,16.3
			c0,10.7,10.5,16.3,27.9,16.3C150.3,475.3,160.8,469.7,160.8,459.1z"/>
		<path class="st6" d="M182.4,459.1c0-17.5,15.9-27.1,42.3-27.1c26.4,0,42.2,9.6,42.2,27.1c0,17.5-15.8,27.1-42.2,27.1
			C198.3,486.1,182.4,476.6,182.4,459.1z M252.4,459.1c0-10.7-10.5-16.3-27.8-16.3c-17.4,0-27.9,5.6-27.9,16.3
			c0,10.7,10.5,16.3,27.9,16.3C241.9,475.3,252.4,469.7,252.4,459.1z"/>
		<path class="st6" d="M382.8,475.3h-47.7l-6.1,9h-16.1l34.3-50.4h23.6l34.3,50.4h-16.1L382.8,475.3z M375.5,464.5L359,440.2
			l-16.5,24.3H375.5z"/>
		<path class="st6" d="M477.4,473.5v10.8h-68.7v-50.4h14.4v39.6H477.4z"/>
		<path class="st6" d="M565.9,468.1c0,8.9-7.3,16.2-20.1,16.2h-62.6v-50.4h62.6c11.5,0,18,6.6,18,14.4c0,3.4-1.9,6.5-4.7,8.9
			C562.9,460.1,565.9,463.9,565.9,468.1z M497.5,452h48.2c1.9,0,3.7-1.6,3.7-3.7c0-2-1.7-3.7-3.7-3.7h-48.2V452z M551.1,468.1
			c0-2.9-2.4-5.3-5.3-5.3h-48.2v10.7h48.2C548.6,473.5,551.1,471.2,551.1,468.1z"/>
		<path class="st6" d="M638.6,475.3H591l-6.1,9h-16.1l34.3-50.4h23.6l34.3,50.4h-16.1L638.6,475.3z M631.3,464.5l-16.5-24.3
			l-16.5,24.3H631.3z"/>
		<path class="st6" d="M746.6,444.7h-36.1v39.6h-14.4v-39.6h-35.9v-10.8h86.4V444.7z"/>
		<path class="st6" d="M834.8,484.3h-20.3l-22.5-15.6h-26.8v15.6h-14.4v-50.4h61.2c13.9,0,21.7,7.8,21.7,17.4
			c0,9.6-7.8,17.4-21.7,17.4L834.8,484.3z M812.1,457.9c3.6,0,6.6-3,6.6-6.6c0-3.7-3-6.6-6.6-6.6h-46.8v13.2H812.1z"/>
		<path class="st6" d="M842.4,459.1c0-17.5,15.9-27.1,42.3-27.1s42.2,9.6,42.2,27.1c0,17.5-15.8,27.1-42.2,27.1
			S842.4,476.6,842.4,459.1z M912.5,459.1c0-10.7-10.5-16.3-27.8-16.3c-17.4,0-27.9,5.6-27.9,16.3c0,10.7,10.5,16.3,27.9,16.3
			C901.9,475.3,912.5,469.7,912.5,459.1z"/>
		<path class="st6" d="M1000,469.5c0-3-4.5-4.1-23.8-5.8c-33.6-2.9-41.1-7.3-41.1-16.8c0-11.9,17-14.9,40-14.9c12.9,0,30,3.5,36.4,8
			l-8.5,7.9c-5.5-2.8-15.8-5.1-27.9-5.1c-15.6,0-25.7,0.9-25.7,3.5c0,2.8,6,4.2,27.5,6c26.4,2.3,37.6,7.1,37.6,17.8
			c0,12.9-18.7,16-40.1,16c-13.6,0-33.8-3.2-41-9.1l9.1-8.6c6.7,4.4,19.3,7,31.9,7C989.7,475.3,1000,473.5,1000,469.5z"/>
		<path class="st6" d="M120.8,520.3l-19.2,50.4h-24l-16.6-43.6l-16.6,43.6h-24L1.4,520.3h15.2l16,43.7l16.6-43.7H73L89.6,564
			l16-43.7H120.8z"/>
		<path class="st6" d="M190.7,561.7h-47.7l-6.1,9h-16.1l34.3-50.4h23.6l34.3,50.4h-16.1L190.7,561.7z M183.4,550.9l-16.5-24.3
			l-16.5,24.3H183.4z"/>
		<path class="st6" d="M273.6,570.7l-42.6-26v26h-14.4v-50.4H231V543l39.8-22.8H293l-41.9,23.5l44.7,26.9H273.6z"/>
		<path class="st6" d="M315.3,531.1v7.8h57.5v10.8h-57.5v10.2h65.1v10.8h-79.5v-50.4h79.5v10.8H315.3z"/>
		<path class="st6" d="M525.1,570.7h-14.4v-44l-21.7,44h-21.5l-21.7-44v44h-14.4v-50.4h26.2l20.6,43.1l20.6-43.1h26.2V570.7z"/>
		<path class="st6" d="M548.1,531.1v7.8h57.5v10.8h-57.5v10.2h65.1v10.8h-79.5v-50.4h79.5v10.8H548.1z"/>
		<path class="st6" d="M745.6,520.3l-0.1,25.2c0,17.5-15.2,27.1-40.8,27.1c-25.6,0-40.8-9.6-40.8-27.1l-0.1-25.2h14.4l0.1,25.2
			c0,10.7,9.6,16.3,26.4,16.3c16.7,0,26.4-5.6,26.4-16.3l0.1-25.2H745.6z"/>
		<path class="st6" d="M836.9,537.7c0,9.6-7.8,17.4-21.7,17.4h-46.8v15.6h-14.4v-50.4h61.2C829,520.3,836.9,528.1,836.9,537.7z
			 M821.7,537.7c0-3.7-3-6.6-6.6-6.6h-46.8v13.2h46.8C818.7,544.3,821.7,541.3,821.7,537.7z"/>
		<path class="st6" d="M70.3,642.3c0-3-4.5-4.1-23.8-5.8c-33.6-2.9-41.1-7.3-41.1-16.8c0-11.9,17-14.9,40-14.9c12.9,0,30,3.5,36.4,8
			l-8.5,7.9c-5.5-2.8-15.8-5.1-27.9-5.1c-15.6,0-25.7,0.9-25.7,3.5c0,2.8,6,4.2,27.5,6c26.4,2.3,37.6,7.1,37.6,17.8
			c0,12.9-18.7,16-40.1,16c-13.6,0-33.8-3.2-41-9.1l9.1-8.6c6.7,4.4,19.3,7,31.9,7C60,648.1,70.3,646.3,70.3,642.3z"/>
		<path class="st6" d="M106.3,606.7v50.4H91.9v-50.4H106.3z"/>
		<path class="st6" d="M197.9,626.8v6.6c0,16-15,26.1-41.4,26.1c-26.4,0-42.3-10.2-42.3-27.7s15.9-27.7,42.3-27.7
			c14.7,0,26,3,33.2,8.9l-9.6,8.9c-4.5-4.6-12.6-7.1-23.6-7.1c-17.4,0-27.9,6.2-27.9,16.8s10.5,16.8,27.9,16.8
			c14.5,0,23.7-4.4,26.3-11.2H149v-10.8H197.9z"/>
		<path class="st6" d="M299.5,657.1h-14.4v-44l-21.7,44h-21.5l-21.7-44v44h-14.4v-50.4h26.2l20.6,43.1l20.6-43.1h26.2V657.1z"/>
		<path class="st6" d="M389.4,606.7l-0.1,25.2c0,17.5-15.2,27.1-40.8,27.1c-25.6,0-40.8-9.6-40.8-27.1l-0.1-25.2h14.4l0.1,25.2
			c0,10.7,9.6,16.3,26.4,16.3c16.7,0,26.4-5.6,26.4-16.3l0.1-25.2H389.4z"/>
		<path class="st6" d="M480.5,606.7v50.4h-26.6l-41.8-44.9v44.9h-14.4v-50.4h26.6l41.8,44.9v-44.9H480.5z"/>
		<path class="st6" d="M570.9,631.9c0,15.9-13.8,25.2-40.1,25.2h-41.6v-50.4h41.6C557.1,606.7,570.9,616,570.9,631.9z M556.5,631.9
			c0-9.1-8.4-14.4-25.7-14.4h-27.2v28.8h27.2C548.1,646.3,556.5,640.9,556.5,631.9z"/>
		<path class="st6" d="M704.5,617.5h-36.1v39.6H654v-39.6H618v-10.8h86.4V617.5z"/>
		<path class="st6" d="M787.3,606.7v50.4h-14.4v-21.7h-50.4v21.7H708v-50.4h14.4v17.9h50.4v-17.9H787.3z"/>
		<path class="st6" d="M809.6,617.5v7.8H867v10.8h-57.5v10.2h65.1v10.8h-79.5v-50.4h79.5v10.8H809.6z"/>
		<path class="st6" d="M87.1,703.9H51.1v39.6H36.7v-39.6H0.7v-10.8h86.4V703.9z"/>
		<path class="st6" d="M147.3,734.5H99.6l-6.1,9H77.4l34.3-50.4h23.6l34.3,50.4h-16.1L147.3,734.5z M140,723.7l-16.5-24.3L107,723.7
			H140z"/>
		<path class="st6" d="M241.8,732.7v10.8h-68.7v-50.4h14.4v39.6H241.8z"/>
		<path class="st6" d="M304.6,743.5l-42.6-26v26h-14.4v-50.4H262v22.8l39.8-22.8h22.2l-41.9,23.5l44.7,26.9H304.6z"/>
		<path class="st6" d="M346.3,693.1v50.4h-14.4v-50.4H346.3z"/>
		<path class="st6" d="M437.8,693.1v50.4h-26.6l-41.8-44.9v44.9H355v-50.4h26.6l41.8,44.9v-44.9H437.8z"/>
		<path class="st6" d="M529.4,713.2v6.6c0,16-15,26.1-41.4,26.1c-26.4,0-42.3-10.2-42.3-27.7s15.9-27.7,42.3-27.7
			c14.7,0,26,3,33.2,8.9l-9.6,8.9c-4.5-4.6-12.6-7.1-23.6-7.1c-17.4,0-27.9,6.2-27.9,16.8s10.5,16.8,27.9,16.8
			c14.5,0,23.7-4.4,26.3-11.2h-33.8v-10.8H529.4z"/>
		<path class="st6" d="M662.3,718.3c0,15.9-13.8,25.2-40.1,25.2h-41.6v-50.4h41.6C648.5,693.1,662.3,702.4,662.3,718.3z
			 M647.9,718.3c0-9.1-8.4-14.4-25.7-14.4h-27.2v28.8h27.2C639.4,732.7,647.9,727.3,647.9,718.3z"/>
		<path class="st6" d="M754.5,743.5h-20.3l-22.5-15.6h-26.8v15.6h-14.4v-50.4h61.2c13.9,0,21.7,7.8,21.7,17.4
			c0,9.6-7.8,17.4-21.7,17.4L754.5,743.5z M731.7,717.1c3.6,0,6.6-3,6.6-6.6c0-3.7-3-6.6-6.6-6.6h-46.8v13.2H731.7z"/>
		<path class="st6" d="M844.1,693.1l-0.1,25.2c0,17.5-15.2,27.1-40.8,27.1c-25.6,0-40.8-9.6-40.8-27.1l-0.1-25.2h14.4l0.1,25.2
			c0,10.7,9.6,16.3,26.4,16.3c16.7,0,26.4-5.6,26.4-16.3l0.1-25.2H844.1z"/>
		<path class="st6" d="M945.9,743.5h-14.4v-44l-21.7,44h-21.5l-21.7-44v44h-14.4v-50.4h26.2l20.6,43.1l20.6-43.1h26.2V743.5z"/>
		<path class="st6" d="M1019.8,728.7c0-3-4.5-4.1-23.8-5.8c-33.6-2.9-41.1-7.3-41.1-16.8c0-11.9,17-14.9,40-14.9
			c12.9,0,30,3.5,36.4,8l-8.5,7.9c-5.5-2.8-15.8-5.1-27.9-5.1c-15.6,0-25.7,0.9-25.7,3.5c0,2.8,6,4.2,27.5,6
			c26.4,2.3,37.6,7.1,37.6,17.8c0,12.9-18.7,16-40.1,16c-13.6,0-33.8-3.2-41-9.1l9.1-8.6c6.7,4.4,19.3,7,31.9,7
			C1009.5,734.5,1019.8,732.7,1019.8,728.7z"/>
		<path class="st6" d="M98.6,829.9H84.2v-44l-21.7,44H41.1l-21.7-44v44H5v-50.4h26.2l20.6,43.1l20.6-43.1h26.2V829.9z"/>
		<path class="st6" d="M106.6,804.7c0-17.5,15.9-27.1,42.3-27.1c26.4,0,42.2,9.6,42.2,27.1s-15.8,27.1-42.2,27.1
			C122.5,831.7,106.6,822.2,106.6,804.7z M176.6,804.7c0-10.7-10.5-16.3-27.8-16.3c-17.4,0-27.9,5.6-27.9,16.3s10.5,16.3,27.9,16.3
			C166.1,820.9,176.6,815.3,176.6,804.7z"/>
		<path class="st6" d="M281,790.3h-36.1v39.6h-14.4v-39.6h-35.9v-10.8H281V790.3z"/>
		<path class="st6" d="M363.8,779.5v50.4h-14.4v-21.7H299v21.7h-14.4v-50.4H299v17.9h50.4v-17.9H363.8z"/>
		<path class="st6" d="M386.1,790.3v7.8h57.5v10.8h-57.5v10.2h65.1v10.8h-79.5v-50.4h79.5v10.8H386.1z"/>
		<path class="st6" d="M543.1,829.9h-20.3l-22.5-15.6h-26.8v15.6h-14.4v-50.4h61.2c13.9,0,21.7,7.8,21.7,17.4
			c0,9.6-7.8,17.4-21.7,17.4L543.1,829.9z M520.3,803.5c3.6,0,6.6-3,6.6-6.6c0-3.7-3-6.6-6.6-6.6h-46.8v13.2H520.3z"/>
		<path class="st6" d="M659.5,820.9h-47.7l-6.1,9h-16.1l34.3-50.4h23.6l34.3,50.4h-16.1L659.5,820.9z M652.1,810.1l-16.5-24.3
			l-16.5,24.3H652.1z"/>
		<path class="st6" d="M768.2,779.5v50.4h-26.6L699.7,785v44.9h-14.4v-50.4h26.6l41.8,44.9v-44.9H768.2z"/>
		<path class="st6" d="M791.2,779.5v50.4h-14.4v-50.4H791.2z"/>
		<path class="st6" d="M893.5,829.9h-14.4v-44l-21.7,44h-21.5l-21.7-44v44h-14.4v-50.4h26.2l20.6,43.1l20.6-43.1h26.2V829.9z"/>
		<path class="st6" d="M967,820.9h-47.7l-6.1,9H897l34.3-50.4h23.6l34.3,50.4h-16.1L967,820.9z M959.6,810.1l-16.5-24.3l-16.5,24.3
			H959.6z"/>
		<path class="st6" d="M1061.5,819.1v10.8h-68.7v-50.4h14.4v39.6H1061.5z"/>
		<path class="st6" d="M70.3,901.5c0-3-4.5-4.1-23.8-5.8c-33.6-2.9-41.1-7.3-41.1-16.8c0-11.9,17-14.9,40-14.9c12.9,0,30,3.5,36.4,8
			l-8.5,7.9c-5.5-2.8-15.8-5.1-27.9-5.1c-15.6,0-25.7,0.9-25.7,3.5c0,2.8,6,4.2,27.5,6c26.4,2.3,37.6,7.1,37.6,17.8
			c0,12.9-18.7,16-40.1,16c-13.6,0-33.8-3.2-41-9.1l9.1-8.6c6.7,4.4,19.3,7,31.9,7C60,907.3,70.3,905.5,70.3,901.5z"/>
		<path class="st6" d="M174,876.7H138v39.6h-14.4v-39.6H87.6v-10.8H174V876.7z"/>
		<path class="st6" d="M223.1,893.1v23.2h-14.4v-23.2L174,865.9h19.6l22.3,17.5l22.3-17.5h19.6L223.1,893.1z"/>
		<path class="st6" d="M330.9,905.5v10.8h-68.7v-50.4h14.4v39.6H330.9z"/>
		<path class="st6" d="M351.1,876.7v7.8h57.5v10.8h-57.5v10.2h65.1v10.8h-79.5v-50.4h79.5v10.8H351.1z"/>
		<path class="st6" d="M546.5,903c-5.8,9.8-19.4,15.3-38.7,15.3c-26.4,0-42-9.7-42-27.2s15.6-27.2,42-27.2
			c19.2,0,32.8,5.5,38.6,15.3l-13.6,4.4c-4-5.7-12.7-8.9-25-8.9c-17.4,0-27.6,5.8-27.6,16.4s10.2,16.4,27.6,16.4
			c12.4,0,21.2-3.2,25.1-9L546.5,903z"/>
		<path class="st6" d="M553,891.1c0-17.5,15.9-27.1,42.3-27.1c26.4,0,42.2,9.6,42.2,27.1s-15.8,27.1-42.2,27.1
			C568.9,918.1,553,908.6,553,891.1z M623,891.1c0-10.7-10.5-16.3-27.8-16.3c-17.4,0-27.9,5.6-27.9,16.3s10.5,16.3,27.9,16.3
			C612.5,907.3,623,901.7,623,891.1z"/>
		<path class="st6" d="M738.9,916.3h-14.4v-44l-21.7,44h-21.5l-21.7-44v44h-14.4v-50.4h26.2l20.6,43.1l20.6-43.1h26.2V916.3z"/>
		<path class="st6" d="M830.5,883.3c0,9.6-7.8,17.4-21.7,17.4H762v15.6h-14.4v-50.4h61.2C822.7,865.9,830.5,873.7,830.5,883.3z
			 M815.4,883.3c0-3.7-3-6.6-6.6-6.6H762v13.2h46.8C812.4,889.9,815.4,886.9,815.4,883.3z"/>
		<path class="st6" d="M918.3,865.9l-0.1,25.2c0,17.5-15.2,27.1-40.8,27.1c-25.6,0-40.8-9.6-40.8-27.1l-0.1-25.2H851l0.1,25.2
			c0,10.7,9.6,16.3,26.4,16.3c16.7,0,26.4-5.6,26.4-16.3l0.1-25.2H918.3z"/>
		<path class="st6" d="M1008.6,876.7h-36.1v39.6h-14.4v-39.6h-35.9v-10.8h86.4V876.7z"/>
		<path class="st6" d="M1027.4,876.7v7.8h57.5v10.8h-57.5v10.2h65.1v10.8H1013v-50.4h79.5v10.8H1027.4z"/>
		<path class="st6" d="M120.8,952.3l-19.2,50.4h-24l-16.6-43.6l-16.6,43.6h-24L1.4,952.3h15.2l16,43.7l16.6-43.7H73L89.6,996
			l16-43.7H120.8z"/>
		<path class="st6" d="M204.3,952.3v50.4h-14.4V981h-50.4v21.7h-14.4v-50.4h14.4v17.9h50.4v-17.9H204.3z"/>
		<path class="st6" d="M226.7,963.1v7.8h57.5v10.8h-57.5v10.2h65.1v10.8h-79.5v-50.4h79.5v10.8H226.7z"/>
		<path class="st6" d="M382.5,952.3v50.4h-26.6l-41.8-44.9v44.9h-14.4v-50.4h26.6l41.8,44.9v-44.9H382.5z"/>
		<path class="st6" d="M516.5,963.1h-36.1v39.6H466v-39.6h-35.9v-10.8h86.4V963.1z"/>
		<path class="st6" d="M599.3,952.3v50.4h-14.4V981h-50.4v21.7h-14.4v-50.4h14.4v17.9h50.4v-17.9H599.3z"/>
		<path class="st6" d="M621.6,963.1v7.8H679v10.8h-57.5v10.2h65.1v10.8h-79.5v-50.4h79.5v10.8H621.6z"/>
		<path class="st6" d="M820.7,952.3v50.4H794l-41.8-44.9v44.9h-14.4v-50.4h26.6l41.8,44.9v-44.9H820.7z"/>
		<path class="st6" d="M843.7,952.3v50.4h-14.4v-50.4H843.7z"/>
		<path class="st6" d="M935.3,972.4v6.6c0,16-15,26.1-41.4,26.1s-42.3-10.2-42.3-27.7s15.9-27.7,42.3-27.7c14.7,0,26,3,33.2,8.9
			l-9.6,8.9c-4.5-4.6-12.6-7.1-23.6-7.1c-17.4,0-27.9,6.2-27.9,16.8s10.5,16.8,27.9,16.8c14.5,0,23.7-4.4,26.3-11.2h-33.8v-10.8
			H935.3z"/>
		<path class="st6" d="M1021.7,952.3v50.4h-14.4V981h-50.4v21.7h-14.4v-50.4h14.4v17.9h50.4v-17.9H1021.7z"/>
		<path class="st6" d="M1111.7,963.1h-36.1v39.6h-14.4v-39.6h-35.9v-10.8h86.4V963.1z"/>
	</g>
</g>
</svg>
