<?xml version="1.0" encoding="utf-8"?>
<!-- Generator: Adobe Illustrator 19.0.1, SVG Export Plug-In . SVG Version: 6.00 Build 0)  -->
<svg version="1.1" xmlns="http://www.w3.org/2000/svg" xmlns:xlink="http://www.w3.org/1999/xlink" x="0px" y="0px"
	 viewBox="0 0 782.6 1430.5" style="enable-background:new 0 0 782.6 1430.5;" xml:space="preserve">
<style type="text/css">
	.st0{display:none;}
	.st1{display:inline;fill:none;}
	.st2{display:inline;}
	.st3{font-family:'HNIRExtended-Regular';}
	.st4{font-size:72px;}
	.st5{font-size:60px;}
	.st6{display:inline;fill:#3372FF;}
	.st7{fill:#FFFFFF;}
	.st8{fill:#3372FF;}
	.st9{fill:#FFFFFF;stroke:#231F20;stroke-miterlimit:10;}
	.st10{font-size:120px;}
	.st11{letter-spacing:-4;}
	.st12{letter-spacing:-2;}
	.st13{fill:#C0FF97;}
	.st14{fill:#33C5FF;}
</style>
<g id="Layer_1" class="st0">
	<rect x="-1148.2" y="42.9" class="st1" width="1174.9" height="874.1"/>
	<text transform="matrix(1 0 0 1 -1148.2167 100.5059)" class="st2"><tspan x="0" y="0" class="st3 st4">BREAKING WAVES </tspan><tspan x="0" y="86.4" class="st3 st4">WHEN I LOOK THIS </tspan><tspan x="0" y="172.8" class="st3 st4">SIDE MIND  </tspan><tspan x="0" y="259.2" class="st3 st4">CONTROL  </tspan><tspan x="0" y="345.6" class="st3 st4">MEMORIES I WANT </tspan><tspan x="0" y="432" class="st3 st4">YOU IT IS  </tspan><tspan x="0" y="518.4" class="st3 st4">HAPPENING AGAIN </tspan><tspan x="0" y="604.8" class="st3 st4">STANDING HIGH </tspan><tspan x="0" y="691.2" class="st3 st4">OWLS TIME WARP </tspan><tspan x="0" y="777.6" class="st3 st4">SONIC SOUL FEAR </tspan></text>
</g>
<g id="Layer_1_copy_2" class="st0">
	<rect x="-1148.2" y="42.9" class="st1" width="1244.9" height="1001.7"/>
	<text transform="matrix(1 0 0 1 -1148.2167 90.9058)" class="st2"><tspan x="0" y="0" class="st3 st5">WALKING MACHINE </tspan><tspan x="0" y="72" class="st3 st5">HUMAN AFTER ALL </tspan><tspan x="0" y="144" class="st3 st5">PARIS FOUR HUNDRED </tspan><tspan x="0" y="216" class="st3 st5">GET MYSELF INTO IT </tspan><tspan x="0" y="288" class="st3 st5">CAMERA WE DANCE  </tspan><tspan x="0" y="360" class="st3 st5">TOGETHER BOSSY </tspan><tspan x="0" y="432" class="st3 st5">CHEAP AND CHEERFUL  </tspan><tspan x="0" y="504" class="st3 st5">TESTAROSSA  </tspan><tspan x="0" y="576" class="st3 st5">AUTODRIVE TEXAS </tspan><tspan x="0" y="648" class="st3 st5">FOOL FOR LOVE I STILL </tspan><tspan x="0" y="720" class="st3 st5">REMEMBER SEXUAL </tspan><tspan x="0" y="792" class="st3 st5">SPORTSWEAR GOLDEN </tspan><tspan x="0" y="864" class="st3 st5">SKANS</tspan></text>
</g>
<g id="Layer_1_copy" class="st0">
</g>
<g id="Layer_1_copy_3" class="st0">
</g>
<g id="Layer_5_copy_3" class="st0">
	<g class="st2">
		<path class="st7" d="M116.5,72.4H37.1l-10.2,15H0l57.1-84h39.4l57.1,84h-26.9L116.5,72.4z M104.3,54.4L76.8,13.9L49.3,54.4H104.3z
			"/>
		<path class="st7" d="M297.5,60.4c0,14.9-12.1,27-33.5,27H159.6v-84H264c19.2,0,30,10.9,30,24c0,5.6-3.2,10.8-7.8,14.9
			C292.6,47,297.5,53.4,297.5,60.4z M183.6,33.6H264c3.2,0,6.1-2.6,6.1-6.1c0-3.4-2.9-6.1-6.1-6.1h-80.4V33.6z M272.9,60.5
			c0-4.8-4.1-8.9-8.9-8.9h-80.4v17.8H264C268.8,69.4,272.9,65.5,272.9,60.5z"/>
		<path class="st7" d="M442.1,65.2c-9.7,16.3-32.3,25.6-64.4,25.6c-43.9,0-70-16.2-70-45.4c0-29.2,26-45.4,70-45.4
			c32,0,54.6,9.1,64.3,25.4l-22.7,7.3C412.6,23.3,398,18,377.6,18c-28.9,0-46,9.6-46,27.4c0,17.8,17,27.4,46,27.4
			c20.6,0,35.3-5.4,41.9-15L442.1,65.2z"/>
		<path class="st7" d="M590.3,45.4c0,26.5-22.9,42-66.8,42h-69.4v-84h69.4C567.4,3.4,590.3,18.8,590.3,45.4z M566.3,45.4
			c0-15.1-14-24-42.8-24h-45.4v48h45.4C552.2,69.4,566.3,60.5,566.3,45.4z"/>
		<path class="st7" d="M627.5,21.4v13h95.8v18h-95.8v17H736v18H603.5v-84H736v18H627.5z"/>
		<path class="st7" d="M31.2,131.4v19.2H121v18H31.2v28.8h-24v-84h126.5v18H31.2z"/>
		<path class="st7" d="M283.9,146.8v11c0,26.6-25.1,42.6-69,42.6c-46.3,0-72.8-16-72.8-45.1c0-29.2,26.5-45.1,72.8-45.1
			c24.5,0,43.3,4.1,55.3,13.9l-16,14.9c-7.4-7.7-21-10.8-39.4-10.8c-31.3,0-48.8,9.4-48.8,27.1c0,17.8,17.5,27.1,48.8,27.1
			c24.1,0,39.4-6.6,43.7-17.6h-56.2v-18H283.9z"/>
		<path class="st7" d="M429.1,113.4v84h-24v-36.1h-84v36.1h-24v-84h24v29.9h84v-29.9H429.1z"/>
		<path class="st7" d="M467.5,113.4v84h-24v-84H467.5z"/>
		<path class="st7" d="M595.2,113.4l-0.1,42c0,29.2-25.3,45.1-67.9,45.1c-22.9,0-40.8-4.6-52.4-13.3l15.7-14
			c11.3,7,22.4,9.4,36.7,9.4c27.8,0,43.9-9.4,43.9-27.1l0.1-42H595.2z"/>
		<path class="st7" d="M704,197.4L633,154v43.3h-24v-84h24v37.9l66.4-37.9h37.1l-69.8,39.2l74.5,44.8H704z"/>
		<path class="st7" d="M122.9,289.4v18H8.4v-84h24v66H122.9z"/>
		<path class="st7" d="M289.7,307.4h-24V234l-36.1,73.3h-35.8L157.7,234v73.3h-24v-84h43.7l34.3,71.8l34.3-71.8h43.7V307.4z"/>
		<path class="st7" d="M442.2,223.4v84h-45.1l-69-73.9v73.9h-24v-84h45.1l69,73.9v-73.9H442.2z"/>
		<path class="st7" d="M455.4,265.4c0-29.2,26.5-45.1,70.4-45.1c43.9,0,70.3,16,70.3,45.1c0,29.2-26.4,45.1-70.3,45.1
			C481.9,310.5,455.4,294.5,455.4,265.4z M572.2,265.4c0-17.8-17.5-27.1-46.3-27.1c-28.9,0-46.4,9.4-46.4,27.1
			c0,17.8,17.5,27.1,46.4,27.1C554.6,292.5,572.2,283.1,572.2,265.4z"/>
		<path class="st7" d="M747.6,252.4c0,16-13.1,29-36.2,29h-78v25.9h-24v-84h102C734.5,223.4,747.6,236.4,747.6,252.4z M722.4,252.4
			c0-6.1-5-11-11-11h-78v22.1h78C717.4,263.4,722.4,258.4,722.4,252.4z"/>
		<path class="st7" d="M143.8,421.7l-21.5-10c-11.6,5.8-27.2,8.8-46.3,8.8c-43.9,0-70-16-70-45.1c0-29.2,26-45.1,70-45.1
			c43.9,0,69.8,16,69.8,45.1c0,9.7-2.9,17.9-8.3,24.6l13.4,6.2L143.8,421.7z M97.7,400.2l-18-8.4l7.2-15.5l29.6,13.8
			c3.5-4,5.3-8.9,5.3-14.8c0-17.8-17-27.1-45.8-27.1c-28.9,0-46,9.4-46,27.1c0,17.8,17,27.1,46,27.1
			C84.2,402.5,91.4,401.8,97.7,400.2z"/>
		<path class="st7" d="M300.2,417.4h-32l-37.4-25.9h-46.2v25.9h-24v-84h102c23.2,0,36.2,13.1,36.2,29c0,16-13.1,29-36.2,29
			L300.2,417.4z M262.6,373.4c6,0,11-5,11-11c0-6.1-5-11-11-11h-78v22.1H262.6z"/>
		<path class="st7" d="M420.5,392.8c0-4.9-7.7-6.8-39.8-9.6c-56-4.8-68.6-11.6-68.6-28.1c0-20.4,28.4-24.8,66.8-24.8
			c21.5,0,49.9,5.9,60.6,13.3l-14.2,13.2c-9.1-4.7-26.3-8.5-46.4-8.5c-25.9,0-42.8,1.6-42.8,5.9c0,4.7,10,7.1,45.8,10.1
			c43.9,3.8,62.6,11.2,62.6,28.6c0,22.6-31.2,27.7-66.8,27.7c-22.7,0-56.4-5.4-68.4-15.2l15.2-14.4c11.2,7.3,32.2,11.6,53.2,11.6
			C403.2,402.5,420.5,399.4,420.5,392.8z"/>
		<path class="st7" d="M592.1,351.4H532v66h-24v-66h-59.9v-18h144V351.4z"/>
		<path class="st7" d="M735.9,333.4l-0.1,42c0,29.2-25.3,45.1-67.9,45.1c-42.6,0-67.9-16-67.9-45.1l-0.1-42h24l0.1,42
			c0,17.8,16.1,27.1,43.9,27.1s43.9-9.4,43.9-27.1l0.1-42H735.9z"/>
		<path class="st7" d="M154.8,443.4l-57.1,84H58.3l-57.1-84h26.9L78,516.8l49.9-73.4H154.8z"/>
		<path class="st7" d="M351.4,443.4l-31.9,84h-40l-27.6-72.6l-27.6,72.6h-40l-31.9-84h25.3l26.6,72.8l27.7-72.8h39.6l27.7,72.8
			l26.6-72.8H351.4z"/>
		<path class="st7" d="M456.6,527.4l-37.7-29.6l-37.8,29.6H349l53.9-42.2l-53.4-41.8h32.2l37.3,29.2l37.2-29.2h32.2L435,485.1
			l53.8,42.2H456.6z"/>
		<path class="st7" d="M565.8,492.9v34.4h-24v-34.4L484,443.4h31.4l38.4,33.1l38.4-33.1h31.4L565.8,492.9z"/>
		<path class="st7" d="M761.6,461.4l-92.4,48h92.4v18h-132v-18l92.4-48h-92.4v-18h132V461.4z"/>
		<path class="st7" d="M56.9,637.4h-24v-66H3.6v-18h53.3V637.4z"/>
		<path class="st7" d="M198.5,619.4v18H68.9v-18c0-17.4,22.1-24.8,64.9-33.7c28.9-6,38.9-6.8,38.9-11.5c0-4.3-16.9-5.9-38.9-5.9
			c-24.1,0-41.3,4.2-52.7,9.7l-11.9-15.1c10.7-6.7,39.1-12.6,64.6-12.6c34.4,0,62.9,4.4,62.9,24.8c0,16.4-13.1,20-61.7,29.4
			c-32,6.1-42.1,10-42.1,14.9H198.5z"/>
		<path class="st7" d="M346.4,610.8c0,19.8-26.4,29.6-68.5,29.6c-38,0-59-8.4-72.2-17.4l15.7-13c7,5,23.3,12.4,56.5,12.4
			c27,0,44.5-4.2,44.5-12.4c0-7.1-17.5-11-46.4-11h-21.4v-8.5l43.8-19.2h-80.8v-18h120.7v18l-31.8,15
			C329.8,586.5,346.4,595.2,346.4,610.8z"/>
		<path class="st7" d="M491.6,617.1h-28.6v20.3h-24v-20.3h-84.2v-18l64-45.7h44.3v45.7h28.6V617.1z M439.1,599.1v-36.4l-50.9,36.4
			H439.1z"/>
		<path class="st7" d="M631.3,611.1c0,21-20,29.4-70.3,29.4c-35.6,0-56.6-8.4-64.6-14.8l13.3-14c4.1,3.5,20.4,10.8,51.2,10.8
			c33.1,0,46.3-2.9,46.3-11.4c0-10.7-25.3-9.8-79.7-9.8h-24.2l4.9-47.9h111.2v18h-88.8l-1.3,12l38.3,0.2
			C613.2,583.1,631.3,590.9,631.3,611.1z"/>
		<path class="st7" d="M781.7,611c0,19.7-26.4,29.5-70.3,29.5c-43.9,0-70.4-9.8-70.4-36.1v-5.3c0-39,30.1-48.8,74-48.8
			c26.6,0,43.8,4.7,55,13.4L751.7,575c-5.3-4.6-15.6-6.7-36.7-6.7c-28.4,0-46.7,2.8-49.7,19.2c11.8-3.5,27.2-6,46-6
			C755.1,581.4,781.7,591.3,781.7,611z M757.7,611c0-8.3-15.2-11.5-46.4-11.5c-31.1,0-46.3,3.2-46.3,11.5c0,8.3,15.2,11.5,46.4,11.5
			C742.4,622.5,757.7,619.2,757.7,611z"/>
		<path class="st7" d="M135,663.4v18l-64,66H39.8l64-66H1.2v-18H135z"/>
		<path class="st7" d="M283,724c0,16.7-26.4,26.5-70.3,26.5c-43.9,0-70.4-9.8-70.4-26.5c0-9.4,7.6-15.2,21.5-18.7
			c-8.8-4.1-14.9-10.4-14.9-19.3c0-16.8,21-25.7,63.8-25.7c39.7,0,63.7,9.8,63.7,25.7c0,6.7-5.2,12.1-14.8,16
			C272.9,705.2,283,711.6,283,724z M259,722.8c0-6-10.9-6.7-73.9-12.2c-0.6,0-1.2-0.1-1.7-0.1c-11.5,2.3-17.2,5.4-17.2,10.3
			c0,8.5,15.2,11.8,46.4,11.8C243.7,732.5,259,729.2,259,722.8z M172.8,685.9c0,5.6,4.7,6.8,69,12.5c8.2-2.9,10.6-5.3,10.6-9.4
			c0-7.4-16-10.8-39.7-10.8C188.8,678.2,172.8,680.2,172.8,685.9z"/>
		<path class="st7" d="M423.8,704l-54.2,43.3h-30.2l37.3-29.8c-5,0.4-10.4,0.5-16.1,0.5c-42.7,0-69.2-6.1-69.2-28.9
			c0-19.1,26.4-28.9,69.1-28.9c43.9,0,70.4,9.8,70.4,28.9C430.9,695,428.4,700,423.8,704z M360.6,700.1c31.1,0,46.3-3.2,46.3-10.9
			s-15.2-10.9-46.4-10.9c-29.9,0-45.1,3.2-45.1,10.9S330.6,700.1,360.6,700.1z"/>
		<path class="st7" d="M582.5,705.4c0,29.2-26.4,45.1-70.3,45.1c-43.9,0-70.4-16-70.4-45.1c0-29.2,26.5-45.1,70.4-45.1
			C556.1,660.2,582.5,676.2,582.5,705.4z M483.4,728l33.7-49.7c-1.6-0.1-3.2-0.1-4.9-0.1c-28.9,0-46.4,9.4-46.4,27.1
			C465.7,716,472.1,723.6,483.4,728z M558.5,705.4c0-10.7-6.2-18.2-17.5-22.7l-33.7,49.7c1.6,0.1,3.2,0.1,4.9,0.1
			C541,732.5,558.5,723.1,558.5,705.4z"/>
	</g>
</g>
<g id="Layer_5" class="st0">
</g>
<g id="Layer_5_copy_5" class="st0">
</g>
<g id="THIS" class="st0">
	<rect x="-7.3" y="-283.2" class="st1" width="813.1" height="1983.5"/>
	<text transform="matrix(1 0 0 1 -7.342 -187.1527)" class="st2"><tspan x="0" y="0" class="st9 st3 st10">ABCDE</tspan><tspan x="0" y="134" class="st9 st3 st10">FGHIJK</tspan><tspan x="0" y="268" class="st9 st3 st10">LMNOP</tspan><tspan x="0" y="402" class="st9 st3 st10">QRSTU</tspan><tspan x="0" y="536" class="st9 st3 st10">VW</tspan><tspan x="340.4" y="536" class="st9 st3 st10 st11">X</tspan><tspan x="473" y="536" class="st9 st3 st10">YZ</tspan><tspan x="0" y="670" class="st9 st3 st10">abcdefg</tspan><tspan x="0" y="804" class="st9 st3 st10">hjilklmno</tspan><tspan x="0" y="938" class="st9 st3 st10">pqrstuv</tspan><tspan x="0" y="1072" class="st9 st3 st10">wx</tspan><tspan x="260.4" y="1072" class="st9 st3 st10 st12">y</tspan><tspan x="372" y="1072" class="st9 st3 st10">z</tspan><tspan x="0" y="1206" class="st9 st3 st10">123456</tspan><tspan x="0" y="1340" class="st9 st3 st10">7890</tspan></text>
</g>
<g id="THIS_copy" class="st0">
</g>
<g id="expanded">
	<g>
		<path class="st7" d="M109.2,72.4H37.1l-10.2,15H0l57.1-84h32l57.1,84h-26.9L109.2,72.4z M97,54.4l-23.8-35l-23.9,35H97z"/>
		<path class="st7" d="M290,60.4c0,14.9-11.9,27-34.6,27H152.3v-84h103.2c21.2,0,31.8,8.5,31.8,24c0,5.9-2.8,11-7.6,14.8
			C286,46.2,290,52.2,290,60.4z M176.3,33.6h79.2c4.4,0,7.3-2.6,7.3-6.1c0-3.4-2.9-6.1-7.3-6.1h-79.2V33.6z M265.6,60.5
			c0-4.8-4.1-8.9-10.1-8.9h-79.2v17.8h79.2C261.5,69.4,265.6,65.5,265.6,60.5z"/>
		<path class="st7" d="M435.7,65.2c-9.7,16.3-32.3,25.6-64.4,25.6c-44.4,0-70.4-16.2-70.4-45.4c0-29.2,26-45.4,70.4-45.4
			c32,0,54.6,9.1,64.3,25.4l-22.7,7.3c-6.7-9.5-21.2-14.8-41.6-14.8c-28.9,0-46,9.6-46,27.4c0,17.8,17,27.4,46,27.4
			c20.6,0,35.3-5.4,41.9-15L435.7,65.2z"/>
		<path class="st7" d="M583.2,45.4c0,26.5-22.9,42-67.3,42h-69.4v-84h69.4C560.3,3.4,583.2,18.8,583.2,45.4z M558.7,45.4
			c0-15.1-14-24-42.8-24h-45.4v48h45.4C544.7,69.4,558.7,60.5,558.7,45.4z"/>
		<path class="st7" d="M619.2,21.4v13H715v18h-95.8v17h108.5v18H595.2v-84h132.5v18H619.2z"/>
		<path class="st7" d="M31.2,155.4v19.2H121v18H31.2v28.8h-24v-84h126.5v18H31.2z"/>
		<path class="st7" d="M279.1,170.8v11c0,26.6-25.1,42.6-69,42.6c-46.3,0-72.8-16-72.8-45.1c0-29.2,26.5-45.1,72.8-45.1
			c24.5,0,43.3,4.1,55.3,13.9l-16,14.9c-7.4-7.7-21-10.8-39.4-10.8c-30.8,0-48.4,9.4-48.4,27.1c0,17.8,17.5,27.1,48.4,27.1
			c24.1,0,39.4-6.6,43.7-17.6h-56.2v-18H279.1z"/>
		<path class="st7" d="M424.3,137.4v84h-24v-36.1h-84v36.1h-24v-84h24v29.9h84v-29.9H424.3z"/>
		<path class="st7" d="M462.7,137.4v84h-24v-84H462.7z"/>
		<path class="st7" d="M590.4,137.4l-0.1,42c0,29.2-25.3,45.1-67.9,45.1c-22.9,0-40.8-4.6-52.4-13.3l17-13.9
			c9.6,7.1,21.1,9.2,35.4,9.2c26.6,0,43.9-8.8,43.9-27.1l0.1-42H590.4z"/>
		<path class="st7" d="M706,221.4l-77.8-40.8v40.8h-24v-84h24v35.5l70.9-35.5h43.4l-79.4,39.2l84.1,44.8H706z"/>
		<path class="st7" d="M122.9,337.4v18H8.4v-84h24v66H122.9z"/>
		<path class="st7" d="M286,355.4h-24v-70.8L227,355.4h-37.9l-34.9-70.8v70.8h-24v-84h43.6l34.3,71.8l34.3-71.8H286V355.4z"/>
		<path class="st7" d="M433.8,271.4v84h-43.1l-68.6-72.8v72.8h-24v-84h43.1l68.6,72.8v-72.8H433.8z"/>
		<path class="st7" d="M445.8,313.4c0-29.2,27-45.1,70.9-45.1s70.8,16,70.8,45.1c0,29.2-26.9,45.1-70.8,45.1
			S445.8,342.5,445.8,313.4z M563,313.4c0-17.8-17.5-27.1-46.3-27.1c-28.9,0-46.4,9.4-46.4,27.1c0,17.8,17.5,27.1,46.4,27.1
			C545.5,340.5,563,331.1,563,313.4z"/>
		<path class="st7" d="M737,300.4c0,16-13.1,29-35.5,29h-78v25.9h-24v-84h102C724,271.4,737,284.4,737,300.4z M712.6,300.4
			c0-6.1-5-11-11-11h-78v22.1h78C707.5,311.4,712.6,306.4,712.6,300.4z"/>
		<path class="st7" d="M145.4,493.7l-21.2-9.8c-11.6,5.6-27.4,8.6-46.6,8.6c-44.4,0-70.4-16-70.4-45.1c0-29.2,26-45.1,70.4-45.1
			c44.4,0,70.3,16,70.3,45.1c0,9-2.5,16.8-7.2,23.2l12.8,6L145.4,493.7z M99.4,472.2l-18-8.4l8.2-17.2l29.9,13.9
			c2.6-3.7,4.1-8,4.1-13.2c0-17.8-17-27.1-45.8-27.1c-28.9,0-46,9.4-46,27.1c0,17.8,17,27.1,46,27.1
			C85.9,474.5,93.1,473.8,99.4,472.2z"/>
		<path class="st7" d="M301.7,489.4h-32.5L232,463.4h-46v25.9h-24v-84h102c23.2,0,35.5,13.1,35.5,29c0,16-12.4,29-35.5,29
			L301.7,489.4z M261.2,445.4c8.8,0,13.8-5,13.8-11c0-6.1-5-11-13.8-11H186v22.1H261.2z"/>
		<path class="st7" d="M421.8,466.4c0-5.4-6.5-8.2-40.8-11.5c-53.3-5.3-68.2-11.4-68.2-28.8c0-19.4,31.3-23.9,68.5-23.9
			c29.3,0,50.8,5.5,62.8,13.8L430.3,430c-8.2-4.7-30.5-9.7-49-9.7c-20.6,0-41.6,1.3-41.6,6.8c0,3.8,10,5.8,41.6,8.9
			c46.9,4.4,67.3,13.1,67.3,30.5c0,22.6-32.9,26-66.1,26c-26.9,0-61.1-5.4-73.1-15.2l15.2-14.4c11.2,7.3,32.6,11.6,57.8,11.6
			C405.7,474.5,421.8,472.6,421.8,466.4z"/>
		<path class="st7" d="M593.9,423.4h-60.1v66h-24v-66h-59.9v-18h144V423.4z"/>
		<path class="st7" d="M737.8,405.4l-0.1,42c0,29.9-25.3,45.1-67.9,45.1c-42.6,0-67.9-15.2-67.9-45.1l-0.1-42h24l0.1,42
			c0,18.5,18.7,27.1,43.9,27.1c25.2,0,43.9-8.6,43.9-27.1l0.1-42H737.8z"/>
		<path class="st7" d="M147.5,539.4l-57.1,84h-32l-57.1-84h26.9l46.3,68l46.2-68H147.5z"/>
		<path class="st7" d="M341.6,539.4l-31.9,84H271l-26.4-69.5l-26.4,69.5h-38.8l-31.9-84h25.3l26,71.3l27.1-71.3h37.2l27.1,71.3
			l26-71.3H341.6z"/>
		<path class="st7" d="M448.1,623.4l-37.7-29.9l-37.8,29.9h-32.2l54.4-42.2l-53.9-41.8h32.2l37.3,29.4l37.2-29.4h32.2L426,581.1
			l54.2,42.2H448.1z"/>
		<path class="st7" d="M554.9,588.9v34.4h-24v-34.4L473,539.4h31.4l38.4,33.1l38.4-33.1h31.4L554.9,588.9z"/>
		<path class="st7" d="M746.3,557.4l-90.5,48h90.5v18h-132v-18l90.5-48h-90.5v-18h132V557.4z"/>
		<path class="st7" d="M109.6,719v38.4H86.8l-1.2-7.2V750c-4,6.1-11.6,10.3-38.5,10.3c-26.2,0-41.6-5-41.6-20.6
			c0-16.4,18-20.8,47.3-20.8h32.9c0-6.4-11.6-6.8-29.5-6.8c-13.8,0-27.1,1.3-36.8,4.3l-5-16.7c11.8-3.6,25.3-5.5,44.5-5.5
			C92.6,694.2,109.6,700.6,109.6,719z M85.6,742.4v-9.1l-47.2-0.1c-5.4,0-8.5,2-8.5,4.7c0,2.6,3.1,4.6,8.5,4.6H85.6z"/>
		<path class="st7" d="M225.5,727.4c0,21.4-19,33.1-45.4,33.1c-14,0-25.8-3.8-34-10.1l-1.2,7h-22.8v-96h24v43
			c8.2-6.2,19.9-10.1,34-10.1C206.5,694.2,225.5,706,225.5,727.4z M201,727.4c0-8.8-10.4-15.1-27.2-15.1c-17.2,0-27.6,6.4-27.6,15.1
			s10.4,15.1,27.6,15.1C190.6,742.5,201,736.1,201,727.4z"/>
		<path class="st7" d="M289.2,742.5c15.2,0,25.1-4.7,29.4-8.6l17,14c-8.6,8.3-24.4,12.6-46.4,12.6c-34.7,0-54.1-11.8-54.1-33.1
			c0-21.4,19.4-33.1,54.1-33.1c22.1,0,37.6,4.4,46.2,12.7l-17,14c-3.8-3.8-13.9-8.8-29.2-8.8c-19.2,0-29.6,6.4-29.6,15.1
			S270,742.5,289.2,742.5z"/>
		<path class="st7" d="M443.8,661.4v96H421l-1.2-7c-8.2,6.2-19.9,10.1-34,10.1c-26.4,0-45.4-11.8-45.4-33.1
			c0-21.4,19-33.1,45.4-33.1c14,0,25.8,3.8,34,10.1v-43H443.8z M419.8,727.4c0-8.8-10.4-15.1-27.6-15.1c-16.8,0-27.2,6.4-27.2,15.1
			s10.4,15.1,27.2,15.1C409.3,742.5,419.8,736.1,419.8,727.4z"/>
		<path class="st7" d="M560.3,734.2h-78.7c3.8,6.2,15.7,8.3,29.6,8.3c16.2,0,30.2-2,35.2-4.3l9.6,13.9c-8.4,4.6-19.9,8.4-44.8,8.4
			c-35.5,0-55.4-11.8-55.4-33.1c0-21.4,19.4-33.1,52.8-33.1c36.6,0,51.7,11.8,51.7,35.2V734.2z M480.8,719.8h54.6
			c-2.8-5.8-12-7.6-26.9-7.6C493.6,712.2,483.4,714.2,480.8,719.8z"/>
		<path class="st7" d="M610.6,697.4H668v18h-57.5v42h-24v-42h-22.1v-18h22.1c0-27.4,15.2-39.1,41.6-39.1c29.6,0,39.8,16.6,39.8,33.1
			h-24.5c0-8.8-5.2-15.1-15.4-15.1C616.3,676.2,610.6,682.6,610.6,697.4z"/>
		<path class="st7" d="M773.8,695.3v68.4c0,24.2-19.4,36-51.6,36c-32.3,0-51.7-11.8-51.7-31.3h24c0,7,10.4,13.3,27.7,13.3
			c17.2,0,27.6-6.4,27.6-18v-13.3c-8.2,6.2-19.9,10.1-34,10.1c-26.4,0-45.4-11.8-45.4-33.1c0-21.4,19-33.1,45.4-33.1
			c14,0,25.8,3.8,34,10.1l1.2-9H773.8z M749.8,727.4c0-8.8-10.4-15.1-27.6-15.1c-16.8,0-27.2,6.4-27.2,15.1s10.4,15.1,27.2,15.1
			C739.3,742.5,749.8,736.1,749.8,727.4z"/>
		<path class="st7" d="M106.9,861.4v30h-24v-24c0-14.8-10.4-21.1-22.8-21.1c-17.3,0-27.7,6.4-27.7,21.1v24h-24v-96h24v45.1
			c5.9-6.7,16.6-12.2,35.6-12.2C91.7,828.2,106.9,840,106.9,861.4z"/>
		<path class="st7" d="M143.5,807.4v18h-24v-18H143.5z M119.5,831.4v96h24v-96H119.5z"/>
		<path class="st7" d="M181.9,807.4v18h-24v-18H181.9z M157.9,831.4v60h24v-60H157.9z"/>
		<path class="st7" d="M220.3,795.4v96h-24v-96H220.3z"/>
		<path class="st7" d="M291.6,858.7l52.1,32.6H306l-47.3-29.8v29.8h-24v-96h24v60.8l47.3-24.8h37.7L291.6,858.7z"/>
		<path class="st7" d="M373.7,795.4v96h-24v-96H373.7z"/>
		<path class="st7" d="M539.5,861.4v30h-24v-24c0-14.8-8.4-21.1-20.8-21.1c-10.7,0-19,6.4-19,21.1v24h-24v-24
			c0-14.8-8.4-21.1-20.8-21.1c-10.7,0-19,6.4-19,21.1v24h-24v-60h22.8l1.2,9.5v1.6c5.4-7.6,14.3-14.2,27.2-14.2
			c16.1,0,25,6,28.8,17.2c5.6-8.6,15.8-17.2,32.5-17.2C525.5,828.2,539.5,840,539.5,861.4z"/>
		<path class="st7" d="M651.2,861.4v30h-24v-24c0-14.8-10.4-21.1-22.8-21.1c-17.3,0-27.7,6.4-27.7,21.1v24h-24v-60h22.8l1.2,9.5
			c5.6-6.8,15.7-12.6,33.1-12.6C636,828.2,651.2,840,651.2,861.4z"/>
		<path class="st7" d="M661.4,861.4c0-21.4,19.4-33.1,52.9-33.1c33.4,0,52.8,11.8,52.8,33.1c0,21.4-19.4,33.1-52.8,33.1
			C680.9,894.5,661.4,882.7,661.4,861.4z M742.7,861.4c0-8.8-10.4-15.1-28.3-15.1c-18,0-28.4,6.4-28.4,15.1s10.4,15.1,28.4,15.1
			C732.2,876.5,742.7,870.1,742.7,861.4z"/>
		<path class="st7" d="M111.7,995.4c0,21.4-19,33.1-45.4,33.1c-14,0-25.8-3.8-34-10.1v43h-24v-96h22.8l1.2,7
			c8.2-6.2,19.9-10.1,34-10.1C92.8,962.2,111.7,974,111.7,995.4z M87.2,995.4c0-8.8-10.4-15.1-27.2-15.1c-17.2,0-27.6,6.4-27.6,15.1
			s10.4,15.1,27.6,15.1C76.8,1010.5,87.2,1004.1,87.2,995.4z"/>
		<path class="st7" d="M224.6,965.4v96h-24v-43c-8.2,6.2-19.9,10.1-34,10.1c-26.4,0-45.4-11.8-45.4-33.1c0-21.4,19-33.1,45.4-33.1
			c14,0,25.8,3.8,34,10.1l1.2-7H224.6z M200.6,995.4c0-8.8-10.4-15.1-27.6-15.1c-16.8,0-27.2,6.4-27.2,15.1s10.4,15.1,27.2,15.1
			C190.2,1010.5,200.6,1004.1,200.6,995.4z"/>
		<path class="st7" d="M330.7,982.5l-19.6,8c-3.5-6.6-10.4-10.4-23.3-10.4c-19.2,0-24.8,6.5-24.8,21.2v24h-24v-60h22.8l0.8,6.8
			c4.9-5.6,13.6-10,28.2-10C312.4,962.2,327.1,969.8,330.7,982.5z"/>
		<path class="st7" d="M433.4,968.7l-5,16.7c-9.7-2.9-26-5.2-39.8-5.2c-17.3,0-25,0.4-25,2s4.3,2.2,24.1,3.8
			c40.8,3.5,50.4,9,50.4,22.7c0,17.3-24.5,19.7-51.4,19.7c-25.8,0-44.2-5.2-53-9.4l7.7-16.4c7.4,3.5,27.1,7.8,46,7.8
			c16.3,0,23.9-0.2,23.9-2.6c0-2-5.8-2.8-23.2-4.4c-38.6-3.5-51.4-9-51.4-22.2c0-16.6,23.5-19,51.4-19
			C407.3,962.2,421.7,965.1,433.4,968.7z"/>
		<path class="st7" d="M530.9,983.4H498v42h-24v-42h-32.9v-18H474v-24h24v24h32.9V983.4z"/>
		<path class="st7" d="M634.8,965.4v60H612l-1.2-7.6c-5,6-13.6,10.7-27.7,10.7c-31.4,0-46.8-12.8-46.8-39.1v-24h24v24
			c0,14.8,10.4,21.1,25.3,21.1c14.8,0,25.2-6.4,25.2-21.1v-24H634.8z"/>
		<path class="st7" d="M757.2,965.4l-41.2,60H682l-41.2-60h27.5l30.7,46.1l30.7-46.1H757.2z"/>
		<path class="st7" d="M153.8,1099.4l-23,60H91.1l-14.2-38l-14.2,38H23l-23-60h24.7l18.1,46.1l17.6-46.1h32.9l17.6,46.1l18.1-46.1
			H153.8z"/>
		<path class="st7" d="M222.4,1129.4l40.4,30h-31.4l-24.2-18.4l-24.2,18.4h-31.4l40.4-30l-40.4-30h31.4l24.2,18.4l24.2-18.4h31.4
			L222.4,1129.4z"/>
		<path class="st7" d="M376.8,1099.4l-41.2,60l-27,40.8h-27.5l28.2-40.8h-7.8l-41.2-60h27.5l30.7,46.1l30.7-46.1H376.8z"/>
		<path class="st7" d="M476.4,1117.4l-55.2,24h55.2v18h-96v-18l55.2-24h-55.2v-18h96V1117.4z"/>
		<path class="st7" d="M54.5,1293.4h-24v-66H1.2v-18h53.3V1293.4z"/>
		<path class="st7" d="M92.2,1275.4h105.1v18H67.7v-18c0-17.4,22.1-24.8,64.9-33.7c28.9-6,40.3-6.8,40.3-11.5
			c0-4.3-18.4-5.9-40.3-5.9c-24.1,0-43.3,4.4-52.7,10L68,1218.4c10.7-6.7,39.1-12.1,64.6-12.1c40.3,0,64.8,4.4,64.8,23.9
			c0,17.4-15,21-63.6,30.4C101.8,1266.6,92.2,1270.4,92.2,1275.4z"/>
		<path class="st7" d="M346.4,1266.8c0,19.8-26.4,29.6-69,29.6c-38,0-59-8.4-72.2-17.4l15.7-13c7,5,23.3,12.4,56.5,12.4
			c27,0,44.5-4.2,44.5-12.4c0-7.1-17.5-11-46.4-11h-21.4v-8.5l43.8-19.2h-80.8v-18h120.7v18l-31.8,15
			C329.5,1242.5,346.4,1251.2,346.4,1266.8z"/>
		<path class="st7" d="M493.8,1273.1h-28.6v20.3h-24v-20.3h-88.8v-18l74.9-45.7h37.9v45.7h28.6V1273.1z M441.2,1255.1V1224
			l-50.9,31.1H441.2z"/>
		<path class="st7" d="M633.5,1267.1c0,21-20,29.4-70.3,29.4c-35.6,0-56.6-8.4-64.6-14.8l13.3-14c4.1,3.5,20.4,10.8,51.2,10.8
			c33.1,0,46.3-2.9,46.3-11.4c0-10.7-25.3-9.8-79.7-9.8h-24.2l4.9-47.9h111.2v18h-88.8l-1.3,12l38.3,0.2
			C615.4,1239.1,633.5,1246.9,633.5,1267.1z"/>
		<path class="st7" d="M782.6,1267c0,19.7-26.4,29.5-70.3,29.5s-70.4-9.8-70.4-36.1v-5.3c0-39,30.1-48.8,74-48.8
			c26.6,0,43.8,4.7,55,13.4l-18.2,11.3c-5.3-4.6-15.6-6.7-36.7-6.7c-28.4,0-46.7,2.8-49.7,19.2c11.8-3.5,27.2-6,46-6
			C756.1,1237.4,782.6,1247.3,782.6,1267z M758.6,1267c0-8.3-15.2-11.5-46.4-11.5c-31.1,0-46.3,3.2-46.3,11.5
			c0,8.3,15.2,11.5,46.4,11.5C743.4,1278.5,758.6,1275.2,758.6,1267z"/>
		<path class="st7" d="M135,1343.4v18l-64,66H41.4l64-66H1.2v-18H135z"/>
		<path class="st7" d="M280.5,1404c0,18.8-26.4,26.5-70.8,26.5c-44.4,0-70.9-9.8-70.9-26.5c0-9.7,7-15.8,20-19.4
			c-7.9-4.1-13.4-10.2-13.4-18.6c0-16.8,21-25.7,64.3-25.7c40.2,0,64.2,9.8,64.2,25.7c0,7.2-4.3,12.8-12.7,16.7
			C271.6,1386.2,280.5,1392.4,280.5,1404z M256,1404c0-6-10.4-7.9-75.6-13.6c-1.2-0.1-2.4-0.2-3.6-0.5c-9.1,2.4-13.6,5.6-13.6,10.8
			c0,8.5,15.2,11.8,46.4,11.8C240.8,1412.5,256,1410.4,256,1404z M169.9,1365.9c0,5.6,4.7,6.8,69.1,12.5l3.6,0.4
			c5.8-2.6,6.8-5.3,6.8-9.7c0-7.4-16-10.8-39.7-10.8C185.8,1358.2,169.9,1360.2,169.9,1365.9z"/>
		<path class="st7" d="M415.2,1384.9l-53.2,42.5h-30.2l37.3-29.8c-5.2,0.4-10.7,0.5-16.4,0.5c-43.2,0-69.7-6.1-69.7-28.9
			c0-19.1,26.4-28.9,69.6-28.9c44.4,0,70.9,9.8,70.9,28.9C423.4,1375.4,420.6,1380.7,415.2,1384.9z M352.6,1380.1
			c31.1,0,46.3-3.2,46.3-10.9s-15.2-10.9-46.4-10.9c-29.9,0-45.1,3.2-45.1,10.9S322.6,1380.1,352.6,1380.1z"/>
		<path class="st7" d="M571.6,1385.4c0,29.2-26.4,45.1-70.8,45.1s-70.9-16-70.9-45.1c0-29.2,26.5-45.1,70.9-45.1
			S571.6,1356.2,571.6,1385.4z M472,1408l33.7-49.7c-1.6-0.1-3.2-0.1-4.9-0.1c-28.9,0-46.4,9.4-46.4,27.1
			C454.3,1396,460.7,1403.6,472,1408z M547.1,1385.4c0-10.7-6.2-18.2-17.5-22.7l-33.7,49.7c1.6,0.1,3.2,0.1,4.9,0.1
			C529.6,1412.5,547.1,1403.1,547.1,1385.4z"/>
	</g>
</g>
<g id="expanded_2" class="st0">
</g>
<g id="Layer_5_copy_7" class="st0">
</g>
<g id="Layer_5_copy_4" class="st0">
</g>
<g id="Layer_5_copy" class="st0">
</g>
</svg>
