<?xml version="1.0" encoding="utf-8"?>
<!-- Generator: Adobe Illustrator 19.0.1, SVG Export Plug-In . SVG Version: 6.00 Build 0)  -->
<svg version="1.1" xmlns="http://www.w3.org/2000/svg" xmlns:xlink="http://www.w3.org/1999/xlink" x="0px" y="0px"
	 viewBox="0 0 1012.3 572.8" style="enable-background:new 0 0 1012.3 572.8;" xml:space="preserve">
<style type="text/css">
	.st0{display:none;}
	.st1{display:inline;fill:none;}
	.st2{display:inline;}
	.st3{font-family:'HNIRExtended-Regular';}
	.st4{font-size:72px;}
	.st5{font-size:60px;}
	.st6{display:inline;fill:#3372FF;}
	.st7{fill:#3372FF;}
	.st8{font-size:48px;}
	.st9{letter-spacing:-1;}
	.st10{letter-spacing:-3;}
	.st11{letter-spacing:-8;}
	.st12{letter-spacing:-5;}
</style>
<g id="Layer_1" class="st0">
	<rect x="26.1" y="96.4" class="st1" width="1174.9" height="874.1"/>
	<text transform="matrix(1 0 0 1 26.0688 157.6319)" class="st2"><tspan x="0" y="0" class="st3 st4">BREAKING WAVES </tspan><tspan x="0" y="86.4" class="st3 st4">WHEN I LOOK THIS </tspan><tspan x="0" y="172.8" class="st3 st4">SIDE MIND  </tspan><tspan x="0" y="259.2" class="st3 st4">CONTROL  </tspan><tspan x="0" y="345.6" class="st3 st4">MEMORIES I WANT </tspan><tspan x="0" y="432" class="st3 st4">YOU IT IS  </tspan><tspan x="0" y="518.4" class="st3 st4">HAPPENING AGAIN </tspan><tspan x="0" y="604.8" class="st3 st4">STANDING HIGH </tspan><tspan x="0" y="691.2" class="st3 st4">OWLS TIME WARP </tspan><tspan x="0" y="777.6" class="st3 st4">SONIC SOUL FEAR </tspan></text>
</g>
<g id="Layer_1_copy_2" class="st0">
	<rect x="26.1" y="96.4" class="st1" width="1244.9" height="1001.7"/>
	<text transform="matrix(1 0 0 1 26.0688 147.4322)" class="st2"><tspan x="0" y="0" class="st3 st5">WALKING MACHINE </tspan><tspan x="0" y="72" class="st3 st5">HUMAN AFTER ALL </tspan><tspan x="0" y="144" class="st3 st5">PARIS FOUR HUNDRED </tspan><tspan x="0" y="216" class="st3 st5">GET MYSELF INTO IT </tspan><tspan x="0" y="288" class="st3 st5">CAMERA WE DANCE  </tspan><tspan x="0" y="360" class="st3 st5">TOGETHER BOSSY </tspan><tspan x="0" y="432" class="st3 st5">CHEAP AND CHEERFUL  </tspan><tspan x="0" y="504" class="st3 st5">TESTAROSSA  </tspan><tspan x="0" y="576" class="st3 st5">AUTODRIVE TEXAS </tspan><tspan x="0" y="648" class="st3 st5">FOOL FOR LOVE I </tspan><tspan x="0" y="720" class="st3 st5">STILL REMEMBER </tspan><tspan x="0" y="792" class="st3 st5">SEXUAL SPORTSWEAR </tspan><tspan x="0" y="864" class="st3 st5">GOLDEN SKANS</tspan></text>
</g>
<g id="Layer_1_copy" class="st0">
	<rect x="33.1" y="63.4" class="st1" width="1128.9" height="1231.4"/>
	<text transform="matrix(1 0 0 1 33.0688 124.6319)" class="st2"><tspan x="0" y="0" class="st3 st4">LEAN ON ME </tspan><tspan x="0" y="86.4" class="st3 st4">VIBRATIONS </tspan><tspan x="0" y="172.8" class="st3 st4">FOLLOWED BY </tspan><tspan x="0" y="259.2" class="st3 st4">POISONED </tspan><tspan x="0" y="345.6" class="st3 st4">APPLES YOU </tspan><tspan x="0" y="432" class="st3 st4">TOO ALBATROS </tspan><tspan x="0" y="518.4" class="st3 st4">WAKE ME UP </tspan><tspan x="0" y="604.8" class="st3 st4">SIGMUND THE </tspan><tspan x="0" y="691.2" class="st3 st4">TALKING DRUMS </tspan><tspan x="0" y="777.6" class="st3 st4">MOTHER ANIMAL </tspan><tspan x="0" y="864" class="st3 st4">STYLE COMPUTE </tspan><tspan x="0" y="950.4" class="st3 st4">WHEN THE NIGHT</tspan></text>
</g>
<g id="Layer_1_copy_3" class="st0">
	<path class="st6" d="M73.7,74.4v10.8H5V34.8h14.4v39.6H73.7z"/>
	<path class="st6" d="M93.9,45.6v7.8h57.5v10.8H93.9v10.2H159v10.8H79.5V34.8H159v10.8H93.9z"/>
	<path class="st6" d="M231.8,76.2h-47.7l-6.1,9h-16.1l34.3-50.4h23.6L254,85.2h-16.1L231.8,76.2z M224.4,65.4l-16.5-24.3l-16.5,24.3
		H224.4z"/>
	<path class="st6" d="M340.5,34.8v50.4h-26.6L272,40.3v44.9h-14.4V34.8h26.6l41.8,44.9V34.8H340.5z"/>
	<path class="st6" d="M391.6,60c0-17.5,15.9-27.1,42.3-27.1c26.4,0,42.2,9.6,42.2,27.1S460.2,87,433.9,87
		C407.5,87,391.6,77.5,391.6,60z M461.7,60c0-10.7-10.5-16.3-27.8-16.3c-17.4,0-27.9,5.6-27.9,16.3s10.5,16.3,27.9,16.3
		C451.2,76.2,461.7,70.6,461.7,60z"/>
	<path class="st6" d="M566.9,34.8v50.4h-26.6l-41.8-44.9v44.9H484V34.8h26.6l41.8,44.9V34.8H566.9z"/>
	<path class="st6" d="M712.3,85.2h-14.4v-44l-21.7,44h-21.5l-21.7-44v44h-14.4V34.8h26.2l20.6,43.1l20.6-43.1h26.2V85.2z"/>
	<path class="st6" d="M735.3,45.6v7.8h57.5v10.8h-57.5v10.2h65.1v10.8h-79.5V34.8h79.5v10.8H735.3z"/>
	<path class="st6" d="M92.9,121.2l-34.3,50.4H35L0.7,121.2h16.1l30,44.1l30-44.1H92.9z"/>
	<path class="st6" d="M111.6,121.2v50.4H97.2v-50.4H111.6z"/>
	<path class="st6" d="M203,155.4c0,8.9-7.3,16.2-20.1,16.2h-62.6v-50.4h62.6c11.5,0,18,6.6,18,14.4c0,3.4-1.9,6.5-4.7,8.9
		C200,147.4,203,151.2,203,155.4z M134.6,139.3h48.2c1.9,0,3.7-1.6,3.7-3.7c0-2-1.7-3.7-3.7-3.7h-48.2V139.3z M188.2,155.4
		c0-2.9-2.4-5.3-5.3-5.3h-48.2v10.7h48.2C185.8,160.8,188.2,158.5,188.2,155.4z"/>
	<path class="st6" d="M294.8,171.6h-20.3L252.1,156h-26.8v15.6h-14.4v-50.4h61.2c13.9,0,21.7,7.8,21.7,17.4
		c0,9.6-7.8,17.4-21.7,17.4L294.8,171.6z M272.1,145.2c3.6,0,6.6-3,6.6-6.6c0-3.7-3-6.6-6.6-6.6h-46.8v13.2H272.1z"/>
	<path class="st6" d="M366,162.6h-47.7l-6.1,9h-16.1l34.3-50.4H354l34.3,50.4h-16.1L366,162.6z M358.6,151.8l-16.5-24.3l-16.5,24.3
		H358.6z"/>
	<path class="st6" d="M458.9,132h-36.1v39.6h-14.4V132h-35.9v-10.8h86.4V132z"/>
	<path class="st6" d="M477.6,121.2v50.4h-14.4v-50.4H477.6z"/>
	<path class="st6" d="M485.5,146.4c0-17.5,15.9-27.1,42.3-27.1c26.4,0,42.2,9.6,42.2,27.1s-15.8,27.1-42.2,27.1
		C501.5,173.4,485.5,163.9,485.5,146.4z M555.6,146.4c0-10.7-10.5-16.3-27.8-16.3c-17.4,0-27.9,5.6-27.9,16.3s10.5,16.3,27.9,16.3
		C545.1,162.6,555.6,157,555.6,146.4z"/>
	<path class="st6" d="M660.8,121.2v50.4h-26.6l-41.8-44.9v44.9h-14.4v-50.4h26.6l41.8,44.9v-44.9H660.8z"/>
	<path class="st6" d="M734.7,156.8c0-3-4.5-4.1-23.8-5.8c-33.6-2.9-41.1-7.3-41.1-16.8c0-11.9,17-14.9,40-14.9c12.9,0,30,3.5,36.4,8
		l-8.5,7.9c-5.5-2.8-15.8-5.1-27.9-5.1c-15.6,0-25.7,0.9-25.7,3.5c0,2.8,6,4.2,27.5,6c26.4,2.3,37.6,7.1,37.6,17.8
		c0,12.9-18.7,16-40.1,16c-13.6,0-33.8-3.2-41-9.1l9.1-8.6c6.7,4.4,19.3,7,31.9,7C724.4,162.6,734.7,160.8,734.7,156.8z"/>
	<path class="st6" d="M18.7,218.4v11.5h53.9v10.8H18.7V258H4.3v-50.4h75.9v10.8H18.7z"/>
	<path class="st6" d="M87,232.8c0-17.5,15.9-27.1,42.3-27.1c26.4,0,42.2,9.6,42.2,27.1s-15.8,27.1-42.2,27.1
		C103,259.8,87,250.3,87,232.8z M157.1,232.8c0-10.7-10.5-16.3-27.8-16.3c-17.4,0-27.9,5.6-27.9,16.3S112,249,129.3,249
		C146.6,249,157.1,243.4,157.1,232.8z"/>
	<path class="st6" d="M248.1,247.2V258h-68.7v-50.4h14.4v39.6H248.1z"/>
	<path class="st6" d="M322.6,247.2V258h-68.7v-50.4h14.4v39.6H322.6z"/>
	<path class="st6" d="M327.6,232.8c0-17.5,15.9-27.1,42.3-27.1c26.4,0,42.2,9.6,42.2,27.1s-15.8,27.1-42.2,27.1
		C343.5,259.8,327.6,250.3,327.6,232.8z M397.7,232.8c0-10.7-10.5-16.3-27.8-16.3c-17.4,0-27.9,5.6-27.9,16.3s10.5,16.3,27.9,16.3
		C387.1,249,397.7,243.4,397.7,232.8z"/>
	<path class="st6" d="M535.8,207.6L516.6,258h-24l-16.6-43.6L459.5,258h-24l-19.2-50.4h15.2l16,43.7l16.6-43.7h23.8l16.6,43.7
		l16-43.7H535.8z"/>
	<path class="st6" d="M555.2,218.4v7.8h57.5v10.8h-57.5v10.2h65.1V258h-79.5v-50.4h79.5v10.8H555.2z"/>
	<path class="st6" d="M709.9,232.8c0,15.9-13.8,25.2-40.1,25.2h-41.6v-50.4h41.6C696.2,207.6,709.9,216.8,709.9,232.8z M695.5,232.8
		c0-9.1-8.4-14.4-25.7-14.4h-27.2v28.8h27.2C687.1,247.2,695.5,241.8,695.5,232.8z"/>
	<path class="st6" d="M844.1,241.8c0,8.9-7.3,16.2-20.1,16.2h-62.6v-50.4H824c11.5,0,18,6.6,18,14.4c0,3.4-1.9,6.5-4.7,8.9
		C841.2,233.8,844.1,237.6,844.1,241.8z M775.8,225.7H824c1.9,0,3.7-1.6,3.7-3.7c0-2-1.7-3.7-3.7-3.7h-48.2V225.7z M829.4,241.8
		c0-2.9-2.4-5.3-5.3-5.3h-48.2v10.7H824C826.9,247.2,829.4,244.9,829.4,241.8z"/>
	<path class="st6" d="M896.8,234.8V258h-14.4v-23.2l-34.7-27.2h19.6l22.3,17.5l22.3-17.5h19.6L896.8,234.8z"/>
	<path class="st6" d="M88,311.4c0,9.6-7.8,17.4-21.7,17.4H19.4v15.6H5V294h61.2C80.1,294,88,301.8,88,311.4z M72.9,311.4
		c0-3.7-3-6.6-6.6-6.6H19.4V318h46.8C69.8,318,72.9,315,72.9,311.4z"/>
	<path class="st6" d="M93.7,319.2c0-17.5,15.9-27.1,42.3-27.1c26.4,0,42.2,9.6,42.2,27.1s-15.8,27.1-42.2,27.1
		C109.7,346.2,93.7,336.7,93.7,319.2z M163.8,319.2c0-10.7-10.5-16.3-27.8-16.3c-17.4,0-27.9,5.6-27.9,16.3s10.5,16.3,27.9,16.3
		C153.3,335.4,163.8,329.8,163.8,319.2z"/>
	<path class="st6" d="M200.5,294v50.4h-14.4V294H200.5z"/>
	<path class="st6" d="M274.4,329.6c0-3-4.5-4.1-23.8-5.8c-33.6-2.9-41.1-7.3-41.1-16.8c0-11.9,17-14.9,40-14.9c12.9,0,30,3.5,36.4,8
		l-8.5,7.9c-5.5-2.8-15.8-5.1-27.9-5.1c-15.6,0-25.7,0.9-25.7,3.5c0,2.8,6,4.2,27.5,6c26.4,2.3,37.6,7.1,37.6,17.8
		c0,12.9-18.7,16-40.1,16c-13.6,0-33.8-3.2-41-9.1l9.1-8.6c6.7,4.4,19.3,7,31.9,7C264.1,335.4,274.4,333.6,274.4,329.6z"/>
	<path class="st6" d="M295.3,319.2c0-17.5,15.9-27.1,42.3-27.1c26.4,0,42.2,9.6,42.2,27.1s-15.8,27.1-42.2,27.1
		C311.3,346.2,295.3,336.7,295.3,319.2z M365.4,319.2c0-10.7-10.5-16.3-27.8-16.3c-17.4,0-27.9,5.6-27.9,16.3s10.5,16.3,27.9,16.3
		C354.9,335.4,365.4,329.8,365.4,319.2z"/>
	<path class="st6" d="M470.6,294v50.4H444l-41.8-44.9v44.9h-14.4V294h26.6l41.8,44.9V294H470.6z"/>
	<path class="st6" d="M493.6,304.8v7.8h57.5v10.8h-57.5v10.2h65.1v10.8h-79.5V294h79.5v10.8H493.6z"/>
	<path class="st6" d="M648.4,319.2c0,15.9-13.8,25.2-40.1,25.2h-41.6V294h41.6C634.6,294,648.4,303.2,648.4,319.2z M634,319.2
		c0-9.1-8.4-14.4-25.7-14.4H581v28.8h27.2C625.5,333.6,634,328.2,634,319.2z"/>
	<path class="st6" d="M69.9,421.8H22.2l-6.1,9H0l34.3-50.4h23.6l34.3,50.4H76L69.9,421.8z M62.6,411l-16.5-24.3L29.6,411H62.6z"/>
	<path class="st6" d="M178.7,397.8c0,9.6-7.8,17.4-21.7,17.4h-46.8v15.6H95.8v-50.4H157C170.9,380.4,178.7,388.2,178.7,397.8z
		 M163.6,397.8c0-3.7-3-6.6-6.6-6.6h-46.8v13.2H157C160.6,404.4,163.6,401.4,163.6,397.8z"/>
	<path class="st6" d="M268.1,397.8c0,9.6-7.8,17.4-21.7,17.4h-46.8v15.6h-14.4v-50.4h61.2C260.3,380.4,268.1,388.2,268.1,397.8z
		 M253,397.8c0-3.7-3-6.6-6.6-6.6h-46.8v13.2h46.8C250,404.4,253,401.4,253,397.8z"/>
	<path class="st6" d="M343.3,420v10.8h-68.7v-50.4H289V420H343.3z"/>
	<path class="st6" d="M363.5,391.2v7.8h57.5v10.8h-57.5V420h65.1v10.8h-79.5v-50.4h79.5v10.8H363.5z"/>
	<path class="st6" d="M501.7,416c0-3-4.5-4.1-23.8-5.8c-33.6-2.9-41.1-7.3-41.1-16.8c0-11.9,17-14.9,40-14.9c12.9,0,30,3.5,36.4,8
		l-8.5,7.9c-5.5-2.8-15.8-5.1-27.9-5.1c-15.6,0-25.7,0.9-25.7,3.5c0,2.8,6,4.2,27.5,6c26.4,2.3,37.6,7.1,37.6,17.8
		c0,12.9-18.7,16-40.1,16c-13.6,0-33.8-3.2-41-9.1l9.1-8.6c6.7,4.4,19.3,7,31.9,7C491.4,421.8,501.7,420,501.7,416z"/>
	<path class="st6" d="M611.4,407.6v23.2H597v-23.2l-34.7-27.2h19.6l22.3,17.5l22.3-17.5h19.6L611.4,407.6z"/>
	<path class="st6" d="M641.7,405.6c0-17.5,15.9-27.1,42.3-27.1s42.2,9.6,42.2,27.1s-15.8,27.1-42.2,27.1S641.7,423.1,641.7,405.6z
		 M711.8,405.6c0-10.7-10.5-16.3-27.8-16.3c-17.4,0-27.9,5.6-27.9,16.3s10.5,16.3,27.9,16.3C701.3,421.8,711.8,416.2,711.8,405.6z"
		/>
	<path class="st6" d="M815.4,380.4l-0.1,25.2c0,17.5-15.2,27.1-40.8,27.1c-25.6,0-40.8-9.6-40.8-27.1l-0.1-25.2h14.4l0.1,25.2
		c0,10.7,9.6,16.3,26.4,16.3c16.7,0,26.4-5.6,26.4-16.3l0.1-25.2H815.4z"/>
	<path class="st6" d="M87.1,477.6H51.1v39.6H36.7v-39.6H0.7v-10.8h86.4V477.6z"/>
	<path class="st6" d="M90.7,492c0-17.5,15.9-27.1,42.3-27.1c26.4,0,42.2,9.6,42.2,27.1c0,17.5-15.8,27.1-42.2,27.1
		C106.6,519,90.7,509.5,90.7,492z M160.8,492c0-10.7-10.5-16.3-27.8-16.3c-17.4,0-27.9,5.6-27.9,16.3c0,10.7,10.5,16.3,27.9,16.3
		C150.3,508.2,160.8,502.6,160.8,492z"/>
	<path class="st6" d="M182.4,492c0-17.5,15.9-27.1,42.3-27.1c26.4,0,42.2,9.6,42.2,27.1c0,17.5-15.8,27.1-42.2,27.1
		C198.3,519,182.4,509.5,182.4,492z M252.4,492c0-10.7-10.5-16.3-27.8-16.3c-17.4,0-27.9,5.6-27.9,16.3c0,10.7,10.5,16.3,27.9,16.3
		C241.9,508.2,252.4,502.6,252.4,492z"/>
	<path class="st6" d="M382.8,508.2h-47.7l-6.1,9h-16.1l34.3-50.4h23.6l34.3,50.4h-16.1L382.8,508.2z M375.5,497.4L359,473.1
		l-16.5,24.3H375.5z"/>
	<path class="st6" d="M477.4,506.4v10.8h-68.7v-50.4h14.4v39.6H477.4z"/>
	<path class="st6" d="M565.9,501c0,8.9-7.3,16.2-20.1,16.2h-62.6v-50.4h62.6c11.5,0,18,6.6,18,14.4c0,3.4-1.9,6.5-4.7,8.9
		C562.9,493,565.9,496.8,565.9,501z M497.5,484.9h48.2c1.9,0,3.7-1.6,3.7-3.7c0-2-1.7-3.7-3.7-3.7h-48.2V484.9z M551.1,501
		c0-2.9-2.4-5.3-5.3-5.3h-48.2v10.7h48.2C548.6,506.4,551.1,504.1,551.1,501z"/>
	<path class="st6" d="M638.6,508.2H591l-6.1,9h-16.1l34.3-50.4h23.6l34.3,50.4h-16.1L638.6,508.2z M631.3,497.4l-16.5-24.3
		l-16.5,24.3H631.3z"/>
	<path class="st6" d="M731.6,477.6h-36.1v39.6h-14.4v-39.6h-35.9v-10.8h86.4V477.6z"/>
	<path class="st6" d="M819.8,517.2h-20.3l-22.5-15.6h-26.8v15.6h-14.4v-50.4h61.2c13.9,0,21.7,7.8,21.7,17.4
		c0,9.6-7.8,17.4-21.7,17.4L819.8,517.2z M797.1,490.8c3.6,0,6.6-3,6.6-6.6c0-3.7-3-6.6-6.6-6.6h-46.8v13.2H797.1z"/>
	<path class="st6" d="M827.4,492c0-17.5,15.9-27.1,42.3-27.1s42.2,9.6,42.2,27.1c0,17.5-15.8,27.1-42.2,27.1S827.4,509.5,827.4,492z
		 M897.4,492c0-10.7-10.5-16.3-27.8-16.3c-17.4,0-27.9,5.6-27.9,16.3c0,10.7,10.5,16.3,27.9,16.3C886.9,508.2,897.4,502.6,897.4,492
		z"/>
	<path class="st6" d="M985,502.4c0-3-4.5-4.1-23.8-5.8c-33.6-2.9-41.1-7.3-41.1-16.8c0-11.9,17-14.9,40-14.9c12.9,0,30,3.5,36.4,8
		l-8.5,7.9c-5.5-2.8-15.8-5.1-27.9-5.1c-15.6,0-25.7,0.9-25.7,3.5c0,2.8,6,4.2,27.5,6c26.4,2.3,37.6,7.1,37.6,17.8
		c0,12.9-18.7,16-40.1,16c-13.6,0-33.8-3.2-41-9.1l9.1-8.6c6.7,4.4,19.3,7,31.9,7C974.7,508.2,985,506.4,985,502.4z"/>
	<path class="st6" d="M120.8,553.2l-19.2,50.4h-24L61.1,560l-16.6,43.6h-24L1.4,553.2h15.2l16,43.7l16.6-43.7H73l16.6,43.7l16-43.7
		H120.8z"/>
	<path class="st6" d="M190.7,594.6h-47.7l-6.1,9h-16.1l34.3-50.4h23.6l34.3,50.4h-16.1L190.7,594.6z M183.4,583.8l-16.5-24.3
		l-16.5,24.3H183.4z"/>
	<path class="st6" d="M273.6,603.6l-42.6-26v26h-14.4v-50.4H231v22.8l39.8-22.8H293l-41.9,23.5l44.7,26.9H273.6z"/>
	<path class="st6" d="M315.3,564v7.8h57.5v10.8h-57.5v10.2h65.1v10.8h-79.5v-50.4h79.5V564H315.3z"/>
	<path class="st6" d="M525.1,603.6h-14.4v-44l-21.7,44h-21.5l-21.7-44v44h-14.4v-50.4h26.2l20.6,43.1l20.6-43.1h26.2V603.6z"/>
	<path class="st6" d="M548.1,564v7.8h57.5v10.8h-57.5v10.2h65.1v10.8h-79.5v-50.4h79.5V564H548.1z"/>
	<path class="st6" d="M745.6,553.2l-0.1,25.2c0,17.5-15.2,27.1-40.8,27.1c-25.6,0-40.8-9.6-40.8-27.1l-0.1-25.2h14.4l0.1,25.2
		c0,10.7,9.6,16.3,26.4,16.3c16.7,0,26.4-5.6,26.4-16.3l0.1-25.2H745.6z"/>
	<path class="st6" d="M836.9,570.6c0,9.6-7.8,17.4-21.7,17.4h-46.8v15.6h-14.4v-50.4h61.2C829,553.2,836.9,561,836.9,570.6z
		 M821.7,570.6c0-3.7-3-6.6-6.6-6.6h-46.8v13.2h46.8C818.7,577.2,821.7,574.2,821.7,570.6z"/>
</g>
<g id="Layer_5" class="st0">
	<rect x="15" y="56.9" class="st1" width="1032.1" height="622.6"/>
	<text transform="matrix(1 0 0 1 15.0012 97.6827)" class="st2"><tspan x="0" y="0" class="st7 st3 st8">SHIP IS F</tspan><tspan x="375.6" y="0" class="st7 st3 st8 st9">L</tspan><tspan x="423.8" y="0" class="st7 st3 st8">OODING </tspan><tspan x="0" y="57.6" class="st7 st3 st8">WINTER LINN UNFURLA </tspan><tspan x="0" y="115.2" class="st7 st3 st8">STREN</tspan><tspan x="295.6" y="115.2" class="st7 st3 st8 st9">G</tspan><tspan x="354.2" y="115.2" class="st7 st3 st8">TH TH</tspan><tspan x="613.4" y="115.2" class="st7 st3 st8">R</tspan><tspan x="673.2" y="115.2" class="st7 st3 st8">OUGH </tspan><tspan x="0" y="172.8" class="st7 st3 st8">FRAGILITY SODIUM </tspan><tspan x="0" y="230.4" class="st7 st3 st8">TRIMME</tspan><tspan x="327.8" y="230.4" class="st7 st3 st8">R</tspan><tspan x="387.6" y="230.4" class="st7 st3 st8">S </tspan><tspan x="474.4" y="230.4" class="st7 st3 st8">B</tspan><tspan x="533.6" y="230.4" class="st7 st3 st8">ANJO </tspan><tspan x="0" y="288" class="st7 st3 st8">SNOWBIRD THE GRIT IN </tspan><tspan x="0" y="345.6" class="st7 st3 st8">THE PEARL BE</tspan><tspan x="638.8" y="345.6" class="st7 st3 st8 st10">A</tspan><tspan x="695.4" y="345.6" class="st7 st3 st8">CON </tspan><tspan x="0" y="403.2" class="st7 st3 st8">P</tspan><tspan x="58.7" y="403.2" class="st7 st3 st8">ETROLEUM TINGED </tspan><tspan x="0" y="460.8" class="st7 st3 st8">SI</tspan><tspan x="72.8" y="460.8" class="st7 st3 st8 st11">L</tspan><tspan x="114.3" y="460.8" class="st7 st3 st8">VERED IRIS THERE IS </tspan><tspan x="0" y="518.4" class="st7 st3 st8">A DIS</tspan><tspan x="222.1" y="518.4" class="st7 st3 st8 st12">T</tspan><tspan x="273.9" y="518.4" class="st7 st3 st8">ANCE IN </tspan><tspan x="644.8" y="518.4" class="st7 st3 st8 st10">Y</tspan><tspan x="696.9" y="518.4" class="st7 st3 st8">OU</tspan></text>
</g>
<g id="Layer_5_copy">
	<g>
		<path class="st7" d="M47.3,43.2c0-2-3-2.7-15.9-3.8C9,37.5,4,34.5,4,28.2c0-7.9,11.3-9.9,26.7-9.9c8.6,0,20,2.4,24.2,5.3l-5.7,5.3
			c-3.6-1.9-10.5-3.4-18.6-3.4c-10.4,0-17.1,0.6-17.1,2.4c0,1.9,4,2.8,18.3,4C49.5,33.3,57,36.6,57,43.7c0,8.6-12.5,10.7-26.7,10.7
			c-9.1,0-22.6-2.2-27.4-6.1L9,42.5c4.5,2.9,12.9,4.7,21.3,4.7C40.5,47.1,47.3,45.9,47.3,43.2z"/>
		<path class="st7" d="M114.1,19.5v33.6h-9.6V38.6H70.9v14.4h-9.6V19.5h9.6v12h33.6v-12H114.1z"/>
		<path class="st7" d="M129,19.5v33.6h-9.6V19.5H129z"/>
		<path class="st7" d="M189.6,31.1c0,6.4-5.2,11.6-14.5,11.6h-31.2v10.4h-9.6V19.5h40.8C184.3,19.5,189.6,24.7,189.6,31.1z
			 M179.5,31.1c0-2.4-2-4.4-4.4-4.4h-31.2v8.8h31.2C177.5,35.5,179.5,33.5,179.5,31.1z"/>
		<path class="st7" d="M232.3,19.5v33.6h-9.6V19.5H232.3z"/>
		<path class="st7" d="M281,43.2c0-2-3-2.7-15.9-3.8c-22.4-1.9-27.4-4.8-27.4-11.2c0-7.9,11.3-9.9,26.7-9.9c8.6,0,20,2.4,24.2,5.3
			l-5.7,5.3c-3.6-1.9-10.5-3.4-18.6-3.4c-10.4,0-17.1,0.6-17.1,2.4c0,1.9,4,2.8,18.3,4c17.6,1.5,25.1,4.8,25.1,11.9
			c0,8.6-12.5,10.7-26.7,10.7c-9.1,0-22.6-2.2-27.4-6.1l6.1-5.8c4.5,2.9,12.9,4.7,21.3,4.7C274.2,47.1,281,45.9,281,43.2z"/>
		<path class="st7" d="M333.4,26.7v7.7h35.9v7.2h-35.9v11.5h-9.6V19.5h50.6v7.2H333.4z"/>
		<path class="st7" d="M425.2,45.9v7.2h-45.8V19.5h9.6v26.4H425.2z"/>
		<path class="st7" d="M427.1,36.3c0-11.7,10.6-18,28.2-18s28.1,6.4,28.1,18s-10.6,18-28.1,18S427.1,47.9,427.1,36.3z M473.9,36.3
			c0-7.1-7-10.8-18.5-10.8c-11.6,0-18.6,3.7-18.6,10.8c0,7.1,7,10.8,18.6,10.8C466.8,47.1,473.9,43.4,473.9,36.3z"/>
		<path class="st7" d="M487.3,36.3c0-11.7,10.6-18,28.2-18s28.1,6.4,28.1,18s-10.6,18-28.1,18S487.3,47.9,487.3,36.3z M534,36.3
			c0-7.1-7-10.8-18.5-10.8c-11.6,0-18.6,3.7-18.6,10.8c0,7.1,7,10.8,18.6,10.8C527,47.1,534,43.4,534,36.3z"/>
		<path class="st7" d="M603.4,36.3c0,10.6-9.2,16.8-26.7,16.8h-27.7V19.5h27.7C594.2,19.5,603.4,25.7,603.4,36.3z M593.8,36.3
			c0-6-5.6-9.6-17.1-9.6h-18.1v19.2h18.1C588.1,45.9,593.8,42.3,593.8,36.3z"/>
		<path class="st7" d="M618.5,19.5v33.6h-9.6V19.5H618.5z"/>
		<path class="st7" d="M679,19.5v33.6h-17.8l-27.9-29.9v29.9h-9.6V19.5h17.8l27.9,29.9V19.5H679z"/>
		<path class="st7" d="M740.1,32.9v4.4c0,10.7-10,17-27.6,17c-17.6,0-28.2-6.4-28.2-18s10.6-18,28.2-18c9.8,0,17.3,1.6,22.1,5.6
			l-6.4,6c-3-3.1-8.4-4.3-15.7-4.3c-11.6,0-18.6,3.7-18.6,10.8c0,7.1,7,10.8,18.6,10.8c9.6,0,15.7-2.6,17.5-7.1h-22.5v-7.2H740.1z"
			/>
		<path class="st7" d="M79.6,77.1l-12.8,33.6h-16l-11-29l-11,29h-16L0,77.1h10.1l10.7,29.1l11.1-29.1h15.8l11.1,29.1l10.7-29.1H79.6
			z"/>
		<path class="st7" d="M91.1,77.1v33.6h-9.6V77.1H91.1z"/>
		<path class="st7" d="M151.6,77.1v33.6h-17.8L106,80.8v29.9h-9.6V77.1h17.8L142,107V77.1H151.6z"/>
		<path class="st7" d="M212.1,84.3h-24.1v26.4h-9.6V84.3h-24v-7.2h57.6V84.3z"/>
		<path class="st7" d="M224.6,84.3v5.2h38.3v7.2h-38.3v6.8H268v7.2h-53V77.1h53v7.2H224.6z"/>
		<path class="st7" d="M329.2,110.7h-13.5l-15-10.4h-17.9v10.4h-9.6V77.1h40.8c9.3,0,14.5,5.2,14.5,11.6c0,6.4-5.2,11.6-14.5,11.6
			L329.2,110.7z M314.1,93.1c2.4,0,4.4-2,4.4-4.4c0-2.4-2-4.4-4.4-4.4h-31.2v8.8H314.1z"/>
		<path class="st7" d="M408.6,103.5v7.2h-45.8V77.1h9.6v26.4H408.6z"/>
		<path class="st7" d="M422.5,77.1v33.6h-9.6V77.1H422.5z"/>
		<path class="st7" d="M483.1,77.1v33.6h-17.8l-27.9-29.9v29.9h-9.6V77.1h17.8l27.9,29.9V77.1H483.1z"/>
		<path class="st7" d="M544.1,77.1v33.6h-17.8l-27.9-29.9v29.9h-9.6V77.1h17.8l27.9,29.9V77.1H544.1z"/>
		<path class="st7" d="M632.8,77.1l0,16.8c0,11.7-10.1,18-27.2,18s-27.2-6.4-27.2-18l0-16.8h9.6l0,16.8c0,7.1,6.4,10.8,17.6,10.8
			c11.1,0,17.6-3.7,17.6-10.8l0-16.8H632.8z"/>
		<path class="st7" d="M693.6,77.1v33.6h-17.8l-27.9-29.9v29.9h-9.6V77.1h17.8L684,107V77.1H693.6z"/>
		<path class="st7" d="M708.5,84.3v7.7h35.9v7.2h-35.9v11.5h-9.6V77.1h50.6v7.2H708.5z"/>
		<path class="st7" d="M808.7,77.1l0,16.8c0,11.7-10.1,18-27.2,18c-17,0-27.2-6.4-27.2-18l0-16.8h9.6l0,16.8
			c0,7.1,6.4,10.8,17.6,10.8s17.6-3.7,17.6-10.8l0-16.8H808.7z"/>
		<path class="st7" d="M870.2,110.7h-13.5l-15-10.4h-17.9v10.4h-9.6V77.1H855c9.3,0,14.5,5.2,14.5,11.6c0,6.4-5.2,11.6-14.5,11.6
			L870.2,110.7z M855,93.1c2.4,0,4.4-2,4.4-4.4c0-2.4-2-4.4-4.4-4.4h-31.2v8.8H855z"/>
		<path class="st7" d="M920.8,103.5v7.2H875V77.1h9.6v26.4H920.8z"/>
		<path class="st7" d="M969.3,104.7h-31.8l-4.1,6h-10.8l22.9-33.6h15.7l22.8,33.6h-10.8L969.3,104.7z M964.4,97.5l-11-16.2l-11,16.2
			H964.4z"/>
		<path class="st7" d="M47.3,158.4c0-2-3-2.7-15.9-3.8C9,152.7,4,149.7,4,143.4c0-7.9,11.3-9.9,26.7-9.9c8.6,0,20,2.4,24.2,5.3
			l-5.7,5.3c-3.6-1.9-10.5-3.4-18.6-3.4c-10.4,0-17.1,0.6-17.1,2.4c0,1.9,4,2.8,18.3,4c17.6,1.5,25.1,4.8,25.1,11.9
			c0,8.6-12.5,10.7-26.7,10.7c-9.1,0-22.6-2.2-27.4-6.1l6.1-5.8c4.5,2.9,12.9,4.7,21.3,4.7C40.5,162.3,47.3,161.1,47.3,158.4z"/>
		<path class="st7" d="M115.5,141.9H91.5v26.4h-9.6v-26.4h-24v-7.2h57.6V141.9z"/>
		<path class="st7" d="M174.4,168.3h-13.5l-15-10.4H128v10.4h-9.6v-33.6h40.8c9.3,0,14.5,5.2,14.5,11.6c0,6.4-5.2,11.6-14.5,11.6
			L174.4,168.3z M159.2,150.7c2.4,0,4.4-2,4.4-4.4c0-2.4-2-4.4-4.4-4.4H128v8.8H159.2z"/>
		<path class="st7" d="M188.8,141.9v5.2h38.3v7.2h-38.3v6.8h43.4v7.2h-53v-33.6h53v7.2H188.8z"/>
		<path class="st7" d="M292.7,134.7v33.6h-17.8l-27.9-29.9v29.9h-9.6v-33.6h17.8l27.9,29.9v-29.9H292.7z"/>
		<path class="st7" d="M353.8,148.1v4.4c0,10.7-10,17-27.6,17s-28.2-6.4-28.2-18s10.6-18,28.2-18c9.8,0,17.3,1.6,22.1,5.6l-6.4,6
			c-3-3.1-8.4-4.3-15.7-4.3c-11.6,0-18.6,3.7-18.6,10.8c0,7.1,7,10.8,18.6,10.8c9.6,0,15.7-2.6,17.5-7.1h-22.5v-7.2H353.8z"/>
		<path class="st7" d="M411.8,141.9h-24.1v26.4h-9.6v-26.4h-24v-7.2h57.6V141.9z"/>
		<path class="st7" d="M467,134.7v33.6h-9.6v-14.4h-33.6v14.4h-9.6v-33.6h9.6v12h33.6v-12H467z"/>
		<path class="st7" d="M555.8,141.9h-24.1v26.4h-9.6v-26.4h-24v-7.2h57.6V141.9z"/>
		<path class="st7" d="M611,134.7v33.6h-9.6v-14.4h-33.6v14.4h-9.6v-33.6h9.6v12h33.6v-12H611z"/>
		<path class="st7" d="M672.3,168.3h-13.5l-15-10.4h-17.9v10.4h-9.6v-33.6h40.8c9.3,0,14.5,5.2,14.5,11.6c0,6.4-5.2,11.6-14.5,11.6
			L672.3,168.3z M657.1,150.7c2.4,0,4.4-2,4.4-4.4c0-2.4-2-4.4-4.4-4.4h-31.2v8.8H657.1z"/>
		<path class="st7" d="M675.6,151.5c0-11.7,10.6-18,28.2-18s28.1,6.4,28.1,18s-10.6,18-28.1,18S675.6,163.1,675.6,151.5z
			 M722.4,151.5c0-7.1-7-10.8-18.5-10.8c-11.6,0-18.6,3.7-18.6,10.8c0,7.1,7,10.8,18.6,10.8C715.3,162.3,722.4,158.6,722.4,151.5z"
			/>
		<path class="st7" d="M791.4,134.7l0,16.8c0,11.7-10.1,18-27.2,18c-17,0-27.2-6.4-27.2-18l0-16.8h9.6l0,16.8
			c0,7.1,6.4,10.8,17.6,10.8s17.6-3.7,17.6-10.8l0-16.8H791.4z"/>
		<path class="st7" d="M852.2,148.1v4.4c0,10.7-10,17-27.6,17c-17.6,0-28.2-6.4-28.2-18s10.6-18,28.2-18c9.8,0,17.3,1.6,22.1,5.6
			l-6.4,6c-3-3.1-8.4-4.3-15.7-4.3c-11.6,0-18.6,3.7-18.6,10.8c0,7.1,7,10.8,18.6,10.8c9.6,0,15.7-2.6,17.5-7.1h-22.5v-7.2H852.2z"
			/>
		<path class="st7" d="M909.8,134.7v33.6h-9.6v-14.4h-33.6v14.4H857v-33.6h9.6v12h33.6v-12H909.8z"/>
		<path class="st7" d="M13,199.5v7.7h35.9v7.2H13v11.5H3.4v-33.6H54v7.2H13z"/>
		<path class="st7" d="M115,225.9h-13.5l-15-10.4H68.6v10.4H59v-33.6h40.8c9.3,0,14.5,5.2,14.5,11.6c0,6.4-5.2,11.6-14.5,11.6
			L115,225.9z M99.8,208.3c2.4,0,4.4-2,4.4-4.4c0-2.4-2-4.4-4.4-4.4H68.6v8.8H99.8z"/>
		<path class="st7" d="M161.6,219.9h-31.8l-4.1,6H115l22.9-33.6h15.7l22.9,33.6h-10.8L161.6,219.9z M156.7,212.7l-11-16.2l-11,16.2
			H156.7z"/>
		<path class="st7" d="M229.8,205.7v4.4c0,10.7-10,17-27.6,17s-28.2-6.4-28.2-18s10.6-18,28.2-18c9.8,0,17.3,1.6,22.1,5.6l-6.4,6
			c-3-3.1-8.4-4.3-15.7-4.3c-11.6,0-18.6,3.7-18.6,10.8c0,7.1,7,10.8,18.6,10.8c9.6,0,15.7-2.6,17.5-7.1h-22.5v-7.2H229.8z"/>
		<path class="st7" d="M244.7,192.3v33.6h-9.6v-33.6H244.7z"/>
		<path class="st7" d="M295.7,218.7v7.2h-45.8v-33.6h9.6v26.4H295.7z"/>
		<path class="st7" d="M309.6,192.3v33.6H300v-33.6H309.6z"/>
		<path class="st7" d="M369.7,199.5h-24.1v26.4H336v-26.4h-24v-7.2h57.6V199.5z"/>
		<path class="st7" d="M402.4,210.4v15.5h-9.6v-15.5l-23.1-18.1h13.1l14.9,11.7l14.9-11.7h13.1L402.4,210.4z"/>
		<path class="st7" d="M500.7,216c0-2-3-2.7-15.9-3.8c-22.4-1.9-27.4-4.8-27.4-11.2c0-7.9,11.3-9.9,26.7-9.9c8.6,0,20,2.4,24.2,5.3
			l-5.7,5.3c-3.6-1.9-10.5-3.4-18.6-3.4c-10.4,0-17.1,0.6-17.1,2.4c0,1.9,4,2.8,18.3,4c17.6,1.5,25.1,4.8,25.1,11.9
			c0,8.6-12.5,10.7-26.7,10.7c-9.1,0-22.6-2.2-27.4-6.1l6.1-5.8c4.5,2.9,12.9,4.7,21.3,4.7C493.9,219.9,500.7,218.7,500.7,216z"/>
		<path class="st7" d="M514.2,209.1c0-11.7,10.6-18,28.2-18s28.1,6.4,28.1,18s-10.6,18-28.1,18S514.2,220.7,514.2,209.1z
			 M560.9,209.1c0-7.1-7-10.8-18.5-10.8c-11.6,0-18.6,3.7-18.6,10.8c0,7.1,7,10.8,18.6,10.8C553.9,219.9,560.9,216.2,560.9,209.1z"
			/>
		<path class="st7" d="M630.3,209.1c0,10.6-9.2,16.8-26.7,16.8h-27.7v-33.6h27.7C621.1,192.3,630.3,198.5,630.3,209.1z M620.7,209.1
			c0-6-5.6-9.6-17.1-9.6h-18.1v19.2h18.1C615.1,218.7,620.7,215.1,620.7,209.1z"/>
		<path class="st7" d="M645.4,192.3v33.6h-9.6v-33.6H645.4z"/>
		<path class="st7" d="M704.9,192.3l0,16.8c0,11.7-10.1,18-27.2,18c-17,0-27.2-6.4-27.2-18l0-16.8h9.6l0,16.8
			c0,7.1,6.4,10.8,17.6,10.8s17.6-3.7,17.6-10.8l0-16.8H704.9z"/>
		<path class="st7" d="M772.8,225.9h-9.6v-29.3l-14.4,29.3h-14.3L720,196.5v29.3h-9.6v-33.6h17.5l13.7,28.7l13.7-28.7h17.5V225.9z"
			/>
		<path class="st7" d="M58.6,257.1H34.5v26.4h-9.6v-26.4H1v-7.2h57.6V257.1z"/>
		<path class="st7" d="M117.4,283.5h-13.5l-15-10.4H71v10.4h-9.6v-33.6h40.8c9.3,0,14.5,5.2,14.5,11.6c0,6.4-5.2,11.6-14.5,11.6
			L117.4,283.5z M102.2,265.9c2.4,0,4.4-2,4.4-4.4c0-2.4-2-4.4-4.4-4.4H71v8.8H102.2z"/>
		<path class="st7" d="M131.8,249.9v33.6h-9.6v-33.6H131.8z"/>
		<path class="st7" d="M199.5,283.5h-9.6v-29.3l-14.4,29.3h-14.3l-14.4-29.3v29.3h-9.6v-33.6h17.5l13.7,28.7l13.7-28.7h17.5V283.5z"
			/>
		<path class="st7" d="M267.7,283.5h-9.6v-29.3l-14.4,29.3h-14.3l-14.4-29.3v29.3h-9.6v-33.6h17.5l13.7,28.7l13.7-28.7h17.5V283.5z"
			/>
		<path class="st7" d="M283,257.1v5.2h38.3v7.2H283v6.8h43.4v7.2h-53v-33.6h53v7.2H283z"/>
		<path class="st7" d="M387.7,283.5h-13.5l-15-10.4h-17.9v10.4h-9.6v-33.6h40.8c9.3,0,14.5,5.2,14.5,11.6c0,6.4-5.2,11.6-14.5,11.6
			L387.7,283.5z M372.5,265.9c2.4,0,4.4-2,4.4-4.4c0-2.4-2-4.4-4.4-4.4h-31.2v8.8H372.5z"/>
		<path class="st7" d="M435,273.6c0-2-3-2.7-15.9-3.8c-22.4-1.9-27.4-4.8-27.4-11.2c0-7.9,11.3-9.9,26.7-9.9c8.6,0,20,2.4,24.2,5.3
			l-5.7,5.3c-3.6-1.9-10.5-3.4-18.6-3.4c-10.4,0-17.1,0.6-17.1,2.4c0,1.9,4,2.8,18.3,4c17.6,1.5,25.1,4.8,25.1,11.9
			c0,8.6-12.5,10.7-26.7,10.7c-9.1,0-22.6-2.2-27.4-6.1l6.1-5.8c4.5,2.9,12.9,4.7,21.3,4.7C428.1,277.5,435,276.3,435,273.6z"/>
		<path class="st7" d="M533.4,272.7c0,6-4.8,10.8-13.4,10.8h-41.8v-33.6H520c7.7,0,12,4.4,12,9.6c0,2.3-1.3,4.3-3.1,6
			C531.4,267.3,533.4,269.9,533.4,272.7z M487.8,262H520c1.3,0,2.4-1.1,2.4-2.4c0-1.3-1.2-2.4-2.4-2.4h-32.2V262z M523.5,272.7
			c0-1.9-1.6-3.6-3.6-3.6h-32.2v7.1H520C521.9,276.3,523.5,274.7,523.5,272.7z"/>
		<path class="st7" d="M580.7,277.5h-31.8l-4.1,6h-10.8l22.9-33.6h15.7l22.9,33.6h-10.8L580.7,277.5z M575.8,270.3l-11-16.2
			l-11,16.2H575.8z"/>
		<path class="st7" d="M653.2,249.9v33.6h-17.8l-27.9-29.9v29.9h-9.6v-33.6h17.8l27.9,29.9v-29.9H653.2z"/>
		<path class="st7" d="M704.3,249.9l0,16.8c0,11.7-10.1,18-27.2,18c-9.2,0-16.3-1.8-21-5.3l6.3-5.6c4.5,2.8,9,3.7,14.7,3.7
			c11.1,0,17.6-3.7,17.6-10.8l0-16.8H704.3z"/>
		<path class="st7" d="M709.3,266.7c0-11.7,10.6-18,28.2-18c17.6,0,28.1,6.4,28.1,18s-10.6,18-28.1,18
			C719.9,284.7,709.3,278.3,709.3,266.7z M756,266.7c0-7.1-7-10.8-18.5-10.8c-11.6,0-18.6,3.7-18.6,10.8c0,7.1,7,10.8,18.6,10.8
			C749,277.5,756,273.8,756,266.7z"/>
		<path class="st7" d="M47.3,331.2c0-2-3-2.7-15.9-3.8C9,325.5,4,322.5,4,316.2c0-7.9,11.3-9.9,26.7-9.9c8.6,0,20,2.4,24.2,5.3
			l-5.7,5.3c-3.6-1.9-10.5-3.4-18.6-3.4c-10.4,0-17.1,0.6-17.1,2.4c0,1.9,4,2.8,18.3,4c17.6,1.5,25.1,4.8,25.1,11.9
			c0,8.6-12.5,10.7-26.7,10.7c-9.1,0-22.6-2.2-27.4-6.1l6.1-5.8c4.5,2.9,12.9,4.7,21.3,4.7C40.5,335.1,47.3,333.9,47.3,331.2z"/>
		<path class="st7" d="M117,307.5v33.6H99.3l-27.9-29.9v29.9h-9.6v-33.6h17.8l27.9,29.9v-29.9H117z"/>
		<path class="st7" d="M122.3,324.3c0-11.7,10.6-18,28.2-18s28.1,6.4,28.1,18s-10.6,18-28.1,18S122.3,335.9,122.3,324.3z M169,324.3
			c0-7.1-7-10.8-18.5-10.8c-11.6,0-18.6,3.7-18.6,10.8c0,7.1,7,10.8,18.6,10.8C162,335.1,169,331.4,169,324.3z"/>
		<path class="st7" d="M257.2,307.5l-12.8,33.6h-16l-11-29l-11,29h-16l-12.8-33.6h10.1l10.7,29.1l11.1-29.1h15.8l11.1,29.1
			l10.7-29.1H257.2z"/>
		<path class="st7" d="M314.3,330.3c0,6-4.8,10.8-13.4,10.8h-41.8v-33.6h41.8c7.7,0,12,4.4,12,9.6c0,2.3-1.3,4.3-3.1,6
			C312.3,324.9,314.3,327.5,314.3,330.3z M268.8,319.6h32.2c1.3,0,2.4-1.1,2.4-2.4c0-1.3-1.2-2.4-2.4-2.4h-32.2V319.6z M304.5,330.3
			c0-1.9-1.6-3.6-3.6-3.6h-32.2v7.1h32.2C302.8,333.9,304.5,332.3,304.5,330.3z"/>
		<path class="st7" d="M328.9,307.5v33.6h-9.6v-33.6H328.9z"/>
		<path class="st7" d="M390.2,341.1h-13.5l-15-10.4h-17.9v10.4h-9.6v-33.6H375c9.3,0,14.5,5.2,14.5,11.6c0,6.4-5.2,11.6-14.5,11.6
			L390.2,341.1z M375,323.5c2.4,0,4.4-2,4.4-4.4c0-2.4-2-4.4-4.4-4.4h-31.2v8.8H375z"/>
		<path class="st7" d="M449.5,324.3c0,10.6-9.2,16.8-26.7,16.8H395v-33.6h27.7C440.3,307.5,449.5,313.7,449.5,324.3z M439.9,324.3
			c0-6-5.6-9.6-17.1-9.6h-18.1v19.2h18.1C434.3,333.9,439.9,330.3,439.9,324.3z"/>
		<path class="st7" d="M538.5,314.7h-24.1v26.4h-9.6v-26.4h-24v-7.2h57.6V314.7z"/>
		<path class="st7" d="M593.7,307.5v33.6h-9.6v-14.4h-33.6v14.4h-9.6v-33.6h9.6v12h33.6v-12H593.7z"/>
		<path class="st7" d="M608.6,314.7v5.2h38.3v7.2h-38.3v6.8H652v7.2h-53v-33.6h53v7.2H608.6z"/>
		<path class="st7" d="M741.4,320.9v4.4c0,10.7-10,17-27.6,17c-17.6,0-28.2-6.4-28.2-18s10.6-18,28.2-18c9.8,0,17.3,1.6,22.1,5.6
			l-6.4,6c-3-3.1-8.4-4.3-15.7-4.3c-11.6,0-18.6,3.7-18.6,10.8c0,7.1,7,10.8,18.6,10.8c9.6,0,15.7-2.6,17.5-7.1h-22.5v-7.2H741.4z"
			/>
		<path class="st7" d="M802.6,341.1h-13.5l-15-10.4h-17.9v10.4h-9.6v-33.6h40.8c9.3,0,14.5,5.2,14.5,11.6c0,6.4-5.2,11.6-14.5,11.6
			L802.6,341.1z M787.4,323.5c2.4,0,4.4-2,4.4-4.4c0-2.4-2-4.4-4.4-4.4h-31.2v8.8H787.4z"/>
		<path class="st7" d="M817,307.5v33.6h-9.6v-33.6H817z"/>
		<path class="st7" d="M877,314.7H853v26.4h-9.6v-26.4h-24v-7.2H877V314.7z"/>
		<path class="st7" d="M918.3,307.5v33.6h-9.6v-33.6H918.3z"/>
		<path class="st7" d="M978.8,307.5v33.6h-17.8l-27.9-29.9v29.9h-9.6v-33.6h17.8l27.9,29.9v-29.9H978.8z"/>
		<path class="st7" d="M58.6,372.3H34.5v26.4h-9.6v-26.4H1v-7.2h57.6V372.3z"/>
		<path class="st7" d="M113.8,365.1v33.6h-9.6v-14.4H70.6v14.4H61v-33.6h9.6v12h33.6v-12H113.8z"/>
		<path class="st7" d="M128.6,372.3v5.2h38.3v7.2h-38.3v6.8H172v7.2h-53v-33.6h53v7.2H128.6z"/>
		<path class="st7" d="M261.4,376.7c0,6.4-5.2,11.6-14.5,11.6h-31.2v10.4h-9.6v-33.6h40.8C256.2,365.1,261.4,370.3,261.4,376.7z
			 M251.3,376.7c0-2.4-2-4.4-4.4-4.4h-31.2v8.8h31.2C249.3,381.1,251.3,379.1,251.3,376.7z"/>
		<path class="st7" d="M275.3,372.3v5.2h38.3v7.2h-38.3v6.8h43.4v7.2h-53v-33.6h53v7.2H275.3z"/>
		<path class="st7" d="M367.2,392.7h-31.8l-4.1,6h-10.8l22.9-33.6h15.7l22.9,33.6h-10.8L367.2,392.7z M362.4,385.5l-11-16.2
			l-11,16.2H362.4z"/>
		<path class="st7" d="M440.4,398.7h-13.5l-15-10.4h-17.9v10.4h-9.6v-33.6h40.8c9.3,0,14.5,5.2,14.5,11.6c0,6.4-5.2,11.6-14.5,11.6
			L440.4,398.7z M425.3,381.1c2.4,0,4.4-2,4.4-4.4c0-2.4-2-4.4-4.4-4.4h-31.2v8.8H425.3z"/>
		<path class="st7" d="M491,391.5v7.2h-45.8v-33.6h9.6v26.4H491z"/>
		<path class="st7" d="M579.3,387.9c0,6-4.8,10.8-13.4,10.8h-41.8v-33.6h41.8c7.7,0,12,4.4,12,9.6c0,2.3-1.3,4.3-3.1,6
			C577.3,382.5,579.3,385.1,579.3,387.9z M533.8,377.2h32.2c1.3,0,2.4-1.1,2.4-2.4c0-1.3-1.2-2.4-2.4-2.4h-32.2V377.2z M569.5,387.9
			c0-1.9-1.6-3.6-3.6-3.6h-32.2v7.1h32.2C567.8,391.5,569.5,389.9,569.5,387.9z"/>
		<path class="st7" d="M593.9,372.3v5.2h38.3v7.2h-38.3v6.8h43.4v7.2h-53v-33.6h53v7.2H593.9z"/>
		<path class="st7" d="M685.9,392.7h-31.8l-4.1,6h-10.8l22.9-33.6h15.7l22.9,33.6H690L685.9,392.7z M681,385.5l-11-16.2l-11,16.2
			H681z"/>
		<path class="st7" d="M752.1,389.8c-3.9,6.5-12.9,10.2-25.8,10.2c-17.6,0-28-6.5-28-18.1s10.4-18.1,28-18.1
			c12.8,0,21.8,3.6,25.7,10.2l-9.1,2.9c-2.7-3.8-8.5-5.9-16.7-5.9c-11.6,0-18.4,3.8-18.4,10.9c0,7.1,6.8,10.9,18.4,10.9
			c8.3,0,14.1-2.2,16.8-6L752.1,389.8z"/>
		<path class="st7" d="M756.4,381.9c0-11.7,10.6-18,28.2-18c17.6,0,28.1,6.4,28.1,18s-10.6,18-28.1,18
			C767,399.9,756.4,393.5,756.4,381.9z M803.1,381.9c0-7.1-7-10.8-18.5-10.8c-11.6,0-18.6,3.7-18.6,10.8c0,7.1,7,10.8,18.6,10.8
			C796.1,392.7,803.1,389,803.1,381.9z"/>
		<path class="st7" d="M873.2,365.1v33.6h-17.8l-27.9-29.9v29.9H818v-33.6h17.8l27.9,29.9v-29.9H873.2z"/>
		<path class="st7" d="M59.1,434.3c0,6.4-5.2,11.6-14.5,11.6H13.4v10.4H3.8v-33.6h40.8C53.9,422.7,59.1,427.9,59.1,434.3z
			 M49.1,434.3c0-2.4-2-4.4-4.4-4.4H13.4v8.8h31.2C47,438.7,49.1,436.7,49.1,434.3z"/>
		<path class="st7" d="M72.1,429.9v5.2h38.3v7.2H72.1v6.8h43.4v7.2h-53v-33.6h53v7.2H72.1z"/>
		<path class="st7" d="M175.5,429.9h-24.1v26.4h-9.6v-26.4h-24v-7.2h57.6V429.9z"/>
		<path class="st7" d="M234.3,456.3h-13.5l-15-10.4H188v10.4h-9.6v-33.6h40.8c9.3,0,14.5,5.2,14.5,11.6c0,6.4-5.2,11.6-14.5,11.6
			L234.3,456.3z M219.2,438.7c2.4,0,4.4-2,4.4-4.4c0-2.4-2-4.4-4.4-4.4H188v8.8H219.2z"/>
		<path class="st7" d="M236.7,439.5c0-11.7,10.6-18,28.2-18s28.1,6.4,28.1,18s-10.6,18-28.1,18S236.7,451.1,236.7,439.5z
			 M283.4,439.5c0-7.1-7-10.8-18.5-10.8c-11.6,0-18.6,3.7-18.6,10.8c0,7.1,7,10.8,18.6,10.8C276.4,450.3,283.4,446.6,283.4,439.5z"
			/>
		<path class="st7" d="M344.1,449.1v7.2h-45.8v-33.6h9.6v26.4H344.1z"/>
		<path class="st7" d="M358,429.9v5.2h38.3v7.2H358v6.8h43.4v7.2h-53v-33.6h53v7.2H358z"/>
		<path class="st7" d="M460.9,422.7l0,16.8c0,11.7-10.1,18-27.2,18s-27.2-6.4-27.2-18l0-16.8h9.6l0,16.8c0,7.1,6.4,10.8,17.6,10.8
			c11.1,0,17.6-3.7,17.6-10.8l0-16.8H460.9z"/>
		<path class="st7" d="M528.8,456.3h-9.6v-29.3l-14.4,29.3h-14.3L476,426.9v29.3h-9.6v-33.6h17.5l13.7,28.7l13.7-28.7h17.5V456.3z"
			/>
		<path class="st7" d="M618.1,429.9H594v26.4h-9.6v-26.4h-24v-7.2h57.6V429.9z"/>
		<path class="st7" d="M630.6,422.7v33.6H621v-33.6H630.6z"/>
		<path class="st7" d="M691.1,422.7v33.6h-17.8l-27.9-29.9v29.9h-9.6v-33.6h17.8l27.9,29.9v-29.9H691.1z"/>
		<path class="st7" d="M752.2,436.1v4.4c0,10.7-10,17-27.6,17c-17.6,0-28.2-6.4-28.2-18s10.6-18,28.2-18c9.8,0,17.3,1.6,22.1,5.6
			l-6.4,6c-3-3.1-8.4-4.3-15.7-4.3c-11.6,0-18.6,3.7-18.6,10.8c0,7.1,7,10.8,18.6,10.8c9.6,0,15.7-2.6,17.5-7.1h-22.5v-7.2H752.2z"
			/>
		<path class="st7" d="M767,429.9v5.2h38.3v7.2H767v6.8h43.4v7.2h-53v-33.6h53v7.2H767z"/>
		<path class="st7" d="M870.2,439.5c0,10.6-9.2,16.8-26.7,16.8h-27.7v-33.6h27.7C861,422.7,870.2,428.9,870.2,439.5z M860.6,439.5
			c0-6-5.6-9.6-17.1-9.6h-18.1v19.2h18.1C855,449.1,860.6,445.5,860.6,439.5z"/>
		<path class="st7" d="M47.3,504c0-2-3-2.7-15.9-3.8C9,498.3,4,495.3,4,489c0-7.9,11.3-9.9,26.7-9.9c8.6,0,20,2.4,24.2,5.3l-5.7,5.3
			c-3.6-1.9-10.5-3.4-18.6-3.4c-10.4,0-17.1,0.6-17.1,2.4c0,1.9,4,2.8,18.3,4c17.6,1.5,25.1,4.8,25.1,11.9
			c0,8.6-12.5,10.7-26.7,10.7c-9.1,0-22.6-2.2-27.4-6.1l6.1-5.8c4.5,2.9,12.9,4.7,21.3,4.7C40.5,507.9,47.3,506.7,47.3,504z"/>
		<path class="st7" d="M71.4,480.3v33.6h-9.6v-33.6H71.4z"/>
		<path class="st7" d="M122.5,506.7v7.2H76.7v-33.6h9.6v26.4H122.5z"/>
		<path class="st7" d="M176.7,480.3l-22.9,33.6h-15.7l-22.9-33.6H126l20,29.4l20-29.4H176.7z"/>
		<path class="st7" d="M189.2,487.5v5.2h38.3v7.2h-38.3v6.8h43.4v7.2h-53v-33.6h53v7.2H189.2z"/>
		<path class="st7" d="M293.8,513.9h-13.5l-15-10.4h-17.9v10.4h-9.6v-33.6h40.8c9.3,0,14.5,5.2,14.5,11.6c0,6.4-5.2,11.6-14.5,11.6
			L293.8,513.9z M278.6,496.3c2.4,0,4.4-2,4.4-4.4c0-2.4-2-4.4-4.4-4.4h-31.2v8.8H278.6z"/>
		<path class="st7" d="M308.2,487.5v5.2h38.3v7.2h-38.3v6.8h43.4v7.2h-53v-33.6h53v7.2H308.2z"/>
		<path class="st7" d="M411.4,497.1c0,10.6-9.2,16.8-26.7,16.8h-27.7v-33.6h27.7C402.2,480.3,411.4,486.5,411.4,497.1z M401.8,497.1
			c0-6-5.6-9.6-17.1-9.6h-18.1v19.2h18.1C396.1,506.7,401.8,503.1,401.8,497.1z"/>
		<path class="st7" d="M455.3,480.3v33.6h-9.6v-33.6H455.3z"/>
		<path class="st7" d="M516.5,513.9H503l-15-10.4h-17.9v10.4h-9.6v-33.6h40.8c9.3,0,14.5,5.2,14.5,11.6c0,6.4-5.2,11.6-14.5,11.6
			L516.5,513.9z M501.4,496.3c2.4,0,4.4-2,4.4-4.4c0-2.4-2-4.4-4.4-4.4h-31.2v8.8H501.4z"/>
		<path class="st7" d="M530.9,480.3v33.6h-9.6v-33.6H530.9z"/>
		<path class="st7" d="M579.7,504c0-2-3-2.7-15.9-3.8c-22.4-1.9-27.4-4.8-27.4-11.2c0-7.9,11.3-9.9,26.7-9.9c8.6,0,20,2.4,24.2,5.3
			l-5.7,5.3c-3.6-1.9-10.5-3.4-18.6-3.4c-10.4,0-17.1,0.6-17.1,2.4c0,1.9,4,2.8,18.3,4c17.6,1.5,25.1,4.8,25.1,11.9
			c0,8.6-12.5,10.7-26.7,10.7c-9.1,0-22.6-2.2-27.4-6.1l6.1-5.8c4.5,2.9,12.9,4.7,21.3,4.7C572.8,507.9,579.7,506.7,579.7,504z"/>
		<path class="st7" d="M677.7,487.5h-24.1v26.4H644v-26.4h-24v-7.2h57.6V487.5z"/>
		<path class="st7" d="M732.9,480.3v33.6h-9.6v-14.4h-33.6v14.4h-9.6v-33.6h9.6v12h33.6v-12H732.9z"/>
		<path class="st7" d="M747.7,487.5v5.2H786v7.2h-38.3v6.8h43.4v7.2h-53v-33.6h53v7.2H747.7z"/>
		<path class="st7" d="M852.4,513.9h-13.5l-15-10.4H806v10.4h-9.6v-33.6h40.8c9.3,0,14.5,5.2,14.5,11.6c0,6.4-5.2,11.6-14.5,11.6
			L852.4,513.9z M837.2,496.3c2.4,0,4.4-2,4.4-4.4c0-2.4-2-4.4-4.4-4.4H806v8.8H837.2z"/>
		<path class="st7" d="M866.8,487.5v5.2h38.3v7.2h-38.3v6.8h43.4v7.2h-53v-33.6h53v7.2H866.8z"/>
		<path class="st7" d="M953.9,480.3v33.6h-9.6v-33.6H953.9z"/>
		<path class="st7" d="M1002.6,504c0-2-3-2.7-15.9-3.8c-22.4-1.9-27.4-4.8-27.4-11.2c0-7.9,11.3-9.9,26.7-9.9c8.6,0,20,2.4,24.2,5.3
			l-5.7,5.3c-3.6-1.9-10.5-3.4-18.6-3.4c-10.4,0-17.1,0.6-17.1,2.4c0,1.9,4,2.8,18.3,4c17.6,1.5,25.1,4.8,25.1,11.9
			c0,8.6-12.5,10.7-26.7,10.7c-9.1,0-22.6-2.2-27.4-6.1l6.1-5.8c4.5,2.9,12.9,4.7,21.3,4.7C995.8,507.9,1002.6,506.7,1002.6,504z"/>
		<path class="st7" d="M47.1,565.5H15.3l-4.1,6H0.5l22.9-33.6h15.7l22.9,33.6H51.2L47.1,565.5z M42.2,558.3l-11-16.2l-11,16.2H42.2z
			"/>
		<path class="st7" d="M147.6,554.7c0,10.6-9.2,16.8-26.7,16.8H93.1v-33.6h27.7C138.4,537.9,147.6,544.1,147.6,554.7z M138,554.7
			c0-6-5.6-9.6-17.1-9.6h-18.1v19.2h18.1C132.4,564.3,138,560.7,138,554.7z"/>
		<path class="st7" d="M162.7,537.9v33.6h-9.6v-33.6H162.7z"/>
		<path class="st7" d="M211.5,561.6c0-2-3-2.7-15.9-3.8c-22.4-1.9-27.4-4.8-27.4-11.2c0-7.9,11.3-9.9,26.7-9.9
			c8.6,0,20,2.4,24.2,5.3l-5.7,5.3c-3.6-1.9-10.5-3.4-18.6-3.4c-10.4,0-17.1,0.6-17.1,2.4c0,1.9,4,2.8,18.3,4
			c17.6,1.5,25.1,4.8,25.1,11.9c0,8.6-12.5,10.7-26.7,10.7c-9.1,0-22.6-2.2-27.4-6.1l6.1-5.8c4.5,2.9,12.9,4.7,21.3,4.7
			C204.6,565.5,211.5,564.3,211.5,561.6z"/>
		<path class="st7" d="M279.7,545.1h-24.1v26.4H246v-26.4h-24v-7.2h57.6V545.1z"/>
		<path class="st7" d="M320.1,565.5h-31.8l-4.1,6h-10.8l22.9-33.6h15.7l22.9,33.6h-10.8L320.1,565.5z M315.2,558.3l-11-16.2
			l-11,16.2H315.2z"/>
		<path class="st7" d="M392.5,537.9v33.6h-17.8l-27.9-29.9v29.9h-9.6v-33.6h17.8l27.9,29.9v-29.9H392.5z"/>
		<path class="st7" d="M451.1,562.6c-3.9,6.5-12.9,10.2-25.8,10.2c-17.6,0-28-6.5-28-18.1s10.4-18.1,28-18.1
			c12.8,0,21.8,3.6,25.7,10.2l-9.1,2.9c-2.7-3.8-8.5-5.9-16.7-5.9c-11.6,0-18.4,3.8-18.4,10.9s6.8,10.9,18.4,10.9
			c8.3,0,14.1-2.2,16.8-6L451.1,562.6z"/>
		<path class="st7" d="M465.5,545.1v5.2h38.3v7.2h-38.3v6.8h43.4v7.2h-53v-33.6h53v7.2H465.5z"/>
		<path class="st7" d="M552.6,537.9v33.6H543v-33.6H552.6z"/>
		<path class="st7" d="M613.1,537.9v33.6h-17.8l-27.9-29.9v29.9h-9.6v-33.6h17.8l27.9,29.9v-29.9H613.1z"/>
		<path class="st7" d="M677.5,556v15.5h-9.6V556l-23.1-18.1h13.1l14.9,11.7l14.9-11.7h13.1L677.5,556z"/>
		<path class="st7" d="M699.3,554.7c0-11.7,10.6-18,28.2-18c17.6,0,28.1,6.4,28.1,18s-10.6,18-28.1,18
			C709.9,572.7,699.3,566.3,699.3,554.7z M746,554.7c0-7.1-7-10.8-18.5-10.8c-11.6,0-18.6,3.7-18.6,10.8s7,10.8,18.6,10.8
			C739,565.5,746,561.8,746,554.7z"/>
		<path class="st7" d="M815,537.9l0,16.8c0,11.7-10.1,18-27.2,18c-17,0-27.2-6.4-27.2-18l0-16.8h9.6l0,16.8
			c0,7.1,6.4,10.8,17.6,10.8s17.6-3.7,17.6-10.8l0-16.8H815z"/>
	</g>
</g>
</svg>
