<?xml version="1.0" encoding="utf-8"?>
<!-- Generator: Adobe Illustrator 19.0.1, SVG Export Plug-In . SVG Version: 6.00 Build 0)  -->
<svg version="1.1" xmlns="http://www.w3.org/2000/svg" xmlns:xlink="http://www.w3.org/1999/xlink" x="0px" y="0px"
	 viewBox="0 0 1012.3 554.6" style="enable-background:new 0 0 1012.3 554.6;" xml:space="preserve">
<style type="text/css">
	.st0{display:none;}
	.st1{display:inline;fill:none;}
	.st2{display:inline;}
	.st3{font-family:'HNIRExtended-Regular';}
	.st4{font-size:72px;}
	.st5{font-size:60px;}
	.st6{display:inline;fill:#3372FF;}
	.st7{fill:#3372FF;}
	.st8{font-size:48px;}
	.st9{letter-spacing:-1;}
	.st10{letter-spacing:-3;}
	.st11{letter-spacing:-8;}
	.st12{letter-spacing:-5;}
</style>
<g id="Layer_1" class="st0">
	<rect x="26.1" y="78.2" class="st1" width="1174.9" height="874.1"/>
	<text transform="matrix(1 0 0 1 26.0688 139.4176)" class="st2"><tspan x="0" y="0" class="st3 st4">BREAKING WAVES </tspan><tspan x="0" y="86.4" class="st3 st4">WHEN I LOOK THIS </tspan><tspan x="0" y="172.8" class="st3 st4">SIDE MIND  </tspan><tspan x="0" y="259.2" class="st3 st4">CONTROL  </tspan><tspan x="0" y="345.6" class="st3 st4">MEMORIES I WANT </tspan><tspan x="0" y="432" class="st3 st4">YOU IT IS  </tspan><tspan x="0" y="518.4" class="st3 st4">HAPPENING AGAIN </tspan><tspan x="0" y="604.8" class="st3 st4">STANDING HIGH </tspan><tspan x="0" y="691.2" class="st3 st4">OWLS TIME WARP </tspan><tspan x="0" y="777.6" class="st3 st4">SONIC SOUL FEAR </tspan></text>
</g>
<g id="Layer_1_copy_2" class="st0">
	<rect x="26.1" y="78.2" class="st1" width="1244.9" height="1001.7"/>
	<text transform="matrix(1 0 0 1 26.0688 129.2179)" class="st2"><tspan x="0" y="0" class="st3 st5">WALKING MACHINE </tspan><tspan x="0" y="72" class="st3 st5">HUMAN AFTER ALL </tspan><tspan x="0" y="144" class="st3 st5">PARIS FOUR HUNDRED </tspan><tspan x="0" y="216" class="st3 st5">GET MYSELF INTO IT </tspan><tspan x="0" y="288" class="st3 st5">CAMERA WE DANCE  </tspan><tspan x="0" y="360" class="st3 st5">TOGETHER BOSSY </tspan><tspan x="0" y="432" class="st3 st5">CHEAP AND CHEERFUL  </tspan><tspan x="0" y="504" class="st3 st5">TESTAROSSA  </tspan><tspan x="0" y="576" class="st3 st5">AUTODRIVE TEXAS </tspan><tspan x="0" y="648" class="st3 st5">FOOL FOR LOVE I </tspan><tspan x="0" y="720" class="st3 st5">STILL REMEMBER </tspan><tspan x="0" y="792" class="st3 st5">SEXUAL SPORTSWEAR </tspan><tspan x="0" y="864" class="st3 st5">GOLDEN SKANS</tspan></text>
</g>
<g id="Layer_1_copy" class="st0">
	<rect x="33.1" y="45.2" class="st1" width="1128.9" height="1231.4"/>
	<text transform="matrix(1 0 0 1 33.0688 106.4176)" class="st2"><tspan x="0" y="0" class="st3 st4">LEAN ON ME </tspan><tspan x="0" y="86.4" class="st3 st4">VIBRATIONS </tspan><tspan x="0" y="172.8" class="st3 st4">FOLLOWED BY </tspan><tspan x="0" y="259.2" class="st3 st4">POISONED </tspan><tspan x="0" y="345.6" class="st3 st4">APPLES YOU </tspan><tspan x="0" y="432" class="st3 st4">TOO ALBATROS </tspan><tspan x="0" y="518.4" class="st3 st4">WAKE ME UP </tspan><tspan x="0" y="604.8" class="st3 st4">SIGMUND THE </tspan><tspan x="0" y="691.2" class="st3 st4">TALKING DRUMS </tspan><tspan x="0" y="777.6" class="st3 st4">MOTHER ANIMAL </tspan><tspan x="0" y="864" class="st3 st4">STYLE COMPUTE </tspan><tspan x="0" y="950.4" class="st3 st4">WHEN THE NIGHT</tspan></text>
</g>
<g id="Layer_1_copy_3" class="st0">
	<path class="st6" d="M73.7,56.1v10.8H5V16.5h14.4v39.6H73.7z"/>
	<path class="st6" d="M93.9,27.3v7.8h57.5v10.8H93.9v10.2H159v10.8H79.5V16.5H159v10.8H93.9z"/>
	<path class="st6" d="M231.8,57.9h-47.7l-6.1,9h-16.1l34.3-50.4h23.6L254,66.9h-16.1L231.8,57.9z M224.4,47.1l-16.5-24.3l-16.5,24.3
		H224.4z"/>
	<path class="st6" d="M340.5,16.5v50.4h-26.6L272,22.1v44.9h-14.4V16.5h26.6l41.8,44.9V16.5H340.5z"/>
	<path class="st6" d="M391.6,41.7c0-17.5,15.9-27.1,42.3-27.1c26.4,0,42.2,9.6,42.2,27.1s-15.8,27.1-42.2,27.1
		C407.5,68.8,391.6,59.2,391.6,41.7z M461.7,41.7c0-10.7-10.5-16.3-27.8-16.3c-17.4,0-27.9,5.6-27.9,16.3S416.5,58,433.9,58
		C451.2,58,461.7,52.4,461.7,41.7z"/>
	<path class="st6" d="M566.9,16.5v50.4h-26.6l-41.8-44.9v44.9H484V16.5h26.6l41.8,44.9V16.5H566.9z"/>
	<path class="st6" d="M712.3,66.9h-14.4v-44l-21.7,44h-21.5l-21.7-44v44h-14.4V16.5h26.2l20.6,43.1l20.6-43.1h26.2V66.9z"/>
	<path class="st6" d="M735.3,27.3v7.8h57.5v10.8h-57.5v10.2h65.1v10.8h-79.5V16.5h79.5v10.8H735.3z"/>
	<path class="st6" d="M92.9,102.9l-34.3,50.4H35L0.7,102.9h16.1l30,44.1l30-44.1H92.9z"/>
	<path class="st6" d="M111.6,102.9v50.4H97.2v-50.4H111.6z"/>
	<path class="st6" d="M203,137.1c0,8.9-7.3,16.2-20.1,16.2h-62.6v-50.4h62.6c11.5,0,18,6.6,18,14.4c0,3.4-1.9,6.5-4.7,8.9
		C200,129.1,203,133,203,137.1z M134.6,121.1h48.2c1.9,0,3.7-1.6,3.7-3.7c0-2-1.7-3.7-3.7-3.7h-48.2V121.1z M188.2,137.2
		c0-2.9-2.4-5.3-5.3-5.3h-48.2v10.7h48.2C185.8,142.5,188.2,140.2,188.2,137.2z"/>
	<path class="st6" d="M294.8,153.3h-20.3l-22.5-15.6h-26.8v15.6h-14.4v-50.4h61.2c13.9,0,21.7,7.8,21.7,17.4
		c0,9.6-7.8,17.4-21.7,17.4L294.8,153.3z M272.1,127c3.6,0,6.6-3,6.6-6.6c0-3.7-3-6.6-6.6-6.6h-46.8V127H272.1z"/>
	<path class="st6" d="M366,144.3h-47.7l-6.1,9h-16.1l34.3-50.4H354l34.3,50.4h-16.1L366,144.3z M358.6,133.5l-16.5-24.3l-16.5,24.3
		H358.6z"/>
	<path class="st6" d="M458.9,113.7h-36.1v39.6h-14.4v-39.6h-35.9v-10.8h86.4V113.7z"/>
	<path class="st6" d="M477.6,102.9v50.4h-14.4v-50.4H477.6z"/>
	<path class="st6" d="M485.5,128.1c0-17.5,15.9-27.1,42.3-27.1c26.4,0,42.2,9.6,42.2,27.1s-15.8,27.1-42.2,27.1
		C501.5,155.2,485.5,145.6,485.5,128.1z M555.6,128.1c0-10.7-10.5-16.3-27.8-16.3c-17.4,0-27.9,5.6-27.9,16.3s10.5,16.3,27.9,16.3
		C545.1,144.4,555.6,138.8,555.6,128.1z"/>
	<path class="st6" d="M660.8,102.9v50.4h-26.6l-41.8-44.9v44.9h-14.4v-50.4h26.6l41.8,44.9v-44.9H660.8z"/>
	<path class="st6" d="M734.7,138.6c0-3-4.5-4.1-23.8-5.8c-33.6-2.9-41.1-7.3-41.1-16.8c0-11.9,17-14.9,40-14.9c12.9,0,30,3.5,36.4,8
		l-8.5,7.9c-5.5-2.8-15.8-5.1-27.9-5.1c-15.6,0-25.7,0.9-25.7,3.5c0,2.8,6,4.2,27.5,6c26.4,2.3,37.6,7.1,37.6,17.8
		c0,12.9-18.7,16-40.1,16c-13.6,0-33.8-3.2-41-9.1l9.1-8.6c6.7,4.4,19.3,7,31.9,7C724.4,144.4,734.7,142.5,734.7,138.6z"/>
	<path class="st6" d="M18.7,200.1v11.5h53.9v10.8H18.7v17.3H4.3v-50.4h75.9v10.8H18.7z"/>
	<path class="st6" d="M87,214.5c0-17.5,15.9-27.1,42.3-27.1c26.4,0,42.2,9.6,42.2,27.1s-15.8,27.1-42.2,27.1
		C103,241.6,87,232,87,214.5z M157.1,214.5c0-10.7-10.5-16.3-27.8-16.3c-17.4,0-27.9,5.6-27.9,16.3s10.5,16.3,27.9,16.3
		C146.6,230.8,157.1,225.2,157.1,214.5z"/>
	<path class="st6" d="M248.1,228.9v10.8h-68.7v-50.4h14.4v39.6H248.1z"/>
	<path class="st6" d="M322.6,228.9v10.8h-68.7v-50.4h14.4v39.6H322.6z"/>
	<path class="st6" d="M327.6,214.5c0-17.5,15.9-27.1,42.3-27.1c26.4,0,42.2,9.6,42.2,27.1s-15.8,27.1-42.2,27.1
		C343.5,241.6,327.6,232,327.6,214.5z M397.7,214.5c0-10.7-10.5-16.3-27.8-16.3c-17.4,0-27.9,5.6-27.9,16.3s10.5,16.3,27.9,16.3
		C387.1,230.8,397.7,225.2,397.7,214.5z"/>
	<path class="st6" d="M535.8,189.3l-19.2,50.4h-24l-16.6-43.6l-16.6,43.6h-24l-19.2-50.4h15.2l16,43.7l16.6-43.7h23.8l16.6,43.7
		l16-43.7H535.8z"/>
	<path class="st6" d="M555.2,200.1v7.8h57.5v10.8h-57.5v10.2h65.1v10.8h-79.5v-50.4h79.5v10.8H555.2z"/>
	<path class="st6" d="M709.9,214.5c0,15.9-13.8,25.2-40.1,25.2h-41.6v-50.4h41.6C696.2,189.3,709.9,198.6,709.9,214.5z M695.5,214.5
		c0-9.1-8.4-14.4-25.7-14.4h-27.2v28.8h27.2C687.1,228.9,695.5,223.6,695.5,214.5z"/>
	<path class="st6" d="M844.1,223.5c0,8.9-7.3,16.2-20.1,16.2h-62.6v-50.4H824c11.5,0,18,6.6,18,14.4c0,3.4-1.9,6.5-4.7,8.9
		C841.2,215.5,844.1,219.4,844.1,223.5z M775.8,207.5H824c1.9,0,3.7-1.6,3.7-3.7c0-2-1.7-3.7-3.7-3.7h-48.2V207.5z M829.4,223.6
		c0-2.9-2.4-5.3-5.3-5.3h-48.2v10.7H824C826.9,228.9,829.4,226.6,829.4,223.6z"/>
	<path class="st6" d="M896.8,216.6v23.2h-14.4v-23.2l-34.7-27.2h19.6l22.3,17.5l22.3-17.5h19.6L896.8,216.6z"/>
	<path class="st6" d="M88,293.2c0,9.6-7.8,17.4-21.7,17.4H19.4v15.6H5v-50.4h61.2C80.1,275.7,88,283.6,88,293.2z M72.9,293.2
		c0-3.7-3-6.6-6.6-6.6H19.4v13.2h46.8C69.8,299.8,72.9,296.8,72.9,293.2z"/>
	<path class="st6" d="M93.7,300.9c0-17.5,15.9-27.1,42.3-27.1c26.4,0,42.2,9.6,42.2,27.1S162.4,328,136,328
		C109.7,328,93.7,318.4,93.7,300.9z M163.8,300.9c0-10.7-10.5-16.3-27.8-16.3c-17.4,0-27.9,5.6-27.9,16.3s10.5,16.3,27.9,16.3
		C153.3,317.2,163.8,311.6,163.8,300.9z"/>
	<path class="st6" d="M200.5,275.7v50.4h-14.4v-50.4H200.5z"/>
	<path class="st6" d="M274.4,311.4c0-3-4.5-4.1-23.8-5.8c-33.6-2.9-41.1-7.3-41.1-16.8c0-11.9,17-14.9,40-14.9c12.9,0,30,3.5,36.4,8
		l-8.5,7.9c-5.5-2.8-15.8-5.1-27.9-5.1c-15.6,0-25.7,0.9-25.7,3.5c0,2.8,6,4.2,27.5,6c26.4,2.3,37.6,7.1,37.6,17.8
		c0,12.9-18.7,16-40.1,16c-13.6,0-33.8-3.2-41-9.1l9.1-8.6c6.7,4.4,19.3,7,31.9,7C264.1,317.2,274.4,315.3,274.4,311.4z"/>
	<path class="st6" d="M295.3,300.9c0-17.5,15.9-27.1,42.3-27.1c26.4,0,42.2,9.6,42.2,27.1S364,328,337.6,328
		C311.3,328,295.3,318.4,295.3,300.9z M365.4,300.9c0-10.7-10.5-16.3-27.8-16.3c-17.4,0-27.9,5.6-27.9,16.3s10.5,16.3,27.9,16.3
		C354.9,317.2,365.4,311.6,365.4,300.9z"/>
	<path class="st6" d="M470.6,275.7v50.4H444l-41.8-44.9v44.9h-14.4v-50.4h26.6l41.8,44.9v-44.9H470.6z"/>
	<path class="st6" d="M493.6,286.5v7.8h57.5v10.8h-57.5v10.2h65.1v10.8h-79.5v-50.4h79.5v10.8H493.6z"/>
	<path class="st6" d="M648.4,300.9c0,15.9-13.8,25.2-40.1,25.2h-41.6v-50.4h41.6C634.6,275.7,648.4,285,648.4,300.9z M634,300.9
		c0-9.1-8.4-14.4-25.7-14.4H581v28.8h27.2C625.5,315.3,634,310,634,300.9z"/>
	<path class="st6" d="M69.9,403.5H22.2l-6.1,9H0l34.3-50.4h23.6l34.3,50.4H76L69.9,403.5z M62.6,392.7l-16.5-24.3l-16.5,24.3H62.6z"
		/>
	<path class="st6" d="M178.7,379.6c0,9.6-7.8,17.4-21.7,17.4h-46.8v15.6H95.8v-50.4H157C170.9,362.1,178.7,370,178.7,379.6z
		 M163.6,379.6c0-3.7-3-6.6-6.6-6.6h-46.8v13.2H157C160.6,386.2,163.6,383.2,163.6,379.6z"/>
	<path class="st6" d="M268.1,379.6c0,9.6-7.8,17.4-21.7,17.4h-46.8v15.6h-14.4v-50.4h61.2C260.3,362.1,268.1,370,268.1,379.6z
		 M253,379.6c0-3.7-3-6.6-6.6-6.6h-46.8v13.2h46.8C250,386.2,253,383.2,253,379.6z"/>
	<path class="st6" d="M343.3,401.7v10.8h-68.7v-50.4H289v39.6H343.3z"/>
	<path class="st6" d="M363.5,372.9v7.8h57.5v10.8h-57.5v10.2h65.1v10.8h-79.5v-50.4h79.5v10.8H363.5z"/>
	<path class="st6" d="M501.7,397.8c0-3-4.5-4.1-23.8-5.8c-33.6-2.9-41.1-7.3-41.1-16.8c0-11.9,17-14.9,40-14.9c12.9,0,30,3.5,36.4,8
		l-8.5,7.9c-5.5-2.8-15.8-5.1-27.9-5.1c-15.6,0-25.7,0.9-25.7,3.5c0,2.8,6,4.2,27.5,6c26.4,2.3,37.6,7.1,37.6,17.8
		c0,12.9-18.7,16-40.1,16c-13.6,0-33.8-3.2-41-9.1l9.1-8.6c6.7,4.4,19.3,7,31.9,7C491.4,403.6,501.7,401.7,501.7,397.8z"/>
	<path class="st6" d="M611.4,389.4v23.2H597v-23.2l-34.7-27.2h19.6l22.3,17.5l22.3-17.5h19.6L611.4,389.4z"/>
	<path class="st6" d="M641.7,387.3c0-17.5,15.9-27.1,42.3-27.1s42.2,9.6,42.2,27.1s-15.8,27.1-42.2,27.1S641.7,404.8,641.7,387.3z
		 M711.8,387.3c0-10.7-10.5-16.3-27.8-16.3c-17.4,0-27.9,5.6-27.9,16.3s10.5,16.3,27.9,16.3C701.3,403.6,711.8,398,711.8,387.3z"/>
	<path class="st6" d="M815.4,362.1l-0.1,25.2c0,17.5-15.2,27.1-40.8,27.1c-25.6,0-40.8-9.6-40.8-27.1l-0.1-25.2h14.4l0.1,25.2
		c0,10.7,9.6,16.3,26.4,16.3c16.7,0,26.4-5.6,26.4-16.3l0.1-25.2H815.4z"/>
	<path class="st6" d="M87.1,459.3H51.1v39.6H36.7v-39.6H0.7v-10.8h86.4V459.3z"/>
	<path class="st6" d="M90.7,473.7c0-17.5,15.9-27.1,42.3-27.1c26.4,0,42.2,9.6,42.2,27.1c0,17.5-15.8,27.1-42.2,27.1
		C106.6,500.8,90.7,491.2,90.7,473.7z M160.8,473.7c0-10.7-10.5-16.3-27.8-16.3c-17.4,0-27.9,5.6-27.9,16.3
		c0,10.7,10.5,16.3,27.9,16.3C150.3,490,160.8,484.4,160.8,473.7z"/>
	<path class="st6" d="M182.4,473.7c0-17.5,15.9-27.1,42.3-27.1c26.4,0,42.2,9.6,42.2,27.1c0,17.5-15.8,27.1-42.2,27.1
		C198.3,500.8,182.4,491.2,182.4,473.7z M252.4,473.7c0-10.7-10.5-16.3-27.8-16.3c-17.4,0-27.9,5.6-27.9,16.3
		c0,10.7,10.5,16.3,27.9,16.3C241.9,490,252.4,484.4,252.4,473.7z"/>
	<path class="st6" d="M382.8,489.9h-47.7l-6.1,9h-16.1l34.3-50.4h23.6l34.3,50.4h-16.1L382.8,489.9z M375.5,479.1L359,454.9
		l-16.5,24.3H375.5z"/>
	<path class="st6" d="M477.4,488.1v10.8h-68.7v-50.4h14.4v39.6H477.4z"/>
	<path class="st6" d="M565.9,482.7c0,8.9-7.3,16.2-20.1,16.2h-62.6v-50.4h62.6c11.5,0,18,6.6,18,14.4c0,3.4-1.9,6.5-4.7,8.9
		C562.9,474.7,565.9,478.6,565.9,482.7z M497.5,466.7h48.2c1.9,0,3.7-1.6,3.7-3.7c0-2-1.7-3.7-3.7-3.7h-48.2V466.7z M551.1,482.8
		c0-2.9-2.4-5.3-5.3-5.3h-48.2v10.7h48.2C548.6,488.1,551.1,485.8,551.1,482.8z"/>
	<path class="st6" d="M638.6,489.9H591l-6.1,9h-16.1l34.3-50.4h23.6l34.3,50.4h-16.1L638.6,489.9z M631.3,479.1l-16.5-24.3
		l-16.5,24.3H631.3z"/>
	<path class="st6" d="M731.6,459.3h-36.1v39.6h-14.4v-39.6h-35.9v-10.8h86.4V459.3z"/>
	<path class="st6" d="M819.8,498.9h-20.3l-22.5-15.6h-26.8v15.6h-14.4v-50.4h61.2c13.9,0,21.7,7.8,21.7,17.4
		c0,9.6-7.8,17.4-21.7,17.4L819.8,498.9z M797.1,472.6c3.6,0,6.6-3,6.6-6.6c0-3.7-3-6.6-6.6-6.6h-46.8v13.2H797.1z"/>
	<path class="st6" d="M827.4,473.7c0-17.5,15.9-27.1,42.3-27.1s42.2,9.6,42.2,27.1c0,17.5-15.8,27.1-42.2,27.1
		S827.4,491.2,827.4,473.7z M897.4,473.7c0-10.7-10.5-16.3-27.8-16.3c-17.4,0-27.9,5.6-27.9,16.3c0,10.7,10.5,16.3,27.9,16.3
		C886.9,490,897.4,484.4,897.4,473.7z"/>
	<path class="st6" d="M985,484.2c0-3-4.5-4.1-23.8-5.8c-33.6-2.9-41.1-7.3-41.1-16.8c0-11.9,17-14.9,40-14.9c12.9,0,30,3.5,36.4,8
		l-8.5,7.9c-5.5-2.8-15.8-5.1-27.9-5.1c-15.6,0-25.7,0.9-25.7,3.5c0,2.8,6,4.2,27.5,6c26.4,2.3,37.6,7.1,37.6,17.8
		c0,12.9-18.7,16-40.1,16c-13.6,0-33.8-3.2-41-9.1l9.1-8.6c6.7,4.4,19.3,7,31.9,7C974.7,490,985,488.1,985,484.2z"/>
	<path class="st6" d="M120.8,534.9l-19.2,50.4h-24l-16.6-43.6l-16.6,43.6h-24L1.4,534.9h15.2l16,43.7l16.6-43.7H73l16.6,43.7
		l16-43.7H120.8z"/>
	<path class="st6" d="M190.7,576.3h-47.7l-6.1,9h-16.1l34.3-50.4h23.6l34.3,50.4h-16.1L190.7,576.3z M183.4,565.5l-16.5-24.3
		l-16.5,24.3H183.4z"/>
	<path class="st6" d="M273.6,585.3l-42.6-26v26h-14.4v-50.4H231v22.8l39.8-22.8H293l-41.9,23.5l44.7,26.9H273.6z"/>
	<path class="st6" d="M315.3,545.7v7.8h57.5v10.8h-57.5v10.2h65.1v10.8h-79.5v-50.4h79.5v10.8H315.3z"/>
	<path class="st6" d="M525.1,585.3h-14.4v-44l-21.7,44h-21.5l-21.7-44v44h-14.4v-50.4h26.2l20.6,43.1l20.6-43.1h26.2V585.3z"/>
	<path class="st6" d="M548.1,545.7v7.8h57.5v10.8h-57.5v10.2h65.1v10.8h-79.5v-50.4h79.5v10.8H548.1z"/>
	<path class="st6" d="M745.6,534.9l-0.1,25.2c0,17.5-15.2,27.1-40.8,27.1c-25.6,0-40.8-9.6-40.8-27.1l-0.1-25.2h14.4l0.1,25.2
		c0,10.7,9.6,16.3,26.4,16.3c16.7,0,26.4-5.6,26.4-16.3l0.1-25.2H745.6z"/>
	<path class="st6" d="M836.9,552.4c0,9.6-7.8,17.4-21.7,17.4h-46.8v15.6h-14.4v-50.4h61.2C829,534.9,836.9,542.8,836.9,552.4z
		 M821.7,552.4c0-3.7-3-6.6-6.6-6.6h-46.8V559h46.8C818.7,559,821.7,556,821.7,552.4z"/>
</g>
<g id="Layer_5" class="st0">
	<rect x="15" y="38.7" class="st1" width="1032.1" height="622.6"/>
	<text transform="matrix(1 0 0 1 15.0012 79.4684)" class="st2"><tspan x="0" y="0" class="st7 st3 st8">SHIP IS F</tspan><tspan x="375.6" y="0" class="st7 st3 st8 st9">L</tspan><tspan x="423.8" y="0" class="st7 st3 st8">OODING </tspan><tspan x="0" y="57.6" class="st7 st3 st8">WINTER LINN UNFURLA </tspan><tspan x="0" y="115.2" class="st7 st3 st8">STREN</tspan><tspan x="295.6" y="115.2" class="st7 st3 st8 st9">G</tspan><tspan x="354.2" y="115.2" class="st7 st3 st8">TH TH</tspan><tspan x="613.4" y="115.2" class="st7 st3 st8">R</tspan><tspan x="673.2" y="115.2" class="st7 st3 st8">OUGH </tspan><tspan x="0" y="172.8" class="st7 st3 st8">FRAGILITY SODIUM </tspan><tspan x="0" y="230.4" class="st7 st3 st8">TRIMME</tspan><tspan x="327.8" y="230.4" class="st7 st3 st8">R</tspan><tspan x="387.6" y="230.4" class="st7 st3 st8">S </tspan><tspan x="474.4" y="230.4" class="st7 st3 st8">B</tspan><tspan x="533.6" y="230.4" class="st7 st3 st8">ANJO </tspan><tspan x="0" y="288" class="st7 st3 st8">SNOWBIRD THE GRIT IN </tspan><tspan x="0" y="345.6" class="st7 st3 st8">THE PEARL BE</tspan><tspan x="638.8" y="345.6" class="st7 st3 st8 st10">A</tspan><tspan x="695.4" y="345.6" class="st7 st3 st8">CON </tspan><tspan x="0" y="403.2" class="st7 st3 st8">P</tspan><tspan x="58.7" y="403.2" class="st7 st3 st8">ETROLEUM TINGED </tspan><tspan x="0" y="460.8" class="st7 st3 st8">SI</tspan><tspan x="72.8" y="460.8" class="st7 st3 st8 st11">L</tspan><tspan x="114.3" y="460.8" class="st7 st3 st8">VERED IRIS THERE IS </tspan><tspan x="0" y="518.4" class="st7 st3 st8">A DIS</tspan><tspan x="222.1" y="518.4" class="st7 st3 st8 st12">T</tspan><tspan x="273.9" y="518.4" class="st7 st3 st8">ANCE IN </tspan><tspan x="644.8" y="518.4" class="st7 st3 st8 st10">Y</tspan><tspan x="696.9" y="518.4" class="st7 st3 st8">OU</tspan></text>
</g>
<g id="Layer_5_copy">
	<g>
		<path class="st7" d="M47.3,25c0-2-3-2.7-15.9-3.8C9,19.2,4,16.3,4,9.9C4,2,15.4,0,30.7,0c8.6,0,20,2.4,24.2,5.3l-5.7,5.3
			c-3.6-1.9-10.5-3.4-18.6-3.4c-10.4,0-17.1,0.6-17.1,2.4c0,1.9,4,2.8,18.3,4C49.5,15.1,57,18.3,57,25.4c0,8.6-12.5,10.7-26.7,10.7
			c-9.1,0-22.6-2.2-27.4-6.1L9,24.2c4.5,2.9,12.9,4.7,21.3,4.7C40.5,28.9,47.3,27.7,47.3,25z"/>
		<path class="st7" d="M114.1,1.2v33.6h-9.6V20.4H70.9v14.4h-9.6V1.2h9.6v12h33.6v-12H114.1z"/>
		<path class="st7" d="M129,1.2v33.6h-9.6V1.2H129z"/>
		<path class="st7" d="M189.6,12.9c0,6.4-5.2,11.6-14.5,11.6h-31.2v10.4h-9.6V1.2h40.8C184.3,1.2,189.6,6.5,189.6,12.9z M179.5,12.9
			c0-2.4-2-4.4-4.4-4.4h-31.2v8.8h31.2C177.5,17.3,179.5,15.3,179.5,12.9z"/>
		<path class="st7" d="M232.3,1.2v33.6h-9.6V1.2H232.3z"/>
		<path class="st7" d="M281,25c0-2-3-2.7-15.9-3.8c-22.4-1.9-27.4-4.8-27.4-11.2c0-7.9,11.3-9.9,26.7-9.9c8.6,0,20,2.4,24.2,5.3
			l-5.7,5.3c-3.6-1.9-10.5-3.4-18.6-3.4c-10.4,0-17.1,0.6-17.1,2.4c0,1.9,4,2.8,18.3,4c17.6,1.5,25.1,4.8,25.1,11.9
			c0,8.6-12.5,10.7-26.7,10.7c-9.1,0-22.6-2.2-27.4-6.1l6.1-5.8c4.5,2.9,12.9,4.7,21.3,4.7C274.2,28.9,281,27.7,281,25z"/>
		<path class="st7" d="M333.4,8.4v7.7h35.9v7.2h-35.9v11.5h-9.6V1.2h50.6v7.2H333.4z"/>
		<path class="st7" d="M425.2,27.7v7.2h-45.8V1.2h9.6v26.4H425.2z"/>
		<path class="st7" d="M427.1,18c0-11.7,10.6-18,28.2-18s28.1,6.4,28.1,18s-10.6,18-28.1,18S427.1,29.7,427.1,18z M473.9,18
			c0-7.1-7-10.8-18.5-10.8c-11.6,0-18.6,3.7-18.6,10.8c0,7.1,7,10.8,18.6,10.8C466.8,28.9,473.9,25.2,473.9,18z"/>
		<path class="st7" d="M487.3,18c0-11.7,10.6-18,28.2-18s28.1,6.4,28.1,18s-10.6,18-28.1,18S487.3,29.7,487.3,18z M534,18
			c0-7.1-7-10.8-18.5-10.8c-11.6,0-18.6,3.7-18.6,10.8c0,7.1,7,10.8,18.6,10.8C527,28.9,534,25.2,534,18z"/>
		<path class="st7" d="M603.4,18c0,10.6-9.2,16.8-26.7,16.8h-27.7V1.2h27.7C594.2,1.2,603.4,7.4,603.4,18z M593.8,18
			c0-6-5.6-9.6-17.1-9.6h-18.1v19.2h18.1C588.1,27.7,593.8,24.1,593.8,18z"/>
		<path class="st7" d="M618.5,1.2v33.6h-9.6V1.2H618.5z"/>
		<path class="st7" d="M679,1.2v33.6h-17.8L633.4,4.9v29.9h-9.6V1.2h17.8l27.9,29.9V1.2H679z"/>
		<path class="st7" d="M740.1,14.6v4.4c0,10.7-10,17-27.6,17c-17.6,0-28.2-6.4-28.2-18s10.6-18,28.2-18c9.8,0,17.3,1.6,22.1,5.6
			l-6.4,6c-3-3.1-8.4-4.3-15.7-4.3c-11.6,0-18.6,3.7-18.6,10.8c0,7.1,7,10.8,18.6,10.8c9.6,0,15.7-2.6,17.5-7.1h-22.5v-7.2H740.1z"
			/>
		<path class="st7" d="M79.6,58.8L66.8,92.5h-16l-11-29l-11,29h-16L0,58.8h10.1L20.8,88l11.1-29.1h15.8L58.8,88l10.7-29.1H79.6z"/>
		<path class="st7" d="M91.1,58.8v33.6h-9.6V58.8H91.1z"/>
		<path class="st7" d="M151.6,58.8v33.6h-17.8L106,62.5v29.9h-9.6V58.8h17.8L142,88.8V58.8H151.6z"/>
		<path class="st7" d="M212.1,66h-24.1v26.4h-9.6V66h-24v-7.2h57.6V66z"/>
		<path class="st7" d="M224.6,66v5.2h38.3v7.2h-38.3v6.8H268v7.2h-53V58.8h53V66H224.6z"/>
		<path class="st7" d="M329.2,92.5h-13.5l-15-10.4h-17.9v10.4h-9.6V58.8h40.8c9.3,0,14.5,5.2,14.5,11.6c0,6.4-5.2,11.6-14.5,11.6
			L329.2,92.5z M314.1,74.9c2.4,0,4.4-2,4.4-4.4c0-2.4-2-4.4-4.4-4.4h-31.2v8.8H314.1z"/>
		<path class="st7" d="M408.6,85.2v7.2h-45.8V58.8h9.6v26.4H408.6z"/>
		<path class="st7" d="M422.5,58.8v33.6h-9.6V58.8H422.5z"/>
		<path class="st7" d="M483.1,58.8v33.6h-17.8l-27.9-29.9v29.9h-9.6V58.8h17.8l27.9,29.9V58.8H483.1z"/>
		<path class="st7" d="M544.1,58.8v33.6h-17.8l-27.9-29.9v29.9h-9.6V58.8h17.8l27.9,29.9V58.8H544.1z"/>
		<path class="st7" d="M632.8,58.8l0,16.8c0,11.7-10.1,18-27.2,18s-27.2-6.4-27.2-18l0-16.8h9.6l0,16.8c0,7.1,6.4,10.8,17.6,10.8
			c11.1,0,17.6-3.7,17.6-10.8l0-16.8H632.8z"/>
		<path class="st7" d="M693.6,58.8v33.6h-17.8l-27.9-29.9v29.9h-9.6V58.8h17.8L684,88.8V58.8H693.6z"/>
		<path class="st7" d="M708.5,66v7.7h35.9v7.2h-35.9v11.5h-9.6V58.8h50.6V66H708.5z"/>
		<path class="st7" d="M808.7,58.8l0,16.8c0,11.7-10.1,18-27.2,18c-17,0-27.2-6.4-27.2-18l0-16.8h9.6l0,16.8
			c0,7.1,6.4,10.8,17.6,10.8s17.6-3.7,17.6-10.8l0-16.8H808.7z"/>
		<path class="st7" d="M870.2,92.5h-13.5l-15-10.4h-17.9v10.4h-9.6V58.8H855c9.3,0,14.5,5.2,14.5,11.6c0,6.4-5.2,11.6-14.5,11.6
			L870.2,92.5z M855,74.9c2.4,0,4.4-2,4.4-4.4c0-2.4-2-4.4-4.4-4.4h-31.2v8.8H855z"/>
		<path class="st7" d="M920.8,85.2v7.2H875V58.8h9.6v26.4H920.8z"/>
		<path class="st7" d="M969.3,86.5h-31.8l-4.1,6h-10.8l22.9-33.6h15.7l22.8,33.6h-10.8L969.3,86.5z M964.4,79.2l-11-16.2l-11,16.2
			H964.4z"/>
		<path class="st7" d="M47.3,140.2c0-2-3-2.7-15.9-3.8C9,134.4,4,131.5,4,125.1c0-7.9,11.3-9.9,26.7-9.9c8.6,0,20,2.4,24.2,5.3
			l-5.7,5.3c-3.6-1.9-10.5-3.4-18.6-3.4c-10.4,0-17.1,0.6-17.1,2.4c0,1.9,4,2.8,18.3,4c17.6,1.5,25.1,4.8,25.1,11.9
			c0,8.6-12.5,10.7-26.7,10.7c-9.1,0-22.6-2.2-27.4-6.1l6.1-5.8c4.5,2.9,12.9,4.7,21.3,4.7C40.5,144.1,47.3,142.9,47.3,140.2z"/>
		<path class="st7" d="M115.5,123.6H91.5v26.4h-9.6v-26.4h-24v-7.2h57.6V123.6z"/>
		<path class="st7" d="M174.4,150.1h-13.5l-15-10.4H128v10.4h-9.6v-33.6h40.8c9.3,0,14.5,5.2,14.5,11.6c0,6.4-5.2,11.6-14.5,11.6
			L174.4,150.1z M159.2,132.5c2.4,0,4.4-2,4.4-4.4c0-2.4-2-4.4-4.4-4.4H128v8.8H159.2z"/>
		<path class="st7" d="M188.8,123.6v5.2h38.3v7.2h-38.3v6.8h43.4v7.2h-53v-33.6h53v7.2H188.8z"/>
		<path class="st7" d="M292.7,116.4v33.6h-17.8l-27.9-29.9v29.9h-9.6v-33.6h17.8l27.9,29.9v-29.9H292.7z"/>
		<path class="st7" d="M353.8,129.8v4.4c0,10.7-10,17-27.6,17s-28.2-6.4-28.2-18s10.6-18,28.2-18c9.8,0,17.3,1.6,22.1,5.6l-6.4,6
			c-3-3.1-8.4-4.3-15.7-4.3c-11.6,0-18.6,3.7-18.6,10.8c0,7.1,7,10.8,18.6,10.8c9.6,0,15.7-2.6,17.5-7.1h-22.5v-7.2H353.8z"/>
		<path class="st7" d="M411.8,123.6h-24.1v26.4h-9.6v-26.4h-24v-7.2h57.6V123.6z"/>
		<path class="st7" d="M467,116.4v33.6h-9.6v-14.4h-33.6v14.4h-9.6v-33.6h9.6v12h33.6v-12H467z"/>
		<path class="st7" d="M555.8,123.6h-24.1v26.4h-9.6v-26.4h-24v-7.2h57.6V123.6z"/>
		<path class="st7" d="M611,116.4v33.6h-9.6v-14.4h-33.6v14.4h-9.6v-33.6h9.6v12h33.6v-12H611z"/>
		<path class="st7" d="M672.3,150.1h-13.5l-15-10.4h-17.9v10.4h-9.6v-33.6h40.8c9.3,0,14.5,5.2,14.5,11.6c0,6.4-5.2,11.6-14.5,11.6
			L672.3,150.1z M657.1,132.5c2.4,0,4.4-2,4.4-4.4c0-2.4-2-4.4-4.4-4.4h-31.2v8.8H657.1z"/>
		<path class="st7" d="M675.6,133.2c0-11.7,10.6-18,28.2-18s28.1,6.4,28.1,18s-10.6,18-28.1,18S675.6,144.9,675.6,133.2z
			 M722.4,133.2c0-7.1-7-10.8-18.5-10.8c-11.6,0-18.6,3.7-18.6,10.8c0,7.1,7,10.8,18.6,10.8C715.3,144.1,722.4,140.4,722.4,133.2z"
			/>
		<path class="st7" d="M791.4,116.4l0,16.8c0,11.7-10.1,18-27.2,18c-17,0-27.2-6.4-27.2-18l0-16.8h9.6l0,16.8
			c0,7.1,6.4,10.8,17.6,10.8s17.6-3.7,17.6-10.8l0-16.8H791.4z"/>
		<path class="st7" d="M852.2,129.8v4.4c0,10.7-10,17-27.6,17c-17.6,0-28.2-6.4-28.2-18s10.6-18,28.2-18c9.8,0,17.3,1.6,22.1,5.6
			l-6.4,6c-3-3.1-8.4-4.3-15.7-4.3c-11.6,0-18.6,3.7-18.6,10.8c0,7.1,7,10.8,18.6,10.8c9.6,0,15.7-2.6,17.5-7.1h-22.5v-7.2H852.2z"
			/>
		<path class="st7" d="M909.8,116.4v33.6h-9.6v-14.4h-33.6v14.4H857v-33.6h9.6v12h33.6v-12H909.8z"/>
		<path class="st7" d="M13,181.2v7.7h35.9v7.2H13v11.5H3.4V174H54v7.2H13z"/>
		<path class="st7" d="M115,207.7h-13.5l-15-10.4H68.6v10.4H59V174h40.8c9.3,0,14.5,5.2,14.5,11.6c0,6.4-5.2,11.6-14.5,11.6
			L115,207.7z M99.8,190.1c2.4,0,4.4-2,4.4-4.4c0-2.4-2-4.4-4.4-4.4H68.6v8.8H99.8z"/>
		<path class="st7" d="M161.6,201.7h-31.8l-4.1,6H115l22.9-33.6h15.7l22.9,33.6h-10.8L161.6,201.7z M156.7,194.4l-11-16.2l-11,16.2
			H156.7z"/>
		<path class="st7" d="M229.8,187.4v4.4c0,10.7-10,17-27.6,17s-28.2-6.4-28.2-18s10.6-18,28.2-18c9.8,0,17.3,1.6,22.1,5.6l-6.4,6
			c-3-3.1-8.4-4.3-15.7-4.3c-11.6,0-18.6,3.7-18.6,10.8c0,7.1,7,10.8,18.6,10.8c9.6,0,15.7-2.6,17.5-7.1h-22.5v-7.2H229.8z"/>
		<path class="st7" d="M244.7,174v33.6h-9.6V174H244.7z"/>
		<path class="st7" d="M295.7,200.5v7.2h-45.8V174h9.6v26.4H295.7z"/>
		<path class="st7" d="M309.6,174v33.6H300V174H309.6z"/>
		<path class="st7" d="M369.7,181.2h-24.1v26.4H336v-26.4h-24V174h57.6V181.2z"/>
		<path class="st7" d="M402.4,192.2v15.5h-9.6v-15.5L369.6,174h13.1l14.9,11.7l14.9-11.7h13.1L402.4,192.2z"/>
		<path class="st7" d="M500.7,197.8c0-2-3-2.7-15.9-3.8c-22.4-1.9-27.4-4.8-27.4-11.2c0-7.9,11.3-9.9,26.7-9.9
			c8.6,0,20,2.4,24.2,5.3l-5.7,5.3c-3.6-1.9-10.5-3.4-18.6-3.4c-10.4,0-17.1,0.6-17.1,2.4c0,1.9,4,2.8,18.3,4
			c17.6,1.5,25.1,4.8,25.1,11.9c0,8.6-12.5,10.7-26.7,10.7c-9.1,0-22.6-2.2-27.4-6.1l6.1-5.8c4.5,2.9,12.9,4.7,21.3,4.7
			C493.9,201.7,500.7,200.5,500.7,197.8z"/>
		<path class="st7" d="M514.2,190.8c0-11.7,10.6-18,28.2-18s28.1,6.4,28.1,18s-10.6,18-28.1,18S514.2,202.5,514.2,190.8z
			 M560.9,190.8c0-7.1-7-10.8-18.5-10.8c-11.6,0-18.6,3.7-18.6,10.8c0,7.1,7,10.8,18.6,10.8C553.9,201.7,560.9,198,560.9,190.8z"/>
		<path class="st7" d="M630.3,190.8c0,10.6-9.2,16.8-26.7,16.8h-27.7V174h27.7C621.1,174,630.3,180.2,630.3,190.8z M620.7,190.8
			c0-6-5.6-9.6-17.1-9.6h-18.1v19.2h18.1C615.1,200.5,620.7,196.9,620.7,190.8z"/>
		<path class="st7" d="M645.4,174v33.6h-9.6V174H645.4z"/>
		<path class="st7" d="M704.9,174l0,16.8c0,11.7-10.1,18-27.2,18c-17,0-27.2-6.4-27.2-18l0-16.8h9.6l0,16.8
			c0,7.1,6.4,10.8,17.6,10.8s17.6-3.7,17.6-10.8l0-16.8H704.9z"/>
		<path class="st7" d="M772.8,207.7h-9.6v-29.3l-14.4,29.3h-14.3L720,178.3v29.3h-9.6V174h17.5l13.7,28.7l13.7-28.7h17.5V207.7z"/>
		<path class="st7" d="M58.6,238.8H34.5v26.4h-9.6v-26.4H1v-7.2h57.6V238.8z"/>
		<path class="st7" d="M117.4,265.3h-13.5l-15-10.4H71v10.4h-9.6v-33.6h40.8c9.3,0,14.5,5.2,14.5,11.6c0,6.4-5.2,11.6-14.5,11.6
			L117.4,265.3z M102.2,247.7c2.4,0,4.4-2,4.4-4.4c0-2.4-2-4.4-4.4-4.4H71v8.8H102.2z"/>
		<path class="st7" d="M131.8,231.6v33.6h-9.6v-33.6H131.8z"/>
		<path class="st7" d="M199.5,265.3h-9.6v-29.3l-14.4,29.3h-14.3l-14.4-29.3v29.3h-9.6v-33.6h17.5l13.7,28.7l13.7-28.7h17.5V265.3z"
			/>
		<path class="st7" d="M267.7,265.3h-9.6v-29.3l-14.4,29.3h-14.3l-14.4-29.3v29.3h-9.6v-33.6h17.5l13.7,28.7l13.7-28.7h17.5V265.3z"
			/>
		<path class="st7" d="M283,238.8v5.2h38.3v7.2H283v6.8h43.4v7.2h-53v-33.6h53v7.2H283z"/>
		<path class="st7" d="M387.7,265.3h-13.5l-15-10.4h-17.9v10.4h-9.6v-33.6h40.8c9.3,0,14.5,5.2,14.5,11.6c0,6.4-5.2,11.6-14.5,11.6
			L387.7,265.3z M372.5,247.7c2.4,0,4.4-2,4.4-4.4c0-2.4-2-4.4-4.4-4.4h-31.2v8.8H372.5z"/>
		<path class="st7" d="M435,255.4c0-2-3-2.7-15.9-3.8c-22.4-1.9-27.4-4.8-27.4-11.2c0-7.9,11.3-9.9,26.7-9.9c8.6,0,20,2.4,24.2,5.3
			l-5.7,5.3c-3.6-1.9-10.5-3.4-18.6-3.4c-10.4,0-17.1,0.6-17.1,2.4c0,1.9,4,2.8,18.3,4c17.6,1.5,25.1,4.8,25.1,11.9
			c0,8.6-12.5,10.7-26.7,10.7c-9.1,0-22.6-2.2-27.4-6.1l6.1-5.8c4.5,2.9,12.9,4.7,21.3,4.7C428.1,259.3,435,258.1,435,255.4z"/>
		<path class="st7" d="M533.4,254.5c0,6-4.8,10.8-13.4,10.8h-41.8v-33.6H520c7.7,0,12,4.4,12,9.6c0,2.3-1.3,4.3-3.1,6
			C531.4,249.1,533.4,251.7,533.4,254.5z M487.8,243.7H520c1.3,0,2.4-1.1,2.4-2.4c0-1.3-1.2-2.4-2.4-2.4h-32.2V243.7z M523.5,254.5
			c0-1.9-1.6-3.6-3.6-3.6h-32.2v7.1H520C521.9,258.1,523.5,256.5,523.5,254.5z"/>
		<path class="st7" d="M580.7,259.3h-31.8l-4.1,6h-10.8l22.9-33.6h15.7l22.9,33.6h-10.8L580.7,259.3z M575.8,252l-11-16.2l-11,16.2
			H575.8z"/>
		<path class="st7" d="M653.2,231.6v33.6h-17.8l-27.9-29.9v29.9h-9.6v-33.6h17.8l27.9,29.9v-29.9H653.2z"/>
		<path class="st7" d="M704.3,231.6l0,16.8c0,11.7-10.1,18-27.2,18c-9.2,0-16.3-1.8-21-5.3l6.3-5.6c4.5,2.8,9,3.7,14.7,3.7
			c11.1,0,17.6-3.7,17.6-10.8l0-16.8H704.3z"/>
		<path class="st7" d="M709.3,248.4c0-11.7,10.6-18,28.2-18c17.6,0,28.1,6.4,28.1,18s-10.6,18-28.1,18
			C719.9,266.5,709.3,260.1,709.3,248.4z M756,248.4c0-7.1-7-10.8-18.5-10.8c-11.6,0-18.6,3.7-18.6,10.8c0,7.1,7,10.8,18.6,10.8
			C749,259.3,756,255.6,756,248.4z"/>
		<path class="st7" d="M47.3,313c0-2-3-2.7-15.9-3.8C9,307.2,4,304.3,4,297.9c0-7.9,11.3-9.9,26.7-9.9c8.6,0,20,2.4,24.2,5.3
			l-5.7,5.3c-3.6-1.9-10.5-3.4-18.6-3.4c-10.4,0-17.1,0.6-17.1,2.4c0,1.9,4,2.8,18.3,4c17.6,1.5,25.1,4.8,25.1,11.9
			c0,8.6-12.5,10.7-26.7,10.7c-9.1,0-22.6-2.2-27.4-6.1l6.1-5.8c4.5,2.9,12.9,4.7,21.3,4.7C40.5,316.9,47.3,315.7,47.3,313z"/>
		<path class="st7" d="M117,289.2v33.6H99.3l-27.9-29.9v29.9h-9.6v-33.6h17.8l27.9,29.9v-29.9H117z"/>
		<path class="st7" d="M122.3,306c0-11.7,10.6-18,28.2-18s28.1,6.4,28.1,18s-10.6,18-28.1,18S122.3,317.7,122.3,306z M169,306
			c0-7.1-7-10.8-18.5-10.8c-11.6,0-18.6,3.7-18.6,10.8c0,7.1,7,10.8,18.6,10.8C162,316.9,169,313.2,169,306z"/>
		<path class="st7" d="M257.2,289.2l-12.8,33.6h-16l-11-29l-11,29h-16l-12.8-33.6h10.1l10.7,29.1l11.1-29.1h15.8l11.1,29.1
			l10.7-29.1H257.2z"/>
		<path class="st7" d="M314.3,312.1c0,6-4.8,10.8-13.4,10.8h-41.8v-33.6h41.8c7.7,0,12,4.4,12,9.6c0,2.3-1.3,4.3-3.1,6
			C312.3,306.7,314.3,309.3,314.3,312.1z M268.8,301.3h32.2c1.3,0,2.4-1.1,2.4-2.4c0-1.3-1.2-2.4-2.4-2.4h-32.2V301.3z M304.5,312.1
			c0-1.9-1.6-3.6-3.6-3.6h-32.2v7.1h32.2C302.8,315.7,304.5,314.1,304.5,312.1z"/>
		<path class="st7" d="M328.9,289.2v33.6h-9.6v-33.6H328.9z"/>
		<path class="st7" d="M390.2,322.9h-13.5l-15-10.4h-17.9v10.4h-9.6v-33.6H375c9.3,0,14.5,5.2,14.5,11.6c0,6.4-5.2,11.6-14.5,11.6
			L390.2,322.9z M375,305.3c2.4,0,4.4-2,4.4-4.4c0-2.4-2-4.4-4.4-4.4h-31.2v8.8H375z"/>
		<path class="st7" d="M449.5,306c0,10.6-9.2,16.8-26.7,16.8H395v-33.6h27.7C440.3,289.2,449.5,295.4,449.5,306z M439.9,306
			c0-6-5.6-9.6-17.1-9.6h-18.1v19.2h18.1C434.3,315.7,439.9,312.1,439.9,306z"/>
		<path class="st7" d="M538.5,296.4h-24.1v26.4h-9.6v-26.4h-24v-7.2h57.6V296.4z"/>
		<path class="st7" d="M593.7,289.2v33.6h-9.6v-14.4h-33.6v14.4h-9.6v-33.6h9.6v12h33.6v-12H593.7z"/>
		<path class="st7" d="M608.6,296.4v5.2h38.3v7.2h-38.3v6.8H652v7.2h-53v-33.6h53v7.2H608.6z"/>
		<path class="st7" d="M741.4,302.6v4.4c0,10.7-10,17-27.6,17c-17.6,0-28.2-6.4-28.2-18s10.6-18,28.2-18c9.8,0,17.3,1.6,22.1,5.6
			l-6.4,6c-3-3.1-8.4-4.3-15.7-4.3c-11.6,0-18.6,3.7-18.6,10.8c0,7.1,7,10.8,18.6,10.8c9.6,0,15.7-2.6,17.5-7.1h-22.5v-7.2H741.4z"
			/>
		<path class="st7" d="M802.6,322.9h-13.5l-15-10.4h-17.9v10.4h-9.6v-33.6h40.8c9.3,0,14.5,5.2,14.5,11.6c0,6.4-5.2,11.6-14.5,11.6
			L802.6,322.9z M787.4,305.3c2.4,0,4.4-2,4.4-4.4c0-2.4-2-4.4-4.4-4.4h-31.2v8.8H787.4z"/>
		<path class="st7" d="M817,289.2v33.6h-9.6v-33.6H817z"/>
		<path class="st7" d="M877,296.4H853v26.4h-9.6v-26.4h-24v-7.2H877V296.4z"/>
		<path class="st7" d="M918.3,289.2v33.6h-9.6v-33.6H918.3z"/>
		<path class="st7" d="M978.8,289.2v33.6h-17.8l-27.9-29.9v29.9h-9.6v-33.6h17.8l27.9,29.9v-29.9H978.8z"/>
		<path class="st7" d="M58.6,354H34.5v26.4h-9.6V354H1v-7.2h57.6V354z"/>
		<path class="st7" d="M113.8,346.8v33.6h-9.6V366H70.6v14.4H61v-33.6h9.6v12h33.6v-12H113.8z"/>
		<path class="st7" d="M128.6,354v5.2h38.3v7.2h-38.3v6.8H172v7.2h-53v-33.6h53v7.2H128.6z"/>
		<path class="st7" d="M261.4,358.5c0,6.4-5.2,11.6-14.5,11.6h-31.2v10.4h-9.6v-33.6h40.8C256.2,346.8,261.4,352.1,261.4,358.5z
			 M251.3,358.5c0-2.4-2-4.4-4.4-4.4h-31.2v8.8h31.2C249.3,362.9,251.3,360.9,251.3,358.5z"/>
		<path class="st7" d="M275.3,354v5.2h38.3v7.2h-38.3v6.8h43.4v7.2h-53v-33.6h53v7.2H275.3z"/>
		<path class="st7" d="M367.2,374.5h-31.8l-4.1,6h-10.8l22.9-33.6h15.7l22.9,33.6h-10.8L367.2,374.5z M362.4,367.2l-11-16.2
			l-11,16.2H362.4z"/>
		<path class="st7" d="M440.4,380.5h-13.5l-15-10.4h-17.9v10.4h-9.6v-33.6h40.8c9.3,0,14.5,5.2,14.5,11.6c0,6.4-5.2,11.6-14.5,11.6
			L440.4,380.5z M425.3,362.9c2.4,0,4.4-2,4.4-4.4c0-2.4-2-4.4-4.4-4.4h-31.2v8.8H425.3z"/>
		<path class="st7" d="M491,373.2v7.2h-45.8v-33.6h9.6v26.4H491z"/>
		<path class="st7" d="M579.3,369.6c0,6-4.8,10.8-13.4,10.8h-41.8v-33.6h41.8c7.7,0,12,4.4,12,9.6c0,2.3-1.3,4.3-3.1,6
			C577.3,364.3,579.3,366.9,579.3,369.6z M533.8,358.9h32.2c1.3,0,2.4-1.1,2.4-2.4c0-1.3-1.2-2.4-2.4-2.4h-32.2V358.9z M569.5,369.7
			c0-1.9-1.6-3.6-3.6-3.6h-32.2v7.1h32.2C567.8,373.2,569.5,371.7,569.5,369.7z"/>
		<path class="st7" d="M593.9,354v5.2h38.3v7.2h-38.3v6.8h43.4v7.2h-53v-33.6h53v7.2H593.9z"/>
		<path class="st7" d="M685.9,374.5h-31.8l-4.1,6h-10.8l22.9-33.6h15.7l22.9,33.6H690L685.9,374.5z M681,367.2l-11-16.2l-11,16.2
			H681z"/>
		<path class="st7" d="M752.1,371.6c-3.9,6.5-12.9,10.2-25.8,10.2c-17.6,0-28-6.5-28-18.1s10.4-18.1,28-18.1
			c12.8,0,21.8,3.6,25.7,10.2l-9.1,2.9c-2.7-3.8-8.5-5.9-16.7-5.9c-11.6,0-18.4,3.8-18.4,10.9c0,7.1,6.8,10.9,18.4,10.9
			c8.3,0,14.1-2.2,16.8-6L752.1,371.6z"/>
		<path class="st7" d="M756.4,363.6c0-11.7,10.6-18,28.2-18c17.6,0,28.1,6.4,28.1,18s-10.6,18-28.1,18
			C767,381.7,756.4,375.3,756.4,363.6z M803.1,363.6c0-7.1-7-10.8-18.5-10.8c-11.6,0-18.6,3.7-18.6,10.8c0,7.1,7,10.8,18.6,10.8
			C796.1,374.5,803.1,370.8,803.1,363.6z"/>
		<path class="st7" d="M873.2,346.8v33.6h-17.8l-27.9-29.9v29.9H818v-33.6h17.8l27.9,29.9v-29.9H873.2z"/>
		<path class="st7" d="M59.1,416.1c0,6.4-5.2,11.6-14.5,11.6H13.4v10.4H3.8v-33.6h40.8C53.9,404.4,59.1,409.7,59.1,416.1z
			 M49.1,416.1c0-2.4-2-4.4-4.4-4.4H13.4v8.8h31.2C47,420.5,49.1,418.5,49.1,416.1z"/>
		<path class="st7" d="M72.1,411.6v5.2h38.3v7.2H72.1v6.8h43.4v7.2h-53v-33.6h53v7.2H72.1z"/>
		<path class="st7" d="M175.5,411.6h-24.1v26.4h-9.6v-26.4h-24v-7.2h57.6V411.6z"/>
		<path class="st7" d="M234.3,438.1h-13.5l-15-10.4H188v10.4h-9.6v-33.6h40.8c9.3,0,14.5,5.2,14.5,11.6c0,6.4-5.2,11.6-14.5,11.6
			L234.3,438.1z M219.2,420.5c2.4,0,4.4-2,4.4-4.4c0-2.4-2-4.4-4.4-4.4H188v8.8H219.2z"/>
		<path class="st7" d="M236.7,421.2c0-11.7,10.6-18,28.2-18s28.1,6.4,28.1,18s-10.6,18-28.1,18S236.7,432.9,236.7,421.2z
			 M283.4,421.2c0-7.1-7-10.8-18.5-10.8c-11.6,0-18.6,3.7-18.6,10.8c0,7.1,7,10.8,18.6,10.8C276.4,432.1,283.4,428.4,283.4,421.2z"
			/>
		<path class="st7" d="M344.1,430.9v7.2h-45.8v-33.6h9.6v26.4H344.1z"/>
		<path class="st7" d="M358,411.6v5.2h38.3v7.2H358v6.8h43.4v7.2h-53v-33.6h53v7.2H358z"/>
		<path class="st7" d="M460.9,404.4l0,16.8c0,11.7-10.1,18-27.2,18s-27.2-6.4-27.2-18l0-16.8h9.6l0,16.8c0,7.1,6.4,10.8,17.6,10.8
			c11.1,0,17.6-3.7,17.6-10.8l0-16.8H460.9z"/>
		<path class="st7" d="M528.8,438.1h-9.6v-29.3l-14.4,29.3h-14.3L476,408.7v29.3h-9.6v-33.6h17.5l13.7,28.7l13.7-28.7h17.5V438.1z"
			/>
		<path class="st7" d="M618.1,411.6H594v26.4h-9.6v-26.4h-24v-7.2h57.6V411.6z"/>
		<path class="st7" d="M630.6,404.4v33.6H621v-33.6H630.6z"/>
		<path class="st7" d="M691.1,404.4v33.6h-17.8l-27.9-29.9v29.9h-9.6v-33.6h17.8l27.9,29.9v-29.9H691.1z"/>
		<path class="st7" d="M752.2,417.8v4.4c0,10.7-10,17-27.6,17c-17.6,0-28.2-6.4-28.2-18s10.6-18,28.2-18c9.8,0,17.3,1.6,22.1,5.6
			l-6.4,6c-3-3.1-8.4-4.3-15.7-4.3c-11.6,0-18.6,3.7-18.6,10.8c0,7.1,7,10.8,18.6,10.8c9.6,0,15.7-2.6,17.5-7.1h-22.5v-7.2H752.2z"
			/>
		<path class="st7" d="M767,411.6v5.2h38.3v7.2H767v6.8h43.4v7.2h-53v-33.6h53v7.2H767z"/>
		<path class="st7" d="M870.2,421.2c0,10.6-9.2,16.8-26.7,16.8h-27.7v-33.6h27.7C861,404.4,870.2,410.6,870.2,421.2z M860.6,421.2
			c0-6-5.6-9.6-17.1-9.6h-18.1v19.2h18.1C855,430.9,860.6,427.3,860.6,421.2z"/>
		<path class="st7" d="M47.3,485.8c0-2-3-2.7-15.9-3.8C9,480,4,477.1,4,470.7c0-7.9,11.3-9.9,26.7-9.9c8.6,0,20,2.4,24.2,5.3
			l-5.7,5.3c-3.6-1.9-10.5-3.4-18.6-3.4c-10.4,0-17.1,0.6-17.1,2.4c0,1.9,4,2.8,18.3,4c17.6,1.5,25.1,4.8,25.1,11.9
			c0,8.6-12.5,10.7-26.7,10.7c-9.1,0-22.6-2.2-27.4-6.1L9,485c4.5,2.9,12.9,4.7,21.3,4.7C40.5,489.7,47.3,488.5,47.3,485.8z"/>
		<path class="st7" d="M71.4,462v33.6h-9.6V462H71.4z"/>
		<path class="st7" d="M122.5,488.5v7.2H76.7V462h9.6v26.4H122.5z"/>
		<path class="st7" d="M176.7,462l-22.9,33.6h-15.7L115.2,462H126l20,29.4l20-29.4H176.7z"/>
		<path class="st7" d="M189.2,469.2v5.2h38.3v7.2h-38.3v6.8h43.4v7.2h-53V462h53v7.2H189.2z"/>
		<path class="st7" d="M293.8,495.7h-13.5l-15-10.4h-17.9v10.4h-9.6V462h40.8c9.3,0,14.5,5.2,14.5,11.6c0,6.4-5.2,11.6-14.5,11.6
			L293.8,495.7z M278.6,478.1c2.4,0,4.4-2,4.4-4.4c0-2.4-2-4.4-4.4-4.4h-31.2v8.8H278.6z"/>
		<path class="st7" d="M308.2,469.2v5.2h38.3v7.2h-38.3v6.8h43.4v7.2h-53V462h53v7.2H308.2z"/>
		<path class="st7" d="M411.4,478.8c0,10.6-9.2,16.8-26.7,16.8h-27.7V462h27.7C402.2,462,411.4,468.2,411.4,478.8z M401.8,478.8
			c0-6-5.6-9.6-17.1-9.6h-18.1v19.2h18.1C396.1,488.5,401.8,484.9,401.8,478.8z"/>
		<path class="st7" d="M455.3,462v33.6h-9.6V462H455.3z"/>
		<path class="st7" d="M516.5,495.7H503l-15-10.4h-17.9v10.4h-9.6V462h40.8c9.3,0,14.5,5.2,14.5,11.6c0,6.4-5.2,11.6-14.5,11.6
			L516.5,495.7z M501.4,478.1c2.4,0,4.4-2,4.4-4.4c0-2.4-2-4.4-4.4-4.4h-31.2v8.8H501.4z"/>
		<path class="st7" d="M530.9,462v33.6h-9.6V462H530.9z"/>
		<path class="st7" d="M579.7,485.8c0-2-3-2.7-15.9-3.8c-22.4-1.9-27.4-4.8-27.4-11.2c0-7.9,11.3-9.9,26.7-9.9
			c8.6,0,20,2.4,24.2,5.3l-5.7,5.3c-3.6-1.9-10.5-3.4-18.6-3.4c-10.4,0-17.1,0.6-17.1,2.4c0,1.9,4,2.8,18.3,4
			c17.6,1.5,25.1,4.8,25.1,11.9c0,8.6-12.5,10.7-26.7,10.7c-9.1,0-22.6-2.2-27.4-6.1l6.1-5.8c4.5,2.9,12.9,4.7,21.3,4.7
			C572.8,489.7,579.7,488.5,579.7,485.8z"/>
		<path class="st7" d="M677.7,469.2h-24.1v26.4H644v-26.4h-24V462h57.6V469.2z"/>
		<path class="st7" d="M732.9,462v33.6h-9.6v-14.4h-33.6v14.4h-9.6V462h9.6v12h33.6v-12H732.9z"/>
		<path class="st7" d="M747.7,469.2v5.2H786v7.2h-38.3v6.8h43.4v7.2h-53V462h53v7.2H747.7z"/>
		<path class="st7" d="M852.4,495.7h-13.5l-15-10.4H806v10.4h-9.6V462h40.8c9.3,0,14.5,5.2,14.5,11.6c0,6.4-5.2,11.6-14.5,11.6
			L852.4,495.7z M837.2,478.1c2.4,0,4.4-2,4.4-4.4c0-2.4-2-4.4-4.4-4.4H806v8.8H837.2z"/>
		<path class="st7" d="M866.8,469.2v5.2h38.3v7.2h-38.3v6.8h43.4v7.2h-53V462h53v7.2H866.8z"/>
		<path class="st7" d="M953.9,462v33.6h-9.6V462H953.9z"/>
		<path class="st7" d="M1002.6,485.8c0-2-3-2.7-15.9-3.8c-22.4-1.9-27.4-4.8-27.4-11.2c0-7.9,11.3-9.9,26.7-9.9
			c8.6,0,20,2.4,24.2,5.3l-5.7,5.3c-3.6-1.9-10.5-3.4-18.6-3.4c-10.4,0-17.1,0.6-17.1,2.4c0,1.9,4,2.8,18.3,4
			c17.6,1.5,25.1,4.8,25.1,11.9c0,8.6-12.5,10.7-26.7,10.7c-9.1,0-22.6-2.2-27.4-6.1l6.1-5.8c4.5,2.9,12.9,4.7,21.3,4.7
			C995.8,489.7,1002.6,488.5,1002.6,485.8z"/>
		<path class="st7" d="M47.1,547.2H15.3l-4.1,6H0.5l22.9-33.6h15.7l22.9,33.6H51.2L47.1,547.2z M42.2,540l-11-16.2l-11,16.2H42.2z"
			/>
		<path class="st7" d="M147.6,536.4c0,10.6-9.2,16.8-26.7,16.8H93.1v-33.6h27.7C138.4,519.6,147.6,525.8,147.6,536.4z M138,536.4
			c0-6-5.6-9.6-17.1-9.6h-18.1v19.2h18.1C132.4,546.1,138,542.5,138,536.4z"/>
		<path class="st7" d="M162.7,519.6v33.6h-9.6v-33.6H162.7z"/>
		<path class="st7" d="M211.5,543.4c0-2-3-2.7-15.9-3.8c-22.4-1.9-27.4-4.8-27.4-11.2c0-7.9,11.3-9.9,26.7-9.9
			c8.6,0,20,2.4,24.2,5.3l-5.7,5.3c-3.6-1.9-10.5-3.4-18.6-3.4c-10.4,0-17.1,0.6-17.1,2.4c0,1.9,4,2.8,18.3,4
			c17.6,1.5,25.1,4.8,25.1,11.9c0,8.6-12.5,10.7-26.7,10.7c-9.1,0-22.6-2.2-27.4-6.1l6.1-5.8c4.5,2.9,12.9,4.7,21.3,4.7
			C204.6,547.3,211.5,546.1,211.5,543.4z"/>
		<path class="st7" d="M279.7,526.8h-24.1v26.4H246v-26.4h-24v-7.2h57.6V526.8z"/>
		<path class="st7" d="M320.1,547.2h-31.8l-4.1,6h-10.8l22.9-33.6h15.7l22.9,33.6h-10.8L320.1,547.2z M315.2,540l-11-16.2l-11,16.2
			H315.2z"/>
		<path class="st7" d="M392.5,519.6v33.6h-17.8l-27.9-29.9v29.9h-9.6v-33.6h17.8l27.9,29.9v-29.9H392.5z"/>
		<path class="st7" d="M451.1,544.4c-3.9,6.5-12.9,10.2-25.8,10.2c-17.6,0-28-6.5-28-18.1s10.4-18.1,28-18.1
			c12.8,0,21.8,3.6,25.7,10.2l-9.1,2.9c-2.7-3.8-8.5-5.9-16.7-5.9c-11.6,0-18.4,3.8-18.4,10.9s6.8,10.9,18.4,10.9
			c8.3,0,14.1-2.2,16.8-6L451.1,544.4z"/>
		<path class="st7" d="M465.5,526.8v5.2h38.3v7.2h-38.3v6.8h43.4v7.2h-53v-33.6h53v7.2H465.5z"/>
		<path class="st7" d="M552.6,519.6v33.6H543v-33.6H552.6z"/>
		<path class="st7" d="M613.1,519.6v33.6h-17.8l-27.9-29.9v29.9h-9.6v-33.6h17.8l27.9,29.9v-29.9H613.1z"/>
		<path class="st7" d="M677.5,537.8v15.5h-9.6v-15.5l-23.1-18.1h13.1l14.9,11.7l14.9-11.7h13.1L677.5,537.8z"/>
		<path class="st7" d="M699.3,536.4c0-11.7,10.6-18,28.2-18c17.6,0,28.1,6.4,28.1,18s-10.6,18-28.1,18
			C709.9,554.5,699.3,548.1,699.3,536.4z M746,536.4c0-7.1-7-10.8-18.5-10.8c-11.6,0-18.6,3.7-18.6,10.8s7,10.8,18.6,10.8
			C739,547.3,746,543.6,746,536.4z"/>
		<path class="st7" d="M815,519.6l0,16.8c0,11.7-10.1,18-27.2,18c-17,0-27.2-6.4-27.2-18l0-16.8h9.6l0,16.8
			c0,7.1,6.4,10.8,17.6,10.8s17.6-3.7,17.6-10.8l0-16.8H815z"/>
	</g>
</g>
</svg>
