<?xml version="1.0" encoding="utf-8"?>
<!-- Generator: Adobe Illustrator 19.0.1, SVG Export Plug-In . SVG Version: 6.00 Build 0)  -->
<svg version="1.1" id="Layer_1" xmlns="http://www.w3.org/2000/svg" xmlns:xlink="http://www.w3.org/1999/xlink" x="0px" y="0px"
	 viewBox="-328 165.5 781.7 750.5" style="enable-background:new -328 165.5 781.7 750.5;" xml:space="preserve">
<style type="text/css">
	.st0{display:none;}
	.st1{display:inline;fill:none;}
	.st2{display:inline;}
	.st3{font-family:'HNIRExtended-Regular';}
	.st4{font-size:72px;}
	.st5{enable-background:new    ;}
	.st6{font-size:60px;}
	.st7{fill:#FFFFFF;}
</style>
<g id="Layer_1_1_" class="st0">
	<rect x="-1476.2" y="208.4" class="st1" width="1174.9" height="874.1"/>
	<text transform="matrix(1 0 0 1 -1476.2167 258.8066)" class="st2 st3 st4">BREAKING WAVES </text>
	<text transform="matrix(1 0 0 1 -1476.2167 345.2066)" class="st2 st3 st4">WHEN I LOOK THIS </text>
	<text transform="matrix(1 0 0 1 -1476.2167 604.4066)" class="st2 st3 st4">MEMORIES I WANT </text>
	<text transform="matrix(1 0 0 1 -1476.2167 777.2067)" class="st2 st3 st4">HAPPENING AGAIN </text>
	<text transform="matrix(1 0 0 1 -1476.2167 950.0066)" class="st2 st3 st4">OWLS TIME WARP </text>
</g>
<g id="Layer_1_copy_2" class="st0">
	<rect x="-1476.2" y="208.4" class="st1" width="1244.9" height="1001.7"/>
	<text transform="matrix(1 0 0 1 -1476.2167 394.4067)" class="st2 st3 st6">PARIS FOUR HUNDRED </text>
	<text transform="matrix(1 0 0 1 -1476.2167 682.4067)" class="st2 st3 st6">CHEAP AND CHEERFUL  </text>
</g>
<g id="Layer_1_copy" class="st0">
</g>
<g id="Layer_5_copy_3">
	<g>
		<path class="st7" d="M-211.5,237.9h-79.4l-10.2,15H-328l57.1-84h39.4l57.1,84h-26.9L-211.5,237.9z M-223.7,219.9l-27.5-40.5
			l-27.5,40.5H-223.7z"/>
		<path class="st7" d="M-30.5,225.9c0,14.9-12.1,27-33.5,27h-104.4v-84H-64c19.2,0,30,10.9,30,24c0,5.6-3.2,10.8-7.8,14.9
			C-35.4,212.5-30.5,218.9-30.5,225.9z M-144.4,199.1H-64c3.2,0,6.1-2.6,6.1-6.1c0-3.4-2.9-6.1-6.1-6.1h-80.4V199.1z M-55.1,226
			c0-4.8-4.1-8.9-8.9-8.9h-80.4v17.8H-64C-59.2,234.9-55.1,231-55.1,226z"/>
		<path class="st7" d="M114.1,230.7c-9.7,16.3-32.3,25.6-64.4,25.6c-43.9,0-70-16.2-70-45.4s26-45.4,70-45.4
			c32,0,54.6,9.1,64.3,25.4l-22.7,7.3c-6.7-9.4-21.3-14.7-41.7-14.7c-28.9,0-46,9.6-46,27.4s17,27.4,46,27.4
			c20.6,0,35.3-5.4,41.9-15L114.1,230.7z"/>
		<path class="st7" d="M262.3,210.9c0,26.5-22.9,42-66.8,42h-69.4v-84h69.4C239.4,168.9,262.3,184.3,262.3,210.9z M238.3,210.9
			c0-15.1-14-24-42.8-24h-45.4v48h45.4C224.2,234.9,238.3,226,238.3,210.9z"/>
		<path class="st7" d="M299.5,186.9v13h95.8v18h-95.8v17H408v18H275.5v-84H408v18C408,186.9,299.5,186.9,299.5,186.9z"/>
		<path class="st7" d="M-296.8,296.9v19.2h89.8v18h-89.8v28.8h-24v-84h126.5v18H-296.8z"/>
		<path class="st7" d="M-44.1,312.3v11c0,26.6-25.1,42.6-69,42.6c-46.3,0-72.8-16-72.8-45.1c0-29.2,26.5-45.1,72.8-45.1
			c24.5,0,43.3,4.1,55.3,13.9l-16,14.9c-7.4-7.7-21-10.8-39.4-10.8c-31.3,0-48.8,9.4-48.8,27.1c0,17.8,17.5,27.1,48.8,27.1
			c24.1,0,39.4-6.6,43.7-17.6h-56.2v-18H-44.1L-44.1,312.3z"/>
		<path class="st7" d="M101.1,278.9v84h-24v-36.1h-84v36.1h-24v-84h24v29.9h84v-29.9H101.1L101.1,278.9z"/>
		<path class="st7" d="M139.5,278.9v84h-24v-84C115.5,278.9,139.5,278.9,139.5,278.9z"/>
		<path class="st7" d="M267.2,278.9l-0.1,42c0,29.2-25.3,45.1-67.9,45.1c-22.9,0-40.8-4.6-52.4-13.3l15.7-14
			c11.3,7,22.4,9.4,36.7,9.4c27.8,0,43.9-9.4,43.9-27.1l0.1-42h24V278.9z"/>
		<path class="st7" d="M376,362.9l-71-43.4v43.3h-24v-84h24v37.9l66.4-37.9h37.1L338.7,318l74.5,44.8L376,362.9L376,362.9z"/>
		<path class="st7" d="M-205.1,454.9v18h-114.5v-84h24v66H-205.1z"/>
		<path class="st7" d="M-38.3,472.9h-24v-73.4l-36.1,73.3h-35.8l-36.1-73.3v73.3h-24v-84h43.7l34.3,71.8l34.3-71.8h43.7V472.9z"/>
		<path class="st7" d="M114.2,388.9v84H69.1L0.1,399v73.9h-24v-84h45.1l69,73.9v-73.9H114.2z"/>
		<path class="st7" d="M127.4,430.9c0-29.2,26.5-45.1,70.4-45.1s70.3,16,70.3,45.1c0,29.2-26.4,45.1-70.3,45.1
			S127.4,460,127.4,430.9z M244.2,430.9c0-17.8-17.5-27.1-46.3-27.1c-28.9,0-46.4,9.4-46.4,27.1c0,17.8,17.5,27.1,46.4,27.1
			C226.6,458,244.2,448.6,244.2,430.9z"/>
		<path class="st7" d="M419.6,417.9c0,16-13.1,29-36.2,29h-78v25.9h-24v-84h102C406.5,388.9,419.6,401.9,419.6,417.9z M394.4,417.9
			c0-6.1-5-11-11-11h-78V429h78C389.4,428.9,394.4,423.9,394.4,417.9z"/>
		<path class="st7" d="M-184.2,587.2l-21.5-10c-11.6,5.8-27.2,8.8-46.3,8.8c-43.9,0-70-16-70-45.1c0-29.2,26-45.1,70-45.1
			c43.9,0,69.8,16,69.8,45.1c0,9.7-2.9,17.9-8.3,24.6l13.4,6.2L-184.2,587.2z M-230.3,565.7l-18-8.4l7.2-15.5l29.6,13.8
			c3.5-4,5.3-8.9,5.3-14.8c0-17.8-17-27.1-45.8-27.1c-28.9,0-46,9.4-46,27.1c0,17.8,17,27.1,46,27.1
			C-243.8,568-236.6,567.3-230.3,565.7z"/>
		<path class="st7" d="M-27.8,582.9h-32L-97.2,557h-46.2v25.9h-24v-84h102c23.2,0,36.2,13.1,36.2,29c0,16-13.1,29-36.2,29
			L-27.8,582.9z M-65.4,538.9c6,0,11-5,11-11c0-6.1-5-11-11-11h-78V539L-65.4,538.9L-65.4,538.9z"/>
		<path class="st7" d="M92.5,558.3c0-4.9-7.7-6.8-39.8-9.6c-56-4.8-68.6-11.6-68.6-28.1c0-20.4,28.4-24.8,66.8-24.8
			c21.5,0,49.9,5.9,60.6,13.3l-14.2,13.2c-9.1-4.7-26.3-8.5-46.4-8.5c-25.9,0-42.8,1.6-42.8,5.9c0,4.7,10,7.1,45.8,10.1
			c43.9,3.8,62.6,11.2,62.6,28.6c0,22.6-31.2,27.7-66.8,27.7c-22.7,0-56.4-5.4-68.4-15.2l15.2-14.4c11.2,7.3,32.2,11.6,53.2,11.6
			C75.2,568,92.5,564.9,92.5,558.3z"/>
		<path class="st7" d="M264.1,516.9H204v66h-24v-66h-59.9v-18h144V516.9z"/>
		<path class="st7" d="M407.9,498.9l-0.1,42c0,29.2-25.3,45.1-67.9,45.1c-42.6,0-67.9-16-67.9-45.1l-0.1-42h24l0.1,42
			c0,17.8,16.1,27.1,43.9,27.1s43.9-9.4,43.9-27.1l0.1-42H407.9z"/>
		<path class="st7" d="M-173.2,608.9l-57.1,84h-39.4l-57.1-84h26.9l49.9,73.4l49.9-73.4H-173.2z"/>
		<path class="st7" d="M23.4,608.9l-31.9,84h-40l-27.6-72.6l-27.6,72.6h-40l-31.9-84h25.3l26.6,72.8l27.7-72.8h39.6l27.7,72.8
			l26.6-72.8H23.4L23.4,608.9z"/>
		<path class="st7" d="M128.6,692.9l-37.7-29.6l-37.8,29.6H21l53.9-42.2l-53.4-41.8h32.2L91,638.1l37.2-29.2h32.2L107,650.6
			l53.8,42.2h-32.2V692.9z"/>
		<path class="st7" d="M237.8,658.4v34.4h-24v-34.4L156,608.9h31.4l38.4,33.1l38.4-33.1h31.4L237.8,658.4z"/>
		<path class="st7" d="M433.6,626.9l-92.4,48h92.4v18h-132v-18l92.4-48h-92.4v-18h132V626.9z"/>
		<path class="st7" d="M-271.1,802.9h-24v-66h-29.3v-18h53.3C-271.1,718.9-271.1,802.9-271.1,802.9z"/>
		<path class="st7" d="M-129.5,784.9v18h-129.6v-18c0-17.4,22.1-24.8,64.9-33.7c28.9-6,38.9-6.8,38.9-11.5c0-4.3-16.9-5.9-38.9-5.9
			c-24.1,0-41.3,4.2-52.7,9.7l-11.9-15.1c10.7-6.7,39.1-12.6,64.6-12.6c34.4,0,62.9,4.4,62.9,24.8c0,16.4-13.1,20-61.7,29.4
			c-32,6.1-42.1,10-42.1,14.9L-129.5,784.9L-129.5,784.9z"/>
		<path class="st7" d="M18.4,776.3c0,19.8-26.4,29.6-68.5,29.6c-38,0-59-8.4-72.2-17.4l15.7-13c7,5,23.3,12.4,56.5,12.4
			c27,0,44.5-4.2,44.5-12.4c0-7.1-17.5-11-46.4-11h-21.4V756l43.8-19.2h-80.8v-18H10.3v18l-31.8,15C1.8,752,18.4,760.7,18.4,776.3z"
			/>
		<path class="st7" d="M163.6,782.6H135v20.3h-24v-20.3H26.8v-18l64-45.7h44.3v45.7h28.6L163.6,782.6L163.6,782.6z M111.1,764.6
			v-36.4l-50.9,36.4H111.1z"/>
		<path class="st7" d="M303.3,776.6c0,21-20,29.4-70.3,29.4c-35.6,0-56.6-8.4-64.6-14.8l13.3-14c4.1,3.5,20.4,10.8,51.2,10.8
			c33.1,0,46.3-2.9,46.3-11.4c0-10.7-25.3-9.8-79.7-9.8h-24.2l4.9-47.9h111.2v18h-88.8l-1.3,12l38.3,0.2
			C285.2,748.6,303.3,756.4,303.3,776.6z"/>
		<path class="st7" d="M453.7,776.5c0,19.7-26.4,29.5-70.3,29.5c-43.9,0-70.4-9.8-70.4-36.1v-5.3c0-39,30.1-48.8,74-48.8
			c26.6,0,43.8,4.7,55,13.4l-18.3,11.3c-5.3-4.6-15.6-6.7-36.7-6.7c-28.4,0-46.7,2.8-49.7,19.2c11.8-3.5,27.2-6,46-6
			C427.1,746.9,453.7,756.8,453.7,776.5z M429.7,776.5c0-8.3-15.2-11.5-46.4-11.5c-31.1,0-46.3,3.2-46.3,11.5s15.2,11.5,46.4,11.5
			C414.4,788,429.7,784.7,429.7,776.5z"/>
		<path class="st7" d="M-193,828.9v18l-64,66h-31.2l64-66h-102.6v-18H-193z"/>
		<path class="st7" d="M-45,889.5c0,16.7-26.4,26.5-70.3,26.5s-70.4-9.8-70.4-26.5c0-9.4,7.6-15.2,21.5-18.7
			c-8.8-4.1-14.9-10.4-14.9-19.3c0-16.8,21-25.7,63.8-25.7c39.7,0,63.7,9.8,63.7,25.7c0,6.7-5.2,12.1-14.8,16
			C-55.1,870.7-45,877.1-45,889.5z M-69,888.3c0-6-10.9-6.7-73.9-12.2c-0.6,0-1.2-0.1-1.7-0.1c-11.5,2.3-17.2,5.4-17.2,10.3
			c0,8.5,15.2,11.8,46.4,11.8C-84.3,898-69,894.7-69,888.3z M-155.2,851.4c0,5.6,4.7,6.8,69,12.5c8.2-2.9,10.6-5.3,10.6-9.4
			c0-7.4-16-10.8-39.7-10.8C-139.2,843.7-155.2,845.7-155.2,851.4z"/>
		<path class="st7" d="M95.8,869.5l-54.2,43.3H11.4L48.7,883c-5,0.4-10.4,0.5-16.1,0.5c-42.7,0-69.2-6.1-69.2-28.9
			c0-19.1,26.4-28.9,69.1-28.9c43.9,0,70.4,9.8,70.4,28.9C102.9,860.5,100.4,865.5,95.8,869.5z M32.6,865.6
			c31.1,0,46.3-3.2,46.3-10.9s-15.2-10.9-46.4-10.9c-29.9,0-45.1,3.2-45.1,10.9S2.6,865.6,32.6,865.6z"/>
		<path class="st7" d="M254.5,870.9c0,29.2-26.4,45.1-70.3,45.1s-70.4-16-70.4-45.1c0-29.2,26.5-45.1,70.4-45.1
			C228.1,825.7,254.5,841.7,254.5,870.9z M155.4,893.5l33.7-49.7c-1.6-0.1-3.2-0.1-4.9-0.1c-28.9,0-46.4,9.4-46.4,27.1
			C137.7,881.5,144.1,889.1,155.4,893.5z M230.5,870.9c0-10.7-6.2-18.2-17.5-22.7l-33.7,49.7c1.6,0.1,3.2,0.1,4.9,0.1
			C213,898,230.5,888.6,230.5,870.9z"/>
	</g>
</g>
</svg>
