<?xml version="1.0" encoding="utf-8"?>
<!-- Generator: Adobe Illustrator 19.0.1, SVG Export Plug-In . SVG Version: 6.00 Build 0)  -->
<svg version="1.1" xmlns="http://www.w3.org/2000/svg" xmlns:xlink="http://www.w3.org/1999/xlink" x="0px" y="0px"
	 viewBox="0 0 1090.2 837.7" style="enable-background:new 0 0 1090.2 837.7;" xml:space="preserve">
<style type="text/css">
	.st0{display:none;}
	.st1{display:inline;fill:none;}
	.st2{display:inline;}
	.st3{font-family:'HNIRExtended-Regular';}
	.st4{font-size:72px;}
	.st5{font-size:60px;}
	.st6{display:inline;fill:#3372FF;}
	.st7{fill:#3372FF;}
</style>
<g id="Layer_1" class="st0">
	<rect x="26.1" y="63.6" class="st1" width="1174.9" height="874.1"/>
	<text transform="matrix(1 0 0 1 26.0688 124.751)" class="st2"><tspan x="0" y="0" class="st3 st4">BREAKING WAVES </tspan><tspan x="0" y="86.4" class="st3 st4">WHEN I LOOK THIS </tspan><tspan x="0" y="172.8" class="st3 st4">SIDE MIND  </tspan><tspan x="0" y="259.2" class="st3 st4">CONTROL  </tspan><tspan x="0" y="345.6" class="st3 st4">MEMORIES I WANT </tspan><tspan x="0" y="432" class="st3 st4">YOU IT IS  </tspan><tspan x="0" y="518.4" class="st3 st4">HAPPENING AGAIN </tspan><tspan x="0" y="604.8" class="st3 st4">STANDING HIGH </tspan><tspan x="0" y="691.2" class="st3 st4">OWLS TIME WARP </tspan><tspan x="0" y="777.6" class="st3 st4">SONIC SOUL FEAR </tspan></text>
</g>
<g id="Layer_1_copy_2" class="st0">
	<rect x="26.1" y="63.6" class="st1" width="1244.9" height="1001.7"/>
	<text transform="matrix(1 0 0 1 26.0688 114.5513)" class="st2"><tspan x="0" y="0" class="st3 st5">WALKING MACHINE </tspan><tspan x="0" y="72" class="st3 st5">HUMAN AFTER ALL </tspan><tspan x="0" y="144" class="st3 st5">PARIS FOUR HUNDRED </tspan><tspan x="0" y="216" class="st3 st5">GET MYSELF INTO IT </tspan><tspan x="0" y="288" class="st3 st5">CAMERA WE DANCE  </tspan><tspan x="0" y="360" class="st3 st5">TOGETHER BOSSY </tspan><tspan x="0" y="432" class="st3 st5">CHEAP AND CHEERFUL  </tspan><tspan x="0" y="504" class="st3 st5">TESTAROSSA  </tspan><tspan x="0" y="576" class="st3 st5">AUTODRIVE TEXAS </tspan><tspan x="0" y="648" class="st3 st5">FOOL FOR LOVE I STILL </tspan><tspan x="0" y="720" class="st3 st5">REMEMBER SEXUAL </tspan><tspan x="0" y="792" class="st3 st5">SPORTSWEAR GOLDEN </tspan><tspan x="0" y="864" class="st3 st5">SKANS</tspan></text>
</g>
<g id="Layer_1_copy" class="st0">
	<rect x="33.1" y="30.6" class="st1" width="1128.9" height="1231.4"/>
	<text transform="matrix(1 0 0 1 33.0688 91.751)" class="st2"><tspan x="0" y="0" class="st3 st4">LEAN ON ME </tspan><tspan x="0" y="86.4" class="st3 st4">VIBRATIONS </tspan><tspan x="0" y="172.8" class="st3 st4">FOLLOWED BY </tspan><tspan x="0" y="259.2" class="st3 st4">POISONED </tspan><tspan x="0" y="345.6" class="st3 st4">APPLES YOU </tspan><tspan x="0" y="432" class="st3 st4">TOO ALBATROS </tspan><tspan x="0" y="518.4" class="st3 st4">WAKE ME UP </tspan><tspan x="0" y="604.8" class="st3 st4">SIGMUND THE </tspan><tspan x="0" y="691.2" class="st3 st4">TALKING DRUMS </tspan><tspan x="0" y="777.6" class="st3 st4">MOTHER ANIMAL </tspan><tspan x="0" y="864" class="st3 st4">STYLE COMPUTE </tspan><tspan x="0" y="950.4" class="st3 st4">WHEN THE NIGHT</tspan></text>
</g>
<g id="Layer_1_copy_3" class="st0">
	<path class="st6" d="M73.7,41.5v10.8H5V1.9h14.4v39.6H73.7z"/>
	<path class="st6" d="M93.9,12.7v7.8h57.5v10.8H93.9v10.2H159v10.8H79.5V1.9H159v10.8H93.9z"/>
	<path class="st6" d="M231.8,43.3h-47.7l-6.1,9h-16.1l34.3-50.4h23.6L254,52.3h-16.1L231.8,43.3z M224.4,32.5L207.9,8.2l-16.5,24.3
		H224.4z"/>
	<path class="st6" d="M340.5,1.9v50.4h-26.6L272,7.4v44.9h-14.4V1.9h26.6l41.8,44.9V1.9H340.5z"/>
	<path class="st6" d="M391.6,27.1C391.6,9.6,407.5,0,433.9,0c26.4,0,42.2,9.6,42.2,27.1s-15.8,27.1-42.2,27.1
		C407.5,54.1,391.6,44.6,391.6,27.1z M461.7,27.1c0-10.7-10.5-16.3-27.8-16.3c-17.4,0-27.9,5.6-27.9,16.3s10.5,16.3,27.9,16.3
		C451.2,43.3,461.7,37.7,461.7,27.1z"/>
	<path class="st6" d="M566.9,1.9v50.4h-26.6L498.4,7.4v44.9H484V1.9h26.6l41.8,44.9V1.9H566.9z"/>
	<path class="st6" d="M712.3,52.3h-14.4v-44l-21.7,44h-21.5l-21.7-44v44h-14.4V1.9h26.2l20.6,43.1l20.6-43.1h26.2V52.3z"/>
	<path class="st6" d="M735.3,12.7v7.8h57.5v10.8h-57.5v10.2h65.1v10.8h-79.5V1.9h79.5v10.8H735.3z"/>
	<path class="st6" d="M92.9,88.3l-34.3,50.4H35L0.7,88.3h16.1l30,44.1l30-44.1H92.9z"/>
	<path class="st6" d="M111.6,88.3v50.4H97.2V88.3H111.6z"/>
	<path class="st6" d="M203,122.5c0,8.9-7.3,16.2-20.1,16.2h-62.6V88.3h62.6c11.5,0,18,6.6,18,14.4c0,3.4-1.9,6.5-4.7,8.9
		C200,114.5,203,118.3,203,122.5z M134.6,106.4h48.2c1.9,0,3.7-1.6,3.7-3.7c0-2-1.7-3.7-3.7-3.7h-48.2V106.4z M188.2,122.5
		c0-2.9-2.4-5.3-5.3-5.3h-48.2v10.7h48.2C185.8,127.9,188.2,125.6,188.2,122.5z"/>
	<path class="st6" d="M294.8,138.7h-20.3l-22.5-15.6h-26.8v15.6h-14.4V88.3h61.2c13.9,0,21.7,7.8,21.7,17.4
		c0,9.6-7.8,17.4-21.7,17.4L294.8,138.7z M272.1,112.3c3.6,0,6.6-3,6.6-6.6c0-3.7-3-6.6-6.6-6.6h-46.8v13.2H272.1z"/>
	<path class="st6" d="M366,129.7h-47.7l-6.1,9h-16.1l34.3-50.4H354l34.3,50.4h-16.1L366,129.7z M358.6,118.9l-16.5-24.3l-16.5,24.3
		H358.6z"/>
	<path class="st6" d="M458.9,99.1h-36.1v39.6h-14.4V99.1h-35.9V88.3h86.4V99.1z"/>
	<path class="st6" d="M477.6,88.3v50.4h-14.4V88.3H477.6z"/>
	<path class="st6" d="M485.5,113.5c0-17.5,15.9-27.1,42.3-27.1c26.4,0,42.2,9.6,42.2,27.1s-15.8,27.1-42.2,27.1
		C501.5,140.5,485.5,131,485.5,113.5z M555.6,113.5c0-10.7-10.5-16.3-27.8-16.3c-17.4,0-27.9,5.6-27.9,16.3s10.5,16.3,27.9,16.3
		C545.1,129.7,555.6,124.1,555.6,113.5z"/>
	<path class="st6" d="M660.8,88.3v50.4h-26.6l-41.8-44.9v44.9h-14.4V88.3h26.6l41.8,44.9V88.3H660.8z"/>
	<path class="st6" d="M734.7,123.9c0-3-4.5-4.1-23.8-5.8c-33.6-2.9-41.1-7.3-41.1-16.8c0-11.9,17-14.9,40-14.9c12.9,0,30,3.5,36.4,8
		l-8.5,7.9c-5.5-2.8-15.8-5.1-27.9-5.1c-15.6,0-25.7,0.9-25.7,3.5c0,2.8,6,4.2,27.5,6c26.4,2.3,37.6,7.1,37.6,17.8
		c0,12.9-18.7,16-40.1,16c-13.6,0-33.8-3.2-41-9.1l9.1-8.6c6.7,4.4,19.3,7,31.9,7C724.4,129.7,734.7,127.9,734.7,123.9z"/>
	<path class="st6" d="M18.7,185.5V197h53.9v10.8H18.7v17.3H4.3v-50.4h75.9v10.8H18.7z"/>
	<path class="st6" d="M87,199.9c0-17.5,15.9-27.1,42.3-27.1c26.4,0,42.2,9.6,42.2,27.1s-15.8,27.1-42.2,27.1
		C103,226.9,87,217.4,87,199.9z M157.1,199.9c0-10.7-10.5-16.3-27.8-16.3c-17.4,0-27.9,5.6-27.9,16.3s10.5,16.3,27.9,16.3
		C146.6,216.1,157.1,210.5,157.1,199.9z"/>
	<path class="st6" d="M248.1,214.3v10.8h-68.7v-50.4h14.4v39.6H248.1z"/>
	<path class="st6" d="M322.6,214.3v10.8h-68.7v-50.4h14.4v39.6H322.6z"/>
	<path class="st6" d="M327.6,199.9c0-17.5,15.9-27.1,42.3-27.1c26.4,0,42.2,9.6,42.2,27.1s-15.8,27.1-42.2,27.1
		C343.5,226.9,327.6,217.4,327.6,199.9z M397.7,199.9c0-10.7-10.5-16.3-27.8-16.3c-17.4,0-27.9,5.6-27.9,16.3s10.5,16.3,27.9,16.3
		C387.1,216.1,397.7,210.5,397.7,199.9z"/>
	<path class="st6" d="M535.8,174.7l-19.2,50.4h-24l-16.6-43.6l-16.6,43.6h-24l-19.2-50.4h15.2l16,43.7l16.6-43.7h23.8l16.6,43.7
		l16-43.7H535.8z"/>
	<path class="st6" d="M555.2,185.5v7.8h57.5v10.8h-57.5v10.2h65.1v10.8h-79.5v-50.4h79.5v10.8H555.2z"/>
	<path class="st6" d="M709.9,199.9c0,15.9-13.8,25.2-40.1,25.2h-41.6v-50.4h41.6C696.2,174.7,709.9,184,709.9,199.9z M695.5,199.9
		c0-9.1-8.4-14.4-25.7-14.4h-27.2v28.8h27.2C687.1,214.3,695.5,208.9,695.5,199.9z"/>
	<path class="st6" d="M844.1,208.9c0,8.9-7.3,16.2-20.1,16.2h-62.6v-50.4H824c11.5,0,18,6.6,18,14.4c0,3.4-1.9,6.5-4.7,8.9
		C841.2,200.9,844.1,204.7,844.1,208.9z M775.8,192.8H824c1.9,0,3.7-1.6,3.7-3.7c0-2-1.7-3.7-3.7-3.7h-48.2V192.8z M829.4,208.9
		c0-2.9-2.4-5.3-5.3-5.3h-48.2v10.7H824C826.9,214.3,829.4,212,829.4,208.9z"/>
	<path class="st6" d="M896.8,201.9v23.2h-14.4v-23.2l-34.7-27.2h19.6l22.3,17.5l22.3-17.5h19.6L896.8,201.9z"/>
	<path class="st6" d="M88,278.5c0,9.6-7.8,17.4-21.7,17.4H19.4v15.6H5v-50.4h61.2C80.1,261.1,88,268.9,88,278.5z M72.9,278.5
		c0-3.7-3-6.6-6.6-6.6H19.4v13.2h46.8C69.8,285.1,72.9,282.1,72.9,278.5z"/>
	<path class="st6" d="M93.7,286.3c0-17.5,15.9-27.1,42.3-27.1c26.4,0,42.2,9.6,42.2,27.1s-15.8,27.1-42.2,27.1
		C109.7,313.3,93.7,303.8,93.7,286.3z M163.8,286.3c0-10.7-10.5-16.3-27.8-16.3c-17.4,0-27.9,5.6-27.9,16.3s10.5,16.3,27.9,16.3
		C153.3,302.5,163.8,296.9,163.8,286.3z"/>
	<path class="st6" d="M200.5,261.1v50.4h-14.4v-50.4H200.5z"/>
	<path class="st6" d="M274.4,296.7c0-3-4.5-4.1-23.8-5.8c-33.6-2.9-41.1-7.3-41.1-16.8c0-11.9,17-14.9,40-14.9c12.9,0,30,3.5,36.4,8
		l-8.5,7.9c-5.5-2.8-15.8-5.1-27.9-5.1c-15.6,0-25.7,0.9-25.7,3.5c0,2.8,6,4.2,27.5,6c26.4,2.3,37.6,7.1,37.6,17.8
		c0,12.9-18.7,16-40.1,16c-13.6,0-33.8-3.2-41-9.1l9.1-8.6c6.7,4.4,19.3,7,31.9,7C264.1,302.5,274.4,300.7,274.4,296.7z"/>
	<path class="st6" d="M295.3,286.3c0-17.5,15.9-27.1,42.3-27.1c26.4,0,42.2,9.6,42.2,27.1s-15.8,27.1-42.2,27.1
		C311.3,313.3,295.3,303.8,295.3,286.3z M365.4,286.3c0-10.7-10.5-16.3-27.8-16.3c-17.4,0-27.9,5.6-27.9,16.3s10.5,16.3,27.9,16.3
		C354.9,302.5,365.4,296.9,365.4,286.3z"/>
	<path class="st6" d="M470.6,261.1v50.4H444l-41.8-44.9v44.9h-14.4v-50.4h26.6l41.8,44.9v-44.9H470.6z"/>
	<path class="st6" d="M493.6,271.9v7.8h57.5v10.8h-57.5v10.2h65.1v10.8h-79.5v-50.4h79.5v10.8H493.6z"/>
	<path class="st6" d="M648.4,286.3c0,15.9-13.8,25.2-40.1,25.2h-41.6v-50.4h41.6C634.6,261.1,648.4,270.4,648.4,286.3z M634,286.3
		c0-9.1-8.4-14.4-25.7-14.4H581v28.8h27.2C625.5,300.7,634,295.3,634,286.3z"/>
	<path class="st6" d="M69.9,388.9H22.2l-6.1,9H0l34.3-50.4h23.6l34.3,50.4H76L69.9,388.9z M62.6,378.1l-16.5-24.3l-16.5,24.3H62.6z"
		/>
	<path class="st6" d="M178.7,364.9c0,9.6-7.8,17.4-21.7,17.4h-46.8v15.6H95.8v-50.4H157C170.9,347.5,178.7,355.3,178.7,364.9z
		 M163.6,364.9c0-3.7-3-6.6-6.6-6.6h-46.8v13.2H157C160.6,371.5,163.6,368.5,163.6,364.9z"/>
	<path class="st6" d="M268.1,364.9c0,9.6-7.8,17.4-21.7,17.4h-46.8v15.6h-14.4v-50.4h61.2C260.3,347.5,268.1,355.3,268.1,364.9z
		 M253,364.9c0-3.7-3-6.6-6.6-6.6h-46.8v13.2h46.8C250,371.5,253,368.5,253,364.9z"/>
	<path class="st6" d="M343.3,387.1v10.8h-68.7v-50.4H289v39.6H343.3z"/>
	<path class="st6" d="M363.5,358.3v7.8h57.5v10.8h-57.5v10.2h65.1v10.8h-79.5v-50.4h79.5v10.8H363.5z"/>
	<path class="st6" d="M501.7,383.1c0-3-4.5-4.1-23.8-5.8c-33.6-2.9-41.1-7.3-41.1-16.8c0-11.9,17-14.9,40-14.9c12.9,0,30,3.5,36.4,8
		l-8.5,7.9c-5.5-2.8-15.8-5.1-27.9-5.1c-15.6,0-25.7,0.9-25.7,3.5c0,2.8,6,4.2,27.5,6c26.4,2.3,37.6,7.1,37.6,17.8
		c0,12.9-18.7,16-40.1,16c-13.6,0-33.8-3.2-41-9.1l9.1-8.6c6.7,4.4,19.3,7,31.9,7C491.4,388.9,501.7,387.1,501.7,383.1z"/>
	<path class="st6" d="M611.4,374.7v23.2H597v-23.2l-34.7-27.2h19.6l22.3,17.5l22.3-17.5h19.6L611.4,374.7z"/>
	<path class="st6" d="M641.7,372.7c0-17.5,15.9-27.1,42.3-27.1s42.2,9.6,42.2,27.1s-15.8,27.1-42.2,27.1S641.7,390.2,641.7,372.7z
		 M711.8,372.7c0-10.7-10.5-16.3-27.8-16.3c-17.4,0-27.9,5.6-27.9,16.3s10.5,16.3,27.9,16.3C701.3,388.9,711.8,383.3,711.8,372.7z"
		/>
	<path class="st6" d="M815.4,347.5l-0.1,25.2c0,17.5-15.2,27.1-40.8,27.1c-25.6,0-40.8-9.6-40.8-27.1l-0.1-25.2h14.4l0.1,25.2
		c0,10.7,9.6,16.3,26.4,16.3c16.7,0,26.4-5.6,26.4-16.3l0.1-25.2H815.4z"/>
	<path class="st6" d="M87.1,444.7H51.1v39.6H36.7v-39.6H0.7v-10.8h86.4V444.7z"/>
	<path class="st6" d="M90.7,459.1c0-17.5,15.9-27.1,42.3-27.1c26.4,0,42.2,9.6,42.2,27.1c0,17.5-15.8,27.1-42.2,27.1
		C106.6,486.1,90.7,476.6,90.7,459.1z M160.8,459.1c0-10.7-10.5-16.3-27.8-16.3c-17.4,0-27.9,5.6-27.9,16.3
		c0,10.7,10.5,16.3,27.9,16.3C150.3,475.3,160.8,469.7,160.8,459.1z"/>
	<path class="st6" d="M182.4,459.1c0-17.5,15.9-27.1,42.3-27.1c26.4,0,42.2,9.6,42.2,27.1c0,17.5-15.8,27.1-42.2,27.1
		C198.3,486.1,182.4,476.6,182.4,459.1z M252.4,459.1c0-10.7-10.5-16.3-27.8-16.3c-17.4,0-27.9,5.6-27.9,16.3
		c0,10.7,10.5,16.3,27.9,16.3C241.9,475.3,252.4,469.7,252.4,459.1z"/>
	<path class="st6" d="M382.8,475.3h-47.7l-6.1,9h-16.1l34.3-50.4h23.6l34.3,50.4h-16.1L382.8,475.3z M375.5,464.5L359,440.2
		l-16.5,24.3H375.5z"/>
	<path class="st6" d="M477.4,473.5v10.8h-68.7v-50.4h14.4v39.6H477.4z"/>
	<path class="st6" d="M565.9,468.1c0,8.9-7.3,16.2-20.1,16.2h-62.6v-50.4h62.6c11.5,0,18,6.6,18,14.4c0,3.4-1.9,6.5-4.7,8.9
		C562.9,460.1,565.9,463.9,565.9,468.1z M497.5,452h48.2c1.9,0,3.7-1.6,3.7-3.7c0-2-1.7-3.7-3.7-3.7h-48.2V452z M551.1,468.1
		c0-2.9-2.4-5.3-5.3-5.3h-48.2v10.7h48.2C548.6,473.5,551.1,471.2,551.1,468.1z"/>
	<path class="st6" d="M638.6,475.3H591l-6.1,9h-16.1l34.3-50.4h23.6l34.3,50.4h-16.1L638.6,475.3z M631.3,464.5l-16.5-24.3
		l-16.5,24.3H631.3z"/>
	<path class="st6" d="M731.6,444.7h-36.1v39.6h-14.4v-39.6h-35.9v-10.8h86.4V444.7z"/>
	<path class="st6" d="M819.8,484.3h-20.3l-22.5-15.6h-26.8v15.6h-14.4v-50.4h61.2c13.9,0,21.7,7.8,21.7,17.4
		c0,9.6-7.8,17.4-21.7,17.4L819.8,484.3z M797.1,457.9c3.6,0,6.6-3,6.6-6.6c0-3.7-3-6.6-6.6-6.6h-46.8v13.2H797.1z"/>
	<path class="st6" d="M827.4,459.1c0-17.5,15.9-27.1,42.3-27.1s42.2,9.6,42.2,27.1c0,17.5-15.8,27.1-42.2,27.1
		S827.4,476.6,827.4,459.1z M897.4,459.1c0-10.7-10.5-16.3-27.8-16.3c-17.4,0-27.9,5.6-27.9,16.3c0,10.7,10.5,16.3,27.9,16.3
		C886.9,475.3,897.4,469.7,897.4,459.1z"/>
	<path class="st6" d="M985,469.5c0-3-4.5-4.1-23.8-5.8c-33.6-2.9-41.1-7.3-41.1-16.8c0-11.9,17-14.9,40-14.9c12.9,0,30,3.5,36.4,8
		l-8.5,7.9c-5.5-2.8-15.8-5.1-27.9-5.1c-15.6,0-25.7,0.9-25.7,3.5c0,2.8,6,4.2,27.5,6c26.4,2.3,37.6,7.1,37.6,17.8
		c0,12.9-18.7,16-40.1,16c-13.6,0-33.8-3.2-41-9.1l9.1-8.6c6.7,4.4,19.3,7,31.9,7C974.7,475.3,985,473.5,985,469.5z"/>
	<path class="st6" d="M120.8,520.3l-19.2,50.4h-24l-16.6-43.6l-16.6,43.6h-24L1.4,520.3h15.2l16,43.7l16.6-43.7H73L89.6,564l16-43.7
		H120.8z"/>
	<path class="st6" d="M190.7,561.7h-47.7l-6.1,9h-16.1l34.3-50.4h23.6l34.3,50.4h-16.1L190.7,561.7z M183.4,550.9l-16.5-24.3
		l-16.5,24.3H183.4z"/>
	<path class="st6" d="M273.6,570.7l-42.6-26v26h-14.4v-50.4H231V543l39.8-22.8H293l-41.9,23.5l44.7,26.9H273.6z"/>
	<path class="st6" d="M315.3,531.1v7.8h57.5v10.8h-57.5v10.2h65.1v10.8h-79.5v-50.4h79.5v10.8H315.3z"/>
	<path class="st6" d="M525.1,570.7h-14.4v-44l-21.7,44h-21.5l-21.7-44v44h-14.4v-50.4h26.2l20.6,43.1l20.6-43.1h26.2V570.7z"/>
	<path class="st6" d="M548.1,531.1v7.8h57.5v10.8h-57.5v10.2h65.1v10.8h-79.5v-50.4h79.5v10.8H548.1z"/>
	<path class="st6" d="M745.6,520.3l-0.1,25.2c0,17.5-15.2,27.1-40.8,27.1c-25.6,0-40.8-9.6-40.8-27.1l-0.1-25.2h14.4l0.1,25.2
		c0,10.7,9.6,16.3,26.4,16.3c16.7,0,26.4-5.6,26.4-16.3l0.1-25.2H745.6z"/>
	<path class="st6" d="M836.9,537.7c0,9.6-7.8,17.4-21.7,17.4h-46.8v15.6h-14.4v-50.4h61.2C829,520.3,836.9,528.1,836.9,537.7z
		 M821.7,537.7c0-3.7-3-6.6-6.6-6.6h-46.8v13.2h46.8C818.7,544.3,821.7,541.3,821.7,537.7z"/>
	<path class="st6" d="M70.3,642.3c0-3-4.5-4.1-23.8-5.8c-33.6-2.9-41.1-7.3-41.1-16.8c0-11.9,17-14.9,40-14.9c12.9,0,30,3.5,36.4,8
		l-8.5,7.9c-5.5-2.8-15.8-5.1-27.9-5.1c-15.6,0-25.7,0.9-25.7,3.5c0,2.8,6,4.2,27.5,6c26.4,2.3,37.6,7.1,37.6,17.8
		c0,12.9-18.7,16-40.1,16c-13.6,0-33.8-3.2-41-9.1l9.1-8.6c6.7,4.4,19.3,7,31.9,7C60,648.1,70.3,646.3,70.3,642.3z"/>
	<path class="st6" d="M106.3,606.7v50.4H91.9v-50.4H106.3z"/>
	<path class="st6" d="M197.9,626.8v6.6c0,16-15,26.1-41.4,26.1c-26.4,0-42.3-10.2-42.3-27.7s15.9-27.7,42.3-27.7
		c14.7,0,26,3,33.2,8.9l-9.6,8.9c-4.5-4.6-12.6-7.1-23.6-7.1c-17.4,0-27.9,6.2-27.9,16.8s10.5,16.8,27.9,16.8
		c14.5,0,23.7-4.4,26.3-11.2H149v-10.8H197.9z"/>
	<path class="st6" d="M299.5,657.1h-14.4v-44l-21.7,44h-21.5l-21.7-44v44h-14.4v-50.4h26.2l20.6,43.1l20.6-43.1h26.2V657.1z"/>
	<path class="st6" d="M389.4,606.7l-0.1,25.2c0,17.5-15.2,27.1-40.8,27.1c-25.6,0-40.8-9.6-40.8-27.1l-0.1-25.2h14.4l0.1,25.2
		c0,10.7,9.6,16.3,26.4,16.3c16.7,0,26.4-5.6,26.4-16.3l0.1-25.2H389.4z"/>
	<path class="st6" d="M480.5,606.7v50.4h-26.6l-41.8-44.9v44.9h-14.4v-50.4h26.6l41.8,44.9v-44.9H480.5z"/>
	<path class="st6" d="M570.9,631.9c0,15.9-13.8,25.2-40.1,25.2h-41.6v-50.4h41.6C557.1,606.7,570.9,616,570.9,631.9z M556.5,631.9
		c0-9.1-8.4-14.4-25.7-14.4h-27.2v28.8h27.2C548.1,646.3,556.5,640.9,556.5,631.9z"/>
	<path class="st6" d="M704.5,617.5h-36.1v39.6H654v-39.6H618v-10.8h86.4V617.5z"/>
	<path class="st6" d="M787.3,606.7v50.4h-14.4v-21.7h-50.4v21.7H708v-50.4h14.4v17.9h50.4v-17.9H787.3z"/>
	<path class="st6" d="M809.6,617.5v7.8H867v10.8h-57.5v10.2h65.1v10.8h-79.5v-50.4h79.5v10.8H809.6z"/>
	<path class="st6" d="M87.1,703.9H51.1v39.6H36.7v-39.6H0.7v-10.8h86.4V703.9z"/>
	<path class="st6" d="M147.3,734.5H99.6l-6.1,9H77.4l34.3-50.4h23.6l34.3,50.4h-16.1L147.3,734.5z M140,723.7l-16.5-24.3L107,723.7
		H140z"/>
	<path class="st6" d="M241.8,732.7v10.8h-68.7v-50.4h14.4v39.6H241.8z"/>
	<path class="st6" d="M304.6,743.5l-42.6-26v26h-14.4v-50.4H262v22.8l39.8-22.8h22.2l-41.9,23.5l44.7,26.9H304.6z"/>
	<path class="st6" d="M346.3,693.1v50.4h-14.4v-50.4H346.3z"/>
	<path class="st6" d="M437.8,693.1v50.4h-26.6l-41.8-44.9v44.9H355v-50.4h26.6l41.8,44.9v-44.9H437.8z"/>
	<path class="st6" d="M529.4,713.2v6.6c0,16-15,26.1-41.4,26.1c-26.4,0-42.3-10.2-42.3-27.7s15.9-27.7,42.3-27.7
		c14.7,0,26,3,33.2,8.9l-9.6,8.9c-4.5-4.6-12.6-7.1-23.6-7.1c-17.4,0-27.9,6.2-27.9,16.8s10.5,16.8,27.9,16.8
		c14.5,0,23.7-4.4,26.3-11.2h-33.8v-10.8H529.4z"/>
	<path class="st6" d="M662.3,718.3c0,15.9-13.8,25.2-40.1,25.2h-41.6v-50.4h41.6C648.5,693.1,662.3,702.4,662.3,718.3z M647.9,718.3
		c0-9.1-8.4-14.4-25.7-14.4h-27.2v28.8h27.2C639.4,732.7,647.9,727.3,647.9,718.3z"/>
	<path class="st6" d="M754.5,743.5h-20.3l-22.5-15.6h-26.8v15.6h-14.4v-50.4h61.2c13.9,0,21.7,7.8,21.7,17.4
		c0,9.6-7.8,17.4-21.7,17.4L754.5,743.5z M731.7,717.1c3.6,0,6.6-3,6.6-6.6c0-3.7-3-6.6-6.6-6.6h-46.8v13.2H731.7z"/>
	<path class="st6" d="M844.1,693.1l-0.1,25.2c0,17.5-15.2,27.1-40.8,27.1c-25.6,0-40.8-9.6-40.8-27.1l-0.1-25.2h14.4l0.1,25.2
		c0,10.7,9.6,16.3,26.4,16.3c16.7,0,26.4-5.6,26.4-16.3l0.1-25.2H844.1z"/>
	<path class="st6" d="M945.9,743.5h-14.4v-44l-21.7,44h-21.5l-21.7-44v44h-14.4v-50.4h26.2l20.6,43.1l20.6-43.1h26.2V743.5z"/>
	<path class="st6" d="M1019.8,728.7c0-3-4.5-4.1-23.8-5.8c-33.6-2.9-41.1-7.3-41.1-16.8c0-11.9,17-14.9,40-14.9
		c12.9,0,30,3.5,36.4,8l-8.5,7.9c-5.5-2.8-15.8-5.1-27.9-5.1c-15.6,0-25.7,0.9-25.7,3.5c0,2.8,6,4.2,27.5,6
		c26.4,2.3,37.6,7.1,37.6,17.8c0,12.9-18.7,16-40.1,16c-13.6,0-33.8-3.2-41-9.1l9.1-8.6c6.7,4.4,19.3,7,31.9,7
		C1009.5,734.5,1019.8,732.7,1019.8,728.7z"/>
	<path class="st6" d="M98.6,829.9H84.2v-44l-21.7,44H41.1l-21.7-44v44H5v-50.4h26.2l20.6,43.1l20.6-43.1h26.2V829.9z"/>
	<path class="st6" d="M106.6,804.7c0-17.5,15.9-27.1,42.3-27.1c26.4,0,42.2,9.6,42.2,27.1s-15.8,27.1-42.2,27.1
		C122.5,831.7,106.6,822.2,106.6,804.7z M176.6,804.7c0-10.7-10.5-16.3-27.8-16.3c-17.4,0-27.9,5.6-27.9,16.3s10.5,16.3,27.9,16.3
		C166.1,820.9,176.6,815.3,176.6,804.7z"/>
	<path class="st6" d="M281,790.3h-36.1v39.6h-14.4v-39.6h-35.9v-10.8H281V790.3z"/>
	<path class="st6" d="M363.8,779.5v50.4h-14.4v-21.7H299v21.7h-14.4v-50.4H299v17.9h50.4v-17.9H363.8z"/>
	<path class="st6" d="M386.1,790.3v7.8h57.5v10.8h-57.5v10.2h65.1v10.8h-79.5v-50.4h79.5v10.8H386.1z"/>
	<path class="st6" d="M543.1,829.9h-20.3l-22.5-15.6h-26.8v15.6h-14.4v-50.4h61.2c13.9,0,21.7,7.8,21.7,17.4
		c0,9.6-7.8,17.4-21.7,17.4L543.1,829.9z M520.3,803.5c3.6,0,6.6-3,6.6-6.6c0-3.7-3-6.6-6.6-6.6h-46.8v13.2H520.3z"/>
	<path class="st6" d="M659.5,820.9h-47.7l-6.1,9h-16.1l34.3-50.4h23.6l34.3,50.4h-16.1L659.5,820.9z M652.1,810.1l-16.5-24.3
		l-16.5,24.3H652.1z"/>
	<path class="st6" d="M768.2,779.5v50.4h-26.6L699.7,785v44.9h-14.4v-50.4h26.6l41.8,44.9v-44.9H768.2z"/>
	<path class="st6" d="M791.2,779.5v50.4h-14.4v-50.4H791.2z"/>
	<path class="st6" d="M893.5,829.9h-14.4v-44l-21.7,44h-21.5l-21.7-44v44h-14.4v-50.4h26.2l20.6,43.1l20.6-43.1h26.2V829.9z"/>
	<path class="st6" d="M967,820.9h-47.7l-6.1,9H897l34.3-50.4h23.6l34.3,50.4h-16.1L967,820.9z M959.6,810.1l-16.5-24.3l-16.5,24.3
		H959.6z"/>
	<path class="st6" d="M1061.5,819.1v10.8h-68.7v-50.4h14.4v39.6H1061.5z"/>
</g>
<g id="Layer_5">
	<g>
		<path class="st7" d="M58,31.7c0-2.5-3.8-3.4-19.9-4.8c-28-2.4-34.3-6.1-34.3-14C3.8,3,18,0.5,37.2,0.5c10.7,0,25,2.9,30.3,6.7
			l-7.1,6.6c-4.6-2.3-13.1-4.3-23.2-4.3c-13,0-21.4,0.8-21.4,2.9c0,2.3,5,3.5,22.9,5c22,1.9,31.3,5.9,31.3,14.8
			C70,43,54.4,45.6,36.6,45.6c-11.3,0-28.2-2.7-34.2-7.6l7.6-7.2c5.6,3.7,16.1,5.8,26.6,5.8C49.4,36.6,58,35,58,31.7z"/>
		<path class="st7" d="M141.4,2v42h-12V26h-42V44h-12V2h12V17h42V2H141.4z"/>
		<path class="st7" d="M160,2v42h-12V2H160z"/>
		<path class="st7" d="M236.3,16.6c0,8-6.5,14.5-18.1,14.5h-39v13h-12V2h51C229.8,2,236.3,8.6,236.3,16.6z M223.7,16.6
			c0-3.1-2.5-5.5-5.5-5.5h-39v11h39C221.2,22.1,223.7,19.6,223.7,16.6z"/>
		<path class="st7" d="M289.7,2v42h-12V2H289.7z"/>
		<path class="st7" d="M351.3,31.7c0-2.5-3.8-3.4-19.9-4.8c-28-2.4-34.3-6.1-34.3-14c0-9.9,14.2-12.4,33.4-12.4
			c10.7,0,25,2.9,30.3,6.7l-7.1,6.6c-4.6-2.3-13.1-4.3-23.2-4.3c-13,0-21.4,0.8-21.4,2.9c0,2.3,5,3.5,22.9,5
			c22,1.9,31.3,5.9,31.3,14.8c0,10.7-15.6,13.3-33.4,13.3c-11.3,0-28.2-2.7-34.2-7.6l7.6-7.2c5.6,3.7,16.1,5.8,26.6,5.8
			C342.7,36.6,351.3,35,351.3,31.7z"/>
		<path class="st7" d="M416.8,11v9.6h44.9v9h-44.9V44h-12V2H468v9H416.8z"/>
		<path class="st7" d="M531.5,35v9h-57.2V2h12v33H531.5z"/>
		<path class="st7" d="M534.5,23c0-14.6,13.3-22.6,35.2-22.6c22,0,35.2,8,35.2,22.6c0,14.6-13.2,22.6-35.2,22.6
			C547.8,45.6,534.5,37.6,534.5,23z M592.9,23c0-8.9-8.8-13.6-23.2-13.6c-14.5,0-23.2,4.7-23.2,13.6c0,8.9,8.8,13.6,23.2,13.6
			C584.2,36.6,592.9,31.9,592.9,23z"/>
		<path class="st7" d="M610.9,23c0-14.6,13.3-22.6,35.2-22.6c22,0,35.2,8,35.2,22.6c0,14.6-13.2,22.6-35.2,22.6
			C624.2,45.6,610.9,37.6,610.9,23z M669.3,23c0-8.9-8.8-13.6-23.2-13.6c-14.5,0-23.2,4.7-23.2,13.6c0,8.9,8.8,13.6,23.2,13.6
			C660.5,36.6,669.3,31.9,669.3,23z"/>
		<path class="st7" d="M756,23c0,13.3-11.5,21-33.4,21h-34.7V2h34.7C744.5,2,756,9.8,756,23z M744,23c0-7.6-7-12-21.4-12h-22.7v24
			h22.7C737,35,744,30.6,744,23z"/>
		<path class="st7" d="M774.9,2v42h-12V2H774.9z"/>
		<path class="st7" d="M851.2,2v42H829L794.1,6.7V44h-12V2h22.2l34.9,37.4V2H851.2z"/>
		<path class="st7" d="M927.5,18.8v5.5c0,13.3-12.5,21.8-34.5,21.8s-35.2-8.5-35.2-23C857.8,8.5,871,0,893,0
			c12.2,0,21.7,2.5,27.7,7.4l-8,7.4C908.9,11,902.2,9,893,9c-14.5,0-23.2,5.2-23.2,14c0,8.9,8.8,14,23.2,14
			c12.1,0,19.7-3.7,21.9-9.3h-28.1v-9H927.5z"/>
		<path class="st7" d="M100.1,74l-16,42h-20L50.3,79.7L36.5,116h-20l-16-42h12.7l13.3,36.4L40.4,74h19.8l13.9,36.4L87.4,74H100.1z"
			/>
		<path class="st7" d="M116.3,74v42h-12V74H116.3z"/>
		<path class="st7" d="M192.5,74v42h-22.2l-34.9-37.4V116h-12V74h22.2l34.9,37.4V74H192.5z"/>
		<path class="st7" d="M268.1,83h-30.1v33h-12V83h-29.9v-9h72V83z"/>
		<path class="st7" d="M283.7,83v6.5h47.9v9h-47.9v8.5H338v9h-66.2V74H338v9H283.7z"/>
		<path class="st7" d="M414.5,116h-16.9l-18.7-13h-22.3v13h-12V74h51c11.6,0,18.1,6.5,18.1,14.5c0,8-6.5,14.5-18.1,14.5L414.5,116z
			 M395.6,94.1c3,0,5.5-2.5,5.5-5.5c0-3.1-2.5-5.5-5.5-5.5h-39v11H395.6z"/>
		<path class="st7" d="M514.7,107v9h-57.2V74h12v33H514.7z"/>
		<path class="st7" d="M531.5,74v42h-12V74H531.5z"/>
		<path class="st7" d="M607.7,74v42h-22.2l-34.9-37.4V116h-12V74h22.2l34.9,37.4V74H607.7z"/>
		<path class="st7" d="M684,74v42h-22.2l-34.9-37.4V116h-12V74h22.2l34.9,37.4V74H684z"/>
		<path class="st7" d="M71.3,146l-0.1,21c0,14.6-12.7,22.6-34,22.6c-21.3,0-34-8-34-22.6l-0.1-21h12l0.1,21c0,8.9,8,13.6,22,13.6
			s22-4.7,22-13.6l0.1-21H71.3z"/>
		<path class="st7" d="M147.3,146v42h-22.2l-34.9-37.4V188h-12v-42h22.2l34.9,37.4V146H147.3z"/>
		<path class="st7" d="M165.9,155v9.6h44.9v9h-44.9V188h-12v-42h63.2v9H165.9z"/>
		<path class="st7" d="M291.2,146l-0.1,21c0,14.6-12.7,22.6-34,22.6c-21.3,0-34-8-34-22.6l-0.1-21h12l0.1,21c0,8.9,8,13.6,22,13.6
			s22-4.7,22-13.6l0.1-21H291.2z"/>
		<path class="st7" d="M368,188h-16.9l-18.7-13h-22.3v13h-12v-42h51c11.6,0,18.1,6.5,18.1,14.5c0,8-6.5,14.5-18.1,14.5L368,188z
			 M349.1,166.1c3,0,5.5-2.5,5.5-5.5c0-3.1-2.5-5.5-5.5-5.5h-39v11H349.1z"/>
		<path class="st7" d="M432.2,179v9h-57.2v-42h12v33H432.2z"/>
		<path class="st7" d="M491,180.5h-39.7l-5.1,7.5h-13.4l28.6-42H481l28.6,42h-13.4L491,180.5z M484.9,171.5l-13.7-20.2l-13.7,20.2
			H484.9z"/>
		<path class="st7" d="M602.9,175.7c0-2.5-3.8-3.4-19.9-4.8c-28-2.4-34.3-6.1-34.3-14c0-9.9,14.2-12.4,33.4-12.4
			c10.7,0,25,2.9,30.3,6.7l-7.1,6.6c-4.6-2.3-13.1-4.3-23.2-4.3c-13,0-21.4,0.8-21.4,2.9c0,2.3,5,3.5,22.9,5
			c22,1.9,31.3,5.9,31.3,14.8c0,10.7-15.6,13.3-33.4,13.3c-11.3,0-28.2-2.7-34.2-7.6l7.6-7.2c5.6,3.7,16.1,5.8,26.6,5.8
			C594.4,180.6,602.9,179,602.9,175.7z"/>
		<path class="st7" d="M689.4,155h-30.1v33h-12v-33h-29.9v-9h72V155z"/>
		<path class="st7" d="M763,188H746l-18.7-13H705v13h-12v-42h51c11.6,0,18.1,6.5,18.1,14.5c0,8-6.5,14.5-18.1,14.5L763,188z
			 M744,166.1c3,0,5.5-2.5,5.5-5.5c0-3.1-2.5-5.5-5.5-5.5h-39v11H744z"/>
		<path class="st7" d="M781.9,155v6.5h47.9v9h-47.9v8.5h54.2v9h-66.2v-42h66.2v9H781.9z"/>
		<path class="st7" d="M911.8,146v42h-22.2l-34.9-37.4V188h-12v-42h22.2l34.9,37.4V146H911.8z"/>
		<path class="st7" d="M987.4,155h-30.1v33h-12v-33h-29.9v-9h72V155z"/>
		<path class="st7" d="M1056.4,146v42h-12V170h-42V188h-12v-42h12V161h42V146H1056.4z"/>
		<path class="st7" d="M72,227H41.9v33h-12v-33H0v-9h72V227z"/>
		<path class="st7" d="M141,218v42h-12V242H87V260H75v-42h12V233h42V218H141z"/>
		<path class="st7" d="M217.6,260h-16.9l-18.7-13h-22.3v13h-12v-42h51c11.6,0,18.1,6.5,18.1,14.5c0,8-6.5,14.5-18.1,14.5L217.6,260z
			 M198.6,238.1c3,0,5.5-2.5,5.5-5.5c0-3.1-2.5-5.5-5.5-5.5h-39v11H198.6z"/>
		<path class="st7" d="M223.9,239c0-14.6,13.3-22.6,35.2-22.6c22,0,35.2,8,35.2,22.6c0,14.6-13.2,22.6-35.2,22.6
			C237.1,261.6,223.9,253.6,223.9,239z M282.2,239c0-8.9-8.8-13.6-23.2-13.6c-14.5,0-23.2,4.7-23.2,13.6c0,8.9,8.8,13.6,23.2,13.6
			C273.5,252.6,282.2,247.9,282.2,239z"/>
		<path class="st7" d="M368.6,218l-0.1,21c0,14.6-12.7,22.6-34,22.6c-21.3,0-34-8-34-22.6l-0.1-21h12l0.1,21c0,8.9,8,13.6,22,13.6
			s22-4.7,22-13.6l0.1-21H368.6z"/>
		<path class="st7" d="M444.6,234.8v5.5c0,13.3-12.5,21.8-34.5,21.8c-22,0-35.2-8.5-35.2-23c0-14.6,13.3-23,35.2-23
			c12.2,0,21.7,2.5,27.7,7.4l-8,7.4c-3.7-3.8-10.5-5.9-19.7-5.9c-14.5,0-23.2,5.2-23.2,14c0,8.9,8.8,14,23.2,14
			c12.1,0,19.7-3.7,21.9-9.3h-28.1v-9H444.6z"/>
		<path class="st7" d="M516.6,218v42h-12V242h-42V260h-12v-42h12V233h42V218H516.6z"/>
		<path class="st7" d="M570.6,227v9.6h44.9v9h-44.9V260h-12v-42h63.2v9H570.6z"/>
		<path class="st7" d="M698.1,260h-16.9l-18.7-13h-22.3v13h-12v-42h51c11.6,0,18.1,6.5,18.1,14.5c0,8-6.5,14.5-18.1,14.5L698.1,260z
			 M679.1,238.1c3,0,5.5-2.5,5.5-5.5c0-3.1-2.5-5.5-5.5-5.5h-39v11H679.1z"/>
		<path class="st7" d="M757.9,252.5h-39.7L713,260h-13.4l28.6-42h19.7l28.6,42H763L757.9,252.5z M751.7,243.5L738,223.3l-13.7,20.2
			H751.7z"/>
		<path class="st7" d="M844.9,234.8v5.5c0,13.3-12.5,21.8-34.5,21.8s-35.2-8.5-35.2-23c0-14.6,13.3-23,35.2-23
			c12.2,0,21.7,2.5,27.7,7.4l-8,7.4c-3.7-3.8-10.5-5.9-19.7-5.9c-14.5,0-23.2,5.2-23.2,14c0,8.9,8.8,14,23.2,14
			c12.1,0,19.7-3.7,21.9-9.3h-28.1v-9H844.9z"/>
		<path class="st7" d="M863.5,218v42h-12v-42H863.5z"/>
		<path class="st7" d="M928,251v9h-57.2v-42h12v33H928z"/>
		<path class="st7" d="M944.8,218v42h-12v-42H944.8z"/>
		<path class="st7" d="M1020.4,227h-30.1v33h-12v-33h-29.9v-9h72V227z"/>
		<path class="st7" d="M1061.3,240.7V260h-12v-19.3l-28.9-22.7h16.3l18.6,14.6l18.6-14.6h16.3L1061.3,240.7z"/>
		<path class="st7" d="M58,319.7c0-2.5-3.8-3.4-19.9-4.8c-28-2.4-34.3-6.1-34.3-14c0-9.9,14.2-12.4,33.4-12.4
			c10.7,0,25,2.9,30.3,6.7l-7.1,6.6c-4.6-2.3-13.1-4.3-23.2-4.3c-13,0-21.4,0.8-21.4,2.9c0,2.3,5,3.5,22.9,5
			c22,1.9,31.3,5.9,31.3,14.8c0,10.7-15.6,13.3-33.4,13.3c-11.3,0-28.2-2.7-34.2-7.6l7.6-7.2c5.6,3.7,16.1,5.8,26.6,5.8
			C49.4,324.6,58,323,58,319.7z"/>
		<path class="st7" d="M75.4,311c0-14.6,13.3-22.6,35.2-22.6c22,0,35.2,8,35.2,22.6c0,14.6-13.2,22.6-35.2,22.6
			C88.7,333.6,75.4,325.6,75.4,311z M133.8,311c0-8.9-8.8-13.6-23.2-13.6c-14.5,0-23.2,4.7-23.2,13.6c0,8.9,8.8,13.6,23.2,13.6
			C125,324.6,133.8,319.9,133.8,311z"/>
		<path class="st7" d="M220.5,311c0,13.3-11.5,21-33.4,21h-34.7v-42h34.7C209,290,220.5,297.8,220.5,311z M208.5,311
			c0-7.6-7-12-21.4-12h-22.7v24h22.7C201.5,323,208.5,318.6,208.5,311z"/>
		<path class="st7" d="M239.4,290v42h-12v-42H239.4z"/>
		<path class="st7" d="M314.3,290l-0.1,21c0,14.6-12.7,22.6-34,22.6c-21.3,0-34-8-34-22.6l-0.1-21h12l0.1,21c0,8.9,8,13.6,22,13.6
			s22-4.7,22-13.6l0.1-21H314.3z"/>
		<path class="st7" d="M399.2,332h-12v-36.7L369.2,332h-17.9l-18.1-36.7V332h-12v-42h21.8l17.2,35.9l17.2-35.9h21.8V332z"/>
		<path class="st7" d="M510.8,299h-30.1v33h-12v-33h-29.9v-9h72V299z"/>
		<path class="st7" d="M584.4,332h-16.9l-18.7-13h-22.3v13h-12v-42h51c11.6,0,18.1,6.5,18.1,14.5c0,8-6.5,14.5-18.1,14.5L584.4,332z
			 M565.4,310.1c3,0,5.5-2.5,5.5-5.5c0-3.1-2.5-5.5-5.5-5.5h-39v11H565.4z"/>
		<path class="st7" d="M603.3,290v42h-12v-42H603.3z"/>
		<path class="st7" d="M688.5,332h-12v-36.7L658.4,332h-17.9l-18.1-36.7V332h-12v-42h21.8l17.2,35.9l17.2-35.9h21.8V332z"/>
		<path class="st7" d="M773.7,332h-12v-36.7L743.6,332h-17.9l-18.1-36.7V332h-12v-42h21.8l17.2,35.9l17.2-35.9h21.8V332z"/>
		<path class="st7" d="M792.9,299v6.5h47.9v9h-47.9v8.5h54.2v9h-66.2v-42h66.2v9H792.9z"/>
		<path class="st7" d="M923.7,332h-16.9l-18.7-13h-22.3v13h-12v-42h51c11.6,0,18.1,6.5,18.1,14.5c0,8-6.5,14.5-18.1,14.5L923.7,332z
			 M904.7,310.1c3,0,5.5-2.5,5.5-5.5c0-3.1-2.5-5.5-5.5-5.5h-39v11H904.7z"/>
		<path class="st7" d="M983.8,319.7c0-2.5-3.8-3.4-19.9-4.8c-28-2.4-34.3-6.1-34.3-14c0-9.9,14.2-12.4,33.4-12.4
			c10.7,0,25,2.9,30.3,6.7l-7.1,6.6c-4.6-2.3-13.1-4.3-23.2-4.3c-13,0-21.4,0.8-21.4,2.9c0,2.3,5,3.5,22.9,5
			c22,1.9,31.3,5.9,31.3,14.8c0,10.7-15.6,13.3-33.4,13.3c-11.3,0-28.2-2.7-34.2-7.6l7.6-7.2c5.6,3.7,16.1,5.8,26.6,5.8
			C975.2,324.6,983.8,323,983.8,319.7z"/>
		<path class="st7" d="M72.5,390.5c0,7.4-6.1,13.5-16.7,13.5H3.6v-42h52.2c9.6,0,15,5.5,15,12c0,2.8-1.6,5.4-3.9,7.4
			C70.1,383.9,72.5,387.1,72.5,390.5z M15.6,377.2h40.2c1.6,0,3.1-1.3,3.1-3.1c0-1.7-1.4-3.1-3.1-3.1H15.6V377.2z M60.2,390.6
			c0-2.4-2-4.4-4.4-4.4H15.6v8.9h40.2C58.2,395,60.2,393.1,60.2,390.6z"/>
		<path class="st7" d="M132,396.5H92.3l-5.1,7.5H73.7l28.6-42H122l28.6,42h-13.4L132,396.5z M125.9,387.5l-13.7-20.2l-13.7,20.2
			H125.9z"/>
		<path class="st7" d="M222.6,362v42h-22.2l-34.9-37.4V404h-12v-42h22.2l34.9,37.4V362H222.6z"/>
		<path class="st7" d="M286.4,362l-0.1,21c0,14.6-12.7,22.6-34,22.6c-11.5,0-20.4-2.3-26.2-6.7l7.9-7c5.6,3.5,11.2,4.7,18.4,4.7
			c13.9,0,22-4.7,22-13.6l0.1-21H286.4z"/>
		<path class="st7" d="M292.7,383c0-14.6,13.3-22.6,35.2-22.6c22,0,35.2,8,35.2,22.6c0,14.6-13.2,22.6-35.2,22.6
			C306,405.6,292.7,397.6,292.7,383z M351.1,383c0-8.9-8.8-13.6-23.2-13.6c-14.5,0-23.2,4.7-23.2,13.6c0,8.9,8.8,13.6,23.2,13.6
			C342.4,396.6,351.1,391.9,351.1,383z"/>
		<path class="st7" d="M460.1,391.7c0-2.5-3.8-3.4-19.9-4.8c-28-2.4-34.3-6.1-34.3-14c0-9.9,14.2-12.4,33.4-12.4
			c10.7,0,25,2.9,30.3,6.7l-7.1,6.6c-4.6-2.3-13.1-4.3-23.2-4.3c-13,0-21.4,0.8-21.4,2.9c0,2.3,5,3.5,22.9,5
			c22,1.9,31.3,5.9,31.3,14.8c0,10.7-15.6,13.3-33.4,13.3c-11.3,0-28.2-2.7-34.2-7.6l7.6-7.2c5.6,3.7,16.1,5.8,26.6,5.8
			C451.5,396.6,460.1,395,460.1,391.7z"/>
		<path class="st7" d="M547.2,362v42H525l-34.9-37.4V404h-12v-42h22.2l34.9,37.4V362H547.2z"/>
		<path class="st7" d="M553.8,383c0-14.6,13.3-22.6,35.2-22.6c22,0,35.2,8,35.2,22.6c0,14.6-13.2,22.6-35.2,22.6
			C567.1,405.6,553.8,397.6,553.8,383z M612.2,383c0-8.9-8.8-13.6-23.2-13.6c-14.5,0-23.2,4.7-23.2,13.6c0,8.9,8.8,13.6,23.2,13.6
			C603.4,396.6,612.2,391.9,612.2,383z"/>
		<path class="st7" d="M723.7,362l-16,42h-20l-13.8-36.3L660.1,404h-20l-16-42h12.7l13.3,36.4L664,362h19.8l13.9,36.4L711,362H723.7
			z"/>
		<path class="st7" d="M796.8,390.5c0,7.4-6.1,13.5-16.7,13.5h-52.2v-42h52.2c9.6,0,15,5.5,15,12c0,2.8-1.6,5.4-3.9,7.4
			C794.3,383.9,796.8,387.1,796.8,390.5z M739.9,377.2h40.2c1.6,0,3.1-1.3,3.1-3.1c0-1.7-1.4-3.1-3.1-3.1h-40.2V377.2z M784.5,390.6
			c0-2.4-2-4.4-4.4-4.4h-40.2v8.9h40.2C782.5,395,784.5,393.1,784.5,390.6z"/>
		<path class="st7" d="M815.4,362v42h-12v-42H815.4z"/>
		<path class="st7" d="M892.6,404h-16.9l-18.7-13h-22.3v13h-12v-42h51c11.6,0,18.1,6.5,18.1,14.5c0,8-6.5,14.5-18.1,14.5L892.6,404z
			 M873.6,382.1c3,0,5.5-2.5,5.5-5.5c0-3.1-2.5-5.5-5.5-5.5h-39v11H873.6z"/>
		<path class="st7" d="M967.6,383c0,13.3-11.5,21-33.4,21h-34.7v-42h34.7C956.1,362,967.6,369.8,967.6,383z M955.6,383
			c0-7.6-7-12-21.4-12h-22.7v24h22.7C948.5,395,955.6,390.6,955.6,383z"/>
		<path class="st7" d="M72,443H41.9v33h-12v-33H0v-9h72V443z"/>
		<path class="st7" d="M141,434v42h-12V458H87V476H75v-42h12V449h42V434H141z"/>
		<path class="st7" d="M159.6,443v6.5h47.9v9h-47.9v8.5h54.2v9h-66.2v-42h66.2v9H159.6z"/>
		<path class="st7" d="M325.6,450.8v5.5c0,13.3-12.5,21.8-34.5,21.8c-22,0-35.2-8.5-35.2-23c0-14.6,13.3-23,35.2-23
			c12.2,0,21.7,2.5,27.7,7.4l-8,7.4c-3.7-3.8-10.5-5.9-19.7-5.9c-14.5,0-23.2,5.2-23.2,14c0,8.9,8.8,14,23.2,14
			c12.1,0,19.7-3.7,21.9-9.3h-28.1v-9H325.6z"/>
		<path class="st7" d="M402.1,476h-16.9l-18.7-13h-22.3v13h-12v-42h51c11.6,0,18.1,6.5,18.1,14.5c0,8-6.5,14.5-18.1,14.5L402.1,476z
			 M383.2,454.1c3,0,5.5-2.5,5.5-5.5c0-3.1-2.5-5.5-5.5-5.5h-39v11H383.2z"/>
		<path class="st7" d="M421,434v42h-12v-42H421z"/>
		<path class="st7" d="M496.6,443h-30.1v33h-12v-33h-29.9v-9h72V443z"/>
		<path class="st7" d="M548.2,434v42h-12v-42H548.2z"/>
		<path class="st7" d="M624.5,434v42h-22.2l-34.9-37.4V476h-12v-42h22.2l34.9,37.4V434H624.5z"/>
		<path class="st7" d="M736.1,443H706v33h-12v-33h-29.9v-9h72V443z"/>
		<path class="st7" d="M805.1,434v42h-12V458h-42V476h-12v-42h12V449h42V434H805.1z"/>
		<path class="st7" d="M823.7,443v6.5h47.9v9h-47.9v8.5h54.2v9h-66.2v-42h66.2v9H823.7z"/>
		<path class="st7" d="M72.7,520.6c0,8-6.5,14.5-18.1,14.5h-39v13h-12v-42h51C66.2,506,72.7,512.6,72.7,520.6z M60.1,520.6
			c0-3.1-2.5-5.5-5.5-5.5h-39v11h39C57.6,526.1,60.1,523.6,60.1,520.6z"/>
		<path class="st7" d="M90.1,515v6.5H138v9H90.1v8.5h54.2v9H78.1v-42h66.2v9H90.1z"/>
		<path class="st7" d="M205,540.5h-39.7l-5.1,7.5h-13.4l28.6-42H195l28.6,42h-13.4L205,540.5z M198.9,531.5l-13.7-20.2l-13.7,20.2
			H198.9z"/>
		<path class="st7" d="M296.5,548h-16.9l-18.7-13h-22.3v13h-12v-42h51c11.6,0,18.1,6.5,18.1,14.5c0,8-6.5,14.5-18.1,14.5L296.5,548z
			 M277.6,526.1c3,0,5.5-2.5,5.5-5.5c0-3.1-2.5-5.5-5.5-5.5h-39v11H277.6z"/>
		<path class="st7" d="M360.7,539v9h-57.2v-42h12v33H360.7z"/>
		<path class="st7" d="M470.4,534.5c0,7.4-6.1,13.5-16.7,13.5h-52.2v-42h52.2c9.6,0,15,5.5,15,12c0,2.8-1.6,5.4-3.9,7.4
			C467.9,527.9,470.4,531.1,470.4,534.5z M413.5,521.2h40.2c1.6,0,3.1-1.3,3.1-3.1c0-1.7-1.4-3.1-3.1-3.1h-40.2V521.2z M458.1,534.6
			c0-2.4-2-4.4-4.4-4.4h-40.2v8.9h40.2C456.1,539,458.1,537.1,458.1,534.6z"/>
		<path class="st7" d="M489,515v6.5h47.9v9H489v8.5h54.2v9H477v-42h66.2v9H489z"/>
		<path class="st7" d="M603.9,540.5h-39.7l-5.1,7.5h-13.4l28.6-42h19.7l28.6,42H609L603.9,540.5z M597.8,531.5L584,511.3l-13.7,20.2
			H597.8z"/>
		<path class="st7" d="M686.6,536.9c-4.9,8.2-16.1,12.8-32.2,12.8c-22,0-35-8.1-35-22.7c0-14.6,13-22.7,35-22.7
			c16,0,27.3,4.6,32.2,12.7l-11.3,3.7c-3.4-4.7-10.6-7.4-20.8-7.4c-14.5,0-23,4.8-23,13.7s8.5,13.7,23,13.7
			c10.3,0,17.6-2.7,20.9-7.5L686.6,536.9z"/>
		<path class="st7" d="M692,527c0-14.6,13.3-22.6,35.2-22.6c22,0,35.2,8,35.2,22.6c0,14.6-13.2,22.6-35.2,22.6
			C705.3,549.6,692,541.6,692,527z M750.4,527c0-8.9-8.8-13.6-23.2-13.6c-14.5,0-23.2,4.7-23.2,13.6s8.8,13.6,23.2,13.6
			C741.7,540.6,750.4,535.9,750.4,527z"/>
		<path class="st7" d="M838.1,506v42h-22.2L781,510.7V548h-12v-42h22.2l34.9,37.4V506H838.1z"/>
		<path class="st7" d="M72.7,592.6c0,8-6.5,14.5-18.1,14.5h-39v13h-12v-42h51C66.2,578,72.7,584.6,72.7,592.6z M60.1,592.6
			c0-3.1-2.5-5.5-5.5-5.5h-39v11h39C57.6,598.1,60.1,595.6,60.1,592.6z"/>
		<path class="st7" d="M90.1,587v6.5H138v9H90.1v8.5h54.2v9H78.1v-42h66.2v9H90.1z"/>
		<path class="st7" d="M219.4,587h-30.1v33h-12v-33h-29.9v-9h72V587z"/>
		<path class="st7" d="M292.9,620H276l-18.7-13H235v13h-12v-42h51c11.6,0,18.1,6.5,18.1,14.5c0,8-6.5,14.5-18.1,14.5L292.9,620z
			 M274,598.1c3,0,5.5-2.5,5.5-5.5c0-3.1-2.5-5.5-5.5-5.5h-39v11H274z"/>
		<path class="st7" d="M298,599c0-14.6,13.3-22.6,35.2-22.6c22,0,35.2,8,35.2,22.6s-13.2,22.6-35.2,22.6
			C311.3,621.6,298,613.6,298,599z M356.4,599c0-8.9-8.8-13.6-23.2-13.6c-14.5,0-23.2,4.7-23.2,13.6s8.8,13.6,23.2,13.6
			C347.6,612.6,356.4,607.9,356.4,599z"/>
		<path class="st7" d="M432.2,611v9H375v-42h12v33H432.2z"/>
		<path class="st7" d="M449,587v6.5h47.9v9H449v8.5h54.2v9H437v-42h66.2v9H449z"/>
		<path class="st7" d="M577.6,578l-0.1,21c0,14.6-12.7,22.6-34,22.6c-21.3,0-34-8-34-22.6l-0.1-21h12l0.1,21c0,8.9,8,13.6,22,13.6
			s22-4.7,22-13.6l0.1-21H577.6z"/>
		<path class="st7" d="M662.5,620h-12v-36.7L632.5,620h-17.9l-18.1-36.7V620h-12v-42h21.8l17.2,35.9l17.2-35.9h21.8V620z"/>
		<path class="st7" d="M774.1,587h-30.1v33h-12v-33h-29.9v-9h72V587z"/>
		<path class="st7" d="M789.7,578v42h-12v-42H789.7z"/>
		<path class="st7" d="M866,578v42h-22.2l-34.9-37.4V620h-12v-42h22.2l34.9,37.4V578H866z"/>
		<path class="st7" d="M942.3,594.8v5.5c0,13.3-12.5,21.8-34.5,21.8s-35.2-8.5-35.2-23s13.3-23,35.2-23c12.2,0,21.7,2.5,27.7,7.4
			l-8,7.4c-3.7-3.8-10.5-5.9-19.7-5.9c-14.5,0-23.2,5.2-23.2,14s8.8,14,23.2,14c12.1,0,19.7-3.7,21.9-9.3h-28.1v-9H942.3z"/>
		<path class="st7" d="M960.9,587v6.5h47.9v9h-47.9v8.5h54.2v9h-66.2v-42h66.2v9H960.9z"/>
		<path class="st7" d="M1089.8,599c0,13.3-11.5,21-33.4,21h-34.7v-42h34.7C1078.4,578,1089.8,585.8,1089.8,599z M1077.8,599
			c0-7.6-7-12-21.4-12h-22.7v24h22.7C1070.8,611,1077.8,606.6,1077.8,599z"/>
		<path class="st7" d="M58,679.7c0-2.5-3.8-3.4-19.9-4.8c-28-2.4-34.3-6.1-34.3-14c0-9.9,14.2-12.4,33.4-12.4
			c10.7,0,25,2.9,30.3,6.7l-7.1,6.6c-4.6-2.3-13.1-4.3-23.2-4.3c-13,0-21.4,0.8-21.4,2.9c0,2.3,5,3.5,22.9,5
			c22,1.9,31.3,5.9,31.3,14.8c0,10.7-15.6,13.3-33.4,13.3c-11.3,0-28.2-2.7-34.2-7.6l7.6-7.2c5.6,3.7,16.1,5.8,26.6,5.8
			C49.4,684.6,58,683,58,679.7z"/>
		<path class="st7" d="M88,650v42H76v-42H88z"/>
		<path class="st7" d="M152.5,683v9H95.2v-42h12v33H152.5z"/>
		<path class="st7" d="M220.9,650l-28.6,42h-19.7l-28.6-42h13.4l25,36.7l25-36.7H220.9z"/>
		<path class="st7" d="M236.5,659v6.5h47.9v9h-47.9v8.5h54.2v9h-66.2v-42h66.2v9H236.5z"/>
		<path class="st7" d="M367.3,692h-16.9l-18.7-13h-22.3v13h-12v-42h51c11.6,0,18.1,6.5,18.1,14.5c0,8-6.5,14.5-18.1,14.5L367.3,692z
			 M348.3,670.1c3,0,5.5-2.5,5.5-5.5c0-3.1-2.5-5.5-5.5-5.5h-39v11H348.3z"/>
		<path class="st7" d="M386.2,659v6.5H434v9h-47.9v8.5h54.2v9h-66.2v-42h66.2v9H386.2z"/>
		<path class="st7" d="M515.1,671c0,13.3-11.5,21-33.4,21H447v-42h34.7C503.6,650,515.1,657.8,515.1,671z M503.1,671
			c0-7.6-7-12-21.4-12H459v24h22.7C496.1,683,503.1,678.6,503.1,671z"/>
		<path class="st7" d="M570,650v42h-12v-42H570z"/>
		<path class="st7" d="M647.2,692h-16.9l-18.7-13h-22.3v13h-12v-42h51c11.6,0,18.1,6.5,18.1,14.5c0,8-6.5,14.5-18.1,14.5L647.2,692z
			 M628.2,670.1c3,0,5.5-2.5,5.5-5.5c0-3.1-2.5-5.5-5.5-5.5h-39v11H628.2z"/>
		<path class="st7" d="M666.1,650v42h-12v-42H666.1z"/>
		<path class="st7" d="M727.6,679.7c0-2.5-3.8-3.4-19.9-4.8c-28-2.4-34.3-6.1-34.3-14c0-9.9,14.2-12.4,33.4-12.4
			c10.7,0,25,2.9,30.3,6.7l-7.1,6.6c-4.6-2.3-13.1-4.3-23.2-4.3c-13,0-21.4,0.8-21.4,2.9c0,2.3,5,3.5,22.9,5
			c22,1.9,31.3,5.9,31.3,14.8c0,10.7-15.6,13.3-33.4,13.3c-11.3,0-28.2-2.7-34.2-7.6l7.6-7.2c5.6,3.7,16.1,5.8,26.6,5.8
			C719,684.6,727.6,683,727.6,679.7z"/>
		<path class="st7" d="M72,731H41.9v33h-12v-33H0v-9h72V731z"/>
		<path class="st7" d="M141,722v42h-12V746H87V764H75v-42h12V737h42V722H141z"/>
		<path class="st7" d="M159.6,731v6.5h47.9v9h-47.9v8.5h54.2v9h-66.2v-42h66.2v9H159.6z"/>
		<path class="st7" d="M290.4,764h-16.9l-18.7-13h-22.3v13h-12v-42h51c11.6,0,18.1,6.5,18.1,14.5c0,8-6.5,14.5-18.1,14.5L290.4,764z
			 M271.4,742.1c3,0,5.5-2.5,5.5-5.5c0-3.1-2.5-5.5-5.5-5.5h-39v11H271.4z"/>
		<path class="st7" d="M309.3,731v6.5h47.9v9h-47.9v8.5h54.2v9h-66.2v-42h66.2v9H309.3z"/>
		<path class="st7" d="M418.1,722v42h-12v-42H418.1z"/>
		<path class="st7" d="M479.7,751.7c0-2.5-3.8-3.4-19.9-4.8c-28-2.4-34.3-6.1-34.3-14c0-9.9,14.2-12.4,33.4-12.4
			c10.7,0,25,2.9,30.3,6.7l-7.1,6.6c-4.6-2.3-13.1-4.3-23.2-4.3c-13,0-21.4,0.8-21.4,2.9c0,2.3,5,3.5,22.9,5
			c22,1.9,31.3,5.9,31.3,14.8c0,10.7-15.6,13.3-33.4,13.3c-11.3,0-28.2-2.7-34.2-7.6l7.6-7.2c5.6,3.7,16.1,5.8,26.6,5.8
			C471.1,756.6,479.7,755,479.7,751.7z"/>
		<path class="st7" d="M587.8,756.5h-39.7L543,764h-13.4l28.6-42h19.7l28.6,42h-13.4L587.8,756.5z M581.7,747.5L568,727.3
			l-13.7,20.2H581.7z"/>
		<path class="st7" d="M71.7,815c0,13.3-11.5,21-33.4,21H3.6v-42h34.7C60.2,794,71.7,801.8,71.7,815z M59.7,815c0-7.6-7-12-21.4-12
			H15.6v24h22.7C52.7,827,59.7,822.6,59.7,815z"/>
		<path class="st7" d="M90.6,794v42h-12v-42H90.6z"/>
		<path class="st7" d="M152.2,823.7c0-2.5-3.8-3.4-19.9-4.8c-28-2.4-34.3-6.1-34.3-14c0-9.9,14.2-12.4,33.4-12.4
			c10.7,0,25,2.9,30.3,6.7l-7.1,6.6c-4.6-2.3-13.1-4.3-23.2-4.3c-13,0-21.4,0.8-21.4,2.9c0,2.3,5,3.5,22.9,5
			c22,1.9,31.3,5.9,31.3,14.8c0,10.7-15.6,13.3-33.4,13.3c-11.3,0-28.2-2.7-34.2-7.6l7.6-7.2c5.6,3.7,16.1,5.8,26.6,5.8
			C143.6,828.6,152.2,827,152.2,823.7z"/>
		<path class="st7" d="M238.6,803h-30.1v33h-12v-33h-29.9v-9h72V803z"/>
		<path class="st7" d="M287.9,828.5h-39.7l-5.1,7.5h-13.4l28.6-42h19.7l28.6,42H293L287.9,828.5z M281.8,819.5L268,799.3l-13.7,20.2
			H281.8z"/>
		<path class="st7" d="M378.5,794v42h-22.2l-34.9-37.4V836h-12v-42h22.2l34.9,37.4V794H378.5z"/>
		<path class="st7" d="M451.7,824.9c-4.9,8.2-16.1,12.8-32.2,12.8c-22,0-35-8.1-35-22.7s13-22.7,35-22.7c16,0,27.3,4.6,32.2,12.7
			l-11.3,3.7c-3.4-4.7-10.6-7.4-20.8-7.4c-14.5,0-23,4.8-23,13.7s8.5,13.7,23,13.7c10.3,0,17.6-2.7,20.9-7.5L451.7,824.9z"/>
		<path class="st7" d="M469.7,803v6.5h47.9v9h-47.9v8.5h54.2v9h-66.2v-42h66.2v9H469.7z"/>
		<path class="st7" d="M578.5,794v42h-12v-42H578.5z"/>
		<path class="st7" d="M654.8,794v42h-22.2l-34.9-37.4V836h-12v-42h22.2l34.9,37.4V794H654.8z"/>
		<path class="st7" d="M735.3,816.7V836h-12v-19.3L694.4,794h16.3l18.6,14.6l18.6-14.6h16.3L735.3,816.7z"/>
		<path class="st7" d="M761.3,815c0-14.6,13.3-22.6,35.2-22.6s35.2,8,35.2,22.6s-13.2,22.6-35.2,22.6S761.3,829.6,761.3,815z
			 M819.7,815c0-8.9-8.8-13.6-23.2-13.6c-14.5,0-23.2,4.7-23.2,13.6s8.8,13.6,23.2,13.6C810.9,828.6,819.7,823.9,819.7,815z"/>
		<path class="st7" d="M906,794l-0.1,21c0,14.6-12.7,22.6-34,22.6s-34-8-34-22.6l-0.1-21h12l0.1,21c0,8.9,8,13.6,22,13.6
			c13.9,0,22-4.7,22-13.6l0.1-21H906z"/>
	</g>
</g>
</svg>
