<?xml version="1.0" encoding="utf-8"?>
<!-- Generator: Adobe Illustrator 19.0.1, SVG Export Plug-In . SVG Version: 6.00 Build 0)  -->
<svg version="1.1" xmlns="http://www.w3.org/2000/svg" xmlns:xlink="http://www.w3.org/1999/xlink" x="0px" y="0px"
	 viewBox="0 0 1012.7 554.6" style="enable-background:new 0 0 1012.7 554.6;" xml:space="preserve">
<style type="text/css">
	.st0{display:none;}
	.st1{display:inline;fill:none;}
	.st2{display:inline;}
	.st3{font-family:'HNIRExtended-Regular';}
	.st4{font-size:72px;}
	.st5{font-size:60px;}
	.st6{display:inline;fill:#3372FF;}
	.st7{fill:#3372FF;}
</style>
<g id="Layer_1" class="st0">
	<rect x="26.1" y="78.2" class="st1" width="1174.9" height="874.1"/>
	<text transform="matrix(1 0 0 1 26.0688 139.4176)" class="st2"><tspan x="0" y="0" class="st3 st4">BREAKING WAVES </tspan><tspan x="0" y="86.4" class="st3 st4">WHEN I LOOK THIS </tspan><tspan x="0" y="172.8" class="st3 st4">SIDE MIND  </tspan><tspan x="0" y="259.2" class="st3 st4">CONTROL  </tspan><tspan x="0" y="345.6" class="st3 st4">MEMORIES I WANT </tspan><tspan x="0" y="432" class="st3 st4">YOU IT IS  </tspan><tspan x="0" y="518.4" class="st3 st4">HAPPENING AGAIN </tspan><tspan x="0" y="604.8" class="st3 st4">STANDING HIGH </tspan><tspan x="0" y="691.2" class="st3 st4">OWLS TIME WARP </tspan><tspan x="0" y="777.6" class="st3 st4">SONIC SOUL FEAR </tspan></text>
</g>
<g id="Layer_1_copy_2" class="st0">
	<rect x="26.1" y="78.2" class="st1" width="1244.9" height="1001.7"/>
	<text transform="matrix(1 0 0 1 26.0688 129.2179)" class="st2"><tspan x="0" y="0" class="st3 st5">WALKING MACHINE </tspan><tspan x="0" y="72" class="st3 st5">HUMAN AFTER ALL </tspan><tspan x="0" y="144" class="st3 st5">PARIS FOUR HUNDRED </tspan><tspan x="0" y="216" class="st3 st5">GET MYSELF INTO IT </tspan><tspan x="0" y="288" class="st3 st5">CAMERA WE DANCE  </tspan><tspan x="0" y="360" class="st3 st5">TOGETHER BOSSY </tspan><tspan x="0" y="432" class="st3 st5">CHEAP AND CHEERFUL  </tspan><tspan x="0" y="504" class="st3 st5">TESTAROSSA  </tspan><tspan x="0" y="576" class="st3 st5">AUTODRIVE TEXAS </tspan><tspan x="0" y="648" class="st3 st5">FOOL FOR LOVE I STILL </tspan><tspan x="0" y="720" class="st3 st5">REMEMBER SEXUAL </tspan><tspan x="0" y="792" class="st3 st5">SPORTSWEAR GOLDEN </tspan><tspan x="0" y="864" class="st3 st5">SKANS</tspan></text>
</g>
<g id="Layer_1_copy" class="st0">
	<rect x="33.1" y="45.2" class="st1" width="1128.9" height="1231.4"/>
	<text transform="matrix(1 0 0 1 33.0688 106.4176)" class="st2"><tspan x="0" y="0" class="st3 st4">LEAN ON ME </tspan><tspan x="0" y="86.4" class="st3 st4">VIBRATIONS </tspan><tspan x="0" y="172.8" class="st3 st4">FOLLOWED BY </tspan><tspan x="0" y="259.2" class="st3 st4">POISONED </tspan><tspan x="0" y="345.6" class="st3 st4">APPLES YOU </tspan><tspan x="0" y="432" class="st3 st4">TOO ALBATROS </tspan><tspan x="0" y="518.4" class="st3 st4">WAKE ME UP </tspan><tspan x="0" y="604.8" class="st3 st4">SIGMUND THE </tspan><tspan x="0" y="691.2" class="st3 st4">TALKING DRUMS </tspan><tspan x="0" y="777.6" class="st3 st4">MOTHER ANIMAL </tspan><tspan x="0" y="864" class="st3 st4">STYLE COMPUTE </tspan><tspan x="0" y="950.4" class="st3 st4">WHEN THE NIGHT</tspan></text>
</g>
<g id="Layer_1_copy_3" class="st0">
	<path class="st6" d="M73.7,56.1v10.8H5V16.5h14.4v39.6H73.7z"/>
	<path class="st6" d="M93.9,27.3v7.8h57.5v10.8H93.9v10.2H159v10.8H79.5V16.5H159v10.8H93.9z"/>
	<path class="st6" d="M231.8,57.9h-47.7l-6.1,9h-16.1l34.3-50.4h23.6L254,66.9h-16.1L231.8,57.9z M224.4,47.1l-16.5-24.3l-16.5,24.3
		H224.4z"/>
	<path class="st6" d="M340.5,16.5v50.4h-26.6L272,22.1v44.9h-14.4V16.5h26.6l41.8,44.9V16.5H340.5z"/>
	<path class="st6" d="M391.6,41.7c0-17.5,15.9-27.1,42.3-27.1c26.4,0,42.2,9.6,42.2,27.1s-15.8,27.1-42.2,27.1
		C407.5,68.8,391.6,59.2,391.6,41.7z M461.7,41.7c0-10.7-10.5-16.3-27.8-16.3c-17.4,0-27.9,5.6-27.9,16.3S416.5,58,433.9,58
		C451.2,58,461.7,52.4,461.7,41.7z"/>
	<path class="st6" d="M566.9,16.5v50.4h-26.6l-41.8-44.9v44.9H484V16.5h26.6l41.8,44.9V16.5H566.9z"/>
	<path class="st6" d="M712.3,66.9h-14.4v-44l-21.7,44h-21.5l-21.7-44v44h-14.4V16.5h26.2l20.6,43.1l20.6-43.1h26.2V66.9z"/>
	<path class="st6" d="M735.3,27.3v7.8h57.5v10.8h-57.5v10.2h65.1v10.8h-79.5V16.5h79.5v10.8H735.3z"/>
	<path class="st6" d="M92.9,102.9l-34.3,50.4H35L0.7,102.9h16.1l30,44.1l30-44.1H92.9z"/>
	<path class="st6" d="M111.6,102.9v50.4H97.2v-50.4H111.6z"/>
	<path class="st6" d="M203,137.1c0,8.9-7.3,16.2-20.1,16.2h-62.6v-50.4h62.6c11.5,0,18,6.6,18,14.4c0,3.4-1.9,6.5-4.7,8.9
		C200,129.1,203,133,203,137.1z M134.6,121.1h48.2c1.9,0,3.7-1.6,3.7-3.7c0-2-1.7-3.7-3.7-3.7h-48.2V121.1z M188.2,137.2
		c0-2.9-2.4-5.3-5.3-5.3h-48.2v10.7h48.2C185.8,142.5,188.2,140.2,188.2,137.2z"/>
	<path class="st6" d="M294.8,153.3h-20.3l-22.5-15.6h-26.8v15.6h-14.4v-50.4h61.2c13.9,0,21.7,7.8,21.7,17.4
		c0,9.6-7.8,17.4-21.7,17.4L294.8,153.3z M272.1,127c3.6,0,6.6-3,6.6-6.6c0-3.7-3-6.6-6.6-6.6h-46.8V127H272.1z"/>
	<path class="st6" d="M366,144.3h-47.7l-6.1,9h-16.1l34.3-50.4H354l34.3,50.4h-16.1L366,144.3z M358.6,133.5l-16.5-24.3l-16.5,24.3
		H358.6z"/>
	<path class="st6" d="M458.9,113.7h-36.1v39.6h-14.4v-39.6h-35.9v-10.8h86.4V113.7z"/>
	<path class="st6" d="M477.6,102.9v50.4h-14.4v-50.4H477.6z"/>
	<path class="st6" d="M485.5,128.1c0-17.5,15.9-27.1,42.3-27.1c26.4,0,42.2,9.6,42.2,27.1s-15.8,27.1-42.2,27.1
		C501.5,155.2,485.5,145.6,485.5,128.1z M555.6,128.1c0-10.7-10.5-16.3-27.8-16.3c-17.4,0-27.9,5.6-27.9,16.3s10.5,16.3,27.9,16.3
		C545.1,144.4,555.6,138.8,555.6,128.1z"/>
	<path class="st6" d="M660.8,102.9v50.4h-26.6l-41.8-44.9v44.9h-14.4v-50.4h26.6l41.8,44.9v-44.9H660.8z"/>
	<path class="st6" d="M734.7,138.6c0-3-4.5-4.1-23.8-5.8c-33.6-2.9-41.1-7.3-41.1-16.8c0-11.9,17-14.9,40-14.9c12.9,0,30,3.5,36.4,8
		l-8.5,7.9c-5.5-2.8-15.8-5.1-27.9-5.1c-15.6,0-25.7,0.9-25.7,3.5c0,2.8,6,4.2,27.5,6c26.4,2.3,37.6,7.1,37.6,17.8
		c0,12.9-18.7,16-40.1,16c-13.6,0-33.8-3.2-41-9.1l9.1-8.6c6.7,4.4,19.3,7,31.9,7C724.4,144.4,734.7,142.5,734.7,138.6z"/>
	<path class="st6" d="M18.7,200.1v11.5h53.9v10.8H18.7v17.3H4.3v-50.4h75.9v10.8H18.7z"/>
	<path class="st6" d="M87,214.5c0-17.5,15.9-27.1,42.3-27.1c26.4,0,42.2,9.6,42.2,27.1s-15.8,27.1-42.2,27.1
		C103,241.6,87,232,87,214.5z M157.1,214.5c0-10.7-10.5-16.3-27.8-16.3c-17.4,0-27.9,5.6-27.9,16.3s10.5,16.3,27.9,16.3
		C146.6,230.8,157.1,225.2,157.1,214.5z"/>
	<path class="st6" d="M248.1,228.9v10.8h-68.7v-50.4h14.4v39.6H248.1z"/>
	<path class="st6" d="M322.6,228.9v10.8h-68.7v-50.4h14.4v39.6H322.6z"/>
	<path class="st6" d="M327.6,214.5c0-17.5,15.9-27.1,42.3-27.1c26.4,0,42.2,9.6,42.2,27.1s-15.8,27.1-42.2,27.1
		C343.5,241.6,327.6,232,327.6,214.5z M397.7,214.5c0-10.7-10.5-16.3-27.8-16.3c-17.4,0-27.9,5.6-27.9,16.3s10.5,16.3,27.9,16.3
		C387.1,230.8,397.7,225.2,397.7,214.5z"/>
	<path class="st6" d="M535.8,189.3l-19.2,50.4h-24l-16.6-43.6l-16.6,43.6h-24l-19.2-50.4h15.2l16,43.7l16.6-43.7h23.8l16.6,43.7
		l16-43.7H535.8z"/>
	<path class="st6" d="M555.2,200.1v7.8h57.5v10.8h-57.5v10.2h65.1v10.8h-79.5v-50.4h79.5v10.8H555.2z"/>
	<path class="st6" d="M709.9,214.5c0,15.9-13.8,25.2-40.1,25.2h-41.6v-50.4h41.6C696.2,189.3,709.9,198.6,709.9,214.5z M695.5,214.5
		c0-9.1-8.4-14.4-25.7-14.4h-27.2v28.8h27.2C687.1,228.9,695.5,223.6,695.5,214.5z"/>
	<path class="st6" d="M844.1,223.5c0,8.9-7.3,16.2-20.1,16.2h-62.6v-50.4H824c11.5,0,18,6.6,18,14.4c0,3.4-1.9,6.5-4.7,8.9
		C841.2,215.5,844.1,219.4,844.1,223.5z M775.8,207.5H824c1.9,0,3.7-1.6,3.7-3.7c0-2-1.7-3.7-3.7-3.7h-48.2V207.5z M829.4,223.6
		c0-2.9-2.4-5.3-5.3-5.3h-48.2v10.7H824C826.9,228.9,829.4,226.6,829.4,223.6z"/>
	<path class="st6" d="M896.8,216.6v23.2h-14.4v-23.2l-34.7-27.2h19.6l22.3,17.5l22.3-17.5h19.6L896.8,216.6z"/>
	<path class="st6" d="M88,293.2c0,9.6-7.8,17.4-21.7,17.4H19.4v15.6H5v-50.4h61.2C80.1,275.7,88,283.6,88,293.2z M72.9,293.2
		c0-3.7-3-6.6-6.6-6.6H19.4v13.2h46.8C69.8,299.8,72.9,296.8,72.9,293.2z"/>
	<path class="st6" d="M93.7,300.9c0-17.5,15.9-27.1,42.3-27.1c26.4,0,42.2,9.6,42.2,27.1S162.4,328,136,328
		C109.7,328,93.7,318.4,93.7,300.9z M163.8,300.9c0-10.7-10.5-16.3-27.8-16.3c-17.4,0-27.9,5.6-27.9,16.3s10.5,16.3,27.9,16.3
		C153.3,317.2,163.8,311.6,163.8,300.9z"/>
	<path class="st6" d="M200.5,275.7v50.4h-14.4v-50.4H200.5z"/>
	<path class="st6" d="M274.4,311.4c0-3-4.5-4.1-23.8-5.8c-33.6-2.9-41.1-7.3-41.1-16.8c0-11.9,17-14.9,40-14.9c12.9,0,30,3.5,36.4,8
		l-8.5,7.9c-5.5-2.8-15.8-5.1-27.9-5.1c-15.6,0-25.7,0.9-25.7,3.5c0,2.8,6,4.2,27.5,6c26.4,2.3,37.6,7.1,37.6,17.8
		c0,12.9-18.7,16-40.1,16c-13.6,0-33.8-3.2-41-9.1l9.1-8.6c6.7,4.4,19.3,7,31.9,7C264.1,317.2,274.4,315.3,274.4,311.4z"/>
	<path class="st6" d="M295.3,300.9c0-17.5,15.9-27.1,42.3-27.1c26.4,0,42.2,9.6,42.2,27.1S364,328,337.6,328
		C311.3,328,295.3,318.4,295.3,300.9z M365.4,300.9c0-10.7-10.5-16.3-27.8-16.3c-17.4,0-27.9,5.6-27.9,16.3s10.5,16.3,27.9,16.3
		C354.9,317.2,365.4,311.6,365.4,300.9z"/>
	<path class="st6" d="M470.6,275.7v50.4H444l-41.8-44.9v44.9h-14.4v-50.4h26.6l41.8,44.9v-44.9H470.6z"/>
	<path class="st6" d="M493.6,286.5v7.8h57.5v10.8h-57.5v10.2h65.1v10.8h-79.5v-50.4h79.5v10.8H493.6z"/>
	<path class="st6" d="M648.4,300.9c0,15.9-13.8,25.2-40.1,25.2h-41.6v-50.4h41.6C634.6,275.7,648.4,285,648.4,300.9z M634,300.9
		c0-9.1-8.4-14.4-25.7-14.4H581v28.8h27.2C625.5,315.3,634,310,634,300.9z"/>
	<path class="st6" d="M69.9,403.5H22.2l-6.1,9H0l34.3-50.4h23.6l34.3,50.4H76L69.9,403.5z M62.6,392.7l-16.5-24.3l-16.5,24.3H62.6z"
		/>
	<path class="st6" d="M178.7,379.6c0,9.6-7.8,17.4-21.7,17.4h-46.8v15.6H95.8v-50.4H157C170.9,362.1,178.7,370,178.7,379.6z
		 M163.6,379.6c0-3.7-3-6.6-6.6-6.6h-46.8v13.2H157C160.6,386.2,163.6,383.2,163.6,379.6z"/>
	<path class="st6" d="M268.1,379.6c0,9.6-7.8,17.4-21.7,17.4h-46.8v15.6h-14.4v-50.4h61.2C260.3,362.1,268.1,370,268.1,379.6z
		 M253,379.6c0-3.7-3-6.6-6.6-6.6h-46.8v13.2h46.8C250,386.2,253,383.2,253,379.6z"/>
	<path class="st6" d="M343.3,401.7v10.8h-68.7v-50.4H289v39.6H343.3z"/>
	<path class="st6" d="M363.5,372.9v7.8h57.5v10.8h-57.5v10.2h65.1v10.8h-79.5v-50.4h79.5v10.8H363.5z"/>
	<path class="st6" d="M501.7,397.8c0-3-4.5-4.1-23.8-5.8c-33.6-2.9-41.1-7.3-41.1-16.8c0-11.9,17-14.9,40-14.9c12.9,0,30,3.5,36.4,8
		l-8.5,7.9c-5.5-2.8-15.8-5.1-27.9-5.1c-15.6,0-25.7,0.9-25.7,3.5c0,2.8,6,4.2,27.5,6c26.4,2.3,37.6,7.1,37.6,17.8
		c0,12.9-18.7,16-40.1,16c-13.6,0-33.8-3.2-41-9.1l9.1-8.6c6.7,4.4,19.3,7,31.9,7C491.4,403.6,501.7,401.7,501.7,397.8z"/>
	<path class="st6" d="M611.4,389.4v23.2H597v-23.2l-34.7-27.2h19.6l22.3,17.5l22.3-17.5h19.6L611.4,389.4z"/>
	<path class="st6" d="M641.7,387.3c0-17.5,15.9-27.1,42.3-27.1s42.2,9.6,42.2,27.1s-15.8,27.1-42.2,27.1S641.7,404.8,641.7,387.3z
		 M711.8,387.3c0-10.7-10.5-16.3-27.8-16.3c-17.4,0-27.9,5.6-27.9,16.3s10.5,16.3,27.9,16.3C701.3,403.6,711.8,398,711.8,387.3z"/>
	<path class="st6" d="M815.4,362.1l-0.1,25.2c0,17.5-15.2,27.1-40.8,27.1c-25.6,0-40.8-9.6-40.8-27.1l-0.1-25.2h14.4l0.1,25.2
		c0,10.7,9.6,16.3,26.4,16.3c16.7,0,26.4-5.6,26.4-16.3l0.1-25.2H815.4z"/>
	<path class="st6" d="M87.1,459.3H51.1v39.6H36.7v-39.6H0.7v-10.8h86.4V459.3z"/>
	<path class="st6" d="M90.7,473.7c0-17.5,15.9-27.1,42.3-27.1c26.4,0,42.2,9.6,42.2,27.1c0,17.5-15.8,27.1-42.2,27.1
		C106.6,500.8,90.7,491.2,90.7,473.7z M160.8,473.7c0-10.7-10.5-16.3-27.8-16.3c-17.4,0-27.9,5.6-27.9,16.3
		c0,10.7,10.5,16.3,27.9,16.3C150.3,490,160.8,484.4,160.8,473.7z"/>
	<path class="st6" d="M182.4,473.7c0-17.5,15.9-27.1,42.3-27.1c26.4,0,42.2,9.6,42.2,27.1c0,17.5-15.8,27.1-42.2,27.1
		C198.3,500.8,182.4,491.2,182.4,473.7z M252.4,473.7c0-10.7-10.5-16.3-27.8-16.3c-17.4,0-27.9,5.6-27.9,16.3
		c0,10.7,10.5,16.3,27.9,16.3C241.9,490,252.4,484.4,252.4,473.7z"/>
	<path class="st6" d="M382.8,489.9h-47.7l-6.1,9h-16.1l34.3-50.4h23.6l34.3,50.4h-16.1L382.8,489.9z M375.5,479.1L359,454.9
		l-16.5,24.3H375.5z"/>
	<path class="st6" d="M477.4,488.1v10.8h-68.7v-50.4h14.4v39.6H477.4z"/>
	<path class="st6" d="M565.9,482.7c0,8.9-7.3,16.2-20.1,16.2h-62.6v-50.4h62.6c11.5,0,18,6.6,18,14.4c0,3.4-1.9,6.5-4.7,8.9
		C562.9,474.7,565.9,478.6,565.9,482.7z M497.5,466.7h48.2c1.9,0,3.7-1.6,3.7-3.7c0-2-1.7-3.7-3.7-3.7h-48.2V466.7z M551.1,482.8
		c0-2.9-2.4-5.3-5.3-5.3h-48.2v10.7h48.2C548.6,488.1,551.1,485.8,551.1,482.8z"/>
	<path class="st6" d="M638.6,489.9H591l-6.1,9h-16.1l34.3-50.4h23.6l34.3,50.4h-16.1L638.6,489.9z M631.3,479.1l-16.5-24.3
		l-16.5,24.3H631.3z"/>
	<path class="st6" d="M731.6,459.3h-36.1v39.6h-14.4v-39.6h-35.9v-10.8h86.4V459.3z"/>
	<path class="st6" d="M819.8,498.9h-20.3l-22.5-15.6h-26.8v15.6h-14.4v-50.4h61.2c13.9,0,21.7,7.8,21.7,17.4
		c0,9.6-7.8,17.4-21.7,17.4L819.8,498.9z M797.1,472.6c3.6,0,6.6-3,6.6-6.6c0-3.7-3-6.6-6.6-6.6h-46.8v13.2H797.1z"/>
	<path class="st6" d="M827.4,473.7c0-17.5,15.9-27.1,42.3-27.1s42.2,9.6,42.2,27.1c0,17.5-15.8,27.1-42.2,27.1
		S827.4,491.2,827.4,473.7z M897.4,473.7c0-10.7-10.5-16.3-27.8-16.3c-17.4,0-27.9,5.6-27.9,16.3c0,10.7,10.5,16.3,27.9,16.3
		C886.9,490,897.4,484.4,897.4,473.7z"/>
	<path class="st6" d="M985,484.2c0-3-4.5-4.1-23.8-5.8c-33.6-2.9-41.1-7.3-41.1-16.8c0-11.9,17-14.9,40-14.9c12.9,0,30,3.5,36.4,8
		l-8.5,7.9c-5.5-2.8-15.8-5.1-27.9-5.1c-15.6,0-25.7,0.9-25.7,3.5c0,2.8,6,4.2,27.5,6c26.4,2.3,37.6,7.1,37.6,17.8
		c0,12.9-18.7,16-40.1,16c-13.6,0-33.8-3.2-41-9.1l9.1-8.6c6.7,4.4,19.3,7,31.9,7C974.7,490,985,488.1,985,484.2z"/>
	<path class="st6" d="M120.8,534.9l-19.2,50.4h-24l-16.6-43.6l-16.6,43.6h-24L1.4,534.9h15.2l16,43.7l16.6-43.7H73l16.6,43.7
		l16-43.7H120.8z"/>
	<path class="st6" d="M190.7,576.3h-47.7l-6.1,9h-16.1l34.3-50.4h23.6l34.3,50.4h-16.1L190.7,576.3z M183.4,565.5l-16.5-24.3
		l-16.5,24.3H183.4z"/>
	<path class="st6" d="M273.6,585.3l-42.6-26v26h-14.4v-50.4H231v22.8l39.8-22.8H293l-41.9,23.5l44.7,26.9H273.6z"/>
	<path class="st6" d="M315.3,545.7v7.8h57.5v10.8h-57.5v10.2h65.1v10.8h-79.5v-50.4h79.5v10.8H315.3z"/>
	<path class="st6" d="M525.1,585.3h-14.4v-44l-21.7,44h-21.5l-21.7-44v44h-14.4v-50.4h26.2l20.6,43.1l20.6-43.1h26.2V585.3z"/>
	<path class="st6" d="M548.1,545.7v7.8h57.5v10.8h-57.5v10.2h65.1v10.8h-79.5v-50.4h79.5v10.8H548.1z"/>
	<path class="st6" d="M745.6,534.9l-0.1,25.2c0,17.5-15.2,27.1-40.8,27.1c-25.6,0-40.8-9.6-40.8-27.1l-0.1-25.2h14.4l0.1,25.2
		c0,10.7,9.6,16.3,26.4,16.3c16.7,0,26.4-5.6,26.4-16.3l0.1-25.2H745.6z"/>
	<path class="st6" d="M836.9,552.4c0,9.6-7.8,17.4-21.7,17.4h-46.8v15.6h-14.4v-50.4h61.2C829,534.9,836.9,542.8,836.9,552.4z
		 M821.7,552.4c0-3.7-3-6.6-6.6-6.6h-46.8V559h46.8C818.7,559,821.7,556,821.7,552.4z"/>
</g>
<g id="Layer_5">
	<g>
		<path class="st7" d="M46.9,25c0-2-3-2.7-15.9-3.8C8.5,19.2,3.6,16.3,3.6,9.9C3.6,2,14.9,0,30.2,0c8.6,0,20,2.4,24.2,5.3l-5.7,5.3
			c-3.6-1.9-10.5-3.4-18.6-3.4c-10.4,0-17.1,0.6-17.1,2.4c0,1.9,4,2.8,18.3,4c17.6,1.5,25.1,4.8,25.1,11.9
			c0,8.6-12.5,10.7-26.7,10.7c-9.1,0-22.6-2.2-27.4-6.1l6.1-5.8c4.5,2.9,12.9,4.7,21.3,4.7C40,28.9,46.9,27.7,46.9,25z"/>
		<path class="st7" d="M113.6,1.2v33.6H104V20.4H70.4v14.4h-9.6V1.2h9.6v12H104v-12H113.6z"/>
		<path class="st7" d="M128.5,1.2v33.6h-9.6V1.2H128.5z"/>
		<path class="st7" d="M189.1,12.9c0,6.4-5.2,11.6-14.5,11.6h-31.2v10.4h-9.6V1.2h40.8C183.8,1.2,189.1,6.5,189.1,12.9z M179,12.9
			c0-2.4-2-4.4-4.4-4.4h-31.2v8.8h31.2C177,17.3,179,15.3,179,12.9z"/>
		<path class="st7" d="M231.8,1.2v33.6h-9.6V1.2H231.8z"/>
		<path class="st7" d="M280.6,25c0-2-3-2.7-15.9-3.8c-22.4-1.9-27.4-4.8-27.4-11.2C237.3,2,248.6,0,264,0c8.6,0,20,2.4,24.2,5.3
			l-5.7,5.3C278.9,8.7,272,7.2,264,7.2c-10.4,0-17.1,0.6-17.1,2.4c0,1.9,4,2.8,18.3,4c17.6,1.5,25.1,4.8,25.1,11.9
			c0,8.6-12.5,10.7-26.7,10.7c-9.1,0-22.6-2.2-27.4-6.1l6.1-5.8c4.5,2.9,12.9,4.7,21.3,4.7C273.7,28.9,280.6,27.7,280.6,25z"/>
		<path class="st7" d="M332.9,8.4v7.7h35.9v7.2h-35.9v11.5h-9.6V1.2h50.6v7.2H332.9z"/>
		<path class="st7" d="M424.8,27.7v7.2H379V1.2h9.6v26.4H424.8z"/>
		<path class="st7" d="M426.2,18c0-11.7,10.6-18,28.2-18s28.1,6.4,28.1,18s-10.6,18-28.1,18S426.2,29.7,426.2,18z M472.9,18
			c0-7.1-7-10.8-18.5-10.8c-11.6,0-18.6,3.7-18.6,10.8c0,7.1,7,10.8,18.6,10.8C465.9,28.9,472.9,25.2,472.9,18z"/>
		<path class="st7" d="M487.3,18c0-11.7,10.6-18,28.2-18s28.1,6.4,28.1,18s-10.6,18-28.1,18S487.3,29.7,487.3,18z M534,18
			c0-7.1-7-10.8-18.5-10.8c-11.6,0-18.6,3.7-18.6,10.8c0,7.1,7,10.8,18.6,10.8C527,28.9,534,25.2,534,18z"/>
		<path class="st7" d="M603.4,18c0,10.6-9.2,16.8-26.7,16.8h-27.7V1.2h27.7C594.2,1.2,603.4,7.4,603.4,18z M593.8,18
			c0-6-5.6-9.6-17.1-9.6h-18.1v19.2h18.1C588.1,27.7,593.8,24.1,593.8,18z"/>
		<path class="st7" d="M618.5,1.2v33.6h-9.6V1.2H618.5z"/>
		<path class="st7" d="M679,1.2v33.6h-17.8L633.4,4.9v29.9h-9.6V1.2h17.8l27.9,29.9V1.2H679z"/>
		<path class="st7" d="M740.1,14.6v4.4c0,10.7-10,17-27.6,17c-17.6,0-28.2-6.4-28.2-18s10.6-18,28.2-18c9.8,0,17.3,1.6,22.1,5.6
			l-6.4,6c-3-3.1-8.4-4.3-15.7-4.3c-11.6,0-18.6,3.7-18.6,10.8c0,7.1,7,10.8,18.6,10.8c9.6,0,15.7-2.6,17.5-7.1h-22.5v-7.2H740.1z"
			/>
		<path class="st7" d="M80.1,58.8L67.3,92.5h-16l-11-29l-11,29h-16L0.5,58.8h10.1L21.3,88l11.1-29.1h15.8L59.3,88l10.7-29.1H80.1z"
			/>
		<path class="st7" d="M92.5,58.8v33.6h-9.6V58.8H92.5z"/>
		<path class="st7" d="M153.1,58.8v33.6h-17.8l-27.9-29.9v29.9h-9.6V58.8h17.8l27.9,29.9V58.8H153.1z"/>
		<path class="st7" d="M213.6,66h-24.1v26.4h-9.6V66h-24v-7.2h57.6V66z"/>
		<path class="st7" d="M226,66v5.2h38.3v7.2H226v6.8h43.4v7.2h-53V58.8h53V66H226z"/>
		<path class="st7" d="M330.7,92.5h-13.5l-15-10.4h-17.9v10.4h-9.6V58.8h40.8c9.3,0,14.5,5.2,14.5,11.6c0,6.4-5.2,11.6-14.5,11.6
			L330.7,92.5z M315.5,74.9c2.4,0,4.4-2,4.4-4.4c0-2.4-2-4.4-4.4-4.4h-31.2v8.8H315.5z"/>
		<path class="st7" d="M410.5,85.2v7.2h-45.8V58.8h9.6v26.4H410.5z"/>
		<path class="st7" d="M424,58.8v33.6h-9.6V58.8H424z"/>
		<path class="st7" d="M484.5,58.8v33.6h-17.8l-27.9-29.9v29.9h-9.6V58.8H447l27.9,29.9V58.8H484.5z"/>
		<path class="st7" d="M545.5,58.8v33.6h-17.8l-27.9-29.9v29.9h-9.6V58.8H508l27.9,29.9V58.8H545.5z"/>
		<path class="st7" d="M634.3,58.8l0,16.8c0,11.7-10.1,18-27.2,18s-27.2-6.4-27.2-18l0-16.8h9.6l0,16.8c0,7.1,6.4,10.8,17.6,10.8
			c11.1,0,17.6-3.7,17.6-10.8l0-16.8H634.3z"/>
		<path class="st7" d="M695,58.8v33.6h-17.8l-27.9-29.9v29.9h-9.6V58.8h17.8l27.9,29.9V58.8H695z"/>
		<path class="st7" d="M709.9,66v7.7h35.9v7.2h-35.9v11.5h-9.6V58.8h50.6V66H709.9z"/>
		<path class="st7" d="M810.1,58.8l0,16.8c0,11.7-10.1,18-27.2,18c-17,0-27.2-6.4-27.2-18l0-16.8h9.6l0,16.8
			c0,7.1,6.4,10.8,17.6,10.8s17.6-3.7,17.6-10.8l0-16.8H810.1z"/>
		<path class="st7" d="M871.6,92.5h-13.5l-15-10.4h-17.9v10.4h-9.6V58.8h40.8c9.3,0,14.5,5.2,14.5,11.6c0,6.4-5.2,11.6-14.5,11.6
			L871.6,92.5z M856.5,74.9c2.4,0,4.4-2,4.4-4.4c0-2.4-2-4.4-4.4-4.4h-31.2v8.8H856.5z"/>
		<path class="st7" d="M922.7,85.2v7.2h-45.8V58.8h9.6v26.4H922.7z"/>
		<path class="st7" d="M969.8,86.5H938l-4.1,6h-10.8L946,58.8h15.7l22.8,33.6h-10.8L969.8,86.5z M964.9,79.2l-11-16.2l-11,16.2
			H964.9z"/>
		<path class="st7" d="M46.9,140.2c0-2-3-2.7-15.9-3.8c-22.4-1.9-27.4-4.8-27.4-11.2c0-7.9,11.3-9.9,26.7-9.9c8.6,0,20,2.4,24.2,5.3
			l-5.7,5.3c-3.6-1.9-10.5-3.4-18.6-3.4c-10.4,0-17.1,0.6-17.1,2.4c0,1.9,4,2.8,18.3,4c17.6,1.5,25.1,4.8,25.1,11.9
			c0,8.6-12.5,10.7-26.7,10.7c-9.1,0-22.6-2.2-27.4-6.1l6.1-5.8c4.5,2.9,12.9,4.7,21.3,4.7C40,144.1,46.9,142.9,46.9,140.2z"/>
		<path class="st7" d="M116,123.6H92v26.4h-9.6v-26.4h-24v-7.2H116V123.6z"/>
		<path class="st7" d="M174.9,150.1h-13.5l-15-10.4h-17.9v10.4h-9.6v-33.6h40.8c9.3,0,14.5,5.2,14.5,11.6c0,6.4-5.2,11.6-14.5,11.6
			L174.9,150.1z M159.7,132.5c2.4,0,4.4-2,4.4-4.4c0-2.4-2-4.4-4.4-4.4h-31.2v8.8H159.7z"/>
		<path class="st7" d="M189.7,123.6v5.2h38.3v7.2h-38.3v6.8h43.4v7.2h-53v-33.6h53v7.2H189.7z"/>
		<path class="st7" d="M293.7,116.4v33.6h-17.8L248,120.1v29.9h-9.6v-33.6h17.8l27.9,29.9v-29.9H293.7z"/>
		<path class="st7" d="M354.7,129.8v4.4c0,10.7-10,17-27.6,17s-28.2-6.4-28.2-18s10.6-18,28.2-18c9.8,0,17.3,1.6,22.1,5.6l-6.4,6
			c-3-3.1-8.4-4.3-15.7-4.3c-11.6,0-18.6,3.7-18.6,10.8c0,7.1,7,10.8,18.6,10.8c9.6,0,15.7-2.6,17.5-7.1h-22.5v-7.2H354.7z"/>
		<path class="st7" d="M412.8,123.6h-24.1v26.4h-9.6v-26.4h-24v-7.2h57.6V123.6z"/>
		<path class="st7" d="M468,116.4v33.6h-9.6v-14.4h-33.6v14.4h-9.6v-33.6h9.6v12h33.6v-12H468z"/>
		<path class="st7" d="M556.8,123.6h-24.1v26.4h-9.6v-26.4h-24v-7.2h57.6V123.6z"/>
		<path class="st7" d="M612,116.4v33.6h-9.6v-14.4h-33.6v14.4h-9.6v-33.6h9.6v12h33.6v-12H612z"/>
		<path class="st7" d="M673.2,150.1h-13.5l-15-10.4h-17.9v10.4h-9.6v-33.6h40.8c9.3,0,14.5,5.2,14.5,11.6c0,6.4-5.2,11.6-14.5,11.6
			L673.2,150.1z M658.1,132.5c2.4,0,4.4-2,4.4-4.4c0-2.4-2-4.4-4.4-4.4h-31.2v8.8H658.1z"/>
		<path class="st7" d="M677.1,133.2c0-11.7,10.6-18,28.2-18c17.6,0,28.1,6.4,28.1,18s-10.6,18-28.1,18
			C687.7,151.3,677.1,144.9,677.1,133.2z M723.8,133.2c0-7.1-7-10.8-18.5-10.8c-11.6,0-18.6,3.7-18.6,10.8c0,7.1,7,10.8,18.6,10.8
			C716.8,144.1,723.8,140.4,723.8,133.2z"/>
		<path class="st7" d="M792.9,116.4l0,16.8c0,11.7-10.1,18-27.2,18c-17,0-27.2-6.4-27.2-18l0-16.8h9.6l0,16.8
			c0,7.1,6.4,10.8,17.6,10.8s17.6-3.7,17.6-10.8l0-16.8H792.9z"/>
		<path class="st7" d="M853.7,129.8v4.4c0,10.7-10,17-27.6,17c-17.6,0-28.2-6.4-28.2-18s10.6-18,28.2-18c9.8,0,17.3,1.6,22.1,5.6
			l-6.4,6c-3-3.1-8.4-4.3-15.7-4.3c-11.6,0-18.6,3.7-18.6,10.8c0,7.1,7,10.8,18.6,10.8c9.6,0,15.7-2.6,17.5-7.1h-22.5v-7.2H853.7z"
			/>
		<path class="st7" d="M911.3,116.4v33.6h-9.6v-14.4h-33.6v14.4h-9.6v-33.6h9.6v12h33.6v-12H911.3z"/>
		<path class="st7" d="M12.5,181.2v7.7h35.9v7.2H12.5v11.5H2.9V174h50.6v7.2H12.5z"/>
		<path class="st7" d="M114.5,207.7h-13.5l-15-10.4H68.1v10.4h-9.6V174h40.8c9.3,0,14.5,5.2,14.5,11.6c0,6.4-5.2,11.6-14.5,11.6
			L114.5,207.7z M99.3,190.1c2.4,0,4.4-2,4.4-4.4c0-2.4-2-4.4-4.4-4.4H68.1v8.8H99.3z"/>
		<path class="st7" d="M163,201.7h-31.8l-4.1,6h-10.8l22.9-33.6H155l22.9,33.6h-10.8L163,201.7z M158.1,194.4l-11-16.2l-11,16.2
			H158.1z"/>
		<path class="st7" d="M235.5,187.4v4.4c0,10.7-10,17-27.6,17s-28.2-6.4-28.2-18s10.6-18,28.2-18c9.8,0,17.3,1.6,22.1,5.6l-6.4,6
			c-3-3.1-8.4-4.3-15.7-4.3c-11.6,0-18.6,3.7-18.6,10.8c0,7.1,7,10.8,18.6,10.8c9.6,0,15.7-2.6,17.5-7.1h-22.5v-7.2H235.5z"/>
		<path class="st7" d="M250.4,174v33.6h-9.6V174H250.4z"/>
		<path class="st7" d="M301.5,200.5v7.2h-45.8V174h9.6v26.4H301.5z"/>
		<path class="st7" d="M314.9,174v33.6h-9.6V174H314.9z"/>
		<path class="st7" d="M374.9,181.2h-24.1v26.4h-9.6v-26.4h-24V174h57.6V181.2z"/>
		<path class="st7" d="M407.7,192.2v15.5h-9.6v-15.5L374.9,174H388l14.9,11.7l14.9-11.7h13.1L407.7,192.2z"/>
		<path class="st7" d="M506,197.8c0-2-3-2.7-15.9-3.8c-22.4-1.9-27.4-4.8-27.4-11.2c0-7.9,11.3-9.9,26.7-9.9c8.6,0,20,2.4,24.2,5.3
			l-5.7,5.3c-3.6-1.9-10.5-3.4-18.6-3.4c-10.4,0-17.1,0.6-17.1,2.4c0,1.9,4,2.8,18.3,4c17.6,1.5,25.1,4.8,25.1,11.9
			c0,8.6-12.5,10.7-26.7,10.7c-9.1,0-22.6-2.2-27.4-6.1l6.1-5.8c4.5,2.9,12.9,4.7,21.3,4.7C499.2,201.7,506,200.5,506,197.8z"/>
		<path class="st7" d="M520,190.8c0-11.7,10.6-18,28.2-18s28.1,6.4,28.1,18s-10.6,18-28.1,18S520,202.5,520,190.8z M566.7,190.8
			c0-7.1-7-10.8-18.5-10.8c-11.6,0-18.6,3.7-18.6,10.8c0,7.1,7,10.8,18.6,10.8C559.7,201.7,566.7,198,566.7,190.8z"/>
		<path class="st7" d="M636,190.8c0,10.6-9.2,16.8-26.7,16.8h-27.7V174h27.7C626.9,174,636,180.2,636,190.8z M626.4,190.8
			c0-6-5.6-9.6-17.1-9.6h-18.1v19.2h18.1C620.8,200.5,626.4,196.9,626.4,190.8z"/>
		<path class="st7" d="M651.2,174v33.6h-9.6V174H651.2z"/>
		<path class="st7" d="M710.6,174l0,16.8c0,11.7-10.1,18-27.2,18c-17,0-27.2-6.4-27.2-18l0-16.8h9.6l0,16.8
			c0,7.1,6.4,10.8,17.6,10.8S701,198,701,190.8l0-16.8H710.6z"/>
		<path class="st7" d="M778.6,207.7H769v-29.3l-14.4,29.3h-14.3l-14.4-29.3v29.3h-9.6V174h17.5l13.7,28.7l13.7-28.7h17.5V207.7z"/>
		<path class="st7" d="M58.1,238.8H34v26.4h-9.6v-26.4h-24v-7.2h57.6V238.8z"/>
		<path class="st7" d="M116.9,265.3h-13.5l-15-10.4H70.6v10.4H61v-33.6h40.8c9.3,0,14.5,5.2,14.5,11.6c0,6.4-5.2,11.6-14.5,11.6
			L116.9,265.3z M101.8,247.7c2.4,0,4.4-2,4.4-4.4c0-2.4-2-4.4-4.4-4.4H70.6v8.8H101.8z"/>
		<path class="st7" d="M131.8,231.6v33.6h-9.6v-33.6H131.8z"/>
		<path class="st7" d="M199.5,265.3h-9.6v-29.3l-14.4,29.3h-14.3l-14.4-29.3v29.3h-9.6v-33.6h17.5l13.7,28.7l13.7-28.7h17.5V265.3z"
			/>
		<path class="st7" d="M267.7,265.3h-9.6v-29.3l-14.4,29.3h-14.3l-14.4-29.3v29.3h-9.6v-33.6h17.5l13.7,28.7l13.7-28.7h17.5V265.3z"
			/>
		<path class="st7" d="M283,238.8v5.2h38.3v7.2H283v6.8h43.4v7.2h-53v-33.6h53v7.2H283z"/>
		<path class="st7" d="M387.7,265.3h-13.5l-15-10.4h-17.9v10.4h-9.6v-33.6h40.8c9.3,0,14.5,5.2,14.5,11.6c0,6.4-5.2,11.6-14.5,11.6
			L387.7,265.3z M372.5,247.7c2.4,0,4.4-2,4.4-4.4c0-2.4-2-4.4-4.4-4.4h-31.2v8.8H372.5z"/>
		<path class="st7" d="M435.5,255.4c0-2-3-2.7-15.9-3.8c-22.4-1.9-27.4-4.8-27.4-11.2c0-7.9,11.3-9.9,26.7-9.9
			c8.6,0,20,2.4,24.2,5.3l-5.7,5.3c-3.6-1.9-10.5-3.4-18.6-3.4c-10.4,0-17.1,0.6-17.1,2.4c0,1.9,4,2.8,18.3,4
			c17.6,1.5,25.1,4.8,25.1,11.9c0,8.6-12.5,10.7-26.7,10.7c-9.1,0-22.6-2.2-27.4-6.1l6.1-5.8c4.5,2.9,12.9,4.7,21.3,4.7
			C428.6,259.3,435.5,258.1,435.5,255.4z"/>
		<path class="st7" d="M533.9,254.5c0,6-4.8,10.8-13.4,10.8h-41.8v-33.6h41.8c7.7,0,12,4.4,12,9.6c0,2.3-1.3,4.3-3.1,6
			C531.9,249.1,533.9,251.7,533.9,254.5z M488.3,243.7h32.2c1.3,0,2.4-1.1,2.4-2.4c0-1.3-1.2-2.4-2.4-2.4h-32.2V243.7z M524,254.5
			c0-1.9-1.6-3.6-3.6-3.6h-32.2v7.1h32.2C522.4,258.1,524,256.5,524,254.5z"/>
		<path class="st7" d="M581.4,259.3h-31.8l-4.1,6h-10.8l22.9-33.6h15.7l22.9,33.6h-10.8L581.4,259.3z M576.5,252l-11-16.2l-11,16.2
			H576.5z"/>
		<path class="st7" d="M653.9,231.6v33.6h-17.8l-27.9-29.9v29.9h-9.6v-33.6h17.8l27.9,29.9v-29.9H653.9z"/>
		<path class="st7" d="M705,231.6l0,16.8c0,11.7-10.1,18-27.2,18c-9.2,0-16.3-1.8-21-5.3l6.3-5.6c4.5,2.8,9,3.7,14.7,3.7
			c11.1,0,17.6-3.7,17.6-10.8l0-16.8H705z"/>
		<path class="st7" d="M710,248.4c0-11.7,10.6-18,28.2-18c17.6,0,28.1,6.4,28.1,18s-10.6,18-28.1,18
			C720.6,266.5,710,260.1,710,248.4z M756.7,248.4c0-7.1-7-10.8-18.5-10.8c-11.6,0-18.6,3.7-18.6,10.8c0,7.1,7,10.8,18.6,10.8
			C749.7,259.3,756.7,255.6,756.7,248.4z"/>
		<path class="st7" d="M46.9,313c0-2-3-2.7-15.9-3.8c-22.4-1.9-27.4-4.8-27.4-11.2c0-7.9,11.3-9.9,26.7-9.9c8.6,0,20,2.4,24.2,5.3
			l-5.7,5.3c-3.6-1.9-10.5-3.4-18.6-3.4c-10.4,0-17.1,0.6-17.1,2.4c0,1.9,4,2.8,18.3,4c17.6,1.5,25.1,4.8,25.1,11.9
			c0,8.6-12.5,10.7-26.7,10.7c-9.1,0-22.6-2.2-27.4-6.1l6.1-5.8c4.5,2.9,12.9,4.7,21.3,4.7C40,316.9,46.9,315.7,46.9,313z"/>
		<path class="st7" d="M116.5,289.2v33.6H98.8l-27.9-29.9v29.9h-9.6v-33.6h17.8l27.9,29.9v-29.9H116.5z"/>
		<path class="st7" d="M121.8,306c0-11.7,10.6-18,28.2-18s28.1,6.4,28.1,18s-10.6,18-28.1,18S121.8,317.7,121.8,306z M168.5,306
			c0-7.1-7-10.8-18.5-10.8c-11.6,0-18.6,3.7-18.6,10.8c0,7.1,7,10.8,18.6,10.8C161.5,316.9,168.5,313.2,168.5,306z"/>
		<path class="st7" d="M260.1,289.2l-12.8,33.6h-16l-11-29l-11,29h-16l-12.8-33.6h10.1l10.7,29.1l11.1-29.1h15.8l11.1,29.1
			l10.7-29.1H260.1z"/>
		<path class="st7" d="M318.1,312.1c0,6-4.8,10.8-13.4,10.8H263v-33.6h41.8c7.7,0,12,4.4,12,9.6c0,2.3-1.3,4.3-3.1,6
			C316.2,306.7,318.1,309.3,318.1,312.1z M272.6,301.3h32.2c1.3,0,2.4-1.1,2.4-2.4c0-1.3-1.2-2.4-2.4-2.4h-32.2V301.3z M308.3,312.1
			c0-1.9-1.6-3.6-3.6-3.6h-32.2v7.1h32.2C306.7,315.7,308.3,314.1,308.3,312.1z"/>
		<path class="st7" d="M333,289.2v33.6h-9.6v-33.6H333z"/>
		<path class="st7" d="M394.3,322.9h-13.5l-15-10.4h-17.9v10.4h-9.6v-33.6h40.8c9.3,0,14.5,5.2,14.5,11.6c0,6.4-5.2,11.6-14.5,11.6
			L394.3,322.9z M379.1,305.3c2.4,0,4.4-2,4.4-4.4c0-2.4-2-4.4-4.4-4.4h-31.2v8.8H379.1z"/>
		<path class="st7" d="M454,306c0,10.6-9.2,16.8-26.7,16.8h-27.7v-33.6h27.7C444.9,289.2,454,295.4,454,306z M444.4,306
			c0-6-5.6-9.6-17.1-9.6h-18.1v19.2h18.1C438.8,315.7,444.4,312.1,444.4,306z"/>
		<path class="st7" d="M543.1,296.4H519v26.4h-9.6v-26.4h-24v-7.2h57.6V296.4z"/>
		<path class="st7" d="M598.3,289.2v33.6h-9.6v-14.4h-33.6v14.4h-9.6v-33.6h9.6v12h33.6v-12H598.3z"/>
		<path class="st7" d="M613.1,296.4v5.2h38.3v7.2h-38.3v6.8h43.4v7.2h-53v-33.6h53v7.2H613.1z"/>
		<path class="st7" d="M745.9,302.6v4.4c0,10.7-10,17-27.6,17c-17.6,0-28.2-6.4-28.2-18s10.6-18,28.2-18c9.8,0,17.3,1.6,22.1,5.6
			l-6.4,6c-3-3.1-8.4-4.3-15.7-4.3c-11.6,0-18.6,3.7-18.6,10.8c0,7.1,7,10.8,18.6,10.8c9.6,0,15.7-2.6,17.5-7.1h-22.5v-7.2H745.9z"
			/>
		<path class="st7" d="M807.2,322.9h-13.5l-15-10.4h-17.9v10.4h-9.6v-33.6H792c9.3,0,14.5,5.2,14.5,11.6c0,6.4-5.2,11.6-14.5,11.6
			L807.2,322.9z M792,305.3c2.4,0,4.4-2,4.4-4.4c0-2.4-2-4.4-4.4-4.4h-31.2v8.8H792z"/>
		<path class="st7" d="M822,289.2v33.6h-9.6v-33.6H822z"/>
		<path class="st7" d="M882,296.4H858v26.4h-9.6v-26.4h-24v-7.2H882V296.4z"/>
		<path class="st7" d="M923.3,289.2v33.6h-9.6v-33.6H923.3z"/>
		<path class="st7" d="M983.9,289.2v33.6h-17.8l-27.9-29.9v29.9h-9.6v-33.6h17.8l27.9,29.9v-29.9H983.9z"/>
		<path class="st7" d="M58.1,354H34v26.4h-9.6V354h-24v-7.2h57.6V354z"/>
		<path class="st7" d="M113.3,346.8v33.6h-9.6V366H70.1v14.4h-9.6v-33.6h9.6v12h33.6v-12H113.3z"/>
		<path class="st7" d="M128.2,354v5.2h38.3v7.2h-38.3v6.8h43.4v7.2h-53v-33.6h53v7.2H128.2z"/>
		<path class="st7" d="M260.9,358.5c0,6.4-5.2,11.6-14.5,11.6h-31.2v10.4h-9.6v-33.6h40.8C255.7,346.8,260.9,352.1,260.9,358.5z
			 M250.9,358.5c0-2.4-2-4.4-4.4-4.4h-31.2v8.8h31.2C248.8,362.9,250.9,360.9,250.9,358.5z"/>
		<path class="st7" d="M274.8,354v5.2h38.3v7.2h-38.3v6.8h43.4v7.2h-53v-33.6h53v7.2H274.8z"/>
		<path class="st7" d="M366.8,374.5H335l-4.1,6h-10.8l22.9-33.6h15.7l22.9,33.6h-10.8L366.8,374.5z M361.9,367.2l-11-16.2l-11,16.2
			H361.9z"/>
		<path class="st7" d="M440,380.5h-13.5l-15-10.4h-17.9v10.4H384v-33.6h40.8c9.3,0,14.5,5.2,14.5,11.6c0,6.4-5.2,11.6-14.5,11.6
			L440,380.5z M424.8,362.9c2.4,0,4.4-2,4.4-4.4c0-2.4-2-4.4-4.4-4.4h-31.2v8.8H424.8z"/>
		<path class="st7" d="M491,373.2v7.2h-45.8v-33.6h9.6v26.4H491z"/>
		<path class="st7" d="M578.8,369.6c0,6-4.8,10.8-13.4,10.8h-41.8v-33.6h41.8c7.7,0,12,4.4,12,9.6c0,2.3-1.3,4.3-3.1,6
			C576.9,364.3,578.8,366.9,578.8,369.6z M533.3,358.9h32.2c1.3,0,2.4-1.1,2.4-2.4c0-1.3-1.2-2.4-2.4-2.4h-32.2V358.9z M569,369.7
			c0-1.9-1.6-3.6-3.6-3.6h-32.2v7.1h32.2C567.4,373.2,569,371.7,569,369.7z"/>
		<path class="st7" d="M593.7,354v5.2H632v7.2h-38.3v6.8h43.4v7.2h-53v-33.6h53v7.2H593.7z"/>
		<path class="st7" d="M685.6,374.5h-31.8l-4.1,6H639l22.9-33.6h15.7l22.8,33.6h-10.8L685.6,374.5z M680.7,367.2l-11-16.2l-11,16.2
			H680.7z"/>
		<path class="st7" d="M751.8,371.6c-3.9,6.5-12.9,10.2-25.8,10.2c-17.6,0-28-6.5-28-18.1s10.4-18.1,28-18.1
			c12.8,0,21.8,3.6,25.7,10.2l-9.1,2.9c-2.7-3.8-8.5-5.9-16.7-5.9c-11.6,0-18.4,3.8-18.4,10.9c0,7.1,6.8,10.9,18.4,10.9
			c8.3,0,14.1-2.2,16.8-6L751.8,371.6z"/>
		<path class="st7" d="M756.1,363.6c0-11.7,10.6-18,28.2-18c17.6,0,28.1,6.4,28.1,18s-10.6,18-28.1,18
			C766.7,381.7,756.1,375.3,756.1,363.6z M802.8,363.6c0-7.1-7-10.8-18.5-10.8c-11.6,0-18.6,3.7-18.6,10.8c0,7.1,7,10.8,18.6,10.8
			C795.8,374.5,802.8,370.8,802.8,363.6z"/>
		<path class="st7" d="M873,346.8v33.6h-17.8l-27.9-29.9v29.9h-9.6v-33.6h17.8l27.9,29.9v-29.9H873z"/>
		<path class="st7" d="M58.7,416.1c0,6.4-5.2,11.6-14.5,11.6H13v10.4H3.4v-33.6h40.8C53.4,404.4,58.7,409.7,58.7,416.1z M48.6,416.1
			c0-2.4-2-4.4-4.4-4.4H13v8.8h31.2C46.6,420.5,48.6,418.5,48.6,416.1z"/>
		<path class="st7" d="M71.6,411.6v5.2h38.3v7.2H71.6v6.8H115v7.2H62v-33.6h53v7.2H71.6z"/>
		<path class="st7" d="M175,411.6H151v26.4h-9.6v-26.4h-24v-7.2H175V411.6z"/>
		<path class="st7" d="M233.9,438.1h-13.5l-15-10.4h-17.9v10.4h-9.6v-33.6h40.8c9.3,0,14.5,5.2,14.5,11.6c0,6.4-5.2,11.6-14.5,11.6
			L233.9,438.1z M218.7,420.5c2.4,0,4.4-2,4.4-4.4c0-2.4-2-4.4-4.4-4.4h-31.2v8.8H218.7z"/>
		<path class="st7" d="M238.7,421.2c0-11.7,10.6-18,28.2-18s28.1,6.4,28.1,18s-10.6,18-28.1,18S238.7,432.9,238.7,421.2z
			 M285.4,421.2c0-7.1-7-10.8-18.5-10.8c-11.6,0-18.6,3.7-18.6,10.8c0,7.1,7,10.8,18.6,10.8C278.4,432.1,285.4,428.4,285.4,421.2z"
			/>
		<path class="st7" d="M346,430.9v7.2h-45.8v-33.6h9.6v26.4H346z"/>
		<path class="st7" d="M359.5,411.6v5.2h38.3v7.2h-38.3v6.8h43.4v7.2h-53v-33.6h53v7.2H359.5z"/>
		<path class="st7" d="M462.3,404.4l0,16.8c0,11.7-10.1,18-27.2,18s-27.2-6.4-27.2-18l0-16.8h9.6l0,16.8c0,7.1,6.4,10.8,17.6,10.8
			c11.1,0,17.6-3.7,17.6-10.8l0-16.8H462.3z"/>
		<path class="st7" d="M530.3,438.1h-9.6v-29.3l-14.4,29.3h-14.3l-14.4-29.3v29.3h-9.6v-33.6h17.5l13.7,28.7l13.7-28.7h17.5V438.1z"
			/>
		<path class="st7" d="M619.5,411.6h-24.1v26.4h-9.6v-26.4h-24v-7.2h57.6V411.6z"/>
		<path class="st7" d="M632,404.4v33.6h-9.6v-33.6H632z"/>
		<path class="st7" d="M692.5,404.4v33.6h-17.8l-27.9-29.9v29.9h-9.6v-33.6h17.8l27.9,29.9v-29.9H692.5z"/>
		<path class="st7" d="M753.6,417.8v4.4c0,10.7-10,17-27.6,17c-17.6,0-28.2-6.4-28.2-18s10.6-18,28.2-18c9.8,0,17.3,1.6,22.1,5.6
			l-6.4,6c-3-3.1-8.4-4.3-15.7-4.3c-11.6,0-18.6,3.7-18.6,10.8c0,7.1,7,10.8,18.6,10.8c9.6,0,15.7-2.6,17.5-7.1H721v-7.2H753.6z"/>
		<path class="st7" d="M768.5,411.6v5.2h38.3v7.2h-38.3v6.8h43.4v7.2h-53v-33.6h53v7.2H768.5z"/>
		<path class="st7" d="M871.6,421.2c0,10.6-9.2,16.8-26.7,16.8h-27.7v-33.6h27.7C862.5,404.4,871.6,410.6,871.6,421.2z M862,421.2
			c0-6-5.6-9.6-17.1-9.6h-18.1v19.2h18.1C856.4,430.9,862,427.3,862,421.2z"/>
		<path class="st7" d="M46.9,485.8c0-2-3-2.7-15.9-3.8C8.5,480,3.6,477.1,3.6,470.7c0-7.9,11.3-9.9,26.7-9.9c8.6,0,20,2.4,24.2,5.3
			l-5.7,5.3c-3.6-1.9-10.5-3.4-18.6-3.4c-10.4,0-17.1,0.6-17.1,2.4c0,1.9,4,2.8,18.3,4c17.6,1.5,25.1,4.8,25.1,11.9
			c0,8.6-12.5,10.7-26.7,10.7c-9.1,0-22.6-2.2-27.4-6.1l6.1-5.8c4.5,2.9,12.9,4.7,21.3,4.7C40,489.7,46.9,488.5,46.9,485.8z"/>
		<path class="st7" d="M70.9,462v33.6h-9.6V462H70.9z"/>
		<path class="st7" d="M122,488.5v7.2H76.2V462h9.6v26.4H122z"/>
		<path class="st7" d="M175.7,462l-22.9,33.6h-15.7L114.3,462H125l20,29.4l20-29.4H175.7z"/>
		<path class="st7" d="M188.2,469.2v5.2h38.3v7.2h-38.3v6.8h43.4v7.2h-53V462h53v7.2H188.2z"/>
		<path class="st7" d="M292.9,495.7h-13.5l-15-10.4h-17.9v10.4h-9.6V462h40.8c9.3,0,14.5,5.2,14.5,11.6c0,6.4-5.2,11.6-14.5,11.6
			L292.9,495.7z M277.7,478.1c2.4,0,4.4-2,4.4-4.4c0-2.4-2-4.4-4.4-4.4h-31.2v8.8H277.7z"/>
		<path class="st7" d="M307.7,469.2v5.2H346v7.2h-38.3v6.8h43.4v7.2h-53V462h53v7.2H307.7z"/>
		<path class="st7" d="M410.9,478.8c0,10.6-9.2,16.8-26.7,16.8h-27.7V462h27.7C401.7,462,410.9,468.2,410.9,478.8z M401.3,478.8
			c0-6-5.6-9.6-17.1-9.6H366v19.2h18.1C395.7,488.5,401.3,484.9,401.3,478.8z"/>
		<path class="st7" d="M454.8,462v33.6h-9.6V462H454.8z"/>
		<path class="st7" d="M516.1,495.7h-13.5l-15-10.4h-17.9v10.4h-9.6V462h40.8c9.3,0,14.5,5.2,14.5,11.6c0,6.4-5.2,11.6-14.5,11.6
			L516.1,495.7z M500.9,478.1c2.4,0,4.4-2,4.4-4.4c0-2.4-2-4.4-4.4-4.4h-31.2v8.8H500.9z"/>
		<path class="st7" d="M530.9,462v33.6h-9.6V462H530.9z"/>
		<path class="st7" d="M579.7,485.8c0-2-3-2.7-15.9-3.8c-22.4-1.9-27.4-4.8-27.4-11.2c0-7.9,11.3-9.9,26.7-9.9
			c8.6,0,20,2.4,24.2,5.3l-5.7,5.3c-3.6-1.9-10.5-3.4-18.6-3.4c-10.4,0-17.1,0.6-17.1,2.4c0,1.9,4,2.8,18.3,4
			c17.6,1.5,25.1,4.8,25.1,11.9c0,8.6-12.5,10.7-26.7,10.7c-9.1,0-22.6-2.2-27.4-6.1l6.1-5.8c4.5,2.9,12.9,4.7,21.3,4.7
			C572.8,489.7,579.7,488.5,579.7,485.8z"/>
		<path class="st7" d="M677.7,469.2h-24.1v26.4H644v-26.4h-24V462h57.6V469.2z"/>
		<path class="st7" d="M732.9,462v33.6h-9.6v-14.4h-33.6v14.4h-9.6V462h9.6v12h33.6v-12H732.9z"/>
		<path class="st7" d="M747.7,469.2v5.2H786v7.2h-38.3v6.8h43.4v7.2h-53V462h53v7.2H747.7z"/>
		<path class="st7" d="M852.4,495.7h-13.5l-15-10.4H806v10.4h-9.6V462h40.8c9.3,0,14.5,5.2,14.5,11.6c0,6.4-5.2,11.6-14.5,11.6
			L852.4,495.7z M837.2,478.1c2.4,0,4.4-2,4.4-4.4c0-2.4-2-4.4-4.4-4.4H806v8.8H837.2z"/>
		<path class="st7" d="M867.3,469.2v5.2h38.3v7.2h-38.3v6.8h43.4v7.2h-53V462h53v7.2H867.3z"/>
		<path class="st7" d="M954.3,462v33.6h-9.6V462H954.3z"/>
		<path class="st7" d="M1003.1,485.8c0-2-3-2.7-15.9-3.8c-22.4-1.9-27.4-4.8-27.4-11.2c0-7.9,11.3-9.9,26.7-9.9
			c8.6,0,20,2.4,24.2,5.3l-5.7,5.3c-3.6-1.9-10.5-3.4-18.6-3.4c-10.4,0-17.1,0.6-17.1,2.4c0,1.9,4,2.8,18.3,4
			c17.6,1.5,25.1,4.8,25.1,11.9c0,8.6-12.5,10.7-26.7,10.7c-9.1,0-22.6-2.2-27.4-6.1l6.1-5.8c4.5,2.9,12.9,4.7,21.3,4.7
			C996.2,489.7,1003.1,488.5,1003.1,485.8z"/>
		<path class="st7" d="M46.6,547.2H14.8l-4.1,6H0l22.9-33.6h15.7l22.9,33.6H50.7L46.6,547.2z M41.7,540l-11-16.2l-11,16.2H41.7z"/>
		<path class="st7" d="M147.1,536.4c0,10.6-9.2,16.8-26.7,16.8H92.6v-33.6h27.7C138,519.6,147.1,525.8,147.1,536.4z M137.5,536.4
			c0-6-5.6-9.6-17.1-9.6h-18.1v19.2h18.1C131.9,546.1,137.5,542.5,137.5,536.4z"/>
		<path class="st7" d="M162.2,519.6v33.6h-9.6v-33.6H162.2z"/>
		<path class="st7" d="M211,543.4c0-2-3-2.7-15.9-3.8c-22.4-1.9-27.4-4.8-27.4-11.2c0-7.9,11.3-9.9,26.7-9.9c8.6,0,20,2.4,24.2,5.3
			L213,529c-3.6-1.9-10.5-3.4-18.6-3.4c-10.4,0-17.1,0.6-17.1,2.4c0,1.9,4,2.8,18.3,4c17.6,1.5,25.1,4.8,25.1,11.9
			c0,8.6-12.5,10.7-26.7,10.7c-9.1,0-22.6-2.2-27.4-6.1l6.1-5.8c4.5,2.9,12.9,4.7,21.3,4.7C204.1,547.3,211,546.1,211,543.4z"/>
		<path class="st7" d="M280.2,526.8h-24.1v26.4h-9.6v-26.4h-24v-7.2h57.6V526.8z"/>
		<path class="st7" d="M320.5,547.2h-31.8l-4.1,6h-10.8l22.9-33.6h15.7l22.9,33.6h-10.8L320.5,547.2z M315.6,540l-11-16.2l-11,16.2
			H315.6z"/>
		<path class="st7" d="M393,519.6v33.6h-17.8l-27.9-29.9v29.9h-9.6v-33.6h17.8l27.9,29.9v-29.9H393z"/>
		<path class="st7" d="M451.6,544.4c-3.9,6.5-12.9,10.2-25.8,10.2c-17.6,0-28-6.5-28-18.1s10.4-18.1,28-18.1
			c12.8,0,21.8,3.6,25.7,10.2l-9.1,2.9c-2.7-3.8-8.5-5.9-16.7-5.9c-11.6,0-18.4,3.8-18.4,10.9s6.8,10.9,18.4,10.9
			c8.3,0,14.1-2.2,16.8-6L451.6,544.4z"/>
		<path class="st7" d="M466,526.8v5.2h38.3v7.2H466v6.8h43.4v7.2h-53v-33.6h53v7.2H466z"/>
		<path class="st7" d="M553.1,519.6v33.6h-9.6v-33.6H553.1z"/>
		<path class="st7" d="M613.6,519.6v33.6h-17.8l-27.9-29.9v29.9h-9.6v-33.6h17.8l27.9,29.9v-29.9H613.6z"/>
		<path class="st7" d="M678,537.8v15.5h-9.6v-15.5l-23.1-18.1h13.1l14.9,11.7l14.9-11.7h13.1L678,537.8z"/>
		<path class="st7" d="M699.7,536.4c0-11.7,10.6-18,28.2-18c17.6,0,28.1,6.4,28.1,18s-10.6,18-28.1,18
			C710.3,554.5,699.7,548.1,699.7,536.4z M746.4,536.4c0-7.1-7-10.8-18.5-10.8c-11.6,0-18.6,3.7-18.6,10.8s7,10.8,18.6,10.8
			C739.4,547.3,746.4,543.6,746.4,536.4z"/>
		<path class="st7" d="M815.5,519.6l0,16.8c0,11.7-10.1,18-27.2,18c-17,0-27.2-6.4-27.2-18l0-16.8h9.6l0,16.8
			c0,7.1,6.4,10.8,17.6,10.8s17.6-3.7,17.6-10.8l0-16.8H815.5z"/>
	</g>
</g>
</svg>
