<?xml version="1.0" encoding="utf-8"?>
<!-- Generator: Adobe Illustrator 19.0.1, SVG Export Plug-In . SVG Version: 6.00 Build 0)  -->
<svg version="1.1" xmlns="http://www.w3.org/2000/svg" xmlns:xlink="http://www.w3.org/1999/xlink" x="0px" y="0px"
	 viewBox="0 0 1013 554.5" style="enable-background:new 0 0 1013 554.5;" xml:space="preserve">
<style type="text/css">
	.st0{display:none;}
	.st1{display:inline;fill:none;}
	.st2{display:inline;}
	.st3{font-family:'HNIRExtended-Regular';}
	.st4{font-size:72px;}
	.st5{font-size:60px;}
	.st6{display:inline;fill:#3372FF;}
	.st7{fill:#3372FF;}
</style>
<g id="Layer_1" class="st0">
	<rect x="26.1" y="33.6" class="st1" width="1174.9" height="874.1"/>
	<text transform="matrix(1 0 0 1 26.0688 94.8003)" class="st2"><tspan x="0" y="0" class="st3 st4">BREAKING WAVES </tspan><tspan x="0" y="86.4" class="st3 st4">WHEN I LOOK THIS </tspan><tspan x="0" y="172.8" class="st3 st4">SIDE MIND  </tspan><tspan x="0" y="259.2" class="st3 st4">CONTROL  </tspan><tspan x="0" y="345.6" class="st3 st4">MEMORIES I WANT </tspan><tspan x="0" y="432" class="st3 st4">YOU IT IS  </tspan><tspan x="0" y="518.4" class="st3 st4">HAPPENING AGAIN </tspan><tspan x="0" y="604.8" class="st3 st4">STANDING HIGH </tspan><tspan x="0" y="691.2" class="st3 st4">OWLS TIME WARP </tspan><tspan x="0" y="777.6" class="st3 st4">SONIC SOUL FEAR </tspan></text>
</g>
<g id="Layer_1_copy_2" class="st0">
	<rect x="26.1" y="33.6" class="st1" width="1244.9" height="1001.7"/>
	<text transform="matrix(1 0 0 1 26.0688 84.6006)" class="st2"><tspan x="0" y="0" class="st3 st5">WALKING MACHINE </tspan><tspan x="0" y="72" class="st3 st5">HUMAN AFTER ALL </tspan><tspan x="0" y="144" class="st3 st5">PARIS FOUR HUNDRED </tspan><tspan x="0" y="216" class="st3 st5">GET MYSELF INTO IT </tspan><tspan x="0" y="288" class="st3 st5">CAMERA WE DANCE  </tspan><tspan x="0" y="360" class="st3 st5">TOGETHER BOSSY </tspan><tspan x="0" y="432" class="st3 st5">CHEAP AND CHEERFUL  </tspan><tspan x="0" y="504" class="st3 st5">TESTAROSSA  </tspan><tspan x="0" y="576" class="st3 st5">AUTODRIVE TEXAS </tspan><tspan x="0" y="648" class="st3 st5">FOOL FOR LOVE I </tspan><tspan x="0" y="720" class="st3 st5">STILL REMEMBER </tspan><tspan x="0" y="792" class="st3 st5">SEXUAL SPORTSWEAR </tspan><tspan x="0" y="864" class="st3 st5">GOLDEN SKANS</tspan></text>
</g>
<g id="Layer_1_copy" class="st0">
	<rect x="33.1" y="0.6" class="st1" width="1128.9" height="1231.4"/>
	<text transform="matrix(1 0 0 1 33.0688 61.8003)" class="st2"><tspan x="0" y="0" class="st3 st4">LEAN ON ME </tspan><tspan x="0" y="86.4" class="st3 st4">VIBRATIONS </tspan><tspan x="0" y="172.8" class="st3 st4">FOLLOWED BY </tspan><tspan x="0" y="259.2" class="st3 st4">POISONED </tspan><tspan x="0" y="345.6" class="st3 st4">APPLES YOU </tspan><tspan x="0" y="432" class="st3 st4">TOO ALBATROS </tspan><tspan x="0" y="518.4" class="st3 st4">WAKE ME UP </tspan><tspan x="0" y="604.8" class="st3 st4">SIGMUND THE </tspan><tspan x="0" y="691.2" class="st3 st4">TALKING DRUMS </tspan><tspan x="0" y="777.6" class="st3 st4">MOTHER ANIMAL </tspan><tspan x="0" y="864" class="st3 st4">STYLE COMPUTE </tspan><tspan x="0" y="950.4" class="st3 st4">WHEN THE NIGHT</tspan></text>
</g>
<g id="Layer_1_copy_3" class="st0">
	<path class="st6" d="M73.7,11.5v10.8H5v-50.4h14.4v39.6H73.7z"/>
	<path class="st6" d="M93.9-17.3v7.8h57.5V1.3H93.9v10.2H159v10.8H79.5v-50.4H159v10.8H93.9z"/>
	<path class="st6" d="M231.8,13.3h-47.7l-6.1,9h-16.1l34.3-50.4h23.6L254,22.3h-16.1L231.8,13.3z M224.4,2.5l-16.5-24.3L191.4,2.5
		H224.4z"/>
	<path class="st6" d="M340.5-28.1v50.4h-26.6L272-22.5v44.9h-14.4v-50.4h26.6l41.8,44.9v-44.9H340.5z"/>
	<path class="st6" d="M391.6-2.9c0-17.5,15.9-27.1,42.3-27.1c26.4,0,42.2,9.6,42.2,27.1s-15.8,27.1-42.2,27.1
		C407.5,24.2,391.6,14.6,391.6-2.9z M461.7-2.9c0-10.7-10.5-16.3-27.8-16.3c-17.4,0-27.9,5.6-27.9,16.3s10.5,16.3,27.9,16.3
		C451.2,13.4,461.7,7.8,461.7-2.9z"/>
	<path class="st6" d="M566.9-28.1v50.4h-26.6l-41.8-44.9v44.9H484v-50.4h26.6l41.8,44.9v-44.9H566.9z"/>
	<path class="st6" d="M712.3,22.3h-14.4v-44l-21.7,44h-21.5l-21.7-44v44h-14.4v-50.4h26.2L665.5,15l20.6-43.1h26.2V22.3z"/>
	<path class="st6" d="M735.3-17.3v7.8h57.5V1.3h-57.5v10.2h65.1v10.8h-79.5v-50.4h79.5v10.8H735.3z"/>
	<path class="st6" d="M92.9,58.3l-34.3,50.4H35L0.7,58.3h16.1l30,44.1l30-44.1H92.9z"/>
	<path class="st6" d="M111.6,58.3v50.4H97.2V58.3H111.6z"/>
	<path class="st6" d="M203,92.5c0,8.9-7.3,16.2-20.1,16.2h-62.6V58.3h62.6c11.5,0,18,6.6,18,14.4c0,3.4-1.9,6.5-4.7,8.9
		C200,84.5,203,88.3,203,92.5z M134.6,76.5h48.2c1.9,0,3.7-1.6,3.7-3.7c0-2-1.7-3.7-3.7-3.7h-48.2V76.5z M188.2,92.6
		c0-2.9-2.4-5.3-5.3-5.3h-48.2v10.7h48.2C185.8,97.9,188.2,95.6,188.2,92.6z"/>
	<path class="st6" d="M294.8,108.7h-20.3l-22.5-15.6h-26.8v15.6h-14.4V58.3h61.2c13.9,0,21.7,7.8,21.7,17.4
		c0,9.6-7.8,17.4-21.7,17.4L294.8,108.7z M272.1,82.4c3.6,0,6.6-3,6.6-6.6c0-3.7-3-6.6-6.6-6.6h-46.8v13.2H272.1z"/>
	<path class="st6" d="M366,99.7h-47.7l-6.1,9h-16.1l34.3-50.4H354l34.3,50.4h-16.1L366,99.7z M358.6,88.9l-16.5-24.3l-16.5,24.3
		H358.6z"/>
	<path class="st6" d="M458.9,69.1h-36.1v39.6h-14.4V69.1h-35.9V58.3h86.4V69.1z"/>
	<path class="st6" d="M477.6,58.3v50.4h-14.4V58.3H477.6z"/>
	<path class="st6" d="M485.5,83.5c0-17.5,15.9-27.1,42.3-27.1c26.4,0,42.2,9.6,42.2,27.1s-15.8,27.1-42.2,27.1
		C501.5,110.6,485.5,101,485.5,83.5z M555.6,83.5c0-10.7-10.5-16.3-27.8-16.3c-17.4,0-27.9,5.6-27.9,16.3s10.5,16.3,27.9,16.3
		C545.1,99.8,555.6,94.2,555.6,83.5z"/>
	<path class="st6" d="M660.8,58.3v50.4h-26.6l-41.8-44.9v44.9h-14.4V58.3h26.6l41.8,44.9V58.3H660.8z"/>
	<path class="st6" d="M734.7,94c0-3-4.5-4.1-23.8-5.8c-33.6-2.9-41.1-7.3-41.1-16.8c0-11.9,17-14.9,40-14.9c12.9,0,30,3.5,36.4,8
		l-8.5,7.9c-5.5-2.8-15.8-5.1-27.9-5.1c-15.6,0-25.7,0.9-25.7,3.5c0,2.8,6,4.2,27.5,6c26.4,2.3,37.6,7.1,37.6,17.8
		c0,12.9-18.7,16-40.1,16c-13.6,0-33.8-3.2-41-9.1l9.1-8.6c6.7,4.4,19.3,7,31.9,7C724.4,99.8,734.7,97.9,734.7,94z"/>
	<path class="st6" d="M18.7,155.5V167h53.9v10.8H18.7v17.3H4.3v-50.4h75.9v10.8H18.7z"/>
	<path class="st6" d="M87,169.9c0-17.5,15.9-27.1,42.3-27.1c26.4,0,42.2,9.6,42.2,27.1S155.7,197,129.3,197
		C103,197,87,187.4,87,169.9z M157.1,169.9c0-10.7-10.5-16.3-27.8-16.3c-17.4,0-27.9,5.6-27.9,16.3s10.5,16.3,27.9,16.3
		C146.6,186.2,157.1,180.6,157.1,169.9z"/>
	<path class="st6" d="M248.1,184.3v10.8h-68.7v-50.4h14.4v39.6H248.1z"/>
	<path class="st6" d="M322.6,184.3v10.8h-68.7v-50.4h14.4v39.6H322.6z"/>
	<path class="st6" d="M327.6,169.9c0-17.5,15.9-27.1,42.3-27.1c26.4,0,42.2,9.6,42.2,27.1S396.2,197,369.9,197
		C343.5,197,327.6,187.4,327.6,169.9z M397.7,169.9c0-10.7-10.5-16.3-27.8-16.3c-17.4,0-27.9,5.6-27.9,16.3s10.5,16.3,27.9,16.3
		C387.1,186.2,397.7,180.6,397.7,169.9z"/>
	<path class="st6" d="M535.8,144.7l-19.2,50.4h-24l-16.6-43.6l-16.6,43.6h-24l-19.2-50.4h15.2l16,43.7l16.6-43.7h23.8l16.6,43.7
		l16-43.7H535.8z"/>
	<path class="st6" d="M555.2,155.5v7.8h57.5v10.8h-57.5v10.2h65.1v10.8h-79.5v-50.4h79.5v10.8H555.2z"/>
	<path class="st6" d="M709.9,169.9c0,15.9-13.8,25.2-40.1,25.2h-41.6v-50.4h41.6C696.2,144.7,709.9,154,709.9,169.9z M695.5,169.9
		c0-9.1-8.4-14.4-25.7-14.4h-27.2v28.8h27.2C687.1,184.3,695.5,179,695.5,169.9z"/>
	<path class="st6" d="M844.1,178.9c0,8.9-7.3,16.2-20.1,16.2h-62.6v-50.4H824c11.5,0,18,6.6,18,14.4c0,3.4-1.9,6.5-4.7,8.9
		C841.2,170.9,844.1,174.7,844.1,178.9z M775.8,162.9H824c1.9,0,3.7-1.6,3.7-3.7c0-2-1.7-3.7-3.7-3.7h-48.2V162.9z M829.4,179
		c0-2.9-2.4-5.3-5.3-5.3h-48.2v10.7H824C826.9,184.3,829.4,182,829.4,179z"/>
	<path class="st6" d="M896.8,171.9v23.2h-14.4v-23.2l-34.7-27.2h19.6l22.3,17.5l22.3-17.5h19.6L896.8,171.9z"/>
	<path class="st6" d="M88,248.5c0,9.6-7.8,17.4-21.7,17.4H19.4v15.6H5v-50.4h61.2C80.1,231.1,88,239,88,248.5z M72.9,248.5
		c0-3.7-3-6.6-6.6-6.6H19.4v13.2h46.8C69.8,255.2,72.9,252.1,72.9,248.5z"/>
	<path class="st6" d="M93.7,256.3c0-17.5,15.9-27.1,42.3-27.1c26.4,0,42.2,9.6,42.2,27.1s-15.8,27.1-42.2,27.1
		C109.7,283.4,93.7,273.8,93.7,256.3z M163.8,256.3c0-10.7-10.5-16.3-27.8-16.3c-17.4,0-27.9,5.6-27.9,16.3s10.5,16.3,27.9,16.3
		C153.3,272.6,163.8,267,163.8,256.3z"/>
	<path class="st6" d="M200.5,231.1v50.4h-14.4v-50.4H200.5z"/>
	<path class="st6" d="M274.4,266.8c0-3-4.5-4.1-23.8-5.8c-33.6-2.9-41.1-7.3-41.1-16.8c0-11.9,17-14.9,40-14.9c12.9,0,30,3.5,36.4,8
		l-8.5,7.9c-5.5-2.8-15.8-5.1-27.9-5.1c-15.6,0-25.7,0.9-25.7,3.5c0,2.8,6,4.2,27.5,6c26.4,2.3,37.6,7.1,37.6,17.8
		c0,12.9-18.7,16-40.1,16c-13.6,0-33.8-3.2-41-9.1l9.1-8.6c6.7,4.4,19.3,7,31.9,7C264.1,272.6,274.4,270.7,274.4,266.8z"/>
	<path class="st6" d="M295.3,256.3c0-17.5,15.9-27.1,42.3-27.1c26.4,0,42.2,9.6,42.2,27.1s-15.8,27.1-42.2,27.1
		C311.3,283.4,295.3,273.8,295.3,256.3z M365.4,256.3c0-10.7-10.5-16.3-27.8-16.3c-17.4,0-27.9,5.6-27.9,16.3s10.5,16.3,27.9,16.3
		C354.9,272.6,365.4,267,365.4,256.3z"/>
	<path class="st6" d="M470.6,231.1v50.4H444l-41.8-44.9v44.9h-14.4v-50.4h26.6l41.8,44.9v-44.9H470.6z"/>
	<path class="st6" d="M493.6,241.9v7.8h57.5v10.8h-57.5v10.2h65.1v10.8h-79.5v-50.4h79.5v10.8H493.6z"/>
	<path class="st6" d="M648.4,256.3c0,15.9-13.8,25.2-40.1,25.2h-41.6v-50.4h41.6C634.6,231.1,648.4,240.4,648.4,256.3z M634,256.3
		c0-9.1-8.4-14.4-25.7-14.4H581v28.8h27.2C625.5,270.7,634,265.4,634,256.3z"/>
	<path class="st6" d="M69.9,358.9H22.2l-6.1,9H0l34.3-50.4h23.6l34.3,50.4H76L69.9,358.9z M62.6,348.1l-16.5-24.3l-16.5,24.3H62.6z"
		/>
	<path class="st6" d="M178.7,334.9c0,9.6-7.8,17.4-21.7,17.4h-46.8v15.6H95.8v-50.4H157C170.9,317.5,178.7,325.4,178.7,334.9z
		 M163.6,334.9c0-3.7-3-6.6-6.6-6.6h-46.8v13.2H157C160.6,341.6,163.6,338.5,163.6,334.9z"/>
	<path class="st6" d="M268.1,334.9c0,9.6-7.8,17.4-21.7,17.4h-46.8v15.6h-14.4v-50.4h61.2C260.3,317.5,268.1,325.4,268.1,334.9z
		 M253,334.9c0-3.7-3-6.6-6.6-6.6h-46.8v13.2h46.8C250,341.6,253,338.5,253,334.9z"/>
	<path class="st6" d="M343.3,357.1v10.8h-68.7v-50.4H289v39.6H343.3z"/>
	<path class="st6" d="M363.5,328.3v7.8h57.5v10.8h-57.5v10.2h65.1v10.8h-79.5v-50.4h79.5v10.8H363.5z"/>
	<path class="st6" d="M501.7,353.2c0-3-4.5-4.1-23.8-5.8c-33.6-2.9-41.1-7.3-41.1-16.8c0-11.9,17-14.9,40-14.9c12.9,0,30,3.5,36.4,8
		l-8.5,7.9c-5.5-2.8-15.8-5.1-27.9-5.1c-15.6,0-25.7,0.9-25.7,3.5c0,2.8,6,4.2,27.5,6c26.4,2.3,37.6,7.1,37.6,17.8
		c0,12.9-18.7,16-40.1,16c-13.6,0-33.8-3.2-41-9.1l9.1-8.6c6.7,4.4,19.3,7,31.9,7C491.4,359,501.7,357.1,501.7,353.2z"/>
	<path class="st6" d="M611.4,344.7v23.2H597v-23.2l-34.7-27.2h19.6l22.3,17.5l22.3-17.5h19.6L611.4,344.7z"/>
	<path class="st6" d="M641.7,342.7c0-17.5,15.9-27.1,42.3-27.1s42.2,9.6,42.2,27.1s-15.8,27.1-42.2,27.1S641.7,360.2,641.7,342.7z
		 M711.8,342.7c0-10.7-10.5-16.3-27.8-16.3c-17.4,0-27.9,5.6-27.9,16.3S666.6,359,684,359C701.3,359,711.8,353.4,711.8,342.7z"/>
	<path class="st6" d="M815.4,317.5l-0.1,25.2c0,17.5-15.2,27.1-40.8,27.1c-25.6,0-40.8-9.6-40.8-27.1l-0.1-25.2h14.4l0.1,25.2
		c0,10.7,9.6,16.3,26.4,16.3c16.7,0,26.4-5.6,26.4-16.3l0.1-25.2H815.4z"/>
	<path class="st6" d="M87.1,414.7H51.1v39.6H36.7v-39.6H0.7v-10.8h86.4V414.7z"/>
	<path class="st6" d="M90.7,429.1c0-17.5,15.9-27.1,42.3-27.1c26.4,0,42.2,9.6,42.2,27.1c0,17.5-15.8,27.1-42.2,27.1
		C106.6,456.2,90.7,446.6,90.7,429.1z M160.8,429.1c0-10.7-10.5-16.3-27.8-16.3c-17.4,0-27.9,5.6-27.9,16.3
		c0,10.7,10.5,16.3,27.9,16.3C150.3,445.4,160.8,439.8,160.8,429.1z"/>
	<path class="st6" d="M182.4,429.1c0-17.5,15.9-27.1,42.3-27.1c26.4,0,42.2,9.6,42.2,27.1c0,17.5-15.8,27.1-42.2,27.1
		C198.3,456.2,182.4,446.6,182.4,429.1z M252.4,429.1c0-10.7-10.5-16.3-27.8-16.3c-17.4,0-27.9,5.6-27.9,16.3
		c0,10.7,10.5,16.3,27.9,16.3C241.9,445.4,252.4,439.8,252.4,429.1z"/>
	<path class="st6" d="M382.8,445.3h-47.7l-6.1,9h-16.1l34.3-50.4h23.6l34.3,50.4h-16.1L382.8,445.3z M375.5,434.5L359,410.3
		l-16.5,24.3H375.5z"/>
	<path class="st6" d="M477.4,443.5v10.8h-68.7v-50.4h14.4v39.6H477.4z"/>
	<path class="st6" d="M565.9,438.1c0,8.9-7.3,16.2-20.1,16.2h-62.6v-50.4h62.6c11.5,0,18,6.6,18,14.4c0,3.4-1.9,6.5-4.7,8.9
		C562.9,430.1,565.9,433.9,565.9,438.1z M497.5,422.1h48.2c1.9,0,3.7-1.6,3.7-3.7c0-2-1.7-3.7-3.7-3.7h-48.2V422.1z M551.1,438.2
		c0-2.9-2.4-5.3-5.3-5.3h-48.2v10.7h48.2C548.6,443.5,551.1,441.2,551.1,438.2z"/>
	<path class="st6" d="M638.6,445.3H591l-6.1,9h-16.1l34.3-50.4h23.6l34.3,50.4h-16.1L638.6,445.3z M631.3,434.5l-16.5-24.3
		l-16.5,24.3H631.3z"/>
	<path class="st6" d="M731.6,414.7h-36.1v39.6h-14.4v-39.6h-35.9v-10.8h86.4V414.7z"/>
	<path class="st6" d="M819.8,454.3h-20.3l-22.5-15.6h-26.8v15.6h-14.4v-50.4h61.2c13.9,0,21.7,7.8,21.7,17.4
		c0,9.6-7.8,17.4-21.7,17.4L819.8,454.3z M797.1,428c3.6,0,6.6-3,6.6-6.6c0-3.7-3-6.6-6.6-6.6h-46.8V428H797.1z"/>
	<path class="st6" d="M827.4,429.1c0-17.5,15.9-27.1,42.3-27.1s42.2,9.6,42.2,27.1c0,17.5-15.8,27.1-42.2,27.1
		S827.4,446.6,827.4,429.1z M897.4,429.1c0-10.7-10.5-16.3-27.8-16.3c-17.4,0-27.9,5.6-27.9,16.3c0,10.7,10.5,16.3,27.9,16.3
		C886.9,445.4,897.4,439.8,897.4,429.1z"/>
	<path class="st6" d="M985,439.6c0-3-4.5-4.1-23.8-5.8c-33.6-2.9-41.1-7.3-41.1-16.8c0-11.9,17-14.9,40-14.9c12.9,0,30,3.5,36.4,8
		l-8.5,7.9c-5.5-2.8-15.8-5.1-27.9-5.1c-15.6,0-25.7,0.9-25.7,3.5c0,2.8,6,4.2,27.5,6c26.4,2.3,37.6,7.1,37.6,17.8
		c0,12.9-18.7,16-40.1,16c-13.6,0-33.8-3.2-41-9.1l9.1-8.6c6.7,4.4,19.3,7,31.9,7C974.7,445.4,985,443.5,985,439.6z"/>
	<path class="st6" d="M120.8,490.3l-19.2,50.4h-24l-16.6-43.6l-16.6,43.6h-24L1.4,490.3h15.2l16,43.7l16.6-43.7H73L89.6,534l16-43.7
		H120.8z"/>
	<path class="st6" d="M190.7,531.7h-47.7l-6.1,9h-16.1l34.3-50.4h23.6l34.3,50.4h-16.1L190.7,531.7z M183.4,520.9l-16.5-24.3
		l-16.5,24.3H183.4z"/>
	<path class="st6" d="M273.6,540.7l-42.6-26v26h-14.4v-50.4H231v22.8l39.8-22.8H293l-41.9,23.5l44.7,26.9H273.6z"/>
	<path class="st6" d="M315.3,501.1v7.8h57.5v10.8h-57.5v10.2h65.1v10.8h-79.5v-50.4h79.5v10.8H315.3z"/>
	<path class="st6" d="M525.1,540.7h-14.4v-44l-21.7,44h-21.5l-21.7-44v44h-14.4v-50.4h26.2l20.6,43.1l20.6-43.1h26.2V540.7z"/>
	<path class="st6" d="M548.1,501.1v7.8h57.5v10.8h-57.5v10.2h65.1v10.8h-79.5v-50.4h79.5v10.8H548.1z"/>
	<path class="st6" d="M745.6,490.3l-0.1,25.2c0,17.5-15.2,27.1-40.8,27.1c-25.6,0-40.8-9.6-40.8-27.1l-0.1-25.2h14.4l0.1,25.2
		c0,10.7,9.6,16.3,26.4,16.3c16.7,0,26.4-5.6,26.4-16.3l0.1-25.2H745.6z"/>
	<path class="st6" d="M836.9,507.7c0,9.6-7.8,17.4-21.7,17.4h-46.8v15.6h-14.4v-50.4h61.2C829,490.3,836.9,498.2,836.9,507.7z
		 M821.7,507.7c0-3.7-3-6.6-6.6-6.6h-46.8v13.2h46.8C818.7,514.4,821.7,511.3,821.7,507.7z"/>
</g>
<g id="Layer_5">
	<g>
		<path class="st7" d="M47.3,25c0-2-3-2.7-15.9-3.8C9,19.2,4,16.3,4,9.9C4,2,15.4,0,30.7,0c8.6,0,20,2.4,24.2,5.3l-5.7,5.3
			c-3.6-1.9-10.5-3.4-18.6-3.4c-10.4,0-17.1,0.6-17.1,2.4c0,1.9,4,2.8,18.3,4C49.5,15.1,57,18.3,57,25.4c0,8.6-12.5,10.7-26.7,10.7
			c-9.1,0-22.6-2.2-27.4-6.1L9,24.2c4.5,2.9,12.9,4.7,21.3,4.7C40.5,28.9,47.3,27.7,47.3,25z"/>
		<path class="st7" d="M114.1,1.2v33.6h-9.6V20.4H70.9v14.4h-9.6V1.2h9.6v12h33.6v-12H114.1z"/>
		<path class="st7" d="M129,1.2v33.6h-9.6V1.2H129z"/>
		<path class="st7" d="M189.6,12.9c0,6.4-5.2,11.6-14.5,11.6h-31.2v10.4h-9.6V1.2h40.8C184.3,1.2,189.6,6.5,189.6,12.9z M179.5,12.9
			c0-2.4-2-4.4-4.4-4.4h-31.2v8.8h31.2C177.5,17.3,179.5,15.3,179.5,12.9z"/>
		<path class="st7" d="M232.3,1.2v33.6h-9.6V1.2H232.3z"/>
		<path class="st7" d="M281,25c0-2-3-2.7-15.9-3.8c-22.4-1.9-27.4-4.8-27.4-11.2c0-7.9,11.3-9.9,26.7-9.9c8.6,0,20,2.4,24.2,5.3
			l-5.7,5.3c-3.6-1.9-10.5-3.4-18.6-3.4c-10.4,0-17.1,0.6-17.1,2.4c0,1.9,4,2.8,18.3,4c17.6,1.5,25.1,4.8,25.1,11.9
			c0,8.6-12.5,10.7-26.7,10.7c-9.1,0-22.6-2.2-27.4-6.1l6.1-5.8c4.5,2.9,12.9,4.7,21.3,4.7C274.2,28.9,281,27.7,281,25z"/>
		<path class="st7" d="M333.4,8.4v7.7h35.9v7.2h-35.9v11.5h-9.6V1.2h50.6v7.2H333.4z"/>
		<path class="st7" d="M425.2,27.7v7.2h-45.8V1.2h9.6v26.4H425.2z"/>
		<path class="st7" d="M427.1,18c0-11.7,10.6-18,28.2-18s28.1,6.4,28.1,18s-10.6,18-28.1,18S427.1,29.7,427.1,18z M473.9,18
			c0-7.1-7-10.8-18.5-10.8c-11.6,0-18.6,3.7-18.6,10.8c0,7.1,7,10.8,18.6,10.8C466.8,28.9,473.9,25.2,473.9,18z"/>
		<path class="st7" d="M487.3,18c0-11.7,10.6-18,28.2-18s28.1,6.4,28.1,18s-10.6,18-28.1,18S487.3,29.7,487.3,18z M534,18
			c0-7.1-7-10.8-18.5-10.8c-11.6,0-18.6,3.7-18.6,10.8c0,7.1,7,10.8,18.6,10.8C527,28.9,534,25.2,534,18z"/>
		<path class="st7" d="M603.4,18c0,10.6-9.2,16.8-26.7,16.8h-27.7V1.2h27.7C594.2,1.2,603.4,7.4,603.4,18z M593.8,18
			c0-6-5.6-9.6-17.1-9.6h-18.1v19.2h18.1C588.1,27.7,593.8,24.1,593.8,18z"/>
		<path class="st7" d="M618.5,1.2v33.6h-9.6V1.2H618.5z"/>
		<path class="st7" d="M679,1.2v33.6h-17.8L633.4,4.9v29.9h-9.6V1.2h17.8l27.9,29.9V1.2H679z"/>
		<path class="st7" d="M740.1,14.6v4.4c0,10.7-10,17-27.6,17c-17.6,0-28.2-6.4-28.2-18s10.6-18,28.2-18c9.8,0,17.3,1.6,22.1,5.6
			l-6.4,6c-3-3.1-8.4-4.3-15.7-4.3c-11.6,0-18.6,3.7-18.6,10.8c0,7.1,7,10.8,18.6,10.8c9.6,0,15.7-2.6,17.5-7.1h-22.5v-7.2H740.1z"
			/>
		<path class="st7" d="M79.6,58.8L66.8,92.5h-16l-11-29l-11,29h-16L0,58.8h10.1L20.8,88l11.1-29.1h15.8L58.8,88l10.7-29.1H79.6z"/>
		<path class="st7" d="M91.1,58.8v33.6h-9.6V58.8H91.1z"/>
		<path class="st7" d="M151.6,58.8v33.6h-17.8L106,62.5v29.9h-9.6V58.8h17.8L142,88.8V58.8H151.6z"/>
		<path class="st7" d="M212.1,66h-24.1v26.4h-9.6V66h-24v-7.2h57.6V66z"/>
		<path class="st7" d="M224.6,66v5.2h38.3v7.2h-38.3v6.8H268v7.2h-53V58.8h53V66H224.6z"/>
		<path class="st7" d="M329.2,92.5h-13.5l-15-10.4h-17.9v10.4h-9.6V58.8h40.8c9.3,0,14.5,5.2,14.5,11.6c0,6.4-5.2,11.6-14.5,11.6
			L329.2,92.5z M314.1,74.9c2.4,0,4.4-2,4.4-4.4c0-2.4-2-4.4-4.4-4.4h-31.2v8.8H314.1z"/>
		<path class="st7" d="M408.9,85.2v7.2h-45.8V58.8h9.6v26.4H408.9z"/>
		<path class="st7" d="M422.8,58.8v33.6h-9.6V58.8H422.8z"/>
		<path class="st7" d="M483.3,58.8v33.6h-17.8l-27.9-29.9v29.9h-9.6V58.8h17.8l27.9,29.9V58.8H483.3z"/>
		<path class="st7" d="M544.3,58.8v33.6h-17.8l-27.9-29.9v29.9h-9.6V58.8h17.8l27.9,29.9V58.8H544.3z"/>
		<path class="st7" d="M633.1,58.8l0,16.8c0,11.7-10.1,18-27.2,18s-27.2-6.4-27.2-18l0-16.8h9.6l0,16.8c0,7.1,6.4,10.8,17.6,10.8
			c11.1,0,17.6-3.7,17.6-10.8l0-16.8H633.1z"/>
		<path class="st7" d="M693.8,58.8v33.6h-17.8l-27.9-29.9v29.9h-9.6V58.8h17.8l27.9,29.9V58.8H693.8z"/>
		<path class="st7" d="M708.7,66v7.7h35.9v7.2h-35.9v11.5h-9.6V58.8h50.6V66H708.7z"/>
		<path class="st7" d="M808.9,58.8l0,16.8c0,11.7-10.1,18-27.2,18c-17,0-27.2-6.4-27.2-18l0-16.8h9.6l0,16.8
			c0,7.1,6.4,10.8,17.6,10.8s17.6-3.7,17.6-10.8l0-16.8H808.9z"/>
		<path class="st7" d="M870.4,92.5h-13.5l-15-10.4h-17.9v10.4h-9.6V58.8h40.8c9.3,0,14.5,5.2,14.5,11.6c0,6.4-5.2,11.6-14.5,11.6
			L870.4,92.5z M855.3,74.9c2.4,0,4.4-2,4.4-4.4c0-2.4-2-4.4-4.4-4.4h-31.2v8.8H855.3z"/>
		<path class="st7" d="M921.3,85.2v7.2h-45.8V58.8h9.6v26.4H921.3z"/>
		<path class="st7" d="M969.8,86.5H938l-4.1,6h-10.8L946,58.8h15.7l22.8,33.6h-10.8L969.8,86.5z M964.9,79.2l-11-16.2l-11,16.2
			H964.9z"/>
		<path class="st7" d="M47.3,140.2c0-2-3-2.7-15.9-3.8C9,134.4,4,131.5,4,125.1c0-7.9,11.3-9.9,26.7-9.9c8.6,0,20,2.4,24.2,5.3
			l-5.7,5.3c-3.6-1.9-10.5-3.4-18.6-3.4c-10.4,0-17.1,0.6-17.1,2.4c0,1.9,4,2.8,18.3,4c17.6,1.5,25.1,4.8,25.1,11.9
			c0,8.6-12.5,10.7-26.7,10.7c-9.1,0-22.6-2.2-27.4-6.1l6.1-5.8c4.5,2.9,12.9,4.7,21.3,4.7C40.5,144.1,47.3,142.9,47.3,140.2z"/>
		<path class="st7" d="M115.5,123.6H91.5v26.4h-9.6v-26.4h-24v-7.2h57.6V123.6z"/>
		<path class="st7" d="M174.4,150.1h-13.5l-15-10.4H128v10.4h-9.6v-33.6h40.8c9.3,0,14.5,5.2,14.5,11.6c0,6.4-5.2,11.6-14.5,11.6
			L174.4,150.1z M159.2,132.5c2.4,0,4.4-2,4.4-4.4c0-2.4-2-4.4-4.4-4.4H128v8.8H159.2z"/>
		<path class="st7" d="M189,123.6v5.2h38.3v7.2H189v6.8h43.4v7.2h-53v-33.6h53v7.2H189z"/>
		<path class="st7" d="M292.9,116.4v33.6h-17.8l-27.9-29.9v29.9h-9.6v-33.6h17.8l27.9,29.9v-29.9H292.9z"/>
		<path class="st7" d="M354,129.8v4.4c0,10.7-10,17-27.6,17s-28.2-6.4-28.2-18s10.6-18,28.2-18c9.8,0,17.3,1.6,22.1,5.6l-6.4,6
			c-3-3.1-8.4-4.3-15.7-4.3c-11.6,0-18.6,3.7-18.6,10.8c0,7.1,7,10.8,18.6,10.8c9.6,0,15.7-2.6,17.5-7.1h-22.5v-7.2H354z"/>
		<path class="st7" d="M412.1,123.6H388v26.4h-9.6v-26.4h-24v-7.2h57.6V123.6z"/>
		<path class="st7" d="M467.3,116.4v33.6h-9.6v-14.4h-33.6v14.4h-9.6v-33.6h9.6v12h33.6v-12H467.3z"/>
		<path class="st7" d="M556.1,123.6H532v26.4h-9.6v-26.4h-24v-7.2h57.6V123.6z"/>
		<path class="st7" d="M611.3,116.4v33.6h-9.6v-14.4h-33.6v14.4h-9.6v-33.6h9.6v12h33.6v-12H611.3z"/>
		<path class="st7" d="M672.5,150.1H659l-15-10.4h-17.9v10.4h-9.6v-33.6h40.8c9.3,0,14.5,5.2,14.5,11.6c0,6.4-5.2,11.6-14.5,11.6
			L672.5,150.1z M657.4,132.5c2.4,0,4.4-2,4.4-4.4c0-2.4-2-4.4-4.4-4.4h-31.2v8.8H657.4z"/>
		<path class="st7" d="M676.1,133.2c0-11.7,10.6-18,28.2-18s28.1,6.4,28.1,18s-10.6,18-28.1,18S676.1,144.9,676.1,133.2z
			 M722.8,133.2c0-7.1-7-10.8-18.5-10.8c-11.6,0-18.6,3.7-18.6,10.8c0,7.1,7,10.8,18.6,10.8C715.8,144.1,722.8,140.4,722.8,133.2z"
			/>
		<path class="st7" d="M791.9,116.4l0,16.8c0,11.7-10.1,18-27.2,18c-17,0-27.2-6.4-27.2-18l0-16.8h9.6l0,16.8
			c0,7.1,6.4,10.8,17.6,10.8s17.6-3.7,17.6-10.8l0-16.8H791.9z"/>
		<path class="st7" d="M852.7,129.8v4.4c0,10.7-10,17-27.6,17c-17.6,0-28.2-6.4-28.2-18s10.6-18,28.2-18c9.8,0,17.3,1.6,22.1,5.6
			l-6.4,6c-3-3.1-8.4-4.3-15.7-4.3c-11.6,0-18.6,3.7-18.6,10.8c0,7.1,7,10.8,18.6,10.8c9.6,0,15.7-2.6,17.5-7.1h-22.5v-7.2H852.7z"
			/>
		<path class="st7" d="M910.3,116.4v33.6h-9.6v-14.4h-33.6v14.4h-9.6v-33.6h9.6v12h33.6v-12H910.3z"/>
		<path class="st7" d="M13,181.2v7.7h35.9v7.2H13v11.5H3.4V174H54v7.2H13z"/>
		<path class="st7" d="M115,207.7h-13.5l-15-10.4H68.6v10.4H59V174h40.8c9.3,0,14.5,5.2,14.5,11.6c0,6.4-5.2,11.6-14.5,11.6
			L115,207.7z M99.8,190.1c2.4,0,4.4-2,4.4-4.4c0-2.4-2-4.4-4.4-4.4H68.6v8.8H99.8z"/>
		<path class="st7" d="M161.8,201.7H130l-4.1,6h-10.8L138,174h15.7l22.9,33.6h-10.8L161.8,201.7z M156.9,194.4l-11-16.2l-11,16.2
			H156.9z"/>
		<path class="st7" d="M230.5,187.4v4.4c0,10.7-10,17-27.6,17s-28.2-6.4-28.2-18s10.6-18,28.2-18c9.8,0,17.3,1.6,22.1,5.6l-6.4,6
			c-3-3.1-8.4-4.3-15.7-4.3c-11.6,0-18.6,3.7-18.6,10.8c0,7.1,7,10.8,18.6,10.8c9.6,0,15.7-2.6,17.5-7.1h-22.5v-7.2H230.5z"/>
		<path class="st7" d="M245.4,174v33.6h-9.6V174H245.4z"/>
		<path class="st7" d="M296.5,200.5v7.2h-45.8V174h9.6v26.4H296.5z"/>
		<path class="st7" d="M310.4,174v33.6h-9.6V174H310.4z"/>
		<path class="st7" d="M370.4,181.2h-24.1v26.4h-9.6v-26.4h-24V174h57.6V181.2z"/>
		<path class="st7" d="M403.1,192.2v15.5h-9.6v-15.5L370.4,174h13.1l14.9,11.7l14.9-11.7h13.1L403.1,192.2z"/>
		<path class="st7" d="M501.5,197.8c0-2-3-2.7-15.9-3.8c-22.4-1.9-27.4-4.8-27.4-11.2c0-7.9,11.3-9.9,26.7-9.9
			c8.6,0,20,2.4,24.2,5.3l-5.7,5.3c-3.6-1.9-10.5-3.4-18.6-3.4c-10.4,0-17.1,0.6-17.1,2.4c0,1.9,4,2.8,18.3,4
			c17.6,1.5,25.1,4.8,25.1,11.9c0,8.6-12.5,10.7-26.7,10.7c-9.1,0-22.6-2.2-27.4-6.1l6.1-5.8c4.5,2.9,12.9,4.7,21.3,4.7
			C494.6,201.7,501.5,200.5,501.5,197.8z"/>
		<path class="st7" d="M514.9,190.8c0-11.7,10.6-18,28.2-18s28.1,6.4,28.1,18s-10.6,18-28.1,18S514.9,202.5,514.9,190.8z
			 M561.7,190.8c0-7.1-7-10.8-18.5-10.8c-11.6,0-18.6,3.7-18.6,10.8c0,7.1,7,10.8,18.6,10.8C554.6,201.7,561.7,198,561.7,190.8z"/>
		<path class="st7" d="M631,190.8c0,10.6-9.2,16.8-26.7,16.8h-27.7V174h27.7C621.8,174,631,180.2,631,190.8z M621.4,190.8
			c0-6-5.6-9.6-17.1-9.6h-18.1v19.2h18.1C615.8,200.5,621.4,196.9,621.4,190.8z"/>
		<path class="st7" d="M646.1,174v33.6h-9.6V174H646.1z"/>
		<path class="st7" d="M705.6,174l0,16.8c0,11.7-10.1,18-27.2,18c-17,0-27.2-6.4-27.2-18l0-16.8h9.6l0,16.8
			c0,7.1,6.4,10.8,17.6,10.8S696,198,696,190.8l0-16.8H705.6z"/>
		<path class="st7" d="M773.5,207.7h-9.6v-29.3l-14.4,29.3h-14.3l-14.4-29.3v29.3h-9.6V174h17.5l13.7,28.7L756,174h17.5V207.7z"/>
		<path class="st7" d="M58.6,238.8H34.5v26.4h-9.6v-26.4H1v-7.2h57.6V238.8z"/>
		<path class="st7" d="M117.4,265.3h-13.5l-15-10.4H71v10.4h-9.6v-33.6h40.8c9.3,0,14.5,5.2,14.5,11.6c0,6.4-5.2,11.6-14.5,11.6
			L117.4,265.3z M102.2,247.7c2.4,0,4.4-2,4.4-4.4c0-2.4-2-4.4-4.4-4.4H71v8.8H102.2z"/>
		<path class="st7" d="M132,231.6v33.6h-9.6v-33.6H132z"/>
		<path class="st7" d="M199.7,265.3h-9.6v-29.3l-14.4,29.3h-14.3l-14.4-29.3v29.3h-9.6v-33.6h17.5l13.7,28.7l13.7-28.7h17.5V265.3z"
			/>
		<path class="st7" d="M267.9,265.3h-9.6v-29.3l-14.4,29.3h-14.3l-14.4-29.3v29.3h-9.6v-33.6H223l13.7,28.7l13.7-28.7h17.5V265.3z"
			/>
		<path class="st7" d="M283.2,238.8v5.2h38.3v7.2h-38.3v6.8h43.4v7.2h-53v-33.6h53v7.2H283.2z"/>
		<path class="st7" d="M387.9,265.3h-13.5l-15-10.4h-17.9v10.4h-9.6v-33.6h40.8c9.3,0,14.5,5.2,14.5,11.6c0,6.4-5.2,11.6-14.5,11.6
			L387.9,265.3z M372.7,247.7c2.4,0,4.4-2,4.4-4.4c0-2.4-2-4.4-4.4-4.4h-31.2v8.8H372.7z"/>
		<path class="st7" d="M435.5,255.4c0-2-3-2.7-15.9-3.8c-22.4-1.9-27.4-4.8-27.4-11.2c0-7.9,11.3-9.9,26.7-9.9
			c8.6,0,20,2.4,24.2,5.3l-5.7,5.3c-3.6-1.9-10.5-3.4-18.6-3.4c-10.4,0-17.1,0.6-17.1,2.4c0,1.9,4,2.8,18.3,4
			c17.6,1.5,25.1,4.8,25.1,11.9c0,8.6-12.5,10.7-26.7,10.7c-9.1,0-22.6-2.2-27.4-6.1l6.1-5.8c4.5,2.9,12.9,4.7,21.3,4.7
			C428.6,259.3,435.5,258.1,435.5,255.4z"/>
		<path class="st7" d="M533.9,254.5c0,6-4.8,10.8-13.4,10.8h-41.8v-33.6h41.8c7.7,0,12,4.4,12,9.6c0,2.3-1.3,4.3-3.1,6
			C531.9,249.1,533.9,251.7,533.9,254.5z M488.3,243.7h32.2c1.3,0,2.4-1.1,2.4-2.4c0-1.3-1.2-2.4-2.4-2.4h-32.2V243.7z M524,254.5
			c0-1.9-1.6-3.6-3.6-3.6h-32.2v7.1h32.2C522.4,258.1,524,256.5,524,254.5z"/>
		<path class="st7" d="M581.2,259.3h-31.8l-4.1,6h-10.8l22.9-33.6h15.7l22.9,33.6h-10.8L581.2,259.3z M576.3,252l-11-16.2l-11,16.2
			H576.3z"/>
		<path class="st7" d="M653.7,231.6v33.6h-17.8L608,235.3v29.9h-9.6v-33.6h17.8l27.9,29.9v-29.9H653.7z"/>
		<path class="st7" d="M704.7,231.6l0,16.8c0,11.7-10.1,18-27.2,18c-9.2,0-16.3-1.8-21-5.3l6.3-5.6c4.5,2.8,9,3.7,14.7,3.7
			c11.1,0,17.6-3.7,17.6-10.8l0-16.8H704.7z"/>
		<path class="st7" d="M709.8,248.4c0-11.7,10.6-18,28.2-18c17.6,0,28.1,6.4,28.1,18s-10.6,18-28.1,18
			C720.4,266.5,709.8,260.1,709.8,248.4z M756.5,248.4c0-7.1-7-10.8-18.5-10.8c-11.6,0-18.6,3.7-18.6,10.8c0,7.1,7,10.8,18.6,10.8
			C749.5,259.3,756.5,255.6,756.5,248.4z"/>
		<path class="st7" d="M47.3,313c0-2-3-2.7-15.9-3.8C9,307.2,4,304.3,4,297.9c0-7.9,11.3-9.9,26.7-9.9c8.6,0,20,2.4,24.2,5.3
			l-5.7,5.3c-3.6-1.9-10.5-3.4-18.6-3.4c-10.4,0-17.1,0.6-17.1,2.4c0,1.9,4,2.8,18.3,4c17.6,1.5,25.1,4.8,25.1,11.9
			c0,8.6-12.5,10.7-26.7,10.7c-9.1,0-22.6-2.2-27.4-6.1l6.1-5.8c4.5,2.9,12.9,4.7,21.3,4.7C40.5,316.9,47.3,315.7,47.3,313z"/>
		<path class="st7" d="M117,289.2v33.6H99.3l-27.9-29.9v29.9h-9.6v-33.6h17.8l27.9,29.9v-29.9H117z"/>
		<path class="st7" d="M122.3,306c0-11.7,10.6-18,28.2-18s28.1,6.4,28.1,18s-10.6,18-28.1,18S122.3,317.7,122.3,306z M169,306
			c0-7.1-7-10.8-18.5-10.8c-11.6,0-18.6,3.7-18.6,10.8c0,7.1,7,10.8,18.6,10.8C162,316.9,169,313.2,169,306z"/>
		<path class="st7" d="M257.2,289.2l-12.8,33.6h-16l-11-29l-11,29h-16l-12.8-33.6h10.1l10.7,29.1l11.1-29.1h15.8l11.1,29.1
			l10.7-29.1H257.2z"/>
		<path class="st7" d="M314.3,312.1c0,6-4.8,10.8-13.4,10.8h-41.8v-33.6h41.8c7.7,0,12,4.4,12,9.6c0,2.3-1.3,4.3-3.1,6
			C312.3,306.7,314.3,309.3,314.3,312.1z M268.8,301.3h32.2c1.3,0,2.4-1.1,2.4-2.4c0-1.3-1.2-2.4-2.4-2.4h-32.2V301.3z M304.5,312.1
			c0-1.9-1.6-3.6-3.6-3.6h-32.2v7.1h32.2C302.8,315.7,304.5,314.1,304.5,312.1z"/>
		<path class="st7" d="M328.9,289.2v33.6h-9.6v-33.6H328.9z"/>
		<path class="st7" d="M390.2,322.9h-13.5l-15-10.4h-17.9v10.4h-9.6v-33.6H375c9.3,0,14.5,5.2,14.5,11.6c0,6.4-5.2,11.6-14.5,11.6
			L390.2,322.9z M375,305.3c2.4,0,4.4-2,4.4-4.4c0-2.4-2-4.4-4.4-4.4h-31.2v8.8H375z"/>
		<path class="st7" d="M449.7,306c0,10.6-9.2,16.8-26.7,16.8h-27.7v-33.6H423C440.5,289.2,449.7,295.4,449.7,306z M440.1,306
			c0-6-5.6-9.6-17.1-9.6h-18.1v19.2H423C434.5,315.7,440.1,312.1,440.1,306z"/>
		<path class="st7" d="M538.8,296.4h-24.1v26.4h-9.6v-26.4h-24v-7.2h57.6V296.4z"/>
		<path class="st7" d="M594,289.2v33.6h-9.6v-14.4h-33.6v14.4h-9.6v-33.6h9.6v12h33.6v-12H594z"/>
		<path class="st7" d="M608.8,296.4v5.2h38.3v7.2h-38.3v6.8h43.4v7.2h-53v-33.6h53v7.2H608.8z"/>
		<path class="st7" d="M741.6,302.6v4.4c0,10.7-10,17-27.6,17c-17.6,0-28.2-6.4-28.2-18s10.6-18,28.2-18c9.8,0,17.3,1.6,22.1,5.6
			l-6.4,6c-3-3.1-8.4-4.3-15.7-4.3c-11.6,0-18.6,3.7-18.6,10.8c0,7.1,7,10.8,18.6,10.8c9.6,0,15.7-2.6,17.5-7.1H709v-7.2H741.6z"/>
		<path class="st7" d="M802.8,322.9h-13.5l-15-10.4h-17.9v10.4h-9.6v-33.6h40.8c9.3,0,14.5,5.2,14.5,11.6c0,6.4-5.2,11.6-14.5,11.6
			L802.8,322.9z M787.7,305.3c2.4,0,4.4-2,4.4-4.4c0-2.4-2-4.4-4.4-4.4h-31.2v8.8H787.7z"/>
		<path class="st7" d="M817.5,289.2v33.6h-9.6v-33.6H817.5z"/>
		<path class="st7" d="M877.5,296.4h-24.1v26.4h-9.6v-26.4h-24v-7.2h57.6V296.4z"/>
		<path class="st7" d="M918.8,289.2v33.6h-9.6v-33.6H918.8z"/>
		<path class="st7" d="M979.3,289.2v33.6h-17.8l-27.9-29.9v29.9H924v-33.6h17.8l27.9,29.9v-29.9H979.3z"/>
		<path class="st7" d="M58.6,354H34.5v26.4h-9.6V354H1v-7.2h57.6V354z"/>
		<path class="st7" d="M113.8,346.8v33.6h-9.6V366H70.6v14.4H61v-33.6h9.6v12h33.6v-12H113.8z"/>
		<path class="st7" d="M128.6,354v5.2h38.3v7.2h-38.3v6.8H172v7.2h-53v-33.6h53v7.2H128.6z"/>
		<path class="st7" d="M261.4,358.5c0,6.4-5.2,11.6-14.5,11.6h-31.2v10.4h-9.6v-33.6h40.8C256.2,346.8,261.4,352.1,261.4,358.5z
			 M251.3,358.5c0-2.4-2-4.4-4.4-4.4h-31.2v8.8h31.2C249.3,362.9,251.3,360.9,251.3,358.5z"/>
		<path class="st7" d="M275.3,354v5.2h38.3v7.2h-38.3v6.8h43.4v7.2h-53v-33.6h53v7.2H275.3z"/>
		<path class="st7" d="M367.2,374.5h-31.8l-4.1,6h-10.8l22.9-33.6h15.7l22.9,33.6h-10.8L367.2,374.5z M362.4,367.2l-11-16.2
			l-11,16.2H362.4z"/>
		<path class="st7" d="M440.4,380.5h-13.5l-15-10.4h-17.9v10.4h-9.6v-33.6h40.8c9.3,0,14.5,5.2,14.5,11.6c0,6.4-5.2,11.6-14.5,11.6
			L440.4,380.5z M425.3,362.9c2.4,0,4.4-2,4.4-4.4c0-2.4-2-4.4-4.4-4.4h-31.2v8.8H425.3z"/>
		<path class="st7" d="M491.3,373.2v7.2h-45.8v-33.6h9.6v26.4H491.3z"/>
		<path class="st7" d="M579.6,369.6c0,6-4.8,10.8-13.4,10.8h-41.8v-33.6h41.8c7.7,0,12,4.4,12,9.6c0,2.3-1.3,4.3-3.1,6
			C577.6,364.3,579.6,366.9,579.6,369.6z M534,358.9h32.2c1.3,0,2.4-1.1,2.4-2.4c0-1.3-1.2-2.4-2.4-2.4H534V358.9z M569.7,369.7
			c0-1.9-1.6-3.6-3.6-3.6H534v7.1h32.2C568.1,373.2,569.7,371.7,569.7,369.7z"/>
		<path class="st7" d="M594.2,354v5.2h38.3v7.2h-38.3v6.8h43.4v7.2h-53v-33.6h53v7.2H594.2z"/>
		<path class="st7" d="M686.1,374.5h-31.8l-4.1,6h-10.8l22.9-33.6h15.7l22.9,33.6h-10.8L686.1,374.5z M681.2,367.2l-11-16.2
			l-11,16.2H681.2z"/>
		<path class="st7" d="M752.3,371.6c-3.9,6.5-12.9,10.2-25.8,10.2c-17.6,0-28-6.5-28-18.1s10.4-18.1,28-18.1
			c12.8,0,21.8,3.6,25.7,10.2l-9.1,2.9c-2.7-3.8-8.5-5.9-16.7-5.9c-11.6,0-18.4,3.8-18.4,10.9c0,7.1,6.8,10.9,18.4,10.9
			c8.3,0,14.1-2.2,16.8-6L752.3,371.6z"/>
		<path class="st7" d="M756.6,363.6c0-11.7,10.6-18,28.2-18c17.6,0,28.1,6.4,28.1,18s-10.6,18-28.1,18
			C767.2,381.7,756.6,375.3,756.6,363.6z M803.3,363.6c0-7.1-7-10.8-18.5-10.8c-11.6,0-18.6,3.7-18.6,10.8c0,7.1,7,10.8,18.6,10.8
			C796.3,374.5,803.3,370.8,803.3,363.6z"/>
		<path class="st7" d="M873.5,346.8v33.6h-17.8l-27.9-29.9v29.9h-9.6v-33.6H836l27.9,29.9v-29.9H873.5z"/>
		<path class="st7" d="M59.1,416.1c0,6.4-5.2,11.6-14.5,11.6H13.4v10.4H3.8v-33.6h40.8C53.9,404.4,59.1,409.7,59.1,416.1z
			 M49.1,416.1c0-2.4-2-4.4-4.4-4.4H13.4v8.8h31.2C47,420.5,49.1,418.5,49.1,416.1z"/>
		<path class="st7" d="M72.1,411.6v5.2h38.3v7.2H72.1v6.8h43.4v7.2h-53v-33.6h53v7.2H72.1z"/>
		<path class="st7" d="M175.5,411.6h-24.1v26.4h-9.6v-26.4h-24v-7.2h57.6V411.6z"/>
		<path class="st7" d="M234.3,438.1h-13.5l-15-10.4H188v10.4h-9.6v-33.6h40.8c9.3,0,14.5,5.2,14.5,11.6c0,6.4-5.2,11.6-14.5,11.6
			L234.3,438.1z M219.2,420.5c2.4,0,4.4-2,4.4-4.4c0-2.4-2-4.4-4.4-4.4H188v8.8H219.2z"/>
		<path class="st7" d="M238.9,421.2c0-11.7,10.6-18,28.2-18s28.1,6.4,28.1,18s-10.6,18-28.1,18S238.9,432.9,238.9,421.2z
			 M285.6,421.2c0-7.1-7-10.8-18.5-10.8c-11.6,0-18.6,3.7-18.6,10.8c0,7.1,7,10.8,18.6,10.8C278.6,432.1,285.6,428.4,285.6,421.2z"
			/>
		<path class="st7" d="M346.3,430.9v7.2h-45.8v-33.6h9.6v26.4H346.3z"/>
		<path class="st7" d="M360.2,411.6v5.2h38.3v7.2h-38.3v6.8h43.4v7.2h-53v-33.6h53v7.2H360.2z"/>
		<path class="st7" d="M463.1,404.4l0,16.8c0,11.7-10.1,18-27.2,18s-27.2-6.4-27.2-18l0-16.8h9.6l0,16.8c0,7.1,6.4,10.8,17.6,10.8
			c11.1,0,17.6-3.7,17.6-10.8l0-16.8H463.1z"/>
		<path class="st7" d="M531,438.1h-9.6v-29.3l-14.4,29.3h-14.3l-14.4-29.3v29.3h-9.6v-33.6H486l13.7,28.7l13.7-28.7H531V438.1z"/>
		<path class="st7" d="M620.3,411.6h-24.1v26.4h-9.6v-26.4h-24v-7.2h57.6V411.6z"/>
		<path class="st7" d="M632.7,404.4v33.6h-9.6v-33.6H632.7z"/>
		<path class="st7" d="M693.3,404.4v33.6h-17.8l-27.9-29.9v29.9H638v-33.6h17.8l27.9,29.9v-29.9H693.3z"/>
		<path class="st7" d="M754.3,417.8v4.4c0,10.7-10,17-27.6,17c-17.6,0-28.2-6.4-28.2-18s10.6-18,28.2-18c9.8,0,17.3,1.6,22.1,5.6
			l-6.4,6c-3-3.1-8.4-4.3-15.7-4.3c-11.6,0-18.6,3.7-18.6,10.8c0,7.1,7,10.8,18.6,10.8c9.6,0,15.7-2.6,17.5-7.1h-22.5v-7.2H754.3z"
			/>
		<path class="st7" d="M769.2,411.6v5.2h38.3v7.2h-38.3v6.8h43.4v7.2h-53v-33.6h53v7.2H769.2z"/>
		<path class="st7" d="M872.4,421.2c0,10.6-9.2,16.8-26.7,16.8h-27.7v-33.6h27.7C863.2,404.4,872.4,410.6,872.4,421.2z M862.8,421.2
			c0-6-5.6-9.6-17.1-9.6h-18.1v19.2h18.1C857.1,430.9,862.8,427.3,862.8,421.2z"/>
		<path class="st7" d="M47.3,485.8c0-2-3-2.7-15.9-3.8C9,480,4,477.1,4,470.7c0-7.9,11.3-9.9,26.7-9.9c8.6,0,20,2.4,24.2,5.3
			l-5.7,5.3c-3.6-1.9-10.5-3.4-18.6-3.4c-10.4,0-17.1,0.6-17.1,2.4c0,1.9,4,2.8,18.3,4c17.6,1.5,25.1,4.8,25.1,11.9
			c0,8.6-12.5,10.7-26.7,10.7c-9.1,0-22.6-2.2-27.4-6.1L9,485c4.5,2.9,12.9,4.7,21.3,4.7C40.5,489.7,47.3,488.5,47.3,485.8z"/>
		<path class="st7" d="M71.4,462v33.6h-9.6V462H71.4z"/>
		<path class="st7" d="M122.5,488.5v7.2H76.7V462h9.6v26.4H122.5z"/>
		<path class="st7" d="M176.7,462l-22.9,33.6h-15.7L115.2,462H126l20,29.4l20-29.4H176.7z"/>
		<path class="st7" d="M189.2,469.2v5.2h38.3v7.2h-38.3v6.8h43.4v7.2h-53V462h53v7.2H189.2z"/>
		<path class="st7" d="M293.8,495.7h-13.5l-15-10.4h-17.9v10.4h-9.6V462h40.8c9.3,0,14.5,5.2,14.5,11.6c0,6.4-5.2,11.6-14.5,11.6
			L293.8,495.7z M278.6,478.1c2.4,0,4.4-2,4.4-4.4c0-2.4-2-4.4-4.4-4.4h-31.2v8.8H278.6z"/>
		<path class="st7" d="M308.4,469.2v5.2h38.3v7.2h-38.3v6.8h43.4v7.2h-53V462h53v7.2H308.4z"/>
		<path class="st7" d="M411.6,478.8c0,10.6-9.2,16.8-26.7,16.8h-27.7V462h27.7C402.4,462,411.6,468.2,411.6,478.8z M402,478.8
			c0-6-5.6-9.6-17.1-9.6h-18.1v19.2h18.1C396.4,488.5,402,484.9,402,478.8z"/>
		<path class="st7" d="M455.5,462v33.6h-9.6V462H455.5z"/>
		<path class="st7" d="M516.8,495.7h-13.5l-15-10.4h-17.9v10.4h-9.6V462h40.8c9.3,0,14.5,5.2,14.5,11.6c0,6.4-5.2,11.6-14.5,11.6
			L516.8,495.7z M501.6,478.1c2.4,0,4.4-2,4.4-4.4c0-2.4-2-4.4-4.4-4.4h-31.2v8.8H501.6z"/>
		<path class="st7" d="M531.4,462v33.6h-9.6V462H531.4z"/>
		<path class="st7" d="M580.2,485.8c0-2-3-2.7-15.9-3.8c-22.4-1.9-27.4-4.8-27.4-11.2c0-7.9,11.3-9.9,26.7-9.9
			c8.6,0,20,2.4,24.2,5.3l-5.7,5.3c-3.6-1.9-10.5-3.4-18.6-3.4c-10.4,0-17.1,0.6-17.1,2.4c0,1.9,4,2.8,18.3,4
			c17.6,1.5,25.1,4.8,25.1,11.9c0,8.6-12.5,10.7-26.7,10.7c-9.1,0-22.6-2.2-27.4-6.1l6.1-5.8c4.5,2.9,12.9,4.7,21.3,4.7
			C573.3,489.7,580.2,488.5,580.2,485.8z"/>
		<path class="st7" d="M678.1,469.2h-24.1v26.4h-9.6v-26.4h-24V462h57.6V469.2z"/>
		<path class="st7" d="M733.3,462v33.6h-9.6v-14.4h-33.6v14.4h-9.6V462h9.6v12h33.6v-12H733.3z"/>
		<path class="st7" d="M748.2,469.2v5.2h38.3v7.2h-38.3v6.8h43.4v7.2h-53V462h53v7.2H748.2z"/>
		<path class="st7" d="M852.9,495.7h-13.5l-15-10.4h-17.9v10.4h-9.6V462h40.8c9.3,0,14.5,5.2,14.5,11.6c0,6.4-5.2,11.6-14.5,11.6
			L852.9,495.7z M837.7,478.1c2.4,0,4.4-2,4.4-4.4c0-2.4-2-4.4-4.4-4.4h-31.2v8.8H837.7z"/>
		<path class="st7" d="M867.5,469.2v5.2h38.3v7.2h-38.3v6.8h43.4v7.2h-53V462h53v7.2H867.5z"/>
		<path class="st7" d="M954.6,462v33.6H945V462H954.6z"/>
		<path class="st7" d="M1003.3,485.8c0-2-3-2.7-15.9-3.8C965,480,960,477.1,960,470.7c0-7.9,11.3-9.9,26.7-9.9
			c8.6,0,20,2.4,24.2,5.3l-5.7,5.3c-3.6-1.9-10.5-3.4-18.6-3.4c-10.4,0-17.1,0.6-17.1,2.4c0,1.9,4,2.8,18.3,4
			c17.6,1.5,25.1,4.8,25.1,11.9c0,8.6-12.5,10.7-26.7,10.7c-9.1,0-22.6-2.2-27.4-6.1l6.1-5.8c4.5,2.9,12.9,4.7,21.3,4.7
			C996.5,489.7,1003.3,488.5,1003.3,485.8z"/>
		<path class="st7" d="M47.1,547.2H15.3l-4.1,6H0.5l22.9-33.6h15.7l22.9,33.6H51.2L47.1,547.2z M42.2,540l-11-16.2l-11,16.2H42.2z"
			/>
		<path class="st7" d="M147.6,536.4c0,10.6-9.2,16.8-26.7,16.8H93.1v-33.6h27.7C138.4,519.6,147.6,525.8,147.6,536.4z M138,536.4
			c0-6-5.6-9.6-17.1-9.6h-18.1v19.2h18.1C132.4,546.1,138,542.5,138,536.4z"/>
		<path class="st7" d="M162.7,519.6v33.6h-9.6v-33.6H162.7z"/>
		<path class="st7" d="M211.5,543.4c0-2-3-2.7-15.9-3.8c-22.4-1.9-27.4-4.8-27.4-11.2c0-7.9,11.3-9.9,26.7-9.9
			c8.6,0,20,2.4,24.2,5.3l-5.7,5.3c-3.6-1.9-10.5-3.4-18.6-3.4c-10.4,0-17.1,0.6-17.1,2.4c0,1.9,4,2.8,18.3,4
			c17.6,1.5,25.1,4.8,25.1,11.9c0,8.6-12.5,10.7-26.7,10.7c-9.1,0-22.6-2.2-27.4-6.1l6.1-5.8c4.5,2.9,12.9,4.7,21.3,4.7
			C204.6,547.3,211.5,546.1,211.5,543.4z"/>
		<path class="st7" d="M279.7,526.8h-24.1v26.4H246v-26.4h-24v-7.2h57.6V526.8z"/>
		<path class="st7" d="M320.1,547.2h-31.8l-4.1,6h-10.8l22.9-33.6h15.7l22.9,33.6h-10.8L320.1,547.2z M315.2,540l-11-16.2l-11,16.2
			H315.2z"/>
		<path class="st7" d="M392.5,519.6v33.6h-17.8l-27.9-29.9v29.9h-9.6v-33.6h17.8l27.9,29.9v-29.9H392.5z"/>
		<path class="st7" d="M451.1,544.4c-3.9,6.5-12.9,10.2-25.8,10.2c-17.6,0-28-6.5-28-18.1s10.4-18.1,28-18.1
			c12.8,0,21.8,3.6,25.7,10.2l-9.1,2.9c-2.7-3.8-8.5-5.9-16.7-5.9c-11.6,0-18.4,3.8-18.4,10.9s6.8,10.9,18.4,10.9
			c8.3,0,14.1-2.2,16.8-6L451.1,544.4z"/>
		<path class="st7" d="M465.5,526.8v5.2h38.3v7.2h-38.3v6.8h43.4v7.2h-53v-33.6h53v7.2H465.5z"/>
		<path class="st7" d="M552.6,519.6v33.6H543v-33.6H552.6z"/>
		<path class="st7" d="M613.1,519.6v33.6h-17.8l-27.9-29.9v29.9h-9.6v-33.6h17.8l27.9,29.9v-29.9H613.1z"/>
		<path class="st7" d="M677.5,537.8v15.5h-9.6v-15.5l-23.1-18.1h13.1l14.9,11.7l14.9-11.7h13.1L677.5,537.8z"/>
		<path class="st7" d="M699.3,536.4c0-11.7,10.6-18,28.2-18c17.6,0,28.1,6.4,28.1,18s-10.6,18-28.1,18
			C709.9,554.5,699.3,548.1,699.3,536.4z M746,536.4c0-7.1-7-10.8-18.5-10.8c-11.6,0-18.6,3.7-18.6,10.8s7,10.8,18.6,10.8
			C739,547.3,746,543.6,746,536.4z"/>
		<path class="st7" d="M815,519.6l0,16.8c0,11.7-10.1,18-27.2,18c-17,0-27.2-6.4-27.2-18l0-16.8h9.6l0,16.8
			c0,7.1,6.4,10.8,17.6,10.8s17.6-3.7,17.6-10.8l0-16.8H815z"/>
	</g>
</g>
</svg>
