<?xml version="1.0" encoding="utf-8"?>
<!-- Generator: Adobe Illustrator 19.0.1, SVG Export Plug-In . SVG Version: 6.00 Build 0)  -->
<svg version="1.1" xmlns="http://www.w3.org/2000/svg" xmlns:xlink="http://www.w3.org/1999/xlink" x="0px" y="0px"
	 viewBox="0 0 822.1 426.5" style="enable-background:new 0 0 822.1 426.5;" xml:space="preserve">
<style type="text/css">
	.st0{display:none;}
	.st1{display:inline;fill:none;}
	.st2{display:inline;}
	.st3{font-family:'Onet-Regular';}
	.st4{font-size:48px;}
	.st5{font-family:'MyriadPro-Regular';}
	.st6{fill:#E085DE;}
	.st7{font-size:72px;}
	.st8{letter-spacing:1;}
	.st9{letter-spacing:-1;}
</style>
<g id="Layer_1" class="st0">
	<rect x="3.4" y="0" class="st1" width="882.4" height="603.4"/>
	<text transform="matrix(1 0 0 1 3.3605 37.3951)" class="st2"><tspan x="0" y="0" class="st3 st4">Screens Inharmonious Slog</tspan><tspan x="654.6" y="0" class="st5 st4"> </tspan><tspan x="664.7" y="0" class="st3 st4">The </tspan><tspan x="0" y="54.4" class="st3 st4">Everyday Push Storm Outre Lux</tspan><tspan x="781.2" y="54.4" class="st5 st4"> </tspan><tspan x="0" y="108.8" class="st3 st4">Balsam Massacre Eco Friend Off </tspan><tspan x="0" y="163.2" class="st3 st4">Piste Aura Bombogenesis Detox </tspan><tspan x="0" y="217.6" class="st3 st4">Reconstruct No Sass Static At the </tspan><tspan x="0" y="272" class="st3 st4">Summit These Fruits These </tspan><tspan x="0" y="326.4" class="st3 st4">Vegetables Illusion of Seclusion </tspan><tspan x="0" y="380.8" class="st3 st4">Dusk Chrome Astral Projection</tspan></text>
</g>
<g id="Layer_1_copy_2">
	<g>
		<path class="st6" d="M8.8,35.5C7,36.5,6,38.2,6,38.2V20.4c0.2,6.7,4.3,16.4,14.2,16.4c5.6,0,8.3-2.1,8.3-6.5
			c0-3.7-3.3-6.5-10.1-8.5c-8.3-2.5-12.1-5.1-12.1-10.1c0-5.9,6.1-8.4,13.7-8.4c5.7,0,8.6,2.1,9.6,2.8c2,0.1,2.4-2.7,2.4-2.7v14.7
			c-0.2-8-4.9-13.5-12-13.5c-4.5,0-8.9,1.2-8.9,4.9c0,3.5,2,4.7,11.6,7.8c10.5,3.4,11,7.4,11,11.5c0,6.2-4.5,9.5-13.5,9.5
			C16.6,38.3,12,37.3,8.8,35.5z"/>
		<path class="st6" d="M37.1,25.2c0-7.3,5.5-12.2,13.1-12.2c2.8,0,5.4,1.1,7.6,2.3c0.8,0,1.7-0.8,2.2-2.1L59.6,24
			c-0.6-5.2-3.8-9.8-9.9-9.7c-3.7,0-7.4,3.6-7.3,10.3c0,5.7,3.5,10.2,8.9,10.2c4.8,0,8.1-2.7,9.5-6.7c-0.8,5.6-5.3,9.6-10.9,9.6
			C42.3,37.8,37.1,32.7,37.1,25.2z"/>
		<path class="st6" d="M84.1,17.1c0,1.3-0.8,2.4-2.6,2.4c-1.9,0-2.8-1.2-2.7-2.4c-0.1-2.2-2.4-3.6-7.5-0.2v16.7
			c0,3.7,2.7,3.8,2.7,3.8H63.5c0,0,2.7-0.1,2.7-3.8V17.2c0-2.9-2.7-2.8-2.7-2.8l7.6-1l0.2,1.8v0.4l1.7-1.1
			C77.9,11.5,84.1,13,84.1,17.1z"/>
		<path class="st6" d="M97.9,13c7.7,0,10.9,5.5,10.9,10.2h-18c0,7.3,3.3,11.6,8.8,11.6c4.8,0,8-2.6,9.4-6.6
			c-0.8,5.6-5.1,9.6-10.8,9.6c-7.6,0-12.7-5-12.7-12.6C85.6,17.9,90.3,13,97.9,13z M103.2,21.8c0-0.9,0-7.5-5.3-7.5
			c-6.2,0-7,6.6-7,7.5H103.2z"/>
		<path class="st6" d="M123.9,13c7.7,0,10.9,5.5,10.9,10.2h-18c0,7.3,3.3,11.6,8.8,11.6c4.8,0,8-2.6,9.4-6.6
			c-0.8,5.6-5.1,9.6-10.8,9.6c-7.6,0-12.7-5-12.7-12.6C111.6,17.9,116.4,13,123.9,13z M129.3,21.8c0-0.9,0-7.5-5.3-7.5
			c-6.2,0-7,6.6-7,7.5H129.3z"/>
		<path class="st6" d="M145.6,15.2l3.8-1.1c8.3-2.4,12.4-0.3,12.4,7.3v12.2c0,3.7,2.7,3.8,2.7,3.8h-10.6c0,0,2.7-0.1,2.7-3.8V21.4
			c0-6-3-7.3-9.1-5.6l-2,0.6v17.2c0,3.7,2.7,3.8,2.7,3.8h-10.6c0,0,2.7-0.1,2.7-3.8V17.2c0-2.9-2.7-2.8-2.7-2.8l7.6-1L145.6,15.2z"
			/>
		<path class="st6" d="M170.5,35.9c-1.4,0.8-2.2,2-2.2,2V24.7c1.3,8.3,6,11.7,11.3,11.7c3.6,0,6-1.6,6-4c0-2.5-1.8-3.9-8-5.7
			c-6.6-1.9-9.4-3.8-9.4-7.4c0-3.5,2.5-6.3,10.6-6.3c3.2,0,5.9,0.6,8.1,1.9c1.6-0.1,2.1-2,2.1-2V24c-0.4-6.1-4.2-9.6-10.2-9.6
			c-3.2,0-6.5,1-6.5,2.8c0,2.1,1.6,3.1,9.8,5.5c6.7,1.9,8.2,4.6,8.2,8.1c0,4.1-3.3,7.1-10.7,7.1C176.3,37.8,172.8,37.2,170.5,35.9z"
			/>
		<path class="st6" d="M220.9,7.6v26c0,3.7,2.7,3.8,2.7,3.8h-10.6c0,0,2.7-0.1,2.7-3.8v-26c0-3.7-2.7-3.8-2.7-3.8h10.6
			C223.7,3.8,220.9,3.9,220.9,7.6z"/>
		<path class="st6" d="M234.4,15.2l3.8-1.1c8.3-2.4,12.4-0.3,12.4,7.3v12.2c0,3.7,2.7,3.8,2.7,3.8h-10.6c0,0,2.7-0.1,2.7-3.8V21.4
			c0-6-3-7.3-9.1-5.6l-2,0.6v17.2c0,3.7,2.7,3.8,2.7,3.8h-10.6c0,0,2.7-0.1,2.7-3.8V17.2c0-2.9-2.7-2.8-2.7-2.8l7.6-1L234.4,15.2z"
			/>
		<path class="st6" d="M263.6,15.2l3.8-1.1c8.3-2.4,12.4-0.3,12.4,7.3v12.2c0,3.7,2.7,3.8,2.7,3.8H272c0,0,2.7-0.1,2.7-3.8V21.4
			c0-6-3-7.3-9.1-5.6l-2,0.6v17.2c0,3.7,2.7,3.8,2.7,3.8h-10.6c0,0,2.7-0.1,2.7-3.8V3.8c0-3.3-2.7-3.1-2.7-3.1l7.8-0.7V15.2z"/>
		<path class="st6" d="M303.6,37.4l-0.8-2.6l-3,1.3c-6.8,3-14.1,2-14.1-4.6c0-6,6.1-6.7,16.8-9.9c-0.2-6.6-2.4-7.4-5.2-7.4
			c-2.9,0-4.7,1.5-4.7,3.8c0,1.7-0.8,2.8-2.6,2.8c-1.9,0-2.8-1.2-2.7-2.8c0-1.7,2.2-5.1,10-5.1c7.5,0,10.4,2.8,10.4,8.5v12.2
			c0,3.7,2.7,3.8,2.7,3.8H303.6z M301.5,34l0.9-0.4V23.1l-0.6,0.2c-8.1,2.3-11.1,3.5-11.1,7.5C290.7,35.4,295.7,36.4,301.5,34z"/>
		<path class="st6" d="M333.6,17.1c0,1.3-0.8,2.4-2.6,2.4c-1.9,0-2.8-1.2-2.7-2.4c-0.1-2.2-2.4-3.6-7.5-0.2v16.7
			c0,3.7,2.7,3.8,2.7,3.8h-10.6c0,0,2.7-0.1,2.7-3.8V17.2c0-2.9-2.7-2.8-2.7-2.8l7.6-1l0.2,1.8v0.4l1.7-1.1
			C327.4,11.5,333.6,13,333.6,17.1z"/>
		<path class="st6" d="M367.5,33.6V21.4c0-6-2-7.8-7.7-5.8l-2.8,1c0.5,1.2,0.8,2.9,0.8,4.8v12.2c0,3.7,2.7,3.8,2.7,3.8h-10.6
			c0,0,2.7-0.1,2.7-3.8V21.4c0-6-2-7.8-7.7-5.8l-2,0.7v17.3c0,3.7,2.7,3.8,2.7,3.8H335c0,0,2.7-0.1,2.7-3.8V17.2
			c0-2.9-2.7-2.8-2.7-2.8l7.6-1l0.2,1.7l3.9-1.2c4.5-1.5,7.9-1,9.6,1.7l5.2-1.7c6.8-2.2,11-0.1,11,7.5v12.2c0,3.7,2.7,3.8,2.7,3.8
			h-10.6C364.8,37.4,367.5,37.3,367.5,33.6z"/>
		<path class="st6" d="M378,25.2c0-7.3,5.5-12.2,13.1-12.2c7.6,0,13.1,4.9,13.1,12.2c0,7.5-5.5,12.6-13.1,12.6
			C383.5,37.8,378,32.7,378,25.2z M398.5,25.2c0-4.2-1.2-10.8-7.4-10.8c-6.2,0-7.4,6.6-7.4,10.8c0,4.3,1.2,11.2,7.4,11.2
			C397.3,36.4,398.5,29.5,398.5,25.2z"/>
		<path class="st6" d="M415,15.2l3.8-1.1c8.3-2.4,12.4-0.3,12.4,7.3v12.2c0,3.7,2.7,3.8,2.7,3.8h-10.6c0,0,2.7-0.1,2.7-3.8V21.4
			c0-6-3-7.3-9.1-5.6l-2,0.6v17.2c0,3.7,2.7,3.8,2.7,3.8h-10.6c0,0,2.7-0.1,2.7-3.8V17.2c0-2.9-2.7-2.8-2.7-2.8l7.6-1L415,15.2z"/>
		<path class="st6" d="M444.1,33.6c0,3.7,2.7,3.8,2.7,3.8h-10.6c0,0,2.7-0.1,2.7-3.8V17.2c0-2.9-2.7-2.8-2.7-2.8l7.8-1V33.6z
			 M438.2,6.8c0,1.8,1.2,3,3.1,3s3.3-1.2,3.3-3c0-1.8-1.4-3-3.3-3S438.2,5,438.2,6.8z"/>
		<path class="st6" d="M449.7,25.2c0-7.3,5.5-12.2,13.1-12.2s13.1,4.9,13.1,12.2c0,7.5-5.5,12.6-13.1,12.6S449.7,32.7,449.7,25.2z
			 M470.3,25.2c0-4.2-1.2-10.8-7.4-10.8c-6.2,0-7.4,6.6-7.4,10.8c0,4.3,1.2,11.2,7.4,11.2C469.1,36.4,470.3,29.5,470.3,25.2z"/>
		<path class="st6" d="M502.8,33.6c0,3.7,2.7,3.8,2.7,3.8h-7.6l-0.2-1.8l-3.8,1.1c-8.7,2.5-12.9,0.3-12.9-6V17.2
			c0-2.9-2.7-2.8-2.7-2.8l7.8-1v17.3c0,4.7,3,6.2,9.6,4.3l2-0.6V17.2c0-2.9-2.7-2.8-2.7-2.8l7.8-1V33.6z"/>
		<path class="st6" d="M512,35.9c-1.4,0.8-2.2,2-2.2,2V24.7c1.3,8.3,6,11.7,11.3,11.7c3.6,0,6-1.6,6-4c0-2.5-1.8-3.9-8-5.7
			c-6.6-1.9-9.4-3.8-9.4-7.4c0-3.5,2.5-6.3,10.6-6.3c3.2,0,5.9,0.6,8.1,1.9c1.6-0.1,2.1-2,2.1-2V24c-0.4-6.1-4.2-9.6-10.2-9.6
			c-3.2,0-6.5,1-6.5,2.8c0,2.1,1.6,3.1,9.8,5.5c6.7,1.9,8.2,4.6,8.2,8.1c0,4.1-3.3,7.1-10.7,7.1C517.8,37.8,514.4,37.2,512,35.9z"/>
		<path class="st6" d="M558.7,35.5c-1.9,1.1-2.8,2.7-2.8,2.7V20.4c0.2,6.7,4.3,16.4,14.2,16.4c5.6,0,8.3-2.1,8.3-6.5
			c0-3.7-3.3-6.5-10.1-8.5c-8.3-2.5-12.1-5.1-12.1-10.1c0-5.9,6.1-8.4,13.7-8.4c5.7,0,8.6,2.1,9.6,2.8c2,0.1,2.4-2.7,2.4-2.7v14.7
			c-0.2-8-4.9-13.5-12-13.5c-4.5,0-8.9,1.2-8.9,4.9c0,3.5,2,4.7,11.6,7.8c10.5,3.4,11,7.4,11,11.5c0,6.2-4.5,9.5-13.5,9.5
			C566.4,38.3,561.8,37.3,558.7,35.5z"/>
		<path class="st6" d="M594.7,33.6c0,3.7,2.7,3.8,2.7,3.8h-10.6c0,0,2.7-0.1,2.7-3.8V3.8c0-3.3-2.7-3.1-2.7-3.1l7.8-0.7V33.6z"/>
		<path class="st6" d="M600.3,25.2c0-7.3,5.5-12.2,13.1-12.2s13.1,4.9,13.1,12.2c0,7.5-5.5,12.6-13.1,12.6S600.3,32.7,600.3,25.2z
			 M620.9,25.2c0-4.2-1.2-10.8-7.4-10.8c-6.2,0-7.4,6.6-7.4,10.8c0,4.3,1.2,11.2,7.4,11.2C619.7,36.4,620.9,29.5,620.9,25.2z"/>
		<path class="st6" d="M656.3,42.1c0,5.1-4,8.7-13.5,8.7c-10.5,0-13.9-3.6-13.9-8.1c0-3.9,3.5-5.8,5.5-5.8c-5.8-1-5.5-6.7-0.9-8
			c-2.2-1.5-3.2-3.8-3.2-6.9c0-5.9,4.8-9,11.5-9c2.9,0,5.4,0.6,7.3,1.7c2.5-4.4,5.2-4.7,6.2-4.1c1,0.5,1.5,1.4,0.9,2.5
			c-0.6,1.2-1.5,1.2-2.5,0.6c-1.3-0.7-2.5,0.1-3.4,1.6c1.9,1.5,3,3.7,3,6.6c0,5.7-4.2,8.8-11.5,8.8c-2.8,0-5.1-0.4-6.9-1.2
			c-0.7,0.2-1.1,0.6-1.1,1.3c0,1.2,2.3,2.5,9.6,2.5C652.8,33.5,656.3,37.1,656.3,42.1z M651.6,42.6c0-2.9-2.8-5.2-8.8-5.2
			c-2.8,0-4.9,0-6.8-0.2c-1.3,0.6-2.6,2.5-2.6,4.9c0,4.7,3.5,7.2,9.4,7.2C648.1,49.3,651.6,46.7,651.6,42.6z M635.3,22
			c0,5.1,2.2,7.5,6.5,7.5c4.2,0,6.5-2.4,6.5-7.5c0-5.3-2.2-7.6-6.5-7.6C637.6,14.4,635.3,16.7,635.3,22z"/>
		<path class="st6" d="M700,13.4c0,0-1.4-8.3-7.3-8.3h-6v28.5c0,3.7,2.7,3.8,2.7,3.8h-10.6c0,0,2.7-0.1,2.7-3.8V5.1h-5.7
			c-5.9,0-7.3,8.3-7.3,8.3l0.5-9.6h30.3L700,13.4z"/>
		<path class="st6" d="M709.8,15.2l3.8-1.1c8.3-2.4,12.4-0.3,12.4,7.3v12.2c0,3.7,2.7,3.8,2.7,3.8h-10.6c0,0,2.7-0.1,2.7-3.8V21.4
			c0-6-3-7.3-9.1-5.6l-2,0.6v17.2c0,3.7,2.7,3.8,2.7,3.8h-10.6c0,0,2.7-0.1,2.7-3.8V3.8c0-3.3-2.7-3.1-2.7-3.1l7.8-0.7V15.2z"/>
		<path class="st6" d="M743.4,13c7.7,0,10.9,5.5,10.9,10.2h-18c0,7.3,3.3,11.6,8.8,11.6c4.8,0,8-2.6,9.4-6.6
			c-0.8,5.6-5.1,9.6-10.8,9.6c-7.6,0-12.7-5-12.7-12.6C731.1,17.9,735.8,13,743.4,13z M748.7,21.8c0-0.9,0-7.5-5.3-7.5
			c-6.2,0-7,6.6-7,7.5H748.7z"/>
		<path class="st6" d="M34,82.7l-0.5,9.1H5.3c0,0,2.7-0.1,2.7-3.8V62c0-3.7-2.7-3.8-2.7-3.8h27.6l0.8,7.2c0,0-2.3-5.9-6.5-5.9H13.2
			v14.3h9.3c7.3,0,7.4-5.1,7.4-5.1v11.6c0,0-0.1-5.1-7.4-5.1h-9.3v15.3h13.5C32.5,89.5,34,82.7,34,82.7z"/>
		<path class="st6" d="M59.5,71.5L50,91.8h-2.7L38,71.7c-1.9-3.8-5.4-3.9-5.4-3.9h13.9c0,0-4.5,0.1-2.3,5.8l6.4,13.7l5.7-12.2l0,0
			c3.4-7.2-1.6-7.3-1.6-7.3h10.1C64.8,67.8,61.1,67.9,59.5,71.5z"/>
		<path class="st6" d="M75.1,67.4c7.7,0,10.9,5.5,10.9,10.2h-18c0,7.3,3.3,11.6,8.8,11.6c4.8,0,8-2.6,9.4-6.6
			c-0.8,5.6-5.1,9.6-10.8,9.6c-7.6,0-12.7-5-12.7-12.6C62.8,72.3,67.5,67.4,75.1,67.4z M80.4,76.2c0-0.9,0-7.5-5.3-7.5
			c-6.2,0-7,6.6-7,7.5H80.4z"/>
		<path class="st6" d="M109.6,71.5c0,1.3-0.8,2.4-2.6,2.4c-1.9,0-2.8-1.2-2.7-2.4c-0.1-2.2-2.4-3.6-7.5-0.2V88
			c0,3.7,2.7,3.8,2.7,3.8H88.9c0,0,2.7-0.1,2.7-3.8V71.6c0-2.9-2.7-2.8-2.7-2.8l7.6-1l0.2,1.8V70l1.7-1.1
			C103.3,65.9,109.6,67.4,109.6,71.5z"/>
		<path class="st6" d="M134.7,71.2l-11.7,25c-3.7,8-7.3,7.7-8.9,7c-1.5-0.6-2.2-1.9-1.4-3.6c0.8-1.6,2.1-1.9,3.6-1.2
			c2.1,1,4.1,0,5.4-2.7l1.2-2.6l-9.9-21.3c-1.8-3.9-5.5-4-5.5-4h14c0,0-4.7,0.1-2.2,6.1l6.2,13.4l5.7-12.2l0,0
			c3.4-7.2-1.6-7.3-1.6-7.3h10.1C139.9,67.8,136.4,67.9,134.7,71.2z"/>
		<path class="st6" d="M164,91.8h-7.3l-0.5-1.8v-0.1c-1.9,1.4-4.3,2.3-7.1,2.3c-6.9,0-12-3.8-12-11.9c0-7.9,5.1-12.9,12-12.9
			c2.9,0,5.2,0.8,7.1,2V58.2c0-3.3-2.7-3.1-2.7-3.1l7.8-0.7V88C161.3,91.7,164,91.8,164,91.8z M156.1,88.4V71.2
			c-1.5-1.3-3.4-2.3-5.9-2.3c-4.1,0-7.6,4.2-7.6,10.9c0,6.8,2.9,10.6,7.6,10.6C152.7,90.5,154.7,89.6,156.1,88.4z"/>
		<path class="st6" d="M185.5,91.8l-0.8-2.6l-3,1.3c-6.8,3-14.1,2-14.1-4.6c0-6,6.1-6.7,16.8-9.9c-0.2-6.6-2.4-7.4-5.2-7.4
			c-2.9,0-4.7,1.5-4.7,3.8c0,1.7-0.8,2.8-2.6,2.8c-1.9,0-2.8-1.2-2.7-2.8c0-1.7,2.2-5.1,10-5.1c7.5,0,10.4,2.8,10.4,8.5V88
			c0,3.7,2.7,3.8,2.7,3.8H185.5z M183.5,88.4l0.9-0.4V77.5l-0.6,0.2c-8.1,2.3-11.1,3.5-11.1,7.5C172.7,89.8,177.6,90.8,183.5,88.4z"
			/>
		<path class="st6" d="M218,71.2l-11.7,25c-3.7,8-7.3,7.7-8.9,7c-1.5-0.6-2.2-1.9-1.4-3.6c0.8-1.6,2.1-1.9,3.6-1.2
			c2.1,1,4.1,0,5.4-2.7l1.2-2.6l-9.9-21.3c-1.8-3.9-5.5-4-5.5-4h14c0,0-4.7,0.1-2.2,6.1l6.2,13.4l5.7-12.2l0,0
			c3.4-7.2-1.6-7.3-1.6-7.3h10.1C223.2,67.8,219.7,67.9,218,71.2z"/>
		<path class="st6" d="M272.8,67.8c0,7.8-8.3,10.7-14.9,10.7h-8.7V88c0,3.7,2.7,3.8,2.7,3.8h-10.6c0,0,2.7-0.1,2.7-3.8V62.9
			c0,0,0-4.8-4.1-4.8h17.3C264.7,58.2,272.8,59.8,272.8,67.8z M267.4,68.5c0-6-3.5-9-11.1-9h-7.1v17.6h8.4
			C264,77.2,267.4,73.4,267.4,68.5z"/>
		<path class="st6" d="M298.8,88c0,3.7,2.7,3.8,2.7,3.8h-7.6l-0.2-1.8l-3.8,1.1c-8.7,2.5-12.9,0.3-12.9-6V71.6
			c0-2.9-2.7-2.8-2.7-2.8l7.8-1v17.3c0,4.7,3,6.2,9.6,4.3l2-0.6V71.6c0-2.9-2.7-2.8-2.7-2.8l7.8-1V88z"/>
		<path class="st6" d="M307.9,90.3c-1.4,0.8-2.2,2-2.2,2V79.1c1.3,8.3,6,11.7,11.3,11.7c3.6,0,6-1.6,6-4c0-2.5-1.8-3.9-8-5.7
			c-6.6-1.9-9.4-3.8-9.4-7.4c0-3.5,2.5-6.3,10.6-6.3c3.2,0,5.9,0.6,8.1,1.9c1.6-0.1,2.1-2,2.1-2v11.1c-0.4-6.1-4.2-9.6-10.2-9.6
			c-3.2,0-6.5,1-6.5,2.8c0,2.1,1.6,3.1,9.8,5.5c6.7,1.9,8.2,4.6,8.2,8.1c0,4.1-3.3,7.1-10.7,7.1C313.7,92.2,310.3,91.6,307.9,90.3z"
			/>
		<path class="st6" d="M339.2,69.6l3.8-1.1c8.3-2.4,12.4-0.3,12.4,7.3V88c0,3.7,2.7,3.8,2.7,3.8h-10.6c0,0,2.7-0.1,2.7-3.8V75.8
			c0-6-3-7.3-9.1-5.6l-2,0.6V88c0,3.7,2.7,3.8,2.7,3.8h-10.6c0,0,2.7-0.1,2.7-3.8V58.2c0-3.3-2.7-3.1-2.7-3.1l7.8-0.7V69.6z"/>
		<path class="st6" d="M383.8,89.9c-1.9,1.1-2.8,2.7-2.8,2.7V74.8c0.2,6.7,4.3,16.4,14.2,16.4c5.6,0,8.3-2.1,8.3-6.5
			c0-3.7-3.3-6.5-10.1-8.5c-8.3-2.5-12.1-5.1-12.1-10.1c0-5.9,6.1-8.4,13.7-8.4c5.7,0,8.6,2.1,9.6,2.8c2,0.1,2.4-2.7,2.4-2.7v14.7
			c-0.2-8-4.9-13.5-12-13.5c-4.5,0-8.9,1.2-8.9,4.9c0,3.5,2,4.7,11.6,7.8c10.5,3.4,11,7.4,11,11.5c0,6.2-4.5,9.5-13.5,9.5
			C391.5,92.7,386.9,91.7,383.8,89.9z"/>
		<path class="st6" d="M421.9,69.1V88c0,3.7,2.7,3.8,2.7,3.8H414c0,0,2.7-0.1,2.7-3.8V69.1h-6.2v-1.3h6.2V62c0-3.3-2.7-3.1-2.7-3.1
			l7.8-0.7v9.6h5.8v1.3H421.9z"/>
		<path class="st6" d="M429.1,79.6c0-7.3,5.5-12.2,13.1-12.2s13.1,4.9,13.1,12.2c0,7.5-5.5,12.6-13.1,12.6S429.1,87.1,429.1,79.6z
			 M449.7,79.6c0-4.2-1.2-10.8-7.4-10.8c-6.2,0-7.4,6.6-7.4,10.8c0,4.3,1.2,11.2,7.4,11.2C448.5,90.8,449.7,83.9,449.7,79.6z"/>
		<path class="st6" d="M478.9,71.5c0,1.3-0.8,2.4-2.6,2.4c-1.9,0-2.8-1.2-2.7-2.4c-0.1-2.2-2.4-3.6-7.5-0.2V88
			c0,3.7,2.7,3.8,2.7,3.8h-10.6c0,0,2.7-0.1,2.7-3.8V71.6c0-2.9-2.7-2.8-2.7-2.8l7.6-1l0.2,1.8V70l1.7-1.1
			C472.7,65.9,478.9,67.4,478.9,71.5z"/>
		<path class="st6" d="M512.8,88V75.8c0-6-2-7.8-7.7-5.8l-2.8,1c0.5,1.2,0.8,2.9,0.8,4.8V88c0,3.7,2.7,3.8,2.7,3.8h-10.6
			c0,0,2.7-0.1,2.7-3.8V75.8c0-6-2-7.8-7.7-5.8l-2,0.7V88c0,3.7,2.7,3.8,2.7,3.8h-10.6c0,0,2.7-0.1,2.7-3.8V71.6
			c0-2.9-2.7-2.8-2.7-2.8l7.6-1l0.2,1.7l3.9-1.2c4.5-1.5,7.9-1,9.6,1.7l5.2-1.7c6.8-2.2,11-0.1,11,7.5V88c0,3.7,2.7,3.8,2.7,3.8
			h-10.6C510.1,91.8,512.8,91.7,512.8,88z"/>
		<path class="st6" d="M578.2,75c0,10.5-7.4,17.7-17.9,17.7c-10.4,0-17.9-7.2-17.9-17.7c0-10.6,7.4-17.4,17.9-17.4
			C570.8,57.6,578.2,64.4,578.2,75z M572.5,75c0-5.9-2.3-16-12.2-16c-9.9,0-12.2,10.1-12.2,16c0,5.9,2.3,16.3,12.2,16.3
			C570.3,91.3,572.5,80.9,572.5,75z"/>
		<path class="st6" d="M605.1,88c0,3.7,2.7,3.8,2.7,3.8h-7.6L600,90l-3.8,1.1c-8.7,2.5-12.9,0.3-12.9-6V71.6c0-2.9-2.7-2.8-2.7-2.8
			l7.8-1v17.3c0,4.7,3,6.2,9.6,4.3l2-0.6V71.6c0-2.9-2.7-2.8-2.7-2.8l7.8-1V88z"/>
		<path class="st6" d="M620.6,69.1V88c0,3.7,2.7,3.8,2.7,3.8h-10.6c0,0,2.7-0.1,2.7-3.8V69.1h-6.2v-1.3h6.2V62
			c0-3.3-2.7-3.1-2.7-3.1l7.8-0.7v9.6h5.8v1.3H620.6z"/>
		<path class="st6" d="M648.5,71.5c0,1.3-0.8,2.4-2.6,2.4c-1.9,0-2.8-1.2-2.7-2.4c-0.1-2.2-2.4-3.6-7.5-0.2V88
			c0,3.7,2.7,3.8,2.7,3.8h-10.6c0,0,2.7-0.1,2.7-3.8V71.6c0-2.9-2.7-2.8-2.7-2.8l7.6-1l0.2,1.8V70l1.7-1.1
			C642.3,65.9,648.5,67.4,648.5,71.5z"/>
		<path class="st6" d="M662.2,67.4c7.7,0,10.9,5.5,10.9,10.2h-18c0,7.3,3.3,11.6,8.8,11.6c4.8,0,8-2.6,9.4-6.6
			c-0.8,5.6-5.1,9.6-10.8,9.6c-7.6,0-12.7-5-12.7-12.6C650,72.3,654.7,67.4,662.2,67.4z M667.6,76.2c0-0.9,0-7.5-5.3-7.5
			c-6.2,0-7,6.6-7,7.5H667.6z"/>
		<path class="st6" d="M723,79.3L722,91.8h-26.3c0.2,0,2.7-0.1,2.7-3.8V62c0-3.7-2.7-3.8-2.7-3.8h10.6c0,0-2.7,0.1-2.7,3.8v28.5h9.3
			C722,90.5,723,79.3,723,79.3z"/>
		<path class="st6" d="M749,88c0,3.7,2.7,3.8,2.7,3.8h-7.6l-0.2-1.8l-3.8,1.1c-8.7,2.5-12.9,0.3-12.9-6V71.6c0-2.9-2.7-2.8-2.7-2.8
			l7.8-1v17.3c0,4.7,3,6.2,9.6,4.3l2-0.6V71.6c0-2.9-2.7-2.8-2.7-2.8l7.8-1V88z"/>
		<path class="st6" d="M782.1,91.8h-13.3c2.1,0,3.6-0.7,1.1-4.5l-3.7-5.5l-2.3,3.4c-4,6-2.4,6.6,1.9,6.6h-13.1
			c3.6-0.1,5.9-1.3,9.8-7.1l2.8-4.1l-5.2-7.7c0,0,0,0,0,0l-0.1-0.2c-2.4-3.6-4.6-4.8-6.7-4.9h13.3c-2,0-3.6,0.7-1.2,4.2l3.8,5.7
			l2.3-3.3c4-6,2.4-6.6-1.9-6.6h13.1c-3.6,0.1-5.9,1.3-9.8,7.1l-2.8,4.1l6,8.9C778.2,90.6,780.1,91.7,782.1,91.8z"/>
		<path class="st6" d="M7.5,142.4v-26c0-3.7-2.7-3.8-2.7-3.8h16.7c7.8,0,14.1,0.1,14.1,6.3c0,5.1-3.9,6.5-8.4,7
			c5.9,0,10.8,1.2,10.8,9.4c0,9.5-6.5,10.9-15.4,10.9H4.8C4.8,146.2,7.5,146.1,7.5,142.4z M21.5,125.3c6.3,0,8.9-1.8,8.9-6.1
			c0-4.1-2.4-5.2-10.8-5.2h-6.9v11.4H21.5z M22.3,144.9c6.3,0,10-2.4,10-9.2c0-6-1.9-8.9-10.3-8.9h-9.4v18.1H22.3z"/>
		<path class="st6" d="M59.5,146.2l-0.8-2.6l-3,1.3c-6.8,3-14.1,2-14.1-4.6c0-6,6.1-6.7,16.8-9.9c-0.2-6.6-2.4-7.4-5.2-7.4
			c-2.9,0-4.7,1.5-4.7,3.8c0,1.7-0.8,2.8-2.6,2.8c-1.9,0-2.8-1.2-2.7-2.8c0-1.7,2.2-5.1,10-5.1c7.5,0,10.4,2.8,10.4,8.5v12.2
			c0,3.7,2.7,3.8,2.7,3.8H59.5z M57.5,142.8l0.9-0.4v-10.5l-0.6,0.2c-8.1,2.3-11.1,3.5-11.1,7.5C46.7,144.2,51.6,145.2,57.5,142.8z"
			/>
		<path class="st6" d="M76.7,142.4c0,3.7,2.7,3.8,2.7,3.8H68.8c0,0,2.7-0.1,2.7-3.8v-29.8c0-3.3-2.7-3.1-2.7-3.1l7.8-0.7V142.4z"/>
		<path class="st6" d="M85.9,144.7c-1.4,0.8-2.2,2-2.2,2v-13.2c1.3,8.3,6,11.7,11.3,11.7c3.6,0,6-1.6,6-4c0-2.5-1.8-3.9-8-5.7
			c-6.6-1.9-9.4-3.8-9.4-7.4c0-3.5,2.5-6.3,10.6-6.3c3.2,0,5.9,0.6,8.1,1.9c1.6-0.1,2.1-2,2.1-2v11.1c-0.4-6.1-4.2-9.6-10.2-9.6
			c-3.2,0-6.5,1-6.5,2.8c0,2.1,1.6,3.1,9.8,5.5c6.7,1.9,8.2,4.6,8.2,8.1c0,4.1-3.3,7.1-10.7,7.1C91.7,146.6,88.2,146,85.9,144.7z"/>
		<path class="st6" d="M128,146.2l-0.8-2.6l-3,1.3c-6.8,3-14.1,2-14.1-4.6c0-6,6.1-6.7,16.8-9.9c-0.2-6.6-2.4-7.4-5.2-7.4
			c-2.9,0-4.7,1.5-4.7,3.8c0,1.7-0.8,2.8-2.6,2.8c-1.9,0-2.8-1.2-2.7-2.8c0-1.7,2.2-5.1,10-5.1c7.5,0,10.4,2.8,10.4,8.5v12.2
			c0,3.7,2.7,3.8,2.7,3.8H128z M125.9,142.8l0.9-0.4v-10.5l-0.6,0.2c-8.1,2.3-11.1,3.5-11.1,7.5
			C115.1,144.2,120.1,145.2,125.9,142.8z"/>
		<path class="st6" d="M169.8,142.4v-12.2c0-6-2-7.8-7.7-5.8l-2.8,1c0.5,1.2,0.8,2.9,0.8,4.8v12.2c0,3.7,2.7,3.8,2.7,3.8h-10.6
			c0,0,2.7-0.1,2.7-3.8v-12.2c0-6-2-7.8-7.7-5.8l-2,0.7v17.3c0,3.7,2.7,3.8,2.7,3.8h-10.6c0,0,2.7-0.1,2.7-3.8V126
			c0-2.9-2.7-2.8-2.7-2.8l7.6-1l0.2,1.7l3.9-1.2c4.5-1.5,7.9-1,9.6,1.7l5.2-1.7c6.8-2.2,11-0.1,11,7.5v12.2c0,3.7,2.7,3.8,2.7,3.8
			H167C167,146.2,169.8,146.1,169.8,142.4z"/>
		<path class="st6" d="M231.3,139.7V116l-12.6,27.9l-14-28.5v24.3c0,6.4,4.2,6.5,4.2,6.5h-9.7c0,0,4.2-0.1,4.2-6.5v-20.5
			c0-6.4-4.2-6.5-4.2-6.5h10.1l11.5,23.4l10.5-23.4h7.8c0,0-2.7,0.1-2.7,3.8v23.3c0,6.4,4.2,6.5,4.2,6.5h-12.9
			C227.8,146.2,231.3,146.1,231.3,139.7z"/>
		<path class="st6" d="M262.2,146.2l-0.8-2.6l-3,1.3c-6.8,3-14.1,2-14.1-4.6c0-6,6.1-6.7,16.8-9.9c-0.2-6.6-2.4-7.4-5.2-7.4
			c-2.9,0-4.7,1.5-4.7,3.8c0,1.7-0.8,2.8-2.6,2.8c-1.9,0-2.8-1.2-2.7-2.8c0-1.7,2.2-5.1,10-5.1c7.5,0,10.4,2.8,10.4,8.5v12.2
			c0,3.7,2.7,3.8,2.7,3.8H262.2z M260.1,142.8l0.9-0.4v-10.5l-0.6,0.2c-8.1,2.3-11.1,3.5-11.1,7.5
			C249.3,144.2,254.3,145.2,260.1,142.8z"/>
		<path class="st6" d="M275.1,144.7c-1.4,0.8-2.2,2-2.2,2v-13.2c1.3,8.3,6,11.7,11.3,11.7c3.6,0,6-1.6,6-4c0-2.5-1.8-3.9-8-5.7
			c-6.6-1.9-9.4-3.8-9.4-7.4c0-3.5,2.5-6.3,10.6-6.3c3.2,0,5.9,0.6,8.1,1.9c1.6-0.1,2.1-2,2.1-2v11.1c-0.4-6.1-4.2-9.6-10.2-9.6
			c-3.2,0-6.5,1-6.5,2.8c0,2.1,1.6,3.1,9.8,5.5c6.7,1.9,8.2,4.6,8.2,8.1c0,4.1-3.3,7.1-10.7,7.1C280.9,146.6,277.4,146,275.1,144.7z
			"/>
		<path class="st6" d="M301.6,144.7c-1.4,0.8-2.2,2-2.2,2v-13.2c1.3,8.3,6,11.7,11.3,11.7c3.6,0,6-1.6,6-4c0-2.5-1.8-3.9-8-5.7
			c-6.6-1.9-9.4-3.8-9.4-7.4c0-3.5,2.5-6.3,10.6-6.3c3.2,0,5.9,0.6,8.1,1.9c1.6-0.1,2.1-2,2.1-2v11.1c-0.4-6.1-4.2-9.6-10.2-9.6
			c-3.2,0-6.5,1-6.5,2.8c0,2.1,1.6,3.1,9.8,5.5c6.7,1.9,8.2,4.6,8.2,8.1c0,4.1-3.3,7.1-10.7,7.1C307.4,146.6,304,146,301.6,144.7z"
			/>
		<path class="st6" d="M343.7,146.2l-0.8-2.6l-3,1.3c-6.8,3-14.1,2-14.1-4.6c0-6,6.1-6.7,16.8-9.9c-0.2-6.6-2.4-7.4-5.2-7.4
			c-2.9,0-4.7,1.5-4.7,3.8c0,1.7-0.8,2.8-2.6,2.8c-1.9,0-2.8-1.2-2.7-2.8c0-1.7,2.2-5.1,10-5.1c7.5,0,10.4,2.8,10.4,8.5v12.2
			c0,3.7,2.7,3.8,2.7,3.8H343.7z M341.7,142.8l0.9-0.4v-10.5l-0.6,0.2c-8.1,2.3-11.1,3.5-11.1,7.5
			C330.9,144.2,335.9,145.2,341.7,142.8z"/>
		<path class="st6" d="M353,134c0-7.3,5.5-12.2,13.1-12.2c2.8,0,5.4,1.1,7.6,2.3c0.8,0,1.7-0.8,2.2-2.1l-0.2,10.9
			c-0.6-5.2-3.8-9.8-9.9-9.7c-3.7,0-7.4,3.6-7.3,10.3c0,5.7,3.5,10.2,8.9,10.2c4.8,0,8.1-2.7,9.5-6.7c-0.8,5.6-5.3,9.6-10.9,9.6
			C358.3,146.6,353,141.5,353,134z"/>
		<path class="st6" d="M400.1,125.9c0,1.3-0.8,2.4-2.6,2.4c-1.9,0-2.8-1.2-2.7-2.4c-0.1-2.2-2.4-3.6-7.5-0.2v16.7
			c0,3.7,2.7,3.8,2.7,3.8h-10.6c0,0,2.7-0.1,2.7-3.8V126c0-2.9-2.7-2.8-2.7-2.8l7.6-1l0.2,1.8v0.4l1.7-1.1
			C393.9,120.3,400.1,121.8,400.1,125.9z"/>
		<path class="st6" d="M413.9,121.8c7.7,0,10.9,5.5,10.9,10.2h-18c0,7.3,3.3,11.6,8.8,11.6c4.8,0,8-2.6,9.4-6.6
			c-0.8,5.6-5.1,9.6-10.8,9.6c-7.6,0-12.7-5-12.7-12.6C401.6,126.7,406.3,121.8,413.9,121.8z M419.2,130.6c0-0.9,0-7.5-5.3-7.5
			c-6.2,0-7,6.6-7,7.5H419.2z"/>
		<path class="st6" d="M476,137.1l-0.5,9.1h-28.2c0,0,2.7-0.1,2.7-3.8v-26c0-3.7-2.7-3.8-2.7-3.8h27.6l0.8,7.2c0,0-2.3-5.9-6.5-5.9
			h-14.1v14.3h9.3c7.3,0,7.4-5.1,7.4-5.1v11.6c0,0-0.1-5.1-7.4-5.1h-9.3v15.3h13.5C474.5,143.9,476,137.1,476,137.1z"/>
		<path class="st6" d="M479.4,134c0-7.3,5.5-12.2,13.1-12.2c2.8,0,5.4,1.1,7.6,2.3c0.8,0,1.7-0.8,2.2-2.1l-0.2,10.9
			c-0.6-5.2-3.8-9.8-9.9-9.7c-3.7,0-7.4,3.6-7.3,10.3c0,5.7,3.5,10.2,8.9,10.2c4.8,0,8.1-2.7,9.5-6.7c-0.8,5.6-5.3,9.6-10.9,9.6
			C484.6,146.6,479.4,141.5,479.4,134z"/>
		<path class="st6" d="M505.8,134c0-7.3,5.5-12.2,13.1-12.2S532,126.7,532,134c0,7.5-5.5,12.6-13.1,12.6S505.8,141.5,505.8,134z
			 M526.3,134c0-4.2-1.2-10.8-7.4-10.8c-6.2,0-7.4,6.6-7.4,10.8c0,4.3,1.2,11.2,7.4,11.2C525.1,145.2,526.3,138.3,526.3,134z"/>
		<path class="st6" d="M580.7,124v11.6c0,0-0.1-5.1-7.4-5.1h-10v12c0,3.7,2.7,3.8,2.7,3.8h-10.6c0,0,2.7-0.1,2.7-3.8v-25.1
			c0,0,0-4.8-4-4.8h28.7l1.1,7.9c0,0-1.8-6.5-8.4-6.5h-12.1v15.1l10,0C580.6,129.2,580.7,124,580.7,124z"/>
		<path class="st6" d="M605.9,125.9c0,1.3-0.8,2.4-2.6,2.4c-1.9,0-2.8-1.2-2.7-2.4c-0.1-2.2-2.4-3.6-7.5-0.2v16.7
			c0,3.7,2.7,3.8,2.7,3.8h-10.6c0,0,2.7-0.1,2.7-3.8V126c0-2.9-2.7-2.8-2.7-2.8l7.6-1l0.2,1.8v0.4l1.7-1.1
			C599.7,120.3,605.9,121.8,605.9,125.9z"/>
		<path class="st6" d="M615.7,142.4c0,3.7,2.7,3.8,2.7,3.8h-10.6c0,0,2.7-0.1,2.7-3.8V126c0-2.9-2.7-2.8-2.7-2.8l7.8-1V142.4z
			 M609.8,115.6c0,1.8,1.2,3,3.1,3s3.3-1.2,3.3-3c0-1.8-1.4-3-3.3-3S609.8,113.8,609.8,115.6z"/>
		<path class="st6" d="M633.6,121.8c7.7,0,10.9,5.5,10.9,10.2h-18c0,7.3,3.3,11.6,8.8,11.6c4.8,0,8-2.6,9.4-6.6
			c-0.8,5.6-5.1,9.6-10.8,9.6c-7.6,0-12.7-5-12.7-12.6C621.3,126.7,626,121.8,633.6,121.8z M638.9,130.6c0-0.9,0-7.5-5.3-7.5
			c-6.2,0-7,6.6-7,7.5H638.9z"/>
		<path class="st6" d="M655.2,124l3.8-1.1c8.3-2.4,12.4-0.3,12.4,7.3v12.2c0,3.7,2.7,3.8,2.7,3.8h-10.6c0,0,2.7-0.1,2.7-3.8v-12.2
			c0-6-3-7.3-9.1-5.6l-2,0.6v17.2c0,3.7,2.7,3.8,2.7,3.8h-10.6c0,0,2.7-0.1,2.7-3.8V126c0-2.9-2.7-2.8-2.7-2.8l7.6-1L655.2,124z"/>
		<path class="st6" d="M703.5,146.2h-7.3l-0.5-1.8v-0.1c-1.9,1.4-4.3,2.3-7.1,2.3c-6.9,0-12-3.8-12-11.9c0-7.9,5.1-12.9,12-12.9
			c2.9,0,5.2,0.8,7.1,2v-11.2c0-3.3-2.7-3.1-2.7-3.1l7.8-0.7v33.6C700.8,146.1,703.5,146.2,703.5,146.2z M695.7,142.8v-17.2
			c-1.5-1.3-3.4-2.3-5.9-2.3c-4.1,0-7.6,4.2-7.6,10.9c0,6.8,2.9,10.6,7.6,10.6C692.3,144.9,694.2,144,695.7,142.8z"/>
		<path class="st6" d="M761.3,129.4c0,10.5-7.4,17.7-17.9,17.7c-10.4,0-17.9-7.2-17.9-17.7c0-10.6,7.4-17.4,17.9-17.4
			C753.9,112,761.3,118.8,761.3,129.4z M755.7,129.4c0-5.9-2.3-16-12.2-16c-9.9,0-12.2,10.1-12.2,16c0,5.9,2.3,16.3,12.2,16.3
			C753.4,145.7,755.7,135.3,755.7,129.4z"/>
		<path class="st6" d="M772.5,117.7v4.5h9.6v1.3h-9.6v18.9c0,3.7,2.7,3.8,2.7,3.8h-10.6c0,0,2.7-0.1,2.7-3.8v-18.9h-4.6v-1.3h4.6
			v-4.5c0-7.4,2.4-9.8,8.6-9.8c5.2,0,8.4,1.8,8.4,4.7c0.1,1.7-0.8,2.8-2.7,2.8c-1.8,0-2.6-1.2-2.6-2.8c0-2.3-1-3.4-3.1-3.4
			C773.5,109.3,772.5,110.2,772.5,117.7z"/>
		<path class="st6" d="M791.7,117.7v4.5h9.6v1.3h-9.6v18.9c0,3.7,2.7,3.8,2.7,3.8h-10.6c0,0,2.7-0.1,2.7-3.8v-18.9H782v-1.3h4.6
			v-4.5c0-7.4,2.4-9.8,8.6-9.8c5.2,0,8.4,1.8,8.4,4.7c0.1,1.7-0.8,2.8-2.7,2.8c-1.8,0-2.6-1.2-2.6-2.8c0-2.3-1-3.4-3.1-3.4
			C792.7,109.3,791.7,110.2,791.7,117.7z"/>
		<path class="st6" d="M36.6,176.6c0,7.8-8.3,10.7-14.9,10.7h-8.7v9.5c0,3.7,2.7,3.8,2.7,3.8H5.2c0,0,2.7-0.1,2.7-3.8v-25.1
			c0,0,0-4.8-4.1-4.8h17.3C28.6,167,36.6,168.6,36.6,176.6z M31.2,177.3c0-6-3.5-9-11.1-9h-7.1V186h8.4
			C27.8,186,31.2,182.2,31.2,177.3z"/>
		<path class="st6" d="M46.4,196.8c0,3.7,2.7,3.8,2.7,3.8H38.5c0,0,2.7-0.1,2.7-3.8v-16.4c0-2.9-2.7-2.8-2.7-2.8l7.8-1V196.8z
			 M40.5,170c0,1.8,1.2,3,3.1,3s3.3-1.2,3.3-3c0-1.8-1.4-3-3.3-3S40.5,168.2,40.5,170z"/>
		<path class="st6" d="M55.6,199.1c-1.4,0.8-2.2,2-2.2,2v-13.2c1.3,8.3,6,11.7,11.3,11.7c3.6,0,6-1.6,6-4c0-2.5-1.8-3.9-8-5.7
			c-6.6-1.9-9.4-3.8-9.4-7.4c0-3.5,2.5-6.3,10.6-6.3c3.2,0,5.9,0.6,8.1,1.9c1.6-0.1,2.1-2,2.1-2v11.1c-0.4-6.1-4.2-9.6-10.2-9.6
			c-3.2,0-6.5,1-6.5,2.8c0,2.1,1.6,3.1,9.8,5.5c6.7,1.9,8.2,4.6,8.2,8.1c0,4.1-3.3,7.1-10.7,7.1C61.4,201,57.9,200.4,55.6,199.1z"/>
		<path class="st6" d="M88.9,177.9v18.9c0,3.7,2.7,3.8,2.7,3.8H81.1c0,0,2.7-0.1,2.7-3.8v-18.9h-6.2v-1.3h6.2v-5.8
			c0-3.3-2.7-3.1-2.7-3.1l7.8-0.7v9.6h5.8v1.3H88.9z"/>
		<path class="st6" d="M108.4,176.2c7.7,0,10.9,5.5,10.9,10.2h-18c0,7.3,3.3,11.6,8.8,11.6c4.8,0,8-2.6,9.4-6.6
			c-0.8,5.6-5.1,9.6-10.8,9.6c-7.6,0-12.7-5-12.7-12.6C96.1,181.1,100.8,176.2,108.4,176.2z M113.8,185c0-0.9,0-7.5-5.3-7.5
			c-6.2,0-7,6.6-7,7.5H113.8z"/>
		<path class="st6" d="M176.3,200.6h-12.9c0,0,4.2,0,1.7-6.5l-2.4-6.3l-16.6,6.3c-2.3,6.5,4.3,6.5,4.4,6.5h-13.5c0,0,5.3,0,7.6-6.5
			l4.5-12.6c3.6-10.1,5.2-14.5-2.3-14.5h13.2l10.4,27.3C172.8,200.6,176.3,200.6,176.3,200.6z M162.3,186.5l-6.9-18.2l-8.6,24.1
			L162.3,186.5z"/>
		<path class="st6" d="M199.4,196.8c0,3.7,2.7,3.8,2.7,3.8h-7.6l-0.2-1.8l-3.8,1.1c-8.7,2.5-12.9,0.3-12.9-6v-13.5
			c0-2.9-2.7-2.8-2.7-2.8l7.8-1v17.3c0,4.7,3,6.2,9.6,4.3l2-0.6v-17.2c0-2.9-2.7-2.8-2.7-2.8l7.8-1V196.8z"/>
		<path class="st6" d="M225.6,180.3c0,1.3-0.8,2.4-2.6,2.4c-1.9,0-2.8-1.2-2.7-2.4c-0.1-2.2-2.4-3.6-7.5-0.2v16.7
			c0,3.7,2.7,3.8,2.7,3.8H205c0,0,2.7-0.1,2.7-3.8v-16.4c0-2.9-2.7-2.8-2.7-2.8l7.6-1l0.2,1.8v0.4l1.7-1.1
			C219.4,174.7,225.6,176.2,225.6,180.3z"/>
		<path class="st6" d="M246.2,200.6l-0.8-2.6l-3,1.3c-6.8,3-14.1,2-14.1-4.6c0-6,6.1-6.7,16.8-9.9c-0.2-6.6-2.4-7.4-5.2-7.4
			c-2.9,0-4.7,1.5-4.7,3.8c0,1.7-0.8,2.8-2.6,2.8c-1.9,0-2.8-1.2-2.7-2.8c0-1.7,2.2-5.1,10-5.1c7.5,0,10.4,2.8,10.4,8.5v12.2
			c0,3.7,2.7,3.8,2.7,3.8H246.2z M244.2,197.2l0.9-0.4v-10.5l-0.6,0.2c-8.1,2.3-11.1,3.5-11.1,7.5
			C233.4,198.6,238.4,199.6,244.2,197.2z"/>
		<path class="st6" d="M277.5,196.8v-26c0-3.7-2.7-3.8-2.7-3.8h16.7c7.8,0,14.1,0.1,14.1,6.3c0,5.1-3.9,6.5-8.4,7
			c5.9,0,10.8,1.2,10.8,9.4c0,9.5-6.5,10.9-15.4,10.9h-17.8C274.7,200.6,277.5,200.5,277.5,196.8z M291.4,179.7
			c6.3,0,8.9-1.8,8.9-6.1c0-4.1-2.4-5.2-10.8-5.2h-6.9v11.4H291.4z M292.3,199.3c6.3,0,10-2.4,10-9.2c0-6-1.9-8.9-10.3-8.9h-9.4
			v18.1H292.3z"/>
		<path class="st6" d="M311.3,188.4c0-7.3,5.5-12.2,13.1-12.2c7.6,0,13.1,4.9,13.1,12.2c0,7.5-5.5,12.6-13.1,12.6
			C316.7,201,311.3,195.9,311.3,188.4z M331.8,188.4c0-4.2-1.2-10.8-7.4-10.8c-6.2,0-7.4,6.6-7.4,10.8c0,4.3,1.2,11.2,7.4,11.2
			C330.6,199.6,331.8,192.7,331.8,188.4z"/>
		<path class="st6" d="M372.9,196.8v-12.2c0-6-2-7.8-7.7-5.8l-2.8,1c0.5,1.2,0.8,2.9,0.8,4.8v12.2c0,3.7,2.7,3.8,2.7,3.8h-10.6
			c0,0,2.7-0.1,2.7-3.8v-12.2c0-6-2-7.8-7.7-5.8l-2,0.7v17.3c0,3.7,2.7,3.8,2.7,3.8h-10.6c0,0,2.7-0.1,2.7-3.8v-16.4
			c0-2.9-2.7-2.8-2.7-2.8l7.6-1l0.2,1.7l3.9-1.2c4.5-1.5,7.9-1,9.6,1.7l5.2-1.7c6.8-2.2,11-0.1,11,7.5v12.2c0,3.7,2.7,3.8,2.7,3.8
			h-10.6C370.1,200.6,372.9,200.5,372.9,196.8z"/>
		<path class="st6" d="M410.3,188c0,9.2-5.2,13-12,13c-2.8,0-5.2-0.9-7.1-2.3v0.1l-0.5,1.8h-7.3c0,0,2.7-0.1,2.7-3.8V166
			c0-2.9-2.7-2.8-2.7-2.8l7.8-1v16c1.9-1.2,4.2-2,7.1-2C405.2,176.2,410.3,180.6,410.3,188z M404.6,188c0-6.7-3.5-10.3-7.6-10.3
			c-2.4,0-4.4,0.9-5.9,2.3v17.2c1.5,1.2,3.4,2.1,5.9,2.1C401.8,199.3,404.6,195.4,404.6,188z"/>
		<path class="st6" d="M412.9,188.4c0-7.3,5.5-12.2,13.1-12.2c7.6,0,13.1,4.9,13.1,12.2c0,7.5-5.5,12.6-13.1,12.6
			C418.4,201,412.9,195.9,412.9,188.4z M433.5,188.4c0-4.2-1.2-10.8-7.4-10.8c-6.2,0-7.4,6.6-7.4,10.8c0,4.3,1.2,11.2,7.4,11.2
			C432.3,199.6,433.5,192.7,433.5,188.4z"/>
		<path class="st6" d="M469,205.3c0,5.1-4,8.7-13.5,8.7c-10.5,0-13.9-3.6-13.9-8.1c0-3.9,3.5-5.8,5.5-5.8c-5.8-1-5.5-6.7-0.9-8
			c-2.2-1.5-3.2-3.8-3.2-6.9c0-5.9,4.8-9,11.5-9c2.9,0,5.4,0.6,7.3,1.7c2.5-4.4,5.2-4.7,6.2-4.1c1,0.5,1.5,1.4,0.9,2.5
			c-0.6,1.2-1.5,1.2-2.5,0.6c-1.3-0.7-2.5,0.1-3.4,1.6c1.9,1.5,3,3.7,3,6.6c0,5.7-4.2,8.8-11.5,8.8c-2.8,0-5.1-0.4-6.9-1.2
			c-0.7,0.2-1.1,0.6-1.1,1.3c0,1.2,2.3,2.5,9.6,2.5C465.4,196.7,469,200.3,469,205.3z M464.3,205.8c0-2.9-2.8-5.2-8.8-5.2
			c-2.8,0-4.9,0-6.8-0.2c-1.3,0.6-2.6,2.5-2.6,4.9c0,4.7,3.5,7.2,9.4,7.2C460.7,212.5,464.3,209.9,464.3,205.8z M447.9,185.2
			c0,5.1,2.2,7.5,6.5,7.5c4.2,0,6.5-2.4,6.5-7.5c0-5.3-2.2-7.6-6.5-7.6C450.2,177.6,447.9,179.9,447.9,185.2z"/>
		<path class="st6" d="M483.3,176.2c7.7,0,10.9,5.5,10.9,10.2h-18c0,7.3,3.3,11.6,8.8,11.6c4.8,0,8-2.6,9.4-6.6
			c-0.8,5.6-5.1,9.6-10.8,9.6c-7.6,0-12.7-5-12.7-12.6C471,181.1,475.7,176.2,483.3,176.2z M488.6,185c0-0.9,0-7.5-5.3-7.5
			c-6.2,0-7,6.6-7,7.5H488.6z"/>
		<path class="st6" d="M505,178.4l3.8-1.1c8.3-2.4,12.4-0.3,12.4,7.3v12.2c0,3.7,2.7,3.8,2.7,3.8h-10.6c0,0,2.7-0.1,2.7-3.8v-12.2
			c0-6-3-7.3-9.1-5.6l-2,0.6v17.2c0,3.7,2.7,3.8,2.7,3.8h-10.6c0,0,2.7-0.1,2.7-3.8v-16.4c0-2.9-2.7-2.8-2.7-2.8l7.6-1L505,178.4z"
			/>
		<path class="st6" d="M538.6,176.2c7.7,0,10.9,5.5,10.9,10.2h-18c0,7.3,3.3,11.6,8.8,11.6c4.8,0,8-2.6,9.4-6.6
			c-0.8,5.6-5.1,9.6-10.8,9.6c-7.6,0-12.7-5-12.7-12.6C526.3,181.1,531,176.2,538.6,176.2z M543.9,185c0-0.9,0-7.5-5.3-7.5
			c-6.2,0-7,6.6-7,7.5H543.9z"/>
		<path class="st6" d="M555.9,199.1c-1.4,0.8-2.2,2-2.2,2v-13.2c1.3,8.3,6,11.7,11.3,11.7c3.6,0,6-1.6,6-4c0-2.5-1.8-3.9-8-5.7
			c-6.6-1.9-9.4-3.8-9.4-7.4c0-3.5,2.5-6.3,10.6-6.3c3.2,0,5.9,0.6,8.1,1.9c1.6-0.1,2.1-2,2.1-2v11.1c-0.4-6.1-4.2-9.6-10.2-9.6
			c-3.2,0-6.5,1-6.5,2.8c0,2.1,1.6,3.1,9.8,5.5c6.7,1.9,8.2,4.6,8.2,8.1c0,4.1-3.3,7.1-10.7,7.1C561.7,201,558.3,200.4,555.9,199.1z
			"/>
		<path class="st6" d="M587.2,196.8c0,3.7,2.7,3.8,2.7,3.8h-10.6c0,0,2.7-0.1,2.7-3.8v-16.4c0-2.9-2.7-2.8-2.7-2.8l7.8-1V196.8z
			 M581.3,170c0,1.8,1.2,3,3.1,3s3.3-1.2,3.3-3c0-1.8-1.4-3-3.3-3S581.3,168.2,581.3,170z"/>
		<path class="st6" d="M596.4,199.1c-1.4,0.8-2.2,2-2.2,2v-13.2c1.3,8.3,6,11.7,11.3,11.7c3.6,0,6-1.6,6-4c0-2.5-1.8-3.9-8-5.7
			c-6.6-1.9-9.4-3.8-9.4-7.4c0-3.5,2.5-6.3,10.6-6.3c3.2,0,5.9,0.6,8.1,1.9c1.6-0.1,2.1-2,2.1-2v11.1c-0.4-6.1-4.2-9.6-10.2-9.6
			c-3.2,0-6.5,1-6.5,2.8c0,2.1,1.6,3.1,9.8,5.5c6.7,1.9,8.2,4.6,8.2,8.1c0,4.1-3.3,7.1-10.7,7.1C602.2,201,598.7,200.4,596.4,199.1z
			"/>
		<path class="st6" d="M641.8,196.8v-26c0-3.7-2.7-3.8-2.7-3.8h15.7c10.5,0,17.9,6.2,17.9,16.8c0,10.5-7.4,16.8-17.9,16.8H639
			C639,200.6,641.8,200.5,641.8,196.8z M654.7,199.3c9.9,0,12.2-9.6,12.2-15.5c0-5.9-2.3-15.5-12.2-15.5h-7.8v30.9H654.7z"/>
		<path class="st6" d="M687.7,176.2c7.7,0,10.9,5.5,10.9,10.2h-18c0,7.3,3.3,11.6,8.8,11.6c4.8,0,8-2.6,9.4-6.6
			c-0.8,5.6-5.1,9.6-10.8,9.6c-7.6,0-12.7-5-12.7-12.6C675.4,181.1,680.1,176.2,687.7,176.2z M693.1,185c0-0.9,0-7.5-5.3-7.5
			c-6.2,0-7,6.6-7,7.5H693.1z"/>
		<path class="st6" d="M711.4,177.9v18.9c0,3.7,2.7,3.8,2.7,3.8h-10.6c0,0,2.7-0.1,2.7-3.8v-18.9h-6.2v-1.3h6.2v-5.8
			c0-3.3-2.7-3.1-2.7-3.1l7.8-0.7v9.6h5.8v1.3H711.4z"/>
		<path class="st6" d="M718.6,188.4c0-7.3,5.5-12.2,13.1-12.2s13.1,4.9,13.1,12.2c0,7.5-5.5,12.6-13.1,12.6S718.6,195.9,718.6,188.4
			z M739.2,188.4c0-4.2-1.2-10.8-7.4-10.8c-6.2,0-7.4,6.6-7.4,10.8c0,4.3,1.2,11.2,7.4,11.2C738,199.6,739.2,192.7,739.2,188.4z"/>
		<path class="st6" d="M773.8,200.6h-13.3c2.1,0,3.6-0.7,1.1-4.5l-3.7-5.5l-2.3,3.4c-4,6-2.4,6.6,1.9,6.6h-13.1
			c3.6-0.1,5.9-1.3,9.8-7.1l2.8-4.1l-5.2-7.7c0,0,0,0,0,0l-0.1-0.2c-2.4-3.6-4.6-4.8-6.7-4.9h13.3c-2,0-3.6,0.7-1.2,4.2l3.8,5.7
			l2.3-3.3c4-6,2.4-6.6-1.9-6.6h13.1c-3.6,0.1-5.9,1.3-9.8,7.1l-2.8,4.1l6,8.9C769.9,199.4,771.8,200.5,773.8,200.6z"/>
		<path class="st6" d="M30.8,251.6c-0.5-1.8-1.2-4.1-2-7c-1.7-6.2-6.3-5.9-6.5-5.9l-9.7,0.9v11.6c0,3.7,2.7,3.8,2.7,3.8H4.8
			c0,0,2.7-0.1,2.7-3.8v-26c0-3.7-2.7-3.8-2.7-3.8h17.5c9,0,14.1,1.4,14.1,8.1s-5.2,8.3-11,8.9c7-0.7,8.1,2.8,8.6,4.8
			c1.1,4,2,11.8,6.1,11.8H29.1C29.1,255,31.6,255,30.8,251.6z M31,230.1c0-4.9-1.7-7.3-8.7-7.3h-9.7v15.6l9.7-0.9
			C27.5,236.9,31,234.6,31,230.1z"/>
		<path class="st6" d="M54,230.6c7.7,0,10.9,5.5,10.9,10.2h-18c0,7.3,3.3,11.6,8.8,11.6c4.8,0,8-2.6,9.4-6.6
			c-0.8,5.6-5.1,9.6-10.8,9.6c-7.6,0-12.7-5-12.7-12.6C41.7,235.5,46.4,230.6,54,230.6z M59.3,239.4c0-0.9,0-7.5-5.3-7.5
			c-6.2,0-7,6.6-7,7.5H59.3z"/>
		<path class="st6" d="M67.7,242.8c0-7.3,5.5-12.2,13.1-12.2c2.8,0,5.4,1.1,7.6,2.3c0.8,0,1.7-0.8,2.2-2.1l-0.2,10.9
			c-0.6-5.2-3.8-9.8-9.9-9.7c-3.7,0-7.4,3.6-7.3,10.3c0,5.7,3.5,10.2,8.9,10.2c4.8,0,8.1-2.7,9.5-6.7c-0.8,5.6-5.3,9.6-10.9,9.6
			C73,255.4,67.7,250.3,67.7,242.8z"/>
		<path class="st6" d="M94.1,242.8c0-7.3,5.5-12.2,13.1-12.2c7.6,0,13.1,4.9,13.1,12.2c0,7.5-5.5,12.6-13.1,12.6
			C99.6,255.4,94.1,250.3,94.1,242.8z M114.7,242.8c0-4.2-1.2-10.8-7.4-10.8c-6.2,0-7.4,6.6-7.4,10.8c0,4.3,1.2,11.2,7.4,11.2
			C113.5,254,114.7,247.1,114.7,242.8z"/>
		<path class="st6" d="M131.1,232.8l3.8-1.1c8.3-2.4,12.4-0.3,12.4,7.3v12.2c0,3.7,2.7,3.8,2.7,3.8h-10.6c0,0,2.7-0.1,2.7-3.8V239
			c0-6-3-7.3-9.1-5.6l-2,0.6v17.2c0,3.7,2.7,3.8,2.7,3.8h-10.6c0,0,2.7-0.1,2.7-3.8v-16.4c0-2.9-2.7-2.8-2.7-2.8l7.6-1L131.1,232.8z
			"/>
		<path class="st6" d="M156,253.5c-1.4,0.8-2.2,2-2.2,2v-13.2c1.3,8.3,6,11.7,11.3,11.7c3.6,0,6-1.6,6-4c0-2.5-1.8-3.9-8-5.7
			c-6.6-1.9-9.4-3.8-9.4-7.4c0-3.5,2.5-6.3,10.6-6.3c3.2,0,5.9,0.6,8.1,1.9c1.6-0.1,2.1-2,2.1-2v11.1c-0.4-6.1-4.2-9.6-10.2-9.6
			c-3.2,0-6.5,1-6.5,2.8c0,2.1,1.6,3.1,9.8,5.5c6.7,1.9,8.2,4.6,8.2,8.1c0,4.1-3.3,7.1-10.7,7.1C161.8,255.4,158.4,254.8,156,253.5z
			"/>
		<path class="st6" d="M189.3,232.3v18.9c0,3.7,2.7,3.8,2.7,3.8h-10.6c0,0,2.7-0.1,2.7-3.8v-18.9H178V231h6.2v-5.8
			c0-3.3-2.7-3.1-2.7-3.1l7.8-0.7v9.6h5.8v1.3H189.3z"/>
		<path class="st6" d="M217.2,234.7c0,1.3-0.8,2.4-2.6,2.4c-1.9,0-2.8-1.2-2.7-2.4c-0.1-2.2-2.4-3.6-7.5-0.2v16.7
			c0,3.7,2.7,3.8,2.7,3.8h-10.6c0,0,2.7-0.1,2.7-3.8v-16.4c0-2.9-2.7-2.8-2.7-2.8l7.6-1l0.2,1.8v0.4l1.7-1.1
			C211,229.1,217.2,230.6,217.2,234.7z"/>
		<path class="st6" d="M243.2,251.2c0,3.7,2.7,3.8,2.7,3.8h-7.6l-0.2-1.8l-3.8,1.1c-8.7,2.5-12.9,0.3-12.9-6v-13.5
			c0-2.9-2.7-2.8-2.7-2.8l7.8-1v17.3c0,4.7,3,6.2,9.6,4.3l2-0.6v-17.2c0-2.9-2.7-2.8-2.7-2.8l7.8-1V251.2z"/>
		<path class="st6" d="M248.8,242.8c0-7.3,5.5-12.2,13.1-12.2c2.8,0,5.4,1.1,7.6,2.3c0.8,0,1.7-0.8,2.2-2.1l-0.2,10.9
			c-0.6-5.2-3.8-9.8-9.9-9.7c-3.7,0-7.4,3.6-7.3,10.3c0,5.7,3.5,10.2,8.9,10.2c4.8,0,8.1-2.7,9.5-6.7c-0.8,5.6-5.3,9.6-10.9,9.6
			C254,255.4,248.8,250.3,248.8,242.8z"/>
		<path class="st6" d="M285.1,232.3v18.9c0,3.7,2.7,3.8,2.7,3.8h-10.6c0,0,2.7-0.1,2.7-3.8v-18.9h-6.2V231h6.2v-5.8
			c0-3.3-2.7-3.1-2.7-3.1l7.8-0.7v9.6h5.8v1.3H285.1z"/>
		<path class="st6" d="M315.5,221.4l25.1,26.1v-19.6c0-6.3-4.6-6.5-4.6-6.5h10.2c0,0-4.3,0.1-4.3,6.5v23.3c0,3.7,1.3,3.8,1.3,3.8
			h-2.7l-25.1-26.1v19.6c0,6.3,4.7,6.5,4.7,6.5h-10.1c0,0,4-0.2,4-6.5v-20.9c0,0,0-6.2-4.1-6.2H315.5z"/>
		<path class="st6" d="M347.8,242.8c0-7.3,5.5-12.2,13.1-12.2c7.6,0,13.1,4.9,13.1,12.2c0,7.5-5.5,12.6-13.1,12.6
			C353.2,255.4,347.8,250.3,347.8,242.8z M368.3,242.8c0-4.2-1.2-10.8-7.4-10.8c-6.2,0-7.4,6.6-7.4,10.8c0,4.3,1.2,11.2,7.4,11.2
			C367.1,254,368.3,247.1,368.3,242.8z"/>
		<path class="st6" d="M400.1,253.1c-1.9,1.1-2.8,2.7-2.8,2.7V238c0.2,6.7,4.3,16.4,14.2,16.4c5.6,0,8.3-2.1,8.3-6.5
			c0-3.7-3.3-6.5-10.1-8.5c-8.3-2.5-12.1-5.1-12.1-10.1c0-5.9,6.1-8.4,13.7-8.4c5.7,0,8.6,2.1,9.6,2.8c2,0.1,2.4-2.7,2.4-2.7v14.7
			c-0.2-8-4.9-13.5-12-13.5c-4.5,0-8.9,1.2-8.9,4.9c0,3.5,2,4.7,11.6,7.8c10.5,3.4,11,7.4,11,11.5c0,6.2-4.5,9.5-13.5,9.5
			C407.8,255.9,403.2,254.9,400.1,253.1z"/>
		<path class="st6" d="M447,255l-0.8-2.6l-3,1.3c-6.8,3-14.1,2-14.1-4.6c0-6,6.1-6.7,16.8-9.9c-0.2-6.6-2.4-7.4-5.2-7.4
			c-2.9,0-4.7,1.5-4.7,3.8c0,1.7-0.8,2.8-2.6,2.8c-1.9,0-2.8-1.2-2.7-2.8c0-1.7,2.2-5.1,10-5.1c7.5,0,10.4,2.8,10.4,8.5v12.2
			c0,3.7,2.7,3.8,2.7,3.8H447z M444.9,251.6l0.9-0.4v-10.5l-0.6,0.2c-8.1,2.3-11.1,3.5-11.1,7.5C434.1,253,439.1,254,444.9,251.6z"
			/>
		<path class="st6" d="M459.9,253.5c-1.4,0.8-2.2,2-2.2,2v-13.2c1.3,8.3,6,11.7,11.3,11.7c3.6,0,6-1.6,6-4c0-2.5-1.8-3.9-8-5.7
			c-6.6-1.9-9.4-3.8-9.4-7.4c0-3.5,2.5-6.3,10.6-6.3c3.2,0,5.9,0.6,8.1,1.9c1.6-0.1,2.1-2,2.1-2v11.1c-0.4-6.1-4.2-9.6-10.2-9.6
			c-3.2,0-6.5,1-6.5,2.8c0,2.1,1.6,3.1,9.8,5.5c6.7,1.9,8.2,4.6,8.2,8.1c0,4.1-3.3,7.1-10.7,7.1
			C465.7,255.4,462.2,254.8,459.9,253.5z"/>
		<path class="st6" d="M486.4,253.5c-1.4,0.8-2.2,2-2.2,2v-13.2c1.3,8.3,6,11.7,11.3,11.7c3.6,0,6-1.6,6-4c0-2.5-1.8-3.9-8-5.7
			c-6.6-1.9-9.4-3.8-9.4-7.4c0-3.5,2.5-6.3,10.6-6.3c3.2,0,5.9,0.6,8.1,1.9c1.6-0.1,2.1-2,2.1-2v11.1c-0.4-6.1-4.2-9.6-10.2-9.6
			c-3.2,0-6.5,1-6.5,2.8c0,2.1,1.6,3.1,9.8,5.5c6.7,1.9,8.2,4.6,8.2,8.1c0,4.1-3.3,7.1-10.7,7.1
			C492.2,255.4,488.8,254.8,486.4,253.5z"/>
		<path class="st6" d="M533.1,253.1c-1.9,1.1-2.8,2.7-2.8,2.7V238c0.2,6.7,4.3,16.4,14.2,16.4c5.6,0,8.3-2.1,8.3-6.5
			c0-3.7-3.3-6.5-10.1-8.5c-8.3-2.5-12.1-5.1-12.1-10.1c0-5.9,6.1-8.4,13.7-8.4c5.7,0,8.6,2.1,9.6,2.8c2,0.1,2.4-2.7,2.4-2.7v14.7
			c-0.2-8-4.9-13.5-12-13.5c-4.5,0-8.9,1.2-8.9,4.9c0,3.5,2,4.7,11.6,7.8c10.5,3.4,11,7.4,11,11.5c0,6.2-4.5,9.5-13.5,9.5
			C540.8,255.9,536.2,254.9,533.1,253.1z"/>
		<path class="st6" d="M571.2,232.3v18.9c0,3.7,2.7,3.8,2.7,3.8h-10.6c0,0,2.7-0.1,2.7-3.8v-18.9h-6.2V231h6.2v-5.8
			c0-3.3-2.7-3.1-2.7-3.1l7.8-0.7v9.6h5.8v1.3H571.2z"/>
		<path class="st6" d="M597.1,255l-0.8-2.6l-3,1.3c-6.8,3-14.1,2-14.1-4.6c0-6,6.1-6.7,16.8-9.9c-0.2-6.6-2.4-7.4-5.2-7.4
			c-2.9,0-4.7,1.5-4.7,3.8c0,1.7-0.8,2.8-2.6,2.8c-1.9,0-2.8-1.2-2.7-2.8c0-1.7,2.2-5.1,10-5.1c7.5,0,10.4,2.8,10.4,8.5v12.2
			c0,3.7,2.7,3.8,2.7,3.8H597.1z M595,251.6l0.9-0.4v-10.5l-0.6,0.2c-8.1,2.3-11.1,3.5-11.1,7.5C584.2,253,589.2,254,595,251.6z"/>
		<path class="st6" d="M615.8,232.3v18.9c0,3.7,2.7,3.8,2.7,3.8H608c0,0,2.7-0.1,2.7-3.8v-18.9h-6.2V231h6.2v-5.8
			c0-3.3-2.7-3.1-2.7-3.1l7.8-0.7v9.6h5.8v1.3H615.8z"/>
		<path class="st6" d="M630.9,251.2c0,3.7,2.7,3.8,2.7,3.8h-10.6c0,0,2.7-0.1,2.7-3.8v-16.4c0-2.9-2.7-2.8-2.7-2.8l7.8-1V251.2z
			 M625,224.4c0,1.8,1.2,3,3.1,3s3.3-1.2,3.3-3c0-1.8-1.4-3-3.3-3S625,222.6,625,224.4z"/>
		<path class="st6" d="M636.5,242.8c0-7.3,5.5-12.2,13.1-12.2c2.8,0,5.4,1.1,7.6,2.3c0.8,0,1.7-0.8,2.2-2.1l-0.2,10.9
			c-0.6-5.2-3.8-9.8-9.9-9.7c-3.7,0-7.4,3.6-7.3,10.3c0,5.7,3.5,10.2,8.9,10.2c4.8,0,8.1-2.7,9.5-6.7c-0.8,5.6-5.3,9.6-10.9,9.6
			C641.8,255.4,636.5,250.3,636.5,242.8z"/>
		<path class="st6" d="M717,255h-12.9c0,0,4.2,0,1.7-6.5l-2.4-6.3l-16.6,6.3c-2.3,6.5,4.3,6.5,4.4,6.5h-13.5c0,0,5.3,0,7.6-6.5
			l4.5-12.6c3.6-10.1,5.2-14.5-2.3-14.5h13.2l10.4,27.3C713.6,255,717,255,717,255z M703,240.9l-6.9-18.2l-8.6,24.1L703,240.9z"/>
		<path class="st6" d="M725.9,232.3v18.9c0,3.7,2.7,3.8,2.7,3.8h-10.6c0,0,2.7-0.1,2.7-3.8v-18.9h-6.2V231h6.2v-5.8
			c0-3.3-2.7-3.1-2.7-3.1l7.8-0.7v9.6h5.8v1.3H725.9z"/>
		<path class="st6" d="M762.3,232.3v18.9c0,3.7,2.7,3.8,2.7,3.8h-10.6c0,0,2.7-0.1,2.7-3.8v-18.9H751V231h6.2v-5.8
			c0-3.3-2.7-3.1-2.7-3.1l7.8-0.7v9.6h5.8v1.3H762.3z"/>
		<path class="st6" d="M777.4,232.8l3.8-1.1c8.3-2.4,12.4-0.3,12.4,7.3v12.2c0,3.7,2.7,3.8,2.7,3.8h-10.6c0,0,2.7-0.1,2.7-3.8V239
			c0-6-3-7.3-9.1-5.6l-2,0.6v17.2c0,3.7,2.7,3.8,2.7,3.8h-10.6c0,0,2.7-0.1,2.7-3.8v-29.8c0-3.3-2.7-3.1-2.7-3.1l7.8-0.7V232.8z"/>
		<path class="st6" d="M811,230.6c7.7,0,10.9,5.5,10.9,10.2h-18c0,7.3,3.3,11.6,8.8,11.6c4.8,0,8-2.6,9.4-6.6
			c-0.8,5.6-5.1,9.6-10.8,9.6c-7.6,0-12.7-5-12.7-12.6C798.7,235.5,803.4,230.6,811,230.6z M816.3,239.4c0-0.9,0-7.5-5.3-7.5
			c-6.2,0-7,6.6-7,7.5H816.3z"/>
		<path class="st6" d="M8.8,307.5C7,308.5,6,310.2,6,310.2v-17.8c0.2,6.7,4.3,16.4,14.2,16.4c5.6,0,8.3-2.1,8.3-6.5
			c0-3.7-3.3-6.5-10.1-8.5c-8.3-2.5-12.1-5.1-12.1-10.1c0-5.9,6.1-8.4,13.7-8.4c5.7,0,8.6,2.1,9.6,2.8c2,0.1,2.4-2.7,2.4-2.7v14.7
			c-0.2-8-4.9-13.5-12-13.5c-4.5,0-8.9,1.2-8.9,4.9c0,3.5,2,4.7,11.6,7.8c10.5,3.4,11,7.4,11,11.5c0,6.2-4.5,9.5-13.5,9.5
			C16.6,310.3,12,309.3,8.8,307.5z"/>
		<path class="st6" d="M61.1,305.6c0,3.7,2.7,3.8,2.7,3.8h-7.6l-0.2-1.8l-3.8,1.1c-8.7,2.5-12.9,0.3-12.9-6v-13.5
			c0-2.9-2.7-2.8-2.7-2.8l7.8-1v17.3c0,4.7,3,6.2,9.6,4.3l2-0.6v-17.2c0-2.9-2.7-2.8-2.7-2.8l7.8-1V305.6z"/>
		<path class="st6" d="M99.2,305.6v-12.2c0-6-2-7.8-7.7-5.8l-2.8,1c0.5,1.2,0.8,2.9,0.8,4.8v12.2c0,3.7,2.7,3.8,2.7,3.8H81.6
			c0,0,2.7-0.1,2.7-3.8v-12.2c0-6-2-7.8-7.7-5.8l-2,0.7v17.3c0,3.7,2.7,3.8,2.7,3.8H66.7c0,0,2.7-0.1,2.7-3.8v-16.4
			c0-2.9-2.7-2.8-2.7-2.8l7.6-1l0.2,1.7l3.9-1.2c4.5-1.5,7.9-1,9.6,1.7l5.2-1.7c6.8-2.2,11-0.1,11,7.5v12.2c0,3.7,2.7,3.8,2.7,3.8
			H96.4C96.4,309.4,99.2,309.3,99.2,305.6z"/>
		<path class="st6" d="M142.1,305.6v-12.2c0-6-2-7.8-7.7-5.8l-2.8,1c0.5,1.2,0.8,2.9,0.8,4.8v12.2c0,3.7,2.7,3.8,2.7,3.8h-10.6
			c0,0,2.7-0.1,2.7-3.8v-12.2c0-6-2-7.8-7.7-5.8l-2,0.7v17.3c0,3.7,2.7,3.8,2.7,3.8h-10.6c0,0,2.7-0.1,2.7-3.8v-16.4
			c0-2.9-2.7-2.8-2.7-2.8l7.6-1l0.2,1.7l3.9-1.2c4.5-1.5,7.9-1,9.6,1.7l5.2-1.7c6.8-2.2,11-0.1,11,7.5v12.2c0,3.7,2.7,3.8,2.7,3.8
			h-10.6C139.4,309.4,142.1,309.3,142.1,305.6z"/>
		<path class="st6" d="M160.4,305.6c0,3.7,2.7,3.8,2.7,3.8h-10.6c0,0,2.7-0.1,2.7-3.8v-16.4c0-2.9-2.7-2.8-2.7-2.8l7.8-1V305.6z
			 M154.5,278.8c0,1.8,1.2,3,3.1,3s3.3-1.2,3.3-3c0-1.8-1.4-3-3.3-3S154.5,277,154.5,278.8z"/>
		<path class="st6" d="M175.9,286.7v18.9c0,3.7,2.7,3.8,2.7,3.8h-10.6c0,0,2.7-0.1,2.7-3.8v-18.9h-6.2v-1.3h6.2v-5.8
			c0-3.3-2.7-3.1-2.7-3.1l7.8-0.7v9.6h5.8v1.3H175.9z"/>
		<path class="st6" d="M233.8,285.4c0,0-1.4-8.3-7.3-8.3h-6v28.5c0,3.7,2.7,3.8,2.7,3.8h-10.6c0,0,2.7-0.1,2.7-3.8v-28.5h-5.7
			c-5.9,0-7.3,8.3-7.3,8.3l0.5-9.6h30.3L233.8,285.4z"/>
		<path class="st6" d="M243.6,287.2l3.8-1.1c8.3-2.4,12.4-0.3,12.4,7.3v12.2c0,3.7,2.7,3.8,2.7,3.8h-10.6c0,0,2.7-0.1,2.7-3.8v-12.2
			c0-6-3-7.3-9.1-5.6l-2,0.6v17.2c0,3.7,2.7,3.8,2.7,3.8h-10.6c0,0,2.7-0.1,2.7-3.8v-29.8c0-3.3-2.7-3.1-2.7-3.1l7.8-0.7V287.2z"/>
		<path class="st6" d="M277.2,285c7.7,0,10.9,5.5,10.9,10.2h-18c0,7.3,3.3,11.6,8.8,11.6c4.8,0,8-2.6,9.4-6.6
			c-0.8,5.6-5.1,9.6-10.8,9.6c-7.6,0-12.7-5-12.7-12.6C264.9,289.9,269.6,285,277.2,285z M282.5,293.8c0-0.9,0-7.5-5.3-7.5
			c-6.2,0-7,6.6-7,7.5H282.5z"/>
		<path class="st6" d="M294.5,307.9c-1.4,0.8-2.2,2-2.2,2v-13.2c1.3,8.3,6,11.7,11.3,11.7c3.6,0,6-1.6,6-4c0-2.5-1.8-3.9-8-5.7
			c-6.6-1.9-9.4-3.8-9.4-7.4c0-3.5,2.5-6.3,10.6-6.3c3.2,0,5.9,0.6,8.1,1.9c1.6-0.1,2.1-2,2.1-2V296c-0.4-6.1-4.2-9.6-10.2-9.6
			c-3.2,0-6.5,1-6.5,2.8c0,2.1,1.6,3.1,9.8,5.5c6.7,1.9,8.2,4.6,8.2,8.1c0,4.1-3.3,7.1-10.7,7.1
			C300.3,309.8,296.9,309.2,294.5,307.9z"/>
		<path class="st6" d="M330.2,285c7.7,0,10.9,5.5,10.9,10.2h-18c0,7.3,3.3,11.6,8.8,11.6c4.8,0,8-2.6,9.4-6.6
			c-0.8,5.6-5.1,9.6-10.8,9.6c-7.6,0-12.7-5-12.7-12.6C317.9,289.9,322.7,285,330.2,285z M335.6,293.8c0-0.9,0-7.5-5.3-7.5
			c-6.2,0-7,6.6-7,7.5H335.6z"/>
		<path class="st6" d="M389.9,287.2v11.6c0,0-0.1-5.1-7.4-5.1h-10v12c0,3.7,2.7,3.8,2.7,3.8h-10.6c0,0,2.7-0.1,2.7-3.8v-25.1
			c0,0,0-4.8-4-4.8h28.7l1.1,7.9c0,0-1.8-6.5-8.4-6.5h-12.1v15.1l10,0C389.8,292.4,389.9,287.2,389.9,287.2z"/>
		<path class="st6" d="M415.1,289.1c0,1.3-0.8,2.4-2.6,2.4c-1.9,0-2.8-1.2-2.7-2.4c-0.1-2.2-2.4-3.6-7.5-0.2v16.7
			c0,3.7,2.7,3.8,2.7,3.8h-10.6c0,0,2.7-0.1,2.7-3.8v-16.4c0-2.9-2.7-2.8-2.7-2.8l7.6-1l0.2,1.8v0.4l1.7-1.1
			C408.9,283.5,415.1,285,415.1,289.1z"/>
		<path class="st6" d="M441.1,305.6c0,3.7,2.7,3.8,2.7,3.8h-7.6l-0.2-1.8l-3.8,1.1c-8.7,2.5-12.9,0.3-12.9-6v-13.5
			c0-2.9-2.7-2.8-2.7-2.8l7.8-1v17.3c0,4.7,3,6.2,9.6,4.3l2-0.6v-17.2c0-2.9-2.7-2.8-2.7-2.8l7.8-1V305.6z"/>
		<path class="st6" d="M454.5,305.6c0,3.7,2.7,3.8,2.7,3.8h-10.6c0,0,2.7-0.1,2.7-3.8v-16.4c0-2.9-2.7-2.8-2.7-2.8l7.8-1V305.6z
			 M448.6,278.8c0,1.8,1.2,3,3.1,3s3.3-1.2,3.3-3c0-1.8-1.4-3-3.3-3S448.6,277,448.6,278.8z"/>
		<path class="st6" d="M470,286.7v18.9c0,3.7,2.7,3.8,2.7,3.8h-10.6c0,0,2.7-0.1,2.7-3.8v-18.9h-6.2v-1.3h6.2v-5.8
			c0-3.3-2.7-3.1-2.7-3.1l7.8-0.7v9.6h5.8v1.3H470z"/>
		<path class="st6" d="M480.8,307.9c-1.4,0.8-2.2,2-2.2,2v-13.2c1.3,8.3,6,11.7,11.3,11.7c3.6,0,6-1.6,6-4c0-2.5-1.8-3.9-8-5.7
			c-6.6-1.9-9.4-3.8-9.4-7.4c0-3.5,2.5-6.3,10.6-6.3c3.2,0,5.9,0.6,8.1,1.9c1.6-0.1,2.1-2,2.1-2V296c-0.4-6.1-4.2-9.6-10.2-9.6
			c-3.2,0-6.5,1-6.5,2.8c0,2.1,1.6,3.1,9.8,5.5c6.7,1.9,8.2,4.6,8.2,8.1c0,4.1-3.3,7.1-10.7,7.1
			C486.6,309.8,483.2,309.2,480.8,307.9z"/>
		<path class="st6" d="M554.8,285.4c0,0-1.4-8.3-7.3-8.3h-6v28.5c0,3.7,2.7,3.8,2.7,3.8h-10.6c0,0,2.7-0.1,2.7-3.8v-28.5h-5.7
			c-5.9,0-7.3,8.3-7.3,8.3l0.5-9.6h30.3L554.8,285.4z"/>
		<path class="st6" d="M564.6,287.2l3.8-1.1c8.3-2.4,12.4-0.3,12.4,7.3v12.2c0,3.7,2.7,3.8,2.7,3.8H573c0,0,2.7-0.1,2.7-3.8v-12.2
			c0-6-3-7.3-9.1-5.6l-2,0.6v17.2c0,3.7,2.7,3.8,2.7,3.8h-10.6c0,0,2.7-0.1,2.7-3.8v-29.8c0-3.3-2.7-3.1-2.7-3.1l7.8-0.7V287.2z"/>
		<path class="st6" d="M598.2,285c7.7,0,10.9,5.5,10.9,10.2h-18c0,7.3,3.3,11.6,8.8,11.6c4.8,0,8-2.6,9.4-6.6
			c-0.8,5.6-5.1,9.6-10.8,9.6c-7.6,0-12.7-5-12.7-12.6C585.9,289.9,590.6,285,598.2,285z M603.5,293.8c0-0.9,0-7.5-5.3-7.5
			c-6.2,0-7,6.6-7,7.5H603.5z"/>
		<path class="st6" d="M615.6,307.9c-1.4,0.8-2.2,2-2.2,2v-13.2c1.3,8.3,6,11.7,11.3,11.7c3.6,0,6-1.6,6-4c0-2.5-1.8-3.9-8-5.7
			c-6.6-1.9-9.4-3.8-9.4-7.4c0-3.5,2.5-6.3,10.6-6.3c3.2,0,5.9,0.6,8.1,1.9c1.6-0.1,2.1-2,2.1-2V296c-0.4-6.1-4.2-9.6-10.2-9.6
			c-3.2,0-6.5,1-6.5,2.8c0,2.1,1.6,3.1,9.8,5.5c6.7,1.9,8.2,4.6,8.2,8.1c0,4.1-3.3,7.1-10.7,7.1
			C621.4,309.8,617.9,309.2,615.6,307.9z"/>
		<path class="st6" d="M651.3,285c7.7,0,10.9,5.5,10.9,10.2h-18c0,7.3,3.3,11.6,8.8,11.6c4.8,0,8-2.6,9.4-6.6
			c-0.8,5.6-5.1,9.6-10.8,9.6c-7.6,0-12.7-5-12.7-12.6C639,289.9,643.7,285,651.3,285z M656.6,293.8c0-0.9,0-7.5-5.3-7.5
			c-6.2,0-7,6.6-7,7.5H656.6z"/>
		<path class="st6" d="M22.7,361.8l8.9-25.1c2.2-5.9-3.7-6.5-3.7-6.5h11.5c0,0-4.1,0.6-6.3,6.5l-9.6,27.1H18L8,337.4
			c-2.4-6.4-5.5-7.2-8-7.2h15.5c0,0-4.6,0.7-2.1,7.2L22.7,361.8z"/>
		<path class="st6" d="M47.8,339.4c7.7,0,10.9,5.5,10.9,10.2h-18c0,7.3,3.3,11.6,8.8,11.6c4.8,0,8-2.6,9.4-6.6
			c-0.8,5.6-5.1,9.6-10.8,9.6c-7.6,0-12.7-5-12.7-12.6C35.5,344.3,40.2,339.4,47.8,339.4z M53.1,348.2c0-0.9,0-7.5-5.3-7.5
			c-6.2,0-7,6.6-7,7.5H53.1z"/>
		<path class="st6" d="M88.5,368.5c0,5.1-4,8.7-13.5,8.7c-10.5,0-13.9-3.6-13.9-8.1c0-3.9,3.5-5.8,5.5-5.8c-5.8-1-5.5-6.7-0.9-8
			c-2.2-1.5-3.2-3.8-3.2-6.9c0-5.9,4.8-9,11.5-9c2.9,0,5.4,0.6,7.3,1.7c2.5-4.4,5.2-4.7,6.2-4.1c1,0.5,1.5,1.4,0.9,2.5
			s-1.5,1.2-2.5,0.6c-1.3-0.7-2.5,0.1-3.4,1.6c1.9,1.5,3,3.7,3,6.6c0,5.7-4.2,8.8-11.5,8.8c-2.8,0-5.1-0.4-6.9-1.2
			c-0.7,0.2-1.1,0.6-1.1,1.3c0,1.2,2.3,2.5,9.6,2.5C85,359.9,88.5,363.5,88.5,368.5z M83.8,369c0-2.9-2.8-5.2-8.8-5.2
			c-2.8,0-4.9,0-6.8-0.2c-1.3,0.6-2.6,2.5-2.6,4.9c0,4.7,3.5,7.2,9.4,7.2C80.3,375.7,83.8,373.1,83.8,369z M67.5,348.4
			c0,5.1,2.2,7.5,6.5,7.5c4.2,0,6.5-2.4,6.5-7.5c0-5.3-2.2-7.6-6.5-7.6C69.7,340.8,67.5,343.1,67.5,348.4z"/>
		<path class="st6" d="M102.9,339.4c7.7,0,10.9,5.5,10.9,10.2h-18c0,7.3,3.3,11.6,8.8,11.6c4.8,0,8-2.6,9.4-6.6
			c-0.8,5.6-5.1,9.6-10.8,9.6c-7.6,0-12.7-5-12.7-12.6C90.6,344.3,95.3,339.4,102.9,339.4z M108.2,348.2c0-0.9,0-7.5-5.3-7.5
			c-6.2,0-7,6.6-7,7.5H108.2z"/>
		<path class="st6" d="M126.5,341.1V360c0,3.7,2.7,3.8,2.7,3.8h-10.6c0,0,2.7-0.1,2.7-3.8v-18.9h-6.2v-1.3h6.2V334
			c0-3.3-2.7-3.1-2.7-3.1l7.8-0.7v9.6h5.8v1.3H126.5z"/>
		<path class="st6" d="M152.4,363.8l-0.8-2.6l-3,1.3c-6.8,3-14.1,2-14.1-4.6c0-6,6.1-6.7,16.8-9.9c-0.2-6.6-2.4-7.4-5.2-7.4
			c-2.9,0-4.7,1.5-4.7,3.8c0,1.7-0.8,2.8-2.6,2.8c-1.9,0-2.8-1.2-2.7-2.8c0-1.7,2.2-5.1,10-5.1c7.5,0,10.4,2.8,10.4,8.5V360
			c0,3.7,2.7,3.8,2.7,3.8H152.4z M150.4,360.4l0.9-0.4v-10.5l-0.6,0.2c-8.1,2.3-11.1,3.5-11.1,7.5
			C139.6,361.8,144.6,362.8,150.4,360.4z"/>
		<path class="st6" d="M188.7,351.2c0,9.2-5.2,13-12,13c-2.8,0-5.2-0.9-7.1-2.3v0.1l-0.5,1.8h-7.3c0,0,2.7-0.1,2.7-3.8v-30.8
			c0-2.9-2.7-2.8-2.7-2.8l7.8-1v16c1.9-1.2,4.2-2,7.1-2C183.6,339.4,188.7,343.8,188.7,351.2z M183.1,351.2c0-6.7-3.5-10.3-7.6-10.3
			c-2.4,0-4.4,0.9-5.9,2.3v17.2c1.5,1.2,3.4,2.1,5.9,2.1C180.2,362.5,183.1,358.6,183.1,351.2z"/>
		<path class="st6" d="M199.2,360c0,3.7,2.7,3.8,2.7,3.8h-10.6c0,0,2.7-0.1,2.7-3.8v-29.8c0-3.3-2.7-3.1-2.7-3.1l7.8-0.7V360z"/>
		<path class="st6" d="M217.1,339.4c7.7,0,10.9,5.5,10.9,10.2h-18c0,7.3,3.3,11.6,8.8,11.6c4.8,0,8-2.6,9.4-6.6
			c-0.8,5.6-5.1,9.6-10.8,9.6c-7.6,0-12.7-5-12.7-12.6C204.8,344.3,209.5,339.4,217.1,339.4z M222.4,348.2c0-0.9,0-7.5-5.3-7.5
			c-6.2,0-7,6.6-7,7.5H222.4z"/>
		<path class="st6" d="M234.5,362.3c-1.4,0.8-2.2,2-2.2,2v-13.2c1.3,8.3,6,11.7,11.3,11.7c3.6,0,6-1.6,6-4c0-2.5-1.8-3.9-8-5.7
			c-6.6-1.9-9.4-3.8-9.4-7.4c0-3.5,2.5-6.3,10.6-6.3c3.2,0,5.9,0.6,8.1,1.9c1.6-0.1,2.1-2,2.1-2v11.1c-0.4-6.1-4.2-9.6-10.2-9.6
			c-3.2,0-6.5,1-6.5,2.8c0,2.1,1.6,3.1,9.8,5.5c6.7,1.9,8.2,4.6,8.2,8.1c0,4.1-3.3,7.1-10.7,7.1
			C240.3,364.2,236.8,363.6,234.5,362.3z"/>
		<path class="st6" d="M284.9,334v26c0,3.7,2.7,3.8,2.7,3.8h-10.6c0,0,2.7-0.1,2.7-3.8v-26c0-3.7-2.7-3.8-2.7-3.8h10.6
			C287.7,330.2,284.9,330.3,284.9,334z"/>
		<path class="st6" d="M298.4,360c0,3.7,2.7,3.8,2.7,3.8h-10.6c0,0,2.7-0.1,2.7-3.8v-29.8c0-3.3-2.7-3.1-2.7-3.1l7.8-0.7V360z"/>
		<path class="st6" d="M311.8,360c0,3.7,2.7,3.8,2.7,3.8H304c0,0,2.7-0.1,2.7-3.8v-29.8c0-3.3-2.7-3.1-2.7-3.1l7.8-0.7V360z"/>
		<path class="st6" d="M341.5,360c0,3.7,2.7,3.8,2.7,3.8h-7.6l-0.2-1.8l-3.8,1.1c-8.7,2.5-12.9,0.3-12.9-6v-13.5
			c0-2.9-2.7-2.8-2.7-2.8l7.8-1v17.3c0,4.7,3,6.2,9.6,4.3l2-0.6v-17.2c0-2.9-2.7-2.8-2.7-2.8l7.8-1V360z"/>
		<path class="st6" d="M350.6,362.3c-1.4,0.8-2.2,2-2.2,2v-13.2c1.3,8.3,6,11.7,11.3,11.7c3.6,0,6-1.6,6-4c0-2.5-1.8-3.9-8-5.7
			c-6.6-1.9-9.4-3.8-9.4-7.4c0-3.5,2.5-6.3,10.6-6.3c3.2,0,5.9,0.6,8.1,1.9c1.6-0.1,2.1-2,2.1-2v11.1c-0.4-6.1-4.2-9.6-10.2-9.6
			c-3.2,0-6.5,1-6.5,2.8c0,2.1,1.6,3.1,9.8,5.5c6.7,1.9,8.2,4.6,8.2,8.1c0,4.1-3.3,7.1-10.7,7.1C356.4,364.2,353,363.6,350.6,362.3z
			"/>
		<path class="st6" d="M381.9,360c0,3.7,2.7,3.8,2.7,3.8h-10.6c0,0,2.7-0.1,2.7-3.8v-16.4c0-2.9-2.7-2.8-2.7-2.8l7.8-1V360z
			 M376,333.2c0,1.8,1.2,3,3.1,3s3.3-1.2,3.3-3c0-1.8-1.4-3-3.3-3S376,331.4,376,333.2z"/>
		<path class="st6" d="M387.5,351.6c0-7.3,5.5-12.2,13.1-12.2c7.6,0,13.1,4.9,13.1,12.2c0,7.5-5.5,12.6-13.1,12.6
			C393,364.2,387.5,359.1,387.5,351.6z M408,351.6c0-4.2-1.2-10.8-7.4-10.8c-6.2,0-7.4,6.6-7.4,10.8c0,4.3,1.2,11.2,7.4,11.2
			C406.8,362.8,408,355.9,408,351.6z"/>
		<path class="st6" d="M424.5,341.6l3.8-1.1c8.3-2.4,12.4-0.3,12.4,7.3V360c0,3.7,2.7,3.8,2.7,3.8h-10.6c0,0,2.7-0.1,2.7-3.8v-12.2
			c0-6-3-7.3-9.1-5.6l-2,0.6V360c0,3.7,2.7,3.8,2.7,3.8h-10.6c0,0,2.7-0.1,2.7-3.8v-16.4c0-2.9-2.7-2.8-2.7-2.8l7.6-1L424.5,341.6z"
			/>
		<path class="st6" d="M465,351.6c0-7.3,5.5-12.2,13.1-12.2c7.6,0,13.1,4.9,13.1,12.2c0,7.5-5.5,12.6-13.1,12.6
			C470.4,364.2,465,359.1,465,351.6z M485.5,351.6c0-4.2-1.2-10.8-7.4-10.8c-6.2,0-7.4,6.6-7.4,10.8c0,4.3,1.2,11.2,7.4,11.2
			C484.3,362.8,485.5,355.9,485.5,351.6z"/>
		<path class="st6" d="M502.4,335.3v4.5h9.6v1.3h-9.6V360c0,3.7,2.7,3.8,2.7,3.8h-10.6c0,0,2.7-0.1,2.7-3.8v-18.9h-4.6v-1.3h4.6
			v-4.5c0-7.4,2.4-9.8,8.6-9.8c5.2,0,8.4,1.8,8.4,4.7c0.1,1.7-0.8,2.8-2.7,2.8c-1.8,0-2.6-1.2-2.6-2.8c0-2.3-1-3.4-3.1-3.4
			C503.3,326.9,502.4,327.8,502.4,335.3z"/>
		<path class="st6" d="M536.5,361.9c-1.9,1.1-2.8,2.7-2.8,2.7v-17.8c0.2,6.7,4.3,16.4,14.2,16.4c5.6,0,8.3-2.1,8.3-6.5
			c0-3.7-3.3-6.5-10.1-8.5c-8.3-2.5-12.1-5.1-12.1-10.1c0-5.9,6.1-8.4,13.7-8.4c5.7,0,8.6,2.1,9.6,2.8c2,0.1,2.4-2.7,2.4-2.7v14.7
			c-0.2-8-4.9-13.5-12-13.5c-4.5,0-8.9,1.2-8.9,4.9c0,3.5,2,4.7,11.6,7.8c10.5,3.4,11,7.4,11,11.5c0,6.2-4.5,9.5-13.5,9.5
			C544.2,364.7,539.7,363.7,536.5,361.9z"/>
		<path class="st6" d="M577,339.4c7.7,0,10.9,5.5,10.9,10.2h-18c0,7.3,3.3,11.6,8.8,11.6c4.8,0,8-2.6,9.4-6.6
			c-0.8,5.6-5.1,9.6-10.8,9.6c-7.6,0-12.7-5-12.7-12.6C564.7,344.3,569.4,339.4,577,339.4z M582.3,348.2c0-0.9,0-7.5-5.3-7.5
			c-6.2,0-7,6.6-7,7.5H582.3z"/>
		<path class="st6" d="M590.8,351.6c0-7.3,5.5-12.2,13.1-12.2c2.8,0,5.4,1.1,7.6,2.3c0.8,0,1.7-0.8,2.2-2.1l-0.2,10.9
			c-0.6-5.2-3.8-9.8-9.9-9.7c-3.7,0-7.4,3.6-7.3,10.3c0,5.7,3.5,10.2,8.9,10.2c4.8,0,8.1-2.7,9.5-6.7c-0.8,5.6-5.3,9.6-10.9,9.6
			C596,364.2,590.8,359.1,590.8,351.6z"/>
		<path class="st6" d="M625,360c0,3.7,2.7,3.8,2.7,3.8h-10.6c0,0,2.7-0.1,2.7-3.8v-29.8c0-3.3-2.7-3.1-2.7-3.1l7.8-0.7V360z"/>
		<path class="st6" d="M654.7,360c0,3.7,2.7,3.8,2.7,3.8h-7.6l-0.2-1.8l-3.8,1.1c-8.7,2.5-12.9,0.3-12.9-6v-13.5
			c0-2.9-2.7-2.8-2.7-2.8l7.8-1v17.3c0,4.7,3,6.2,9.6,4.3l2-0.6v-17.2c0-2.9-2.7-2.8-2.7-2.8l7.8-1V360z"/>
		<path class="st6" d="M663.8,362.3c-1.4,0.8-2.2,2-2.2,2v-13.2c1.3,8.3,6,11.7,11.3,11.7c3.6,0,6-1.6,6-4c0-2.5-1.8-3.9-8-5.7
			c-6.6-1.9-9.4-3.8-9.4-7.4c0-3.5,2.5-6.3,10.6-6.3c3.2,0,5.9,0.6,8.1,1.9c1.6-0.1,2.1-2,2.1-2v11.1c-0.4-6.1-4.2-9.6-10.2-9.6
			c-3.2,0-6.5,1-6.5,2.8c0,2.1,1.6,3.1,9.8,5.5c6.7,1.9,8.2,4.6,8.2,8.1c0,4.1-3.3,7.1-10.7,7.1
			C669.6,364.2,666.2,363.6,663.8,362.3z"/>
		<path class="st6" d="M695.1,360c0,3.7,2.7,3.8,2.7,3.8h-10.6c0,0,2.7-0.1,2.7-3.8v-16.4c0-2.9-2.7-2.8-2.7-2.8l7.8-1V360z
			 M689.2,333.2c0,1.8,1.2,3,3.1,3s3.3-1.2,3.3-3c0-1.8-1.4-3-3.3-3S689.2,331.4,689.2,333.2z"/>
		<path class="st6" d="M700.7,351.6c0-7.3,5.5-12.2,13.1-12.2c7.6,0,13.1,4.9,13.1,12.2c0,7.5-5.5,12.6-13.1,12.6
			C706.2,364.2,700.7,359.1,700.7,351.6z M721.2,351.6c0-4.2-1.2-10.8-7.4-10.8c-6.2,0-7.4,6.6-7.4,10.8c0,4.3,1.2,11.2,7.4,11.2
			C720,362.8,721.2,355.9,721.2,351.6z"/>
		<path class="st6" d="M737.7,341.6l3.8-1.1c8.3-2.4,12.4-0.3,12.4,7.3V360c0,3.7,2.7,3.8,2.7,3.8H746c0,0,2.7-0.1,2.7-3.8v-12.2
			c0-6-3-7.3-9.1-5.6l-2,0.6V360c0,3.7,2.7,3.8,2.7,3.8h-10.6c0,0,2.7-0.1,2.7-3.8v-16.4c0-2.9-2.7-2.8-2.7-2.8l7.6-1L737.7,341.6z"
			/>
		<path class="st6" d="M7.5,414.4v-26c0-3.7-2.7-3.8-2.7-3.8h15.7c10.5,0,17.9,6.2,17.9,16.8c0,10.5-7.4,16.8-17.9,16.8H4.8
			C4.8,418.2,7.5,418.1,7.5,414.4z M20.5,416.9c9.9,0,12.2-9.6,12.2-15.5c0-5.9-2.3-15.5-12.2-15.5h-7.8v30.9H20.5z"/>
		<path class="st6" d="M65.3,414.4c0,3.7,2.7,3.8,2.7,3.8h-7.6l-0.2-1.8l-3.8,1.1c-8.7,2.5-12.9,0.3-12.9-6V398
			c0-2.9-2.7-2.8-2.7-2.8l7.8-1v17.3c0,4.7,3,6.2,9.6,4.3l2-0.6V398c0-2.9-2.7-2.8-2.7-2.8l7.8-1V414.4z"/>
		<path class="st6" d="M74.4,416.7c-1.4,0.8-2.2,2-2.2,2v-13.2c1.3,8.3,6,11.7,11.3,11.7c3.6,0,6-1.6,6-4c0-2.5-1.8-3.9-8-5.7
			c-6.6-1.9-9.4-3.8-9.4-7.4c0-3.5,2.5-6.3,10.6-6.3c3.2,0,5.9,0.6,8.1,1.9c1.6-0.1,2.1-2,2.1-2v11.1c-0.4-6.1-4.2-9.6-10.2-9.6
			c-3.2,0-6.5,1-6.5,2.8c0,2.1,1.6,3.1,9.8,5.5c6.7,1.9,8.2,4.6,8.2,8.1c0,4.1-3.3,7.1-10.7,7.1C80.3,418.6,76.8,418,74.4,416.7z"/>
		<path class="st6" d="M127.1,418.2h-12.7c0,0,3.8-0.2,2-3.6l-5.8-10.6l-4.9,3.9v6.5c0,3.7,2.7,3.8,2.7,3.8H97.9
			c0,0,2.7-0.1,2.7-3.8v-30.8c0-2.9-2.7-2.8-2.7-2.8l7.8-1v26.4l6.1-4.8h0c8.8-6.9,1.7-7.1,1.1-7.1h13.5c0,0-3.4,0.1-7.3,3l-4.6,3.6
			l7.9,13.8C124.4,418.1,127.1,418.2,127.1,418.2z M112.9,394.2L112.9,394.2L112.9,394.2z"/>
		<path class="st6" d="M146.8,401.2c0-10.6,7.9-17.2,18.3-17.2c4.1,0,7.9,1.2,11,2.9c1.6-0.5,1.9-3.1,1.9-3.1l1.2,14.6
			c-1.3-6.2-5.9-13.1-14.2-13.1c-9.3,0-12.7,7.8-12.7,15.4c0,9.2,6.1,15.5,14.5,15.5c5.2,0,10.4-1.8,12.8-7
			c-1.7,6.3-7.3,10.1-14.6,10.1C153.1,419.4,146.7,410.8,146.8,401.2z"/>
		<path class="st6" d="M190.5,396l3.8-1.1c8.3-2.4,12.4-0.3,12.4,7.3v12.2c0,3.7,2.7,3.8,2.7,3.8h-10.6c0,0,2.7-0.1,2.7-3.8v-12.2
			c0-6-3-7.3-9.1-5.6l-2,0.6v17.2c0,3.7,2.7,3.8,2.7,3.8h-10.6c0,0,2.7-0.1,2.7-3.8v-29.8c0-3.3-2.7-3.1-2.7-3.1l7.8-0.7V396z"/>
		<path class="st6" d="M232.5,397.9c0,1.3-0.8,2.4-2.6,2.4c-1.9,0-2.8-1.2-2.7-2.4c-0.1-2.2-2.4-3.6-7.5-0.2v16.7
			c0,3.7,2.7,3.8,2.7,3.8h-10.6c0,0,2.7-0.1,2.7-3.8V398c0-2.9-2.7-2.8-2.7-2.8l7.6-1l0.2,1.8v0.4l1.7-1.1
			C226.3,392.3,232.5,393.8,232.5,397.9z"/>
		<path class="st6" d="M233.5,406c0-7.3,5.5-12.2,13.1-12.2c7.6,0,13.1,4.9,13.1,12.2c0,7.5-5.5,12.6-13.1,12.6
			C238.9,418.6,233.5,413.5,233.5,406z M254,406c0-4.2-1.2-10.8-7.4-10.8c-6.2,0-7.4,6.6-7.4,10.8c0,4.3,1.2,11.2,7.4,11.2
			C252.8,417.2,254,410.3,254,406z"/>
		<path class="st6" d="M295.1,414.4v-12.2c0-6-2-7.8-7.7-5.8l-2.8,1c0.5,1.2,0.8,2.9,0.8,4.8v12.2c0,3.7,2.7,3.8,2.7,3.8h-10.6
			c0,0,2.7-0.1,2.7-3.8v-12.2c0-6-2-7.8-7.7-5.8l-2,0.7v17.3c0,3.7,2.7,3.8,2.7,3.8h-10.6c0,0,2.7-0.1,2.7-3.8V398
			c0-2.9-2.7-2.8-2.7-2.8l7.6-1l0.2,1.7l3.9-1.2c4.5-1.5,7.9-1,9.6,1.7l5.2-1.7c6.8-2.2,11-0.1,11,7.5v12.2c0,3.7,2.7,3.8,2.7,3.8
			h-10.6C292.3,418.2,295.1,418.1,295.1,414.4z"/>
		<path class="st6" d="M317.3,393.8c7.7,0,10.9,5.5,10.9,10.2h-18c0,7.3,3.3,11.6,8.8,11.6c4.8,0,8-2.6,9.4-6.6
			c-0.8,5.6-5.1,9.6-10.8,9.6c-7.6,0-12.7-5-12.7-12.6C305,398.7,309.7,393.8,317.3,393.8z M322.7,402.6c0-0.9,0-7.5-5.3-7.5
			c-6.2,0-7,6.6-7,7.5H322.7z"/>
		<path class="st6" d="M385.2,418.2h-12.9c0,0,4.2,0,1.7-6.5l-2.4-6.3l-16.6,6.3c-2.3,6.5,4.3,6.5,4.4,6.5H346c0,0,5.3,0,7.6-6.5
			l4.5-12.6c3.6-10.1,5.2-14.5-2.3-14.5H369l10.4,27.3C381.7,418.2,385.2,418.2,385.2,418.2z M371.2,404.1l-6.9-18.2l-8.6,24.1
			L371.2,404.1z"/>
		<path class="st6" d="M387.8,416.7c-1.4,0.8-2.2,2-2.2,2v-13.2c1.3,8.3,6,11.7,11.3,11.7c3.6,0,6-1.6,6-4c0-2.5-1.8-3.9-8-5.7
			c-6.6-1.9-9.4-3.8-9.4-7.4c0-3.5,2.5-6.3,10.6-6.3c3.2,0,5.9,0.6,8.1,1.9c1.6-0.1,2.1-2,2.1-2v11.1c-0.4-6.1-4.2-9.6-10.2-9.6
			c-3.2,0-6.5,1-6.5,2.8c0,2.1,1.6,3.1,9.8,5.5c6.7,1.9,8.2,4.6,8.2,8.1c0,4.1-3.3,7.1-10.7,7.1C393.6,418.6,390.2,418,387.8,416.7z
			"/>
		<path class="st6" d="M421.1,395.5v18.9c0,3.7,2.7,3.8,2.7,3.8h-10.6c0,0,2.7-0.1,2.7-3.8v-18.9h-6.2v-1.3h6.2v-5.8
			c0-3.3-2.7-3.1-2.7-3.1l7.8-0.7v9.6h5.8v1.3H421.1z"/>
		<path class="st6" d="M449.1,397.9c0,1.3-0.8,2.4-2.6,2.4c-1.9,0-2.8-1.2-2.7-2.4c-0.1-2.2-2.4-3.6-7.5-0.2v16.7
			c0,3.7,2.7,3.8,2.7,3.8h-10.6c0,0,2.7-0.1,2.7-3.8V398c0-2.9-2.7-2.8-2.7-2.8l7.6-1l0.2,1.8v0.4l1.7-1.1
			C442.8,392.3,449.1,393.8,449.1,397.9z"/>
		<path class="st6" d="M469.7,418.2l-0.8-2.6l-3,1.3c-6.8,3-14.1,2-14.1-4.6c0-6,6.1-6.7,16.8-9.9c-0.2-6.6-2.4-7.4-5.2-7.4
			c-2.9,0-4.7,1.5-4.7,3.8c0,1.7-0.8,2.8-2.6,2.8c-1.9,0-2.8-1.2-2.7-2.8c0-1.7,2.2-5.1,10-5.1c7.5,0,10.4,2.8,10.4,8.5v12.2
			c0,3.7,2.7,3.8,2.7,3.8H469.7z M467.6,414.8l0.9-0.4v-10.5l-0.6,0.2c-8.1,2.3-11.1,3.5-11.1,7.5
			C456.8,416.2,461.8,417.2,467.6,414.8z"/>
		<path class="st6" d="M486.8,414.4c0,3.7,2.7,3.8,2.7,3.8H479c0,0,2.7-0.1,2.7-3.8v-29.8c0-3.3-2.7-3.1-2.7-3.1l7.8-0.7V414.4z"/>
		<path class="st6" d="M543.5,394.2c0,7.8-8.3,10.7-14.9,10.7h-8.7v9.5c0,3.7,2.7,3.8,2.7,3.8H512c0,0,2.7-0.1,2.7-3.8v-25.1
			c0,0,0-4.8-4.1-4.8H528C535.4,384.6,543.5,386.2,543.5,394.2z M538,394.9c0-6-3.5-9-11.1-9h-7.1v17.6h8.4
			C534.6,403.6,538,399.8,538,394.9z"/>
		<path class="st6" d="M566.1,397.9c0,1.3-0.8,2.4-2.6,2.4c-1.9,0-2.8-1.2-2.7-2.4c-0.1-2.2-2.4-3.6-7.5-0.2v16.7
			c0,3.7,2.7,3.8,2.7,3.8h-10.6c0,0,2.7-0.1,2.7-3.8V398c0-2.9-2.7-2.8-2.7-2.8l7.6-1l0.2,1.8v0.4l1.7-1.1
			C559.8,392.3,566.1,393.8,566.1,397.9z"/>
		<path class="st6" d="M567,406c0-7.3,5.5-12.2,13.1-12.2c7.6,0,13.1,4.9,13.1,12.2c0,7.5-5.5,12.6-13.1,12.6
			C572.5,418.6,567,413.5,567,406z M587.6,406c0-4.2-1.2-10.8-7.4-10.8c-6.2,0-7.4,6.6-7.4,10.8c0,4.3,1.2,11.2,7.4,11.2
			C586.4,417.2,587.6,410.3,587.6,406z"/>
		<path class="st6" d="M592.3,426.1c3.4,0,6.7-1.9,6.7-7.9V398c0-2.9-2.7-2.8-2.7-2.8l7.8-1v24C604.1,424.2,599.9,427.8,592.3,426.1
			z M601.1,384.6c1.9,0,3.3,1.2,3.3,3c0,1.8-1.4,3-3.3,3s-3.1-1.2-3.1-3C598,385.8,599.3,384.6,601.1,384.6z"/>
		<path class="st6" d="M621.5,393.8c7.7,0,10.9,5.5,10.9,10.2h-18c0,7.3,3.3,11.6,8.8,11.6c4.8,0,8-2.6,9.4-6.6
			c-0.8,5.6-5.1,9.6-10.8,9.6c-7.6,0-12.7-5-12.7-12.6C609.2,398.7,613.9,393.8,621.5,393.8z M626.8,402.6c0-0.9,0-7.5-5.3-7.5
			c-6.2,0-7,6.6-7,7.5H626.8z"/>
		<path class="st6" d="M635.3,406c0-7.3,5.5-12.2,13.1-12.2c2.8,0,5.4,1.1,7.6,2.3c0.8,0,1.7-0.8,2.2-2.1l-0.2,10.9
			c-0.6-5.2-3.8-9.8-9.9-9.7c-3.7,0-7.4,3.6-7.3,10.3c0,5.7,3.5,10.2,8.9,10.2c4.8,0,8.1-2.7,9.5-6.7c-0.8,5.6-5.3,9.6-10.9,9.6
			C640.5,418.6,635.3,413.5,635.3,406z"/>
		<path class="st6" d="M671.6,395.5v18.9c0,3.7,2.7,3.8,2.7,3.8h-10.6c0,0,2.7-0.1,2.7-3.8v-18.9h-6.2v-1.3h6.2v-5.8
			c0-3.3-2.7-3.1-2.7-3.1l7.8-0.7v9.6h5.8v1.3H671.6z"/>
		<path class="st6" d="M686.6,414.4c0,3.7,2.7,3.8,2.7,3.8h-10.6c0,0,2.7-0.1,2.7-3.8V398c0-2.9-2.7-2.8-2.7-2.8l7.8-1V414.4z
			 M680.7,387.6c0,1.8,1.2,3,3.1,3s3.3-1.2,3.3-3c0-1.8-1.4-3-3.3-3S680.7,385.8,680.7,387.6z"/>
		<path class="st6" d="M692.2,406c0-7.3,5.5-12.2,13.1-12.2s13.1,4.9,13.1,12.2c0,7.5-5.5,12.6-13.1,12.6S692.2,413.5,692.2,406z
			 M712.8,406c0-4.2-1.2-10.8-7.4-10.8c-6.2,0-7.4,6.6-7.4,10.8c0,4.3,1.2,11.2,7.4,11.2C711.6,417.2,712.8,410.3,712.8,406z"/>
		<path class="st6" d="M729.2,396l3.8-1.1c8.3-2.4,12.4-0.3,12.4,7.3v12.2c0,3.7,2.7,3.8,2.7,3.8h-10.6c0,0,2.7-0.1,2.7-3.8v-12.2
			c0-6-3-7.3-9.1-5.6l-2,0.6v17.2c0,3.7,2.7,3.8,2.7,3.8h-10.6c0,0,2.7-0.1,2.7-3.8V398c0-2.9-2.7-2.8-2.7-2.8l7.6-1L729.2,396z"/>
	</g>
</g>
<g id="Layer_1_copy" class="st0">
	<rect x="3.4" y="0" class="st1" width="542.1" height="603.4"/>
	<text transform="matrix(1 0 0 1 3.3605 56.0909)" class="st2"><tspan x="0" y="0" class="st3 st7">abcdefghjiklmn</tspan><tspan x="0" y="72.4" class="st3 st7">op</tspan><tspan x="88.5" y="72.4" class="st3 st7 st8">q</tspan><tspan x="134.6" y="72.4" class="st3 st7">rstuvw</tspan><tspan x="377.9" y="72.4" class="st3 st7 st9">x</tspan><tspan x="420" y="72.4" class="st3 st7">yz</tspan><tspan x="0" y="217.2" class="st3 st7">ABCDEFGH</tspan><tspan x="425" y="217.2" class="st3 st7 st8">I</tspan><tspan x="446.6" y="217.2" class="st3 st7">JK</tspan><tspan x="0" y="289.6" class="st3 st7">LMNOPQRSTU</tspan><tspan x="0" y="362" class="st3 st7">VWXYZ</tspan></text>
</g>
</svg>
