<?xml version="1.0" encoding="utf-8"?>
<!-- Generator: Adobe Illustrator 19.0.1, SVG Export Plug-In . SVG Version: 6.00 Build 0)  -->
<svg version="1.1" id="Layer_1" xmlns="http://www.w3.org/2000/svg" xmlns:xlink="http://www.w3.org/1999/xlink" x="0px" y="0px"
	 viewBox="0 0 850.3 437" style="enable-background:new 0 0 850.3 437;" xml:space="preserve">
<style type="text/css">
	.st0{fill:#FF64BD;}
</style>
<g>
	<path class="st0" d="M9.8,39.5c-1.9,1.1-2.8,2.7-2.8,2.7V24.4c0.2,6.7,4.1,16.5,14.1,16.5c6.6,0,9.2-2.2,9.2-6.5
		c0-3.7-3.9-6.1-10.8-8c-8.3-2.3-12.5-5.4-12.5-10.5c0-4.6,3.9-8.7,14.4-8.7c3.6,0,7.2,1,10,2.8c1.7-0.5,2.1-2.9,2.1-2.9v16.6
		C31.9,12.2,26.8,8.6,21.3,8.6c-5.5,0-9.8,1.7-9.8,5.5c0,3.4,2.6,4.4,14,8.1c7.2,2.3,9.6,6.8,9.6,10.7c0,6.4-5.1,9.5-14.1,9.5
		C17.1,42.3,12.9,41.3,9.8,39.5z"/>
	<path class="st0" d="M38.9,29.2C38.9,21.9,44.4,17,52,17c2.8,0,5.4,1.1,7.6,2.3c0.8,0,1.7-0.8,2.2-2.1L61.5,28
		c-0.6-5.2-3.8-9.8-9.9-9.7c-3.7,0-7.4,3.6-7.3,10.3c0,5.7,3.5,10.2,8.9,10.2c4.8,0,8.1-2.7,9.5-6.7c-0.8,5.6-5.3,9.6-10.9,9.6
		C44.2,41.8,38.9,36.7,38.9,29.2z"/>
	<path class="st0" d="M86.3,21.1c0,1.3-0.8,2.4-2.6,2.4c-1.9,0-2.8-1.2-2.7-2.4c-0.1-2.2-2.4-3.6-7.5-0.2v16.7
		c0,3.7,2.7,3.8,2.7,3.8H65.6c0,0,2.7-0.1,2.7-3.8V21.2c0-2.9-2.7-2.8-2.7-2.8l7.6-1l0.2,1.8v0.4l1.7-1.1C80,15.5,86.3,17,86.3,21.1
		z"/>
	<path class="st0" d="M99.8,17c7.7,0,10.9,5.5,10.9,10.2h-18c0,7.3,3.3,11.6,8.8,11.6c4.8,0,8-2.6,9.4-6.6
		c-0.8,5.6-5.1,9.6-10.8,9.6c-7.6,0-12.7-5-12.7-12.6C87.5,21.9,92.2,17,99.8,17z M105.1,25.8c0-0.9,0-7.5-5.3-7.5
		c-6.2,0-7,6.6-7,7.5H105.1z"/>
	<path class="st0" d="M126.1,17c7.7,0,10.9,5.5,10.9,10.2h-18c0,7.3,3.3,11.6,8.8,11.6c4.8,0,8-2.6,9.4-6.6
		c-0.8,5.6-5.1,9.6-10.8,9.6c-7.6,0-12.7-5-12.7-12.6C113.8,21.9,118.5,17,126.1,17z M131.4,25.8c0-0.9,0-7.5-5.3-7.5
		c-6.2,0-7,6.6-7,7.5H131.4z"/>
	<path class="st0" d="M148,19.2l3.8-1.1c8.3-2.4,12.4-0.3,12.4,7.3v12.2c0,3.7,2.7,3.8,2.7,3.8h-10.6c0,0,2.7-0.1,2.7-3.8V25.4
		c0-6-3-7.3-9.1-5.6l-2,0.6v17.2c0,3.7,2.7,3.8,2.7,3.8h-10.6c0,0,2.7-0.1,2.7-3.8V21.2c0-2.9-2.7-2.8-2.7-2.8l7.6-1L148,19.2z"/>
	<path class="st0" d="M172.9,39.9c-1.4,0.8-2.2,2-2.2,2V28.7c1.3,8.3,5.1,11.7,12,11.7c3,0,5.3-1.7,5.3-4.1c0-2.5-1.7-4.1-7.3-5.6
		c-7.2-1.7-10-3.6-10-7.3c0-3.5,2.5-6.5,11.1-6.5c5.3,0,8.1,2.3,8.1,2.3c1.1-0.8,1.5-2.4,1.5-2.4v11.8c0-6.8-4.2-10.4-10.2-10.4
		c-3.2,0-6.3,1.2-6.3,3.3c0,2.5,4,3.5,10.1,5.3c6.1,1.8,7.6,4.3,7.6,7.9c0,3.9-3.3,7-10.7,7C178.7,41.8,175.3,41.2,172.9,39.9z"/>
	<path class="st0" d="M233.2,11.6v26c0,3.7,2.7,3.8,2.7,3.8h-10.6c0,0,2.7-0.1,2.7-3.8v-26c0-3.7-2.7-3.8-2.7-3.8h10.6
		C235.9,7.8,233.2,7.9,233.2,11.6z"/>
	<path class="st0" d="M247.2,19.2l3.8-1.1c8.3-2.4,12.4-0.3,12.4,7.3v12.2c0,3.7,2.7,3.8,2.7,3.8h-10.6c0,0,2.7-0.1,2.7-3.8V25.4
		c0-6-3-7.3-9.1-5.6l-2,0.6v17.2c0,3.7,2.7,3.8,2.7,3.8h-10.6c0,0,2.7-0.1,2.7-3.8V21.2c0-2.9-2.7-2.8-2.7-2.8l7.6-1L247.2,19.2z"/>
	<path class="st0" d="M276.8,19.2l3.8-1.1c8.3-2.4,12.4-0.3,12.4,7.3v12.2c0,3.7,2.7,3.8,2.7,3.8h-10.6c0,0,2.7-0.1,2.7-3.8V25.4
		c0-6-3-7.3-9.1-5.6l-2,0.6v17.2c0,3.7,2.7,3.8,2.7,3.8H269c0,0,2.7-0.1,2.7-3.8V7.8c0-3.3-2.7-3.1-2.7-3.1l7.8-0.7V19.2z"/>
	<path class="st0" d="M316.3,41.4l-0.8-2.6l-3,1.3c-6.8,3-14.1,2-14.1-4.6c0-6,6.1-6.7,16.8-9.9c-0.2-6.6-2.4-7.4-5.2-7.4
		c-2.9,0-4.7,1.5-4.7,3.8c0,1.7-0.8,2.8-2.6,2.8c-1.9,0-2.8-1.2-2.7-2.8c0-1.7,2.2-5.1,10-5.1c7.5,0,10.4,2.8,10.4,8.5v12.2
		c0,3.7,2.7,3.8,2.7,3.8H316.3z M314.3,38l0.9-0.4V27.1l-0.6,0.2c-8.1,2.3-11.4,3.5-11.4,7.5C303.2,39.4,308.5,40.4,314.3,38z"/>
	<path class="st0" d="M346.6,21.1c0,1.3-0.8,2.4-2.6,2.4c-1.9,0-2.8-1.2-2.7-2.4c-0.1-2.2-2.4-3.6-7.5-0.2v16.7
		c0,3.7,2.7,3.8,2.7,3.8h-10.6c0,0,2.7-0.1,2.7-3.8V21.2c0-2.9-2.7-2.8-2.7-2.8l7.6-1l0.2,1.8v0.4l1.7-1.1
		C340.3,15.5,346.6,17,346.6,21.1z"/>
	<path class="st0" d="M380.3,37.6V25.4c0-6-2-7.8-7.7-5.8l-2.8,1c0.5,1.2,0.8,2.9,0.8,4.8v12.2c0,3.7,2.7,3.8,2.7,3.8h-10.6
		c0,0,2.7-0.1,2.7-3.8V25.4c0-6-2-7.8-7.7-5.8l-2,0.7v17.3c0,3.7,2.7,3.8,2.7,3.8h-10.6c0,0,2.7-0.1,2.7-3.8V21.2
		c0-2.9-2.7-2.8-2.7-2.8l7.6-1l0.2,1.7l3.9-1.2c4.5-1.5,7.9-1,9.6,1.7l5.2-1.7c6.8-2.2,11-0.1,11,7.5v12.2c0,3.7,2.7,3.8,2.7,3.8
		h-10.6C377.6,41.4,380.3,41.3,380.3,37.6z"/>
	<path class="st0" d="M391,29.2c0-7.3,5.5-12.2,13.1-12.2c7.6,0,13.1,4.9,13.1,12.2c0,7.5-5.5,12.6-13.1,12.6
		C396.5,41.8,391,36.7,391,29.2z M411.6,29.2c0-4.2-1.2-10.8-7.4-10.8c-6.2,0-7.4,6.6-7.4,10.8c0,4.3,1.2,11.2,7.4,11.2
		C410.4,40.4,411.6,33.5,411.6,29.2z"/>
	<path class="st0" d="M428,19.2l3.8-1.1c8.3-2.4,12.4-0.3,12.4,7.3v12.2c0,3.7,2.7,3.8,2.7,3.8h-10.6c0,0,2.7-0.1,2.7-3.8V25.4
		c0-6-3-7.3-9.1-5.6l-2,0.6v17.2c0,3.7,2.7,3.8,2.7,3.8h-10.6c0,0,2.7-0.1,2.7-3.8V21.2c0-2.9-2.7-2.8-2.7-2.8l7.6-1L428,19.2z"/>
	<path class="st0" d="M458.1,37.6c0,3.7,2.7,3.8,2.7,3.8h-10.6c0,0,2.7-0.1,2.7-3.8V21.2c0-2.9-2.7-2.8-2.7-2.8l7.8-1V37.6z
		 M452.2,10.8c0,1.8,1.2,3,3.1,3s3.3-1.2,3.3-3c0-1.8-1.4-3-3.3-3S452.2,9,452.2,10.8z"/>
	<path class="st0" d="M464.2,29.2c0-7.3,5.5-12.2,13.1-12.2c7.6,0,13.1,4.9,13.1,12.2c0,7.5-5.5,12.6-13.1,12.6
		C469.6,41.8,464.2,36.7,464.2,29.2z M484.7,29.2c0-4.2-1.2-10.8-7.4-10.8c-6.2,0-7.4,6.6-7.4,10.8c0,4.3,1.2,11.2,7.4,11.2
		C483.5,40.4,484.7,33.5,484.7,29.2z"/>
	<path class="st0" d="M517.8,37.6c0,3.7,2.7,3.8,2.7,3.8h-7.6l-0.2-1.8l-3.8,1.1c-8.7,2.5-12.9,0.3-12.9-6V21.2
		c0-2.9-2.7-2.8-2.7-2.8l7.8-1v17.3c0,4.7,3,6.2,9.6,4.3l2-0.6V21.2c0-2.9-2.7-2.8-2.7-2.8l7.8-1V37.6z"/>
	<path class="st0" d="M526.5,39.9c-1.4,0.8-2.2,2-2.2,2V28.7c1.3,8.3,5.1,11.7,12,11.7c3,0,5.3-1.7,5.3-4.1c0-2.5-1.7-4.1-7.3-5.6
		c-7.2-1.7-10-3.6-10-7.3c0-3.5,2.5-6.5,11.1-6.5c5.3,0,8.1,2.3,8.1,2.3c1.1-0.8,1.5-2.4,1.5-2.4v11.8c0-6.8-4.2-10.4-10.2-10.4
		c-3.2,0-6.3,1.2-6.3,3.3c0,2.5,4,3.5,10.1,5.3c6.1,1.8,7.6,4.3,7.6,7.9c0,3.9-3.3,7-10.7,7C532.3,41.8,528.8,41.2,526.5,39.9z"/>
	<path class="st0" d="M582.8,39.5c-1.9,1.1-2.8,2.7-2.8,2.7V24.4c0.2,6.7,4.1,16.5,14.1,16.5c6.6,0,9.2-2.2,9.2-6.5
		c0-3.7-3.9-6.1-10.8-8c-8.3-2.3-12.5-5.4-12.5-10.5c0-4.6,3.9-8.7,14.4-8.7c3.6,0,7.2,1,10,2.8c1.7-0.5,2.1-2.9,2.1-2.9v16.6
		c-1.5-11.6-6.6-15.2-12.1-15.2c-5.5,0-9.8,1.7-9.8,5.5c0,3.4,2.6,4.4,14,8.1c7.2,2.3,9.6,6.8,9.6,10.7c0,6.4-5.1,9.5-14.1,9.5
		C590.1,42.3,586,41.3,582.8,39.5z"/>
	<path class="st0" d="M620.3,37.6c0,3.7,2.7,3.8,2.7,3.8h-10.6c0,0,2.7-0.1,2.7-3.8V7.8c0-3.3-2.7-3.1-2.7-3.1l7.8-0.7V37.6z"/>
	<path class="st0" d="M626.4,29.2c0-7.3,5.5-12.2,13.1-12.2c7.6,0,13.1,4.9,13.1,12.2c0,7.5-5.5,12.6-13.1,12.6
		C631.8,41.8,626.4,36.7,626.4,29.2z M646.9,29.2c0-4.2-1.2-10.8-7.4-10.8c-6.2,0-7.4,6.6-7.4,10.8c0,4.3,1.2,11.2,7.4,11.2
		C645.7,40.4,646.9,33.5,646.9,29.2z"/>
	<path class="st0" d="M680.9,44.9c0,5.4-3.8,9.6-12.4,9.6c-8.7,0-13.1-3.4-13.1-7.9c0-3.9,3.5-5.8,4.7-6c-4.9-0.9-4.7-6.4-0.2-7.8
		c-2-1.5-3.1-3.8-3.1-6.9c0-5.9,4.7-9,10.4-9c2.7,0,5.1,0.6,6.9,1.9c2.4-3.8,4.8-3.9,5.8-3.4c1,0.5,1.5,1.4,0.9,2.5
		c-0.6,1.2-1.5,1.2-2.5,0.6c-1.2-0.6-2.2,0-3.1,1.1c1.6,1.5,2.5,3.6,2.5,6.2c0,5.7-4.1,8.8-10.4,8.8c-2.4,0-4.4-0.4-6-1.2
		c-0.6,0.2-0.9,0.6-0.9,1.3c0,1.2,2.4,2.2,10,2.2C677.4,37.2,680.9,41.1,680.9,44.9z M676.2,46.6c0-2.9-2.8-5.2-7.9-5.2
		c-1.8,0-4,0-5.8-0.2c-1.3,0.6-2.6,2.5-2.6,4.9c0,4.1,3.2,7.2,8.6,7.2C673.5,53.2,676.2,50.1,676.2,46.6z M661.8,26
		c0,5.1,2.1,7.5,5.4,7.5c3.3,0,5.4-2.4,5.4-7.5c0-5.3-2.1-7.6-5.4-7.6C664,18.4,661.8,20.7,661.8,26z"/>
	<path class="st0" d="M723.6,17.4c0,0-1.4-8.3-7.3-8.3h-6v28.5c0,3.7,2.7,3.8,2.7,3.8h-10.6c0,0,2.7-0.1,2.7-3.8V9.1h-5.7
		c-5.9,0-7.3,8.3-7.3,8.3l0.5-9.6h30.3L723.6,17.4z"/>
	<path class="st0" d="M733.4,19.2l3.8-1.1c8.3-2.4,12.4-0.3,12.4,7.3v12.2c0,3.7,2.7,3.8,2.7,3.8h-10.6c0,0,2.7-0.1,2.7-3.8V25.4
		c0-6-3-7.3-9.1-5.6l-2,0.6v17.2c0,3.7,2.7,3.8,2.7,3.8h-10.6c0,0,2.7-0.1,2.7-3.8V7.8c0-3.3-2.7-3.1-2.7-3.1l7.8-0.7V19.2z"/>
	<path class="st0" d="M767,17c7.7,0,10.9,5.5,10.9,10.2h-18c0,7.3,3.3,11.6,8.8,11.6c4.8,0,8-2.6,9.4-6.6c-0.8,5.6-5.1,9.6-10.8,9.6
		c-7.6,0-12.7-5-12.7-12.6C754.7,21.9,759.4,17,767,17z M772.3,25.8c0-0.9,0-7.5-5.3-7.5c-6.2,0-7,6.6-7,7.5H772.3z"/>
	<path class="st0" d="M34.6,86.7l-0.5,9.1H5.9c0,0,2.7-0.1,2.7-3.8V66c0-3.7-2.7-3.8-2.7-3.8h27.6l0.8,7.2c0,0-2.3-5.9-6.5-5.9H13.8
		v14.3h9.3c7.3,0,7.4-5.1,7.4-5.1v11.6c0,0-0.1-5.1-7.4-5.1h-9.3v15.3h13.5C33.1,93.5,34.6,86.7,34.6,86.7z"/>
	<path class="st0" d="M61.1,75.5l-9.5,20.3h-2.7l-9.3-20.1c-1.9-3.8-5.4-3.9-5.4-3.9h13.9c0,0-4.5,0.1-2.3,5.8l6.4,13.7l5.7-12.2
		l0,0c3.4-7.2-1.6-7.3-1.6-7.3h10.1C66.4,71.8,62.7,71.9,61.1,75.5z"/>
	<path class="st0" d="M76.7,71.4c7.7,0,10.9,5.5,10.9,10.2h-18c0,7.3,3.3,11.6,8.8,11.6c4.8,0,8-2.6,9.4-6.6
		c-0.8,5.6-5.1,9.6-10.8,9.6c-7.6,0-12.7-5-12.7-12.6C64.4,76.3,69.1,71.4,76.7,71.4z M82.1,80.2c0-0.9,0-7.5-5.3-7.5
		c-6.2,0-7,6.6-7,7.5H82.1z"/>
	<path class="st0" d="M111.4,75.5c0,1.3-0.8,2.4-2.6,2.4c-1.9,0-2.8-1.2-2.7-2.4c-0.1-2.2-2.4-3.6-7.5-0.2V92c0,3.7,2.7,3.8,2.7,3.8
		H90.7c0,0,2.7-0.1,2.7-3.8V75.6c0-2.9-2.7-2.8-2.7-2.8l7.6-1l0.2,1.8V74l1.7-1.1C105.2,69.9,111.4,71.4,111.4,75.5z"/>
	<path class="st0" d="M135.4,75.2l-11.7,25c-3.7,8-7.3,7.7-8.9,7c-1.5-0.6-2.2-1.9-1.4-3.6c0.8-1.6,2.1-1.9,3.6-1.2
		c2.1,1,4.1,0,5.4-2.7l1.2-2.6l-9.9-21.3c-1.8-3.9-5.5-4-5.5-4h13.9c0,0-4.7,0.1-2.2,6.1l6.2,13.4l5.8-12.3l0,0
		c3.4-7.2-1.6-7.3-1.6-7.3h10.1C140.6,71.8,137.1,71.9,135.4,75.2z"/>
	<path class="st0" d="M166.1,95.8h-7.3l-0.5-1.8v-0.1c-1.9,1.4-4.3,2.3-7.1,2.3c-6.9,0-12-3.8-12-11.9c0-7.9,5.1-12.9,12-12.9
		c2.9,0,5.2,0.8,7.1,2V62.2c0-3.3-2.7-3.1-2.7-3.1l7.8-0.7V92C163.4,95.7,166.1,95.8,166.1,95.8z M158.3,92.4V75.2
		c-1.5-1.3-3.4-2.3-5.9-2.3c-4.1,0-7.6,4.2-7.6,10.9c0,6.8,2.9,10.6,7.6,10.6C154.9,94.5,156.8,93.6,158.3,92.4z"/>
	<path class="st0" d="M187.6,95.8l-0.8-2.6l-3,1.3c-6.8,3-14.1,2-14.1-4.6c0-6,6.1-6.7,16.8-9.9c-0.2-6.6-2.4-7.4-5.2-7.4
		c-2.9,0-4.7,1.5-4.7,3.8c0,1.7-0.8,2.8-2.6,2.8c-1.9,0-2.8-1.2-2.7-2.8c0-1.7,2.2-5.1,10-5.1c7.5,0,10.4,2.8,10.4,8.5V92
		c0,3.7,2.7,3.8,2.7,3.8H187.6z M185.6,92.4l0.9-0.4V81.5l-0.6,0.2c-8.1,2.3-11.4,3.5-11.4,7.5C174.5,93.8,179.8,94.8,185.6,92.4z"
		/>
	<path class="st0" d="M219.9,75.2l-11.7,25c-3.7,8-7.3,7.7-8.9,7c-1.5-0.6-2.2-1.9-1.4-3.6c0.8-1.6,2.1-1.9,3.6-1.2
		c2.1,1,4.1,0,5.4-2.7l1.2-2.6l-9.9-21.3c-1.8-3.9-5.5-4-5.5-4h13.9c0,0-4.7,0.1-2.2,6.1l6.2,13.4l5.8-12.3l0,0
		c3.4-7.2-1.6-7.3-1.6-7.3h10.1C225.1,71.8,221.6,71.9,219.9,75.2z"/>
	<path class="st0" d="M284.8,72.2c0,7.5-8.3,10.3-14.9,10.3c-3.6,0-6.8-0.2-8.7-0.3V92c0,3.7,2.7,3.8,2.7,3.8h-10.6
		c0,0,2.7-0.1,2.7-3.8V66.9c0,0,0-4.8-4.1-4.8h17.3C276.7,62.2,284.8,64.5,284.8,72.2z M279.3,72.5c0-6-3.5-9-11.1-9h-7.1V81
		c1.8,0,4.8,0.1,8.4,0.1C275.9,81.2,279.3,77.4,279.3,72.5z"/>
	<path class="st0" d="M310.7,92c0,3.7,2.7,3.8,2.7,3.8h-7.6l-0.2-1.8l-3.8,1.1c-8.7,2.5-12.9,0.3-12.9-6V75.6c0-2.9-2.7-2.8-2.7-2.8
		l7.8-1v17.3c0,4.7,3,6.2,9.6,4.3l2-0.6V75.6c0-2.9-2.7-2.8-2.7-2.8l7.8-1V92z"/>
	<path class="st0" d="M319.4,94.3c-1.4,0.8-2.2,2-2.2,2V83.1c1.3,8.3,5.1,11.7,12,11.7c3,0,5.3-1.7,5.3-4.1c0-2.5-1.7-4.1-7.3-5.6
		c-7.2-1.7-10-3.6-10-7.3c0-3.5,2.5-6.5,11.1-6.5c5.3,0,8.1,2.3,8.1,2.3c1.1-0.8,1.5-2.4,1.5-2.4v11.8c0-6.8-4.2-10.4-10.2-10.4
		c-3.2,0-6.3,1.2-6.3,3.3c0,2.5,4,3.5,10.1,5.3c6.1,1.8,7.6,4.3,7.6,7.9c0,3.9-3.3,7-10.7,7C325.2,96.2,321.8,95.6,319.4,94.3z"/>
	<path class="st0" d="M350.5,73.6l3.8-1.1c8.3-2.4,12.4-0.3,12.4,7.3V92c0,3.7,2.7,3.8,2.7,3.8h-10.6c0,0,2.7-0.1,2.7-3.8V79.8
		c0-6-3-7.3-9.1-5.6l-2,0.6V92c0,3.7,2.7,3.8,2.7,3.8h-10.6c0,0,2.7-0.1,2.7-3.8V62.2c0-3.3-2.7-3.1-2.7-3.1l7.8-0.7V73.6z"/>
	<path class="st0" d="M404.9,93.9c-1.9,1.1-2.8,2.7-2.8,2.7V78.8c0.2,6.7,4.1,16.5,14.1,16.5c6.6,0,9.2-2.2,9.2-6.5
		c0-3.7-3.9-6.1-10.8-8c-8.3-2.3-12.5-5.4-12.5-10.5c0-4.6,3.9-8.7,14.4-8.7c3.6,0,7.2,1,10,2.8c1.7-0.5,2.1-2.9,2.1-2.9v16.6
		C427,66.6,421.9,63,416.4,63c-5.5,0-9.8,1.7-9.8,5.5c0,3.4,2.6,4.4,14,8.1c7.2,2.3,9.6,6.8,9.6,10.7c0,6.4-5.1,9.5-14.1,9.5
		C412.2,96.7,408.1,95.7,404.9,93.9z"/>
	<path class="st0" d="M443.5,73.1V92c0,3.7,2.7,3.8,2.7,3.8h-10.6c0,0,2.7-0.1,2.7-3.8V73.1h-5.7v-1.3h5.7V66c0-3.3-2.7-3.1-2.7-3.1
		l7.8-0.7v9.6h5.3v1.3H443.5z"/>
	<path class="st0" d="M450.3,83.6c0-7.3,5.5-12.2,13.1-12.2s13.1,4.9,13.1,12.2c0,7.5-5.5,12.6-13.1,12.6S450.3,91.1,450.3,83.6z
		 M470.8,83.6c0-4.2-1.2-10.8-7.4-10.8c-6.2,0-7.4,6.6-7.4,10.8c0,4.3,1.2,11.2,7.4,11.2C469.6,94.8,470.8,87.9,470.8,83.6z"/>
	<path class="st0" d="M500,75.5c0,1.3-0.8,2.4-2.6,2.4c-1.9,0-2.8-1.2-2.7-2.4c-0.1-2.2-2.4-3.6-7.5-0.2V92c0,3.7,2.7,3.8,2.7,3.8
		h-10.6c0,0,2.7-0.1,2.7-3.8V75.6c0-2.9-2.7-2.8-2.7-2.8l7.6-1l0.2,1.8V74l1.7-1.1C493.8,69.9,500,71.4,500,75.5z"/>
	<path class="st0" d="M533.8,92V79.8c0-6-2-7.8-7.7-5.8l-2.8,1c0.5,1.2,0.8,2.9,0.8,4.8V92c0,3.7,2.7,3.8,2.7,3.8h-10.6
		c0,0,2.7-0.1,2.7-3.8V79.8c0-6-2-7.8-7.7-5.8l-2,0.7V92c0,3.7,2.7,3.8,2.7,3.8h-10.6c0,0,2.7-0.1,2.7-3.8V75.6
		c0-2.9-2.7-2.8-2.7-2.8l7.6-1l0.2,1.7l3.9-1.2c4.5-1.5,7.9-1,9.6,1.7l5.2-1.7c6.8-2.2,11-0.1,11,7.5V92c0,3.7,2.7,3.8,2.7,3.8H531
		C531,95.8,533.8,95.7,533.8,92z"/>
	<path class="st0" d="M609,79c0,10.5-7.4,17.7-17.9,17.7c-10.4,0-17.9-7.2-17.9-17.7c0-10.6,7.4-17.4,17.9-17.4
		C601.6,61.6,609,68.4,609,79z M603.3,79c0-5.9-2.3-16-12.2-16c-9.9,0-12.2,10.1-12.2,16c0,5.9,2.3,16.3,12.2,16.3
		C601.1,95.3,603.3,84.9,603.3,79z"/>
	<path class="st0" d="M636.4,92c0,3.7,2.7,3.8,2.7,3.8h-7.6l-0.2-1.8l-3.8,1.1c-8.7,2.5-12.9,0.3-12.9-6V75.6c0-2.9-2.7-2.8-2.7-2.8
		l7.8-1v17.3c0,4.7,3,6.2,9.6,4.3l2-0.6V75.6c0-2.9-2.7-2.8-2.7-2.8l7.8-1V92z"/>
	<path class="st0" d="M651.4,73.1V92c0,3.7,2.7,3.8,2.7,3.8h-10.6c0,0,2.7-0.1,2.7-3.8V73.1h-5.7v-1.3h5.7V66c0-3.3-2.7-3.1-2.7-3.1
		l7.8-0.7v9.6h5.3v1.3H651.4z"/>
	<path class="st0" d="M678.8,75.5c0,1.3-0.8,2.4-2.6,2.4c-1.9,0-2.8-1.2-2.7-2.4c-0.1-2.2-2.4-3.6-7.5-0.2V92c0,3.7,2.7,3.8,2.7,3.8
		h-10.6c0,0,2.7-0.1,2.7-3.8V75.6c0-2.9-2.7-2.8-2.7-2.8l7.6-1l0.2,1.8V74l1.7-1.1C672.6,69.9,678.8,71.4,678.8,75.5z"/>
	<path class="st0" d="M692.4,71.4c7.7,0,10.9,5.5,10.9,10.2h-18c0,7.3,3.3,11.6,8.8,11.6c4.8,0,8-2.6,9.4-6.6
		c-0.8,5.6-5.1,9.6-10.8,9.6c-7.6,0-12.7-5-12.7-12.6C680.1,76.3,684.8,71.4,692.4,71.4z M697.7,80.2c0-0.9,0-7.5-5.3-7.5
		c-6.2,0-7,6.6-7,7.5H697.7z"/>
	<path class="st0" d="M763.9,83.3l-1.1,12.5h-26.3c0.2,0,2.7-0.1,2.7-3.8V66c0-3.7-2.7-3.8-2.7-3.8h10.6c0,0-2.7,0.1-2.7,3.8v28.5
		h9.3C762.9,94.5,763.9,83.3,763.9,83.3z"/>
	<path class="st0" d="M789.9,92c0,3.7,2.7,3.8,2.7,3.8H785l-0.2-1.8l-3.8,1.1c-8.7,2.5-12.9,0.3-12.9-6V75.6c0-2.9-2.7-2.8-2.7-2.8
		l7.8-1v17.3c0,4.7,3,6.2,9.6,4.3l2-0.6V75.6c0-2.9-2.7-2.8-2.7-2.8l7.8-1V92z"/>
	<path class="st0" d="M823.2,95.8h-14.1c2.1,0,3.6-0.7,1.1-4.5l-3.7-5.5l-2.3,3.4c-4,6-2.4,6.6,1.9,6.6h-13.5
		c4-0.1,6.4-1.3,10.3-7.1l2.8-4.1l-5.2-7.7l0,0l-0.1-0.1c-2.4-3.6-4.8-4.8-7.4-5H807c-2,0-3.6,0.7-1.2,4.2l3.8,5.7l2.3-3.3
		c4-6,2.4-6.6-1.9-6.6h13.5c-4,0.1-6.4,1.3-10.3,7.1l-2.8,4.1l6,8.8C818.6,94.6,820.8,95.7,823.2,95.8z"/>
	<path class="st0" d="M8.7,146.4v-26c0-3.7-2.7-3.8-2.7-3.8h16.7c7.8,0,13.8,0.1,13.8,6.3c0,4.5-3.6,6.5-8.1,7
		c5.9,0,10.8,2,10.8,9.4c0,9.5-6.5,10.9-15.4,10.9H5.9C5.9,150.2,8.7,150.1,8.7,146.4z M22.6,129.3c6.3,0,8.9-2,8.9-6
		c0-4.5-2.5-5.4-10.8-5.4h-6.9v11.4H22.6z M23.4,148.9c6.3,0,10-2.4,10-9.2c0-6-1.9-8.9-10.3-8.9h-9.4v18.1H23.4z"/>
	<path class="st0" d="M60.2,150.2l-0.8-2.6l-3,1.3c-6.8,3-14.1,2-14.1-4.6c0-6,6.1-6.7,16.8-9.9c-0.2-6.6-2.4-7.4-5.2-7.4
		c-2.9,0-4.7,1.5-4.7,3.8c0,1.7-0.8,2.8-2.6,2.8c-1.9,0-2.8-1.2-2.7-2.8c0-1.7,2.2-5.1,10-5.1c7.5,0,10.4,2.8,10.4,8.5v12.2
		c0,3.7,2.7,3.8,2.7,3.8H60.2z M58.1,146.8l0.9-0.4v-10.5l-0.6,0.2c-8.1,2.3-11.4,3.5-11.4,7.5C47,148.2,52.3,149.2,58.1,146.8z"/>
	<path class="st0" d="M78,146.4c0,3.7,2.7,3.8,2.7,3.8H70.2c0,0,2.7-0.1,2.7-3.8v-29.8c0-3.3-2.7-3.1-2.7-3.1l7.8-0.7V146.4z"/>
	<path class="st0" d="M87.2,148.7c-1.4,0.8-2.2,2-2.2,2v-13.2c1.3,8.3,5.1,11.7,12,11.7c3,0,5.3-1.7,5.3-4.1c0-2.5-1.7-4.1-7.3-5.6
		c-7.2-1.7-10-3.6-10-7.3c0-3.5,2.5-6.5,11.1-6.5c5.3,0,8.1,2.3,8.1,2.3c1.1-0.8,1.5-2.4,1.5-2.4v11.8c0-6.8-4.2-10.4-10.2-10.4
		c-3.2,0-6.3,1.2-6.3,3.3c0,2.5,4,3.5,10.1,5.3c6.1,1.8,7.6,4.3,7.6,7.9c0,3.9-3.3,7-10.7,7C93,150.6,89.6,150,87.2,148.7z"/>
	<path class="st0" d="M128.6,150.2l-0.8-2.6l-3,1.3c-6.8,3-14.1,2-14.1-4.6c0-6,6.1-6.7,16.8-9.9c-0.2-6.6-2.4-7.4-5.2-7.4
		c-2.9,0-4.7,1.5-4.7,3.8c0,1.7-0.8,2.8-2.6,2.8c-1.9,0-2.8-1.2-2.7-2.8c0-1.7,2.2-5.1,10-5.1c7.5,0,10.4,2.8,10.4,8.5v12.2
		c0,3.7,2.7,3.8,2.7,3.8H128.6z M126.5,146.8l0.9-0.4v-10.5l-0.6,0.2c-8.1,2.3-11.4,3.5-11.4,7.5
		C115.5,148.2,120.7,149.2,126.5,146.8z"/>
	<path class="st0" d="M170.7,146.4v-12.2c0-6-2-7.8-7.7-5.8l-2.8,1c0.5,1.2,0.8,2.9,0.8,4.8v12.2c0,3.7,2.7,3.8,2.7,3.8H153
		c0,0,2.7-0.1,2.7-3.8v-12.2c0-6-2-7.8-7.7-5.8l-2,0.7v17.3c0,3.7,2.7,3.8,2.7,3.8h-10.6c0,0,2.7-0.1,2.7-3.8V130
		c0-2.9-2.7-2.8-2.7-2.8l7.6-1l0.2,1.7l3.9-1.2c4.5-1.5,7.9-1,9.6,1.7l5.2-1.7c6.8-2.2,11-0.1,11,7.5v12.2c0,3.7,2.7,3.8,2.7,3.8
		h-10.6C167.9,150.2,170.7,150.1,170.7,146.4z"/>
	<path class="st0" d="M242.8,143.7V120l-12.6,27.9l-14-28.5v24.3c0,6.4,4.2,6.5,4.2,6.5h-9.7c0,0,4.2-0.1,4.2-6.5v-20.5
		c0-6.4-4.2-6.5-4.2-6.5h10.1l11.5,23.4l10.5-23.4h7.8c0,0-2.7,0.1-2.7,3.8v23.3c0,6.4,4.2,6.5,4.2,6.5h-12.9
		C239.2,150.2,242.8,150.1,242.8,143.7z"/>
	<path class="st0" d="M273.6,150.2l-0.8-2.6l-3,1.3c-6.8,3-14.1,2-14.1-4.6c0-6,6.1-6.7,16.8-9.9c-0.2-6.6-2.4-7.4-5.2-7.4
		c-2.9,0-4.7,1.5-4.7,3.8c0,1.7-0.8,2.8-2.6,2.8c-1.9,0-2.8-1.2-2.7-2.8c0-1.7,2.2-5.1,10-5.1c7.5,0,10.4,2.8,10.4,8.5v12.2
		c0,3.7,2.7,3.8,2.7,3.8H273.6z M271.6,146.8l0.9-0.4v-10.5l-0.6,0.2c-8.1,2.3-11.4,3.5-11.4,7.5
		C260.5,148.2,265.7,149.2,271.6,146.8z"/>
	<path class="st0" d="M286.3,148.7c-1.4,0.8-2.2,2-2.2,2v-13.2c1.3,8.3,5.1,11.7,12,11.7c3,0,5.3-1.7,5.3-4.1c0-2.5-1.7-4.1-7.3-5.6
		c-7.2-1.7-10-3.6-10-7.3c0-3.5,2.5-6.5,11.1-6.5c5.3,0,8.1,2.3,8.1,2.3c1.1-0.8,1.5-2.4,1.5-2.4v11.8c0-6.8-4.2-10.4-10.2-10.4
		c-3.2,0-6.3,1.2-6.3,3.3c0,2.5,4,3.5,10.1,5.3c6.1,1.8,7.6,4.3,7.6,7.9c0,3.9-3.3,7-10.7,7C292.1,150.6,288.6,150,286.3,148.7z"/>
	<path class="st0" d="M312.6,148.7c-1.4,0.8-2.2,2-2.2,2v-13.2c1.3,8.3,5.1,11.7,12,11.7c3,0,5.3-1.7,5.3-4.1c0-2.5-1.7-4.1-7.3-5.6
		c-7.2-1.7-10-3.6-10-7.3c0-3.5,2.5-6.5,11.1-6.5c5.3,0,8.1,2.3,8.1,2.3c1.1-0.8,1.5-2.4,1.5-2.4v11.8c0-6.8-4.2-10.4-10.2-10.4
		c-3.2,0-6.3,1.2-6.3,3.3c0,2.5,4,3.5,10.1,5.3c6.1,1.8,7.6,4.3,7.6,7.9c0,3.9-3.3,7-10.7,7C318.4,150.6,314.9,150,312.6,148.7z"/>
	<path class="st0" d="M354,150.2l-0.8-2.6l-3,1.3c-6.8,3-14.1,2-14.1-4.6c0-6,6.1-6.7,16.8-9.9c-0.2-6.6-2.4-7.4-5.2-7.4
		c-2.9,0-4.7,1.5-4.7,3.8c0,1.7-0.8,2.8-2.6,2.8c-1.9,0-2.8-1.2-2.7-2.8c0-1.7,2.2-5.1,10-5.1c7.5,0,10.4,2.8,10.4,8.5v12.2
		c0,3.7,2.7,3.8,2.7,3.8H354z M351.9,146.8l0.9-0.4v-10.5l-0.6,0.2c-8.1,2.3-11.4,3.5-11.4,7.5C340.8,148.2,346.1,149.2,351.9,146.8
		z"/>
	<path class="st0" d="M363.5,138c0-7.3,5.5-12.2,13.1-12.2c2.8,0,5.4,1.1,7.6,2.3c0.8,0,1.7-0.8,2.2-2.1l-0.2,10.9
		c-0.6-5.2-3.8-9.8-9.9-9.7c-3.7,0-7.4,3.6-7.3,10.3c0,5.7,3.5,10.2,8.9,10.2c4.8,0,8.1-2.7,9.5-6.7c-0.8,5.6-5.3,9.6-10.9,9.6
		C368.7,150.6,363.5,145.5,363.5,138z"/>
	<path class="st0" d="M410.8,129.9c0,1.3-0.8,2.4-2.6,2.4c-1.9,0-2.8-1.2-2.7-2.4c-0.1-2.2-2.4-3.6-7.5-0.2v16.7
		c0,3.7,2.7,3.8,2.7,3.8h-10.6c0,0,2.7-0.1,2.7-3.8V130c0-2.9-2.7-2.8-2.7-2.8l7.6-1l0.2,1.8v0.4l1.7-1.1
		C404.6,124.3,410.8,125.8,410.8,129.9z"/>
	<path class="st0" d="M424.4,125.8c7.7,0,10.9,5.5,10.9,10.2h-18c0,7.3,3.3,11.6,8.8,11.6c4.8,0,8-2.6,9.4-6.6
		c-0.8,5.6-5.1,9.6-10.8,9.6c-7.6,0-12.7-5-12.7-12.6C412.1,130.7,416.8,125.8,424.4,125.8z M429.7,134.6c0-0.9,0-7.5-5.3-7.5
		c-6.2,0-7,6.6-7,7.5H429.7z"/>
	<path class="st0" d="M496.4,141.1l-0.5,9.1h-28.2c0,0,2.7-0.1,2.7-3.8v-26c0-3.7-2.7-3.8-2.7-3.8h27.6l0.8,7.2c0,0-2.3-5.9-6.5-5.9
		h-14.1v14.3h9.3c7.3,0,7.4-5.1,7.4-5.1v11.6c0,0-0.1-5.1-7.4-5.1h-9.3v15.3h13.5C494.9,147.9,496.4,141.1,496.4,141.1z"/>
	<path class="st0" d="M500.2,138c0-7.3,5.5-12.2,13.1-12.2c2.8,0,5.4,1.1,7.6,2.3c0.8,0,1.7-0.8,2.2-2.1l-0.2,10.9
		c-0.6-5.2-3.8-9.8-9.9-9.7c-3.7,0-7.4,3.6-7.3,10.3c0,5.7,3.5,10.2,8.9,10.2c4.8,0,8.1-2.7,9.5-6.7c-0.8,5.6-5.3,9.6-10.9,9.6
		C505.5,150.6,500.2,145.5,500.2,138z"/>
	<path class="st0" d="M526.9,138c0-7.3,5.5-12.2,13.1-12.2c7.6,0,13.1,4.9,13.1,12.2c0,7.5-5.5,12.6-13.1,12.6
		C532.3,150.6,526.9,145.5,526.9,138z M547.4,138c0-4.2-1.2-10.8-7.4-10.8c-6.2,0-7.4,6.6-7.4,10.8c0,4.3,1.2,11.2,7.4,11.2
		C546.2,149.2,547.4,142.3,547.4,138z"/>
	<path class="st0" d="M611.9,128v11.6c0,0-0.1-5.1-7.4-5.1h-10v12c0,3.7,2.7,3.8,2.7,3.8h-10.6c0,0,2.7-0.1,2.7-3.8v-25.1
		c0,0,0-4.8-4-4.8h28.7l1.1,7.9c0,0-1.8-6.5-8.4-6.5h-12.1v15.1l10,0C611.8,133.2,611.9,128,611.9,128z"/>
	<path class="st0" d="M637.1,129.9c0,1.3-0.8,2.4-2.6,2.4c-1.9,0-2.8-1.2-2.7-2.4c-0.1-2.2-2.4-3.6-7.5-0.2v16.7
		c0,3.7,2.7,3.8,2.7,3.8h-10.6c0,0,2.7-0.1,2.7-3.8V130c0-2.9-2.7-2.8-2.7-2.8l7.6-1l0.2,1.8v0.4l1.7-1.1
		C630.9,124.3,637.1,125.8,637.1,129.9z"/>
	<path class="st0" d="M646.7,146.4c0,3.7,2.7,3.8,2.7,3.8h-10.6c0,0,2.7-0.1,2.7-3.8V130c0-2.9-2.7-2.8-2.7-2.8l7.8-1V146.4z
		 M640.8,119.6c0,1.8,1.2,3,3.1,3s3.3-1.2,3.3-3c0-1.8-1.4-3-3.3-3S640.8,117.8,640.8,119.6z"/>
	<path class="st0" d="M665,125.8c7.7,0,10.9,5.5,10.9,10.2h-18c0,7.3,3.3,11.6,8.8,11.6c4.8,0,8-2.6,9.4-6.6
		c-0.8,5.6-5.1,9.6-10.8,9.6c-7.6,0-12.7-5-12.7-12.6C652.8,130.7,657.5,125.8,665,125.8z M670.4,134.6c0-0.9,0-7.5-5.3-7.5
		c-6.2,0-7,6.6-7,7.5H670.4z"/>
	<path class="st0" d="M686.9,128l3.8-1.1c8.3-2.4,12.4-0.3,12.4,7.3v12.2c0,3.7,2.7,3.8,2.7,3.8h-10.6c0,0,2.7-0.1,2.7-3.8v-12.2
		c0-6-3-7.3-9.1-5.6l-2,0.6v17.2c0,3.7,2.7,3.8,2.7,3.8h-10.6c0,0,2.7-0.1,2.7-3.8V130c0-2.9-2.7-2.8-2.7-2.8l7.6-1L686.9,128z"/>
	<path class="st0" d="M735.7,150.2h-7.3l-0.5-1.8v-0.1c-1.9,1.4-4.3,2.3-7.1,2.3c-6.9,0-12-3.8-12-11.9c0-7.9,5.1-12.9,12-12.9
		c2.9,0,5.2,0.8,7.1,2v-11.2c0-3.3-2.7-3.1-2.7-3.1l7.8-0.7v33.6C733,150.1,735.7,150.2,735.7,150.2z M727.9,146.8v-17.2
		c-1.5-1.3-3.4-2.3-5.9-2.3c-4.1,0-7.6,4.2-7.6,10.9c0,6.8,2.9,10.6,7.6,10.6C724.5,148.9,726.4,148,727.9,146.8z"/>
	<path class="st0" d="M803.6,133.4c0,10.5-7.4,17.7-17.9,17.7c-10.4,0-17.9-7.2-17.9-17.7c0-10.6,7.4-17.4,17.9-17.4
		C796.2,116,803.6,122.8,803.6,133.4z M797.9,133.4c0-5.9-2.3-16-12.2-16c-9.9,0-12.2,10.1-12.2,16c0,5.9,2.3,16.3,12.2,16.3
		C795.7,149.7,797.9,139.3,797.9,133.4z"/>
	<path class="st0" d="M824.5,119.5c-1.8,0-2.6-1.2-2.6-2.8c0-2.3-1.3-3.4-3.4-3.4c-2.5,0-3.7,0.9-3.7,8.4v4.5h9.6v1.3h-9.6v18.9
		c0,3.7,2.7,3.8,2.7,3.8h-10.6c0,0,2.7-0.1,2.7-3.8v-18.9H805v-1.3h4.6v-4.5c0-7,1.3-9.8,8.8-9.8c6.8,0,8.7,3,8.7,4.7
		C827.2,118.3,826.4,119.5,824.5,119.5z"/>
	<path class="st0" d="M843.7,119.5c-1.8,0-2.6-1.2-2.6-2.8c0-2.3-1.3-3.4-3.4-3.4c-2.5,0-3.7,0.9-3.7,8.4v4.5h9.6v1.3H834v18.9
		c0,3.7,2.7,3.8,2.7,3.8h-10.6c0,0,2.7-0.1,2.7-3.8v-18.9h-4.6v-1.3h4.6v-4.5c0-7,1.3-9.8,8.8-9.8c6.8,0,8.7,3,8.7,4.7
		C846.5,118.3,845.6,119.5,843.7,119.5z"/>
	<path class="st0" d="M37.8,181c0,7.5-8.3,10.3-14.9,10.3c-3.6,0-6.8-0.2-8.7-0.3v9.8c0,3.7,2.7,3.8,2.7,3.8H6.3
		c0,0,2.7-0.1,2.7-3.8v-25.1c0,0,0-4.8-4.1-4.8h17.3C29.7,171,37.8,173.3,37.8,181z M32.3,181.3c0-6-3.5-9-11.1-9h-7.1v17.5
		c1.8,0,4.8,0.1,8.4,0.1C28.9,190,32.3,186.2,32.3,181.3z"/>
	<path class="st0" d="M47.5,200.8c0,3.7,2.7,3.8,2.7,3.8H39.7c0,0,2.7-0.1,2.7-3.8v-16.4c0-2.9-2.7-2.8-2.7-2.8l7.8-1V200.8z
		 M41.6,174c0,1.8,1.2,3,3.1,3c1.9,0,3.3-1.2,3.3-3c0-1.8-1.4-3-3.3-3C42.8,171,41.6,172.2,41.6,174z"/>
	<path class="st0" d="M56.7,203.1c-1.4,0.8-2.2,2-2.2,2v-13.2c1.3,8.3,5.1,11.7,12,11.7c3,0,5.3-1.7,5.3-4.1c0-2.5-1.7-4.1-7.3-5.6
		c-7.2-1.7-10-3.6-10-7.3c0-3.5,2.5-6.5,11.1-6.5c5.3,0,8.1,2.3,8.1,2.3c1.1-0.8,1.5-2.4,1.5-2.4v11.8c0-6.8-4.2-10.4-10.2-10.4
		c-3.2,0-6.3,1.2-6.3,3.3c0,2.5,4,3.5,10.1,5.3c6.1,1.8,7.6,4.3,7.6,7.9c0,3.9-3.3,7-10.7,7C62.5,205,59.1,204.4,56.7,203.1z"/>
	<path class="st0" d="M89.3,181.9v18.9c0,3.7,2.7,3.8,2.7,3.8H81.5c0,0,2.7-0.1,2.7-3.8v-18.9h-5.7v-1.3h5.7v-5.8
		c0-3.3-2.7-3.1-2.7-3.1l7.8-0.7v9.6h5.3v1.3H89.3z"/>
	<path class="st0" d="M108.4,180.2c7.7,0,10.9,5.5,10.9,10.2h-18c0,7.3,3.3,11.6,8.8,11.6c4.8,0,8-2.6,9.4-6.6
		c-0.8,5.6-5.1,9.6-10.8,9.6c-7.6,0-12.7-5-12.7-12.6C96.1,185.1,100.8,180.2,108.4,180.2z M113.7,189c0-0.9,0-7.5-5.3-7.5
		c-6.2,0-7,6.6-7,7.5H113.7z"/>
	<path class="st0" d="M185.1,204.6h-12.9c0,0,4.2,0,1.7-6.5l-2.4-6.3l-16.6,6.3c-2.3,6.5,4.3,6.5,4.4,6.5h-13.5c0,0,5.3,0,7.6-6.5
		l4.5-12.6c3.6-10.1,5.2-14.5-2.3-14.5h13.2l10.4,27.3C181.7,204.6,185.1,204.6,185.1,204.6z M171.1,190.5l-6.9-18.2l-8.6,24.1
		L171.1,190.5z"/>
	<path class="st0" d="M209.2,200.8c0,3.7,2.7,3.8,2.7,3.8h-7.6l-0.2-1.8l-3.8,1.1c-8.7,2.5-12.9,0.3-12.9-6v-13.5
		c0-2.9-2.7-2.8-2.7-2.8l7.8-1v17.3c0,4.7,3,6.2,9.6,4.3l2-0.6v-17.2c0-2.9-2.7-2.8-2.7-2.8l7.8-1V200.8z"/>
	<path class="st0" d="M235.4,184.3c0,1.3-0.8,2.4-2.6,2.4c-1.9,0-2.8-1.2-2.7-2.4c-0.1-2.2-2.4-3.6-7.5-0.2v16.7
		c0,3.7,2.7,3.8,2.7,3.8h-10.6c0,0,2.7-0.1,2.7-3.8v-16.4c0-2.9-2.7-2.8-2.7-2.8l7.6-1l0.2,1.8v0.4l1.7-1.1
		C229.2,178.7,235.4,180.2,235.4,184.3z"/>
	<path class="st0" d="M254.9,204.6L254,202l-3,1.3c-6.8,3-14.1,2-14.1-4.6c0-6,6.1-6.7,16.8-9.9c-0.2-6.6-2.4-7.4-5.2-7.4
		c-2.9,0-4.7,1.5-4.7,3.8c0,1.7-0.8,2.8-2.6,2.8c-1.9,0-2.8-1.2-2.7-2.8c0-1.7,2.2-5.1,10-5.1c7.5,0,10.4,2.8,10.4,8.5v12.2
		c0,3.7,2.7,3.8,2.7,3.8H254.9z M252.8,201.2l0.9-0.4v-10.5l-0.6,0.2c-8.1,2.3-11.4,3.5-11.4,7.5C241.7,202.6,247,203.6,252.8,201.2
		z"/>
	<path class="st0" d="M296.4,200.8v-26c0-3.7-2.7-3.8-2.7-3.8h16.7c7.8,0,13.8,0.1,13.8,6.3c0,4.5-3.6,6.5-8.1,7
		c5.9,0,10.8,2,10.8,9.4c0,9.5-6.5,10.9-15.4,10.9h-17.8C293.7,204.6,296.4,204.5,296.4,200.8z M310.3,183.7c6.3,0,8.9-2,8.9-6
		c0-4.5-2.5-5.4-10.8-5.4h-6.9v11.4H310.3z M311.2,203.3c6.3,0,10-2.4,10-9.2c0-6-1.9-8.9-10.3-8.9h-9.4v18.1H311.2z"/>
	<path class="st0" d="M329.7,192.4c0-7.3,5.5-12.2,13.1-12.2s13.1,4.9,13.1,12.2c0,7.5-5.5,12.6-13.1,12.6S329.7,199.9,329.7,192.4z
		 M350.3,192.4c0-4.2-1.2-10.8-7.4-10.8c-6.2,0-7.4,6.6-7.4,10.8c0,4.3,1.2,11.2,7.4,11.2C349.1,203.6,350.3,196.7,350.3,192.4z"/>
	<path class="st0" d="M391.3,200.8v-12.2c0-6-2-7.8-7.7-5.8l-2.8,1c0.5,1.2,0.8,2.9,0.8,4.8v12.2c0,3.7,2.7,3.8,2.7,3.8h-10.6
		c0,0,2.7-0.1,2.7-3.8v-12.2c0-6-2-7.8-7.7-5.8l-2,0.7v17.3c0,3.7,2.7,3.8,2.7,3.8h-10.6c0,0,2.7-0.1,2.7-3.8v-16.4
		c0-2.9-2.7-2.8-2.7-2.8l7.6-1l0.2,1.7l3.9-1.2c4.5-1.5,7.9-1,9.6,1.7l5.2-1.7c6.8-2.2,11-0.1,11,7.5v12.2c0,3.7,2.7,3.8,2.7,3.8
		h-10.6C388.6,204.6,391.3,204.5,391.3,200.8z"/>
	<path class="st0" d="M429,192c0,9.2-5.2,13-12,13c-2.8,0-5.2-0.9-7.1-2.3v0.1l-0.5,1.8H402c0,0,2.7-0.1,2.7-3.8V170
		c0-2.9-2.7-2.8-2.7-2.8l7.8-1v16c1.9-1.2,4.2-2,7.1-2C423.9,180.2,429,184.6,429,192z M423.3,192c0-6.7-3.5-10.3-7.6-10.3
		c-2.4,0-4.4,0.9-5.9,2.3v17.2c1.5,1.2,3.4,2.1,5.9,2.1C420.4,203.3,423.3,199.4,423.3,192z"/>
	<path class="st0" d="M432.4,192.4c0-7.3,5.5-12.2,13.1-12.2s13.1,4.9,13.1,12.2c0,7.5-5.5,12.6-13.1,12.6S432.4,199.9,432.4,192.4z
		 M452.9,192.4c0-4.2-1.2-10.8-7.4-10.8c-6.2,0-7.4,6.6-7.4,10.8c0,4.3,1.2,11.2,7.4,11.2C451.7,203.6,452.9,196.7,452.9,192.4z"/>
	<path class="st0" d="M486.9,208.1c0,5.4-3.8,9.6-12.4,9.6c-8.7,0-13.1-3.4-13.1-7.9c0-3.9,3.5-5.8,4.7-6c-4.9-0.9-4.7-6.4-0.2-7.8
		c-2-1.5-3.1-3.8-3.1-6.9c0-5.9,4.7-9,10.4-9c2.7,0,5.1,0.6,6.9,1.9c2.4-3.8,4.8-3.9,5.8-3.4c1,0.5,1.5,1.4,0.9,2.5
		c-0.6,1.2-1.5,1.2-2.5,0.6c-1.2-0.6-2.2,0-3.1,1.1c1.6,1.5,2.5,3.6,2.5,6.2c0,5.7-4.1,8.8-10.4,8.8c-2.4,0-4.4-0.4-6-1.2
		c-0.6,0.2-0.9,0.6-0.9,1.3c0,1.2,2.4,2.2,10,2.2C483.4,200.4,486.9,204.3,486.9,208.1z M482.2,209.8c0-2.9-2.8-5.2-7.9-5.2
		c-1.8,0-4,0-5.8-0.2c-1.3,0.6-2.6,2.5-2.6,4.9c0,4.1,3.2,7.2,8.6,7.2C479.5,216.4,482.2,213.3,482.2,209.8z M467.8,189.2
		c0,5.1,2.1,7.5,5.4,7.5c3.3,0,5.4-2.4,5.4-7.5c0-5.3-2.1-7.6-5.4-7.6C470,181.6,467.8,183.9,467.8,189.2z"/>
	<path class="st0" d="M501.3,180.2c7.7,0,10.9,5.5,10.9,10.2h-18c0,7.3,3.3,11.6,8.8,11.6c4.8,0,8-2.6,9.4-6.6
		c-0.8,5.6-5.1,9.6-10.8,9.6c-7.6,0-12.7-5-12.7-12.6C489,185.1,493.7,180.2,501.3,180.2z M506.6,189c0-0.9,0-7.5-5.3-7.5
		c-6.2,0-7,6.6-7,7.5H506.6z"/>
	<path class="st0" d="M523.2,182.4l3.8-1.1c8.3-2.4,12.4-0.3,12.4,7.3v12.2c0,3.7,2.7,3.8,2.7,3.8h-10.6c0,0,2.7-0.1,2.7-3.8v-12.2
		c0-6-3-7.3-9.1-5.6l-2,0.6v17.2c0,3.7,2.7,3.8,2.7,3.8h-10.6c0,0,2.7-0.1,2.7-3.8v-16.4c0-2.9-2.7-2.8-2.7-2.8l7.6-1L523.2,182.4z"
		/>
	<path class="st0" d="M557.2,180.2c7.7,0,10.9,5.5,10.9,10.2h-18c0,7.3,3.3,11.6,8.8,11.6c4.8,0,8-2.6,9.4-6.6
		c-0.8,5.6-5.1,9.6-10.8,9.6c-7.6,0-12.7-5-12.7-12.6C545,185.1,549.7,180.2,557.2,180.2z M562.6,189c0-0.9,0-7.5-5.3-7.5
		c-6.2,0-7,6.6-7,7.5H562.6z"/>
	<path class="st0" d="M574.4,203.1c-1.4,0.8-2.2,2-2.2,2v-13.2c1.3,8.3,5.1,11.7,12,11.7c3,0,5.3-1.7,5.3-4.1c0-2.5-1.7-4.1-7.3-5.6
		c-7.2-1.7-10-3.6-10-7.3c0-3.5,2.5-6.5,11.1-6.5c5.3,0,8.1,2.3,8.1,2.3c1.1-0.8,1.5-2.4,1.5-2.4v11.8c0-6.8-4.2-10.4-10.2-10.4
		c-3.2,0-6.3,1.2-6.3,3.3c0,2.5,4,3.5,10.1,5.3c6.1,1.8,7.6,4.3,7.6,7.9c0,3.9-3.3,7-10.7,7C580.2,205,576.7,204.4,574.4,203.1z"/>
	<path class="st0" d="M605.9,200.8c0,3.7,2.7,3.8,2.7,3.8H598c0,0,2.7-0.1,2.7-3.8v-16.4c0-2.9-2.7-2.8-2.7-2.8l7.8-1V200.8z
		 M600,174c0,1.8,1.2,3,3.1,3s3.3-1.2,3.3-3c0-1.8-1.4-3-3.3-3S600,172.2,600,174z"/>
	<path class="st0" d="M615.1,203.1c-1.4,0.8-2.2,2-2.2,2v-13.2c1.3,8.3,5.1,11.7,12,11.7c3,0,5.3-1.7,5.3-4.1c0-2.5-1.7-4.1-7.3-5.6
		c-7.2-1.7-10-3.6-10-7.3c0-3.5,2.5-6.5,11.1-6.5c5.3,0,8.1,2.3,8.1,2.3c1.1-0.8,1.5-2.4,1.5-2.4v11.8c0-6.8-4.2-10.4-10.2-10.4
		c-3.2,0-6.3,1.2-6.3,3.3c0,2.5,4,3.5,10.1,5.3c6.1,1.8,7.6,4.3,7.6,7.9c0,3.9-3.3,7-10.7,7C620.9,205,617.4,204.4,615.1,203.1z"/>
	<path class="st0" d="M670.3,200.8v-26c0-3.7-2.7-3.8-2.7-3.8h15.7c10.5,0,17.9,6.2,17.9,16.8c0,10.5-7.4,16.8-17.9,16.8h-15.7
		C667.5,204.6,670.3,204.5,670.3,200.8z M683.2,203.3c9.9,0,12.2-9.6,12.2-15.5c0-5.9-2.3-15.5-12.2-15.5h-7.8v30.9H683.2z"/>
	<path class="st0" d="M716.3,180.2c7.7,0,10.9,5.5,10.9,10.2h-18c0,7.3,3.3,11.6,8.8,11.6c4.8,0,8-2.6,9.4-6.6
		c-0.8,5.6-5.1,9.6-10.8,9.6c-7.6,0-12.7-5-12.7-12.6C704,185.1,708.7,180.2,716.3,180.2z M721.6,189c0-0.9,0-7.5-5.3-7.5
		c-6.2,0-7,6.6-7,7.5H721.6z"/>
	<path class="st0" d="M739.7,181.9v18.9c0,3.7,2.7,3.8,2.7,3.8h-10.6c0,0,2.7-0.1,2.7-3.8v-18.9h-5.7v-1.3h5.7v-5.8
		c0-3.3-2.7-3.1-2.7-3.1l7.8-0.7v9.6h5.3v1.3H739.7z"/>
	<path class="st0" d="M746.5,192.4c0-7.3,5.5-12.2,13.1-12.2s13.1,4.9,13.1,12.2c0,7.5-5.5,12.6-13.1,12.6S746.5,199.9,746.5,192.4z
		 M767,192.4c0-4.2-1.2-10.8-7.4-10.8c-6.2,0-7.4,6.6-7.4,10.8c0,4.3,1.2,11.2,7.4,11.2C765.8,203.6,767,196.7,767,192.4z"/>
	<path class="st0" d="M803.3,204.6h-14.1c2.1,0,3.6-0.7,1.1-4.5l-3.7-5.5l-2.3,3.4c-4,6-2.4,6.6,1.9,6.6h-13.5
		c4-0.1,6.4-1.3,10.3-7.1l2.8-4.1l-5.2-7.7l0,0l-0.1-0.1c-2.4-3.6-4.8-4.8-7.4-5h14.1c-2,0-3.6,0.7-1.2,4.2l3.8,5.7l2.3-3.3
		c4-6,2.4-6.6-1.9-6.6h13.5c-4,0.1-6.4,1.3-10.3,7.1l-2.8,4.1l6,8.8C798.7,203.4,800.9,204.5,803.3,204.6z"/>
	<path class="st0" d="M31.9,255.6c-0.5-1.8-1.2-4.1-2-7c-1.7-6.2-6.3-5.9-6.5-5.9l-9.7,0.9v11.6c0,3.7,2.7,3.8,2.7,3.8H5.9
		c0,0,2.7-0.1,2.7-3.8v-26c0-3.7-2.7-3.8-2.7-3.8h17.5c9,0,14.1,1.4,14.1,8.1s-5.2,8.3-11,8.9v0.3c7-0.9,8.2,2.7,8.6,4.5
		c1.1,4,2,11.8,6.1,11.8H30.3C30.3,259,32.8,259,31.9,255.6z M32.1,234.1c0-4.9-1.7-7.3-8.7-7.3h-9.7v15.6l9.7-0.9
		C28.6,240.9,32.1,238.6,32.1,234.1z"/>
	<path class="st0" d="M55.1,234.6c7.7,0,10.9,5.5,10.9,10.2h-18c0,7.3,3.3,11.6,8.8,11.6c4.8,0,8-2.6,9.4-6.6
		c-0.8,5.6-5.1,9.6-10.8,9.6c-7.6,0-12.7-5-12.7-12.6C42.8,239.5,47.5,234.6,55.1,234.6z M60.4,243.4c0-0.9,0-7.5-5.3-7.5
		c-6.2,0-7,6.6-7,7.5H60.4z"/>
	<path class="st0" d="M69.1,246.8c0-7.3,5.5-12.2,13.1-12.2c2.8,0,5.4,1.1,7.6,2.3c0.8,0,1.7-0.8,2.2-2.1l-0.2,10.9
		c-0.6-5.2-3.8-9.8-9.9-9.7c-3.7,0-7.4,3.6-7.3,10.3c0,5.7,3.5,10.2,8.9,10.2c4.8,0,8.1-2.7,9.5-6.7c-0.8,5.6-5.3,9.6-10.9,9.6
		C74.3,259.4,69.1,254.3,69.1,246.8z"/>
	<path class="st0" d="M95.7,246.8c0-7.3,5.5-12.2,13.1-12.2c7.6,0,13.1,4.9,13.1,12.2c0,7.5-5.5,12.6-13.1,12.6
		C101.2,259.4,95.7,254.3,95.7,246.8z M116.3,246.8c0-4.2-1.2-10.8-7.4-10.8c-6.2,0-7.4,6.6-7.4,10.8c0,4.3,1.2,11.2,7.4,11.2
		C115.1,258,116.3,251.1,116.3,246.8z"/>
	<path class="st0" d="M132.7,236.8l3.8-1.1c8.3-2.4,12.4-0.3,12.4,7.3v12.2c0,3.7,2.7,3.8,2.7,3.8H141c0,0,2.7-0.1,2.7-3.8V243
		c0-6-3-7.3-9.1-5.6l-2,0.6v17.2c0,3.7,2.7,3.8,2.7,3.8h-10.6c0,0,2.7-0.1,2.7-3.8v-16.4c0-2.9-2.7-2.8-2.7-2.8l7.6-1L132.7,236.8z"
		/>
	<path class="st0" d="M157.6,257.5c-1.4,0.8-2.2,2-2.2,2v-13.2c1.3,8.3,5.1,11.7,12,11.7c3,0,5.3-1.7,5.3-4.1c0-2.5-1.7-4.1-7.3-5.6
		c-7.2-1.7-10-3.6-10-7.3c0-3.5,2.5-6.5,11.1-6.5c5.3,0,8.1,2.3,8.1,2.3c1.1-0.8,1.5-2.4,1.5-2.4v11.8c0-6.8-4.2-10.4-10.2-10.4
		c-3.2,0-6.3,1.2-6.3,3.3c0,2.5,4,3.5,10.1,5.3c6.1,1.8,7.6,4.3,7.6,7.9c0,3.9-3.3,7-10.7,7C163.4,259.4,160,258.8,157.6,257.5z"/>
	<path class="st0" d="M190.2,236.3v18.9c0,3.7,2.7,3.8,2.7,3.8h-10.6c0,0,2.7-0.1,2.7-3.8v-18.9h-5.7V235h5.7v-5.8
		c0-3.3-2.7-3.1-2.7-3.1l7.8-0.7v9.6h5.3v1.3H190.2z"/>
	<path class="st0" d="M217.7,238.7c0,1.3-0.8,2.4-2.6,2.4c-1.9,0-2.8-1.2-2.7-2.4c-0.1-2.2-2.4-3.6-7.5-0.2v16.7
		c0,3.7,2.7,3.8,2.7,3.8H197c0,0,2.7-0.1,2.7-3.8v-16.4c0-2.9-2.7-2.8-2.7-2.8l7.6-1l0.2,1.8v0.4l1.7-1.1
		C211.4,233.1,217.7,234.6,217.7,238.7z"/>
	<path class="st0" d="M243.4,255.2c0,3.7,2.7,3.8,2.7,3.8h-7.6l-0.2-1.8l-3.8,1.1c-8.7,2.5-12.9,0.3-12.9-6v-13.5
		c0-2.9-2.7-2.8-2.7-2.8l7.8-1v17.3c0,4.7,3,6.2,9.6,4.3l2-0.6v-17.2c0-2.9-2.7-2.8-2.7-2.8l7.8-1V255.2z"/>
	<path class="st0" d="M249,246.8c0-7.3,5.5-12.2,13.1-12.2c2.8,0,5.4,1.1,7.6,2.3c0.8,0,1.7-0.8,2.2-2.1l-0.2,10.9
		c-0.6-5.2-3.8-9.8-9.9-9.7c-3.7,0-7.4,3.6-7.3,10.3c0,5.7,3.5,10.2,8.9,10.2c4.8,0,8.1-2.7,9.5-6.7c-0.8,5.6-5.3,9.6-10.9,9.6
		C254.2,259.4,249,254.3,249,246.8z"/>
	<path class="st0" d="M285,236.3v18.9c0,3.7,2.7,3.8,2.7,3.8h-10.6c0,0,2.7-0.1,2.7-3.8v-18.9h-5.7V235h5.7v-5.8
		c0-3.3-2.7-3.1-2.7-3.1l7.8-0.7v9.6h5.3v1.3H285z"/>
	<path class="st0" d="M325.1,225.4l25.1,26.1v-19.6c0-6.3-4.6-6.5-4.6-6.5h10.2c0,0-4.3,0.1-4.3,6.5v23.3c0,3.7,1.3,3.8,1.3,3.8
		h-2.7l-25.1-26.1v19.6c0,6.3,4.7,6.5,4.7,6.5h-10.1c0,0,4-0.2,4-6.5v-20.9c0,0,0-6.2-4.1-6.2H325.1z"/>
	<path class="st0" d="M357.8,246.8c0-7.3,5.5-12.2,13.1-12.2s13.1,4.9,13.1,12.2c0,7.5-5.5,12.6-13.1,12.6S357.8,254.3,357.8,246.8z
		 M378.4,246.8c0-4.2-1.2-10.8-7.4-10.8c-6.2,0-7.4,6.6-7.4,10.8c0,4.3,1.2,11.2,7.4,11.2C377.2,258,378.4,251.1,378.4,246.8z"/>
	<path class="st0" d="M420,257.1c-1.9,1.1-2.8,2.7-2.8,2.7V242c0.2,6.7,4.1,16.5,14.1,16.5c6.6,0,9.2-2.2,9.2-6.5
		c0-3.7-3.9-6.1-10.8-8c-8.3-2.3-12.5-5.4-12.5-10.5c0-4.6,3.9-8.7,14.4-8.7c3.6,0,7.2,1,10,2.8c1.7-0.5,2.1-2.9,2.1-2.9v16.6
		c-1.5-11.6-6.6-15.2-12.1-15.2c-5.5,0-9.8,1.7-9.8,5.5c0,3.4,2.6,4.4,14,8.1c7.2,2.3,9.6,6.8,9.6,10.7c0,6.4-5.1,9.5-14.1,9.5
		C427.4,259.9,423.2,258.9,420,257.1z"/>
	<path class="st0" d="M467.4,259l-0.8-2.6l-3,1.3c-6.8,3-14.1,2-14.1-4.6c0-6,6.1-6.7,16.8-9.9c-0.2-6.6-2.4-7.4-5.2-7.4
		c-2.9,0-4.7,1.5-4.7,3.8c0,1.7-0.8,2.8-2.6,2.8c-1.9,0-2.8-1.2-2.7-2.8c0-1.7,2.2-5.1,10-5.1c7.5,0,10.4,2.8,10.4,8.5v12.2
		c0,3.7,2.7,3.8,2.7,3.8H467.4z M465.3,255.6l0.9-0.4v-10.5l-0.6,0.2c-8.1,2.3-11.4,3.5-11.4,7.5C454.2,257,459.5,258,465.3,255.6z"
		/>
	<path class="st0" d="M480.1,257.5c-1.4,0.8-2.2,2-2.2,2v-13.2c1.3,8.3,5.1,11.7,12,11.7c3,0,5.3-1.7,5.3-4.1c0-2.5-1.7-4.1-7.3-5.6
		c-7.2-1.7-10-3.6-10-7.3c0-3.5,2.5-6.5,11.1-6.5c5.3,0,8.1,2.3,8.1,2.3c1.1-0.8,1.5-2.4,1.5-2.4v11.8c0-6.8-4.2-10.4-10.2-10.4
		c-3.2,0-6.3,1.2-6.3,3.3c0,2.5,4,3.5,10.1,5.3c6.1,1.8,7.6,4.3,7.6,7.9c0,3.9-3.3,7-10.7,7C485.9,259.4,482.4,258.8,480.1,257.5z"
		/>
	<path class="st0" d="M506.4,257.5c-1.4,0.8-2.2,2-2.2,2v-13.2c1.3,8.3,5.1,11.7,12,11.7c3,0,5.3-1.7,5.3-4.1c0-2.5-1.7-4.1-7.3-5.6
		c-7.2-1.7-10-3.6-10-7.3c0-3.5,2.5-6.5,11.1-6.5c5.3,0,8.1,2.3,8.1,2.3c1.1-0.8,1.5-2.4,1.5-2.4v11.8c0-6.8-4.2-10.4-10.2-10.4
		c-3.2,0-6.3,1.2-6.3,3.3c0,2.5,4,3.5,10.1,5.3c6.1,1.8,7.6,4.3,7.6,7.9c0,3.9-3.3,7-10.7,7C512.2,259.4,508.7,258.8,506.4,257.5z"
		/>
	<path class="st0" d="M562.7,257.1c-1.9,1.1-2.8,2.7-2.8,2.7V242c0.2,6.7,4.1,16.5,14.1,16.5c6.6,0,9.2-2.2,9.2-6.5
		c0-3.7-3.9-6.1-10.8-8c-8.3-2.3-12.5-5.4-12.5-10.5c0-4.6,3.9-8.7,14.4-8.7c3.6,0,7.2,1,10,2.8c1.7-0.5,2.1-2.9,2.1-2.9v16.6
		c-1.5-11.6-6.6-15.2-12.1-15.2c-5.5,0-9.8,1.7-9.8,5.5c0,3.4,2.6,4.4,14,8.1c7.2,2.3,9.6,6.8,9.6,10.7c0,6.4-5.1,9.5-14.1,9.5
		C570,259.9,565.8,258.9,562.7,257.1z"/>
	<path class="st0" d="M601.3,236.3v18.9c0,3.7,2.7,3.8,2.7,3.8h-10.6c0,0,2.7-0.1,2.7-3.8v-18.9h-5.7V235h5.7v-5.8
		c0-3.3-2.7-3.1-2.7-3.1l7.8-0.7v9.6h5.3v1.3H601.3z"/>
	<path class="st0" d="M626.2,259l-0.8-2.6l-3,1.3c-6.8,3-14.1,2-14.1-4.6c0-6,6.1-6.7,16.8-9.9c-0.2-6.6-2.4-7.4-5.2-7.4
		c-2.9,0-4.7,1.5-4.7,3.8c0,1.7-0.8,2.8-2.6,2.8c-1.9,0-2.8-1.2-2.7-2.8c0-1.7,2.2-5.1,10-5.1c7.5,0,10.4,2.8,10.4,8.5v12.2
		c0,3.7,2.7,3.8,2.7,3.8H626.2z M624.2,255.6l0.9-0.4v-10.5l-0.6,0.2c-8.1,2.3-11.4,3.5-11.4,7.5C613.1,257,618.3,258,624.2,255.6z"
		/>
	<path class="st0" d="M645.2,236.3v18.9c0,3.7,2.7,3.8,2.7,3.8h-10.6c0,0,2.7-0.1,2.7-3.8v-18.9h-5.7V235h5.7v-5.8
		c0-3.3-2.7-3.1-2.7-3.1l7.8-0.7v9.6h5.3v1.3H645.2z"/>
	<path class="st0" d="M660.3,255.2c0,3.7,2.7,3.8,2.7,3.8h-10.6c0,0,2.7-0.1,2.7-3.8v-16.4c0-2.9-2.7-2.8-2.7-2.8l7.8-1V255.2z
		 M654.3,228.4c0,1.8,1.2,3,3.1,3s3.3-1.2,3.3-3c0-1.8-1.4-3-3.3-3S654.3,226.6,654.3,228.4z"/>
	<path class="st0" d="M666.3,246.8c0-7.3,5.5-12.2,13.1-12.2c2.8,0,5.4,1.1,7.6,2.3c0.8,0,1.7-0.8,2.2-2.1l-0.2,10.9
		c-0.6-5.2-3.8-9.8-9.9-9.7c-3.7,0-7.4,3.6-7.3,10.3c0,5.7,3.5,10.2,8.9,10.2c4.8,0,8.1-2.7,9.5-6.7c-0.8,5.6-5.3,9.6-10.9,9.6
		C671.6,259.4,666.3,254.3,666.3,246.8z"/>
	<path class="st0" d="M755.7,259h-12.9c0,0,4.2,0,1.7-6.5l-2.4-6.3l-16.6,6.3c-2.3,6.5,4.3,6.5,4.4,6.5h-13.5c0,0,5.3,0,7.6-6.5
		l4.5-12.6c3.6-10.1,5.2-14.5-2.3-14.5h13.2l10.4,27.3C752.3,259,755.7,259,755.7,259z M741.7,244.9l-6.9-18.2l-8.6,24.1
		L741.7,244.9z"/>
	<path class="st0" d="M764.7,236.3v18.9c0,3.7,2.7,3.8,2.7,3.8h-10.6c0,0,2.7-0.1,2.7-3.8v-18.9h-5.7V235h5.7v-5.8
		c0-3.3-2.7-3.1-2.7-3.1l7.8-0.7v9.6h5.3v1.3H764.7z"/>
	<path class="st0" d="M14.9,290.7v18.9c0,3.7,2.7,3.8,2.7,3.8H7c0,0,2.7-0.1,2.7-3.8v-18.9H4v-1.3h5.7v-5.8c0-3.3-2.7-3.1-2.7-3.1
		l7.8-0.7v9.6h5.3v1.3H14.9z"/>
	<path class="st0" d="M29.5,291.2l3.8-1.1c8.3-2.4,12.4-0.3,12.4,7.3v12.2c0,3.7,2.7,3.8,2.7,3.8H37.8c0,0,2.7-0.1,2.7-3.8v-12.2
		c0-6-3-7.3-9.1-5.6l-2,0.6v17.2c0,3.7,2.7,3.8,2.7,3.8H21.6c0,0,2.7-0.1,2.7-3.8v-29.8c0-3.3-2.7-3.1-2.7-3.1l7.8-0.7V291.2z"/>
	<path class="st0" d="M63.1,289c7.7,0,10.9,5.5,10.9,10.2h-18c0,7.3,3.3,11.6,8.8,11.6c4.8,0,8-2.6,9.4-6.6
		c-0.8,5.6-5.1,9.6-10.8,9.6c-7.6,0-12.7-5-12.7-12.6C50.8,293.9,55.5,289,63.1,289z M68.4,297.8c0-0.9,0-7.5-5.3-7.5
		c-6.2,0-7,6.6-7,7.5H68.4z"/>
	<path class="st0" d="M110.2,311.5c-1.9,1.1-2.8,2.7-2.8,2.7v-17.8c0.2,6.7,4.1,16.5,14.1,16.5c6.6,0,9.2-2.2,9.2-6.5
		c0-3.7-3.9-6.1-10.8-8c-8.3-2.3-12.5-5.4-12.5-10.5c0-4.6,3.9-8.7,14.4-8.7c3.6,0,7.2,1,10,2.8c1.7-0.5,2.1-2.9,2.1-2.9v16.6
		c-1.5-11.6-6.6-15.2-12.1-15.2c-5.5,0-9.8,1.7-9.8,5.5c0,3.4,2.6,4.4,14,8.1c7.2,2.3,9.6,6.8,9.6,10.7c0,6.4-5.1,9.5-14.1,9.5
		C117.6,314.3,113.4,313.3,110.2,311.5z"/>
	<path class="st0" d="M163.9,309.6c0,3.7,2.7,3.8,2.7,3.8H159l-0.2-1.8l-3.8,1.1c-8.7,2.5-12.9,0.3-12.9-6v-13.5
		c0-2.9-2.7-2.8-2.7-2.8l7.8-1v17.3c0,4.7,3,6.2,9.6,4.3l2-0.6v-17.2c0-2.9-2.7-2.8-2.7-2.8l7.8-1V309.6z"/>
	<path class="st0" d="M202,309.6v-12.2c0-6-2-7.8-7.7-5.8l-2.8,1c0.5,1.2,0.8,2.9,0.8,4.8v12.2c0,3.7,2.7,3.8,2.7,3.8h-10.6
		c0,0,2.7-0.1,2.7-3.8v-12.2c0-6-2-7.8-7.7-5.8l-2,0.7v17.3c0,3.7,2.7,3.8,2.7,3.8h-10.6c0,0,2.7-0.1,2.7-3.8v-16.4
		c0-2.9-2.7-2.8-2.7-2.8l7.6-1l0.2,1.7l3.9-1.2c4.5-1.5,7.9-1,9.6,1.7l5.2-1.7c6.8-2.2,11-0.1,11,7.5v12.2c0,3.7,2.7,3.8,2.7,3.8
		h-10.6C199.3,313.4,202,313.3,202,309.6z"/>
	<path class="st0" d="M245.2,309.6v-12.2c0-6-2-7.8-7.7-5.8l-2.8,1c0.5,1.2,0.8,2.9,0.8,4.8v12.2c0,3.7,2.7,3.8,2.7,3.8h-10.6
		c0,0,2.7-0.1,2.7-3.8v-12.2c0-6-2-7.8-7.7-5.8l-2,0.7v17.3c0,3.7,2.7,3.8,2.7,3.8h-10.6c0,0,2.7-0.1,2.7-3.8v-16.4
		c0-2.9-2.7-2.8-2.7-2.8l7.6-1l0.2,1.7l3.9-1.2c4.5-1.5,7.9-1,9.6,1.7l5.2-1.7c6.8-2.2,11-0.1,11,7.5v12.2c0,3.7,2.7,3.8,2.7,3.8
		h-10.6C242.5,313.4,245.2,313.3,245.2,309.6z"/>
	<path class="st0" d="M264.2,309.6c0,3.7,2.7,3.8,2.7,3.8h-10.6c0,0,2.7-0.1,2.7-3.8v-16.4c0-2.9-2.7-2.8-2.7-2.8l7.8-1V309.6z
		 M258.3,282.8c0,1.8,1.2,3,3.1,3c1.9,0,3.3-1.2,3.3-3c0-1.8-1.4-3-3.3-3C259.6,279.8,258.3,281,258.3,282.8z"/>
	<path class="st0" d="M279.7,290.7v18.9c0,3.7,2.7,3.8,2.7,3.8h-10.6c0,0,2.7-0.1,2.7-3.8v-18.9h-5.7v-1.3h5.7v-5.8
		c0-3.3-2.7-3.1-2.7-3.1l7.8-0.7v9.6h5.3v1.3H279.7z"/>
	<path class="st0" d="M345.7,289.4c0,0-1.4-8.3-7.3-8.3h-6v28.5c0,3.7,2.7,3.8,2.7,3.8h-10.6c0,0,2.7-0.1,2.7-3.8v-28.5h-5.7
		c-5.9,0-7.3,8.3-7.3,8.3l0.5-9.6h30.3L345.7,289.4z"/>
	<path class="st0" d="M355.5,291.2l3.8-1.1c8.3-2.4,12.4-0.3,12.4,7.3v12.2c0,3.7,2.7,3.8,2.7,3.8h-10.6c0,0,2.7-0.1,2.7-3.8v-12.2
		c0-6-3-7.3-9.1-5.6l-2,0.6v17.2c0,3.7,2.7,3.8,2.7,3.8h-10.6c0,0,2.7-0.1,2.7-3.8v-29.8c0-3.3-2.7-3.1-2.7-3.1l7.8-0.7V291.2z"/>
	<path class="st0" d="M389.1,289c7.7,0,10.9,5.5,10.9,10.2h-18c0,7.3,3.3,11.6,8.8,11.6c4.8,0,8-2.6,9.4-6.6
		c-0.8,5.6-5.1,9.6-10.8,9.6c-7.6,0-12.7-5-12.7-12.6C376.8,293.9,381.5,289,389.1,289z M394.4,297.8c0-0.9,0-7.5-5.3-7.5
		c-6.2,0-7,6.6-7,7.5H394.4z"/>
	<path class="st0" d="M406.2,311.9c-1.4,0.8-2.2,2-2.2,2v-13.2c1.3,8.3,5.1,11.7,12,11.7c3,0,5.3-1.7,5.3-4.1c0-2.5-1.7-4.1-7.3-5.6
		c-7.2-1.7-10-3.6-10-7.3c0-3.5,2.5-6.5,11.1-6.5c5.3,0,8.1,2.3,8.1,2.3c1.1-0.8,1.5-2.4,1.5-2.4v11.8c0-6.8-4.2-10.4-10.2-10.4
		c-3.2,0-6.3,1.2-6.3,3.3c0,2.5,4,3.5,10.1,5.3c6.1,1.8,7.6,4.3,7.6,7.9c0,3.9-3.3,7-10.7,7C412,313.8,408.6,313.2,406.2,311.9z"/>
	<path class="st0" d="M441.7,289c7.7,0,10.9,5.5,10.9,10.2h-18c0,7.3,3.3,11.6,8.8,11.6c4.8,0,8-2.6,9.4-6.6
		c-0.8,5.6-5.1,9.6-10.8,9.6c-7.6,0-12.7-5-12.7-12.6C429.4,293.9,434.1,289,441.7,289z M447,297.8c0-0.9,0-7.5-5.3-7.5
		c-6.2,0-7,6.6-7,7.5H447z"/>
	<path class="st0" d="M511.6,291.2v11.6c0,0-0.1-5.1-7.4-5.1h-10v12c0,3.7,2.7,3.8,2.7,3.8h-10.6c0,0,2.7-0.1,2.7-3.8v-25.1
		c0,0,0-4.8-4-4.8h28.7l1.1,7.9c0,0-1.8-6.5-8.4-6.5h-12.1v15.1l10,0C511.6,296.4,511.6,291.2,511.6,291.2z"/>
	<path class="st0" d="M536.9,293.1c0,1.3-0.8,2.4-2.6,2.4c-1.9,0-2.8-1.2-2.7-2.4c-0.1-2.2-2.4-3.6-7.5-0.2v16.7
		c0,3.7,2.7,3.8,2.7,3.8h-10.6c0,0,2.7-0.1,2.7-3.8v-16.4c0-2.9-2.7-2.8-2.7-2.8l7.6-1l0.2,1.8v0.4l1.7-1.1
		C530.7,287.5,536.9,289,536.9,293.1z"/>
	<path class="st0" d="M562.7,309.6c0,3.7,2.7,3.8,2.7,3.8h-7.6l-0.2-1.8l-3.8,1.1c-8.7,2.5-12.9,0.3-12.9-6v-13.5
		c0-2.9-2.7-2.8-2.7-2.8l7.8-1v17.3c0,4.7,3,6.2,9.6,4.3l2-0.6v-17.2c0-2.9-2.7-2.8-2.7-2.8l7.8-1V309.6z"/>
	<path class="st0" d="M576.5,309.6c0,3.7,2.7,3.8,2.7,3.8h-10.6c0,0,2.7-0.1,2.7-3.8v-16.4c0-2.9-2.7-2.8-2.7-2.8l7.8-1V309.6z
		 M570.6,282.8c0,1.8,1.2,3,3.1,3s3.3-1.2,3.3-3c0-1.8-1.4-3-3.3-3S570.6,281,570.6,282.8z"/>
	<path class="st0" d="M592,290.7v18.9c0,3.7,2.7,3.8,2.7,3.8h-10.6c0,0,2.7-0.1,2.7-3.8v-18.9h-5.7v-1.3h5.7v-5.8
		c0-3.3-2.7-3.1-2.7-3.1l7.8-0.7v9.6h5.3v1.3H592z"/>
	<path class="st0" d="M601.9,311.9c-1.4,0.8-2.2,2-2.2,2v-13.2c1.3,8.3,5.1,11.7,12,11.7c3,0,5.3-1.7,5.3-4.1c0-2.5-1.7-4.1-7.3-5.6
		c-7.2-1.7-10-3.6-10-7.3c0-3.5,2.5-6.5,11.1-6.5c5.3,0,8.1,2.3,8.1,2.3c1.1-0.8,1.5-2.4,1.5-2.4v11.8c0-6.8-4.2-10.4-10.2-10.4
		c-3.2,0-6.3,1.2-6.3,3.3c0,2.5,4,3.5,10.1,5.3c6.1,1.8,7.6,4.3,7.6,7.9c0,3.9-3.3,7-10.7,7C607.7,313.8,604.3,313.2,601.9,311.9z"
		/>
	<path class="st0" d="M684.4,289.4c0,0-1.4-8.3-7.3-8.3h-6v28.5c0,3.7,2.7,3.8,2.7,3.8h-10.6c0,0,2.7-0.1,2.7-3.8v-28.5h-5.7
		c-5.9,0-7.3,8.3-7.3,8.3l0.5-9.6h30.3L684.4,289.4z"/>
	<path class="st0" d="M694.1,291.2l3.8-1.1c8.3-2.4,12.4-0.3,12.4,7.3v12.2c0,3.7,2.7,3.8,2.7,3.8h-10.6c0,0,2.7-0.1,2.7-3.8v-12.2
		c0-6-3-7.3-9.1-5.6l-2,0.6v17.2c0,3.7,2.7,3.8,2.7,3.8h-10.6c0,0,2.7-0.1,2.7-3.8v-29.8c0-3.3-2.7-3.1-2.7-3.1l7.8-0.7V291.2z"/>
	<path class="st0" d="M727.7,289c7.7,0,10.9,5.5,10.9,10.2h-18c0,7.3,3.3,11.6,8.8,11.6c4.8,0,8-2.6,9.4-6.6
		c-0.8,5.6-5.1,9.6-10.8,9.6c-7.6,0-12.7-5-12.7-12.6C715.5,293.9,720.2,289,727.7,289z M733.1,297.8c0-0.9,0-7.5-5.3-7.5
		c-6.2,0-7,6.6-7,7.5H733.1z"/>
	<path class="st0" d="M744.9,311.9c-1.4,0.8-2.2,2-2.2,2v-13.2c1.3,8.3,5.1,11.7,12,11.7c3,0,5.3-1.7,5.3-4.1c0-2.5-1.7-4.1-7.3-5.6
		c-7.2-1.7-10-3.6-10-7.3c0-3.5,2.5-6.5,11.1-6.5c5.3,0,8.1,2.3,8.1,2.3c1.1-0.8,1.5-2.4,1.5-2.4v11.8c0-6.8-4.2-10.4-10.2-10.4
		c-3.2,0-6.3,1.2-6.3,3.3c0,2.5,4,3.5,10.1,5.3c6.1,1.8,7.6,4.3,7.6,7.9c0,3.9-3.3,7-10.7,7C750.7,313.8,747.2,313.2,744.9,311.9z"
		/>
	<path class="st0" d="M780.3,289c7.7,0,10.9,5.5,10.9,10.2h-18c0,7.3,3.3,11.6,8.8,11.6c4.8,0,8-2.6,9.4-6.6
		c-0.8,5.6-5.1,9.6-10.8,9.6c-7.6,0-12.7-5-12.7-12.6C768.1,293.9,772.8,289,780.3,289z M785.7,297.8c0-0.9,0-7.5-5.3-7.5
		c-6.2,0-7,6.6-7,7.5H785.7z"/>
	<path class="st0" d="M38.4,334.2c0,0-3.5,0-5.8,6.5l-9.6,27.1h-5.4l-11.4-30c-0.9-2.1-2.8-3.6-4-3.6h10.6c0,0-2.2,0.6-1.1,3.6
		l10.6,28l8.9-25.1c2.3-6.5-1.9-6.5-1.9-6.5H38.4z"/>
	<path class="st0" d="M49.7,343.4c7.7,0,10.9,5.5,10.9,10.2h-18c0,7.3,3.3,11.6,8.8,11.6c4.8,0,8-2.6,9.4-6.6
		c-0.8,5.6-5.1,9.6-10.8,9.6c-7.6,0-12.7-5-12.7-12.6C37.4,348.3,42.1,343.4,49.7,343.4z M55,352.2c0-0.9,0-7.5-5.3-7.5
		c-6.2,0-7,6.6-7,7.5H55z"/>
	<path class="st0" d="M89.2,371.3c0,5.4-3.8,9.6-12.4,9.6c-8.7,0-13.1-3.4-13.1-7.9c0-3.9,3.5-5.8,4.7-6c-4.9-0.9-4.7-6.4-0.2-7.8
		c-2-1.5-3.1-3.8-3.1-6.9c0-5.9,4.7-9,10.4-9c2.7,0,5.1,0.6,6.9,1.9c2.4-3.8,4.8-3.9,5.8-3.4c1,0.5,1.5,1.4,0.9,2.5
		s-1.5,1.2-2.5,0.6c-1.2-0.6-2.2,0-3.1,1.1c1.6,1.5,2.5,3.6,2.5,6.2c0,5.7-4.1,8.8-10.4,8.8c-2.4,0-4.4-0.4-6-1.2
		c-0.6,0.2-0.9,0.6-0.9,1.3c0,1.2,2.4,2.2,10,2.2C85.7,363.6,89.2,367.5,89.2,371.3z M84.5,373c0-2.9-2.8-5.2-7.9-5.2
		c-1.8,0-4,0-5.8-0.2c-1.3,0.6-2.6,2.5-2.6,4.9c0,4.1,3.2,7.2,8.6,7.2C81.8,379.6,84.5,376.5,84.5,373z M70.1,352.4
		c0,5.1,2.1,7.5,5.4,7.5c3.3,0,5.4-2.4,5.4-7.5c0-5.3-2.1-7.6-5.4-7.6C72.3,344.8,70.1,347.1,70.1,352.4z"/>
	<path class="st0" d="M103.6,343.4c7.7,0,10.9,5.5,10.9,10.2h-18c0,7.3,3.3,11.6,8.8,11.6c4.8,0,8-2.6,9.4-6.6
		c-0.8,5.6-5.1,9.6-10.8,9.6c-7.6,0-12.7-5-12.7-12.6C91.3,348.3,96,343.4,103.6,343.4z M108.9,352.2c0-0.9,0-7.5-5.3-7.5
		c-6.2,0-7,6.6-7,7.5H108.9z"/>
	<path class="st0" d="M127,345.1V364c0,3.7,2.7,3.8,2.7,3.8h-10.6c0,0,2.7-0.1,2.7-3.8v-18.9h-5.7v-1.3h5.7V338
		c0-3.3-2.7-3.1-2.7-3.1l7.8-0.7v9.6h5.3v1.3H127z"/>
	<path class="st0" d="M151.9,367.8l-0.8-2.6l-3,1.3c-6.8,3-14.1,2-14.1-4.6c0-6,6.1-6.7,16.8-9.9c-0.2-6.6-2.4-7.4-5.2-7.4
		c-2.9,0-4.7,1.5-4.7,3.8c0,1.7-0.8,2.8-2.6,2.8c-1.9,0-2.8-1.2-2.7-2.8c0-1.7,2.2-5.1,10-5.1c7.5,0,10.4,2.8,10.4,8.5V364
		c0,3.7,2.7,3.8,2.7,3.8H151.9z M149.9,364.4l0.9-0.4v-10.5l-0.6,0.2c-8.1,2.3-11.4,3.5-11.4,7.5
		C138.8,365.8,144.1,366.8,149.9,364.4z"/>
	<path class="st0" d="M188.5,355.2c0,9.2-5.2,13-12,13c-2.8,0-5.2-0.9-7.1-2.3v0.1l-0.5,1.8h-7.3c0,0,2.7-0.1,2.7-3.8v-30.8
		c0-2.9-2.7-2.8-2.7-2.8l7.8-1v16c1.9-1.2,4.2-2,7.1-2C183.4,343.4,188.5,347.8,188.5,355.2z M182.8,355.2c0-6.7-3.5-10.3-7.6-10.3
		c-2.4,0-4.4,0.9-5.9,2.3v17.2c1.5,1.2,3.4,2.1,5.9,2.1C179.9,366.5,182.8,362.6,182.8,355.2z"/>
	<path class="st0" d="M200.1,364c0,3.7,2.7,3.8,2.7,3.8h-10.6c0,0,2.7-0.1,2.7-3.8v-29.8c0-3.3-2.7-3.1-2.7-3.1l7.8-0.7V364z"/>
	<path class="st0" d="M218.5,343.4c7.7,0,10.9,5.5,10.9,10.2h-18c0,7.3,3.3,11.6,8.8,11.6c4.8,0,8-2.6,9.4-6.6
		c-0.8,5.6-5.1,9.6-10.8,9.6c-7.6,0-12.7-5-12.7-12.6C206.2,348.3,210.9,343.4,218.5,343.4z M223.8,352.2c0-0.9,0-7.5-5.3-7.5
		c-6.2,0-7,6.6-7,7.5H223.8z"/>
	<path class="st0" d="M235.6,366.3c-1.4,0.8-2.2,2-2.2,2v-13.2c1.3,8.3,5.1,11.7,12,11.7c3,0,5.3-1.7,5.3-4.1c0-2.5-1.7-4.1-7.3-5.6
		c-7.2-1.7-10-3.6-10-7.3c0-3.5,2.5-6.5,11.1-6.5c5.3,0,8.1,2.3,8.1,2.3c1.1-0.8,1.5-2.4,1.5-2.4v11.8c0-6.8-4.2-10.4-10.2-10.4
		c-3.2,0-6.3,1.2-6.3,3.3c0,2.5,4,3.5,10.1,5.3c6.1,1.8,7.6,4.3,7.6,7.9c0,3.9-3.3,7-10.7,7C241.5,368.2,238,367.6,235.6,366.3z"/>
	<path class="st0" d="M295.9,338v26c0,3.7,2.7,3.8,2.7,3.8h-10.6c0,0,2.7-0.1,2.7-3.8v-26c0-3.7-2.7-3.8-2.7-3.8h10.6
		C298.7,334.2,295.9,334.3,295.9,338z"/>
	<path class="st0" d="M310.3,364c0,3.7,2.7,3.8,2.7,3.8h-10.6c0,0,2.7-0.1,2.7-3.8v-29.8c0-3.3-2.7-3.1-2.7-3.1l7.8-0.7V364z"/>
	<path class="st0" d="M324.7,364c0,3.7,2.7,3.8,2.7,3.8h-10.6c0,0,2.7-0.1,2.7-3.8v-29.8c0-3.3-2.7-3.1-2.7-3.1l7.8-0.7V364z"/>
	<path class="st0" d="M355.4,364c0,3.7,2.7,3.8,2.7,3.8h-7.6l-0.2-1.8l-3.8,1.1c-8.7,2.5-12.9,0.3-12.9-6v-13.5
		c0-2.9-2.7-2.8-2.7-2.8l7.8-1v17.3c0,4.7,3,6.2,9.6,4.3l2-0.6v-17.2c0-2.9-2.7-2.8-2.7-2.8l7.8-1V364z"/>
	<path class="st0" d="M364,366.3c-1.4,0.8-2.2,2-2.2,2v-13.2c1.3,8.3,5.1,11.7,12,11.7c3,0,5.3-1.7,5.3-4.1c0-2.5-1.7-4.1-7.3-5.6
		c-7.2-1.7-10-3.6-10-7.3c0-3.5,2.5-6.5,11.1-6.5c5.3,0,8.1,2.3,8.1,2.3c1.1-0.8,1.5-2.4,1.5-2.4v11.8c0-6.8-4.2-10.4-10.2-10.4
		c-3.2,0-6.3,1.2-6.3,3.3c0,2.5,4,3.5,10.1,5.3c6.1,1.8,7.6,4.3,7.6,7.9c0,3.9-3.3,7-10.7,7C369.9,368.2,366.4,367.6,364,366.3z"/>
	<path class="st0" d="M395.5,364c0,3.7,2.7,3.8,2.7,3.8h-10.6c0,0,2.7-0.1,2.7-3.8v-16.4c0-2.9-2.7-2.8-2.7-2.8l7.8-1V364z
		 M389.6,337.2c0,1.8,1.2,3,3.1,3s3.3-1.2,3.3-3c0-1.8-1.4-3-3.3-3S389.6,335.4,389.6,337.2z"/>
	<path class="st0" d="M401.6,355.6c0-7.3,5.5-12.2,13.1-12.2s13.1,4.9,13.1,12.2c0,7.5-5.5,12.6-13.1,12.6S401.6,363.1,401.6,355.6z
		 M422.2,355.6c0-4.2-1.2-10.8-7.4-10.8c-6.2,0-7.4,6.6-7.4,10.8c0,4.3,1.2,11.2,7.4,11.2C421,366.8,422.2,359.9,422.2,355.6z"/>
	<path class="st0" d="M438.6,345.6l3.8-1.1c8.3-2.4,12.4-0.3,12.4,7.3V364c0,3.7,2.7,3.8,2.7,3.8h-10.6c0,0,2.7-0.1,2.7-3.8v-12.2
		c0-6-3-7.3-9.1-5.6l-2,0.6V364c0,3.7,2.7,3.8,2.7,3.8h-10.6c0,0,2.7-0.1,2.7-3.8v-16.4c0-2.9-2.7-2.8-2.7-2.8l7.6-1L438.6,345.6z"
		/>
	<path class="st0" d="M489.2,355.6c0-7.3,5.5-12.2,13.1-12.2c7.6,0,13.1,4.9,13.1,12.2c0,7.5-5.5,12.6-13.1,12.6
		C494.7,368.2,489.2,363.1,489.2,355.6z M509.7,355.6c0-4.2-1.2-10.8-7.4-10.8c-6.2,0-7.4,6.6-7.4,10.8c0,4.3,1.2,11.2,7.4,11.2
		C508.5,366.8,509.7,359.9,509.7,355.6z"/>
	<path class="st0" d="M536.3,337.1c-1.8,0-2.6-1.2-2.6-2.8c0-2.3-1.3-3.4-3.4-3.4c-2.5,0-3.7,0.9-3.7,8.4v4.5h9.6v1.3h-9.6V364
		c0,3.7,2.7,3.8,2.7,3.8h-10.6c0,0,2.7-0.1,2.7-3.8v-18.9h-4.6v-1.3h4.6v-4.5c0-7,1.3-9.8,8.8-9.8c6.8,0,8.7,3,8.7,4.7
		C539.1,335.9,538.2,337.1,536.3,337.1z"/>
	<path class="st0" d="M570.6,365.9c-1.9,1.1-2.8,2.7-2.8,2.7v-17.8c0.2,6.7,4.1,16.5,14.1,16.5c6.6,0,9.2-2.2,9.2-6.5
		c0-3.7-3.9-6.1-10.8-8c-8.3-2.3-12.5-5.4-12.5-10.5c0-4.6,3.9-8.7,14.4-8.7c3.6,0,7.2,1,10,2.8c1.7-0.5,2.1-2.9,2.1-2.9v16.6
		c-1.5-11.6-6.6-15.2-12.1-15.2c-5.5,0-9.8,1.7-9.8,5.5c0,3.4,2.6,4.4,14,8.1c7.2,2.3,9.6,6.8,9.6,10.7c0,6.4-5.1,9.5-14.1,9.5
		C578,368.7,573.8,367.7,570.6,365.9z"/>
	<path class="st0" d="M612.1,343.4c7.7,0,10.9,5.5,10.9,10.2h-18c0,7.3,3.3,11.6,8.8,11.6c4.8,0,8-2.6,9.4-6.6
		c-0.8,5.6-5.1,9.6-10.8,9.6c-7.6,0-12.7-5-12.7-12.6C599.8,348.3,604.5,343.4,612.1,343.4z M617.4,352.2c0-0.9,0-7.5-5.3-7.5
		c-6.2,0-7,6.6-7,7.5H617.4z"/>
	<path class="st0" d="M626.1,355.6c0-7.3,5.5-12.2,13.1-12.2c2.8,0,5.4,1.1,7.6,2.3c0.8,0,1.7-0.8,2.2-2.1l-0.2,10.9
		c-0.6-5.2-3.8-9.8-9.9-9.7c-3.7,0-7.4,3.6-7.3,10.3c0,5.7,3.5,10.2,8.9,10.2c4.8,0,8.1-2.7,9.5-6.7c-0.8,5.6-5.3,9.6-10.9,9.6
		C631.4,368.2,626.1,363.1,626.1,355.6z"/>
	<path class="st0" d="M661.1,364c0,3.7,2.7,3.8,2.7,3.8h-10.6c0,0,2.7-0.1,2.7-3.8v-29.8c0-3.3-2.7-3.1-2.7-3.1l7.8-0.7V364z"/>
	<path class="st0" d="M691.7,364c0,3.7,2.7,3.8,2.7,3.8h-7.6l-0.2-1.8l-3.8,1.1c-8.7,2.5-12.9,0.3-12.9-6v-13.5
		c0-2.9-2.7-2.8-2.7-2.8l7.8-1v17.3c0,4.7,3,6.2,9.6,4.3l2-0.6v-17.2c0-2.9-2.7-2.8-2.7-2.8l7.8-1V364z"/>
	<path class="st0" d="M700.4,366.3c-1.4,0.8-2.2,2-2.2,2v-13.2c1.3,8.3,5.1,11.7,12,11.7c3,0,5.3-1.7,5.3-4.1c0-2.5-1.7-4.1-7.3-5.6
		c-7.2-1.7-10-3.6-10-7.3c0-3.5,2.5-6.5,11.1-6.5c5.3,0,8.1,2.3,8.1,2.3c1.1-0.8,1.5-2.4,1.5-2.4v11.8c0-6.8-4.2-10.4-10.2-10.4
		c-3.2,0-6.3,1.2-6.3,3.3c0,2.5,4,3.5,10.1,5.3c6.1,1.8,7.6,4.3,7.6,7.9c0,3.9-3.3,7-10.7,7C706.2,368.2,702.7,367.6,700.4,366.3z"
		/>
	<path class="st0" d="M731.9,364c0,3.7,2.7,3.8,2.7,3.8H724c0,0,2.7-0.1,2.7-3.8v-16.4c0-2.9-2.7-2.8-2.7-2.8l7.8-1V364z M726,337.2
		c0,1.8,1.2,3,3.1,3s3.3-1.2,3.3-3c0-1.8-1.4-3-3.3-3S726,335.4,726,337.2z"/>
	<path class="st0" d="M738,355.6c0-7.3,5.5-12.2,13.1-12.2c7.6,0,13.1,4.9,13.1,12.2c0,7.5-5.5,12.6-13.1,12.6
		C743.4,368.2,738,363.1,738,355.6z M758.5,355.6c0-4.2-1.2-10.8-7.4-10.8c-6.2,0-7.4,6.6-7.4,10.8c0,4.3,1.2,11.2,7.4,11.2
		C757.3,366.8,758.5,359.9,758.5,355.6z"/>
	<path class="st0" d="M774.9,345.6l3.8-1.1c8.3-2.4,12.4-0.3,12.4,7.3V364c0,3.7,2.7,3.8,2.7,3.8h-10.6c0,0,2.7-0.1,2.7-3.8v-12.2
		c0-6-3-7.3-9.1-5.6l-2,0.6V364c0,3.7,2.7,3.8,2.7,3.8H767c0,0,2.7-0.1,2.7-3.8v-16.4c0-2.9-2.7-2.8-2.7-2.8l7.6-1L774.9,345.6z"/>
	<path class="st0" d="M8.7,418.4v-26c0-3.7-2.7-3.8-2.7-3.8h15.7c10.5,0,17.9,6.2,17.9,16.8c0,10.5-7.4,16.8-17.9,16.8H5.9
		C5.9,422.2,8.7,422.1,8.7,418.4z M21.6,420.9c9.9,0,12.2-9.6,12.2-15.5c0-5.9-2.3-15.5-12.2-15.5h-7.8v30.9H21.6z"/>
	<path class="st0" d="M66.9,418.4c0,3.7,2.7,3.8,2.7,3.8H62l-0.2-1.8l-3.8,1.1c-8.7,2.5-12.9,0.3-12.9-6V402c0-2.9-2.7-2.8-2.7-2.8
		l7.8-1v17.3c0,4.7,3,6.2,9.6,4.3l2-0.6V402c0-2.9-2.7-2.8-2.7-2.8l7.8-1V418.4z"/>
	<path class="st0" d="M75.6,420.7c-1.4,0.8-2.2,2-2.2,2v-13.2c1.3,8.3,5.1,11.7,12,11.7c3,0,5.3-1.7,5.3-4.1c0-2.5-1.7-4.1-7.3-5.6
		c-7.2-1.7-10-3.6-10-7.3c0-3.5,2.5-6.5,11.1-6.5c5.3,0,8.1,2.3,8.1,2.3c1.1-0.8,1.5-2.4,1.5-2.4v11.8c0-6.8-4.2-10.4-10.2-10.4
		c-3.2,0-6.3,1.2-6.3,3.3c0,2.5,4,3.5,10.1,5.3c6.1,1.8,7.6,4.3,7.6,7.9c0,3.9-3.3,7-10.7,7C81.4,422.6,77.9,422,75.6,420.7z"/>
	<path class="st0" d="M128.5,422.2h-12.7c0,0,3.8-0.2,2-3.6L112,408l-4.9,3.9v6.5c0,3.7,2.7,3.8,2.7,3.8H99.2c0,0,2.7-0.1,2.7-3.8
		v-30.8c0-2.9-2.7-2.8-2.7-2.8l7.8-1v26.4l6.1-4.8h0c8.8-6.9,1.7-7.1,1.1-7.1h13.5c0,0-3.4,0.1-7.3,3l-4.6,3.6l7.9,13.8
		C125.7,422.1,128.5,422.2,128.5,422.2z M114.3,398.2L114.3,398.2L114.3,398.2z"/>
	<path class="st0" d="M156.8,405.2c0-10.6,7.9-17.2,18.3-17.2c4.1,0,7.9,1.2,11,2.9c1.6-0.5,1.9-3.1,1.9-3.1l1.2,14.6
		c-1.3-6.2-5.9-13.1-14.2-13.1c-9.7,0-12.7,8.6-12.7,15.8c0,8.7,6.1,15.2,14.5,15.2c5.2,0,10.4-2,12.8-7.1
		c-1.7,6.3-7.3,10.1-14.6,10.1C163.1,423.4,156.7,414.8,156.8,405.2z"/>
	<path class="st0" d="M201,400l3.8-1.1c8.3-2.4,12.4-0.3,12.4,7.3v12.2c0,3.7,2.7,3.8,2.7,3.8h-10.6c0,0,2.7-0.1,2.7-3.8v-12.2
		c0-6-3-7.3-9.1-5.6l-2,0.6v17.2c0,3.7,2.7,3.8,2.7,3.8h-10.6c0,0,2.7-0.1,2.7-3.8v-29.8c0-3.3-2.7-3.1-2.7-3.1l7.8-0.7V400z"/>
	<path class="st0" d="M243,401.9c0,1.3-0.8,2.4-2.6,2.4c-1.9,0-2.8-1.2-2.7-2.4c-0.1-2.2-2.4-3.6-7.5-0.2v16.7
		c0,3.7,2.7,3.8,2.7,3.8h-10.6c0,0,2.7-0.1,2.7-3.8V402c0-2.9-2.7-2.8-2.7-2.8l7.6-1l0.2,1.8v0.4l1.7-1.1
		C236.8,396.3,243,397.8,243,401.9z"/>
	<path class="st0" d="M244.2,410c0-7.3,5.5-12.2,13.1-12.2c7.6,0,13.1,4.9,13.1,12.2c0,7.5-5.5,12.6-13.1,12.6
		C249.7,422.6,244.2,417.5,244.2,410z M264.8,410c0-4.2-1.2-10.8-7.4-10.8c-6.2,0-7.4,6.6-7.4,10.8c0,4.3,1.2,11.2,7.4,11.2
		C263.6,421.2,264.8,414.3,264.8,410z"/>
	<path class="st0" d="M305.8,418.4v-12.2c0-6-2-7.8-7.7-5.8l-2.8,1c0.5,1.2,0.8,2.9,0.8,4.8v12.2c0,3.7,2.7,3.8,2.7,3.8h-10.6
		c0,0,2.7-0.1,2.7-3.8v-12.2c0-6-2-7.8-7.7-5.8l-2,0.7v17.3c0,3.7,2.7,3.8,2.7,3.8h-10.6c0,0,2.7-0.1,2.7-3.8V402
		c0-2.9-2.7-2.8-2.7-2.8l7.6-1l0.2,1.7l3.9-1.2c4.5-1.5,7.9-1,9.6,1.7l5.2-1.7c6.8-2.2,11-0.1,11,7.5v12.2c0,3.7,2.7,3.8,2.7,3.8
		h-10.6C303.1,422.2,305.8,422.1,305.8,418.4z"/>
	<path class="st0" d="M328.8,397.8c7.7,0,10.9,5.5,10.9,10.2h-18c0,7.3,3.3,11.6,8.8,11.6c4.8,0,8-2.6,9.4-6.6
		c-0.8,5.6-5.1,9.6-10.8,9.6c-7.6,0-12.7-5-12.7-12.6C316.5,402.7,321.2,397.8,328.8,397.8z M334.1,406.6c0-0.9,0-7.5-5.3-7.5
		c-6.2,0-7,6.6-7,7.5H334.1z"/>
	<path class="st0" d="M405.6,422.2h-12.9c0,0,4.2,0,1.7-6.5l-2.4-6.3l-16.6,6.3c-2.3,6.5,4.3,6.5,4.4,6.5h-13.5c0,0,5.3,0,7.6-6.5
		l4.5-12.6c3.6-10.1,5.2-14.5-2.3-14.5h13.2l10.4,27.3C402.1,422.2,405.6,422.2,405.6,422.2z M391.6,408.1l-6.9-18.2L376,414
		L391.6,408.1z"/>
	<path class="st0" d="M408.2,420.7c-1.4,0.8-2.2,2-2.2,2v-13.2c1.3,8.3,5.1,11.7,12,11.7c3,0,5.3-1.7,5.3-4.1c0-2.5-1.7-4.1-7.3-5.6
		c-7.2-1.7-10-3.6-10-7.3c0-3.5,2.5-6.5,11.1-6.5c5.3,0,8.1,2.3,8.1,2.3c1.1-0.8,1.5-2.4,1.5-2.4v11.8c0-6.8-4.2-10.4-10.2-10.4
		c-3.2,0-6.3,1.2-6.3,3.3c0,2.5,4,3.5,10.1,5.3c6.1,1.8,7.6,4.3,7.6,7.9c0,3.9-3.3,7-10.7,7C414,422.6,410.6,422,408.2,420.7z"/>
	<path class="st0" d="M440.8,399.5v18.9c0,3.7,2.7,3.8,2.7,3.8H433c0,0,2.7-0.1,2.7-3.8v-18.9H430v-1.3h5.7v-5.8
		c0-3.3-2.7-3.1-2.7-3.1l7.8-0.7v9.6h5.3v1.3H440.8z"/>
	<path class="st0" d="M468.3,401.9c0,1.3-0.8,2.4-2.6,2.4c-1.9,0-2.8-1.2-2.7-2.4c-0.1-2.2-2.4-3.6-7.5-0.2v16.7
		c0,3.7,2.7,3.8,2.7,3.8h-10.6c0,0,2.7-0.1,2.7-3.8V402c0-2.9-2.7-2.8-2.7-2.8l7.6-1l0.2,1.8v0.4l1.7-1.1
		C462,396.3,468.3,397.8,468.3,401.9z"/>
	<path class="st0" d="M487.7,422.2l-0.8-2.6l-3,1.3c-6.8,3-14.1,2-14.1-4.6c0-6,6.1-6.7,16.8-9.9c-0.2-6.6-2.4-7.4-5.2-7.4
		c-2.9,0-4.7,1.5-4.7,3.8c0,1.7-0.8,2.8-2.6,2.8c-1.9,0-2.8-1.2-2.7-2.8c0-1.7,2.2-5.1,10-5.1c7.5,0,10.4,2.8,10.4,8.5v12.2
		c0,3.7,2.7,3.8,2.7,3.8H487.7z M485.6,418.8l0.9-0.4v-10.5l-0.6,0.2c-8.1,2.3-11.4,3.5-11.4,7.5
		C474.5,420.2,479.8,421.2,485.6,418.8z"/>
	<path class="st0" d="M505.5,418.4c0,3.7,2.7,3.8,2.7,3.8h-10.6c0,0,2.7-0.1,2.7-3.8v-29.8c0-3.3-2.7-3.1-2.7-3.1l7.8-0.7V418.4z"/>
	<path class="st0" d="M572.8,398.6c0,7.5-8.3,10.3-14.9,10.3c-3.6,0-6.8-0.2-8.7-0.3v9.8c0,3.7,2.7,3.8,2.7,3.8h-10.6
		c0,0,2.7-0.1,2.7-3.8v-25.1c0,0,0-4.8-4.1-4.8h17.3C564.7,388.6,572.8,390.9,572.8,398.6z M567.3,398.9c0-6-3.5-9-11.1-9h-7.1v17.5
		c1.8,0,4.8,0.1,8.4,0.1C563.9,407.6,567.3,403.8,567.3,398.9z"/>
	<path class="st0" d="M594.9,401.9c0,1.3-0.8,2.4-2.6,2.4c-1.9,0-2.8-1.2-2.7-2.4c-0.1-2.2-2.4-3.6-7.5-0.2v16.7
		c0,3.7,2.7,3.8,2.7,3.8h-10.6c0,0,2.7-0.1,2.7-3.8V402c0-2.9-2.7-2.8-2.7-2.8l7.6-1l0.2,1.8v0.4l1.7-1.1
		C588.6,396.3,594.9,397.8,594.9,401.9z"/>
	<path class="st0" d="M596.1,410c0-7.3,5.5-12.2,13.1-12.2c7.6,0,13.1,4.9,13.1,12.2c0,7.5-5.5,12.6-13.1,12.6
		C601.6,422.6,596.1,417.5,596.1,410z M616.7,410c0-4.2-1.2-10.8-7.4-10.8c-6.2,0-7.4,6.6-7.4,10.8c0,4.3,1.2,11.2,7.4,11.2
		C615.5,421.2,616.7,414.3,616.7,410z"/>
	<path class="st0" d="M621.8,430.1c3.4,0,6.7-1.9,6.7-7.9V402c0-2.9-2.7-2.8-2.7-2.8l7.8-1v24C633.7,428.2,629.5,431.8,621.8,430.1z
		 M628.5,388.6v4.8h5.2v-4.8H628.5z"/>
	<path class="st0" d="M650.3,397.8c7.7,0,10.9,5.5,10.9,10.2h-18c0,7.3,3.3,11.6,8.8,11.6c4.8,0,8-2.6,9.4-6.6
		c-0.8,5.6-5.1,9.6-10.8,9.6c-7.6,0-12.7-5-12.7-12.6C638,402.7,642.7,397.8,650.3,397.8z M655.6,406.6c0-0.9,0-7.5-5.3-7.5
		c-6.2,0-7,6.6-7,7.5H655.6z"/>
	<path class="st0" d="M664.3,410c0-7.3,5.5-12.2,13.1-12.2c2.8,0,5.4,1.1,7.6,2.3c0.8,0,1.7-0.8,2.2-2.1l-0.2,10.9
		c-0.6-5.2-3.8-9.8-9.9-9.7c-3.7,0-7.4,3.6-7.3,10.3c0,5.7,3.5,10.2,8.9,10.2c4.8,0,8.1-2.7,9.5-6.7c-0.8,5.6-5.3,9.6-10.9,9.6
		C669.6,422.6,664.3,417.5,664.3,410z"/>
	<path class="st0" d="M700.4,399.5v18.9c0,3.7,2.7,3.8,2.7,3.8h-10.6c0,0,2.7-0.1,2.7-3.8v-18.9h-5.7v-1.3h5.7v-5.8
		c0-3.3-2.7-3.1-2.7-3.1l7.8-0.7v9.6h5.3v1.3H700.4z"/>
	<path class="st0" d="M715.5,418.4c0,3.7,2.7,3.8,2.7,3.8h-10.6c0,0,2.7-0.1,2.7-3.8V402c0-2.9-2.7-2.8-2.7-2.8l7.8-1V418.4z
		 M709.5,391.6c0,1.8,1.2,3,3.1,3s3.3-1.2,3.3-3c0-1.8-1.4-3-3.3-3S709.5,389.8,709.5,391.6z"/>
	<path class="st0" d="M721.5,410c0-7.3,5.5-12.2,13.1-12.2c7.6,0,13.1,4.9,13.1,12.2c0,7.5-5.5,12.6-13.1,12.6
		C727,422.6,721.5,417.5,721.5,410z M742.1,410c0-4.2-1.2-10.8-7.4-10.8c-6.2,0-7.4,6.6-7.4,10.8c0,4.3,1.2,11.2,7.4,11.2
		C740.9,421.2,742.1,414.3,742.1,410z"/>
	<path class="st0" d="M758.5,400l3.8-1.1c8.3-2.4,12.4-0.3,12.4,7.3v12.2c0,3.7,2.7,3.8,2.7,3.8h-10.6c0,0,2.7-0.1,2.7-3.8v-12.2
		c0-6-3-7.3-9.1-5.6l-2,0.6v17.2c0,3.7,2.7,3.8,2.7,3.8h-10.6c0,0,2.7-0.1,2.7-3.8V402c0-2.9-2.7-2.8-2.7-2.8l7.6-1L758.5,400z"/>
</g>
</svg>
