<?xml version="1.0" encoding="utf-8"?>
<!-- Generator: Adobe Illustrator 19.0.1, SVG Export Plug-In . SVG Version: 6.00 Build 0)  -->
<svg version="1.1" xmlns="http://www.w3.org/2000/svg" xmlns:xlink="http://www.w3.org/1999/xlink" x="0px" y="0px"
	 viewBox="0 0 821.6 310.3" style="enable-background:new 0 0 821.6 310.3;" xml:space="preserve">
<style type="text/css">
	.st0{display:none;}
	.st1{display:inline;}
	.st2{fill:#FF1F55;}
	.st3{fill:#E085DE;}
	.st4{fill:#FFFFFF;}
</style>
<g id="Layer_1" class="st0">
</g>
<g id="Layer_1_copy" class="st0">
</g>
<g id="Layer_1_copy_3" class="st0">
</g>
<g id="Layer_1_copy_8">
	<g>
		<path class="st2" d="M4.8,20.4c0-10.6,7.9-17.2,18.3-17.2c4.1,0,7.9,1.2,11,2.9C35.6,5.3,36.1,3,36.1,3l1.2,14.6
			C36,11.5,31.4,4.6,23.1,4.6c-9.3,0-12.7,7.8-12.7,15.4c0,9.2,6.1,15.5,14.5,15.5c5.2,0,10.4-1.8,12.8-7
			c-1.7,6.3-7.3,10.1-14.6,10.1C11.1,38.6,4.8,30,4.8,20.4z"/>
		<path class="st2" d="M76.4,20.6c0,10.5-7.4,17.7-17.9,17.7c-10.4,0-17.9-7.2-17.9-17.7c0-10.6,7.4-17.4,17.9-17.4
			C69,3.2,76.4,10,76.4,20.6z M70.7,20.6c0-5.9-2.3-16-12.2-16c-9.9,0-12.2,10.1-12.2,16c0,5.9,2.3,16.3,12.2,16.3
			C68.5,36.9,70.7,26.5,70.7,20.6z"/>
		<path class="st2" d="M83.8,3.8l25.1,26.1V10.3c0-6.3-4.6-6.5-4.6-6.5h10.2c0,0-4.3,0.1-4.3,6.5v23.3c0,3.7,1.3,3.8,1.3,3.8h-2.7
			L83.8,11.3v19.6c0,6.3,4.7,6.5,4.7,6.5H78.3c0,0,4-0.2,4-6.5V10c0,0,0-6.2-4.1-6.2H83.8z"/>
		<path class="st2" d="M146.9,13.4c0,0-1.4-8.3-7.3-8.3h-6v28.5c0,3.7,2.7,3.8,2.7,3.8h-10.6c0,0,2.7-0.1,2.7-3.8V5.1h-5.7
			c-5.9,0-7.3,8.3-7.3,8.3l0.5-9.6h30.3L146.9,13.4z"/>
		<path class="st2" d="M157.1,7.6v26c0,3.7,2.7,3.8,2.7,3.8h-10.6c0,0,2.7-0.1,2.7-3.8v-26c0-3.7-2.7-3.8-2.7-3.8h10.6
			C159.8,3.8,157.1,3.9,157.1,7.6z"/>
		<path class="st2" d="M167.7,3.8l25.1,26.1V10.3c0-6.3-4.6-6.5-4.6-6.5h10.2c0,0-4.3,0.1-4.3,6.5v23.3c0,3.7,1.3,3.8,1.3,3.8h-2.7
			l-25.1-26.1v19.6c0,6.3,4.7,6.5,4.7,6.5h-10.1c0,0,4-0.2,4-6.5V10c0,0,0-6.2-4.1-6.2H167.7z"/>
		<path class="st2" d="M230.7,10.3c0-6.3-4.6-6.5-4.6-6.5h10.2c0,0-4.3,0.1-4.3,6.5v13.2c0,10.4-4.7,14.8-13.6,14.8
			c-10.5,0-15.7-4.9-15.7-14.4V7.6c0-3.7-2.7-3.8-2.7-3.8h10.6c0,0-2.7,0.1-2.7,3.8v16.3c0,4.6,0.6,13,10.6,13
			c8.3,0,12.2-4.5,12.2-12.4V10.3z"/>
		<path class="st2" d="M266.1,28.3l-0.5,9.1h-28.2c0,0,2.7-0.1,2.7-3.8v-26c0-3.7-2.7-3.8-2.7-3.8H265l0.8,7.2c0,0-2.3-5.9-6.5-5.9
			h-14.1v14.3h9.3c7.3,0,7.4-5.1,7.4-5.1v11.6c0,0-0.1-5.1-7.4-5.1h-9.3v15.3h13.5C264.6,35.1,266.1,28.3,266.1,28.3z"/>
		<path class="st2" d="M317.8,28.3l-0.5,9.1h-28.2c0,0,2.7-0.1,2.7-3.8v-26c0-3.7-2.7-3.8-2.7-3.8h27.6l0.8,7.2c0,0-2.3-5.9-6.5-5.9
			H297v14.3h9.3c7.3,0,7.4-5.1,7.4-5.1v11.6c0,0-0.1-5.1-7.4-5.1H297v15.3h13.5C316.3,35.1,317.8,28.3,317.8,28.3z"/>
		<path class="st2" d="M325.7,3.8l25.1,26.1V10.3c0-6.3-4.6-6.5-4.6-6.5h10.2c0,0-4.3,0.1-4.3,6.5v23.3c0,3.7,1.3,3.8,1.3,3.8h-2.7
			l-25.1-26.1v19.6c0,6.3,4.7,6.5,4.7,6.5h-10.1c0,0,4-0.2,4-6.5V10c0,0,0-6.2-4.1-6.2H325.7z"/>
		<path class="st2" d="M358.4,20.4c0-10.6,7.9-17.2,18.3-17.2c4.1,0,7.9,1.2,11,2.9c1.4-0.8,1.9-3.1,1.9-3.1l1.2,14.6
			c-1.3-6.2-5.9-13.1-14.2-13.1c-9.3,0-12.7,7.8-12.7,15.4c0,9.2,6.1,15.5,14.5,15.5c5.2,0,10.4-1.8,12.8-7
			c-1.7,6.3-7.3,10.1-14.6,10.1C364.7,38.6,358.3,30,358.4,20.4z"/>
		<path class="st2" d="M429.9,20.6c0,10.5-7.4,17.7-17.9,17.7c-10.4,0-17.9-7.2-17.9-17.7c0-10.6,7.4-17.4,17.9-17.4
			C422.5,3.2,429.9,10,429.9,20.6z M424.3,20.6c0-5.9-2.3-16-12.2-16c-9.9,0-12.2,10.1-12.2,16c0,5.9,2.3,16.3,12.2,16.3
			C422,36.9,424.3,26.5,424.3,20.6z"/>
		<path class="st2" d="M459.3,34c-0.5-1.8-1.2-4.1-2-7c-1.7-6.2-6.3-5.9-6.5-5.9l-9.7,0.9v11.6c0,3.7,2.7,3.8,2.7,3.8h-10.5
			c0,0,2.7-0.1,2.7-3.8v-26c0-3.7-2.7-3.8-2.7-3.8h17.5c9,0,14.1,1.4,14.1,8.1s-5.2,8.3-11,8.9c7-0.7,8.1,2.8,8.6,4.8
			c1.1,4,2,11.8,6.1,11.8h-11.1C457.6,37.4,460.1,37.4,459.3,34z M459.5,12.5c0-4.9-1.7-7.3-8.7-7.3h-9.7v15.6l9.7-0.9
			C456,19.3,459.5,17,459.5,12.5z"/>
		<path class="st2" d="M498.9,28.3l-0.5,9.1h-28.2c0,0,2.7-0.1,2.7-3.8v-26c0-3.7-2.7-3.8-2.7-3.8h27.6l0.8,7.2c0,0-2.3-5.9-6.5-5.9
			H478v14.3h9.3c7.3,0,7.4-5.1,7.4-5.1v11.6c0,0-0.1-5.1-7.4-5.1H478v15.3h13.5C497.4,35.1,498.9,28.3,498.9,28.3z"/>
		<path class="st2" d="M524.2,33.6v-26c0-3.7-2.7-3.8-2.7-3.8h15.7c10.5,0,17.9,6.2,17.9,16.8c0,10.5-7.4,16.8-17.9,16.8h-15.7
			C521.4,37.4,524.2,37.3,524.2,33.6z M537.1,36.1c9.9,0,12.2-9.6,12.2-15.5c0-5.9-2.3-15.5-12.2-15.5h-7.8v30.9H537.1z"/>
		<path class="st2" d="M592.2,37.4h-15.6c1.2,0,4.7-0.7,2.4-4l-8.5-11.1l-5.4,7.9c-3.1,4.6-2.8,7.1,3.2,7.2h-14.8
			c3.6-0.1,6-1.4,9.8-7.1l6.2-9.2l-9.9-12.9c-2.4-3.2-4.6-4.4-6.9-4.4h15.6c-1.3,0-4.5,0.7-2.2,4.3l8.3,10.8l5.4-7.9
			c3.3-4.8,2.8-7.1-3.2-7.2h14.8c-3.6,0.1-6,1.4-9.8,7.1l-6.3,9.3l10.5,13.7C588,36.3,590.1,37.4,592.2,37.4z"/>
		<path class="st2" d="M39.8,91.8H26.9c0,0,4.2,0,1.7-6.5l-2.4-6.3L9.7,85.3c-2.3,6.5,4.3,6.5,4.4,6.5H1.4c0,0,4.5,0,6.8-6.5
			l4.5-12.6c3.6-10.1,5.2-14.5-0.4-14.5h11.3l10.4,27.3C36.3,91.8,39.8,91.8,39.8,91.8z M25.8,77.7l-6.9-18.2l-8.6,24.1L25.8,77.7z"
			/>
		<path class="st2" d="M69.3,67.8c0,0-1.4-8.3-7.3-8.3h-6V88c0,3.7,2.7,3.8,2.7,3.8H48.1c0,0,2.7-0.1,2.7-3.8V59.5h-5.7
			c-5.9,0-7.3,8.3-7.3,8.3l0.5-9.6h30.3L69.3,67.8z"/>
		<path class="st2" d="M101.6,67.8c0,0-1.4-8.3-7.3-8.3h-6V88c0,3.7,2.7,3.8,2.7,3.8H80.5c0,0,2.7-0.1,2.7-3.8V59.5h-5.7
			c-5.9,0-7.3,8.3-7.3,8.3l0.5-9.6h30.3L101.6,67.8z"/>
		<path class="st2" d="M132.7,82.7l-0.5,9.1H104c0,0,2.7-0.1,2.7-3.8V62c0-3.7-2.7-3.8-2.7-3.8h27.6l0.8,7.2c0,0-2.3-5.9-6.5-5.9
			h-14.1v14.3h9.3c7.3,0,7.4-5.1,7.4-5.1v11.6c0,0-0.1-5.1-7.4-5.1h-9.3v15.3h13.5C131.2,89.5,132.7,82.7,132.7,82.7z"/>
		<path class="st2" d="M140.6,58.2l25.1,26.1V64.7c0-6.3-4.6-6.5-4.6-6.5h10.2c0,0-4.3,0.1-4.3,6.5V88c0,3.7,1.3,3.8,1.3,3.8h-2.7
			l-25.1-26.1v19.6c0,6.3,4.7,6.5,4.7,6.5h-10.1c0,0,4-0.2,4-6.5V64.4c0,0,0-6.2-4.1-6.2H140.6z"/>
		<path class="st2" d="M203.7,67.8c0,0-1.4-8.3-7.3-8.3h-6V88c0,3.7,2.7,3.8,2.7,3.8h-10.6c0,0,2.7-0.1,2.7-3.8V59.5h-5.7
			c-5.9,0-7.3,8.3-7.3,8.3l0.5-9.6h30.3L203.7,67.8z"/>
		<path class="st2" d="M213.9,62v26c0,3.7,2.7,3.8,2.7,3.8h-10.6c0,0,2.7-0.1,2.7-3.8V62c0-3.7-2.7-3.8-2.7-3.8h10.6
			C216.7,58.2,213.9,58.3,213.9,62z"/>
		<path class="st2" d="M255.7,75c0,10.5-7.4,17.7-17.9,17.7c-10.4,0-17.9-7.2-17.9-17.7c0-10.6,7.4-17.4,17.9-17.4
			C248.4,57.6,255.7,64.4,255.7,75z M250.1,75c0-5.9-2.3-16-12.2-16c-9.9,0-12.2,10.1-12.2,16c0,5.9,2.3,16.3,12.2,16.3
			C247.8,91.3,250.1,80.9,250.1,75z"/>
		<path class="st2" d="M263.1,58.2l25.1,26.1V64.7c0-6.3-4.6-6.5-4.6-6.5h10.2c0,0-4.3,0.1-4.3,6.5V88c0,3.7,1.3,3.8,1.3,3.8h-2.7
			l-25.1-26.1v19.6c0,6.3,4.7,6.5,4.7,6.5h-10.1c0,0,4-0.2,4-6.5V64.4c0,0,0-6.2-4.1-6.2H263.1z"/>
		<path class="st2" d="M342,82.1c0,6.8-5.7,10.1-13.5,10.1c-7.9,0-13.5-3.3-13.5-10.1c0-5,3.3-8.2,8.3-9.5c-3.6-1.1-5.9-3.6-5.9-7.2
			c0-5.1,4.6-7.5,11.1-7.5s11.1,2.4,11.1,7.5c0,3.7-2.3,6.1-5.9,7.2C338.8,73.8,342,77,342,82.1z M336.9,82.1c0-3.9-1.8-8.7-8.4-8.7
			c-6.7,0-8.4,4.8-8.4,8.7c0,3.8,1.7,9,8.4,9C335.1,91.1,336.9,85.9,336.9,82.1z M328.5,72c4.6,0,6.8-3.7,6.8-6.7
			c0-2.9-2.2-6.2-6.8-6.2c-5.6,0-6.8,3.3-6.8,6.2C321.7,68.3,322.9,72,328.5,72z"/>
		<path class="st2" d="M420,58.2c-3,0.2-6.4,0.6-9.6,9.6l-9.1,24h-5.4l-7-20.7l-7.7,20.7h-5.4l-10-26.4c-2.6-6.4-5.5-7.2-8-7.2h15.5
			c0,0-4.5,0.6-2.1,7.2l9.3,24.6l7.7-20.9l-1.3-3.8c-2.6-6.5-6-7.1-8.5-7.1H396c0,0-6,0.6-3.6,7.1l8.2,24.5l8.4-22
			c3.2-9-4.9-9.6-4.9-9.6H420z"/>
		<path class="st2" d="M447.4,91.8h-12.9c0,0,4.2,0,1.7-6.5l-2.4-6.3l-16.6,6.3c-2.3,6.5,4.3,6.5,4.4,6.5H409c0,0,4.5,0,6.8-6.5
			l4.5-12.6c3.6-10.1,5.2-14.5-0.4-14.5h11.3l10.4,27.3C443.9,91.8,447.4,91.8,447.4,91.8z M433.3,77.7l-6.9-18.2l-8.6,24.1
			L433.3,77.7z"/>
		<path class="st2" d="M451.3,58.2c0,0-4.3,0.1-1.2,5.4l8.8,14.9l8.9-14.4c3.6-5.8-1.1-5.9-1.1-5.9h10.7c0,0-4.5,0.1-8.4,6.5
			l-8.9,14.5h0V88c0,3.7,2.7,3.8,2.7,3.8h-10.6c0,0,2.7-0.1,2.7-3.8v-7.5l-9.8-15.8c-3.9-6.3-8.4-6.5-8.4-6.5H451.3z"/>
		<path class="st2" d="M529,91.8h-14.9c0,0,4.2,0,1.8-4.5L507,73l-5.5,4.4V88c0,3.7,2.7,3.8,2.7,3.8h-10.6c0,0,2.7-0.1,2.7-3.8V62
			c0-3.7-2.7-3.8-2.7-3.8h10.6c0,0-2.7,0.1-2.7,3.8v13.7l12.1-9.6c8.5-7.2,1.5-7.9,1.5-7.9H529c-0.5,0-4.4,0.7-8.5,4l-9.4,7.7
			l10.8,17.4C524.7,91.8,528.9,91.8,529,91.8z"/>
		<path class="st2" d="M578.6,67.8c0,0-1.4-8.3-7.3-8.3h-6V88c0,3.7,2.7,3.8,2.7,3.8h-10.6c0,0,2.7-0.1,2.7-3.8V59.5h-5.7
			c-5.9,0-7.3,8.3-7.3,8.3l0.5-9.6h30.3L578.6,67.8z"/>
		<path class="st2" d="M616.5,91.8h-10.6c0,0,2.7-0.1,2.7-3.8V75.1h-19.7V88c0,3.7,2.7,3.8,2.7,3.8H581c0,0,2.7-0.1,2.7-3.8V62
			c0-3.7-2.7-3.8-2.7-3.8h10.6c0,0-2.7,0.1-2.7,3.8v11.8h19.7V62c0-3.7-2.7-3.8-2.7-3.8h10.6c0,0-2.7,0.1-2.7,3.8v26
			C613.8,91.7,616.5,91.8,616.5,91.8z"/>
		<path class="st2" d="M649,82.7l-0.5,9.1h-28.2c0,0,2.7-0.1,2.7-3.8V62c0-3.7-2.7-3.8-2.7-3.8h27.6l0.8,7.2c0,0-2.3-5.9-6.5-5.9
			h-14.1v14.3h9.3c7.3,0,7.4-5.1,7.4-5.1v11.6c0,0-0.1-5.1-7.4-5.1h-9.3v15.3h13.5C647.5,89.5,649,82.7,649,82.7z"/>
		<path class="st2" d="M684.2,85.3V61.6l-12.6,27.9l-14-28.5v24.3c0,6.4,4.2,6.5,4.2,6.5h-9.7c0,0,4.2-0.1,4.2-6.5V64.7
			c0-6.4-4.2-6.5-4.2-6.5h10.1l11.5,23.4l10.5-23.4h7.8c0,0-2.7,0.1-2.7,3.8v23.3c0,6.4,4.2,6.5,4.2,6.5h-12.9
			C680.7,91.8,684.2,91.7,684.2,85.3z"/>
		<path class="st2" d="M724.7,82.7l-0.5,9.1h-28.2c0,0,2.7-0.1,2.7-3.8V62c0-3.7-2.7-3.8-2.7-3.8h27.6l0.8,7.2c0,0-2.3-5.9-6.5-5.9
			h-14.1v14.3h9.3c7.3,0,7.4-5.1,7.4-5.1v11.6c0,0-0.1-5.1-7.4-5.1h-9.3v15.3h13.5C723.2,89.5,724.7,82.7,724.7,82.7z"/>
		<path class="st2" d="M13.1,116.4v26c0,3.7,2.7,3.8,2.7,3.8H5.3c0,0,2.7-0.1,2.7-3.8v-26c0-3.7-2.7-3.8-2.7-3.8h10.6
			C15.8,112.6,13.1,112.7,13.1,116.4z"/>
		<path class="st2" d="M23.7,112.6l25.1,26.1v-19.6c0-6.3-4.6-6.5-4.6-6.5h10.2c0,0-4.3,0.1-4.3,6.5v23.3c0,3.7,1.3,3.8,1.3,3.8
			h-2.7l-25.1-26.1v19.6c0,6.3,4.7,6.5,4.7,6.5H18.3c0,0,4-0.2,4-6.5v-20.9c0,0,0-6.2-4.1-6.2H23.7z"/>
		<path class="st2" d="M74.3,144.2l8.9-25.1c2.2-5.9-3.7-6.5-3.7-6.5H91c0,0-4.1,0.6-6.3,6.5L75,146.2h-5.4l-10-26.4
			c-2.4-6.4-5.5-7.2-8-7.2h15.5c0,0-4.6,0.7-2.1,7.2L74.3,144.2z"/>
		<path class="st2" d="M125.2,129.4c0,10.5-7.4,17.7-17.9,17.7c-10.4,0-17.9-7.2-17.9-17.7c0-10.6,7.4-17.4,17.9-17.4
			C117.8,112,125.2,118.8,125.2,129.4z M119.6,129.4c0-5.9-2.3-16-12.2-16c-9.9,0-12.2,10.1-12.2,16c0,5.9,2.3,16.3,12.2,16.3
			C117.3,145.7,119.6,135.3,119.6,129.4z"/>
		<path class="st2" d="M128.1,129.2c0-10.6,7.9-17.2,18.3-17.2c4.1,0,7.9,1.2,11,2.9c1.4-0.8,1.9-3.1,1.9-3.1l1.2,14.6
			c-1.3-6.2-5.9-13.1-14.2-13.1c-9.3,0-12.7,7.8-12.7,15.4c0,9.2,6.1,15.5,14.5,15.5c5.2,0,10.4-1.8,12.8-7
			c-1.7,6.3-7.3,10.1-14.6,10.1C134.4,147.4,128.1,138.8,128.1,129.2z"/>
		<path class="st2" d="M185.9,142.4v-26c0-3.7-2.7-3.8-2.7-3.8h15.7c10.5,0,17.9,6.2,17.9,16.8c0,10.5-7.4,16.8-17.9,16.8h-15.7
			C183.2,146.2,185.9,146.1,185.9,142.4z M198.9,144.9c9.9,0,12.2-9.6,12.2-15.5c0-5.9-2.3-15.5-12.2-15.5H191v30.9H198.9z"/>
		<path class="st2" d="M255.1,129.4c0,10.5-7.4,17.7-17.9,17.7c-10.4,0-17.9-7.2-17.9-17.7c0-10.6,7.4-17.4,17.9-17.4
			C247.7,112,255.1,118.8,255.1,129.4z M249.4,129.4c0-5.9-2.3-16-12.2-16c-9.9,0-12.2,10.1-12.2,16c0,5.9,2.3,16.3,12.2,16.3
			C247.2,145.7,249.4,135.3,249.4,129.4z"/>
		<path class="st2" d="M285.7,133.7l-1.1,12.5h-26.3c0.2,0,2.7-0.1,2.7-3.8v-26c0-3.7-2.7-3.8-2.7-3.8H269c0,0-2.7,0.1-2.7,3.8v28.5
			h9.3C284.7,144.9,285.7,133.7,285.7,133.7z"/>
		<path class="st2" d="M316.8,137.1l-0.5,9.1h-28.2c0,0,2.7-0.1,2.7-3.8v-26c0-3.7-2.7-3.8-2.7-3.8h27.6l0.8,7.2
			c0,0-2.3-5.9-6.5-5.9H296v14.3h9.3c7.3,0,7.4-5.1,7.4-5.1v11.6c0,0-0.1-5.1-7.4-5.1H296v15.3h13.5
			C315.4,143.9,316.8,137.1,316.8,137.1z"/>
		<path class="st2" d="M352.1,139.7V116l-12.6,27.9l-14-28.5v24.3c0,6.4,4.2,6.5,4.2,6.5H320c0,0,4.2-0.1,4.2-6.5v-20.5
			c0-6.4-4.2-6.5-4.2-6.5h10.1l11.5,23.4l10.5-23.4h7.8c0,0-2.7,0.1-2.7,3.8v23.3c0,6.4,4.2,6.5,4.2,6.5h-12.9
			C348.5,146.2,352.1,146.1,352.1,139.7z"/>
		<path class="st2" d="M367.8,112.6l25.1,26.1v-19.6c0-6.3-4.6-6.5-4.6-6.5h10.2c0,0-4.3,0.1-4.3,6.5v23.3c0,3.7,1.3,3.8,1.3,3.8
			h-2.7l-25.1-26.1v19.6c0,6.3,4.7,6.5,4.7,6.5h-10.1c0,0,4-0.2,4-6.5v-20.9c0,0,0-6.2-4.1-6.2H367.8z"/>
		<path class="st2" d="M448.9,137.1l-0.5,9.1h-28.2c0,0,2.7-0.1,2.7-3.8v-26c0-3.7-2.7-3.8-2.7-3.8h27.6l0.8,7.2
			c0,0-2.3-5.9-6.5-5.9h-14.1v14.3h9.3c7.3,0,7.4-5.1,7.4-5.1v11.6c0,0-0.1-5.1-7.4-5.1h-9.3v15.3h13.5
			C447.4,143.9,448.9,137.1,448.9,137.1z"/>
		<path class="st2" d="M481.1,112.6c0,0-4.3,0.1-1.2,5.4l8.8,14.9l8.9-14.4c3.6-5.8-1.1-5.9-1.1-5.9h10.7c0,0-4.5,0.1-8.4,6.5
			l-8.9,14.5h0v8.8c0,3.7,2.7,3.8,2.7,3.8h-10.6c0,0,2.7-0.1,2.7-3.8v-7.5l-9.8-15.8c-3.9-6.3-8.4-6.5-8.4-6.5H481.1z"/>
		<path class="st2" d="M530.3,142.8c-0.5-1.8-1.2-4.1-2-7c-1.7-6.2-6.3-5.9-6.5-5.9l-9.7,0.9v11.6c0,3.7,2.7,3.8,2.7,3.8h-10.5
			c0,0,2.7-0.1,2.7-3.8v-26c0-3.7-2.7-3.8-2.7-3.8h17.5c9,0,14.1,1.4,14.1,8.1s-5.2,8.3-11,8.9c7-0.7,8.1,2.8,8.6,4.8
			c1.1,4,2,11.8,6.1,11.8h-11.1C528.7,146.2,531.2,146.2,530.3,142.8z M530.5,121.3c0-4.9-1.7-7.3-8.7-7.3h-9.7v15.6l9.7-0.9
			C527,128.1,530.5,125.8,530.5,121.3z"/>
		<path class="st2" d="M562.7,142.4v-26c0-3.7-2.7-3.8-2.7-3.8h16.7c7.8,0,14.1,0.3,14.1,6.3c0,5.1-3.9,6.5-8.4,7
			c5.9,0,10.8,1.7,10.8,9.4c0,9-6.5,10.9-15.4,10.9h-17.8C559.9,146.2,562.7,146.1,562.7,142.4z M576.6,125.3c6.3,0,8.9-1.8,8.9-6.1
			c0-4.1-2.4-5.2-10.8-5.2h-6.9v11.4H576.6z M577.4,144.9c6.3,0,10-2.4,10-9.2c0-6-1.9-8.9-10.3-8.9h-9.4v18.1H577.4z"/>
		<path class="st2" d="M625.1,137.1l-0.5,9.1h-28.2c0,0,2.7-0.1,2.7-3.8v-26c0-3.7-2.7-3.8-2.7-3.8H624l0.8,7.2c0,0-2.3-5.9-6.5-5.9
			h-14.1v14.3h9.3c7.3,0,7.4-5.1,7.4-5.1v11.6c0,0-0.1-5.1-7.4-5.1h-9.3v15.3h13.5C623.7,143.9,625.1,137.1,625.1,137.1z"/>
		<path class="st2" d="M631.2,142.4v-26c0-3.7-2.7-3.8-2.7-3.8h15.7c10.5,0,17.9,6.2,17.9,16.8c0,10.5-7.4,16.8-17.9,16.8h-15.7
			C628.5,146.2,631.2,146.1,631.2,142.4z M644.2,144.9c9.9,0,12.2-9.6,12.2-15.5c0-5.9-2.3-15.5-12.2-15.5h-7.8v30.9H644.2z"/>
		<path class="st2" d="M13.1,170.8v26c0,3.7,2.7,3.8,2.7,3.8H5.3c0,0,2.7-0.1,2.7-3.8v-26c0-3.7-2.7-3.8-2.7-3.8h10.6
			C15.8,167,13.1,167.1,13.1,170.8z"/>
		<path class="st2" d="M23.7,167l25.1,26.1v-19.6c0-6.3-4.6-6.5-4.6-6.5h10.2c0,0-4.3,0.1-4.3,6.5v23.3c0,3.7,1.3,3.8,1.3,3.8h-2.7
			l-25.1-26.1v19.6c0,6.3,4.7,6.5,4.7,6.5H18.3c0,0,4-0.2,4-6.5v-20.9c0,0,0-6.2-4.1-6.2H23.7z"/>
		<path class="st2" d="M60.9,167L86,193.1v-19.6c0-6.3-4.6-6.5-4.6-6.5h10.2c0,0-4.3,0.1-4.3,6.5v23.3c0,3.7,1.3,3.8,1.3,3.8H86
			l-25.1-26.1v19.6c0,6.3,4.7,6.5,4.7,6.5H55.5c0,0,4-0.2,4-6.5v-20.9c0,0,0-6.2-4.1-6.2H60.9z"/>
		<path class="st2" d="M122.8,191.5l-0.5,9.1H94.1c0,0,2.7-0.1,2.7-3.8v-26c0-3.7-2.7-3.8-2.7-3.8h27.6l0.8,7.2c0,0-2.3-5.9-6.5-5.9
			H102v14.3h9.3c7.3,0,7.4-5.1,7.4-5.1V189c0,0-0.1-5.1-7.4-5.1H102v15.3h13.5C121.3,198.3,122.8,191.5,122.8,191.5z"/>
		<path class="st2" d="M152.6,197.2c-0.5-1.8-1.2-4.1-2-7c-1.7-6.2-6.3-5.9-6.5-5.9l-9.7,0.9v11.6c0,3.7,2.7,3.8,2.7,3.8h-10.5
			c0,0,2.7-0.1,2.7-3.8v-26c0-3.7-2.7-3.8-2.7-3.8h17.5c9,0,14.1,1.4,14.1,8.1s-5.2,8.3-11,8.9c7-0.7,8.1,2.8,8.6,4.8
			c1.1,4,2,11.8,6.1,11.8H151C151,200.6,153.5,200.6,152.6,197.2z M152.8,175.7c0-4.9-1.7-7.3-8.7-7.3h-9.7v15.6l9.7-0.9
			C149.3,182.5,152.8,180.2,152.8,175.7z"/>
		<path class="st2" d="M200.1,198.6l8.9-25.1c2.2-5.9-3.7-6.5-3.7-6.5h11.5c0,0-4.1,0.6-6.3,6.5l-9.6,27.1h-5.4l-10-26.4
			c-2.4-6.4-5.5-7.2-8-7.2h15.5c0,0-4.6,0.7-2.1,7.2L200.1,198.6z"/>
		<path class="st2" d="M251,183.8c0,10.5-7.4,17.7-17.9,17.7c-10.4,0-17.9-7.2-17.9-17.7c0-10.6,7.4-17.4,17.9-17.4
			C243.6,166.4,251,173.2,251,183.8z M245.4,183.8c0-5.9-2.3-16-12.2-16c-9.9,0-12.2,10.1-12.2,16c0,5.9,2.3,16.3,12.2,16.3
			C243.1,200.1,245.4,189.7,245.4,183.8z"/>
		<path class="st2" d="M287.6,200.6H272c1.2,0,4.7-0.7,2.4-4l-8.5-11.1l-5.4,7.9c-3.1,4.6-2.8,7.1,3.2,7.2h-14.8
			c3.6-0.1,6-1.4,9.8-7.1l6.2-9.2l-9.9-12.9c-2.4-3.2-4.6-4.4-6.9-4.4h15.6c-1.3,0-4.5,0.7-2.2,4.3l8.3,10.8l5.4-7.9
			c3.3-4.8,2.8-7.1-3.2-7.2h14.8c-3.6,0.1-6,1.4-9.8,7.1l-6.3,9.3l10.5,13.7C283.3,199.5,285.5,200.6,287.6,200.6z"/>
		<path class="st2" d="M317.2,191.5l-0.5,9.1h-28.2c0,0,2.7-0.1,2.7-3.8v-26c0-3.7-2.7-3.8-2.7-3.8h27.6l0.8,7.2
			c0,0-2.3-5.9-6.5-5.9h-14.1v14.3h9.3c7.3,0,7.4-5.1,7.4-5.1V189c0,0-0.1-5.1-7.4-5.1h-9.3v15.3h13.5
			C315.7,198.3,317.2,191.5,317.2,191.5z"/>
		<path class="st2" d="M324.9,198.7c-1.9,1.2-2.8,2.8-2.8,2.8v-17.9c0.2,6.7,4.3,16.4,14.2,16.4c5.6,0,8.6-2.1,8.6-6.5
			c0-3.7-2.2-5.7-10.4-8.5c-8.4-2.9-12.1-5.1-12.1-10.1c0-5.9,6.1-8.4,13.7-8.4c5.7,0,8.6,2.1,9.6,2.8c1.5-0.7,2.4-2.8,2.4-2.8v14.9
			c-0.2-8-4.9-13.5-12-13.5c-4.5,0-8.9,1.2-8.9,4.9c0,3.5,2,4.8,11.6,8.1c10.5,3.6,11.4,6.4,11.4,11.2c0,6.2-4.9,9.5-13.9,9.5
			C332.6,201.5,328,200.5,324.9,198.7z"/>
		<path class="st2" d="M405.1,183.8c0,10.7-6.3,17.7-16.3,17.7c-10,0-16.3-7-16.3-17.7c0-10.8,6.3-17.4,16.3-17.4
			C398.8,166.4,405.1,173,405.1,183.8z M378.1,183.8c0,2.5,0.2,5.8,1.2,8.8l18.6-18.6c-1.4-3.5-4.1-6.2-9.1-6.2
			C379.2,167.8,378.1,177.9,378.1,183.8z M399.4,183.8c0-2.4-0.2-5.5-1.1-8.4L379.8,194c1.4,3.5,4.1,6.1,9,6.1
			C398.3,200.1,399.4,189.7,399.4,183.8z"/>
		<path class="st2" d="M435.6,189.7c0,7.2-5.5,11.8-13.2,11.8c-9.6,0-14.5-4.8-14.5-16.8c0-13.7,6-18.2,14.4-18.2
			c6.9,0,10.8,3.4,10.8,7c0,1.3-0.7,2.5-2.4,2.5c-1.8,0-2.6-1.2-2.5-2.5c0-2.5-1.3-5.6-5.8-5.6c-7.7,0-8.3,7.5-8.3,13.4
			c2.1-1.3,5.2-2.4,8.9-2.4C430.3,178.8,435.6,182.1,435.6,189.7z M429.9,189.7c0-4.6-0.4-9.7-7.5-9.7c-3.4,0-6.5,1-8.4,2.8v1
			c0,6-0.6,16.3,8.4,16.3C428.7,200.1,429.9,193.6,429.9,189.7z"/>
		<path class="st2" d="M442.1,176.2c1.9,0,3.3,1.2,3.3,3c0,1.8-1.4,3-3.3,3s-3.1-1.2-3.1-3C439,177.4,440.2,176.2,442.1,176.2z
			 M442.1,195c1.9,0,3.3,1.2,3.3,3c0,1.8-1.4,3-3.3,3s-3.1-1.2-3.1-3C439,196.2,440.2,195,442.1,195z"/>
		<path class="st2" d="M474.4,189.2c0,7.9-5.5,11.8-13.1,11.8c-6.4,0-12.2-2.6-12.1-7.5c0-1.7,0.7-2.6,2.4-2.6c1.8,0,2.6,1,2.5,2.6
			c-0.1,1.6,0.9,6.1,7.2,6.1c6.2,0,7.4-5.8,7.4-9.2c0-5-1.2-10.6-9.2-10.6c-3.5,0-6.3,1.1-7,3.9l-1.3-0.4l2.1-15.1l0.2-1.8
			c4.1,1.8,16.4,2.4,20.2-0.8c-2.2,7.2-12.7,8.4-19.4,5.4l-1.3,9.5c2.1-1.7,5.6-1.9,8.4-1.9C469,178.6,474.4,182.3,474.4,189.2z"/>
		<path class="st2" d="M503,181.6c0,11-2.7,19.8-14.1,19.8c-4.9,0-10.2-2.6-11.2-7.1c2.3,3.6,5.9,4.9,9.8,4.9
			c7.3,0,9.2-5.7,9.6-14.6c-1.8,1.6-4.3,2.9-7.3,2.9c-6.9,0-13-2.8-13-10.5c0-6.1,5.4-10.7,12.5-10.7C498,166.4,503,171,503,181.6z
			 M497.2,182.8c0-1.1,0-2.1,0-3.2c0-6.4-1.9-11.8-7.9-11.8c-5.8,0-7.5,5.4-7.5,9.4c0,4.6,1.4,9.3,8,9.3
			C492.9,186.4,495.4,184.8,497.2,182.8z"/>
		<path class="st2" d="M559.8,200.6H547c0,0,4.2,0,1.7-6.5l-2.4-6.3l-16.6,6.3c-2.3,6.5,4.3,6.5,4.4,6.5h-12.6c0,0,4.5,0,6.8-6.5
			l4.5-12.6c3.6-10.1,5.2-14.5-0.4-14.5h11.3l10.4,27.3C556.4,200.6,559.8,200.6,559.8,200.6z M545.8,186.5l-6.9-18.2l-8.6,24.1
			L545.8,186.5z"/>
		<path class="st2" d="M590.7,194.1v-23.7l-12.6,27.9l-14-28.5v24.3c0,6.4,4.2,6.5,4.2,6.5h-9.7c0,0,4.2-0.1,4.2-6.5v-20.5
			c0-6.4-4.2-6.5-4.2-6.5h10.1l11.5,23.4l10.5-23.4h7.8c0,0-2.7,0.1-2.7,3.8v23.3c0,6.4,4.2,6.5,4.2,6.5h-12.9
			C587.2,200.6,590.7,200.5,590.7,194.1z"/>
		<path class="st2" d="M656.2,200.6h-12.9c0,0,4.2,0,1.7-6.5l-2.4-6.3l-16.6,6.3c-2.3,6.5,4.3,6.5,4.4,6.5h-12.6c0,0,4.5,0,6.8-6.5
			l4.5-12.6c3.6-10.1,5.2-14.5-0.4-14.5h11.3l10.4,27.3C652.7,200.6,656.2,200.6,656.2,200.6z M642.1,186.5l-6.9-18.2l-8.6,24.1
			L642.1,186.5z"/>
		<path class="st2" d="M683,188.1l-1.1,12.5h-26.3c0.2,0,2.7-0.1,2.7-3.8v-26c0-3.7-2.7-3.8-2.7-3.8h10.6c0,0-2.7,0.1-2.7,3.8v28.5
			h9.3C681.9,199.3,683,188.1,683,188.1z"/>
		<path class="st2" d="M719.9,200.6H707c0,0,4.2,0,1.7-6.5l-2.4-6.3l-16.6,6.3c-2.3,6.5,4.3,6.5,4.4,6.5h-12.6c0,0,4.5,0,6.8-6.5
			l4.5-12.6c3.6-10.1,5.2-14.5-0.4-14.5h11.3l10.4,27.3C716.4,200.6,719.9,200.6,719.9,200.6z M705.9,186.5l-6.9-18.2l-8.6,24.1
			L705.9,186.5z"/>
		<path class="st2" d="M745.4,197.2c-0.5-1.8-1.2-4.1-2-7c-1.7-6.2-6.3-5.9-6.5-5.9l-9.7,0.9v11.6c0,3.7,2.7,3.8,2.7,3.8h-10.5
			c0,0,2.7-0.1,2.7-3.8v-26c0-3.7-2.7-3.8-2.7-3.8h17.5c9,0,14.1,1.4,14.1,8.1s-5.2,8.3-11,8.9c7-0.7,8.1,2.8,8.6,4.8
			c1.1,4,2,11.8,6.1,11.8h-11.1C743.8,200.6,746.3,200.6,745.4,197.2z M745.6,175.7c0-4.9-1.7-7.3-8.7-7.3h-9.7v15.6l9.7-0.9
			C742.1,182.5,745.6,180.2,745.6,175.7z"/>
		<path class="st2" d="M787.7,194.1v-23.7l-12.6,27.9l-14-28.5v24.3c0,6.4,4.2,6.5,4.2,6.5h-9.7c0,0,4.2-0.1,4.2-6.5v-20.5
			c0-6.4-4.2-6.5-4.2-6.5h10.1l11.5,23.4l10.5-23.4h7.8c0,0-2.7,0.1-2.7,3.8v23.3c0,6.4,4.2,6.5,4.2,6.5h-12.9
			C784.1,200.6,787.7,200.5,787.7,194.1z"/>
		<path class="st2" d="M4.8,238c0-10.6,7.9-17.2,18.3-17.2c4.1,0,7.9,1.2,11,2.9c1.4-0.8,1.9-3.1,1.9-3.1l1.2,14.6
			c-1.3-6.2-5.9-13.1-14.2-13.1c-9.3,0-12.7,7.8-12.7,15.4c0,9.2,6.1,15.5,14.5,15.5c5.2,0,10.4-1.8,12.8-7
			c-1.7,6.3-7.3,10.1-14.6,10.1C11.1,256.2,4.8,247.6,4.8,238z"/>
		<path class="st2" d="M68.5,242.5L67.4,255H41.1c0.2,0,2.7-0.1,2.7-3.8v-26c0-3.7-2.7-3.8-2.7-3.8h10.6c0,0-2.7,0.1-2.7,3.8v28.5
			h9.3C67.4,253.7,68.5,242.5,68.5,242.5z"/>
		<path class="st2" d="M106.1,238.2c0,10.5-7.4,17.7-17.9,17.7c-10.4,0-17.9-7.2-17.9-17.7c0-10.6,7.4-17.4,17.9-17.4
			C98.7,220.8,106.1,227.6,106.1,238.2z M100.4,238.2c0-5.9-2.3-16-12.2-16c-9.9,0-12.2,10.1-12.2,16c0,5.9,2.3,16.3,12.2,16.3
			C98.2,254.5,100.4,244.1,100.4,238.2z"/>
		<path class="st2" d="M109,238c0-10.6,7.9-17.2,18.3-17.2c4.1,0,7.9,1.2,11,2.9c1.4-0.8,1.9-3.1,1.9-3.1l1.2,14.6
			c-1.3-6.2-5.9-13.1-14.2-13.1c-9.3,0-12.7,7.8-12.7,15.4c0,9.2,6.1,15.5,14.5,15.5c5.2,0,10.4-1.8,12.8-7
			c-1.7,6.3-7.3,10.1-14.6,10.1C115.3,256.2,108.9,247.6,109,238z"/>
		<path class="st2" d="M180.6,255h-14.9c0,0,4.2,0,1.8-4.5l-8.9-14.3l-5.5,4.4v10.6c0,3.7,2.7,3.8,2.7,3.8h-10.6
			c0,0,2.7-0.1,2.7-3.8v-26c0-3.7-2.7-3.8-2.7-3.8h10.6c0,0-2.7,0.1-2.7,3.8v13.7l12.1-9.6c8.5-7.2,1.5-7.9,1.5-7.9h13.8
			c-0.5,0-4.4,0.7-8.5,4l-9.4,7.7l10.8,17.4C176.3,255,180.5,255,180.6,255z"/>
		<path class="st2" d="M226.3,251.6c-0.5-1.8-1.2-4.1-2-7c-1.7-6.2-6.3-5.9-6.5-5.9l-9.7,0.9v11.6c0,3.7,2.7,3.8,2.7,3.8h-10.5
			c0,0,2.7-0.1,2.7-3.8v-26c0-3.7-2.7-3.8-2.7-3.8h17.5c9,0,14.1,1.4,14.1,8.1s-5.2,8.3-11,8.9c7-0.7,8.1,2.8,8.6,4.8
			c1.1,4,2,11.8,6.1,11.8h-11.1C224.6,255,227.1,255,226.3,251.6z M226.5,230.1c0-4.9-1.7-7.3-8.7-7.3h-9.7v15.6l9.7-0.9
			C222.9,236.9,226.5,234.6,226.5,230.1z"/>
		<path class="st2" d="M267,227.9c0-6.3-4.6-6.5-4.6-6.5h10.2c0,0-4.3,0.1-4.3,6.5V241c0,10.4-4.7,14.8-13.6,14.8
			c-10.5,0-15.7-4.9-15.7-14.4v-16.3c0-3.7-2.7-3.8-2.7-3.8H247c0,0-2.7,0.1-2.7,3.8v16.3c0,4.6,0.6,13,10.6,13
			c8.3,0,12.2-4.5,12.2-12.4V227.9z"/>
		<path class="st2" d="M277.4,253.1c-1.9,1.2-2.8,2.8-2.8,2.8V238c0.2,6.7,4.3,16.4,14.2,16.4c5.6,0,8.6-2.1,8.6-6.5
			c0-3.7-2.2-5.7-10.4-8.5c-8.4-2.9-12.1-5.1-12.1-10.1c0-5.9,6.1-8.4,13.7-8.4c5.7,0,8.6,2.1,9.6,2.8c1.5-0.7,2.4-2.8,2.4-2.8v14.9
			c-0.2-8-4.9-13.5-12-13.5c-4.5,0-8.9,1.2-8.9,4.9c0,3.5,2,4.8,11.6,8.1c10.5,3.6,11.4,6.4,11.4,11.2c0,6.2-4.9,9.5-13.9,9.5
			C285.1,255.9,280.6,254.9,277.4,253.1z"/>
		<path class="st2" d="M341.7,255h-10.6c0,0,2.7-0.1,2.7-3.8v-12.9h-19.7v12.9c0,3.7,2.7,3.8,2.7,3.8h-10.6c0,0,2.7-0.1,2.7-3.8v-26
			c0-3.7-2.7-3.8-2.7-3.8h10.6c0,0-2.7,0.1-2.7,3.8V237h19.7v-11.8c0-3.7-2.7-3.8-2.7-3.8h10.6c0,0-2.7,0.1-2.7,3.8v26
			C339,254.9,341.7,255,341.7,255z"/>
		<path class="st2" d="M400.2,255h-10.6c0,0,2.7-0.1,2.7-3.8v-12.9h-19.7v12.9c0,3.7,2.7,3.8,2.7,3.8h-10.6c0,0,2.7-0.1,2.7-3.8v-26
			c0-3.7-2.7-3.8-2.7-3.8h10.6c0,0-2.7,0.1-2.7,3.8V237h19.7v-11.8c0-3.7-2.7-3.8-2.7-3.8h10.6c0,0-2.7,0.1-2.7,3.8v26
			C397.5,254.9,400.2,255,400.2,255z"/>
		<path class="st2" d="M439.3,238.2c0,10.5-7.4,17.7-17.9,17.7c-10.4,0-17.9-7.2-17.9-17.7c0-10.6,7.4-17.4,17.9-17.4
			C431.9,220.8,439.3,227.6,439.3,238.2z M433.6,238.2c0-5.9-2.3-16-12.2-16c-9.9,0-12.2,10.1-12.2,16c0,5.9,2.3,16.3,12.2,16.3
			C431.4,254.5,433.6,244.1,433.6,238.2z"/>
		<path class="st2" d="M472.5,227.9c0-6.3-4.6-6.5-4.6-6.5h10.2c0,0-4.3,0.1-4.3,6.5V241c0,10.4-4.7,14.8-13.6,14.8
			c-10.5,0-15.7-4.9-15.7-14.4v-16.3c0-3.7-2.7-3.8-2.7-3.8h10.6c0,0-2.7,0.1-2.7,3.8v16.3c0,4.6,0.6,13,10.6,13
			c8.3,0,12.2-4.5,12.2-12.4V227.9z"/>
		<path class="st2" d="M505.1,251.6c-0.5-1.8-1.2-4.1-2-7c-1.7-6.2-6.3-5.9-6.5-5.9l-9.7,0.9v11.6c0,3.7,2.7,3.8,2.7,3.8h-10.5
			c0,0,2.7-0.1,2.7-3.8v-26c0-3.7-2.7-3.8-2.7-3.8h17.5c9,0,14.1,1.4,14.1,8.1s-5.2,8.3-11,8.9c7-0.7,8.1,2.8,8.6,4.8
			c1.1,4,2,11.8,6.1,11.8h-11.1C503.5,255,506,255,505.1,251.6z M505.3,230.1c0-4.9-1.7-7.3-8.7-7.3H487v15.6l9.7-0.9
			C501.8,236.9,505.3,234.6,505.3,230.1z"/>
		<path class="st2" d="M9.1,307.5c-1.9,1.2-2.8,2.8-2.8,2.8v-17.9c0.2,6.7,4.3,16.4,14.2,16.4c5.6,0,8.6-2.1,8.6-6.5
			c0-3.7-2.2-5.7-10.4-8.5c-8.4-2.9-12.1-5.1-12.1-10.1c0-5.9,6.1-8.4,13.7-8.4c5.7,0,8.6,2.1,9.6,2.8c1.5-0.7,2.4-2.8,2.4-2.8v14.9
			c-0.2-8-4.9-13.5-12-13.5c-4.5,0-8.9,1.2-8.9,4.9c0,3.5,2,4.8,11.6,8.1c10.5,3.6,11.4,6.4,11.4,11.2c0,6.2-4.9,9.5-13.9,9.5
			C16.8,310.3,12.2,309.3,9.1,307.5z"/>
		<path class="st2" d="M67.8,282.3c0-6.3-4.6-6.5-4.6-6.5h10.2c0,0-4.3,0.1-4.3,6.5v13.2c0,10.4-4.7,14.8-13.6,14.8
			c-10.5,0-15.7-4.9-15.7-14.4v-16.3c0-3.7-2.7-3.8-2.7-3.8h10.6c0,0-2.7,0.1-2.7,3.8v16.3c0,4.6,0.6,13,10.6,13
			c8.3,0,12.2-4.5,12.2-12.4V282.3z"/>
		<path class="st2" d="M105.7,285.4c0,7.8-8.3,10.7-14.9,10.7h-8.7v9.5c0,3.7,2.7,3.8,2.7,3.8H74.3c0,0,2.7-0.1,2.7-3.8v-25.1
			c0,0,0-4.8-4.1-4.8h17.3C97.7,275.8,105.7,277.4,105.7,285.4z M100.3,286.1c0-6-3.5-9-11.1-9h-7.1v17.6h8.4
			C96.9,294.8,100.3,291,100.3,286.1z"/>
		<path class="st2" d="M136.4,300.3l-0.5,9.1h-28.2c0,0,2.7-0.1,2.7-3.8v-26c0-3.7-2.7-3.8-2.7-3.8h27.6l0.8,7.2
			c0,0-2.3-5.9-6.5-5.9h-14.1v14.3h9.3c7.3,0,7.4-5.1,7.4-5.1v11.6c0,0-0.1-5.1-7.4-5.1h-9.3v15.3h13.5
			C134.9,307.1,136.4,300.3,136.4,300.3z"/>
		<path class="st2" d="M166.2,306c-0.5-1.8-1.2-4.1-2-7c-1.7-6.2-6.3-5.9-6.5-5.9L148,294v11.6c0,3.7,2.7,3.8,2.7,3.8h-10.5
			c0,0,2.7-0.1,2.7-3.8v-26c0-3.7-2.7-3.8-2.7-3.8h17.5c9,0,14.1,1.4,14.1,8.1c0,6.6-5.2,8.3-11,8.9c7-0.7,8.1,2.8,8.6,4.8
			c1.1,4,2,11.8,6.1,11.8h-11.1C164.5,309.4,167,309.4,166.2,306z M166.4,284.5c0-4.9-1.7-7.3-8.7-7.3H148v15.6l9.7-0.9
			C162.9,291.3,166.4,289,166.4,284.5z"/>
		<path class="st2" d="M180.9,307.5c-1.9,1.2-2.8,2.8-2.8,2.8v-17.9c0.2,6.7,4.3,16.4,14.2,16.4c5.6,0,8.6-2.1,8.6-6.5
			c0-3.7-2.2-5.7-10.4-8.5c-8.4-2.9-12.1-5.1-12.1-10.1c0-5.9,6.1-8.4,13.7-8.4c5.7,0,8.6,2.1,9.6,2.8c1.5-0.7,2.4-2.8,2.4-2.8v14.9
			c-0.2-8-4.9-13.5-12-13.5c-4.5,0-8.9,1.2-8.9,4.9c0,3.5,2,4.8,11.6,8.1c10.5,3.6,11.4,6.4,11.4,11.2c0,6.2-4.9,9.5-13.9,9.5
			C188.6,310.3,184,309.3,180.9,307.5z"/>
		<path class="st2" d="M241.1,285.4c0,7.8-8.3,10.7-14.9,10.7h-8.7v9.5c0,3.7,2.7,3.8,2.7,3.8h-10.6c0,0,2.7-0.1,2.7-3.8v-25.1
			c0,0,0-4.8-4.1-4.8h17.3C233,275.8,241.1,277.4,241.1,285.4z M235.6,286.1c0-6-3.5-9-11.1-9h-7.1v17.6h8.4
			C232.2,294.8,235.6,291,235.6,286.1z"/>
		<path class="st2" d="M271.7,300.3l-0.5,9.1H243c0,0,2.7-0.1,2.7-3.8v-26c0-3.7-2.7-3.8-2.7-3.8h27.6l0.8,7.2c0,0-2.3-5.9-6.5-5.9
			h-14.1v14.3h9.3c7.3,0,7.4-5.1,7.4-5.1v11.6c0,0-0.1-5.1-7.4-5.1h-9.3v15.3h13.5C270.2,307.1,271.7,300.3,271.7,300.3z"/>
		<path class="st2" d="M304.2,300.3l-0.5,9.1h-28.2c0,0,2.7-0.1,2.7-3.8v-26c0-3.7-2.7-3.8-2.7-3.8h27.6l0.8,7.2
			c0,0-2.3-5.9-6.5-5.9h-14.1v14.3h9.3c7.3,0,7.4-5.1,7.4-5.1v11.6c0,0-0.1-5.1-7.4-5.1h-9.3v15.3h13.5
			C302.7,307.1,304.2,300.3,304.2,300.3z"/>
		<path class="st2" d="M310.3,305.6v-26c0-3.7-2.7-3.8-2.7-3.8h15.7c10.5,0,17.9,6.2,17.9,16.8c0,10.5-7.4,16.8-17.9,16.8h-15.7
			C307.6,309.4,310.3,309.3,310.3,305.6z M323.3,308.1c9.9,0,12.2-9.6,12.2-15.5c0-5.9-2.3-15.5-12.2-15.5h-7.8v30.9H323.3z"/>
		<path class="st2" d="M398.9,309.4h-10.6c0,0,2.7-0.1,2.7-3.8v-12.9h-19.7v12.9c0,3.7,2.7,3.8,2.7,3.8h-10.6c0,0,2.7-0.1,2.7-3.8
			v-26c0-3.7-2.7-3.8-2.7-3.8H374c0,0-2.7,0.1-2.7,3.8v11.8h19.7v-11.8c0-3.7-2.7-3.8-2.7-3.8h10.6c0,0-2.7,0.1-2.7,3.8v26
			C396.2,309.3,398.9,309.4,398.9,309.4z"/>
		<path class="st2" d="M412,275.8c0,0-4.3,0.1-1.2,5.4l8.8,14.9l8.9-14.4c3.6-5.8-1.1-5.9-1.1-5.9H438c0,0-4.5,0.1-8.4,6.5
			l-8.9,14.5h0v8.8c0,3.7,2.7,3.8,2.7,3.8h-10.6c0,0,2.7-0.1,2.7-3.8v-7.5l-9.8-15.8c-3.9-6.3-8.4-6.5-8.4-6.5H412z"/>
		<path class="st2" d="M466.5,285.4c0,7.8-8.3,10.7-14.9,10.7h-8.7v9.5c0,3.7,2.7,3.8,2.7,3.8h-10.6c0,0,2.7-0.1,2.7-3.8v-25.1
			c0,0,0-4.8-4.1-4.8h17.3C458.4,275.8,466.5,277.4,466.5,285.4z M461.1,286.1c0-6-3.5-9-11.1-9h-7.1v17.6h8.4
			C457.7,294.8,461.1,291,461.1,286.1z"/>
		<path class="st2" d="M497.1,300.3l-0.5,9.1h-28.2c0,0,2.7-0.1,2.7-3.8v-26c0-3.7-2.7-3.8-2.7-3.8H496l0.8,7.2c0,0-2.3-5.9-6.5-5.9
			h-14.1v14.3h9.3c7.3,0,7.4-5.1,7.4-5.1v11.6c0,0-0.1-5.1-7.4-5.1h-9.3v15.3h13.5C495.6,307.1,497.1,300.3,497.1,300.3z"/>
		<path class="st2" d="M527,306c-0.5-1.8-1.2-4.1-2-7c-1.7-6.2-6.3-5.9-6.5-5.9l-9.7,0.9v11.6c0,3.7,2.7,3.8,2.7,3.8H501
			c0,0,2.7-0.1,2.7-3.8v-26c0-3.7-2.7-3.8-2.7-3.8h17.5c9,0,14.1,1.4,14.1,8.1c0,6.6-5.2,8.3-11,8.9c7-0.7,8.1,2.8,8.6,4.8
			c1.1,4,2,11.8,6.1,11.8h-11.1C525.3,309.4,527.8,309.4,527,306z M527.2,284.5c0-4.9-1.7-7.3-8.7-7.3h-9.7v15.6l9.7-0.9
			C523.6,291.3,527.2,289,527.2,284.5z"/>
		<path class="st2" d="M541.6,307.5c-1.9,1.2-2.8,2.8-2.8,2.8v-17.9c0.2,6.7,4.3,16.4,14.2,16.4c5.6,0,8.6-2.1,8.6-6.5
			c0-3.7-2.2-5.7-10.4-8.5c-8.4-2.9-12.1-5.1-12.1-10.1c0-5.9,6.1-8.4,13.7-8.4c5.7,0,8.6,2.1,9.6,2.8c1.5-0.7,2.4-2.8,2.4-2.8v14.9
			c-0.2-8-4.9-13.5-12-13.5c-4.5,0-8.9,1.2-8.9,4.9c0,3.5,2,4.8,11.6,8.1c10.5,3.6,11.4,6.4,11.4,11.2c0,6.2-4.9,9.5-13.9,9.5
			C549.4,310.3,544.8,309.3,541.6,307.5z"/>
		<path class="st2" d="M601.8,285.4c0,7.8-8.3,10.7-14.9,10.7h-8.7v9.5c0,3.7,2.7,3.8,2.7,3.8h-10.6c0,0,2.7-0.1,2.7-3.8v-25.1
			c0,0,0-4.8-4.1-4.8h17.3C593.8,275.8,601.8,277.4,601.8,285.4z M596.4,286.1c0-6-3.5-9-11.1-9h-7.1v17.6h8.4
			C593,294.8,596.4,291,596.4,286.1z"/>
		<path class="st2" d="M632.4,300.3l-0.5,9.1h-28.2c0,0,2.7-0.1,2.7-3.8v-26c0-3.7-2.7-3.8-2.7-3.8h27.6l0.8,7.2
			c0,0-2.3-5.9-6.5-5.9h-14.1v14.3h9.3c7.3,0,7.4-5.1,7.4-5.1v11.6c0,0-0.1-5.1-7.4-5.1h-9.3v15.3h13.5
			C631,307.1,632.4,300.3,632.4,300.3z"/>
		<path class="st2" d="M665,300.3l-0.5,9.1h-28.2c0,0,2.7-0.1,2.7-3.8v-26c0-3.7-2.7-3.8-2.7-3.8h27.6l0.8,7.2c0,0-2.3-5.9-6.5-5.9
			h-14.1v14.3h9.3c7.3,0,7.4-5.1,7.4-5.1v11.6c0,0-0.1-5.1-7.4-5.1h-9.3v15.3h13.5C663.5,307.1,665,300.3,665,300.3z"/>
		<path class="st2" d="M671.1,305.6v-26c0-3.7-2.7-3.8-2.7-3.8H684c10.5,0,17.9,6.2,17.9,16.8c0,10.5-7.4,16.8-17.9,16.8h-15.7
			C668.3,309.4,671.1,309.3,671.1,305.6z M684,308.1c9.9,0,12.2-9.6,12.2-15.5c0-5.9-2.3-15.5-12.2-15.5h-7.8v30.9H684z"/>
	</g>
</g>
<g id="Layer_1_copy_2">
</g>
<g id="Layer_1_copy_6">
</g>
<g id="Layer_1_copy_5" class="st0">
</g>
<g id="Layer_1_copy_4" class="st0">
</g>
</svg>
