<?xml version="1.0" encoding="utf-8"?>
<!-- Generator: Adobe Illustrator 19.0.1, SVG Export Plug-In . SVG Version: 6.00 Build 0)  -->
<svg version="1.1" xmlns="http://www.w3.org/2000/svg" xmlns:xlink="http://www.w3.org/1999/xlink" x="0px" y="0px"
	 viewBox="0 0 598.5 361.2" style="enable-background:new 0 0 598.5 361.2;" xml:space="preserve">
<style type="text/css">
	.st0{display:none;}
	.st1{display:inline;}
	.st2{fill:#E085DE;}
	.st3{fill:#FFFFFF;}
</style>
<g id="Layer_1" class="st0">
</g>
<g id="Layer_1_copy_2" class="st0">
</g>
<g id="Layer_1_copy_3" class="st0">
</g>
<g id="Layer_1_copy_5">
	<g>
		<path class="st3" d="M59.5,51.6H40.3c0,0,6.3,0,2.6-9.8l-3.6-9.5l-24.8,9.5c-3.5,9.8,6.5,9.8,6.6,9.8H0.7c0,0,8,0,11.4-9.8
			l6.7-18.9c5.3-15.1,7.8-21.7-3.4-21.7h19.7l15.6,41C54.4,51.6,59.5,51.6,59.5,51.6z M38.5,30.4L28.2,3.1L15.3,39.3L38.5,30.4z"/>
		<path class="st3" d="M66.5,45.9v-39c0-5.5-4.1-5.7-4.1-5.7h25c11.7,0,21.2,0.1,21.2,9.4c0,7.7-5.8,9.8-12.6,10.5
			c8.8,0.1,16.2,1.9,16.2,14.1c0,14.3-9.7,16.3-23.1,16.3H62.4C62.4,51.6,66.5,51.4,66.5,45.9z M87.4,20.2c9.5,0,13.3-2.7,13.3-9.2
			c0-6.2-3.7-7.8-16.1-7.8H74.2v17.1H87.4z M88.7,49.5c9.4,0,15-3.7,15-13.8c0-9-2.9-13.4-15.4-13.4h-14v27.2H88.7z"/>
		<path class="st3" d="M120.8,26.1c0-15.8,11.9-25.8,27.5-25.8c6.2,0,11.9,1.8,16.6,4.3c2.4-0.7,2.9-4.6,2.9-4.6l1.9,22
			c-2-9.3-8.9-19.7-21.3-19.7c-14,0-19,11.7-19,23.1c0,13.8,9.1,23.2,21.8,23.2c7.8,0,15.6-2.7,19.2-10.4
			c-2.5,9.4-10.9,15.2-22,15.2C130.3,53.4,120.7,40.4,120.8,26.1z"/>
		<path class="st3" d="M183,45.9v-39c0-5.5-4.1-5.7-4.1-5.7h23.5c15.7,0,26.8,9.4,26.8,25.2c0,15.8-11.1,25.2-26.8,25.2h-23.5
			C178.9,51.6,183,51.4,183,45.9z M202.5,49.5c14.9,0,18.3-14.3,18.3-23.2s-3.4-23.2-18.3-23.2h-11.7v46.4H202.5z"/>
		<path class="st3" d="M281.7,37.9l-0.8,13.6h-42.3c0,0,4.1-0.1,4.1-5.7v-39c0-5.5-4.1-5.7-4.1-5.7H280l1.2,10.8
			c0,0-3.5-8.8-9.7-8.8h-21.1v21.4h14c11,0,11.2-7.7,11.2-7.7v17.4c0,0-0.1-7.6-11.2-7.6h-14v23h20.3
			C279.4,48.1,281.7,37.9,281.7,37.9z"/>
		<path class="st3" d="M331,18.2v17.4c0,0-0.1-7.6-11.2-7.6h-15v17.9c0,5.5,4,5.7,4,5.7H293c0,0,4-0.1,4-5.7V8.3c0,0,0-7.1-6-7.1
			h43.1l1.6,11.8c0,0-2.7-9.8-12.6-9.8h-18.2v22.7l15,0.1C330.8,26,331,18.2,331,18.2z"/>
		<path class="st3" d="M397,25.6c-0.5,0-4,0.4-4,7.7v11.4c-5.5,4.5-10.8,8.2-22,8.2c-15.7,0-28.9-9.4-28.9-26.5
			c0-15.8,12-26.1,27.7-26.1c6.2,0,13.4,1.8,18.1,4.3c2.4-1.4,3.8-4.6,3.8-4.6l0.1,19.1c-2-7.7-8.7-16.8-22-16.8
			c-14.9,0-19.2,15.2-19.2,24.1S355,50.8,371,50.8c11.2,0,14.2-5.8,14.2-5.8V32c0-6.2-7.9-6.5-8.9-6.5H397z"/>
		<path class="st3" d="M458.1,51.6h-15.8c0,0,4-0.1,4-5.7V26.6h-29.6v19.3c0,5.5,4,5.7,4,5.7h-15.8c0,0,4-0.1,4-5.7v-39
			c0-5.5-4-5.7-4-5.7h15.8c0,0-4,0.1-4,5.7v17.7h29.6V6.8c0-5.5-4-5.7-4-5.7h15.8c0,0-4,0.1-4,5.7v39
			C454.1,51.4,458.1,51.6,458.1,51.6z"/>
		<path class="st3" d="M478.5,6.8v39c0,5.5,4.1,5.7,4.1,5.7h-15.8c0,0,4-0.1,4-5.7v-39c0-5.5-4-5.7-4-5.7h15.8
			C482.6,1.2,478.5,1.3,478.5,6.8z"/>
		<path class="st3" d="M512.7,6.8v30.5c0,12.3-7.5,17.7-23.6,12.8c14.9,2.1,15.8-5,15.8-18.8v-23c0,0,0-7.1-6-7.1h17.9
			C516.8,1.2,512.7,1.3,512.7,6.8z"/>
		<path class="st3" d="M579.1,51.6h-22.3c0.1,0,6.3,0,2.7-6.7l-13.3-21.5l-8.3,6.6v15.9c0,5.5,4.1,5.7,4.1,5.7h-15.8
			c0,0,4-0.1,4-5.7v-39c0-5.5-4-5.7-4-5.7H542c0,0-4.1,0.1-4.1,5.7v20.5L556.1,13c12.8-10.8,2.2-11.8,2.2-11.8h20.7
			c-0.8,0-6.6,1-12.7,6l-14.1,11.6l16.2,26.1C572.7,51.6,579,51.6,579.1,51.6z"/>
		<path class="st3" d="M48.9,105.2L47.3,124H7.9c0.3,0,4-0.1,4-5.7v-39c0-5.5-4-5.7-4-5.7h15.8c0,0-4.1,0.1-4.1,5.7v42.7h14
			C47.3,121.9,48.9,105.2,48.9,105.2z"/>
		<path class="st3" d="M103.9,114.2V78.6L85,120.5l-21-42.8v36.4c0,9.6,6.3,9.8,6.3,9.8H55.7c0,0,6.3-0.2,6.3-9.8V83.3
			c0-9.6-6.3-9.8-6.3-9.8h15.2l17.3,35.1l15.7-35.1h11.7c0,0-4,0.1-4,5.7v34.9c0,9.6,6.3,9.8,6.3,9.8H98.6
			C98.6,124,103.9,123.7,103.9,114.2z"/>
		<path class="st3" d="M132.6,73.6l37.7,39.2V83.3c0-9.5-6.8-9.7-6.8-9.7h15.3c0,0-6.4,0.2-6.4,9.7v35c0,5.5,2,5.7,2,5.7h-4.1
			l-37.7-39.2v29.4c0,9.5,7,9.8,7,9.8h-15.1c0,0,6-0.3,6-9.8V82.8c0,0,0-9.3-6.1-9.3H132.6z"/>
		<path class="st3" d="M238.8,98.8c0,15.8-11.1,26.5-26.8,26.5c-15.6,0-26.8-10.7-26.8-26.5c0-15.8,11.2-26.1,26.8-26.1
			C227.7,72.7,238.8,82.9,238.8,98.8z M230.3,98.8c0-8.9-3.4-24.1-18.3-24.1s-18.3,15.2-18.3,24.1s3.4,24.5,18.3,24.5
			S230.3,107.6,230.3,98.8z"/>
		<path class="st3" d="M295.1,88c0,11.7-12.5,16.1-22.3,16.1h-13v14.3c0,5.5,4,5.7,4,5.7H248c0,0,4.1-0.1,4.1-5.7V80.7
			c0,0,0-7.1-6.1-7.1h26C283,73.6,295.1,75.9,295.1,88z M287,89c0-9-5.3-13.5-16.6-13.5h-10.6V102h12.6C281.9,102,287,96.4,287,89z"
			/>
		<path class="st3" d="M354.4,121.1v12.2c0,0-2.7-7.2-10-12.2c-4.2,2.7-9.4,4.1-15.2,4.1c-15.7,0-26.9-10.6-26.9-26.4
			c0-15.8,11.2-26,26.9-26c15.7,0,26.8,10.2,26.8,26c0,8-3.2,15-8,19.6C350.3,119.1,352.4,119.9,354.4,121.1z M340.5,118.8
			c-3.4-1.6-7.6-2.6-12.5-2.6c0,0,6.8-0.4,14.2,0.7c4.1-5.3,5.3-13,5.3-18.2c0-8.9-3.4-24-18.3-24c-14.9,0-18.3,15.1-18.3,24
			s3.4,24.4,18.3,24.4C334.1,123.2,337.8,121.4,340.5,118.8z"/>
		<path class="st3" d="M402.9,118.8c-0.8-2.7-1.8-6.2-3-10.5c-2.5-9.4-9.4-8.8-9.8-8.8l-14.5,1.4v17.4c0,5.5,4,5.7,4,5.7h-15.8
			c0,0,4-0.1,4-5.7v-39c0-5.5-4-5.7-4-5.7h26.3c13.5,0,21.2,2.2,21.2,12.1c0,9.9-7.8,12.4-16.5,13.4c10.5-1,12.2,4.2,13,7.2
			c1.6,6,3,17.7,9.2,17.7h-16.6C400.4,124,404.1,124,402.9,118.8z M403.2,86.6c0-7.4-2.6-11-13-11h-14.5v23.3l14.5-1.4
			C397.9,96.8,403.2,93.4,403.2,86.6z"/>
		<path class="st3" d="M429.5,121.1c-2.8,1.6-4.2,4-4.2,4V98.5c0.4,10.1,6.4,24.6,21.3,24.6c8.4,0,12.5-3.2,12.5-9.7
			c0-5.5-5-9.7-15.2-12.8c-12.5-3.7-18.1-7.6-18.1-15.2c0-8.9,9.2-12.7,20.5-12.7c8.5,0,12.9,3.2,14.4,4.2c3,0.2,3.7-4,3.7-4V95
			c-0.3-12-7.3-20.3-18.1-20.3c-6.8,0-13.4,1.9-13.4,7.4c0,5.2,3,7.1,17.4,11.7c15.7,5,16.6,11.2,16.6,17.3
			c0,9.3-6.8,14.2-20.2,14.2C441.1,125.3,434.3,123.7,429.5,121.1z"/>
		<path class="st3" d="M523.3,88c0,0-2.2-12.4-10.9-12.4h-8.9v42.7c0,5.5,4,5.7,4,5.7h-15.8c0,0,4.1-0.1,4.1-5.7V75.6h-8.6
			c-8.8,0-10.9,12.4-10.9,12.4l0.8-14.4h45.5L523.3,88z"/>
		<path class="st3" d="M576,83.3c0-9.5-6.8-9.7-6.8-9.7h15.3c0,0-6.4,0.2-6.4,9.7V103c0,15.6-7.1,22.2-20.4,22.2
			c-15.7,0-23.5-7.4-23.5-21.5V79.2c0-5.5-4-5.7-4-5.7H546c0,0-4.1,0.1-4.1,5.7v24.5c0,6.8,0.9,19.5,15.8,19.5
			c12.5,0,18.3-6.8,18.3-18.6V83.3z"/>
		<path class="st3" d="M34,193.3l13.4-37.6c3.3-8.9-5.6-9.8-5.6-9.8H59c0,0-6.1,0.9-9.4,9.8l-14.5,40.6H27l-15-39.6
			C8.3,147.1,3.7,146,0,146h23.3c0,0-6.9,1-3.2,10.8L34,193.3z"/>
		<path class="st3" d="M146.5,146c-4.5,0.3-9.6,0.9-14.4,14.4l-13.6,36h-8.1l-10.4-31l-11.5,31h-8.1l-15-39.6
			c-3.9-9.6-8.3-10.7-12-10.8h23.3c0,0-6.8,0.9-3.2,10.8l14,36.9l11.6-31.4l-1.9-5.7c-3.9-9.7-9.1-10.6-12.8-10.7h26.4
			c0,0-8.9,0.9-6.1,8.7l13,38.7l12.6-33c4.8-13.5-7.3-14.4-7.3-14.4H146.5z"/>
		<path class="st3" d="M200.6,196.4h-23.3c1.9,0,7-1,3.6-6L168,173.7l-8.1,11.8c-4.7,6.9-4.2,10.6,4.8,10.9h-22.2
			c5.3-0.2,9-2.1,14.8-10.6l9.4-13.8l-14.8-19.4c-3.7-4.8-6.8-6.6-10.4-6.6h23.3c-1.9,0-6.8,1.1-3.2,6.5l12.5,16.3l8.1-11.9
			c4.9-7.2,4.2-10.6-4.8-10.9h22.2c-5.3,0.2-9,2.1-14.8,10.6l-9.4,13.9l15.8,20.5C194.3,194.8,197.4,196.4,200.6,196.4z"/>
		<path class="st3" d="M220.2,146c0,0-6.4,0.2-1.7,8.1l13.2,22.5l13.3-21.7c5.3-8.7-1.4-8.9-1.4-8.9h15.7c0,0-6.7,0.2-12.5,9.7
			l-13.4,21.7h0.1v13.2c0,5.5,4,5.7,4,5.7h-15.8c0,0,4.1-0.1,4.1-5.7v-11.2L211,155.7c-5.9-9.4-12.6-9.8-12.6-9.8H220.2z"/>
		<path class="st3" d="M300.1,179.2l-0.8,17.1h-39.7l30.5-48.4h-16.7c-10,0-14.2,11.8-14.2,11.8l1.9-13.8h39.1l-30.5,48.4H285
			C297.9,194.3,300.1,179.2,300.1,179.2z"/>
		<path class="st3" d="M35.2,268.8l-1.2-3.9l-4.5,2c-10.2,4.5-21.2,3-21.2-6.8c0-8.9,9.1-10,25.2-14.8c-0.3-9.9-3.7-11.2-7.8-11.2
			c-4.4,0-7.1,2.2-7.1,5.7c0,2.5-1.2,4.2-3.9,4.2c-2.9,0-4.2-1.7-4-4.2c0-2.6,3.3-7.7,15-7.7c11.2,0,15.6,4.2,15.6,12.7v18.3
			c0,5.5,4,5.7,4,5.7H35.2z M32.1,263.6l1.4-0.6v-15.8l-0.9,0.3c-12.1,3.5-16.6,5.3-16.6,11.2C15.9,265.7,23.4,267.3,32.1,263.6z"/>
		<path class="st3" d="M94,249.8c0,13.8-7.8,19.5-18.1,19.5c-4.2,0-7.8-1.3-10.7-3.4v0.1l-0.7,2.7h-11c0,0,4-0.1,4-5.7v-46.2
			c0-4.4-4-4.2-4-4.2l11.7-1.4v24.1c2.8-1.9,6.3-3,10.7-3C86.3,232.2,94,238.7,94,249.8z M85.5,249.8c0-10-5.3-15.4-11.4-15.4
			c-3.7,0-6.6,1.4-8.8,3.4v25.9c2.2,1.9,5.1,3.1,8.8,3.1C81.1,266.7,85.5,261,85.5,249.8z"/>
		<path class="st3" d="M102.2,250.5c0-10.9,8.2-18.3,19.6-18.3c4.2,0,8.1,1.7,11.4,3.4c1.2,0,2.6-1.2,3.2-3.2l-0.4,16.3
			c-0.9-7.8-5.7-14.7-14.8-14.5c-5.6,0.1-11.1,5.3-10.9,15.5c0.1,8.6,5.3,15.3,13.3,15.3c7.1,0,12.2-4,14.3-10.1
			c-1.2,8.4-7.9,14.4-16.4,14.4C110.1,269.3,102.2,261.8,102.2,250.5z"/>
		<path class="st3" d="M186.6,268.8h-11l-0.7-2.7v-0.1c-2.8,2.1-6.4,3.4-10.7,3.4c-10.3,0-18.1-5.7-18.1-17.8
			c0-11.9,7.6-19.4,18.1-19.4c4.3,0,7.8,1.2,10.7,3v-16.8c0-4.9-4-4.7-4-4.7l11.7-1v50.4C182.6,268.6,186.6,268.8,186.6,268.8z
			 M174.9,263.6v-25.9c-2.2-2-5.1-3.4-8.8-3.4c-6.2,0-11.4,6.3-11.4,16.4c0,10.2,4.3,15.9,11.4,15.9
			C169.8,266.7,172.7,265.5,174.9,263.6z"/>
		<path class="st3" d="M213.7,232.2c11.5,0,16.4,8.3,16.4,15.3h-26.9c0,10.9,5,17.4,13.2,17.4c7.1,0,12-3.9,14-9.9
			c-1.2,8.4-7.6,14.4-16.1,14.4c-11.4,0-19-7.6-19-18.9C195.3,239.5,202.3,232.2,213.7,232.2z M221.7,245.4c0-1.3,0.1-11.2-8-11.2
			c-9.4,0-10.5,9.9-10.5,11.2H221.7z"/>
		<path class="st3" d="M251.1,226.1v6.7h14.4v2h-14.4v28.3c0,5.5,4.1,5.7,4.1,5.7h-15.8c0,0,4-0.1,4-5.7v-28.3h-6.9v-2h6.9v-6.7
			c0-11.1,3.5-14.7,13-14.7c7.8,0,12.5,2.7,12.5,7.1c0.1,2.5-1.2,4.2-4,4.2c-2.7,0-3.9-1.7-3.9-4.2c0-3.5-1.5-5-4.6-5
			C252.6,213.4,251.1,214.8,251.1,226.1z"/>
		<path class="st3" d="M312.2,275.7c0,7.6-6,13-20.3,13c-15.8,0-20.8-5.4-20.8-12.1c0-5.8,5.2-8.7,8.2-8.7c-8.6-1.5-8.2-10-1.3-12
			c-3.2-2.2-4.8-5.8-4.8-10.3c0-8.8,7.2-13.5,17.2-13.5c4.4,0,8.1,0.9,11,2.5c3.8-6.6,7.8-7,9.3-6.1c1.5,0.7,2.2,2.1,1.3,3.8
			c-0.9,1.7-2.3,1.7-3.8,0.9c-1.9-1-3.7,0.1-5.1,2.4c2.9,2.3,4.5,5.6,4.5,9.9c0,8.6-6.3,13.2-17.2,13.2c-4.2,0-7.6-0.6-10.3-1.8
			c-1,0.3-1.7,0.9-1.7,2c0,1.8,3.5,3.7,14.3,3.7C306.9,262.9,312.2,268.3,312.2,275.7z M305.1,276.6c0-4.4-4.2-7.8-13.2-7.8
			c-4.2,0-7.4,0-10.2-0.4c-1.9,0.9-3.9,3.8-3.9,7.3c0,7.1,5.3,10.9,14,10.9C299.9,286.6,305.1,282.7,305.1,276.6z M280.7,245.6
			c0,7.7,3.2,11.2,9.7,11.2c6.3,0,9.7-3.5,9.7-11.2c0-7.9-3.2-11.4-9.7-11.4C284,234.2,280.7,237.7,280.7,245.6z"/>
		<path class="st3" d="M331.4,235.4l5.8-1.7c12.4-3.6,18.6-0.4,18.6,11v18.3c0,5.5,4,5.7,4,5.7h-15.8c0,0,4.1-0.1,4.1-5.7v-18.3
			c0-9.1-4.5-11-13.7-8.4l-3,0.9v25.9c0,5.5,4,5.7,4,5.7h-15.8c0,0,4.1-0.1,4.1-5.7v-44.7c0-4.9-4-4.7-4-4.7l11.7-1V235.4z"/>
		<path class="st3" d="M361.9,280.6c5,0,10-2.9,10-11.9v-30.3c0-4.4-4-4.2-4-4.2l11.7-1.4v36C379.7,277.8,373.4,283.2,361.9,280.6z
			 M375.3,218.4c2.8,0,4.9,1.8,4.9,4.5c0,2.7-2.1,4.5-4.9,4.5c-2.8,0-4.7-1.8-4.7-4.5C370.6,220.2,372.5,218.4,375.3,218.4z"/>
		<path class="st3" d="M403.4,263.1c0,5.5,4.1,5.7,4.1,5.7h-15.8c0,0,4-0.1,4-5.7v-24.6c0-4.4-4-4.2-4-4.2l11.7-1.4V263.1z
			 M394.6,222.8c0,2.7,1.9,4.5,4.7,4.5c2.8,0,4.9-1.8,4.9-4.5c0-2.7-2.1-4.5-4.9-4.5C396.4,218.4,394.6,220.2,394.6,222.8z"/>
		<path class="st3" d="M460,268.8h-19.1c0,0,5.8-0.3,3-5.5l-8.7-15.8l-7.3,5.8v9.8c0,5.5,4.1,5.7,4.1,5.7h-15.8c0,0,4-0.1,4-5.7
			v-46.2c0-4.4-4-4.2-4-4.2l11.7-1.4v39.5l9.2-7.3H437c13.2-10.4,2.5-10.7,1.7-10.7h20.2c0,0-5,0.2-10.9,4.5l-6.9,5.5l11.8,20.7
			C455.9,268.5,460,268.8,460,268.8z M438.7,232.8L438.7,232.8L438.7,232.8z"/>
		<path class="st3" d="M476.8,263.1c0,5.5,4.1,5.7,4.1,5.7H465c0,0,4-0.1,4-5.7v-44.7c0-4.9-4-4.7-4-4.7l11.7-1V263.1z"/>
		<path class="st3" d="M538.3,263.1v-18.3c0-9.1-3-11.7-11.6-8.7l-4.2,1.4c0.8,1.9,1.2,4.3,1.2,7.3v18.3c0,5.5,4,5.7,4,5.7h-15.8
			c0,0,4.1-0.1,4.1-5.7v-18.3c0-9.1-3-11.7-11.6-8.7l-3,1v26c0,5.5,4,5.7,4,5.7h-15.8c0,0,4.1-0.1,4.1-5.7v-24.6c0-4.4-4-4.2-4-4.2
			l11.4-1.4l0.4,2.6l5.8-1.9c6.8-2.2,11.9-1.5,14.5,2.6l7.8-2.6c10.2-3.3,16.5-0.1,16.5,11.3v18.3c0,5.5,4,5.7,4,5.7h-15.8
			C534.2,268.8,538.3,268.6,538.3,263.1z"/>
		<path class="st3" d="M570.1,235.4l5.8-1.7c12.4-3.6,18.6-0.4,18.6,11v18.3c0,5.5,4,5.7,4,5.7h-15.8c0,0,4.1-0.1,4.1-5.7v-18.3
			c0-9.1-4.5-11-13.7-8.4l-3,0.9v25.9c0,5.5,4,5.7,4,5.7h-15.8c0,0,4.1-0.1,4.1-5.7v-24.6c0-4.4-4-4.2-4-4.2l11.4-1.4L570.1,235.4z"
			/>
		<path class="st3" d="M7.2,322.9c0-10.9,8.2-18.3,19.7-18.3s19.7,7.3,19.7,18.3c0,11.3-8.2,18.9-19.7,18.9S7.2,334.2,7.2,322.9z
			 M38,322.9c0-6.3-1.8-16.3-11.2-16.3s-11.2,9.9-11.2,16.3c0,6.4,1.8,16.8,11.2,16.8S38,329.3,38,322.9z"/>
		<path class="st3" d="M95.7,322.4c0,11.9-8,19.4-18.1,19.4c-4.3,0-7.8-1.2-10.7-3v16.8c0,5.5,4,5.7,4,5.7H55.2c0,0,4.1-0.1,4.1-5.7
			v-44.7c0-5.5-4-5.7-4-5.7h11l0.7,2.7v0.1c2.8-2.1,6.4-3.4,10.7-3.4C87.9,304.6,95.7,310.3,95.7,322.4z M87.2,323.1
			c0-10.2-4.3-15.9-11.4-15.9c-3.7,0-6.6,1.2-8.8,3.1v25.9c2.2,2,5.1,3.4,8.8,3.4C81.7,339.5,87.2,333.2,87.2,323.1z"/>
		<path class="st3" d="M146.2,337.3v12.2c0,0-2.5-6.8-9.4-11.8c-3.3,2.6-7.7,4-12.7,4c-11.4,0-19.7-7.6-19.7-18.9
			c0-10.9,8.2-18.3,19.7-18.3c11.4,0,19.7,7.3,19.7,18.3c0,4.6-1.4,8.6-3.7,11.7C142.1,335.3,144.3,336.1,146.2,337.3z M132.3,335
			L132.3,335c-3.5-1.6-7.6-2.6-12.6-2.6c0,0,6.4-0.4,13.6,0.6c1.4-3.3,1.8-7.2,1.8-10.2c0-6.3-1.8-16.3-11.2-16.3
			s-11.2,9.9-11.2,16.3c0,6.4,1.8,16.8,11.2,16.8C128,339.7,130.6,337.8,132.3,335z"/>
		<path class="st3" d="M187.3,310.8c0,1.9-1.2,3.7-3.9,3.7c-2.9,0-4.2-1.7-4-3.7c-0.1-3.3-3.7-5.5-11.3-0.4v25.1c0,5.5,4,5.7,4,5.7
			h-15.8c0,0,4.1-0.1,4.1-5.7v-24.6c0-4.4-4-4.2-4-4.2l11.4-1.4l0.4,2.7v0.6l2.6-1.6C177.9,302.3,187.3,304.5,187.3,310.8z"/>
		<path class="st3" d="M199.9,338.9c-2.2,1.2-3.2,3-3.2,3v-19.7c1.9,12.5,9.1,17.6,17,17.6c5.5,0,9-2.4,9-6c0-3.8-2.7-5.9-12-8.6
			c-9.9-2.9-14-5.7-14-11.2c0-5.3,3.8-9.4,15.8-9.4c4.8,0,8.9,0.9,12.2,2.8c2.4-0.2,3.1-3,3.1-3v16.6c-0.6-9.1-6.3-14.5-15.3-14.5
			c-4.8,0-9.8,1.4-9.8,4.2c0,3.1,2.4,4.7,14.7,8.3c10,2.9,12.2,6.9,12.2,12.1c0,6.1-5,10.6-16,10.6
			C208.6,341.7,203.4,340.9,199.9,338.9z"/>
		<path class="st3" d="M254.2,307.2v28.3c0,5.5,4.1,5.7,4.1,5.7h-15.8c0,0,4-0.1,4-5.7v-28.3h-9.3v-2h9.3v-8.7c0-4.9-4-4.7-4-4.7
			l11.7-1v14.4h8.7v2H254.2z"/>
		<path class="st3" d="M305.4,335.5c0,5.5,4,5.7,4,5.7h-11.4l-0.4-2.7l-5.8,1.7c-13.1,3.7-19.3,0.4-19.3-9v-20.3c0-4.4-4-4.2-4-4.2
			l11.7-1.4v26c0,7.1,4.5,9.3,14.4,6.4l3-0.9v-25.8c0-4.4-4-4.2-4-4.2l11.7-1.4V335.5z"/>
		<path class="st3" d="M351.3,310.7L337,341.2h-4L319,311c-2.8-5.7-8.1-5.8-8.1-5.8h20.9c0,0-6.8,0.1-3.5,8.7l9.6,20.5l8.6-18.3
			l-0.1,0.1c5.1-10.9-2.4-11-2.4-11h15.2C359.2,305.2,353.7,305.3,351.3,310.7z"/>
		<path class="st3" d="M416.5,310.4l-13.9,30.7h-4l-7.9-20.5l-9.3,20.5h-4l-14.8-30.2c-2.7-5.5-7.7-5.8-7.7-5.8h20
			c-0.1,0-7.3,0-4.3,5.8l11.7,23.4l7.4-16.3l-3-7.9c-2.4-5-7-5-7.1-5h20.3c-0.1,0-7.1,0-4.9,6.2l8.6,22.7l8.4-18.6
			c4.3-10.3-2.7-10.3-2.7-10.3h14.6C423.9,305.2,419.4,305.2,416.5,310.4z"/>
		<path class="st3" d="M466.6,341.2h-20c3.1,0,5.4-1.1,1.6-6.7l-5.5-8.2l-3.4,5c-6,8.9-3.7,9.9,2.8,9.9h-19.6
			c5.3-0.2,8.9-2,14.8-10.6l4.2-6.1l-7.8-11.5c0,0,0-0.1-0.1-0.1l-0.1-0.3c-3.7-5.3-6.8-7.2-10.1-7.4h20c-3,0-5.3,1-1.8,6.3l5.8,8.5
			l3.4-5c6-8.9,3.7-9.9-2.8-9.9h19.6c-5.3,0.2-8.9,2-14.8,10.6l-4.2,6.1l9.1,13.3C460.8,339.4,463.7,340.9,466.6,341.2z"/>
		<path class="st3" d="M506.6,310.3l-17.5,37.5c-5.6,12-10.9,11.5-13.3,10.4c-2.3-0.9-3.3-2.8-2.1-5.5c1.2-2.4,3.2-2.8,5.5-1.7
			c3.2,1.4,6.2,0,8.1-4l1.9-4l-14.8-31.9c-2.7-5.9-8.2-6-8.2-6h21c0,0-7.1,0.1-3.2,9.2l9.4,20.1l8.6-18.4l-0.1,0.1
			c5.1-10.9-2.4-11-2.4-11h15.2C514.4,305.2,509.1,305.3,506.6,310.3z"/>
		<path class="st3" d="M547.3,329.8l-0.6,11.4h-31l21.2-34h-11.4c-7.3,0-9.7,7.5-9.7,7.5l0.8-9.5h30.4l-21.2,34h10.9
			C545.8,339.1,547.3,329.8,547.3,329.8z"/>
	</g>
</g>
<g id="Layer_1_copy_4" class="st0">
	<g class="st1">
		<path class="st3" d="M59.5,51.6H40.3c0,0,6.3,0,2.6-9.8l-3.6-9.5l-24.8,9.5c-3.5,9.8,6.5,9.8,6.6,9.8H0.7c0,0,8,0,11.4-9.8
			l6.7-18.9c5.3-15.1,7.8-21.7-3.4-21.7h19.7l15.6,41C54.4,51.6,59.5,51.6,59.5,51.6z M38.5,30.4L28.2,3.1L15.3,39.3L38.5,30.4z"/>
		<path class="st3" d="M62.2,45.9v-39c0-5.5-4.1-5.7-4.1-5.7h25c11.7,0,21.2,0.1,21.2,9.4c0,7.7-5.8,9.8-12.6,10.5
			c8.8,0.1,16.2,1.9,16.2,14.1c0,14.3-9.7,16.3-23.1,16.3H58.1C58.1,51.6,62.2,51.4,62.2,45.9z M83.1,20.2c9.5,0,13.3-2.7,13.3-9.2
			c0-6.2-3.7-7.8-16.1-7.8H69.9v17.1H83.1z M84.4,49.5c9.4,0,15-3.7,15-13.8c0-9-2.9-13.4-15.4-13.4h-14v27.2H84.4z"/>
		<path class="st3" d="M112.2,26.1c0-15.8,11.9-25.8,27.5-25.8c6.2,0,11.9,1.8,16.6,4.3c2.4-0.7,2.9-4.6,2.9-4.6l1.9,22
			c-2-9.3-8.9-19.7-21.3-19.7c-14,0-19,11.7-19,23.1c0,13.8,9.1,23.2,21.8,23.2c7.8,0,15.6-2.7,19.2-10.4
			c-2.5,9.4-10.9,15.2-22,15.2C121.7,53.4,112.1,40.4,112.2,26.1z"/>
		<path class="st3" d="M170.1,45.9v-39c0-5.5-4.1-5.7-4.1-5.7h23.5c15.7,0,26.8,9.4,26.8,25.2c0,15.8-11.1,25.2-26.8,25.2H166
			C166,51.6,170.1,51.4,170.1,45.9z M189.5,49.5c14.9,0,18.3-14.3,18.3-23.2s-3.4-23.2-18.3-23.2h-11.7v46.4H189.5z"/>
		<path class="st3" d="M264.4,37.9l-0.8,13.6h-42.3c0,0,4.1-0.1,4.1-5.7v-39c0-5.5-4.1-5.7-4.1-5.7h41.4L264,12c0,0-3.5-8.8-9.7-8.8
			h-21.1v21.4h14c11,0,11.2-7.7,11.2-7.7v17.4c0,0-0.1-7.6-11.2-7.6h-14v23h20.3C262.2,48.1,264.4,37.9,264.4,37.9z"/>
		<path class="st3" d="M309.4,18.2v17.4c0,0-0.1-7.6-11.2-7.6h-15v17.9c0,5.5,4,5.7,4,5.7h-15.8c0,0,4-0.1,4-5.7V8.3
			c0,0,0-7.1-6-7.1h43.1l1.6,11.8c0,0-2.7-9.8-12.6-9.8h-18.2v22.7l15,0.1C309.2,26,309.4,18.2,309.4,18.2z"/>
		<path class="st3" d="M371.1,25.6c-0.5,0-4,0.4-4,7.7v11.4c-5.5,4.5-10.8,8.2-22,8.2c-15.7,0-28.9-9.4-28.9-26.5
			c0-15.8,12-26.1,27.7-26.1c6.2,0,13.4,1.8,18.1,4.3c2.4-1.4,3.8-4.6,3.8-4.6l0.1,19.1c-2-7.7-8.7-16.8-22-16.8
			c-14.9,0-19.2,15.2-19.2,24.1s4.4,24.5,20.4,24.5c11.2,0,14.2-5.8,14.2-5.8V32c0-6.2-7.9-6.5-8.9-6.5H371.1z"/>
		<path class="st3" d="M427.9,51.6h-15.8c0,0,4-0.1,4-5.7V26.6h-29.6v19.3c0,5.5,4,5.7,4,5.7h-15.8c0,0,4-0.1,4-5.7v-39
			c0-5.5-4-5.7-4-5.7h15.8c0,0-4,0.1-4,5.7v17.7h29.6V6.8c0-5.5-4-5.7-4-5.7h15.8c0,0-4,0.1-4,5.7v39
			C423.9,51.4,427.9,51.6,427.9,51.6z"/>
		<path class="st3" d="M443.9,6.8v39c0,5.5,4.1,5.7,4.1,5.7h-15.8c0,0,4-0.1,4-5.7v-39c0-5.5-4-5.7-4-5.7h15.8
			C448.1,1.2,443.9,1.3,443.9,6.8z"/>
		<path class="st3" d="M473.8,6.8v30.5c0,12.3-7.5,17.7-23.6,12.8c14.9,2.1,15.8-5,15.8-18.8v-23c0,0,0-7.1-6-7.1h17.9
			C477.9,1.2,473.8,1.3,473.8,6.8z"/>
		<path class="st3" d="M535.9,51.6h-22.3c0.1,0,6.3,0,2.7-6.7L503,23.4l-8.3,6.6v15.9c0,5.5,4.1,5.7,4.1,5.7H483c0,0,4-0.1,4-5.7
			v-39c0-5.5-4-5.7-4-5.7h15.8c0,0-4.1,0.1-4.1,5.7v20.5L512.9,13c12.8-10.8,2.2-11.8,2.2-11.8h20.7c-0.8,0-6.6,1-12.7,6L509,18.7
			l16.2,26.1C529.5,51.6,535.8,51.6,535.9,51.6z"/>
		<path class="st3" d="M48.9,105.2L47.3,124H7.9c0.3,0,4-0.1,4-5.7v-39c0-5.5-4-5.7-4-5.7h15.8c0,0-4.1,0.1-4.1,5.7v42.7h14
			C47.3,121.9,48.9,105.2,48.9,105.2z"/>
		<path class="st3" d="M99.6,114.2V78.6l-18.9,41.9l-21-42.8v36.4c0,9.6,6.3,9.8,6.3,9.8H51.4c0,0,6.3-0.2,6.3-9.8V83.3
			c0-9.6-6.3-9.8-6.3-9.8h15.2l17.3,35.1l15.7-35.1h11.7c0,0-4,0.1-4,5.7v34.9c0,9.6,6.3,9.8,6.3,9.8H94.3
			C94.3,124,99.6,123.7,99.6,114.2z"/>
		<path class="st3" d="M123.9,73.6l37.7,39.2V83.3c0-9.5-6.8-9.7-6.8-9.7h15.3c0,0-6.4,0.2-6.4,9.7v35c0,5.5,2,5.7,2,5.7h-4.1
			l-37.7-39.2v29.4c0,9.5,7,9.8,7,9.8h-15.1c0,0,6-0.3,6-9.8V82.8c0,0,0-9.3-6.1-9.3H123.9z"/>
		<path class="st3" d="M225.8,98.8c0,15.8-11.1,26.5-26.8,26.5c-15.6,0-26.8-10.7-26.8-26.5c0-15.8,11.2-26.1,26.8-26.1
			C214.7,72.7,225.8,82.9,225.8,98.8z M217.3,98.8c0-8.9-3.4-24.1-18.3-24.1s-18.3,15.2-18.3,24.1s3.4,24.5,18.3,24.5
			S217.3,107.6,217.3,98.8z"/>
		<path class="st3" d="M277.8,88c0,11.7-12.5,16.1-22.3,16.1h-13v14.3c0,5.5,4,5.7,4,5.7h-15.8c0,0,4.1-0.1,4.1-5.7V80.7
			c0,0,0-7.1-6.1-7.1h26C265.8,73.6,277.8,75.9,277.8,88z M269.7,89c0-9-5.3-13.5-16.6-13.5h-10.6V102h12.6
			C264.6,102,269.7,96.4,269.7,89z"/>
		<path class="st3" d="M332.8,121.1v12.2c0,0-2.7-7.2-10-12.2c-4.2,2.7-9.4,4.1-15.2,4.1c-15.7,0-26.9-10.6-26.9-26.4
			c0-15.8,11.2-26,26.9-26s26.8,10.2,26.8,26c0,8-3.2,15-8,19.6C328.7,119.1,330.8,119.9,332.8,121.1z M318.9,118.8
			c-3.4-1.6-7.6-2.6-12.5-2.6c0,0,6.8-0.4,14.2,0.7c4.1-5.3,5.3-13,5.3-18.2c0-8.9-3.4-24-18.3-24s-18.3,15.1-18.3,24
			s3.4,24.4,18.3,24.4C312.5,123.2,316.2,121.4,318.9,118.8z"/>
		<path class="st3" d="M377,118.8c-0.8-2.7-1.8-6.2-3-10.5c-2.5-9.4-9.4-8.8-9.8-8.8l-14.5,1.4v17.4c0,5.5,4,5.7,4,5.7H338
			c0,0,4-0.1,4-5.7v-39c0-5.5-4-5.7-4-5.7h26.3c13.5,0,21.2,2.2,21.2,12.1c0,9.9-7.8,12.4-16.5,13.4c10.5-1,12.2,4.2,13,7.2
			c1.6,6,3,17.7,9.2,17.7h-16.6C374.5,124,378.2,124,377,118.8z M377.3,86.6c0-7.4-2.6-11-13-11h-14.5v23.3l14.5-1.4
			C372,96.8,377.3,93.4,377.3,86.6z"/>
		<path class="st3" d="M399.3,121.1c-2.8,1.6-4.2,4-4.2,4V98.5c0.4,10.1,6.4,24.6,21.3,24.6c8.4,0,12.5-3.2,12.5-9.7
			c0-5.5-5-9.7-15.2-12.8c-12.5-3.7-18.1-7.6-18.1-15.2c0-8.9,9.2-12.7,20.5-12.7c8.5,0,12.9,3.2,14.4,4.2c3,0.2,3.7-4,3.7-4V95
			c-0.3-12-7.3-20.3-18.1-20.3c-6.8,0-13.4,1.9-13.4,7.4c0,5.2,3,7.1,17.4,11.7c15.7,5,16.6,11.2,16.6,17.3
			c0,9.3-6.8,14.2-20.2,14.2C410.9,125.3,404.1,123.7,399.3,121.1z"/>
		<path class="st3" d="M488.7,88c0,0-2.2-12.4-10.9-12.4h-8.9v42.7c0,5.5,4,5.7,4,5.7h-15.8c0,0,4.1-0.1,4.1-5.7V75.6h-8.6
			c-8.8,0-10.9,12.4-10.9,12.4l0.8-14.4h45.5L488.7,88z"/>
		<path class="st3" d="M537.1,83.3c0-9.5-6.8-9.7-6.8-9.7h15.3c0,0-6.4,0.2-6.4,9.7V103c0,15.6-7.1,22.2-20.4,22.2
			c-15.7,0-23.5-7.4-23.5-21.5V79.2c0-5.5-4-5.7-4-5.7h15.8c0,0-4.1,0.1-4.1,5.7v24.5c0,6.8,0.9,19.5,15.8,19.5
			c12.5,0,18.3-6.8,18.3-18.6V83.3z"/>
		<path class="st3" d="M34,193.3l13.4-37.6c3.3-8.9-5.6-9.8-5.6-9.8H59c0,0-6.1,0.9-9.4,9.8l-14.5,40.6H27l-15-39.6
			C8.3,147.1,3.7,146,0,146h23.3c0,0-6.9,1-3.2,10.8L34,193.3z"/>
		<path class="st3" d="M142.2,146c-4.5,0.3-9.6,0.9-14.4,14.4l-13.6,36h-8.1l-10.4-31l-11.5,31H76l-15-39.6
			C57,147.2,52.6,146,49,146h23.3c0,0-6.8,0.9-3.2,10.8l14,36.9l11.6-31.4l-1.9-5.7c-3.9-9.7-9.1-10.6-12.8-10.7h26.4
			c0,0-8.9,0.9-6.1,8.7l13,38.7l12.6-33c4.8-13.5-7.3-14.4-7.3-14.4H142.2z"/>
		<path class="st3" d="M192,196.4h-23.3c1.9,0,7-1,3.6-6l-12.8-16.6l-8.1,11.8c-4.7,6.9-4.2,10.6,4.8,10.9h-22.2
			c5.3-0.2,9-2.1,14.8-10.6l9.4-13.8l-14.8-19.4c-3.7-4.8-6.8-6.6-10.4-6.6h23.3c-1.9,0-6.8,1.1-3.2,6.5l12.5,16.3l8.1-11.9
			c4.9-7.2,4.2-10.6-4.8-10.9h22.2c-5.3,0.2-9,2.1-14.8,10.6l-9.4,13.9l15.8,20.5C185.6,194.8,188.8,196.4,192,196.4z"/>
		<path class="st3" d="M207.2,146c0,0-6.4,0.2-1.7,8.1l13.2,22.5l13.3-21.7c5.3-8.7-1.4-8.9-1.4-8.9h15.7c0,0-6.7,0.2-12.5,9.7
			l-13.4,21.7h0.1v13.2c0,5.5,4,5.7,4,5.7h-15.8c0,0,4.1-0.1,4.1-5.7v-11.2l-14.7-23.7c-5.9-9.4-12.6-9.8-12.6-9.8H207.2z"/>
		<path class="st3" d="M281.4,179.2l-0.8,17.1h-39.7l30.5-48.4h-16.7c-10,0-14.2,11.8-14.2,11.8l1.9-13.8h39.1L251,194.3h15.3
			C279.1,194.3,281.4,179.2,281.4,179.2z"/>
		<path class="st3" d="M35.2,268.8l-1.2-3.9l-4.5,2c-10.2,4.5-21.2,3-21.2-6.8c0-8.9,9.1-10,25.2-14.8c-0.3-9.9-3.7-11.2-7.8-11.2
			c-4.4,0-7.1,2.2-7.1,5.7c0,2.5-1.2,4.2-3.9,4.2c-2.9,0-4.2-1.7-4-4.2c0-2.6,3.3-7.7,15-7.7c11.2,0,15.6,4.2,15.6,12.7v18.3
			c0,5.5,4,5.7,4,5.7H35.2z M32.1,263.6l1.4-0.6v-15.8l-0.9,0.3c-12.1,3.5-16.6,5.3-16.6,11.2C15.9,265.7,23.4,267.3,32.1,263.6z"/>
		<path class="st3" d="M89.6,249.8c0,13.8-7.8,19.5-18.1,19.5c-4.2,0-7.8-1.3-10.7-3.4v0.1l-0.7,2.7h-11c0,0,4-0.1,4-5.7v-46.2
			c0-4.4-4-4.2-4-4.2l11.7-1.4v24.1c2.8-1.9,6.3-3,10.7-3C82,232.2,89.6,238.7,89.6,249.8z M81.1,249.8c0-10-5.3-15.4-11.4-15.4
			c-3.7,0-6.6,1.4-8.8,3.4v25.9c2.2,1.9,5.1,3.1,8.8,3.1C76.8,266.7,81.1,261,81.1,249.8z"/>
		<path class="st3" d="M93.6,250.5c0-10.9,8.2-18.3,19.6-18.3c4.2,0,8.1,1.7,11.4,3.4c1.2,0,2.6-1.2,3.2-3.2l-0.4,16.3
			c-0.9-7.8-5.7-14.7-14.8-14.5c-5.6,0.1-11.1,5.3-10.9,15.5c0.1,8.6,5.3,15.3,13.3,15.3c7.1,0,12.2-4,14.3-10.1
			c-1.2,8.4-7.9,14.4-16.4,14.4C101.4,269.3,93.6,261.8,93.6,250.5z"/>
		<path class="st3" d="M173.7,268.8h-11l-0.7-2.7v-0.1c-2.8,2.1-6.4,3.4-10.7,3.4c-10.3,0-18.1-5.7-18.1-17.8
			c0-11.9,7.6-19.4,18.1-19.4c4.3,0,7.8,1.2,10.7,3v-16.8c0-4.9-4-4.7-4-4.7l11.7-1v50.4C169.6,268.6,173.7,268.8,173.7,268.8z
			 M161.9,263.6v-25.9c-2.2-2-5.1-3.4-8.8-3.4c-6.2,0-11.4,6.3-11.4,16.4c0,10.2,4.3,15.9,11.4,15.9
			C156.8,266.7,159.7,265.5,161.9,263.6z"/>
		<path class="st3" d="M196.4,232.2c11.5,0,16.4,8.3,16.4,15.3h-26.9c0,10.9,5,17.4,13.2,17.4c7.1,0,12-3.9,14-9.9
			c-1.2,8.4-7.6,14.4-16.1,14.4c-11.4,0-19-7.6-19-18.9C178,239.5,185,232.2,196.4,232.2z M204.4,245.4c0-1.3,0.1-11.2-8-11.2
			c-9.4,0-10.5,9.9-10.5,11.2H204.4z"/>
		<path class="st3" d="M229.5,226.1v6.7h14.4v2h-14.4v28.3c0,5.5,4.1,5.7,4.1,5.7h-15.8c0,0,4-0.1,4-5.7v-28.3h-6.9v-2h6.9v-6.7
			c0-11.1,3.5-14.7,13-14.7c7.8,0,12.5,2.7,12.5,7.1c0.1,2.5-1.2,4.2-4,4.2c-2.7,0-3.9-1.7-3.9-4.2c0-3.5-1.5-5-4.6-5
			C231,213.4,229.5,214.8,229.5,226.1z"/>
		<path class="st3" d="M286.3,275.7c0,7.6-6,13-20.3,13c-15.8,0-20.8-5.4-20.8-12.1c0-5.8,5.2-8.7,8.2-8.7c-8.6-1.5-8.2-10-1.3-12
			c-3.2-2.2-4.8-5.8-4.8-10.3c0-8.8,7.2-13.5,17.2-13.5c4.4,0,8.1,0.9,11,2.5c3.8-6.6,7.8-7,9.3-6.1c1.5,0.7,2.2,2.1,1.3,3.8
			c-0.9,1.7-2.3,1.7-3.8,0.9c-1.9-1-3.7,0.1-5.1,2.4c2.9,2.3,4.5,5.6,4.5,9.9c0,8.6-6.3,13.2-17.2,13.2c-4.2,0-7.6-0.6-10.3-1.8
			c-1,0.3-1.7,0.9-1.7,2c0,1.8,3.5,3.7,14.3,3.7C280.9,262.9,286.3,268.3,286.3,275.7z M279.2,276.6c0-4.4-4.2-7.8-13.2-7.8
			c-4.2,0-7.4,0-10.2-0.4c-1.9,0.9-3.9,3.8-3.9,7.3c0,7.1,5.3,10.9,14,10.9C274,286.6,279.2,282.7,279.2,276.6z M254.7,245.6
			c0,7.7,3.2,11.2,9.7,11.2c6.3,0,9.7-3.5,9.7-11.2c0-7.9-3.2-11.4-9.7-11.4C258.1,234.2,254.7,237.7,254.7,245.6z"/>
		<path class="st3" d="M301.2,235.4l5.8-1.7c12.4-3.6,18.6-0.4,18.6,11v18.3c0,5.5,4,5.7,4,5.7h-15.8c0,0,4.1-0.1,4.1-5.7v-18.3
			c0-9.1-4.5-11-13.7-8.4l-3,0.9v25.9c0,5.5,4,5.7,4,5.7h-15.8c0,0,4.1-0.1,4.1-5.7v-44.7c0-4.9-4-4.7-4-4.7l11.7-1V235.4z"/>
		<path class="st3" d="M327.4,280.6c5,0,10-2.9,10-11.9v-30.3c0-4.4-4-4.2-4-4.2l11.7-1.4v36C345.1,277.8,338.8,283.2,327.4,280.6z
			 M340.7,218.4c2.8,0,4.9,1.8,4.9,4.5c0,2.7-2.1,4.5-4.9,4.5c-2.8,0-4.7-1.8-4.7-4.5C336,220.2,337.9,218.4,340.7,218.4z"/>
		<path class="st3" d="M364.5,263.1c0,5.5,4.1,5.7,4.1,5.7h-15.8c0,0,4-0.1,4-5.7v-24.6c0-4.4-4-4.2-4-4.2l11.7-1.4V263.1z
			 M355.7,222.8c0,2.7,1.9,4.5,4.7,4.5c2.8,0,4.9-1.8,4.9-4.5c0-2.7-2.1-4.5-4.9-4.5C357.5,218.4,355.7,220.2,355.7,222.8z"/>
		<path class="st3" d="M416.8,268.8h-19.1c0,0,5.8-0.3,3-5.5l-8.7-15.8l-7.3,5.8v9.8c0,5.5,4.1,5.7,4.1,5.7H373c0,0,4-0.1,4-5.7
			v-46.2c0-4.4-4-4.2-4-4.2l11.7-1.4v39.5l9.2-7.3h-0.1c13.2-10.4,2.5-10.7,1.7-10.7h20.2c0,0-5,0.2-10.9,4.5l-6.9,5.5l11.8,20.7
			C412.7,268.5,416.8,268.8,416.8,268.8z M395.5,232.8L395.5,232.8L395.5,232.8z"/>
		<path class="st3" d="M429.3,263.1c0,5.5,4.1,5.7,4.1,5.7h-15.8c0,0,4-0.1,4-5.7v-44.7c0-4.9-4-4.7-4-4.7l11.7-1V263.1z"/>
		<path class="st3" d="M486.4,263.1v-18.3c0-9.1-3-11.7-11.6-8.7l-4.2,1.4c0.8,1.9,1.2,4.3,1.2,7.3v18.3c0,5.5,4,5.7,4,5.7H460
			c0,0,4.1-0.1,4.1-5.7v-18.3c0-9.1-3-11.7-11.6-8.7l-3,1v26c0,5.5,4,5.7,4,5.7h-15.8c0,0,4.1-0.1,4.1-5.7v-24.6c0-4.4-4-4.2-4-4.2
			l11.4-1.4l0.4,2.6l5.8-1.9c6.8-2.2,11.9-1.5,14.5,2.6l7.8-2.6c10.2-3.3,16.5-0.1,16.5,11.3v18.3c0,5.5,4,5.7,4,5.7h-15.8
			C482.3,268.8,486.4,268.6,486.4,263.1z"/>
		<path class="st3" d="M513.9,235.4l5.8-1.7c12.4-3.6,18.6-0.4,18.6,11v18.3c0,5.5,4,5.7,4,5.7h-15.8c0,0,4.1-0.1,4.1-5.7v-18.3
			c0-9.1-4.5-11-13.7-8.4l-3,0.9v25.9c0,5.5,4,5.7,4,5.7h-15.8c0,0,4.1-0.1,4.1-5.7v-24.6c0-4.4-4-4.2-4-4.2l11.4-1.4L513.9,235.4z"
			/>
		<path class="st3" d="M7.2,322.9c0-10.9,8.2-18.3,19.7-18.3s19.7,7.3,19.7,18.3c0,11.3-8.2,18.9-19.7,18.9S7.2,334.2,7.2,322.9z
			 M38,322.9c0-6.3-1.8-16.3-11.2-16.3s-11.2,9.9-11.2,16.3c0,6.4,1.8,16.8,11.2,16.8S38,329.3,38,322.9z"/>
		<path class="st3" d="M91.4,322.4c0,11.9-8,19.4-18.1,19.4c-4.3,0-7.8-1.2-10.7-3v16.8c0,5.5,4,5.7,4,5.7H50.8c0,0,4.1-0.1,4.1-5.7
			v-44.7c0-5.5-4-5.7-4-5.7h11l0.7,2.7v0.1c2.8-2.1,6.4-3.4,10.7-3.4C83.6,304.6,91.4,310.3,91.4,322.4z M82.9,323.1
			c0-10.2-4.3-15.9-11.4-15.9c-3.7,0-6.6,1.2-8.8,3.1v25.9c2.2,2,5.1,3.4,8.8,3.4C77.3,339.5,82.9,333.2,82.9,323.1z"/>
		<path class="st3" d="M137.5,337.3v12.2c0,0-2.5-6.8-9.4-11.8c-3.3,2.6-7.7,4-12.7,4c-11.4,0-19.7-7.6-19.7-18.9
			c0-10.9,8.2-18.3,19.7-18.3s19.7,7.3,19.7,18.3c0,4.6-1.4,8.6-3.7,11.7C133.5,335.3,135.7,336.1,137.5,337.3z M123.7,335
			L123.7,335c-3.5-1.6-7.6-2.6-12.6-2.6c0,0,6.4-0.4,13.6,0.6c1.4-3.3,1.8-7.2,1.8-10.2c0-6.3-1.8-16.3-11.2-16.3
			s-11.2,9.9-11.2,16.3c0,6.4,1.8,16.8,11.2,16.8C119.4,339.7,122,337.8,123.7,335z"/>
		<path class="st3" d="M172.9,310.8c0,1.9-1.2,3.7-3.9,3.7c-2.9,0-4.2-1.7-4-3.7c-0.1-3.3-3.7-5.5-11.3-0.4v25.1c0,5.5,4,5.7,4,5.7
			h-15.8c0,0,4.1-0.1,4.1-5.7v-24.6c0-4.4-4-4.2-4-4.2l11.4-1.4l0.4,2.7v0.6l2.6-1.6C163.5,302.3,172.9,304.5,172.9,310.8z"/>
		<path class="st3" d="M181.1,338.9c-2.2,1.2-3.2,3-3.2,3v-19.7c1.9,12.5,9.1,17.6,17,17.6c5.5,0,9-2.4,9-6c0-3.8-2.7-5.9-12-8.6
			c-9.9-2.9-14-5.7-14-11.2c0-5.3,3.8-9.4,15.8-9.4c4.8,0,8.9,0.9,12.2,2.8c2.4-0.2,3.1-3,3.1-3v16.6c-0.6-9.1-6.3-14.5-15.3-14.5
			c-4.8,0-9.8,1.4-9.8,4.2c0,3.1,2.4,4.7,14.7,8.3c10,2.9,12.2,6.9,12.2,12.1c0,6.1-5,10.6-16,10.6
			C189.9,341.7,184.7,340.9,181.1,338.9z"/>
		<path class="st3" d="M231.1,307.2v28.3c0,5.5,4.1,5.7,4.1,5.7h-15.8c0,0,4-0.1,4-5.7v-28.3h-9.3v-2h9.3v-8.7c0-4.9-4-4.7-4-4.7
			l11.7-1v14.4h8.7v2H231.1z"/>
		<path class="st3" d="M278.1,335.5c0,5.5,4,5.7,4,5.7h-11.4l-0.4-2.7l-5.8,1.7c-13.1,3.7-19.3,0.4-19.3-9v-20.3c0-4.4-4-4.2-4-4.2
			l11.7-1.4v26c0,7.1,4.5,9.3,14.4,6.4l3-0.9v-25.8c0-4.4-4-4.2-4-4.2l11.7-1.4V335.5z"/>
		<path class="st3" d="M319.6,310.7l-14.3,30.5h-4l-14-30.2c-2.8-5.7-8.1-5.8-8.1-5.8h20.9c0,0-6.8,0.1-3.5,8.7l9.6,20.5l8.6-18.3
			l-0.1,0.1c5.1-10.9-2.4-11-2.4-11h15.2C327.5,305.2,322.1,305.3,319.6,310.7z"/>
		<path class="st3" d="M380.5,310.4l-13.9,30.7h-4l-7.9-20.5l-9.3,20.5h-4l-14.8-30.2c-2.7-5.5-7.7-5.8-7.7-5.8h20
			c-0.1,0-7.3,0-4.3,5.8l11.7,23.4l7.4-16.3l-3-7.9c-2.4-5-7-5-7.1-5h20.3c-0.1,0-7.1,0-4.9,6.2l8.6,22.7l8.4-18.6
			c4.3-10.3-2.7-10.3-2.7-10.3h14.6C387.9,305.2,383.4,305.2,380.5,310.4z"/>
		<path class="st3" d="M426.3,341.2h-20c3.1,0,5.4-1.1,1.6-6.7l-5.5-8.2l-3.4,5c-6,8.9-3.7,9.9,2.8,9.9h-19.6
			c5.3-0.2,8.9-2,14.8-10.6l4.2-6.1l-7.8-11.5c0,0,0-0.1-0.1-0.1l-0.1-0.3c-3.7-5.3-6.8-7.2-10.1-7.4h20c-3,0-5.3,1-1.8,6.3l5.8,8.5
			l3.4-5c6-8.9,3.7-9.9-2.8-9.9h19.6c-5.3,0.2-8.9,2-14.8,10.6l-4.2,6.1l9.1,13.3C420.5,339.4,423.4,340.9,426.3,341.2z"/>
		<path class="st3" d="M461.9,310.3l-17.5,37.5c-5.6,12-10.9,11.5-13.3,10.4c-2.3-0.9-3.3-2.8-2.1-5.5c1.2-2.4,3.2-2.8,5.5-1.7
			c3.2,1.4,6.2,0,8.1-4l1.9-4l-14.8-31.9c-2.7-5.9-8.2-6-8.2-6h21c0,0-7.1,0.1-3.2,9.2l9.4,20.1l8.6-18.4l-0.1,0.1
			c5.1-10.9-2.4-11-2.4-11h15.2C469.7,305.2,464.5,305.3,461.9,310.3z"/>
		<path class="st3" d="M499.8,329.8l-0.6,11.4h-31l21.2-34h-11.4c-7.3,0-9.7,7.5-9.7,7.5l0.8-9.5h30.4l-21.2,34h10.9
			C498.2,339.1,499.8,329.8,499.8,329.8z"/>
	</g>
</g>
</svg>
