<?xml version="1.0" encoding="utf-8"?>
<!-- Generator: Adobe Illustrator 19.0.1, SVG Export Plug-In . SVG Version: 6.00 Build 0)  -->
<svg version="1.1" xmlns="http://www.w3.org/2000/svg" xmlns:xlink="http://www.w3.org/1999/xlink" x="0px" y="0px"
	 viewBox="0 0 821.6 426.8" style="enable-background:new 0 0 821.6 426.8;" xml:space="preserve">
<style type="text/css">
	.st0{display:none;}
	.st1{display:inline;fill:none;}
	.st2{display:inline;}
	.st3{font-family:'Onet-Regular';}
	.st4{font-size:48px;}
	.st5{font-family:'MyriadPro-Regular';}
	.st6{fill:#FF1F55;}
	.st7{letter-spacing:-4;}
	.st8{font-size:72px;}
	.st9{letter-spacing:4;}
	.st10{letter-spacing:5;}
	.st11{letter-spacing:7;}
	.st12{letter-spacing:2;}
	.st13{fill:#E085DE;}
	.st14{fill:#FFFFFF;}
</style>
<g id="Layer_1" class="st0">
	<rect x="3.4" y="0" class="st1" width="882.4" height="603.4"/>
	<text transform="matrix(1 0 0 1 3.3605 37.3951)" class="st2"><tspan x="0" y="0" class="st3 st4">Screens Inharmonious Slog</tspan><tspan x="655.2" y="0" class="st5 st4"> </tspan><tspan x="665.4" y="0" class="st3 st4">The </tspan><tspan x="0" y="54.4" class="st3 st4">Everyday Push Storm Outre Lux</tspan><tspan x="781.1" y="54.4" class="st5 st4"> </tspan><tspan x="0" y="108.8" class="st3 st4">Balsam Massacre Eco Friend Off </tspan><tspan x="0" y="163.2" class="st3 st4">Piste Aura Bombogenesis Detox </tspan><tspan x="0" y="217.6" class="st3 st4">Reconstruct No Sass Static At the </tspan><tspan x="0" y="272" class="st3 st4">Summit These Fruits These </tspan><tspan x="0" y="326.4" class="st3 st4">Vegetables Illusion of Seclusion </tspan><tspan x="0" y="380.8" class="st3 st4">Dusk Chrome Astral Projection</tspan></text>
</g>
<g id="Layer_1_copy" class="st0">
	<rect x="3.4" y="0" class="st1" width="818.8" height="603.4"/>
	<text transform="matrix(1 0 0 1 3.3605 37.3951)" class="st2"><tspan x="0" y="0" class="st6 st3 st4">CONTINUE ENCORE DX </tspan><tspan x="0" y="54.4" class="st6 st3 st4">ATTENTION 8 W</tspan><tspan x="411.9" y="54.4" class="st6 st3 st4 st7">A</tspan><tspan x="441.1" y="54.4" class="st6 st3 st4">Y K THEME </tspan><tspan x="0" y="108.8" class="st6 st3 st4">INVOC DOLEMN E YR BED </tspan><tspan x="0" y="163.2" class="st6 st3 st4">INNER VOXES 06:59 AM ALARM </tspan><tspan x="0" y="217.6" class="st6 st3 st4">CLOCK RUSH HOUR </tspan><tspan x="0" y="272" class="st6 st3 st4">SUPERSPEED HYPERSPEED</tspan></text>
</g>
<g id="Layer_1_copy_3" class="st0">
	<rect x="3.4" y="0" class="st1" width="605.7" height="603.4"/>
	<text transform="matrix(1 0 0 1 3.3605 56.0909)" class="st2"><tspan x="0" y="0" class="st3 st8 st9">ABCDEFGH</tspan><tspan x="460.8" y="0" class="st3 st8 st10">I</tspan><tspan x="488.2" y="0" class="st3 st8 st9">JK</tspan><tspan x="0" y="72.4" class="st3 st8 st9">LMNOPQRSTU</tspan><tspan x="0" y="144.8" class="st3 st8 st9">VWX</tspan><tspan x="197.7" y="144.8" class="st3 st8 st10">Y</tspan><tspan x="252.1" y="144.8" class="st3 st8 st9">Z</tspan><tspan x="0" y="217.2" class="st3 st8 st9">abcdefghjiklmn</tspan><tspan x="0" y="289.6" class="st3 st8 st9">op</tspan><tspan x="97.1" y="289.6" class="st3 st8 st11">q</tspan><tspan x="149" y="289.6" class="st3 st8 st9">rstuvw</tspan><tspan x="416.7" y="289.6" class="st3 st8 st12">xy</tspan><tspan x="505.7" y="289.6" class="st3 st8 st9">z</tspan><tspan x="0" y="362" class="st3 st8 st9">0123456</tspan><tspan x="323" y="362" class="st3 st8">7</tspan><tspan x="367.5" y="362" class="st3 st8 st9">89</tspan></text>
</g>
<g id="Layer_1_copy_8">
</g>
<g id="Layer_1_copy_2">
	<g>
		<path class="st13" d="M9.1,35.5c-1.9,1.2-2.8,2.8-2.8,2.8V20.4c0.2,6.7,4.3,16.4,14.2,16.4c5.6,0,8.6-2.1,8.6-6.5
			c0-3.7-2.2-5.7-10.4-8.5c-8.4-2.9-12.1-5.1-12.1-10.1c0-5.9,6.1-8.4,13.7-8.4c5.7,0,8.6,2.1,9.6,2.8c1.5-0.7,2.4-2.8,2.4-2.8v14.9
			c-0.2-8-4.9-13.5-12-13.5c-4.5,0-8.9,1.2-8.9,4.9c0,3.5,2,4.8,11.6,8.1c10.5,3.6,11.4,6.4,11.4,11.2c0,6.2-4.9,9.5-13.9,9.5
			C16.8,38.3,12.2,37.3,9.1,35.5z"/>
		<path class="st13" d="M37.4,25.2c0-7.3,5.5-12.2,13.1-12.2c2.8,0,5.4,1.1,7.6,2.3c0.8,0,1.7-0.8,2.2-2.1L60,24
			c-0.6-5.2-3.8-9.8-9.9-9.7c-3.7,0-7.4,3.6-7.3,10.3c0,5.7,3.5,10.2,8.9,10.2c4.8,0,8.1-2.7,9.5-6.7c-0.8,5.6-5.3,9.6-10.9,9.6
			C42.7,37.8,37.4,32.7,37.4,25.2z"/>
		<path class="st13" d="M84.3,17.1c0,1.3-0.8,2.4-2.6,2.4c-1.9,0-2.7-1.2-2.7-2.4c-0.1-2.2-2.4-3.6-7.5-0.2v16.7
			c0,3.7,2.7,3.8,2.7,3.8H63.6c0,0,2.7-0.1,2.7-3.8V17.2c0-2.9-2.7-2.8-2.7-2.8l7.6-1l0.2,1.8v0.4l1.7-1.1
			C78,11.5,84.3,13,84.3,17.1z"/>
		<path class="st13" d="M98,13c7.7,0,10.9,5.5,10.9,10.2H91c0,7.3,3.3,11.6,8.8,11.6c4.8,0,8-2.6,9.4-6.6c-0.8,5.6-5.1,9.6-10.8,9.6
			c-7.6,0-12.7-5-12.7-12.6C85.7,17.9,90.4,13,98,13z M103.3,21.8c0-0.9,0-7.5-5.3-7.5c-6.2,0-7,6.6-7,7.5H103.3z"/>
		<path class="st13" d="M124.1,13c7.7,0,10.9,5.5,10.9,10.2h-18c0,7.3,3.3,11.6,8.8,11.6c4.8,0,8-2.6,9.4-6.6
			c-0.8,5.6-5.1,9.6-10.8,9.6c-7.6,0-12.7-5-12.7-12.6C111.8,17.9,116.5,13,124.1,13z M129.4,21.8c0-0.9,0-7.5-5.3-7.5
			c-6.2,0-7,6.6-7,7.5H129.4z"/>
		<path class="st13" d="M145.7,15.2l3.8-1.1c8.3-2.4,12.4-0.3,12.4,7.3v12.2c0,3.7,2.7,3.8,2.7,3.8h-10.6c0,0,2.7-0.1,2.7-3.8V21.4
			c0-6-3-7.3-9.1-5.6l-2,0.6v17.2c0,3.7,2.7,3.8,2.7,3.8h-10.6c0,0,2.7-0.1,2.7-3.8V17.2c0-2.9-2.7-2.8-2.7-2.8l7.6-1L145.7,15.2z"
			/>
		<path class="st13" d="M170.4,35.9c-1.2,0.9-2.2,1.9-2.2,1.9V24.7c1.3,8.3,6,11.7,11.3,11.7c3.6,0,6-1.6,6-4c0-2.5-1.8-3.9-8-5.7
			c-6.6-1.9-9.4-3.8-9.4-7.4c0-3.5,2.5-6.3,10.6-6.3c3.2,0,5.9,0.6,8.1,1.9c1.4-0.6,2.1-1.9,2.1-1.9v11c-0.4-6.1-4.2-9.7-10.2-9.7
			c-3.2,0-6.5,1-6.5,2.8c0,2.1,1.6,3.1,9.8,5.5c6.7,1.9,8.2,4.6,8.2,8.1c0,4.1-3.3,7.1-10.7,7.1C176.2,37.8,172.8,37.2,170.4,35.9z"
			/>
		<path class="st13" d="M221.1,7.6v26c0,3.7,2.7,3.8,2.7,3.8h-10.6c0,0,2.7-0.1,2.7-3.8v-26c0-3.7-2.7-3.8-2.7-3.8h10.6
			C223.8,3.8,221.1,3.9,221.1,7.6z"/>
		<path class="st13" d="M235.1,15.2l3.8-1.1c8.3-2.4,12.4-0.3,12.4,7.3v12.2c0,3.7,2.7,3.8,2.7,3.8h-10.6c0,0,2.7-0.1,2.7-3.8V21.4
			c0-6-3-7.3-9.1-5.6l-2,0.6v17.2c0,3.7,2.7,3.8,2.7,3.8h-10.6c0,0,2.7-0.1,2.7-3.8V17.2c0-2.9-2.7-2.8-2.7-2.8l7.6-1L235.1,15.2z"
			/>
		<path class="st13" d="M264.2,15.2l3.8-1.1c8.3-2.4,12.4-0.3,12.4,7.3v12.2c0,3.7,2.7,3.8,2.7,3.8h-10.6c0,0,2.7-0.1,2.7-3.8V21.4
			c0-6-3-7.3-9.1-5.6l-2,0.6v17.2c0,3.7,2.7,3.8,2.7,3.8h-10.6c0,0,2.7-0.1,2.7-3.8V3.8c0-3.3-2.7-3.1-2.7-3.1l7.8-0.7V15.2z"/>
		<path class="st13" d="M304.2,37.4l-0.8-2.6l-3,1.3c-6.8,3-14.1,2-14.1-4.6c0-6,6.1-6.7,16.8-9.9c-0.2-6.6-2.4-7.4-5.2-7.4
			c-2.9,0-4.7,1.5-4.7,3.8c0,1.7-0.8,2.8-2.6,2.8c-1.9,0-2.8-1.2-2.7-2.8c0-1.7,2.2-5.1,10-5.1c7.5,0,10.4,2.8,10.4,8.5v12.2
			c0,3.7,2.7,3.8,2.7,3.8H304.2z M302.2,34l0.9-0.4V23.1l-0.6,0.2c-8.1,2.3-11.1,3.5-11.1,7.5C291.4,35.4,296.4,36.4,302.2,34z"/>
		<path class="st13" d="M334.2,17.1c0,1.3-0.8,2.4-2.6,2.4c-1.9,0-2.7-1.2-2.7-2.4c-0.1-2.2-2.4-3.6-7.5-0.2v16.7
			c0,3.7,2.7,3.8,2.7,3.8h-10.6c0,0,2.7-0.1,2.7-3.8V17.2c0-2.9-2.7-2.8-2.7-2.8l7.6-1l0.2,1.8v0.4l1.7-1.1
			C328,11.5,334.2,13,334.2,17.1z"/>
		<path class="st13" d="M368.2,33.6V21.4c0-6-2-7.8-7.7-5.8l-2.8,1c0.5,1.2,0.8,2.9,0.8,4.8v12.2c0,3.7,2.7,3.8,2.7,3.8h-10.6
			c0,0,2.7-0.1,2.7-3.8V21.4c0-6-2-7.8-7.7-5.8l-2,0.7v17.3c0,3.7,2.7,3.8,2.7,3.8h-10.6c0,0,2.7-0.1,2.7-3.8V17.2
			c0-2.9-2.7-2.8-2.7-2.8l7.6-1l0.2,1.7l3.9-1.2c4.5-1.5,7.9-1,9.6,1.7l5.2-1.7c6.8-2.2,11-0.1,11,7.5v12.2c0,3.7,2.7,3.8,2.7,3.8
			h-10.6C365.4,37.4,368.2,37.3,368.2,33.6z"/>
		<path class="st13" d="M378.6,25.2c0-7.3,5.5-12.2,13.1-12.2c7.6,0,13.1,4.9,13.1,12.2c0,7.5-5.5,12.6-13.1,12.6
			C384.1,37.8,378.6,32.7,378.6,25.2z M399.2,25.2c0-4.2-1.2-10.8-7.4-10.8c-6.2,0-7.4,6.6-7.4,10.8c0,4.3,1.2,11.2,7.4,11.2
			C398,36.4,399.2,29.5,399.2,25.2z"/>
		<path class="st13" d="M415.6,15.2l3.8-1.1c8.3-2.4,12.4-0.3,12.4,7.3v12.2c0,3.7,2.7,3.8,2.7,3.8h-10.6c0,0,2.7-0.1,2.7-3.8V21.4
			c0-6-3-7.3-9.1-5.6l-2,0.6v17.2c0,3.7,2.7,3.8,2.7,3.8h-10.6c0,0,2.7-0.1,2.7-3.8V17.2c0-2.9-2.7-2.8-2.7-2.8l7.6-1L415.6,15.2z"
			/>
		<path class="st13" d="M444.7,33.6c0,3.7,2.7,3.8,2.7,3.8h-10.6c0,0,2.7-0.1,2.7-3.8V17.2c0-2.9-2.7-2.8-2.7-2.8l7.8-1V33.6z
			 M438.8,6.8c0,1.8,1.2,3,3.1,3s3.3-1.2,3.3-3c0-1.8-1.4-3-3.3-3S438.8,5,438.8,6.8z"/>
		<path class="st13" d="M450.3,25.2c0-7.3,5.5-12.2,13.1-12.2s13.1,4.9,13.1,12.2c0,7.5-5.5,12.6-13.1,12.6S450.3,32.7,450.3,25.2z
			 M470.9,25.2c0-4.2-1.2-10.8-7.4-10.8c-6.2,0-7.4,6.6-7.4,10.8c0,4.3,1.2,11.2,7.4,11.2C469.7,36.4,470.9,29.5,470.9,25.2z"/>
		<path class="st13" d="M503.5,33.6c0,3.7,2.7,3.8,2.7,3.8h-7.6l-0.2-1.8l-3.8,1.1c-8.7,2.5-12.9,0.3-12.9-6V17.2
			c0-2.9-2.7-2.8-2.7-2.8l7.8-1v17.3c0,4.7,3,6.2,9.6,4.3l2-0.6V17.2c0-2.9-2.7-2.8-2.7-2.8l7.8-1V33.6z"/>
		<path class="st13" d="M512.4,35.9c-1.2,0.9-2.2,1.9-2.2,1.9V24.7c1.3,8.3,6,11.7,11.3,11.7c3.6,0,6-1.6,6-4c0-2.5-1.8-3.9-8-5.7
			c-6.6-1.9-9.4-3.8-9.4-7.4c0-3.5,2.5-6.3,10.6-6.3c3.2,0,5.9,0.6,8.1,1.9c1.4-0.6,2.1-1.9,2.1-1.9v11c-0.4-6.1-4.2-9.7-10.2-9.7
			c-3.2,0-6.5,1-6.5,2.8c0,2.1,1.6,3.1,9.8,5.5c6.7,1.9,8.2,4.6,8.2,8.1c0,4.1-3.3,7.1-10.7,7.1C518.2,37.8,514.7,37.2,512.4,35.9z"
			/>
		<path class="st13" d="M559.1,35.5c-1.9,1.2-2.8,2.8-2.8,2.8V20.4c0.2,6.7,4.3,16.4,14.2,16.4c5.6,0,8.6-2.1,8.6-6.5
			c0-3.7-2.2-5.7-10.4-8.5c-8.4-2.9-12.1-5.1-12.1-10.1c0-5.9,6.1-8.4,13.7-8.4c5.7,0,8.6,2.1,9.6,2.8c1.5-0.7,2.4-2.8,2.4-2.8v14.9
			c-0.2-8-4.9-13.5-12-13.5c-4.5,0-8.9,1.2-8.9,4.9c0,3.5,2,4.8,11.6,8.1c10.5,3.6,11.4,6.4,11.4,11.2c0,6.2-4.9,9.5-13.9,9.5
			C566.8,38.3,562.2,37.3,559.1,35.5z"/>
		<path class="st13" d="M595.2,33.6c0,3.7,2.7,3.8,2.7,3.8h-10.6c0,0,2.7-0.1,2.7-3.8V3.8c0-3.3-2.7-3.1-2.7-3.1l7.8-0.7V33.6z"/>
		<path class="st13" d="M600.9,25.2c0-7.3,5.5-12.2,13.1-12.2s13.1,4.9,13.1,12.2c0,7.5-5.5,12.6-13.1,12.6S600.9,32.7,600.9,25.2z
			 M621.4,25.2c0-4.2-1.2-10.8-7.4-10.8c-6.2,0-7.4,6.6-7.4,10.8c0,4.3,1.2,11.2,7.4,11.2C620.2,36.4,621.4,29.5,621.4,25.2z"/>
		<path class="st13" d="M650.8,15.4c1.9,1.5,3,3.7,3,6.6c0,5.7-4.2,8.8-11.5,8.8c-2.8,0-5.1-0.4-6.9-1.2c-0.7,0.2-1.1,0.6-1.1,1.3
			c0,1.2,2.3,2.5,9.6,2.5c9.4,0,13,3.6,13,8.6c0,4.9-4,8.8-13.5,8.8c-10.5,0-13.9-3.9-13.9-8.2c0-3.9,3.5-5.8,5.5-5.8
			c-5.8-1-5.5-6.7-0.9-8c-2.2-1.5-3.2-3.8-3.2-6.9c0-5.9,4.8-9,11.5-9c2.9,0,5.4,0.6,7.3,1.7c2.5-4.4,5.2-4.7,6.2-4.1
			c1,0.5,1.7,1.5,1.1,2.6c-0.6,1.2-1.8,1.1-2.8,0.5C652.9,13.1,651.7,13.9,650.8,15.4z M634,42.1c0,4.5,3.5,7.4,9.4,7.4
			c5.3,0,8.8-2.9,8.8-6.8c0-2.9-2.8-5.2-8.8-5.2c-2.8,0-4.9,0-6.8-0.2C635.3,37.8,634,39.7,634,42.1z M648.8,22
			c0-4.5-2.7-7.6-6.5-7.6s-6.5,3.2-6.5,7.6c0,4.4,2.7,7.5,6.5,7.5S648.8,26.4,648.8,22z"/>
		<path class="st13" d="M699.6,13.4c0,0-1.4-8.3-7.3-8.3h-6v28.5c0,3.7,2.7,3.8,2.7,3.8h-10.6c0,0,2.7-0.1,2.7-3.8V5.1h-5.7
			c-5.9,0-7.3,8.3-7.3,8.3l0.5-9.6h30.3L699.6,13.4z"/>
		<path class="st13" d="M709.4,15.2l3.8-1.1c8.3-2.4,12.4-0.3,12.4,7.3v12.2c0,3.7,2.7,3.8,2.7,3.8h-10.6c0,0,2.7-0.1,2.7-3.8V21.4
			c0-6-3-7.3-9.1-5.6l-2,0.6v17.2c0,3.7,2.7,3.8,2.7,3.8h-10.6c0,0,2.7-0.1,2.7-3.8V3.8c0-3.3-2.7-3.1-2.7-3.1l7.8-0.7V15.2z"/>
		<path class="st13" d="M743.3,13c7.7,0,10.9,5.5,10.9,10.2h-18c0,7.3,3.3,11.6,8.8,11.6c4.8,0,8-2.6,9.4-6.6
			c-0.8,5.6-5.1,9.6-10.8,9.6c-7.6,0-12.7-5-12.7-12.6C731,17.9,735.7,13,743.3,13z M748.6,21.8c0-0.9,0-7.5-5.3-7.5
			c-6.2,0-7,6.6-7,7.5H748.6z"/>
		<path class="st13" d="M34,82.7l-0.5,9.1H5.3c0,0,2.7-0.1,2.7-3.8V62c0-3.7-2.7-3.8-2.7-3.8h27.6l0.8,7.2c0,0-2.3-5.9-6.5-5.9H13.2
			v14.3h9.3c7.3,0,7.4-5.1,7.4-5.1v11.6c0,0-0.1-5.1-7.4-5.1h-9.3v15.3h13.5C32.5,89.5,34,82.7,34,82.7z"/>
		<path class="st13" d="M60,71.5l-9.5,20.3h-2.7l-9.3-20.1c-1.9-3.8-5.4-3.9-5.4-3.9h13.9c0,0-4.5,0.1-2.3,5.8l6.4,13.7l5.7-12.2
			l0,0c3.4-7.2-1.6-7.3-1.6-7.3h10.1C65.2,67.8,61.6,67.9,60,71.5z"/>
		<path class="st13" d="M76.6,67.4c7.7,0,10.9,5.5,10.9,10.2h-18c0,7.3,3.3,11.6,8.8,11.6c4.8,0,8-2.6,9.4-6.6
			c-0.8,5.6-5.1,9.6-10.8,9.6c-7.6,0-12.7-5-12.7-12.6C64.3,72.3,69,67.4,76.6,67.4z M81.9,76.2c0-0.9,0-7.5-5.3-7.5
			c-6.2,0-7,6.6-7,7.5H81.9z"/>
		<path class="st13" d="M111,71.5c0,1.3-0.8,2.4-2.6,2.4c-1.9,0-2.7-1.2-2.7-2.4c-0.1-2.2-2.4-3.6-7.5-0.2V88c0,3.7,2.7,3.8,2.7,3.8
			H90.3c0,0,2.7-0.1,2.7-3.8V71.6c0-2.9-2.7-2.8-2.7-2.8l7.6-1l0.2,1.8V70l1.7-1.1C104.8,65.9,111,67.4,111,71.5z"/>
		<path class="st13" d="M136.1,71.2l-11.7,25c-3.7,8-7.3,7.7-8.9,7c-1.5-0.6-2.2-1.9-1.4-3.6c0.8-1.6,2.1-1.9,3.6-1.2
			c2.1,1,4.1,0,5.4-2.7l1.2-2.6l-9.9-21.3c-1.8-3.9-5.5-4-5.5-4h14c0,0-4.7,0.1-2.2,6.1l6.2,13.4l5.7-12.2l0,0
			c3.4-7.2-1.6-7.3-1.6-7.3h10.1C141.3,67.8,137.8,67.9,136.1,71.2z"/>
		<path class="st13" d="M165.4,91.8h-7.3l-0.5-1.8v-0.1c-1.9,1.4-4.3,2.3-7.1,2.3c-6.9,0-12-3.8-12-11.9c0-7.9,5.1-12.9,12-12.9
			c2.9,0,5.2,0.8,7.1,2V58.2c0-3.3-2.7-3.1-2.7-3.1l7.8-0.7V88C162.7,91.7,165.4,91.8,165.4,91.8z M157.6,88.4V71.2
			c-1.5-1.3-3.4-2.3-5.9-2.3c-4.1,0-7.6,4.2-7.6,10.9c0,6.8,2.9,10.6,7.6,10.6C154.2,90.5,156.1,89.6,157.6,88.4z"/>
		<path class="st13" d="M186.7,91.8l-0.8-2.6l-3,1.3c-6.8,3-14.1,2-14.1-4.6c0-6,6.1-6.7,16.8-9.9c-0.2-6.6-2.4-7.4-5.2-7.4
			c-2.9,0-4.7,1.5-4.7,3.8c0,1.7-0.8,2.8-2.6,2.8c-1.9,0-2.8-1.2-2.7-2.8c0-1.7,2.2-5.1,10-5.1c7.5,0,10.4,2.8,10.4,8.5V88
			c0,3.7,2.7,3.8,2.7,3.8H186.7z M184.7,88.4l0.9-0.4V77.5l-0.6,0.2c-8.1,2.3-11.1,3.5-11.1,7.5C173.9,89.8,178.8,90.8,184.7,88.4z"
			/>
		<path class="st13" d="M218.7,71.2l-11.7,25c-3.7,8-7.3,7.7-8.9,7c-1.5-0.6-2.2-1.9-1.4-3.6c0.8-1.6,2.1-1.9,3.6-1.2
			c2.1,1,4.1,0,5.4-2.7l1.2-2.6l-9.9-21.3c-1.8-3.9-5.5-4-5.5-4h14c0,0-4.7,0.1-2.2,6.1l6.2,13.4l5.7-12.2l0,0
			c3.4-7.2-1.6-7.3-1.6-7.3h10.1C223.9,67.8,220.4,67.9,218.7,71.2z"/>
		<path class="st13" d="M273.5,67.8c0,7.8-8.3,10.7-14.9,10.7h-8.7V88c0,3.7,2.7,3.8,2.7,3.8h-10.6c0,0,2.7-0.1,2.7-3.8V62.9
			c0,0,0-4.8-4.1-4.8H258C265.4,58.2,273.5,59.8,273.5,67.8z M268.1,68.5c0-6-3.5-9-11.1-9h-7.1v17.6h8.4
			C264.7,77.2,268.1,73.4,268.1,68.5z"/>
		<path class="st13" d="M299,88c0,3.7,2.7,3.8,2.7,3.8h-7.6l-0.2-1.8l-3.8,1.1c-8.7,2.5-12.9,0.3-12.9-6V71.6c0-2.9-2.7-2.8-2.7-2.8
			l7.8-1v17.3c0,4.7,3,6.2,9.6,4.3l2-0.6V71.6c0-2.9-2.7-2.8-2.7-2.8l7.8-1V88z"/>
		<path class="st13" d="M307.9,90.3c-1.2,0.9-2.2,1.9-2.2,1.9V79.1c1.3,8.3,6,11.7,11.3,11.7c3.6,0,6-1.6,6-4c0-2.5-1.8-3.9-8-5.7
			c-6.6-1.9-9.4-3.8-9.4-7.4c0-3.5,2.5-6.3,10.6-6.3c3.2,0,5.9,0.6,8.1,1.9c1.4-0.6,2.1-1.9,2.1-1.9v11c-0.4-6.1-4.2-9.7-10.2-9.7
			c-3.2,0-6.5,1-6.5,2.8c0,2.1,1.6,3.1,9.8,5.5c6.7,1.9,8.2,4.6,8.2,8.1c0,4.1-3.3,7.1-10.7,7.1C313.7,92.2,310.3,91.6,307.9,90.3z"
			/>
		<path class="st13" d="M339,69.6l3.8-1.1c8.3-2.4,12.4-0.3,12.4,7.3V88c0,3.7,2.7,3.8,2.7,3.8h-10.6c0,0,2.7-0.1,2.7-3.8V75.8
			c0-6-3-7.3-9.1-5.6l-2,0.6V88c0,3.7,2.7,3.8,2.7,3.8h-10.6c0,0,2.7-0.1,2.7-3.8V58.2c0-3.3-2.7-3.1-2.7-3.1l7.8-0.7V69.6z"/>
		<path class="st13" d="M384,89.9c-1.9,1.2-2.8,2.8-2.8,2.8V74.8c0.2,6.7,4.3,16.4,14.2,16.4c5.6,0,8.6-2.1,8.6-6.5
			c0-3.7-2.2-5.7-10.4-8.5c-8.4-2.9-12.1-5.1-12.1-10.1c0-5.9,6.1-8.4,13.7-8.4c5.7,0,8.6,2.1,9.6,2.8c1.5-0.7,2.4-2.8,2.4-2.8v14.9
			c-0.2-8-4.9-13.5-12-13.5c-4.5,0-8.9,1.2-8.9,4.9c0,3.5,2,4.8,11.6,8.1c10.5,3.6,11.4,6.4,11.4,11.2c0,6.2-4.9,9.5-13.9,9.5
			C391.7,92.7,387.2,91.7,384,89.9z"/>
		<path class="st13" d="M422.3,69.1V88c0,3.7,2.7,3.8,2.7,3.8h-10.6c0,0,2.7-0.1,2.7-3.8V69.1h-6.2v-1.3h6.2V62
			c0-3.3-2.7-3.1-2.7-3.1l7.8-0.7v9.6h5.8v1.3H422.3z"/>
		<path class="st13" d="M428.5,79.6c0-7.3,5.5-12.2,13.1-12.2s13.1,4.9,13.1,12.2c0,7.5-5.5,12.6-13.1,12.6S428.5,87.1,428.5,79.6z
			 M449.1,79.6c0-4.2-1.2-10.8-7.4-10.8c-6.2,0-7.4,6.6-7.4,10.8c0,4.3,1.2,11.2,7.4,11.2C447.9,90.8,449.1,83.9,449.1,79.6z"/>
		<path class="st13" d="M478.3,71.5c0,1.3-0.8,2.4-2.6,2.4c-1.9,0-2.7-1.2-2.7-2.4c-0.1-2.2-2.4-3.6-7.5-0.2V88
			c0,3.7,2.7,3.8,2.7,3.8h-10.6c0,0,2.7-0.1,2.7-3.8V71.6c0-2.9-2.7-2.8-2.7-2.8l7.6-1l0.2,1.8V70l1.7-1.1
			C472.1,65.9,478.3,67.4,478.3,71.5z"/>
		<path class="st13" d="M512.3,88V75.8c0-6-2-7.8-7.7-5.8l-2.8,1c0.5,1.2,0.8,2.9,0.8,4.8V88c0,3.7,2.7,3.8,2.7,3.8h-10.6
			c0,0,2.7-0.1,2.7-3.8V75.8c0-6-2-7.8-7.7-5.8l-2,0.7V88c0,3.7,2.7,3.8,2.7,3.8h-10.6c0,0,2.7-0.1,2.7-3.8V71.6
			c0-2.9-2.7-2.8-2.7-2.8l7.6-1l0.2,1.7l3.9-1.2c4.5-1.5,7.9-1,9.6,1.7l5.2-1.7c6.8-2.2,11-0.1,11,7.5V88c0,3.7,2.7,3.8,2.7,3.8
			h-10.6C509.5,91.8,512.3,91.7,512.3,88z"/>
		<path class="st13" d="M577.6,75c0,10.5-7.4,17.7-17.9,17.7c-10.4,0-17.9-7.2-17.9-17.7c0-10.6,7.4-17.4,17.9-17.4
			C570.2,57.6,577.6,64.4,577.6,75z M572,75c0-5.9-2.3-16-12.2-16c-9.9,0-12.2,10.1-12.2,16c0,5.9,2.3,16.3,12.2,16.3
			C569.7,91.3,572,80.9,572,75z"/>
		<path class="st13" d="M604.6,88c0,3.7,2.7,3.8,2.7,3.8h-7.6l-0.2-1.8l-3.8,1.1c-8.7,2.5-12.9,0.3-12.9-6V71.6
			c0-2.9-2.7-2.8-2.7-2.8l7.8-1v17.3c0,4.7,3,6.2,9.6,4.3l2-0.6V71.6c0-2.9-2.7-2.8-2.7-2.8l7.8-1V88z"/>
		<path class="st13" d="M620,69.1V88c0,3.7,2.7,3.8,2.7,3.8h-10.6c0,0,2.7-0.1,2.7-3.8V69.1h-6.2v-1.3h6.2V62c0-3.3-2.7-3.1-2.7-3.1
			l7.8-0.7v9.6h5.8v1.3H620z"/>
		<path class="st13" d="M647.9,71.5c0,1.3-0.8,2.4-2.6,2.4c-1.9,0-2.7-1.2-2.7-2.4c-0.1-2.2-2.4-3.6-7.5-0.2V88
			c0,3.7,2.7,3.8,2.7,3.8h-10.6c0,0,2.7-0.1,2.7-3.8V71.6c0-2.9-2.7-2.8-2.7-2.8l7.6-1l0.2,1.8V70l1.7-1.1
			C641.7,65.9,647.9,67.4,647.9,71.5z"/>
		<path class="st13" d="M661.7,67.4c7.7,0,10.9,5.5,10.9,10.2h-18c0,7.3,3.3,11.6,8.8,11.6c4.8,0,8-2.6,9.4-6.6
			c-0.8,5.6-5.1,9.6-10.8,9.6c-7.6,0-12.7-5-12.7-12.6C649.4,72.3,654.1,67.4,661.7,67.4z M667,76.2c0-0.9,0-7.5-5.3-7.5
			c-6.2,0-7,6.6-7,7.5H667z"/>
		<path class="st13" d="M722.4,79.3l-1.1,12.5h-26.3c0.2,0,2.7-0.1,2.7-3.8V62c0-3.7-2.7-3.8-2.7-3.8h10.6c0,0-2.7,0.1-2.7,3.8v28.5
			h9.3C721.4,90.5,722.4,79.3,722.4,79.3z"/>
		<path class="st13" d="M748.4,88c0,3.7,2.7,3.8,2.7,3.8h-7.6l-0.2-1.8l-3.8,1.1c-8.7,2.5-12.9,0.3-12.9-6V71.6
			c0-2.9-2.7-2.8-2.7-2.8l7.8-1v17.3c0,4.7,3,6.2,9.6,4.3l2-0.6V71.6c0-2.9-2.7-2.8-2.7-2.8l7.8-1V88z"/>
		<path class="st13" d="M781.5,91.8h-13.3c2.1-0.3,3.6-0.7,1.1-4.5l-3.7-5.5l-2.3,3.4c-4,6-2.4,6.2,1.9,6.6h-13.1
			c3.4-0.3,5.8-1.2,9.4-6.3l3.3-4.8l-5.2-7.7c0,0,0,0,0,0l-0.1-0.2c-2.4-3.6-4.6-4.6-6.7-4.9H766c-2,0.3-3.5,0.7-1.2,4.2l3.9,5.7
			l2.3-3.3c4-6,1.3-6.2-1.9-6.6h13.1c-3.6,0.3-6,1.3-9.9,7.1l-2.7,4l6,8.9C777.6,90.6,779.5,91.5,781.5,91.8z"/>
		<path class="st13" d="M7.5,142.4v-26c0-3.7-2.7-3.8-2.7-3.8h16.7c7.8,0,14.1,0.3,14.1,6.3c0,5.1-3.9,6.5-8.4,7
			c5.9,0,10.8,1.7,10.8,9.4c0,9-6.5,10.9-15.4,10.9H4.8C4.8,146.2,7.5,146.1,7.5,142.4z M21.5,125.3c6.3,0,8.9-1.8,8.9-6.1
			c0-4.1-2.4-5.2-10.8-5.2h-6.9v11.4H21.5z M22.3,144.9c6.3,0,10-2.4,10-9.2c0-6-1.9-8.9-10.3-8.9h-9.4v18.1H22.3z"/>
		<path class="st13" d="M59.3,146.2l-0.8-2.6l-3,1.3c-6.8,3-14.1,2-14.1-4.6c0-6,6.1-6.7,16.8-9.9c-0.2-6.6-2.4-7.4-5.2-7.4
			c-2.9,0-4.7,1.5-4.7,3.8c0,1.7-0.8,2.8-2.6,2.8c-1.9,0-2.8-1.2-2.7-2.8c0-1.7,2.2-5.1,10-5.1c7.5,0,10.4,2.8,10.4,8.5v12.2
			c0,3.7,2.7,3.8,2.7,3.8H59.3z M57.2,142.8l0.9-0.4v-10.5l-0.6,0.2c-8.1,2.3-11.1,3.5-11.1,7.5C46.4,144.2,51.4,145.2,57.2,142.8z"
			/>
		<path class="st13" d="M76.4,142.4c0,3.7,2.7,3.8,2.7,3.8H68.6c0,0,2.7-0.1,2.7-3.8v-29.8c0-3.3-2.7-3.1-2.7-3.1l7.8-0.7V142.4z"/>
		<path class="st13" d="M85.4,144.7c-1.2,0.9-2.2,1.9-2.2,1.9v-13.1c1.3,8.3,6,11.7,11.3,11.7c3.6,0,6-1.6,6-4c0-2.5-1.8-3.9-8-5.7
			c-6.6-1.9-9.4-3.8-9.4-7.4c0-3.5,2.5-6.3,10.6-6.3c3.2,0,5.9,0.6,8.1,1.9c1.4-0.6,2.1-1.9,2.1-1.9v11c-0.4-6.1-4.2-9.7-10.2-9.7
			c-3.2,0-6.5,1-6.5,2.8c0,2.1,1.6,3.1,9.8,5.5c6.7,1.9,8.2,4.6,8.2,8.1c0,4.1-3.3,7.1-10.7,7.1C91.2,146.6,87.7,146,85.4,144.7z"/>
		<path class="st13" d="M127,146.2l-0.8-2.6l-3,1.3c-6.8,3-14.1,2-14.1-4.6c0-6,6.1-6.7,16.8-9.9c-0.2-6.6-2.4-7.4-5.2-7.4
			c-2.9,0-4.7,1.5-4.7,3.8c0,1.7-0.8,2.8-2.6,2.8c-1.9,0-2.8-1.2-2.7-2.8c0-1.7,2.2-5.1,10-5.1c7.5,0,10.4,2.8,10.4,8.5v12.2
			c0,3.7,2.7,3.8,2.7,3.8H127z M124.9,142.8l0.9-0.4v-10.5l-0.6,0.2c-8.1,2.3-11.1,3.5-11.1,7.5
			C114.1,144.2,119.1,145.2,124.9,142.8z"/>
		<path class="st13" d="M168.8,142.4v-12.2c0-6-2-7.8-7.7-5.8l-2.8,1c0.5,1.2,0.8,2.9,0.8,4.8v12.2c0,3.7,2.7,3.8,2.7,3.8h-10.6
			c0,0,2.7-0.1,2.7-3.8v-12.2c0-6-2-7.8-7.7-5.8l-2,0.7v17.3c0,3.7,2.7,3.8,2.7,3.8h-10.6c0,0,2.7-0.1,2.7-3.8V126
			c0-2.9-2.7-2.8-2.7-2.8l7.6-1l0.2,1.7l3.9-1.2c4.5-1.5,7.9-1,9.6,1.7l5.2-1.7c6.8-2.2,11-0.1,11,7.5v12.2c0,3.7,2.7,3.8,2.7,3.8
			h-10.6C166.1,146.2,168.8,146.1,168.8,142.4z"/>
		<path class="st13" d="M230.4,139.7V116l-12.6,27.9l-14-28.5v24.3c0,6.4,4.2,6.5,4.2,6.5h-9.7c0,0,4.2-0.1,4.2-6.5v-20.5
			c0-6.4-4.2-6.5-4.2-6.5h10.1l11.5,23.4l10.5-23.4h7.8c0,0-2.7,0.1-2.7,3.8v23.3c0,6.4,4.2,6.5,4.2,6.5h-12.9
			C226.8,146.2,230.4,146.1,230.4,139.7z"/>
		<path class="st13" d="M260,146.2l-0.8-2.6l-3,1.3c-6.8,3-14.1,2-14.1-4.6c0-6,6.1-6.7,16.8-9.9c-0.2-6.6-2.4-7.4-5.2-7.4
			c-2.9,0-4.7,1.5-4.7,3.8c0,1.7-0.8,2.8-2.6,2.8c-1.9,0-2.8-1.2-2.7-2.8c0-1.7,2.2-5.1,10-5.1c7.5,0,10.4,2.8,10.4,8.5v12.2
			c0,3.7,2.7,3.8,2.7,3.8H260z M257.9,142.8l0.9-0.4v-10.5l-0.6,0.2c-8.1,2.3-11.1,3.5-11.1,7.5
			C247.1,144.2,252.1,145.2,257.9,142.8z"/>
		<path class="st13" d="M272.7,144.7c-1.2,0.9-2.2,1.9-2.2,1.9v-13.1c1.3,8.3,6,11.7,11.3,11.7c3.6,0,6-1.6,6-4c0-2.5-1.8-3.9-8-5.7
			c-6.6-1.9-9.4-3.8-9.4-7.4c0-3.5,2.5-6.3,10.6-6.3c3.2,0,5.9,0.6,8.1,1.9c1.4-0.6,2.1-1.9,2.1-1.9v11c-0.4-6.1-4.2-9.7-10.2-9.7
			c-3.2,0-6.5,1-6.5,2.8c0,2.1,1.6,3.1,9.8,5.5c6.7,1.9,8.2,4.6,8.2,8.1c0,4.1-3.3,7.1-10.7,7.1C278.5,146.6,275,146,272.7,144.7z"
			/>
		<path class="st13" d="M298.7,144.7c-1.2,0.9-2.2,1.9-2.2,1.9v-13.1c1.3,8.3,6,11.7,11.3,11.7c3.6,0,6-1.6,6-4c0-2.5-1.8-3.9-8-5.7
			c-6.6-1.9-9.4-3.8-9.4-7.4c0-3.5,2.5-6.3,10.6-6.3c3.2,0,5.9,0.6,8.1,1.9c1.4-0.6,2.1-1.9,2.1-1.9v11c-0.4-6.1-4.2-9.7-10.2-9.7
			c-3.2,0-6.5,1-6.5,2.8c0,2.1,1.6,3.1,9.8,5.5c6.7,1.9,8.2,4.6,8.2,8.1c0,4.1-3.3,7.1-10.7,7.1C304.6,146.6,301.1,146,298.7,144.7z
			"/>
		<path class="st13" d="M340.4,146.2l-0.8-2.6l-3,1.3c-6.8,3-14.1,2-14.1-4.6c0-6,6.1-6.7,16.8-9.9c-0.2-6.6-2.4-7.4-5.2-7.4
			c-2.9,0-4.7,1.5-4.7,3.8c0,1.7-0.8,2.8-2.6,2.8c-1.9,0-2.8-1.2-2.7-2.8c0-1.7,2.2-5.1,10-5.1c7.5,0,10.4,2.8,10.4,8.5v12.2
			c0,3.7,2.7,3.8,2.7,3.8H340.4z M338.3,142.8l0.9-0.4v-10.5l-0.6,0.2c-8.1,2.3-11.1,3.5-11.1,7.5
			C327.5,144.2,332.5,145.2,338.3,142.8z"/>
		<path class="st13" d="M349.7,134c0-7.3,5.5-12.2,13.1-12.2c2.8,0,5.4,1.1,7.6,2.3c0.8,0,1.7-0.8,2.2-2.1l-0.2,10.9
			c-0.6-5.2-3.8-9.8-9.9-9.7c-3.7,0-7.4,3.6-7.3,10.3c0,5.7,3.5,10.2,8.9,10.2c4.8,0,8.1-2.7,9.5-6.7c-0.8,5.6-5.3,9.6-10.9,9.6
			C354.9,146.6,349.7,141.5,349.7,134z"/>
		<path class="st13" d="M396.5,125.9c0,1.3-0.8,2.4-2.6,2.4c-1.9,0-2.7-1.2-2.7-2.4c-0.1-2.2-2.4-3.6-7.5-0.2v16.7
			c0,3.7,2.7,3.8,2.7,3.8h-10.6c0,0,2.7-0.1,2.7-3.8V126c0-2.9-2.7-2.8-2.7-2.8l7.6-1l0.2,1.8v0.4l1.7-1.1
			C390.3,120.3,396.5,121.8,396.5,125.9z"/>
		<path class="st13" d="M410.3,121.8c7.7,0,10.9,5.5,10.9,10.2h-18c0,7.3,3.3,11.6,8.8,11.6c4.8,0,8-2.6,9.4-6.6
			c-0.8,5.6-5.1,9.6-10.8,9.6c-7.6,0-12.7-5-12.7-12.6C398,126.7,402.7,121.8,410.3,121.8z M415.6,130.6c0-0.9,0-7.5-5.3-7.5
			c-6.2,0-7,6.6-7,7.5H415.6z"/>
		<path class="st13" d="M472.4,137.1l-0.5,9.1h-28.2c0,0,2.7-0.1,2.7-3.8v-26c0-3.7-2.7-3.8-2.7-3.8h27.6l0.8,7.2
			c0,0-2.3-5.9-6.5-5.9h-14.1v14.3h9.3c7.3,0,7.4-5.1,7.4-5.1v11.6c0,0-0.1-5.1-7.4-5.1h-9.3v15.3h13.5
			C470.9,143.9,472.4,137.1,472.4,137.1z"/>
		<path class="st13" d="M475.8,134c0-7.3,5.5-12.2,13.1-12.2c2.8,0,5.4,1.1,7.6,2.3c0.8,0,1.7-0.8,2.2-2.1l-0.2,10.9
			c-0.6-5.2-3.8-9.8-9.9-9.7c-3.7,0-7.4,3.6-7.3,10.3c0,5.7,3.5,10.2,8.9,10.2c4.8,0,8.1-2.7,9.5-6.7c-0.8,5.6-5.3,9.6-10.9,9.6
			C481,146.6,475.8,141.5,475.8,134z"/>
		<path class="st13" d="M501.9,134c0-7.3,5.5-12.2,13.1-12.2s13.1,4.9,13.1,12.2c0,7.5-5.5,12.6-13.1,12.6S501.9,141.5,501.9,134z
			 M522.5,134c0-4.2-1.2-10.8-7.4-10.8c-6.2,0-7.4,6.6-7.4,10.8c0,4.3,1.2,11.2,7.4,11.2C521.3,145.2,522.5,138.3,522.5,134z"/>
		<path class="st13" d="M576.9,124v11.6c0,0-0.1-5.1-7.4-5.1h-10v12c0,3.7,2.7,3.8,2.7,3.8h-10.6c0,0,2.7-0.1,2.7-3.8v-25.1
			c0,0,0-4.8-4-4.8h28.7l1.1,7.9c0,0-1.8-6.5-8.4-6.5h-12.1v15.1l10,0C576.8,129.2,576.9,124,576.9,124z"/>
		<path class="st13" d="M602.1,125.9c0,1.3-0.8,2.4-2.6,2.4c-1.9,0-2.7-1.2-2.7-2.4c-0.1-2.2-2.4-3.6-7.5-0.2v16.7
			c0,3.7,2.7,3.8,2.7,3.8h-10.6c0,0,2.7-0.1,2.7-3.8V126c0-2.9-2.7-2.8-2.7-2.8l7.6-1l0.2,1.8v0.4l1.7-1.1
			C595.9,120.3,602.1,121.8,602.1,125.9z"/>
		<path class="st13" d="M611.8,142.4c0,3.7,2.7,3.8,2.7,3.8H604c0,0,2.7-0.1,2.7-3.8V126c0-2.9-2.7-2.8-2.7-2.8l7.8-1V142.4z
			 M605.9,115.6c0,1.8,1.2,3,3.1,3s3.3-1.2,3.3-3c0-1.8-1.4-3-3.3-3S605.9,113.8,605.9,115.6z"/>
		<path class="st13" d="M629.8,121.8c7.7,0,10.9,5.5,10.9,10.2h-18c0,7.3,3.3,11.6,8.8,11.6c4.8,0,8-2.6,9.4-6.6
			c-0.8,5.6-5.1,9.6-10.8,9.6c-7.6,0-12.7-5-12.7-12.6C617.5,126.7,622.2,121.8,629.8,121.8z M635.1,130.6c0-0.9,0-7.5-5.3-7.5
			c-6.2,0-7,6.6-7,7.5H635.1z"/>
		<path class="st13" d="M651.4,124l3.8-1.1c8.3-2.4,12.4-0.3,12.4,7.3v12.2c0,3.7,2.7,3.8,2.7,3.8h-10.6c0,0,2.7-0.1,2.7-3.8v-12.2
			c0-6-3-7.3-9.1-5.6l-2,0.6v17.2c0,3.7,2.7,3.8,2.7,3.8h-10.6c0,0,2.7-0.1,2.7-3.8V126c0-2.9-2.7-2.8-2.7-2.8l7.6-1L651.4,124z"/>
		<path class="st13" d="M699.7,146.2h-7.3l-0.5-1.8v-0.1c-1.9,1.4-4.3,2.3-7.1,2.3c-6.9,0-12-3.8-12-11.9c0-7.9,5.1-12.9,12-12.9
			c2.9,0,5.2,0.8,7.1,2v-11.2c0-3.3-2.7-3.1-2.7-3.1l7.8-0.7v33.6C697,146.1,699.7,146.2,699.7,146.2z M691.9,142.8v-17.2
			c-1.5-1.3-3.4-2.3-5.9-2.3c-4.1,0-7.6,4.2-7.6,10.9c0,6.8,2.9,10.6,7.6,10.6C688.5,144.9,690.4,144,691.9,142.8z"/>
		<path class="st13" d="M757.5,129.4c0,10.5-7.4,17.7-17.9,17.7c-10.4,0-17.9-7.2-17.9-17.7c0-10.6,7.4-17.4,17.9-17.4
			C750.1,112,757.5,118.8,757.5,129.4z M751.8,129.4c0-5.9-2.3-16-12.2-16c-9.9,0-12.2,10.1-12.2,16c0,5.9,2.3,16.3,12.2,16.3
			C749.6,145.7,751.8,135.3,751.8,129.4z"/>
		<path class="st13" d="M768.7,117.7v4.5h9.6v1.3h-9.6v18.9c0,3.7,2.7,3.8,2.7,3.8h-10.6c0,0,2.7-0.1,2.7-3.8v-18.9h-4.6v-1.3h4.6
			v-4.5c0-8.2,2.4-9.8,8.6-9.8c5.2,0,8.4,1.8,8.4,4.7c0.1,1.7-0.8,2.8-2.7,2.8c-1.8,0-2.6-1.2-2.6-2.8c0-2.3-1-3.4-3.1-3.4
			C769.6,109.3,768.7,110.2,768.7,117.7z"/>
		<path class="st13" d="M787.9,117.7v4.5h9.6v1.3h-9.6v18.9c0,3.7,2.7,3.8,2.7,3.8H780c0,0,2.7-0.1,2.7-3.8v-18.9h-4.6v-1.3h4.6
			v-4.5c0-8.2,2.4-9.8,8.6-9.8c5.2,0,8.4,1.8,8.4,4.7c0.1,1.7-0.8,2.8-2.7,2.8c-1.8,0-2.6-1.2-2.6-2.8c0-2.3-1-3.4-3.1-3.4
			C788.8,109.3,787.9,110.2,787.9,117.7z"/>
		<path class="st13" d="M36.6,176.6c0,7.8-8.3,10.7-14.9,10.7h-8.7v9.5c0,3.7,2.7,3.8,2.7,3.8H5.2c0,0,2.7-0.1,2.7-3.8v-25.1
			c0,0,0-4.8-4.1-4.8h17.3C28.6,167,36.6,168.6,36.6,176.6z M31.2,177.3c0-6-3.5-9-11.1-9h-7.1V186h8.4
			C27.8,186,31.2,182.2,31.2,177.3z"/>
		<path class="st13" d="M45.9,196.8c0,3.7,2.7,3.8,2.7,3.8H38.1c0,0,2.7-0.1,2.7-3.8v-16.4c0-2.9-2.7-2.8-2.7-2.8l7.8-1V196.8z
			 M40,170c0,1.8,1.2,3,3.1,3s3.3-1.2,3.3-3c0-1.8-1.4-3-3.3-3S40,168.2,40,170z"/>
		<path class="st13" d="M54.9,199.1c-1.2,0.9-2.2,1.9-2.2,1.9v-13.1c1.3,8.3,6,11.7,11.3,11.7c3.6,0,6-1.6,6-4c0-2.5-1.8-3.9-8-5.7
			c-6.6-1.9-9.4-3.8-9.4-7.4c0-3.5,2.5-6.3,10.6-6.3c3.2,0,5.9,0.6,8.1,1.9c1.4-0.6,2.1-1.9,2.1-1.9v11c-0.4-6.1-4.2-9.7-10.2-9.7
			c-3.2,0-6.5,1-6.5,2.8c0,2.1,1.6,3.1,9.8,5.5c6.7,1.9,8.2,4.6,8.2,8.1c0,4.1-3.3,7.1-10.7,7.1C60.7,201,57.2,200.4,54.9,199.1z"/>
		<path class="st13" d="M87.9,177.9v18.9c0,3.7,2.7,3.8,2.7,3.8H80.1c0,0,2.7-0.1,2.7-3.8v-18.9h-6.2v-1.3h6.2v-5.8
			c0-3.3-2.7-3.1-2.7-3.1l7.8-0.7v9.6h5.8v1.3H87.9z"/>
		<path class="st13" d="M107,176.2c7.7,0,10.9,5.5,10.9,10.2h-18c0,7.3,3.3,11.6,8.8,11.6c4.8,0,8-2.6,9.4-6.6
			c-0.8,5.6-5.1,9.6-10.8,9.6c-7.6,0-12.7-5-12.7-12.6C94.7,181.1,99.4,176.2,107,176.2z M112.3,185c0-0.9,0-7.5-5.3-7.5
			c-6.2,0-7,6.6-7,7.5H112.3z"/>
		<path class="st13" d="M175,200.6h-12.9c0,0,4.2,0,1.7-6.5l-2.4-6.3l-16.6,6.3c-2.3,6.5,4.3,6.5,4.4,6.5h-12.6c0,0,4.5,0,6.8-6.5
			l4.5-12.6c3.6-10.1,5.2-14.5-0.4-14.5h11.3l10.4,27.3C171.5,200.6,175,200.6,175,200.6z M160.9,186.5l-6.9-18.2l-8.6,24.1
			L160.9,186.5z"/>
		<path class="st13" d="M198.1,196.8c0,3.7,2.7,3.8,2.7,3.8h-7.6l-0.2-1.8l-3.8,1.1c-8.7,2.5-12.9,0.3-12.9-6v-13.5
			c0-2.9-2.7-2.8-2.7-2.8l7.8-1v17.3c0,4.7,3,6.2,9.6,4.3l2-0.6v-17.2c0-2.9-2.7-2.8-2.7-2.8l7.8-1V196.8z"/>
		<path class="st13" d="M224.3,180.3c0,1.3-0.8,2.4-2.6,2.4c-1.9,0-2.7-1.2-2.7-2.4c-0.1-2.2-2.4-3.6-7.5-0.2v16.7
			c0,3.7,2.7,3.8,2.7,3.8h-10.6c0,0,2.7-0.1,2.7-3.8v-16.4c0-2.9-2.7-2.8-2.7-2.8l7.6-1l0.2,1.8v0.4l1.7-1.1
			C218.1,174.7,224.3,176.2,224.3,180.3z"/>
		<path class="st13" d="M244.2,200.6l-0.8-2.6l-3,1.3c-6.8,3-14.1,2-14.1-4.6c0-6,6.1-6.7,16.8-9.9c-0.2-6.6-2.4-7.4-5.2-7.4
			c-2.9,0-4.7,1.5-4.7,3.8c0,1.7-0.8,2.8-2.6,2.8c-1.9,0-2.8-1.2-2.7-2.8c0-1.7,2.2-5.1,10-5.1c7.5,0,10.4,2.8,10.4,8.5v12.2
			c0,3.7,2.7,3.8,2.7,3.8H244.2z M242.1,197.2l0.9-0.4v-10.5l-0.6,0.2c-8.1,2.3-11.1,3.5-11.1,7.5
			C231.3,198.6,236.3,199.6,242.1,197.2z"/>
		<path class="st13" d="M275.4,196.8v-26c0-3.7-2.7-3.8-2.7-3.8h16.7c7.8,0,14.1,0.3,14.1,6.3c0,5.1-3.9,6.5-8.4,7
			c5.9,0,10.8,1.7,10.8,9.4c0,9-6.5,10.9-15.4,10.9h-17.8C272.7,200.6,275.4,200.5,275.4,196.8z M289.3,179.7c6.3,0,8.9-1.8,8.9-6.1
			c0-4.1-2.4-5.2-10.8-5.2h-6.9v11.4H289.3z M290.2,199.3c6.3,0,10-2.4,10-9.2c0-6-1.9-8.9-10.3-8.9h-9.4v18.1H290.2z"/>
		<path class="st13" d="M309.2,188.4c0-7.3,5.5-12.2,13.1-12.2c7.6,0,13.1,4.9,13.1,12.2c0,7.5-5.5,12.6-13.1,12.6
			C314.7,201,309.2,195.9,309.2,188.4z M329.8,188.4c0-4.2-1.2-10.8-7.4-10.8c-6.2,0-7.4,6.6-7.4,10.8c0,4.3,1.2,11.2,7.4,11.2
			C328.6,199.6,329.8,192.7,329.8,188.4z"/>
		<path class="st13" d="M370.8,196.8v-12.2c0-6-2-7.8-7.7-5.8l-2.8,1c0.5,1.2,0.8,2.9,0.8,4.8v12.2c0,3.7,2.7,3.8,2.7,3.8h-10.6
			c0,0,2.7-0.1,2.7-3.8v-12.2c0-6-2-7.8-7.7-5.8l-2,0.7v17.3c0,3.7,2.7,3.8,2.7,3.8h-10.6c0,0,2.7-0.1,2.7-3.8v-16.4
			c0-2.9-2.7-2.8-2.7-2.8l7.6-1l0.2,1.7l3.9-1.2c4.5-1.5,7.9-1,9.6,1.7l5.2-1.7c6.8-2.2,11-0.1,11,7.5v12.2c0,3.7,2.7,3.8,2.7,3.8
			h-10.6C368.1,200.6,370.8,200.5,370.8,196.8z"/>
		<path class="st13" d="M408.2,188c0,9.2-5.2,13-12,13c-2.8,0-5.2-0.9-7.1-2.3v0.1l-0.5,1.8h-7.3c0,0,2.7-0.1,2.7-3.8V166
			c0-2.9-2.7-2.8-2.7-2.8l7.8-1v16c1.9-1.2,4.2-2,7.1-2C403.1,176.2,408.2,180.6,408.2,188z M402.6,188c0-6.7-3.5-10.3-7.6-10.3
			c-2.4,0-4.4,0.9-5.9,2.3v17.2c1.5,1.2,3.4,2.1,5.9,2.1C399.7,199.3,402.6,195.4,402.6,188z"/>
		<path class="st13" d="M411.1,188.4c0-7.3,5.5-12.2,13.1-12.2c7.6,0,13.1,4.9,13.1,12.2c0,7.5-5.5,12.6-13.1,12.6
			C416.6,201,411.1,195.9,411.1,188.4z M431.7,188.4c0-4.2-1.2-10.8-7.4-10.8c-6.2,0-7.4,6.6-7.4,10.8c0,4.3,1.2,11.2,7.4,11.2
			C430.5,199.6,431.7,192.7,431.7,188.4z"/>
		<path class="st13" d="M461,178.6c1.9,1.5,3,3.7,3,6.6c0,5.7-4.2,8.8-11.5,8.8c-2.8,0-5.1-0.4-6.9-1.2c-0.7,0.2-1.1,0.6-1.1,1.3
			c0,1.2,2.3,2.5,9.6,2.5c9.4,0,13,3.6,13,8.6c0,4.9-4,8.8-13.5,8.8c-10.5,0-13.9-3.9-13.9-8.2c0-3.9,3.5-5.8,5.5-5.8
			c-5.8-1-5.5-6.7-0.9-8c-2.2-1.5-3.2-3.8-3.2-6.9c0-5.9,4.8-9,11.5-9c2.9,0,5.4,0.6,7.3,1.7c2.5-4.4,5.2-4.7,6.2-4.1
			c1,0.5,1.7,1.5,1.1,2.6c-0.6,1.2-1.8,1.1-2.8,0.5C463.1,176.3,461.9,177.1,461,178.6z M444.2,205.3c0,4.5,3.5,7.4,9.4,7.4
			c5.3,0,8.8-2.9,8.8-6.8c0-2.9-2.8-5.2-8.8-5.2c-2.8,0-4.9,0-6.8-0.2C445.5,201,444.2,202.9,444.2,205.3z M459.1,185.2
			c0-4.5-2.7-7.6-6.5-7.6s-6.5,3.2-6.5,7.6c0,4.4,2.7,7.5,6.5,7.5S459.1,189.6,459.1,185.2z"/>
		<path class="st13" d="M481.6,176.2c7.7,0,10.9,5.5,10.9,10.2h-18c0,7.3,3.3,11.6,8.8,11.6c4.8,0,8-2.6,9.4-6.6
			c-0.8,5.6-5.1,9.6-10.8,9.6c-7.6,0-12.7-5-12.7-12.6C469.3,181.1,474,176.2,481.6,176.2z M486.9,185c0-0.9,0-7.5-5.3-7.5
			c-6.2,0-7,6.6-7,7.5H486.9z"/>
		<path class="st13" d="M503.2,178.4l3.8-1.1c8.3-2.4,12.4-0.3,12.4,7.3v12.2c0,3.7,2.7,3.8,2.7,3.8h-10.6c0,0,2.7-0.1,2.7-3.8
			v-12.2c0-6-3-7.3-9.1-5.6l-2,0.6v17.2c0,3.7,2.7,3.8,2.7,3.8h-10.6c0,0,2.7-0.1,2.7-3.8v-16.4c0-2.9-2.7-2.8-2.7-2.8l7.6-1
			L503.2,178.4z"/>
		<path class="st13" d="M536.8,176.2c7.7,0,10.9,5.5,10.9,10.2h-18c0,7.3,3.3,11.6,8.8,11.6c4.8,0,8-2.6,9.4-6.6
			c-0.8,5.6-5.1,9.6-10.8,9.6c-7.6,0-12.7-5-12.7-12.6C524.5,181.1,529.2,176.2,536.8,176.2z M542.2,185c0-0.9,0-7.5-5.3-7.5
			c-6.2,0-7,6.6-7,7.5H542.2z"/>
		<path class="st13" d="M554,199.1c-1.2,0.9-2.2,1.9-2.2,1.9v-13.1c1.3,8.3,6,11.7,11.3,11.7c3.6,0,6-1.6,6-4c0-2.5-1.8-3.9-8-5.7
			c-6.6-1.9-9.4-3.8-9.4-7.4c0-3.5,2.5-6.3,10.6-6.3c3.2,0,5.9,0.6,8.1,1.9c1.4-0.6,2.1-1.9,2.1-1.9v11c-0.4-6.1-4.2-9.7-10.2-9.7
			c-3.2,0-6.5,1-6.5,2.8c0,2.1,1.6,3.1,9.8,5.5c6.7,1.9,8.2,4.6,8.2,8.1c0,4.1-3.3,7.1-10.7,7.1C559.8,201,556.3,200.4,554,199.1z"
			/>
		<path class="st13" d="M585,196.8c0,3.7,2.7,3.8,2.7,3.8h-10.6c0,0,2.7-0.1,2.7-3.8v-16.4c0-2.9-2.7-2.8-2.7-2.8l7.8-1V196.8z
			 M579.1,170c0,1.8,1.2,3,3.1,3s3.3-1.2,3.3-3c0-1.8-1.4-3-3.3-3S579.1,168.2,579.1,170z"/>
		<path class="st13" d="M593.9,199.1c-1.2,0.9-2.2,1.9-2.2,1.9v-13.1c1.3,8.3,6,11.7,11.3,11.7c3.6,0,6-1.6,6-4c0-2.5-1.8-3.9-8-5.7
			c-6.6-1.9-9.4-3.8-9.4-7.4c0-3.5,2.5-6.3,10.6-6.3c3.2,0,5.9,0.6,8.1,1.9c1.4-0.6,2.1-1.9,2.1-1.9v11c-0.4-6.1-4.2-9.7-10.2-9.7
			c-3.2,0-6.5,1-6.5,2.8c0,2.1,1.6,3.1,9.8,5.5c6.7,1.9,8.2,4.6,8.2,8.1c0,4.1-3.3,7.1-10.7,7.1C599.8,201,596.3,200.4,593.9,199.1z
			"/>
		<path class="st13" d="M639.1,196.8v-26c0-3.7-2.7-3.8-2.7-3.8H652c10.5,0,17.9,6.2,17.9,16.8c0,10.5-7.4,16.8-17.9,16.8h-15.7
			C636.3,200.6,639.1,200.5,639.1,196.8z M652,199.3c9.9,0,12.2-9.6,12.2-15.5c0-5.9-2.3-15.5-12.2-15.5h-7.8v30.9H652z"/>
		<path class="st13" d="M684.8,176.2c7.7,0,10.9,5.5,10.9,10.2h-18c0,7.3,3.3,11.6,8.8,11.6c4.8,0,8-2.6,9.4-6.6
			c-0.8,5.6-5.1,9.6-10.8,9.6c-7.6,0-12.7-5-12.7-12.6C672.5,181.1,677.2,176.2,684.8,176.2z M690.1,185c0-0.9,0-7.5-5.3-7.5
			c-6.2,0-7,6.6-7,7.5H690.1z"/>
		<path class="st13" d="M708,177.9v18.9c0,3.7,2.7,3.8,2.7,3.8h-10.6c0,0,2.7-0.1,2.7-3.8v-18.9h-6.2v-1.3h6.2v-5.8
			c0-3.3-2.7-3.1-2.7-3.1l7.8-0.7v9.6h5.8v1.3H708z"/>
		<path class="st13" d="M714.3,188.4c0-7.3,5.5-12.2,13.1-12.2s13.1,4.9,13.1,12.2c0,7.5-5.5,12.6-13.1,12.6
			S714.3,195.9,714.3,188.4z M734.8,188.4c0-4.2-1.2-10.8-7.4-10.8c-6.2,0-7.4,6.6-7.4,10.8c0,4.3,1.2,11.2,7.4,11.2
			C733.6,199.6,734.8,192.7,734.8,188.4z"/>
		<path class="st13" d="M769,200.6h-13.3c2.1-0.3,3.6-0.7,1.1-4.5l-3.7-5.5l-2.3,3.4c-4,6-2.4,6.2,1.9,6.6h-13.1
			c3.4-0.3,5.8-1.2,9.4-6.3l3.3-4.8l-5.2-7.7c0,0,0,0,0,0l-0.1-0.2c-2.4-3.6-4.6-4.6-6.7-4.9h13.3c-2,0.3-3.5,0.7-1.2,4.2l3.9,5.7
			l2.3-3.3c4-6,1.3-6.2-1.9-6.6h13.1c-3.6,0.3-6,1.3-9.9,7.1l-2.7,4l6,8.9C765.1,199.4,767,200.3,769,200.6z"/>
		<path class="st13" d="M31.3,251.6c-0.5-1.8-1.2-4.1-2-7c-1.7-6.2-6.3-5.9-6.5-5.9l-9.7,0.9v11.6c0,3.7,2.7,3.8,2.7,3.8H5.3
			c0,0,2.7-0.1,2.7-3.8v-26c0-3.7-2.7-3.8-2.7-3.8h17.5c9,0,14.1,1.4,14.1,8.1s-5.2,8.3-11,8.9c7-0.7,8.1,2.8,8.6,4.8
			c1.1,4,2,11.8,6.1,11.8H29.6C29.6,255,32.1,255,31.3,251.6z M31.5,230.1c0-4.9-1.7-7.3-8.7-7.3h-9.7v15.6l9.7-0.9
			C27.9,236.9,31.5,234.6,31.5,230.1z"/>
		<path class="st13" d="M54,230.6c7.7,0,10.9,5.5,10.9,10.2h-18c0,7.3,3.3,11.6,8.8,11.6c4.8,0,8-2.6,9.4-6.6
			c-0.8,5.6-5.1,9.6-10.8,9.6c-7.6,0-12.7-5-12.7-12.6C41.7,235.5,46.4,230.6,54,230.6z M59.3,239.4c0-0.9,0-7.5-5.3-7.5
			c-6.2,0-7,6.6-7,7.5H59.3z"/>
		<path class="st13" d="M67.7,242.8c0-7.3,5.5-12.2,13.1-12.2c2.8,0,5.4,1.1,7.6,2.3c0.8,0,1.7-0.8,2.2-2.1l-0.2,10.9
			c-0.6-5.2-3.8-9.8-9.9-9.7c-3.7,0-7.4,3.6-7.3,10.3c0,5.7,3.5,10.2,8.9,10.2c4.8,0,8.1-2.7,9.5-6.7c-0.8,5.6-5.3,9.6-10.9,9.6
			C73,255.4,67.7,250.3,67.7,242.8z"/>
		<path class="st13" d="M93.9,242.8c0-7.3,5.5-12.2,13.1-12.2c7.6,0,13.1,4.9,13.1,12.2c0,7.5-5.5,12.6-13.1,12.6
			C99.4,255.4,93.9,250.3,93.9,242.8z M114.4,242.8c0-4.2-1.2-10.8-7.4-10.8c-6.2,0-7.4,6.6-7.4,10.8c0,4.3,1.2,11.2,7.4,11.2
			C113.2,254,114.4,247.1,114.4,242.8z"/>
		<path class="st13" d="M130.8,232.8l3.8-1.1c8.3-2.4,12.4-0.3,12.4,7.3v12.2c0,3.7,2.7,3.8,2.7,3.8h-10.6c0,0,2.7-0.1,2.7-3.8V239
			c0-6-3-7.3-9.1-5.6l-2,0.6v17.2c0,3.7,2.7,3.8,2.7,3.8H123c0,0,2.7-0.1,2.7-3.8v-16.4c0-2.9-2.7-2.8-2.7-2.8l7.6-1L130.8,232.8z"
			/>
		<path class="st13" d="M155.5,253.5c-1.2,0.9-2.2,1.9-2.2,1.9v-13.1c1.3,8.3,6,11.7,11.3,11.7c3.6,0,6-1.6,6-4c0-2.5-1.8-3.9-8-5.7
			c-6.6-1.9-9.4-3.8-9.4-7.4c0-3.5,2.5-6.3,10.6-6.3c3.2,0,5.9,0.6,8.1,1.9c1.4-0.6,2.1-1.9,2.1-1.9v11c-0.4-6.1-4.2-9.7-10.2-9.7
			c-3.2,0-6.5,1-6.5,2.8c0,2.1,1.6,3.1,9.8,5.5c6.7,1.9,8.2,4.6,8.2,8.1c0,4.1-3.3,7.1-10.7,7.1
			C161.3,255.4,157.9,254.8,155.5,253.5z"/>
		<path class="st13" d="M188.6,232.3v18.9c0,3.7,2.7,3.8,2.7,3.8h-10.6c0,0,2.7-0.1,2.7-3.8v-18.9h-6.2V231h6.2v-5.8
			c0-3.3-2.7-3.1-2.7-3.1l7.8-0.7v9.6h5.8v1.3H188.6z"/>
		<path class="st13" d="M216.5,234.7c0,1.3-0.8,2.4-2.6,2.4c-1.9,0-2.7-1.2-2.7-2.4c-0.1-2.2-2.4-3.6-7.5-0.2v16.7
			c0,3.7,2.7,3.8,2.7,3.8h-10.6c0,0,2.7-0.1,2.7-3.8v-16.4c0-2.9-2.7-2.8-2.7-2.8l7.6-1l0.2,1.8v0.4l1.7-1.1
			C210.3,229.1,216.5,230.6,216.5,234.7z"/>
		<path class="st13" d="M242.5,251.2c0,3.7,2.7,3.8,2.7,3.8h-7.6l-0.2-1.8l-3.8,1.1c-8.7,2.5-12.9,0.3-12.9-6v-13.5
			c0-2.9-2.7-2.8-2.7-2.8l7.8-1v17.3c0,4.7,3,6.2,9.6,4.3l2-0.6v-17.2c0-2.9-2.7-2.8-2.7-2.8l7.8-1V251.2z"/>
		<path class="st13" d="M248.1,242.8c0-7.3,5.5-12.2,13.1-12.2c2.8,0,5.4,1.1,7.6,2.3c0.8,0,1.7-0.8,2.2-2.1l-0.2,10.9
			c-0.6-5.2-3.8-9.8-9.9-9.7c-3.7,0-7.4,3.6-7.3,10.3c0,5.7,3.5,10.2,8.9,10.2c4.8,0,8.1-2.7,9.5-6.7c-0.8,5.6-5.3,9.6-10.9,9.6
			C253.3,255.4,248.1,250.3,248.1,242.8z"/>
		<path class="st13" d="M284.1,232.3v18.9c0,3.7,2.7,3.8,2.7,3.8h-10.6c0,0,2.7-0.1,2.7-3.8v-18.9h-6.2V231h6.2v-5.8
			c0-3.3-2.7-3.1-2.7-3.1l7.8-0.7v9.6h5.8v1.3H284.1z"/>
		<path class="st13" d="M315.1,221.4l25.1,26.1v-19.6c0-6.3-4.6-6.5-4.6-6.5h10.2c0,0-4.3,0.1-4.3,6.5v23.3c0,3.7,1.3,3.8,1.3,3.8
			h-2.7l-25.1-26.1v19.6c0,6.3,4.7,6.5,4.7,6.5h-10.1c0,0,4-0.2,4-6.5v-20.9c0,0,0-6.2-4.1-6.2H315.1z"/>
		<path class="st13" d="M347.8,242.8c0-7.3,5.5-12.2,13.1-12.2s13.1,4.9,13.1,12.2c0,7.5-5.5,12.6-13.1,12.6
			S347.8,250.3,347.8,242.8z M368.3,242.8c0-4.2-1.2-10.8-7.4-10.8c-6.2,0-7.4,6.6-7.4,10.8c0,4.3,1.2,11.2,7.4,11.2
			C367.1,254,368.3,247.1,368.3,242.8z"/>
		<path class="st13" d="M400.3,253.1c-1.9,1.2-2.8,2.8-2.8,2.8V238c0.2,6.7,4.3,16.4,14.2,16.4c5.6,0,8.6-2.1,8.6-6.5
			c0-3.7-2.2-5.7-10.4-8.5c-8.4-2.9-12.1-5.1-12.1-10.1c0-5.9,6.1-8.4,13.7-8.4c5.7,0,8.6,2.1,9.6,2.8c1.5-0.7,2.4-2.8,2.4-2.8v14.9
			c-0.2-8-4.9-13.5-12-13.5c-4.5,0-8.9,1.2-8.9,4.9c0,3.5,2,4.8,11.6,8.1c10.5,3.6,11.4,6.4,11.4,11.2c0,6.2-4.9,9.5-13.9,9.5
			C408,255.9,403.5,254.9,400.3,253.1z"/>
		<path class="st13" d="M447.1,255l-0.8-2.6l-3,1.3c-6.8,3-14.1,2-14.1-4.6c0-6,6.1-6.7,16.8-9.9c-0.2-6.6-2.4-7.4-5.2-7.4
			c-2.9,0-4.7,1.5-4.7,3.8c0,1.7-0.8,2.8-2.6,2.8c-1.9,0-2.8-1.2-2.7-2.8c0-1.7,2.2-5.1,10-5.1c7.5,0,10.4,2.8,10.4,8.5v12.2
			c0,3.7,2.7,3.8,2.7,3.8H447.1z M445.1,251.6l0.9-0.4v-10.5l-0.6,0.2c-8.1,2.3-11.1,3.5-11.1,7.5C434.3,253,439.2,254,445.1,251.6z
			"/>
		<path class="st13" d="M459.8,253.5c-1.2,0.9-2.2,1.9-2.2,1.9v-13.1c1.3,8.3,6,11.7,11.3,11.7c3.6,0,6-1.6,6-4c0-2.5-1.8-3.9-8-5.7
			c-6.6-1.9-9.4-3.8-9.4-7.4c0-3.5,2.5-6.3,10.6-6.3c3.2,0,5.9,0.6,8.1,1.9c1.4-0.6,2.1-1.9,2.1-1.9v11c-0.4-6.1-4.2-9.7-10.2-9.7
			c-3.2,0-6.5,1-6.5,2.8c0,2.1,1.6,3.1,9.8,5.5c6.7,1.9,8.2,4.6,8.2,8.1c0,4.1-3.3,7.1-10.7,7.1
			C465.6,255.4,462.1,254.8,459.8,253.5z"/>
		<path class="st13" d="M485.9,253.5c-1.2,0.9-2.2,1.9-2.2,1.9v-13.1c1.3,8.3,6,11.7,11.3,11.7c3.6,0,6-1.6,6-4c0-2.5-1.8-3.9-8-5.7
			c-6.6-1.9-9.4-3.8-9.4-7.4c0-3.5,2.5-6.3,10.6-6.3c3.2,0,5.9,0.6,8.1,1.9c1.4-0.6,2.1-1.9,2.1-1.9v11c-0.4-6.1-4.2-9.7-10.2-9.7
			c-3.2,0-6.5,1-6.5,2.8c0,2.1,1.6,3.1,9.8,5.5c6.7,1.9,8.2,4.6,8.2,8.1c0,4.1-3.3,7.1-10.7,7.1
			C491.7,255.4,488.2,254.8,485.9,253.5z"/>
		<path class="st13" d="M532.5,253.1c-1.9,1.2-2.8,2.8-2.8,2.8V238c0.2,6.7,4.3,16.4,14.2,16.4c5.6,0,8.6-2.1,8.6-6.5
			c0-3.7-2.2-5.7-10.4-8.5c-8.4-2.9-12.1-5.1-12.1-10.1c0-5.9,6.1-8.4,13.7-8.4c5.7,0,8.6,2.1,9.6,2.8c1.5-0.7,2.4-2.8,2.4-2.8v14.9
			c-0.2-8-4.9-13.5-12-13.5c-4.5,0-8.9,1.2-8.9,4.9c0,3.5,2,4.8,11.6,8.1c10.5,3.6,11.4,6.4,11.4,11.2c0,6.2-4.9,9.5-13.9,9.5
			C540.2,255.9,535.7,254.9,532.5,253.1z"/>
		<path class="st13" d="M570.8,232.3v18.9c0,3.7,2.7,3.8,2.7,3.8h-10.6c0,0,2.7-0.1,2.7-3.8v-18.9h-6.2V231h6.2v-5.8
			c0-3.3-2.7-3.1-2.7-3.1l7.8-0.7v9.6h5.8v1.3H570.8z"/>
		<path class="st13" d="M596.4,255l-0.8-2.6l-3,1.3c-6.8,3-14.1,2-14.1-4.6c0-6,6.1-6.7,16.8-9.9c-0.2-6.6-2.4-7.4-5.2-7.4
			c-2.9,0-4.7,1.5-4.7,3.8c0,1.7-0.8,2.8-2.6,2.8c-1.9,0-2.8-1.2-2.7-2.8c0-1.7,2.2-5.1,10-5.1c7.5,0,10.4,2.8,10.4,8.5v12.2
			c0,3.7,2.7,3.8,2.7,3.8H596.4z M594.4,251.6l0.9-0.4v-10.5l-0.6,0.2c-8.1,2.3-11.1,3.5-11.1,7.5C583.6,253,588.6,254,594.4,251.6z
			"/>
		<path class="st13" d="M615.2,232.3v18.9c0,3.7,2.7,3.8,2.7,3.8h-10.6c0,0,2.7-0.1,2.7-3.8v-18.9h-6.2V231h6.2v-5.8
			c0-3.3-2.7-3.1-2.7-3.1l7.8-0.7v9.6h5.8v1.3H615.2z"/>
		<path class="st13" d="M630.2,251.2c0,3.7,2.7,3.8,2.7,3.8h-10.6c0,0,2.7-0.1,2.7-3.8v-16.4c0-2.9-2.7-2.8-2.7-2.8l7.8-1V251.2z
			 M624.3,224.4c0,1.8,1.2,3,3.1,3s3.3-1.2,3.3-3c0-1.8-1.4-3-3.3-3S624.3,222.6,624.3,224.4z"/>
		<path class="st13" d="M635.8,242.8c0-7.3,5.5-12.2,13.1-12.2c2.8,0,5.4,1.1,7.6,2.3c0.8,0,1.7-0.8,2.2-2.1l-0.2,10.9
			c-0.6-5.2-3.8-9.8-9.9-9.7c-3.7,0-7.4,3.6-7.3,10.3c0,5.7,3.5,10.2,8.9,10.2c4.8,0,8.1-2.7,9.5-6.7c-0.8,5.6-5.3,9.6-10.9,9.6
			C641.1,255.4,635.8,250.3,635.8,242.8z"/>
		<path class="st13" d="M716.2,255h-12.9c0,0,4.2,0,1.7-6.5l-2.4-6.3l-16.6,6.3c-2.3,6.5,4.3,6.5,4.4,6.5h-12.6c0,0,4.5,0,6.8-6.5
			l4.5-12.6c3.6-10.1,5.2-14.5-0.4-14.5H700l10.4,27.3C712.7,255,716.2,255,716.2,255z M702.2,240.9l-6.9-18.2l-8.6,24.1
			L702.2,240.9z"/>
		<path class="st13" d="M725.1,232.3v18.9c0,3.7,2.7,3.8,2.7,3.8h-10.6c0,0,2.7-0.1,2.7-3.8v-18.9h-6.2V231h6.2v-5.8
			c0-3.3-2.7-3.1-2.7-3.1l7.8-0.7v9.6h5.8v1.3H725.1z"/>
		<path class="st13" d="M761.5,232.3v18.9c0,3.7,2.7,3.8,2.7,3.8h-10.6c0,0,2.7-0.1,2.7-3.8v-18.9h-6.2V231h6.2v-5.8
			c0-3.3-2.7-3.1-2.7-3.1l7.8-0.7v9.6h5.8v1.3H761.5z"/>
		<path class="st13" d="M776.6,232.8l3.8-1.1c8.3-2.4,12.4-0.3,12.4,7.3v12.2c0,3.7,2.7,3.8,2.7,3.8h-10.6c0,0,2.7-0.1,2.7-3.8V239
			c0-6-3-7.3-9.1-5.6l-2,0.6v17.2c0,3.7,2.7,3.8,2.7,3.8h-10.6c0,0,2.7-0.1,2.7-3.8v-29.8c0-3.3-2.7-3.1-2.7-3.1l7.8-0.7V232.8z"/>
		<path class="st13" d="M810.4,230.6c7.7,0,10.9,5.5,10.9,10.2h-18c0,7.3,3.3,11.6,8.8,11.6c4.8,0,8-2.6,9.4-6.6
			c-0.8,5.6-5.1,9.6-10.8,9.6c-7.6,0-12.7-5-12.7-12.6C798.1,235.5,802.8,230.6,810.4,230.6z M815.8,239.4c0-0.9,0-7.5-5.3-7.5
			c-6.2,0-7,6.6-7,7.5H815.8z"/>
		<path class="st13" d="M9.1,307.5c-1.9,1.2-2.8,2.8-2.8,2.8v-17.9c0.2,6.7,4.3,16.4,14.2,16.4c5.6,0,8.6-2.1,8.6-6.5
			c0-3.7-2.2-5.7-10.4-8.5c-8.4-2.9-12.1-5.1-12.1-10.1c0-5.9,6.1-8.4,13.7-8.4c5.7,0,8.6,2.1,9.6,2.8c1.5-0.7,2.4-2.8,2.4-2.8v14.9
			c-0.2-8-4.9-13.5-12-13.5c-4.5,0-8.9,1.2-8.9,4.9c0,3.5,2,4.8,11.6,8.1c10.5,3.6,11.4,6.4,11.4,11.2c0,6.2-4.9,9.5-13.9,9.5
			C16.8,310.3,12.2,309.3,9.1,307.5z"/>
		<path class="st13" d="M61.5,305.6c0,3.7,2.7,3.8,2.7,3.8h-7.6l-0.2-1.8l-3.8,1.1c-8.7,2.5-12.9,0.3-12.9-6v-13.5
			c0-2.9-2.7-2.8-2.7-2.8l7.8-1v17.3c0,4.7,3,6.2,9.6,4.3l2-0.6v-17.2c0-2.9-2.7-2.8-2.7-2.8l7.8-1V305.6z"/>
		<path class="st13" d="M99.6,305.6v-12.2c0-6-2-7.8-7.7-5.8l-2.8,1c0.5,1.2,0.8,2.9,0.8,4.8v12.2c0,3.7,2.7,3.8,2.7,3.8H81.9
			c0,0,2.7-0.1,2.7-3.8v-12.2c0-6-2-7.8-7.7-5.8l-2,0.7v17.3c0,3.7,2.7,3.8,2.7,3.8H67.1c0,0,2.7-0.1,2.7-3.8v-16.4
			c0-2.9-2.7-2.8-2.7-2.8l7.6-1l0.2,1.7l3.9-1.2c4.5-1.5,7.9-1,9.6,1.7l5.2-1.7c6.8-2.2,11-0.1,11,7.5v12.2c0,3.7,2.7,3.8,2.7,3.8
			H96.8C96.8,309.4,99.6,309.3,99.6,305.6z"/>
		<path class="st13" d="M142.5,305.6v-12.2c0-6-2-7.8-7.7-5.8l-2.8,1c0.5,1.2,0.8,2.9,0.8,4.8v12.2c0,3.7,2.7,3.8,2.7,3.8h-10.6
			c0,0,2.7-0.1,2.7-3.8v-12.2c0-6-2-7.8-7.7-5.8l-2,0.7v17.3c0,3.7,2.7,3.8,2.7,3.8H110c0,0,2.7-0.1,2.7-3.8v-16.4
			c0-2.9-2.7-2.8-2.7-2.8l7.6-1l0.2,1.7l3.9-1.2c4.5-1.5,7.9-1,9.6,1.7l5.2-1.7c6.8-2.2,11-0.1,11,7.5v12.2c0,3.7,2.7,3.8,2.7,3.8
			h-10.6C139.8,309.4,142.5,309.3,142.5,305.6z"/>
		<path class="st13" d="M160.8,305.6c0,3.7,2.7,3.8,2.7,3.8H153c0,0,2.7-0.1,2.7-3.8v-16.4c0-2.9-2.7-2.8-2.7-2.8l7.8-1V305.6z
			 M154.9,278.8c0,1.8,1.2,3,3.1,3s3.3-1.2,3.3-3c0-1.8-1.4-3-3.3-3S154.9,277,154.9,278.8z"/>
		<path class="st13" d="M176.3,286.7v18.9c0,3.7,2.7,3.8,2.7,3.8h-10.6c0,0,2.7-0.1,2.7-3.8v-18.9H165v-1.3h6.2v-5.8
			c0-3.3-2.7-3.1-2.7-3.1l7.8-0.7v9.6h5.8v1.3H176.3z"/>
		<path class="st13" d="M233.2,285.4c0,0-1.4-8.3-7.3-8.3h-6v28.5c0,3.7,2.7,3.8,2.7,3.8h-10.6c0,0,2.7-0.1,2.7-3.8v-28.5h-5.7
			c-5.9,0-7.3,8.3-7.3,8.3l0.5-9.6h30.3L233.2,285.4z"/>
		<path class="st13" d="M243,287.2l3.8-1.1c8.3-2.4,12.4-0.3,12.4,7.3v12.2c0,3.7,2.7,3.8,2.7,3.8h-10.6c0,0,2.7-0.1,2.7-3.8v-12.2
			c0-6-3-7.3-9.1-5.6l-2,0.6v17.2c0,3.7,2.7,3.8,2.7,3.8h-10.6c0,0,2.7-0.1,2.7-3.8v-29.8c0-3.3-2.7-3.1-2.7-3.1l7.8-0.7V287.2z"/>
		<path class="st13" d="M276.8,285c7.7,0,10.9,5.5,10.9,10.2h-18c0,7.3,3.3,11.6,8.8,11.6c4.8,0,8-2.6,9.4-6.6
			c-0.8,5.6-5.1,9.6-10.8,9.6c-7.6,0-12.7-5-12.7-12.6C264.5,289.9,269.2,285,276.8,285z M282.1,293.8c0-0.9,0-7.5-5.3-7.5
			c-6.2,0-7,6.6-7,7.5H282.1z"/>
		<path class="st13" d="M293.9,307.9c-1.2,0.9-2.2,1.9-2.2,1.9v-13.1c1.3,8.3,6,11.7,11.3,11.7c3.6,0,6-1.6,6-4c0-2.5-1.8-3.9-8-5.7
			c-6.6-1.9-9.4-3.8-9.4-7.4c0-3.5,2.5-6.3,10.6-6.3c3.2,0,5.9,0.6,8.1,1.9c1.4-0.6,2.1-1.9,2.1-1.9v11c-0.4-6.1-4.2-9.7-10.2-9.7
			c-3.2,0-6.5,1-6.5,2.8c0,2.1,1.6,3.1,9.8,5.5c6.7,1.9,8.2,4.6,8.2,8.1c0,4.1-3.3,7.1-10.7,7.1
			C299.8,309.8,296.3,309.2,293.9,307.9z"/>
		<path class="st13" d="M329.4,285c7.7,0,10.9,5.5,10.9,10.2h-18c0,7.3,3.3,11.6,8.8,11.6c4.8,0,8-2.6,9.4-6.6
			c-0.8,5.6-5.1,9.6-10.8,9.6c-7.6,0-12.7-5-12.7-12.6C317.1,289.9,321.8,285,329.4,285z M334.8,293.8c0-0.9,0-7.5-5.3-7.5
			c-6.2,0-7,6.6-7,7.5H334.8z"/>
		<path class="st13" d="M389,287.2v11.6c0,0-0.1-5.1-7.4-5.1h-10v12c0,3.7,2.7,3.8,2.7,3.8h-10.6c0,0,2.7-0.1,2.7-3.8v-25.1
			c0,0,0-4.8-4-4.8h28.7l1.1,7.9c0,0-1.8-6.5-8.4-6.5h-12.1v15.1l10,0C388.9,292.4,389,287.2,389,287.2z"/>
		<path class="st13" d="M414.3,289.1c0,1.3-0.8,2.4-2.6,2.4c-1.9,0-2.7-1.2-2.7-2.4c-0.1-2.2-2.4-3.6-7.5-0.2v16.7
			c0,3.7,2.7,3.8,2.7,3.8h-10.6c0,0,2.7-0.1,2.7-3.8v-16.4c0-2.9-2.7-2.8-2.7-2.8l7.6-1l0.2,1.8v0.4l1.7-1.1
			C408,283.5,414.3,285,414.3,289.1z"/>
		<path class="st13" d="M440.3,305.6c0,3.7,2.7,3.8,2.7,3.8h-7.6l-0.2-1.8l-3.8,1.1c-8.7,2.5-12.9,0.3-12.9-6v-13.5
			c0-2.9-2.7-2.8-2.7-2.8l7.8-1v17.3c0,4.7,3,6.2,9.6,4.3l2-0.6v-17.2c0-2.9-2.7-2.8-2.7-2.8l7.8-1V305.6z"/>
		<path class="st13" d="M453.6,305.6c0,3.7,2.7,3.8,2.7,3.8h-10.6c0,0,2.7-0.1,2.7-3.8v-16.4c0-2.9-2.7-2.8-2.7-2.8l7.8-1V305.6z
			 M447.7,278.8c0,1.8,1.2,3,3.1,3s3.3-1.2,3.3-3c0-1.8-1.4-3-3.3-3S447.7,277,447.7,278.8z"/>
		<path class="st13" d="M469.1,286.7v18.9c0,3.7,2.7,3.8,2.7,3.8h-10.6c0,0,2.7-0.1,2.7-3.8v-18.9h-6.2v-1.3h6.2v-5.8
			c0-3.3-2.7-3.1-2.7-3.1l7.8-0.7v9.6h5.8v1.3H469.1z"/>
		<path class="st13" d="M479.8,307.9c-1.2,0.9-2.2,1.9-2.2,1.9v-13.1c1.3,8.3,6,11.7,11.3,11.7c3.6,0,6-1.6,6-4c0-2.5-1.8-3.9-8-5.7
			c-6.6-1.9-9.4-3.8-9.4-7.4c0-3.5,2.5-6.3,10.6-6.3c3.2,0,5.9,0.6,8.1,1.9c1.4-0.6,2.1-1.9,2.1-1.9v11c-0.4-6.1-4.2-9.7-10.2-9.7
			c-3.2,0-6.5,1-6.5,2.8c0,2.1,1.6,3.1,9.8,5.5c6.7,1.9,8.2,4.6,8.2,8.1c0,4.1-3.3,7.1-10.7,7.1
			C485.6,309.8,482.1,309.2,479.8,307.9z"/>
		<path class="st13" d="M552.6,285.4c0,0-1.4-8.3-7.3-8.3h-6v28.5c0,3.7,2.7,3.8,2.7,3.8h-10.6c0,0,2.7-0.1,2.7-3.8v-28.5h-5.7
			c-5.9,0-7.3,8.3-7.3,8.3l0.5-9.6H552L552.6,285.4z"/>
		<path class="st13" d="M562.4,287.2l3.8-1.1c8.3-2.4,12.4-0.3,12.4,7.3v12.2c0,3.7,2.7,3.8,2.7,3.8h-10.6c0,0,2.7-0.1,2.7-3.8
			v-12.2c0-6-3-7.3-9.1-5.6l-2,0.6v17.2c0,3.7,2.7,3.8,2.7,3.8h-10.6c0,0,2.7-0.1,2.7-3.8v-29.8c0-3.3-2.7-3.1-2.7-3.1l7.8-0.7
			V287.2z"/>
		<path class="st13" d="M596.2,285c7.7,0,10.9,5.5,10.9,10.2h-18c0,7.3,3.3,11.6,8.8,11.6c4.8,0,8-2.6,9.4-6.6
			c-0.8,5.6-5.1,9.6-10.8,9.6c-7.6,0-12.7-5-12.7-12.6C583.9,289.9,588.6,285,596.2,285z M601.5,293.8c0-0.9,0-7.5-5.3-7.5
			c-6.2,0-7,6.6-7,7.5H601.5z"/>
		<path class="st13" d="M613.3,307.9c-1.2,0.9-2.2,1.9-2.2,1.9v-13.1c1.3,8.3,6,11.7,11.3,11.7c3.6,0,6-1.6,6-4c0-2.5-1.8-3.9-8-5.7
			c-6.6-1.9-9.4-3.8-9.4-7.4c0-3.5,2.5-6.3,10.6-6.3c3.2,0,5.9,0.6,8.1,1.9c1.4-0.6,2.1-1.9,2.1-1.9v11c-0.4-6.1-4.2-9.7-10.2-9.7
			c-3.2,0-6.5,1-6.5,2.8c0,2.1,1.6,3.1,9.8,5.5c6.7,1.9,8.2,4.6,8.2,8.1c0,4.1-3.3,7.1-10.7,7.1
			C619.1,309.8,615.7,309.2,613.3,307.9z"/>
		<path class="st13" d="M648.8,285c7.7,0,10.9,5.5,10.9,10.2h-18c0,7.3,3.3,11.6,8.8,11.6c4.8,0,8-2.6,9.4-6.6
			c-0.8,5.6-5.1,9.6-10.8,9.6c-7.6,0-12.7-5-12.7-12.6C636.5,289.9,641.2,285,648.8,285z M654.1,293.8c0-0.9,0-7.5-5.3-7.5
			c-6.2,0-7,6.6-7,7.5H654.1z"/>
		<path class="st13" d="M22.7,361.8l8.9-25.1c2.2-5.9-3.7-6.5-3.7-6.5h11.5c0,0-4.1,0.6-6.3,6.5l-9.6,27.1H18L8,337.4
			c-2.4-6.4-5.5-7.2-8-7.2h15.5c0,0-4.6,0.7-2.1,7.2L22.7,361.8z"/>
		<path class="st13" d="M47.8,339.4c7.7,0,10.9,5.5,10.9,10.2h-18c0,7.3,3.3,11.6,8.8,11.6c4.8,0,8-2.6,9.4-6.6
			c-0.8,5.6-5.1,9.6-10.8,9.6c-7.6,0-12.7-5-12.7-12.6C35.5,344.3,40.2,339.4,47.8,339.4z M53.1,348.2c0-0.9,0-7.5-5.3-7.5
			c-6.2,0-7,6.6-7,7.5H53.1z"/>
		<path class="st13" d="M82.4,341.8c1.9,1.5,3,3.7,3,6.6c0,5.7-4.2,8.8-11.5,8.8c-2.8,0-5.1-0.4-6.9-1.2c-0.7,0.2-1.1,0.6-1.1,1.3
			c0,1.2,2.3,2.5,9.6,2.5c9.4,0,13,3.6,13,8.6c0,4.9-4,8.8-13.5,8.8c-10.5,0-13.9-3.9-13.9-8.2c0-3.9,3.5-5.8,5.5-5.8
			c-5.8-1-5.5-6.7-0.9-8c-2.2-1.5-3.2-3.8-3.2-6.9c0-5.9,4.8-9,11.5-9c2.9,0,5.4,0.6,7.3,1.7c2.5-4.4,5.2-4.7,6.2-4.1
			c1,0.5,1.7,1.5,1.1,2.6c-0.6,1.2-1.8,1.1-2.8,0.5C84.5,339.5,83.3,340.3,82.4,341.8z M65.6,368.5c0,4.5,3.5,7.4,9.4,7.4
			c5.3,0,8.8-2.9,8.8-6.8c0-2.9-2.8-5.2-8.8-5.2c-2.8,0-4.9,0-6.8-0.2C66.9,364.2,65.6,366.1,65.6,368.5z M80.5,348.4
			c0-4.5-2.7-7.6-6.5-7.6s-6.5,3.2-6.5,7.6c0,4.4,2.7,7.5,6.5,7.5S80.5,352.8,80.5,348.4z"/>
		<path class="st13" d="M103,339.4c7.7,0,10.9,5.5,10.9,10.2H96c0,7.3,3.3,11.6,8.8,11.6c4.8,0,8-2.6,9.4-6.6
			c-0.8,5.6-5.1,9.6-10.8,9.6c-7.6,0-12.7-5-12.7-12.6C90.7,344.3,95.4,339.4,103,339.4z M108.3,348.2c0-0.9,0-7.5-5.3-7.5
			c-6.2,0-7,6.6-7,7.5H108.3z"/>
		<path class="st13" d="M126.1,341.1V360c0,3.7,2.7,3.8,2.7,3.8h-10.6c0,0,2.7-0.1,2.7-3.8v-18.9h-6.2v-1.3h6.2V334
			c0-3.3-2.7-3.1-2.7-3.1l7.8-0.7v9.6h5.8v1.3H126.1z"/>
		<path class="st13" d="M151.8,363.8l-0.8-2.6l-3,1.3c-6.8,3-14.1,2-14.1-4.6c0-6,6.1-6.7,16.8-9.9c-0.2-6.6-2.4-7.4-5.2-7.4
			c-2.9,0-4.7,1.5-4.7,3.8c0,1.7-0.8,2.8-2.6,2.8c-1.9,0-2.8-1.2-2.7-2.8c0-1.7,2.2-5.1,10-5.1c7.5,0,10.4,2.8,10.4,8.5V360
			c0,3.7,2.7,3.8,2.7,3.8H151.8z M149.8,360.4l0.9-0.4v-10.5l-0.6,0.2c-8.1,2.3-11.1,3.5-11.1,7.5C139,361.8,144,362.8,149.8,360.4z
			"/>
		<path class="st13" d="M188.1,351.2c0,9.2-5.2,13-12,13c-2.8,0-5.2-0.9-7.1-2.3v0.1l-0.5,1.8h-7.3c0,0,2.7-0.1,2.7-3.8v-30.8
			c0-2.9-2.7-2.8-2.7-2.8l7.8-1v16c1.9-1.2,4.2-2,7.1-2C183,339.4,188.1,343.8,188.1,351.2z M182.4,351.2c0-6.7-3.5-10.3-7.6-10.3
			c-2.4,0-4.4,0.9-5.9,2.3v17.2c1.5,1.2,3.4,2.1,5.9,2.1C179.6,362.5,182.4,358.6,182.4,351.2z"/>
		<path class="st13" d="M198.8,360c0,3.7,2.7,3.8,2.7,3.8H191c0,0,2.7-0.1,2.7-3.8v-29.8c0-3.3-2.7-3.1-2.7-3.1l7.8-0.7V360z"/>
		<path class="st13" d="M216.7,339.4c7.7,0,10.9,5.5,10.9,10.2h-18c0,7.3,3.3,11.6,8.8,11.6c4.8,0,8-2.6,9.4-6.6
			c-0.8,5.6-5.1,9.6-10.8,9.6c-7.6,0-12.7-5-12.7-12.6C204.4,344.3,209.1,339.4,216.7,339.4z M222,348.2c0-0.9,0-7.5-5.3-7.5
			c-6.2,0-7,6.6-7,7.5H222z"/>
		<path class="st13" d="M233.9,362.3c-1.2,0.9-2.2,1.9-2.2,1.9v-13.1c1.3,8.3,6,11.7,11.3,11.7c3.6,0,6-1.6,6-4c0-2.5-1.8-3.9-8-5.7
			c-6.6-1.9-9.4-3.8-9.4-7.4c0-3.5,2.5-6.3,10.6-6.3c3.2,0,5.9,0.6,8.1,1.9c1.4-0.6,2.1-1.9,2.1-1.9v11c-0.4-6.1-4.2-9.7-10.2-9.7
			c-3.2,0-6.5,1-6.5,2.8c0,2.1,1.6,3.1,9.8,5.5c6.7,1.9,8.2,4.6,8.2,8.1c0,4.1-3.3,7.1-10.7,7.1
			C239.7,364.2,236.2,363.6,233.9,362.3z"/>
		<path class="st13" d="M284.5,334v26c0,3.7,2.7,3.8,2.7,3.8h-10.6c0,0,2.7-0.1,2.7-3.8v-26c0-3.7-2.7-3.8-2.7-3.8h10.6
			C287.3,330.2,284.5,330.3,284.5,334z"/>
		<path class="st13" d="M298.5,360c0,3.7,2.7,3.8,2.7,3.8h-10.6c0,0,2.7-0.1,2.7-3.8v-29.8c0-3.3-2.7-3.1-2.7-3.1l7.8-0.7V360z"/>
		<path class="st13" d="M311.9,360c0,3.7,2.7,3.8,2.7,3.8h-10.6c0,0,2.7-0.1,2.7-3.8v-29.8c0-3.3-2.7-3.1-2.7-3.1l7.8-0.7V360z"/>
		<path class="st13" d="M341.6,360c0,3.7,2.7,3.8,2.7,3.8h-7.6l-0.2-1.8l-3.8,1.1c-8.7,2.5-12.9,0.3-12.9-6v-13.5
			c0-2.9-2.7-2.8-2.7-2.8l7.8-1v17.3c0,4.7,3,6.2,9.6,4.3l2-0.6v-17.2c0-2.9-2.7-2.8-2.7-2.8l7.8-1V360z"/>
		<path class="st13" d="M350.5,362.3c-1.2,0.9-2.2,1.9-2.2,1.9v-13.1c1.3,8.3,6,11.7,11.3,11.7c3.6,0,6-1.6,6-4c0-2.5-1.8-3.9-8-5.7
			c-6.6-1.9-9.4-3.8-9.4-7.4c0-3.5,2.5-6.3,10.6-6.3c3.2,0,5.9,0.6,8.1,1.9c1.4-0.6,2.1-1.9,2.1-1.9v11c-0.4-6.1-4.2-9.7-10.2-9.7
			c-3.2,0-6.5,1-6.5,2.8c0,2.1,1.6,3.1,9.8,5.5c6.7,1.9,8.2,4.6,8.2,8.1c0,4.1-3.3,7.1-10.7,7.1
			C356.3,364.2,352.8,363.6,350.5,362.3z"/>
		<path class="st13" d="M381.5,360c0,3.7,2.7,3.8,2.7,3.8h-10.6c0,0,2.7-0.1,2.7-3.8v-16.4c0-2.9-2.7-2.8-2.7-2.8l7.8-1V360z
			 M375.6,333.2c0,1.8,1.2,3,3.1,3s3.3-1.2,3.3-3c0-1.8-1.4-3-3.3-3S375.6,331.4,375.6,333.2z"/>
		<path class="st13" d="M387.1,351.6c0-7.3,5.5-12.2,13.1-12.2c7.6,0,13.1,4.9,13.1,12.2c0,7.5-5.5,12.6-13.1,12.6
			C392.6,364.2,387.1,359.1,387.1,351.6z M407.7,351.6c0-4.2-1.2-10.8-7.4-10.8c-6.2,0-7.4,6.6-7.4,10.8c0,4.3,1.2,11.2,7.4,11.2
			C406.5,362.8,407.7,355.9,407.7,351.6z"/>
		<path class="st13" d="M424.1,341.6l3.8-1.1c8.3-2.4,12.4-0.3,12.4,7.3V360c0,3.7,2.7,3.8,2.7,3.8h-10.6c0,0,2.7-0.1,2.7-3.8v-12.2
			c0-6-3-7.3-9.1-5.6l-2,0.6V360c0,3.7,2.7,3.8,2.7,3.8h-10.6c0,0,2.7-0.1,2.7-3.8v-16.4c0-2.9-2.7-2.8-2.7-2.8l7.6-1L424.1,341.6z"
			/>
		<path class="st13" d="M464.6,351.6c0-7.3,5.5-12.2,13.1-12.2s13.1,4.9,13.1,12.2c0,7.5-5.5,12.6-13.1,12.6
			S464.6,359.1,464.6,351.6z M485.1,351.6c0-4.2-1.2-10.8-7.4-10.8c-6.2,0-7.4,6.6-7.4,10.8c0,4.3,1.2,11.2,7.4,11.2
			C483.9,362.8,485.1,355.9,485.1,351.6z"/>
		<path class="st13" d="M502,335.3v4.5h9.6v1.3H502V360c0,3.7,2.7,3.8,2.7,3.8h-10.6c0,0,2.7-0.1,2.7-3.8v-18.9h-4.6v-1.3h4.6v-4.5
			c0-8.2,2.4-9.8,8.6-9.8c5.2,0,8.4,1.8,8.4,4.7c0.1,1.7-0.8,2.8-2.7,2.8c-1.8,0-2.6-1.2-2.6-2.8c0-2.3-1-3.4-3.1-3.4
			C502.9,326.9,502,327.8,502,335.3z"/>
		<path class="st13" d="M536.3,361.9c-1.9,1.2-2.8,2.8-2.8,2.8v-17.9c0.2,6.7,4.3,16.4,14.2,16.4c5.6,0,8.6-2.1,8.6-6.5
			c0-3.7-2.2-5.7-10.4-8.5c-8.4-2.9-12.1-5.1-12.1-10.1c0-5.9,6.1-8.4,13.7-8.4c5.7,0,8.6,2.1,9.6,2.8c1.5-0.7,2.4-2.8,2.4-2.8v14.9
			c-0.2-8-4.9-13.5-12-13.5c-4.5,0-8.9,1.2-8.9,4.9c0,3.5,2,4.8,11.6,8.1c10.5,3.6,11.4,6.4,11.4,11.2c0,6.2-4.9,9.5-13.9,9.5
			C544.1,364.7,539.5,363.7,536.3,361.9z"/>
		<path class="st13" d="M577,339.4c7.7,0,10.9,5.5,10.9,10.2h-18c0,7.3,3.3,11.6,8.8,11.6c4.8,0,8-2.6,9.4-6.6
			c-0.8,5.6-5.1,9.6-10.8,9.6c-7.6,0-12.7-5-12.7-12.6C564.7,344.3,569.4,339.4,577,339.4z M582.3,348.2c0-0.9,0-7.5-5.3-7.5
			c-6.2,0-7,6.6-7,7.5H582.3z"/>
		<path class="st13" d="M590.8,351.6c0-7.3,5.5-12.2,13.1-12.2c2.8,0,5.4,1.1,7.6,2.3c0.8,0,1.7-0.8,2.2-2.1l-0.2,10.9
			c-0.6-5.2-3.8-9.8-9.9-9.7c-3.7,0-7.4,3.6-7.3,10.3c0,5.7,3.5,10.2,8.9,10.2c4.8,0,8.1-2.7,9.5-6.7c-0.8,5.6-5.3,9.6-10.9,9.6
			C596,364.2,590.8,359.1,590.8,351.6z"/>
		<path class="st13" d="M624.8,360c0,3.7,2.7,3.8,2.7,3.8h-10.6c0,0,2.7-0.1,2.7-3.8v-29.8c0-3.3-2.7-3.1-2.7-3.1l7.8-0.7V360z"/>
		<path class="st13" d="M654.4,360c0,3.7,2.7,3.8,2.7,3.8h-7.6l-0.2-1.8l-3.8,1.1c-8.7,2.5-12.9,0.3-12.9-6v-13.5
			c0-2.9-2.7-2.8-2.7-2.8l7.8-1v17.3c0,4.7,3,6.2,9.6,4.3l2-0.6v-17.2c0-2.9-2.7-2.8-2.7-2.8l7.8-1V360z"/>
		<path class="st13" d="M663.4,362.3c-1.2,0.9-2.2,1.9-2.2,1.9v-13.1c1.3,8.3,6,11.7,11.3,11.7c3.6,0,6-1.6,6-4c0-2.5-1.8-3.9-8-5.7
			c-6.6-1.9-9.4-3.8-9.4-7.4c0-3.5,2.5-6.3,10.6-6.3c3.2,0,5.9,0.6,8.1,1.9c1.4-0.6,2.1-1.9,2.1-1.9v11c-0.4-6.1-4.2-9.7-10.2-9.7
			c-3.2,0-6.5,1-6.5,2.8c0,2.1,1.6,3.1,9.8,5.5c6.7,1.9,8.2,4.6,8.2,8.1c0,4.1-3.3,7.1-10.7,7.1
			C669.2,364.2,665.7,363.6,663.4,362.3z"/>
		<path class="st13" d="M694.4,360c0,3.7,2.7,3.8,2.7,3.8h-10.6c0,0,2.7-0.1,2.7-3.8v-16.4c0-2.9-2.7-2.8-2.7-2.8l7.8-1V360z
			 M688.5,333.2c0,1.8,1.2,3,3.1,3s3.3-1.2,3.3-3c0-1.8-1.4-3-3.3-3S688.5,331.4,688.5,333.2z"/>
		<path class="st13" d="M700,351.6c0-7.3,5.5-12.2,13.1-12.2s13.1,4.9,13.1,12.2c0,7.5-5.5,12.6-13.1,12.6S700,359.1,700,351.6z
			 M720.5,351.6c0-4.2-1.2-10.8-7.4-10.8c-6.2,0-7.4,6.6-7.4,10.8c0,4.3,1.2,11.2,7.4,11.2C719.3,362.8,720.5,355.9,720.5,351.6z"/>
		<path class="st13" d="M736.9,341.6l3.8-1.1c8.3-2.4,12.4-0.3,12.4,7.3V360c0,3.7,2.7,3.8,2.7,3.8h-10.6c0,0,2.7-0.1,2.7-3.8v-12.2
			c0-6-3-7.3-9.1-5.6l-2,0.6V360c0,3.7,2.7,3.8,2.7,3.8h-10.6c0,0,2.7-0.1,2.7-3.8v-16.4c0-2.9-2.7-2.8-2.7-2.8l7.6-1L736.9,341.6z"
			/>
		<path class="st13" d="M7.5,414.4v-26c0-3.7-2.7-3.8-2.7-3.8h15.7c10.5,0,17.9,6.2,17.9,16.8c0,10.5-7.4,16.8-17.9,16.8H4.8
			C4.8,418.2,7.5,418.1,7.5,414.4z M20.5,416.9c9.9,0,12.2-9.6,12.2-15.5c0-5.9-2.3-15.5-12.2-15.5h-7.8v30.9H20.5z"/>
		<path class="st13" d="M65,414.4c0,3.7,2.7,3.8,2.7,3.8h-7.6l-0.2-1.8l-3.8,1.1c-8.7,2.5-12.9,0.3-12.9-6V398
			c0-2.9-2.7-2.8-2.7-2.8l7.8-1v17.3c0,4.7,3,6.2,9.6,4.3l2-0.6V398c0-2.9-2.7-2.8-2.7-2.8l7.8-1V414.4z"/>
		<path class="st13" d="M74,416.7c-1.2,0.9-2.2,1.9-2.2,1.9v-13.1c1.3,8.3,6,11.7,11.3,11.7c3.6,0,6-1.6,6-4c0-2.5-1.8-3.9-8-5.7
			c-6.6-1.9-9.4-3.8-9.4-7.4c0-3.5,2.5-6.3,10.6-6.3c3.2,0,5.9,0.6,8.1,1.9c1.4-0.6,2.1-1.9,2.1-1.9v11c-0.4-6.1-4.2-9.7-10.2-9.7
			c-3.2,0-6.5,1-6.5,2.8c0,2.1,1.6,3.1,9.8,5.5c6.7,1.9,8.2,4.6,8.2,8.1c0,4.1-3.3,7.1-10.7,7.1C79.8,418.6,76.3,418,74,416.7z"/>
		<path class="st13" d="M126.4,418.2h-12.7c0,0,3.8-0.2,2-3.6l-5.8-10.6l-4.9,3.9v6.5c0,3.7,2.7,3.8,2.7,3.8H97.2
			c0,0,2.7-0.1,2.7-3.8v-30.8c0-2.9-2.7-2.8-2.7-2.8l7.8-1v26.4l6.1-4.8h0c8.8-6.9,1.7-7.1,1.1-7.1h13.5c0,0-3.4,0.1-7.3,3l-4.6,3.6
			l7.9,13.8C123.6,418.1,126.4,418.2,126.4,418.2z M112.2,394.2L112.2,394.2L112.2,394.2z"/>
		<path class="st13" d="M146.1,401.2c0-10.6,7.9-17.2,18.3-17.2c4.1,0,7.9,1.2,11,2.9c1.4-0.8,1.9-3.1,1.9-3.1l1.2,14.6
			c-1.3-6.2-5.9-13.1-14.2-13.1c-9.3,0-12.7,7.8-12.7,15.4c0,9.2,6.1,15.5,14.5,15.5c5.2,0,10.4-1.8,12.8-7
			c-1.7,6.3-7.3,10.1-14.6,10.1C152.4,419.4,146,410.8,146.1,401.2z"/>
		<path class="st13" d="M189.8,396l3.8-1.1c8.3-2.4,12.4-0.3,12.4,7.3v12.2c0,3.7,2.7,3.8,2.7,3.8h-10.6c0,0,2.7-0.1,2.7-3.8v-12.2
			c0-6-3-7.3-9.1-5.6l-2,0.6v17.2c0,3.7,2.7,3.8,2.7,3.8h-10.6c0,0,2.7-0.1,2.7-3.8v-29.8c0-3.3-2.7-3.1-2.7-3.1l7.8-0.7V396z"/>
		<path class="st13" d="M232,397.9c0,1.3-0.8,2.4-2.6,2.4c-1.9,0-2.7-1.2-2.7-2.4c-0.1-2.2-2.4-3.6-7.5-0.2v16.7
			c0,3.7,2.7,3.8,2.7,3.8h-10.6c0,0,2.7-0.1,2.7-3.8V398c0-2.9-2.7-2.8-2.7-2.8l7.6-1l0.2,1.8v0.4l1.7-1.1
			C225.8,392.3,232,393.8,232,397.9z"/>
		<path class="st13" d="M233,406c0-7.3,5.5-12.2,13.1-12.2c7.6,0,13.1,4.9,13.1,12.2c0,7.5-5.5,12.6-13.1,12.6
			C238.5,418.6,233,413.5,233,406z M253.5,406c0-4.2-1.2-10.8-7.4-10.8c-6.2,0-7.4,6.6-7.4,10.8c0,4.3,1.2,11.2,7.4,11.2
			C252.3,417.2,253.5,410.3,253.5,406z"/>
		<path class="st13" d="M294.6,414.4v-12.2c0-6-2-7.8-7.7-5.8l-2.8,1c0.5,1.2,0.8,2.9,0.8,4.8v12.2c0,3.7,2.7,3.8,2.7,3.8H277
			c0,0,2.7-0.1,2.7-3.8v-12.2c0-6-2-7.8-7.7-5.8l-2,0.7v17.3c0,3.7,2.7,3.8,2.7,3.8h-10.6c0,0,2.7-0.1,2.7-3.8V398
			c0-2.9-2.7-2.8-2.7-2.8l7.6-1l0.2,1.7l3.9-1.2c4.5-1.5,7.9-1,9.6,1.7l5.2-1.7c6.8-2.2,11-0.1,11,7.5v12.2c0,3.7,2.7,3.8,2.7,3.8
			h-10.6C291.8,418.2,294.6,418.1,294.6,414.4z"/>
		<path class="st13" d="M316.8,393.8c7.7,0,10.9,5.5,10.9,10.2h-18c0,7.3,3.3,11.6,8.8,11.6c4.8,0,8-2.6,9.4-6.6
			c-0.8,5.6-5.1,9.6-10.8,9.6c-7.6,0-12.7-5-12.7-12.6C304.6,398.7,309.3,393.8,316.8,393.8z M322.2,402.6c0-0.9,0-7.5-5.3-7.5
			c-6.2,0-7,6.6-7,7.5H322.2z"/>
		<path class="st13" d="M384.8,418.2H372c0,0,4.2,0,1.7-6.5l-2.4-6.3l-16.6,6.3c-2.3,6.5,4.3,6.5,4.4,6.5h-12.6c0,0,4.5,0,6.8-6.5
			l4.5-12.6c3.6-10.1,5.2-14.5-0.4-14.5h11.3l10.4,27.3C381.4,418.2,384.8,418.2,384.8,418.2z M370.8,404.1l-6.9-18.2l-8.6,24.1
			L370.8,404.1z"/>
		<path class="st13" d="M387.2,416.7c-1.2,0.9-2.2,1.9-2.2,1.9v-13.1c1.3,8.3,6,11.7,11.3,11.7c3.6,0,6-1.6,6-4c0-2.5-1.8-3.9-8-5.7
			c-6.6-1.9-9.4-3.8-9.4-7.4c0-3.5,2.5-6.3,10.6-6.3c3.2,0,5.9,0.6,8.1,1.9c1.4-0.6,2.1-1.9,2.1-1.9v11c-0.4-6.1-4.2-9.7-10.2-9.7
			c-3.2,0-6.5,1-6.5,2.8c0,2.1,1.6,3.1,9.8,5.5c6.7,1.9,8.2,4.6,8.2,8.1c0,4.1-3.3,7.1-10.7,7.1C393,418.6,389.6,418,387.2,416.7z"
			/>
		<path class="st13" d="M420.3,395.5v18.9c0,3.7,2.7,3.8,2.7,3.8h-10.6c0,0,2.7-0.1,2.7-3.8v-18.9H409v-1.3h6.2v-5.8
			c0-3.3-2.7-3.1-2.7-3.1l7.8-0.7v9.6h5.8v1.3H420.3z"/>
		<path class="st13" d="M448.2,397.9c0,1.3-0.8,2.4-2.6,2.4c-1.9,0-2.7-1.2-2.7-2.4c-0.1-2.2-2.4-3.6-7.5-0.2v16.7
			c0,3.7,2.7,3.8,2.7,3.8h-10.6c0,0,2.7-0.1,2.7-3.8V398c0-2.9-2.7-2.8-2.7-2.8l7.6-1l0.2,1.8v0.4l1.7-1.1
			C442,392.3,448.2,393.8,448.2,397.9z"/>
		<path class="st13" d="M468.1,418.2l-0.8-2.6l-3,1.3c-6.8,3-14.1,2-14.1-4.6c0-6,6.1-6.7,16.8-9.9c-0.2-6.6-2.4-7.4-5.2-7.4
			c-2.9,0-4.7,1.5-4.7,3.8c0,1.7-0.8,2.8-2.6,2.8c-1.9,0-2.8-1.2-2.7-2.8c0-1.7,2.2-5.1,10-5.1c7.5,0,10.4,2.8,10.4,8.5v12.2
			c0,3.7,2.7,3.8,2.7,3.8H468.1z M466,414.8l0.9-0.4v-10.5l-0.6,0.2c-8.1,2.3-11.1,3.5-11.1,7.5C455.2,416.2,460.2,417.2,466,414.8z
			"/>
		<path class="st13" d="M485.2,414.4c0,3.7,2.7,3.8,2.7,3.8h-10.6c0,0,2.7-0.1,2.7-3.8v-29.8c0-3.3-2.7-3.1-2.7-3.1l7.8-0.7V414.4z"
			/>
		<path class="st13" d="M541.9,394.2c0,7.8-8.3,10.7-14.9,10.7h-8.7v9.5c0,3.7,2.7,3.8,2.7,3.8h-10.6c0,0,2.7-0.1,2.7-3.8v-25.1
			c0,0,0-4.8-4.1-4.8h17.3C533.8,384.6,541.9,386.2,541.9,394.2z M536.4,394.9c0-6-3.5-9-11.1-9h-7.1v17.6h8.4
			C533,403.6,536.4,399.8,536.4,394.9z"/>
		<path class="st13" d="M564,397.9c0,1.3-0.8,2.4-2.6,2.4c-1.9,0-2.7-1.2-2.7-2.4c-0.1-2.2-2.4-3.6-7.5-0.2v16.7
			c0,3.7,2.7,3.8,2.7,3.8h-10.6c0,0,2.7-0.1,2.7-3.8V398c0-2.9-2.7-2.8-2.7-2.8l7.6-1l0.2,1.8v0.4l1.7-1.1
			C557.8,392.3,564,393.8,564,397.9z"/>
		<path class="st13" d="M565,406c0-7.3,5.5-12.2,13.1-12.2s13.1,4.9,13.1,12.2c0,7.5-5.5,12.6-13.1,12.6S565,413.5,565,406z
			 M585.5,406c0-4.2-1.2-10.8-7.4-10.8c-6.2,0-7.4,6.6-7.4,10.8c0,4.3,1.2,11.2,7.4,11.2C584.3,417.2,585.5,410.3,585.5,406z"/>
		<path class="st13" d="M589.7,426.1c3.4,0,6.7-1.9,6.7-7.9V398c0-2.9-2.7-2.8-2.7-2.8l7.8-1v24
			C601.5,424.2,597.2,428.5,589.7,426.1z M598.6,384.6c1.9,0,3.3,1.2,3.3,3c0,1.8-1.4,3-3.3,3c-1.9,0-3.1-1.2-3.1-3
			C595.5,385.8,596.7,384.6,598.6,384.6z"/>
		<path class="st13" d="M619,393.8c7.7,0,10.9,5.5,10.9,10.2h-18c0,7.3,3.3,11.6,8.8,11.6c4.8,0,8-2.6,9.4-6.6
			c-0.8,5.6-5.1,9.6-10.8,9.6c-7.6,0-12.7-5-12.7-12.6C606.7,398.7,611.4,393.8,619,393.8z M624.3,402.6c0-0.9,0-7.5-5.3-7.5
			c-6.2,0-7,6.6-7,7.5H624.3z"/>
		<path class="st13" d="M632.7,406c0-7.3,5.5-12.2,13.1-12.2c2.8,0,5.4,1.1,7.6,2.3c0.8,0,1.7-0.8,2.2-2.1l-0.2,10.9
			c-0.6-5.2-3.8-9.8-9.9-9.7c-3.7,0-7.4,3.6-7.3,10.3c0,5.7,3.5,10.2,8.9,10.2c4.8,0,8.1-2.7,9.5-6.7c-0.8,5.6-5.3,9.6-10.9,9.6
			C638,418.6,632.7,413.5,632.7,406z"/>
		<path class="st13" d="M668.8,395.5v18.9c0,3.7,2.7,3.8,2.7,3.8H661c0,0,2.7-0.1,2.7-3.8v-18.9h-6.2v-1.3h6.2v-5.8
			c0-3.3-2.7-3.1-2.7-3.1l7.8-0.7v9.6h5.8v1.3H668.8z"/>
		<path class="st13" d="M683.9,414.4c0,3.7,2.7,3.8,2.7,3.8H676c0,0,2.7-0.1,2.7-3.8V398c0-2.9-2.7-2.8-2.7-2.8l7.8-1V414.4z
			 M677.9,387.6c0,1.8,1.2,3,3.1,3s3.3-1.2,3.3-3c0-1.8-1.4-3-3.3-3S677.9,385.8,677.9,387.6z"/>
		<path class="st13" d="M689.5,406c0-7.3,5.5-12.2,13.1-12.2s13.1,4.9,13.1,12.2c0,7.5-5.5,12.6-13.1,12.6S689.5,413.5,689.5,406z
			 M710,406c0-4.2-1.2-10.8-7.4-10.8c-6.2,0-7.4,6.6-7.4,10.8c0,4.3,1.2,11.2,7.4,11.2C708.8,417.2,710,410.3,710,406z"/>
		<path class="st13" d="M726.4,396l3.8-1.1c8.3-2.4,12.4-0.3,12.4,7.3v12.2c0,3.7,2.7,3.8,2.7,3.8h-10.6c0,0,2.7-0.1,2.7-3.8v-12.2
			c0-6-3-7.3-9.1-5.6l-2,0.6v17.2c0,3.7,2.7,3.8,2.7,3.8h-10.6c0,0,2.7-0.1,2.7-3.8V398c0-2.9-2.7-2.8-2.7-2.8l7.6-1L726.4,396z"/>
	</g>
</g>
<g id="Layer_1_copy_6">
</g>
<g id="Layer_1_copy_5" class="st0">
	<g class="st2">
		<path class="st14" d="M57.9,56.1H38.6c0,0,6.3,0,2.6-9.8l-3.6-9.5l-24.8,9.5c-3.5,9.8,6.5,9.8,6.6,9.8H-1c0,0,8,0,11.4-9.8
			l6.7-18.9C22.5,12.3,25,5.7,13.8,5.7h19.7l15.6,41C52.7,56.1,57.9,56.1,57.9,56.1z M36.8,34.9L26.5,7.6L13.6,43.8L36.8,34.9z"/>
		<path class="st14" d="M64.8,50.4v-39c0-5.5-4.1-5.7-4.1-5.7h25c11.7,0,21.2,0.1,21.2,9.4c0,7.7-5.8,9.8-12.6,10.5
			c8.8,0.1,16.2,1.9,16.2,14.1c0,14.3-9.7,16.3-23.1,16.3H60.7C60.7,56.1,64.8,55.9,64.8,50.4z M85.7,24.8c9.5,0,13.3-2.7,13.3-9.2
			c0-6.2-3.7-7.8-16.1-7.8H72.6v17.1H85.7z M87,54.1c9.4,0,15-3.7,15-13.8c0-9-2.9-13.4-15.4-13.4h-14v27.2H87z"/>
		<path class="st14" d="M119.1,30.6c0-15.8,11.9-25.8,27.5-25.8c6.2,0,11.9,1.8,16.6,4.3c2.4-0.7,2.9-4.6,2.9-4.6l1.9,22
			c-2-9.3-8.9-19.7-21.3-19.7c-14,0-19,11.7-19,23.1c0,13.8,9.1,23.2,21.8,23.2c7.8,0,15.6-2.7,19.2-10.4
			c-2.5,9.4-10.9,15.2-22,15.2C128.6,57.9,119.1,44.9,119.1,30.6z"/>
		<path class="st14" d="M181.3,50.4v-39c0-5.5-4.1-5.7-4.1-5.7h23.5c15.7,0,26.8,9.4,26.8,25.2c0,15.8-11.1,25.2-26.8,25.2h-23.5
			C177.2,56.1,181.3,55.9,181.3,50.4z M200.8,54.1c14.9,0,18.3-14.3,18.3-23.2s-3.4-23.2-18.3-23.2H189v46.4H200.8z"/>
		<path class="st14" d="M280,42.5l-0.8,13.6h-42.3c0,0,4.1-0.1,4.1-5.7v-39c0-5.5-4.1-5.7-4.1-5.7h41.4l1.2,10.8
			c0,0-3.5-8.8-9.7-8.8h-21.1v21.4h14c11,0,11.2-7.7,11.2-7.7v17.4c0,0-0.1-7.6-11.2-7.6h-14v23H269C277.8,52.6,280,42.5,280,42.5z"
			/>
		<path class="st14" d="M329.3,22.8v17.4c0,0-0.1-7.6-11.2-7.6h-15v17.9c0,5.5,4,5.7,4,5.7h-15.8c0,0,4-0.1,4-5.7V12.8
			c0,0,0-7.1-6-7.1h43.1l1.6,11.8c0,0-2.7-9.8-12.6-9.8h-18.2v22.7l15,0.1C329.2,30.5,329.3,22.8,329.3,22.8z"/>
		<path class="st14" d="M395.3,30.1c-0.5,0-4,0.4-4,7.7v11.4c-5.5,4.5-10.8,8.2-22,8.2c-15.7,0-28.9-9.4-28.9-26.5
			c0-15.8,12-26.1,27.7-26.1c6.2,0,13.4,1.8,18.1,4.3c2.4-1.4,3.8-4.6,3.8-4.6l0.1,19.1c-2-7.7-8.7-16.8-22-16.8
			C353.2,6.8,349,22,349,30.9s4.4,24.5,20.4,24.5c11.2,0,14.2-5.8,14.2-5.8v-13c0-6.2-7.9-6.5-8.9-6.5H395.3z"/>
		<path class="st14" d="M456.5,56.1h-15.8c0,0,4-0.1,4-5.7V31.1h-29.6v19.3c0,5.5,4,5.7,4,5.7h-15.8c0,0,4-0.1,4-5.7v-39
			c0-5.5-4-5.7-4-5.7h15.8c0,0-4,0.1-4,5.7v17.7h29.6V11.4c0-5.5-4-5.7-4-5.7h15.8c0,0-4,0.1-4,5.7v39
			C452.4,55.9,456.5,56.1,456.5,56.1z"/>
		<path class="st14" d="M476.8,11.4v39c0,5.5,4.1,5.7,4.1,5.7h-15.8c0,0,4-0.1,4-5.7v-39c0-5.5-4-5.7-4-5.7h15.8
			C480.9,5.7,476.8,5.8,476.8,11.4z"/>
		<path class="st14" d="M511,11.4v30.5c0,12.3-7.5,17.7-23.6,12.8c14.9,2.1,15.8-5,15.8-18.8v-23c0,0,0-7.1-6-7.1h17.9
			C515.1,5.7,511,5.8,511,11.4z"/>
		<path class="st14" d="M577.4,56.1h-22.3c0.1,0,6.3,0,2.7-6.7l-13.3-21.5l-8.3,6.6v15.9c0,5.5,4.1,5.7,4.1,5.7h-15.8
			c0,0,4-0.1,4-5.7v-39c0-5.5-4-5.7-4-5.7h15.8c0,0-4.1,0.1-4.1,5.7v20.5l18.2-14.4c12.8-10.8,2.2-11.8,2.2-11.8h20.7
			c-0.8,0-6.6,1-12.7,6l-14.1,11.6l16.2,26.1C571,56.1,577.3,56.1,577.4,56.1z"/>
		<path class="st14" d="M47.2,109.8l-1.6,18.7H6.2c0.3,0,4-0.1,4-5.7v-39c0-5.5-4-5.7-4-5.7h15.8c0,0-4.1,0.1-4.1,5.7v42.7h14
			C45.6,126.5,47.2,109.8,47.2,109.8z"/>
		<path class="st14" d="M102.2,118.7V83.1L83.4,125l-21-42.8v36.4c0,9.6,6.3,9.8,6.3,9.8H54c0,0,6.3-0.2,6.3-9.8V87.9
			c0-9.6-6.3-9.8-6.3-9.8h15.2l17.3,35.1l15.7-35.1H114c0,0-4,0.1-4,5.7v34.9c0,9.6,6.3,9.8,6.3,9.8H96.9
			C96.9,128.5,102.2,128.3,102.2,118.7z"/>
		<path class="st14" d="M130.9,78.1l37.7,39.2V87.8c0-9.5-6.8-9.7-6.8-9.7H177c0,0-6.4,0.2-6.4,9.7v35c0,5.5,2,5.7,2,5.7h-4.1
			l-37.7-39.2v29.4c0,9.5,7,9.8,7,9.8h-15.1c0,0,6-0.3,6-9.8V87.4c0,0,0-9.3-6.1-9.3H130.9z"/>
		<path class="st14" d="M237.1,103.3c0,15.8-11.1,26.5-26.8,26.5c-15.6,0-26.8-10.7-26.8-26.5c0-15.8,11.2-26.1,26.8-26.1
			C226,77.2,237.1,87.4,237.1,103.3z M228.6,103.3c0-8.9-3.4-24.1-18.3-24.1S192,94.4,192,103.3s3.4,24.5,18.3,24.5
			S228.6,112.1,228.6,103.3z"/>
		<path class="st14" d="M293.4,92.5c0,11.7-12.5,16.1-22.3,16.1h-13v14.3c0,5.5,4,5.7,4,5.7h-15.8c0,0,4.1-0.1,4.1-5.7V85.2
			c0,0,0-7.1-6.1-7.1h26C281.4,78.1,293.4,80.5,293.4,92.5z M285.3,93.6c0-9-5.3-13.5-16.6-13.5h-10.6v26.4h12.6
			C280.2,106.5,285.3,100.9,285.3,93.6z"/>
		<path class="st14" d="M352.7,125.7v12.2c0,0-2.7-7.2-10-12.2c-4.2,2.7-9.4,4.1-15.2,4.1c-15.7,0-26.9-10.6-26.9-26.4
			c0-15.8,11.2-26,26.9-26c15.7,0,26.8,10.2,26.8,26c0,8-3.2,15-8,19.6C348.6,123.6,350.8,124.5,352.7,125.7z M338.8,123.4
			c-3.4-1.6-7.6-2.6-12.5-2.6c0,0,6.8-0.4,14.2,0.7c4.1-5.3,5.3-13,5.3-18.2c0-8.9-3.4-24-18.3-24c-14.9,0-18.3,15.1-18.3,24
			s3.4,24.4,18.3,24.4C332.4,127.7,336.1,126,338.8,123.4z"/>
		<path class="st14" d="M401.2,123.4c-0.8-2.7-1.8-6.2-3-10.5c-2.5-9.4-9.4-8.8-9.8-8.8l-14.5,1.4v17.4c0,5.5,4,5.7,4,5.7h-15.8
			c0,0,4-0.1,4-5.7v-39c0-5.5-4-5.7-4-5.7h26.3c13.5,0,21.2,2.2,21.2,12.1c0,9.9-7.8,12.4-16.5,13.4c10.5-1,12.2,4.2,13,7.2
			c1.6,6,3,17.7,9.2,17.7h-16.6C398.7,128.5,402.5,128.5,401.2,123.4z M401.5,91.1c0-7.4-2.6-11-13-11h-14.5v23.3l14.5-1.4
			C396.2,101.3,401.5,98,401.5,91.1z"/>
		<path class="st14" d="M427.9,125.6c-2.8,1.6-4.2,4-4.2,4V103c0.4,10.1,6.4,24.6,21.3,24.6c8.4,0,12.5-3.2,12.5-9.7
			c0-5.5-5-9.7-15.2-12.8c-12.5-3.7-18.1-7.6-18.1-15.2c0-8.9,9.2-12.7,20.5-12.7c8.5,0,12.9,3.2,14.4,4.2c3,0.2,3.7-4,3.7-4v22.1
			c-0.3-12-7.3-20.3-18.1-20.3c-6.8,0-13.4,1.9-13.4,7.4c0,5.2,3,7.1,17.4,11.7c15.7,5,16.6,11.2,16.6,17.3
			c0,9.3-6.8,14.2-20.2,14.2C439.5,129.8,432.6,128.3,427.9,125.6z"/>
		<path class="st14" d="M521.6,92.5c0,0-2.2-12.4-10.9-12.4h-8.9v42.7c0,5.5,4,5.7,4,5.7h-15.8c0,0,4.1-0.1,4.1-5.7V80.1h-8.6
			c-8.8,0-10.9,12.4-10.9,12.4l0.8-14.4h45.5L521.6,92.5z"/>
		<path class="st14" d="M574.3,87.8c0-9.5-6.8-9.7-6.8-9.7h15.3c0,0-6.4,0.2-6.4,9.7v19.7c0,15.6-7.1,22.2-20.4,22.2
			c-15.7,0-23.5-7.4-23.5-21.5V83.8c0-5.5-4-5.7-4-5.7h15.8c0,0-4.1,0.1-4.1,5.7v24.5c0,6.8,0.9,19.5,15.8,19.5
			c12.5,0,18.3-6.8,18.3-18.6V87.8z"/>
		<path class="st14" d="M32.3,197.9l13.4-37.6c3.3-8.9-5.6-9.8-5.6-9.8h17.3c0,0-6.1,0.9-9.4,9.8l-14.5,40.6h-8.1l-15-39.6
			c-3.7-9.6-8.3-10.7-12-10.8h23.3c0,0-6.9,1-3.2,10.8L32.3,197.9z"/>
		<path class="st14" d="M144.8,150.5c-4.5,0.3-9.6,0.9-14.4,14.4l-13.6,36h-8.1l-10.4-31l-11.5,31h-8.1l-15-39.6
			c-3.9-9.6-8.3-10.7-12-10.8h23.3c0,0-6.8,0.9-3.2,10.8l14,36.9l11.6-31.4l-1.9-5.7c-3.9-9.7-9.1-10.6-12.8-10.7h26.4
			c0,0-8.9,0.9-6.1,8.7l13,38.7l12.6-33c4.8-13.5-7.3-14.4-7.3-14.4H144.8z"/>
		<path class="st14" d="M198.9,200.9h-23.3c1.9,0,7-1,3.6-6l-12.8-16.6l-8.1,11.8c-4.7,6.9-4.2,10.6,4.8,10.9h-22.2
			c5.3-0.2,9-2.1,14.8-10.6l9.4-13.8l-14.8-19.4c-3.7-4.8-6.8-6.6-10.4-6.6h23.3c-1.9,0-6.8,1.1-3.2,6.5l12.5,16.3l8.1-11.9
			c4.9-7.2,4.2-10.6-4.8-10.9h22.2c-5.3,0.2-9,2.1-14.8,10.6l-9.4,13.9l15.8,20.5C192.6,199.3,195.7,200.9,198.9,200.9z"/>
		<path class="st14" d="M218.5,150.5c0,0-6.4,0.2-1.7,8.1l13.2,22.5l13.3-21.7c5.3-8.7-1.4-8.9-1.4-8.9h15.7c0,0-6.7,0.2-12.5,9.7
			L231.7,182h0.1v13.2c0,5.5,4,5.7,4,5.7h-15.8c0,0,4.1-0.1,4.1-5.7V184l-14.7-23.7c-5.9-9.4-12.6-9.8-12.6-9.8H218.5z"/>
		<path class="st14" d="M298.4,183.8l-0.8,17.1h-39.7l30.5-48.4h-16.7c-10,0-14.2,11.8-14.2,11.8l1.9-13.8h39.1L268,198.9h15.3
			C296.2,198.9,298.4,183.8,298.4,183.8z"/>
		<path class="st14" d="M33.5,273.3l-1.2-3.9l-4.5,2c-10.2,4.5-21.2,3-21.2-6.8c0-8.9,9.1-10,25.2-14.8c-0.3-9.9-3.7-11.2-7.8-11.2
			c-4.4,0-7.1,2.2-7.1,5.7c0,2.5-1.2,4.2-3.9,4.2c-2.9,0-4.2-1.7-4-4.2c0-2.6,3.3-7.7,15-7.7c11.2,0,15.6,4.2,15.6,12.7v18.3
			c0,5.5,4,5.7,4,5.7H33.5z M30.4,268.2l1.4-0.6v-15.8l-0.9,0.3c-12.1,3.5-16.6,5.3-16.6,11.2C14.2,270.3,21.7,271.9,30.4,268.2z"/>
		<path class="st14" d="M92.3,254.4c0,13.8-7.8,19.5-18.1,19.5c-4.2,0-7.8-1.3-10.7-3.4v0.1l-0.7,2.7h-11c0,0,4-0.1,4-5.7v-46.2
			c0-4.4-4-4.2-4-4.2l11.7-1.4v24.1c2.8-1.9,6.3-3,10.7-3C84.7,236.7,92.3,243.3,92.3,254.4z M83.8,254.4c0-10-5.3-15.4-11.4-15.4
			c-3.7,0-6.6,1.4-8.8,3.4v25.9c2.2,1.9,5.1,3.1,8.8,3.1C79.5,271.3,83.8,265.5,83.8,254.4z"/>
		<path class="st14" d="M100.6,255c0-10.9,8.2-18.3,19.6-18.3c4.2,0,8.1,1.7,11.4,3.4c1.2,0,2.6-1.2,3.2-3.2l-0.4,16.3
			c-0.9-7.8-5.7-14.7-14.8-14.5c-5.6,0.1-11.1,5.3-10.9,15.5c0.1,8.6,5.3,15.3,13.3,15.3c7.1,0,12.2-4,14.3-10.1
			c-1.2,8.4-7.9,14.4-16.4,14.4C108.4,273.9,100.6,266.3,100.6,255z"/>
		<path class="st14" d="M184.9,273.3h-11l-0.7-2.7v-0.1c-2.8,2.1-6.4,3.4-10.7,3.4c-10.3,0-18.1-5.7-18.1-17.8
			c0-11.9,7.6-19.4,18.1-19.4c4.3,0,7.8,1.2,10.7,3v-16.8c0-4.9-4-4.7-4-4.7l11.7-1v50.4C180.9,273.1,184.9,273.3,184.9,273.3z
			 M173.2,268.2v-25.9c-2.2-2-5.1-3.4-8.8-3.4c-6.2,0-11.4,6.3-11.4,16.4c0,10.2,4.3,15.9,11.4,15.9
			C168.1,271.3,171,270.1,173.2,268.2z"/>
		<path class="st14" d="M212,236.7c11.5,0,16.4,8.3,16.4,15.3h-26.9c0,10.9,5,17.4,13.2,17.4c7.1,0,12-3.9,14-9.9
			c-1.2,8.4-7.6,14.4-16.1,14.4c-11.4,0-19-7.6-19-18.9C193.6,244.1,200.6,236.7,212,236.7z M220,250c0-1.3,0.1-11.2-8-11.2
			c-9.4,0-10.5,9.9-10.5,11.2H220z"/>
		<path class="st14" d="M249.5,230.6v6.7h14.4v2h-14.4v28.3c0,5.5,4.1,5.7,4.1,5.7h-15.8c0,0,4-0.1,4-5.7v-28.3h-6.9v-2h6.9v-6.7
			c0-11.1,3.5-14.7,13-14.7c7.8,0,12.5,2.7,12.5,7.1c0.1,2.5-1.2,4.2-4,4.2c-2.7,0-3.9-1.7-3.9-4.2c0-3.5-1.5-5-4.6-5
			C250.9,217.9,249.5,219.3,249.5,230.6z"/>
		<path class="st14" d="M310.5,280.3c0,7.6-6,13-20.3,13c-15.8,0-20.8-5.4-20.8-12.1c0-5.8,5.2-8.7,8.2-8.7c-8.6-1.5-8.2-10-1.3-12
			c-3.2-2.2-4.8-5.8-4.8-10.3c0-8.8,7.2-13.5,17.2-13.5c4.4,0,8.1,0.9,11,2.5c3.8-6.6,7.8-7,9.3-6.1c1.5,0.7,2.2,2.1,1.3,3.8
			c-0.9,1.7-2.3,1.7-3.8,0.9c-1.9-1-3.7,0.1-5.1,2.4c2.9,2.3,4.5,5.6,4.5,9.9c0,8.6-6.3,13.2-17.2,13.2c-4.2,0-7.6-0.6-10.3-1.8
			c-1,0.3-1.7,0.9-1.7,2c0,1.8,3.5,3.7,14.3,3.7C305.2,267.4,310.5,272.9,310.5,280.3z M303.5,281.1c0-4.4-4.2-7.8-13.2-7.8
			c-4.2,0-7.4,0-10.2-0.4c-1.9,0.9-3.9,3.8-3.9,7.3c0,7.1,5.3,10.9,14,10.9C298.2,291.1,303.5,287.3,303.5,281.1z M279,250.2
			c0,7.7,3.2,11.2,9.7,11.2c6.3,0,9.7-3.5,9.7-11.2c0-7.9-3.2-11.4-9.7-11.4C282.4,238.7,279,242.3,279,250.2z"/>
		<path class="st14" d="M329.7,240l5.8-1.7c12.4-3.6,18.6-0.4,18.6,11v18.3c0,5.5,4,5.7,4,5.7h-15.8c0,0,4.1-0.1,4.1-5.7v-18.3
			c0-9.1-4.5-11-13.7-8.4l-3,0.9v25.9c0,5.5,4,5.7,4,5.7h-15.8c0,0,4.1-0.1,4.1-5.7v-44.7c0-4.9-4-4.7-4-4.7l11.7-1V240z"/>
		<path class="st14" d="M360.3,285.2c5,0,10-2.9,10-11.9V243c0-4.4-4-4.2-4-4.2l11.7-1.4v36C378,282.3,371.7,287.7,360.3,285.2z
			 M373.6,222.9c2.8,0,4.9,1.8,4.9,4.5c0,2.7-2.1,4.5-4.9,4.5c-2.8,0-4.7-1.8-4.7-4.5C368.9,224.7,370.8,222.9,373.6,222.9z"/>
		<path class="st14" d="M401.7,267.6c0,5.5,4.1,5.7,4.1,5.7H390c0,0,4-0.1,4-5.7V243c0-4.4-4-4.2-4-4.2l11.7-1.4V267.6z
			 M392.9,227.4c0,2.7,1.9,4.5,4.7,4.5c2.8,0,4.9-1.8,4.9-4.5c0-2.7-2.1-4.5-4.9-4.5C394.7,222.9,392.9,224.7,392.9,227.4z"/>
		<path class="st14" d="M458.3,273.3h-19.1c0,0,5.8-0.3,3-5.5l-8.7-15.8l-7.3,5.8v9.8c0,5.5,4.1,5.7,4.1,5.7h-15.8c0,0,4-0.1,4-5.7
			v-46.2c0-4.4-4-4.2-4-4.2l11.7-1.4v39.5l9.2-7.3h-0.1c13.2-10.4,2.5-10.7,1.7-10.7h20.2c0,0-5,0.2-10.9,4.5l-6.9,5.5l11.8,20.7
			C454.2,273.1,458.3,273.3,458.3,273.3z M437,237.3L437,237.3L437,237.3z"/>
		<path class="st14" d="M475.1,267.6c0,5.5,4.1,5.7,4.1,5.7h-15.8c0,0,4-0.1,4-5.7v-44.7c0-4.9-4-4.7-4-4.7l11.7-1V267.6z"/>
		<path class="st14" d="M536.6,267.6v-18.3c0-9.1-3-11.7-11.6-8.7l-4.2,1.4c0.8,1.9,1.2,4.3,1.2,7.3v18.3c0,5.5,4,5.7,4,5.7h-15.8
			c0,0,4.1-0.1,4.1-5.7v-18.3c0-9.1-3-11.7-11.6-8.7l-3,1v26c0,5.5,4,5.7,4,5.7h-15.8c0,0,4.1-0.1,4.1-5.7V243c0-4.4-4-4.2-4-4.2
			l11.4-1.4l0.4,2.6l5.8-1.9c6.8-2.2,11.9-1.5,14.5,2.6l7.8-2.6c10.2-3.3,16.5-0.1,16.5,11.3v18.3c0,5.5,4,5.7,4,5.7h-15.8
			C532.5,273.3,536.6,273.1,536.6,267.6z"/>
		<path class="st14" d="M568.4,240l5.8-1.7c12.4-3.6,18.6-0.4,18.6,11v18.3c0,5.5,4,5.7,4,5.7h-15.8c0,0,4.1-0.1,4.1-5.7v-18.3
			c0-9.1-4.5-11-13.7-8.4l-3,0.9v25.9c0,5.5,4,5.7,4,5.7h-15.8c0,0,4.1-0.1,4.1-5.7V243c0-4.4-4-4.2-4-4.2l11.4-1.4L568.4,240z"/>
		<path class="st14" d="M5.5,327.4c0-10.9,8.2-18.3,19.7-18.3s19.7,7.3,19.7,18.3c0,11.3-8.2,18.9-19.7,18.9S5.5,338.7,5.5,327.4z
			 M36.3,327.4c0-6.3-1.8-16.3-11.2-16.3S14,321.1,14,327.4c0,6.4,1.8,16.8,11.2,16.8S36.3,333.8,36.3,327.4z"/>
		<path class="st14" d="M94,326.9c0,11.9-8,19.4-18.1,19.4c-4.3,0-7.8-1.2-10.7-3v16.8c0,5.5,4,5.7,4,5.7H53.5c0,0,4.1-0.1,4.1-5.7
			v-44.7c0-5.5-4-5.7-4-5.7h11l0.7,2.7v0.1c2.8-2.1,6.4-3.4,10.7-3.4C86.2,309.1,94,314.8,94,326.9z M85.5,327.6
			c0-10.2-4.3-15.9-11.4-15.9c-3.7,0-6.6,1.2-8.8,3.1v25.9c2.2,2,5.1,3.4,8.8,3.4C80,344,85.5,337.7,85.5,327.6z"/>
		<path class="st14" d="M144.5,341.9V354c0,0-2.5-6.8-9.4-11.8c-3.3,2.6-7.7,4-12.7,4c-11.4,0-19.7-7.6-19.7-18.9
			c0-10.9,8.2-18.3,19.7-18.3c11.4,0,19.7,7.3,19.7,18.3c0,4.6-1.4,8.6-3.7,11.7C140.5,339.8,142.6,340.7,144.5,341.9z M130.7,339.6
			L130.7,339.6c-3.5-1.6-7.6-2.6-12.6-2.6c0,0,6.4-0.4,13.6,0.6c1.4-3.3,1.8-7.2,1.8-10.2c0-6.3-1.8-16.3-11.2-16.3
			s-11.2,9.9-11.2,16.3c0,6.4,1.8,16.8,11.2,16.8C126.3,344.3,128.9,342.3,130.7,339.6z"/>
		<path class="st14" d="M185.6,315.3c0,1.9-1.2,3.7-3.9,3.7c-2.9,0-4.2-1.7-4-3.7c-0.1-3.3-3.7-5.5-11.3-0.4V340c0,5.5,4,5.7,4,5.7
			h-15.8c0,0,4.1-0.1,4.1-5.7v-24.6c0-4.4-4-4.2-4-4.2l11.4-1.4l0.4,2.7v0.6l2.6-1.6C176.2,306.9,185.6,309,185.6,315.3z"/>
		<path class="st14" d="M198.2,343.4c-2.2,1.2-3.2,3-3.2,3v-19.7c1.9,12.5,9.1,17.6,17,17.6c5.5,0,9-2.4,9-6c0-3.8-2.7-5.9-12-8.6
			c-9.9-2.9-14-5.7-14-11.2c0-5.3,3.8-9.4,15.8-9.4c4.8,0,8.9,0.9,12.2,2.8c2.4-0.2,3.1-3,3.1-3v16.6c-0.6-9.1-6.3-14.5-15.3-14.5
			c-4.8,0-9.8,1.4-9.8,4.2c0,3.1,2.4,4.7,14.7,8.3c10,2.9,12.2,6.9,12.2,12.1c0,6.1-5,10.6-16,10.6
			C206.9,346.3,201.7,345.4,198.2,343.4z"/>
		<path class="st14" d="M252.5,311.7V340c0,5.5,4.1,5.7,4.1,5.7h-15.8c0,0,4-0.1,4-5.7v-28.3h-9.3v-2h9.3V301c0-4.9-4-4.7-4-4.7
			l11.7-1v14.4h8.7v2H252.5z"/>
		<path class="st14" d="M303.7,340c0,5.5,4,5.7,4,5.7h-11.4L296,343l-5.8,1.7c-13.1,3.7-19.3,0.4-19.3-9v-20.3c0-4.4-4-4.2-4-4.2
			l11.7-1.4v26c0,7.1,4.5,9.3,14.4,6.4l3-0.9v-25.8c0-4.4-4-4.2-4-4.2l11.7-1.4V340z"/>
		<path class="st14" d="M349.6,315.2l-14.3,30.5h-4l-14-30.2c-2.8-5.7-8.1-5.8-8.1-5.8h20.9c0,0-6.8,0.1-3.5,8.7l9.6,20.5l8.6-18.3
			l-0.1,0.1c5.1-10.9-2.4-11-2.4-11h15.2C357.5,309.7,352.1,309.8,349.6,315.2z"/>
		<path class="st14" d="M414.8,314.9l-13.9,30.7h-4l-7.9-20.5l-9.3,20.5h-4l-14.8-30.2c-2.7-5.5-7.7-5.8-7.7-5.8h20
			c-0.1,0-7.3,0-4.3,5.8l11.7,23.4l7.4-16.3l-3-7.9c-2.4-5-7-5-7.1-5h20.3c-0.1,0-7.1,0-4.9,6.2l8.6,22.7l8.4-18.6
			c4.3-10.3-2.7-10.3-2.7-10.3h14.6C422.2,309.7,417.7,309.7,414.8,314.9z"/>
		<path class="st14" d="M465,345.7h-20c3.1,0,5.4-1.1,1.6-6.7l-5.5-8.2l-3.4,5c-6,8.9-3.7,9.9,2.8,9.9h-19.6
			c5.3-0.2,8.9-2,14.8-10.6l4.2-6.1l-7.8-11.5c0,0,0-0.1-0.1-0.1l-0.1-0.3c-3.7-5.3-6.8-7.2-10.1-7.4h20c-3,0-5.3,1-1.8,6.3l5.8,8.5
			l3.4-5c6-8.9,3.7-9.9-2.8-9.9h19.6c-5.3,0.2-8.9,2-14.8,10.6l-4.2,6.1l9.1,13.3C459.1,344,462,345.5,465,345.7z"/>
		<path class="st14" d="M504.9,314.9l-17.5,37.5c-5.6,12-10.9,11.5-13.3,10.4c-2.3-0.9-3.3-2.8-2.1-5.5c1.2-2.4,3.2-2.8,5.5-1.7
			c3.2,1.4,6.2,0,8.1-4l1.9-4l-14.8-31.9c-2.7-5.9-8.2-6-8.2-6h21c0,0-7.1,0.1-3.2,9.2l9.4,20.1l8.6-18.4l-0.1,0.1
			c5.1-10.9-2.4-11-2.4-11h15.2C512.7,309.7,507.4,309.8,504.9,314.9z"/>
		<path class="st14" d="M545.7,334.3l-0.6,11.4h-31l21.2-34h-11.4c-7.3,0-9.7,7.5-9.7,7.5l0.8-9.5h30.4l-21.2,34h10.9
			C544.1,343.7,545.7,334.3,545.7,334.3z"/>
	</g>
</g>
<g id="Layer_1_copy_4" class="st0">
</g>
</svg>
