<?xml version="1.0" encoding="utf-8"?>
<!-- Generator: Adobe Illustrator 19.0.1, SVG Export Plug-In . SVG Version: 6.00 Build 0)  -->
<svg version="1.1" id="Layer_1" xmlns="http://www.w3.org/2000/svg" xmlns:xlink="http://www.w3.org/1999/xlink" x="0px" y="0px"
	 viewBox="0 0 847 437" style="enable-background:new 0 0 847 437;" xml:space="preserve">
<style type="text/css">
	.st0{fill:#FF64BD;}
</style>
<path class="st0" d="M7.7,39.5c-1.9,1.1-2.8,2.7-2.8,2.7V24.4C5.1,31.1,9,40.9,18.9,40.9c6.6,0,9.2-2.2,9.2-6.5
	c0-3.7-3.9-6.1-10.8-8C9,24.1,4.8,20.9,4.8,15.9c0-4.6,3.9-8.7,14.4-8.7c3.6,0,7.2,1,10,2.8c1.7-0.5,2.1-2.9,2.1-2.9v16.6
	C29.8,12.2,24.7,8.6,19.2,8.6c-5.5,0-9.8,1.7-9.8,5.5c0,3.4,2.6,4.4,14,8.1c7.2,2.3,9.6,6.8,9.6,10.7c0,6.4-5.1,9.5-14.1,9.5
	C15,42.3,10.8,41.3,7.7,39.5z"/>
<path class="st0" d="M36.9,29.2c0-7.3,5.5-12.2,13.1-12.2c2.8,0,5.4,1.1,7.6,2.3c0.8,0,1.7-0.8,2.2-2.1L59.4,28
	c-0.6-5.2-3.8-9.8-9.9-9.7c-3.7,0-7.4,3.6-7.3,10.3c0,5.7,3.5,10.2,8.9,10.2c4.8,0,8.1-2.7,9.5-6.7c-0.8,5.6-5.3,9.6-10.9,9.6
	C42.1,41.8,36.9,36.7,36.9,29.2z"/>
<path class="st0" d="M84.2,21.1c0,1.3-0.8,2.4-2.6,2.4c-1.9,0-2.8-1.2-2.7-2.4c-0.1-2.2-2.4-3.6-7.5-0.2v16.7c0,3.7,2.7,3.8,2.7,3.8
	H63.5c0,0,2.7-0.1,2.7-3.8V21.2c0-2.9-2.7-2.8-2.7-2.8l7.6-1l0.2,1.8v0.4l1.7-1.1C78,15.5,84.2,17,84.2,21.1z"/>
<path class="st0" d="M97.7,17c7.7,0,10.9,5.5,10.9,10.2h-18c0,7.3,3.3,11.6,8.8,11.6c4.8,0,8-2.6,9.4-6.6c-0.8,5.6-5.1,9.6-10.8,9.6
	c-7.6,0-12.7-5-12.7-12.6C85.4,21.9,90.1,17,97.7,17z M103.1,25.8c0-0.9,0-7.5-5.3-7.5c-6.2,0-7,6.6-7,7.5H103.1z"/>
<path class="st0" d="M124,17c7.7,0,10.9,5.5,10.9,10.2h-18c0,7.3,3.3,11.6,8.8,11.6c4.8,0,8-2.6,9.4-6.6c-0.8,5.6-5.1,9.6-10.8,9.6
	c-7.6,0-12.7-5-12.7-12.6C111.7,21.9,116.4,17,124,17z M129.4,25.8c0-0.9,0-7.5-5.3-7.5c-6.2,0-7,6.6-7,7.5H129.4z"/>
<path class="st0" d="M145.9,19.2l3.8-1.1c8.3-2.4,12.4-0.3,12.4,7.3v12.2c0,3.7,2.7,3.8,2.7,3.8h-10.6c0,0,2.7-0.1,2.7-3.8V25.4
	c0-6-3-7.3-9.1-5.6l-2,0.6v17.2c0,3.7,2.7,3.8,2.7,3.8H138c0,0,2.7-0.1,2.7-3.8V21.2c0-2.9-2.7-2.8-2.7-2.8l7.6-1L145.9,19.2z"/>
<path class="st0" d="M170.8,39.9c-1.4,0.8-2.2,2-2.2,2V28.7c1.3,8.3,5.1,11.7,12,11.7c3,0,5.3-1.7,5.3-4.1c0-2.5-1.7-4.1-7.3-5.6
	c-7.2-1.7-10-3.6-10-7.3c0-3.5,2.5-6.5,11.1-6.5c5.3,0,8.1,2.3,8.1,2.3c1.1-0.8,1.5-2.4,1.5-2.4v11.8c0-6.8-4.2-10.4-10.2-10.4
	c-3.2,0-6.3,1.2-6.3,3.3c0,2.5,4,3.5,10.1,5.3c6.1,1.8,7.6,4.3,7.6,7.9c0,3.9-3.3,7-10.7,7C176.6,41.8,173.2,41.2,170.8,39.9z"/>
<path class="st0" d="M231.1,11.6v26c0,3.7,2.7,3.8,2.7,3.8h-10.6c0,0,2.7-0.1,2.7-3.8v-26c0-3.7-2.7-3.8-2.7-3.8h10.6
	C233.9,7.8,231.1,7.9,231.1,11.6z"/>
<path class="st0" d="M245.1,19.2l3.8-1.1c8.3-2.4,12.4-0.3,12.4,7.3v12.2c0,3.7,2.7,3.8,2.7,3.8h-10.6c0,0,2.7-0.1,2.7-3.8V25.4
	c0-6-3-7.3-9.1-5.6l-2,0.6v17.2c0,3.7,2.7,3.8,2.7,3.8h-10.6c0,0,2.7-0.1,2.7-3.8V21.2c0-2.9-2.7-2.8-2.7-2.8l7.6-1L245.1,19.2z"/>
<path class="st0" d="M274.8,19.2l3.8-1.1c8.3-2.4,12.4-0.3,12.4,7.3v12.2c0,3.7,2.7,3.8,2.7,3.8h-10.6c0,0,2.7-0.1,2.7-3.8V25.4
	c0-6-3-7.3-9.1-5.6l-2,0.6v17.2c0,3.7,2.7,3.8,2.7,3.8h-10.6c0,0,2.7-0.1,2.7-3.8V7.8c0-3.3-2.7-3.1-2.7-3.1l7.8-0.7V19.2z"/>
<path class="st0" d="M314.3,41.4l-0.8-2.6l-3,1.3c-6.8,3-14.1,2-14.1-4.6c0-6,6.1-6.7,16.8-9.9c-0.2-6.6-2.4-7.4-5.2-7.4
	c-2.9,0-4.7,1.5-4.7,3.8c0,1.7-0.8,2.8-2.6,2.8c-1.9,0-2.8-1.2-2.7-2.8c0-1.7,2.2-5.1,10-5.1c7.5,0,10.4,2.8,10.4,8.5v12.2
	c0,3.7,2.7,3.8,2.7,3.8H314.3z M312.2,38l0.9-0.4V27.1l-0.6,0.2c-8.1,2.3-11.4,3.5-11.4,7.5C301.1,39.4,306.4,40.4,312.2,38z"/>
<path class="st0" d="M344.5,21.1c0,1.3-0.8,2.4-2.6,2.4c-1.9,0-2.8-1.2-2.7-2.4c-0.1-2.2-2.4-3.6-7.5-0.2v16.7
	c0,3.7,2.7,3.8,2.7,3.8h-10.6c0,0,2.7-0.1,2.7-3.8V21.2c0-2.9-2.7-2.8-2.7-2.8l7.6-1l0.2,1.8v0.4l1.7-1.1
	C338.3,15.5,344.5,17,344.5,21.1z"/>
<path class="st0" d="M378.2,37.6V25.4c0-6-2-7.8-7.7-5.8l-2.8,1c0.5,1.2,0.8,2.9,0.8,4.8v12.2c0,3.7,2.7,3.8,2.7,3.8h-10.6
	c0,0,2.7-0.1,2.7-3.8V25.4c0-6-2-7.8-7.7-5.8l-2,0.7v17.3c0,3.7,2.7,3.8,2.7,3.8h-10.6c0,0,2.7-0.1,2.7-3.8V21.2
	c0-2.9-2.7-2.8-2.7-2.8l7.6-1l0.2,1.7l3.9-1.2c4.5-1.5,7.9-1,9.6,1.7l5.2-1.7c6.8-2.2,11-0.1,11,7.5v12.2c0,3.7,2.7,3.8,2.7,3.8
	h-10.6C375.5,41.4,378.2,41.3,378.2,37.6z"/>
<path class="st0" d="M388.9,29.2c0-7.3,5.5-12.2,13.1-12.2c7.6,0,13.1,4.9,13.1,12.2c0,7.5-5.5,12.6-13.1,12.6
	C394.4,41.8,388.9,36.7,388.9,29.2z M409.5,29.2c0-4.2-1.2-10.8-7.4-10.8c-6.2,0-7.4,6.6-7.4,10.8c0,4.3,1.2,11.2,7.4,11.2
	C408.3,40.4,409.5,33.5,409.5,29.2z"/>
<path class="st0" d="M425.9,19.2l3.8-1.1c8.3-2.4,12.4-0.3,12.4,7.3v12.2c0,3.7,2.7,3.8,2.7,3.8h-10.6c0,0,2.7-0.1,2.7-3.8V25.4
	c0-6-3-7.3-9.1-5.6l-2,0.6v17.2c0,3.7,2.7,3.8,2.7,3.8H418c0,0,2.7-0.1,2.7-3.8V21.2c0-2.9-2.7-2.8-2.7-2.8l7.6-1L425.9,19.2z"/>
<path class="st0" d="M456,37.6c0,3.7,2.7,3.8,2.7,3.8h-10.6c0,0,2.7-0.1,2.7-3.8V21.2c0-2.9-2.7-2.8-2.7-2.8l7.8-1V37.6z
	 M450.1,10.8c0,1.8,1.2,3,3.1,3s3.3-1.2,3.3-3c0-1.8-1.4-3-3.3-3S450.1,9,450.1,10.8z"/>
<path class="st0" d="M462.1,29.2c0-7.3,5.5-12.2,13.1-12.2c7.6,0,13.1,4.9,13.1,12.2c0,7.5-5.5,12.6-13.1,12.6
	C467.6,41.8,462.1,36.7,462.1,29.2z M482.6,29.2c0-4.2-1.2-10.8-7.4-10.8c-6.2,0-7.4,6.6-7.4,10.8c0,4.3,1.2,11.2,7.4,11.2
	C481.4,40.4,482.6,33.5,482.6,29.2z"/>
<path class="st0" d="M515.7,37.6c0,3.7,2.7,3.8,2.7,3.8h-7.6l-0.2-1.8l-3.8,1.1c-8.7,2.5-12.9,0.3-12.9-6V21.2
	c0-2.9-2.7-2.8-2.7-2.8l7.8-1v17.3c0,4.7,3,6.2,9.6,4.3l2-0.6V21.2c0-2.9-2.7-2.8-2.7-2.8l7.8-1V37.6z"/>
<path class="st0" d="M524.4,39.9c-1.4,0.8-2.2,2-2.2,2V28.7c1.3,8.3,5.1,11.7,12,11.7c3,0,5.3-1.7,5.3-4.1c0-2.5-1.7-4.1-7.3-5.6
	c-7.2-1.7-10-3.6-10-7.3c0-3.5,2.5-6.5,11.1-6.5c5.3,0,8.1,2.3,8.1,2.3c1.1-0.8,1.5-2.4,1.5-2.4v11.8c0-6.8-4.2-10.4-10.2-10.4
	c-3.2,0-6.3,1.2-6.3,3.3c0,2.5,4,3.5,10.1,5.3c6.1,1.8,7.6,4.3,7.6,7.9c0,3.9-3.3,7-10.7,7C530.2,41.8,526.7,41.2,524.4,39.9z"/>
<path class="st0" d="M580.7,39.5c-1.9,1.1-2.8,2.7-2.8,2.7V24.4c0.2,6.7,4.1,16.5,14.1,16.5c6.6,0,9.2-2.2,9.2-6.5
	c0-3.7-3.9-6.1-10.8-8c-8.3-2.3-12.5-5.4-12.5-10.5c0-4.6,3.9-8.7,14.4-8.7c3.6,0,7.2,1,10,2.8c1.7-0.5,2.1-2.9,2.1-2.9v16.6
	c-1.5-11.6-6.6-15.2-12.1-15.2c-5.5,0-9.8,1.7-9.8,5.5c0,3.4,2.6,4.4,14,8.1c7.2,2.3,9.6,6.8,9.6,10.7c0,6.4-5.1,9.5-14.1,9.5
	C588,42.3,583.9,41.3,580.7,39.5z"/>
<path class="st0" d="M618.2,37.6c0,3.7,2.7,3.8,2.7,3.8h-10.6c0,0,2.7-0.1,2.7-3.8V7.8c0-3.3-2.7-3.1-2.7-3.1l7.8-0.7V37.6z"/>
<path class="st0" d="M624.3,29.2c0-7.3,5.5-12.2,13.1-12.2c7.6,0,13.1,4.9,13.1,12.2c0,7.5-5.5,12.6-13.1,12.6
	C629.8,41.8,624.3,36.7,624.3,29.2z M644.8,29.2c0-4.2-1.2-10.8-7.4-10.8c-6.2,0-7.4,6.6-7.4,10.8c0,4.3,1.2,11.2,7.4,11.2
	C643.6,40.4,644.8,33.5,644.8,29.2z"/>
<path class="st0" d="M678.9,44.9c0,5.4-3.8,9.6-12.4,9.6c-8.7,0-13.1-3.4-13.1-7.9c0-3.9,3.5-5.8,4.7-6c-4.9-0.9-4.7-6.4-0.2-7.8
	c-2-1.5-3.1-3.8-3.1-6.9c0-5.9,4.7-9,10.4-9c2.7,0,5.1,0.6,6.9,1.9c2.4-3.8,4.8-3.9,5.8-3.4c1,0.5,1.5,1.4,0.9,2.5
	c-0.6,1.2-1.5,1.2-2.5,0.6c-1.2-0.6-2.2,0-3.1,1.1c1.6,1.5,2.5,3.6,2.5,6.2c0,5.7-4.1,8.8-10.4,8.8c-2.4,0-4.4-0.4-6-1.2
	c-0.6,0.2-0.9,0.6-0.9,1.3c0,1.2,2.4,2.2,10,2.2C675.3,37.2,678.9,41.1,678.9,44.9z M674.2,46.6c0-2.9-2.8-5.2-7.9-5.2
	c-1.8,0-4,0-5.8-0.2c-1.3,0.6-2.6,2.5-2.6,4.9c0,4.1,3.2,7.2,8.6,7.2C671.4,53.2,674.2,50.1,674.2,46.6z M659.8,26
	c0,5.1,2.1,7.5,5.4,7.5c3.3,0,5.4-2.4,5.4-7.5c0-5.3-2.1-7.6-5.4-7.6C661.9,18.4,659.8,20.7,659.8,26z"/>
<path class="st0" d="M721.5,17.4c0,0-1.4-8.3-7.3-8.3h-6v28.5c0,3.7,2.7,3.8,2.7,3.8h-10.6c0,0,2.7-0.1,2.7-3.8V9.1h-5.7
	c-5.9,0-7.3,8.3-7.3,8.3l0.5-9.6H721L721.5,17.4z"/>
<path class="st0" d="M731.3,19.2l3.8-1.1c8.3-2.4,12.4-0.3,12.4,7.3v12.2c0,3.7,2.7,3.8,2.7,3.8h-10.6c0,0,2.7-0.1,2.7-3.8V25.4
	c0-6-3-7.3-9.1-5.6l-2,0.6v17.2c0,3.7,2.7,3.8,2.7,3.8h-10.6c0,0,2.7-0.1,2.7-3.8V7.8c0-3.3-2.7-3.1-2.7-3.1l7.8-0.7V19.2z"/>
<path class="st0" d="M764.9,17c7.7,0,10.9,5.5,10.9,10.2h-18c0,7.3,3.3,11.6,8.8,11.6c4.8,0,8-2.6,9.4-6.6
	c-0.8,5.6-5.1,9.6-10.8,9.6c-7.6,0-12.7-5-12.7-12.6C752.6,21.9,757.3,17,764.9,17z M770.2,25.8c0-0.9,0-7.5-5.3-7.5
	c-6.2,0-7,6.6-7,7.5H770.2z"/>
<path class="st0" d="M32.5,86.7L32,95.8H3.8c0,0,2.7-0.1,2.7-3.8V66c0-3.7-2.7-3.8-2.7-3.8h27.6l0.8,7.2c0,0-2.3-5.9-6.5-5.9H11.7
	v14.3H21c7.3,0,7.4-5.1,7.4-5.1v11.6c0,0-0.1-5.1-7.4-5.1h-9.3v15.3h13.5C31.1,93.5,32.5,86.7,32.5,86.7z"/>
<path class="st0" d="M59,75.5l-9.5,20.3h-2.7l-9.3-20.1c-1.9-3.8-5.4-3.9-5.4-3.9H46c0,0-4.5,0.1-2.3,5.8l6.4,13.7l5.7-12.2l0,0
	c3.4-7.2-1.6-7.3-1.6-7.3h10.1C64.3,71.8,60.6,71.9,59,75.5z"/>
<path class="st0" d="M74.6,71.4c7.7,0,10.9,5.5,10.9,10.2h-18c0,7.3,3.3,11.6,8.8,11.6c4.8,0,8-2.6,9.4-6.6
	c-0.8,5.6-5.1,9.6-10.8,9.6c-7.6,0-12.7-5-12.7-12.6C62.4,76.3,67.1,71.4,74.6,71.4z M80,80.2c0-0.9,0-7.5-5.3-7.5
	c-6.2,0-7,6.6-7,7.5H80z"/>
<path class="st0" d="M109.3,75.5c0,1.3-0.8,2.4-2.6,2.4c-1.9,0-2.8-1.2-2.7-2.4c-0.1-2.2-2.4-3.6-7.5-0.2V92c0,3.7,2.7,3.8,2.7,3.8
	H88.7c0,0,2.7-0.1,2.7-3.8V75.6c0-2.9-2.7-2.8-2.7-2.8l7.6-1l0.2,1.8V74l1.7-1.1C103.1,69.9,109.3,71.4,109.3,75.5z"/>
<path class="st0" d="M133.3,75.2l-11.7,25c-3.7,8-7.3,7.7-8.9,7c-1.5-0.6-2.2-1.9-1.4-3.6c0.8-1.6,2.1-1.9,3.6-1.2
	c2.1,1,4.1,0,5.4-2.7l1.2-2.6l-9.9-21.3c-1.8-3.9-5.5-4-5.5-4h13.9c0,0-4.7,0.1-2.2,6.1l6.2,13.4l5.8-12.3l0,0
	c3.4-7.2-1.6-7.3-1.6-7.3h10.1C138.5,71.8,135,71.9,133.3,75.2z"/>
<path class="st0" d="M164,95.8h-7.3l-0.5-1.8v-0.1c-1.9,1.4-4.3,2.3-7.1,2.3c-6.9,0-12-3.8-12-11.9c0-7.9,5.1-12.9,12-12.9
	c2.9,0,5.2,0.8,7.1,2V62.2c0-3.3-2.7-3.1-2.7-3.1l7.8-0.7V92C161.3,95.7,164,95.8,164,95.8z M156.2,92.4V75.2
	c-1.5-1.3-3.4-2.3-5.9-2.3c-4.1,0-7.6,4.2-7.6,10.9c0,6.8,2.9,10.6,7.6,10.6C152.8,94.5,154.7,93.6,156.2,92.4z"/>
<path class="st0" d="M185.6,95.8l-0.8-2.6l-3,1.3c-6.8,3-14.1,2-14.1-4.6c0-6,6.1-6.7,16.8-9.9c-0.2-6.6-2.4-7.4-5.2-7.4
	c-2.9,0-4.7,1.5-4.7,3.8c0,1.7-0.8,2.8-2.6,2.8c-1.9,0-2.8-1.2-2.7-2.8c0-1.7,2.2-5.1,10-5.1c7.5,0,10.4,2.8,10.4,8.5V92
	c0,3.7,2.7,3.8,2.7,3.8H185.6z M183.5,92.4l0.9-0.4V81.5l-0.6,0.2c-8.1,2.3-11.4,3.5-11.4,7.5C172.4,93.8,177.7,94.8,183.5,92.4z"/>
<path class="st0" d="M217.8,75.2l-11.7,25c-3.7,8-7.3,7.7-8.9,7c-1.5-0.6-2.2-1.9-1.4-3.6c0.8-1.6,2.1-1.9,3.6-1.2
	c2.1,1,4.1,0,5.4-2.7l1.2-2.6l-9.9-21.3c-1.8-3.9-5.5-4-5.5-4h13.9c0,0-4.7,0.1-2.2,6.1l6.2,13.4l5.8-12.3l0,0
	c3.4-7.2-1.6-7.3-1.6-7.3H223C223,71.8,219.5,71.9,217.8,75.2z"/>
<path class="st0" d="M282.7,72.2c0,7.5-8.3,10.3-14.9,10.3c-3.6,0-6.8-0.2-8.7-0.3V92c0,3.7,2.7,3.8,2.7,3.8h-10.6
	c0,0,2.7-0.1,2.7-3.8V66.9c0,0,0-4.8-4.1-4.8h17.3C274.6,62.2,282.7,64.5,282.7,72.2z M277.2,72.5c0-6-3.5-9-11.1-9h-7.1V81
	c1.8,0,4.8,0.1,8.4,0.1C273.8,81.2,277.2,77.4,277.2,72.5z"/>
<path class="st0" d="M308.6,92c0,3.7,2.7,3.8,2.7,3.8h-7.6l-0.2-1.8l-3.8,1.1c-8.7,2.5-12.9,0.3-12.9-6V75.6c0-2.9-2.7-2.8-2.7-2.8
	l7.8-1v17.3c0,4.7,3,6.2,9.6,4.3l2-0.6V75.6c0-2.9-2.7-2.8-2.7-2.8l7.8-1V92z"/>
<path class="st0" d="M317.3,94.3c-1.4,0.8-2.2,2-2.2,2V83.1c1.3,8.3,5.1,11.7,12,11.7c3,0,5.3-1.7,5.3-4.1c0-2.5-1.7-4.1-7.3-5.6
	c-7.2-1.7-10-3.6-10-7.3c0-3.5,2.5-6.5,11.1-6.5c5.3,0,8.1,2.3,8.1,2.3c1.1-0.8,1.5-2.4,1.5-2.4v11.8c0-6.8-4.2-10.4-10.2-10.4
	c-3.2,0-6.3,1.2-6.3,3.3c0,2.5,4,3.5,10.1,5.3c6.1,1.8,7.6,4.3,7.6,7.9c0,3.9-3.3,7-10.7,7C323.1,96.2,319.7,95.6,317.3,94.3z"/>
<path class="st0" d="M348.4,73.6l3.8-1.1c8.3-2.4,12.4-0.3,12.4,7.3V92c0,3.7,2.7,3.8,2.7,3.8h-10.6c0,0,2.7-0.1,2.7-3.8V79.8
	c0-6-3-7.3-9.1-5.6l-2,0.6V92c0,3.7,2.7,3.8,2.7,3.8h-10.6c0,0,2.7-0.1,2.7-3.8V62.2c0-3.3-2.7-3.1-2.7-3.1l7.8-0.7V73.6z"/>
<path class="st0" d="M402.8,93.9c-1.9,1.1-2.8,2.7-2.8,2.7V78.8c0.2,6.7,4.1,16.5,14.1,16.5c6.6,0,9.2-2.2,9.2-6.5
	c0-3.7-3.9-6.1-10.8-8c-8.3-2.3-12.5-5.4-12.5-10.5c0-4.6,3.9-8.7,14.4-8.7c3.6,0,7.2,1,10,2.8c1.7-0.5,2.1-2.9,2.1-2.9v16.6
	c-1.5-11.6-6.6-15.2-12.1-15.2c-5.5,0-9.8,1.7-9.8,5.5c0,3.4,2.6,4.4,14,8.1c7.2,2.3,9.6,6.8,9.6,10.7c0,6.4-5.1,9.5-14.1,9.5
	C410.2,96.7,406,95.7,402.8,93.9z"/>
<path class="st0" d="M441.4,73.1V92c0,3.7,2.7,3.8,2.7,3.8h-10.6c0,0,2.7-0.1,2.7-3.8V73.1h-5.7v-1.3h5.7V66c0-3.3-2.7-3.1-2.7-3.1
	l7.8-0.7v9.6h5.3v1.3H441.4z"/>
<path class="st0" d="M448.2,83.6c0-7.3,5.5-12.2,13.1-12.2s13.1,4.9,13.1,12.2c0,7.5-5.5,12.6-13.1,12.6S448.2,91.1,448.2,83.6z
	 M468.7,83.6c0-4.2-1.2-10.8-7.4-10.8c-6.2,0-7.4,6.6-7.4,10.8c0,4.3,1.2,11.2,7.4,11.2C467.5,94.8,468.7,87.9,468.7,83.6z"/>
<path class="st0" d="M497.9,75.5c0,1.3-0.8,2.4-2.6,2.4c-1.9,0-2.8-1.2-2.7-2.4c-0.1-2.2-2.4-3.6-7.5-0.2V92c0,3.7,2.7,3.8,2.7,3.8
	h-10.6c0,0,2.7-0.1,2.7-3.8V75.6c0-2.9-2.7-2.8-2.7-2.8l7.6-1l0.2,1.8V74l1.7-1.1C491.7,69.9,497.9,71.4,497.9,75.5z"/>
<path class="st0" d="M531.7,92V79.8c0-6-2-7.8-7.7-5.8l-2.8,1c0.5,1.2,0.8,2.9,0.8,4.8V92c0,3.7,2.7,3.8,2.7,3.8h-10.6
	c0,0,2.7-0.1,2.7-3.8V79.8c0-6-2-7.8-7.7-5.8l-2,0.7V92c0,3.7,2.7,3.8,2.7,3.8h-10.6c0,0,2.7-0.1,2.7-3.8V75.6
	c0-2.9-2.7-2.8-2.7-2.8l7.6-1l0.2,1.7l3.9-1.2c4.5-1.5,7.9-1,9.6,1.7l5.2-1.7c6.8-2.2,11-0.1,11,7.5V92c0,3.7,2.7,3.8,2.7,3.8H529
	C529,95.8,531.7,95.7,531.7,92z"/>
<path class="st0" d="M606.9,79c0,10.5-7.4,17.7-17.9,17.7c-10.4,0-17.9-7.2-17.9-17.7c0-10.6,7.4-17.4,17.9-17.4
	C599.5,61.6,606.9,68.4,606.9,79z M601.2,79c0-5.9-2.3-16-12.2-16c-9.9,0-12.2,10.1-12.2,16c0,5.9,2.3,16.3,12.2,16.3
	C599,95.3,601.2,84.9,601.2,79z"/>
<path class="st0" d="M634.3,92c0,3.7,2.7,3.8,2.7,3.8h-7.6l-0.2-1.8l-3.8,1.1c-8.7,2.5-12.9,0.3-12.9-6V75.6c0-2.9-2.7-2.8-2.7-2.8
	l7.8-1v17.3c0,4.7,3,6.2,9.6,4.3l2-0.6V75.6c0-2.9-2.7-2.8-2.7-2.8l7.8-1V92z"/>
<path class="st0" d="M649.3,73.1V92c0,3.7,2.7,3.8,2.7,3.8h-10.6c0,0,2.7-0.1,2.7-3.8V73.1h-5.7v-1.3h5.7V66c0-3.3-2.7-3.1-2.7-3.1
	l7.8-0.7v9.6h5.3v1.3H649.3z"/>
<path class="st0" d="M676.7,75.5c0,1.3-0.8,2.4-2.6,2.4c-1.9,0-2.8-1.2-2.7-2.4c-0.1-2.2-2.4-3.6-7.5-0.2V92c0,3.7,2.7,3.8,2.7,3.8
	h-10.6c0,0,2.7-0.1,2.7-3.8V75.6c0-2.9-2.7-2.8-2.7-2.8l7.6-1l0.2,1.8V74l1.7-1.1C670.5,69.9,676.7,71.4,676.7,75.5z"/>
<path class="st0" d="M690.3,71.4c7.7,0,10.9,5.5,10.9,10.2h-18c0,7.3,3.3,11.6,8.8,11.6c4.8,0,8-2.6,9.4-6.6
	c-0.8,5.6-5.1,9.6-10.8,9.6c-7.6,0-12.7-5-12.7-12.6C678,76.3,682.7,71.4,690.3,71.4z M695.6,80.2c0-0.9,0-7.5-5.3-7.5
	c-6.2,0-7,6.6-7,7.5H695.6z"/>
<path class="st0" d="M761.8,83.3l-1.1,12.5h-26.3c0.2,0,2.7-0.1,2.7-3.8V66c0-3.7-2.7-3.8-2.7-3.8h10.6c0,0-2.7,0.1-2.7,3.8v28.5
	h9.3C760.8,94.5,761.8,83.3,761.8,83.3z"/>
<path class="st0" d="M787.8,92c0,3.7,2.7,3.8,2.7,3.8h-7.6l-0.2-1.8l-3.8,1.1c-8.7,2.5-12.9,0.3-12.9-6V75.6c0-2.9-2.7-2.8-2.7-2.8
	l7.8-1v17.3c0,4.7,3,6.2,9.6,4.3l2-0.6V75.6c0-2.9-2.7-2.8-2.7-2.8l7.8-1V92z"/>
<path class="st0" d="M821.1,95.8h-14.1c2.1,0,3.6-0.7,1.1-4.5l-3.7-5.5l-2.3,3.4c-4,6-2.4,6.6,1.9,6.6h-13.5c4-0.1,6.4-1.3,10.3-7.1
	l2.8-4.1l-5.2-7.7l0,0l-0.1-0.1c-2.4-3.6-4.8-4.8-7.4-5h14.1c-2,0-3.6,0.7-1.2,4.2l3.8,5.7l2.3-3.3c4-6,2.4-6.6-1.9-6.6h13.5
	c-4,0.1-6.4,1.3-10.3,7.1l-2.8,4.1l6,8.8C816.5,94.6,818.7,95.7,821.1,95.8z"/>
<path class="st0" d="M6.6,146.4v-26c0-3.7-2.7-3.8-2.7-3.8h16.7c7.8,0,13.8,0.1,13.8,6.3c0,4.5-3.6,6.5-8.1,7c5.9,0,10.8,2,10.8,9.4
	c0,9.5-6.5,10.9-15.4,10.9H3.8C3.8,150.2,6.6,150.1,6.6,146.4z M20.5,129.3c6.3,0,8.9-2,8.9-6c0-4.5-2.5-5.4-10.8-5.4h-6.9v11.4
	H20.5z M21.4,148.9c6.3,0,10-2.4,10-9.2c0-6-1.9-8.9-10.3-8.9h-9.4v18.1H21.4z"/>
<path class="st0" d="M58.1,150.2l-0.8-2.6l-3,1.3c-6.8,3-14.1,2-14.1-4.6c0-6,6.1-6.7,16.8-9.9c-0.2-6.6-2.4-7.4-5.2-7.4
	c-2.9,0-4.7,1.5-4.7,3.8c0,1.7-0.8,2.8-2.6,2.8c-1.9,0-2.8-1.2-2.7-2.8c0-1.7,2.2-5.1,10-5.1c7.5,0,10.4,2.8,10.4,8.5v12.2
	c0,3.7,2.7,3.8,2.7,3.8H58.1z M56,146.8l0.9-0.4v-10.5l-0.6,0.2c-8.1,2.3-11.4,3.5-11.4,7.5C44.9,148.2,50.2,149.2,56,146.8z"/>
<path class="st0" d="M75.9,146.4c0,3.7,2.7,3.8,2.7,3.8H68.1c0,0,2.7-0.1,2.7-3.8v-29.8c0-3.3-2.7-3.1-2.7-3.1l7.8-0.7V146.4z"/>
<path class="st0" d="M85.2,148.7c-1.4,0.8-2.2,2-2.2,2v-13.2c1.3,8.3,5.1,11.7,12,11.7c3,0,5.3-1.7,5.3-4.1c0-2.5-1.7-4.1-7.3-5.6
	c-7.2-1.7-10-3.6-10-7.3c0-3.5,2.5-6.5,11.1-6.5c5.3,0,8.1,2.3,8.1,2.3c1.1-0.8,1.5-2.4,1.5-2.4v11.8c0-6.8-4.2-10.4-10.2-10.4
	c-3.2,0-6.3,1.2-6.3,3.3c0,2.5,4,3.5,10.1,5.3c6.1,1.8,7.6,4.3,7.6,7.9c0,3.9-3.3,7-10.7,7C91,150.6,87.5,150,85.2,148.7z"/>
<path class="st0" d="M126.5,150.2l-0.8-2.6l-3,1.3c-6.8,3-14.1,2-14.1-4.6c0-6,6.1-6.7,16.8-9.9c-0.2-6.6-2.4-7.4-5.2-7.4
	c-2.9,0-4.7,1.5-4.7,3.8c0,1.7-0.8,2.8-2.6,2.8c-1.9,0-2.8-1.2-2.7-2.8c0-1.7,2.2-5.1,10-5.1c7.5,0,10.4,2.8,10.4,8.5v12.2
	c0,3.7,2.7,3.8,2.7,3.8H126.5z M124.5,146.8l0.9-0.4v-10.5l-0.6,0.2c-8.1,2.3-11.4,3.5-11.4,7.5
	C113.4,148.2,118.7,149.2,124.5,146.8z"/>
<path class="st0" d="M168.6,146.4v-12.2c0-6-2-7.8-7.7-5.8l-2.8,1c0.5,1.2,0.8,2.9,0.8,4.8v12.2c0,3.7,2.7,3.8,2.7,3.8H151
	c0,0,2.7-0.1,2.7-3.8v-12.2c0-6-2-7.8-7.7-5.8l-2,0.7v17.3c0,3.7,2.7,3.8,2.7,3.8h-10.6c0,0,2.7-0.1,2.7-3.8V130
	c0-2.9-2.7-2.8-2.7-2.8l7.6-1l0.2,1.7l3.9-1.2c4.5-1.5,7.9-1,9.6,1.7l5.2-1.7c6.8-2.2,11-0.1,11,7.5v12.2c0,3.7,2.7,3.8,2.7,3.8
	h-10.6C165.8,150.2,168.6,150.1,168.6,146.4z"/>
<path class="st0" d="M240.7,143.7V120l-12.6,27.9l-14-28.5v24.3c0,6.4,4.2,6.5,4.2,6.5h-9.7c0,0,4.2-0.1,4.2-6.5v-20.5
	c0-6.4-4.2-6.5-4.2-6.5h10.1l11.5,23.4l10.5-23.4h7.8c0,0-2.7,0.1-2.7,3.8v23.3c0,6.4,4.2,6.5,4.2,6.5h-12.9
	C237.1,150.2,240.7,150.1,240.7,143.7z"/>
<path class="st0" d="M271.5,150.2l-0.8-2.6l-3,1.3c-6.8,3-14.1,2-14.1-4.6c0-6,6.1-6.7,16.8-9.9c-0.2-6.6-2.4-7.4-5.2-7.4
	c-2.9,0-4.7,1.5-4.7,3.8c0,1.7-0.8,2.8-2.6,2.8c-1.9,0-2.8-1.2-2.7-2.8c0-1.7,2.2-5.1,10-5.1c7.5,0,10.4,2.8,10.4,8.5v12.2
	c0,3.7,2.7,3.8,2.7,3.8H271.5z M269.5,146.8l0.9-0.4v-10.5l-0.6,0.2c-8.1,2.3-11.4,3.5-11.4,7.5
	C258.4,148.2,263.7,149.2,269.5,146.8z"/>
<path class="st0" d="M284.2,148.7c-1.4,0.8-2.2,2-2.2,2v-13.2c1.3,8.3,5.1,11.7,12,11.7c3,0,5.3-1.7,5.3-4.1c0-2.5-1.7-4.1-7.3-5.6
	c-7.2-1.7-10-3.6-10-7.3c0-3.5,2.5-6.5,11.1-6.5c5.3,0,8.1,2.3,8.1,2.3c1.1-0.8,1.5-2.4,1.5-2.4v11.8c0-6.8-4.2-10.4-10.2-10.4
	c-3.2,0-6.3,1.2-6.3,3.3c0,2.5,4,3.5,10.1,5.3c6.1,1.8,7.6,4.3,7.6,7.9c0,3.9-3.3,7-10.7,7C290,150.6,286.6,150,284.2,148.7z"/>
<path class="st0" d="M310.5,148.7c-1.4,0.8-2.2,2-2.2,2v-13.2c1.3,8.3,5.1,11.7,12,11.7c3,0,5.3-1.7,5.3-4.1c0-2.5-1.7-4.1-7.3-5.6
	c-7.2-1.7-10-3.6-10-7.3c0-3.5,2.5-6.5,11.1-6.5c5.3,0,8.1,2.3,8.1,2.3c1.1-0.8,1.5-2.4,1.5-2.4v11.8c0-6.8-4.2-10.4-10.2-10.4
	c-3.2,0-6.3,1.2-6.3,3.3c0,2.5,4,3.5,10.1,5.3c6.1,1.8,7.6,4.3,7.6,7.9c0,3.9-3.3,7-10.7,7C316.3,150.6,312.9,150,310.5,148.7z"/>
<path class="st0" d="M351.9,150.2l-0.8-2.6l-3,1.3c-6.8,3-14.1,2-14.1-4.6c0-6,6.1-6.7,16.8-9.9c-0.2-6.6-2.4-7.4-5.2-7.4
	c-2.9,0-4.7,1.5-4.7,3.8c0,1.7-0.8,2.8-2.6,2.8c-1.9,0-2.8-1.2-2.7-2.8c0-1.7,2.2-5.1,10-5.1c7.5,0,10.4,2.8,10.4,8.5v12.2
	c0,3.7,2.7,3.8,2.7,3.8H351.9z M349.8,146.8l0.9-0.4v-10.5l-0.6,0.2c-8.1,2.3-11.4,3.5-11.4,7.5C338.7,148.2,344,149.2,349.8,146.8z
	"/>
<path class="st0" d="M361.4,138c0-7.3,5.5-12.2,13.1-12.2c2.8,0,5.4,1.1,7.6,2.3c0.8,0,1.7-0.8,2.2-2.1l-0.2,10.9
	c-0.6-5.2-3.8-9.8-9.9-9.7c-3.7,0-7.4,3.6-7.3,10.3c0,5.7,3.5,10.2,8.9,10.2c4.8,0,8.1-2.7,9.5-6.7c-0.8,5.6-5.3,9.6-10.9,9.6
	C366.7,150.6,361.4,145.5,361.4,138z"/>
<path class="st0" d="M408.8,129.9c0,1.3-0.8,2.4-2.6,2.4c-1.9,0-2.8-1.2-2.7-2.4c-0.1-2.2-2.4-3.6-7.5-0.2v16.7
	c0,3.7,2.7,3.8,2.7,3.8h-10.6c0,0,2.7-0.1,2.7-3.8V130c0-2.9-2.7-2.8-2.7-2.8l7.6-1l0.2,1.8v0.4l1.7-1.1
	C402.5,124.3,408.8,125.8,408.8,129.9z"/>
<path class="st0" d="M422.3,125.8c7.7,0,10.9,5.5,10.9,10.2h-18c0,7.3,3.3,11.6,8.8,11.6c4.8,0,8-2.6,9.4-6.6
	c-0.8,5.6-5.1,9.6-10.8,9.6c-7.6,0-12.7-5-12.7-12.6C410,130.7,414.7,125.8,422.3,125.8z M427.6,134.6c0-0.9,0-7.5-5.3-7.5
	c-6.2,0-7,6.6-7,7.5H427.6z"/>
<path class="st0" d="M494.3,141.1l-0.5,9.1h-28.2c0,0,2.7-0.1,2.7-3.8v-26c0-3.7-2.7-3.8-2.7-3.8h27.6l0.8,7.2c0,0-2.3-5.9-6.5-5.9
	h-14.1v14.3h9.3c7.3,0,7.4-5.1,7.4-5.1v11.6c0,0-0.1-5.1-7.4-5.1h-9.3v15.3H487C492.8,147.9,494.3,141.1,494.3,141.1z"/>
<path class="st0" d="M498.1,138c0-7.3,5.5-12.2,13.1-12.2c2.8,0,5.4,1.1,7.6,2.3c0.8,0,1.7-0.8,2.2-2.1l-0.2,10.9
	c-0.6-5.2-3.8-9.8-9.9-9.7c-3.7,0-7.4,3.6-7.3,10.3c0,5.7,3.5,10.2,8.9,10.2c4.8,0,8.1-2.7,9.5-6.7c-0.8,5.6-5.3,9.6-10.9,9.6
	C503.4,150.6,498.1,145.5,498.1,138z"/>
<path class="st0" d="M524.8,138c0-7.3,5.5-12.2,13.1-12.2c7.6,0,13.1,4.9,13.1,12.2c0,7.5-5.5,12.6-13.1,12.6
	C530.2,150.6,524.8,145.5,524.8,138z M545.3,138c0-4.2-1.2-10.8-7.4-10.8c-6.2,0-7.4,6.6-7.4,10.8c0,4.3,1.2,11.2,7.4,11.2
	C544.1,149.2,545.3,142.3,545.3,138z"/>
<path class="st0" d="M609.8,128v11.6c0,0-0.1-5.1-7.4-5.1h-10v12c0,3.7,2.7,3.8,2.7,3.8h-10.6c0,0,2.7-0.1,2.7-3.8v-25.1
	c0,0,0-4.8-4-4.8h28.7l1.1,7.9c0,0-1.8-6.5-8.4-6.5h-12.1v15.1l10,0C609.7,133.2,609.8,128,609.8,128z"/>
<path class="st0" d="M635,129.9c0,1.3-0.8,2.4-2.6,2.4c-1.9,0-2.8-1.2-2.7-2.4c-0.1-2.2-2.4-3.6-7.5-0.2v16.7c0,3.7,2.7,3.8,2.7,3.8
	h-10.6c0,0,2.7-0.1,2.7-3.8V130c0-2.9-2.7-2.8-2.7-2.8l7.6-1l0.2,1.8v0.4l1.7-1.1C628.8,124.3,635,125.8,635,129.9z"/>
<path class="st0" d="M644.6,146.4c0,3.7,2.7,3.8,2.7,3.8h-10.6c0,0,2.7-0.1,2.7-3.8V130c0-2.9-2.7-2.8-2.7-2.8l7.8-1V146.4z
	 M638.7,119.6c0,1.8,1.2,3,3.1,3s3.3-1.2,3.3-3c0-1.8-1.4-3-3.3-3S638.7,117.8,638.7,119.6z"/>
<path class="st0" d="M663,125.8c7.7,0,10.9,5.5,10.9,10.2h-18c0,7.3,3.3,11.6,8.8,11.6c4.8,0,8-2.6,9.4-6.6
	c-0.8,5.6-5.1,9.6-10.8,9.6c-7.6,0-12.7-5-12.7-12.6C650.7,130.7,655.4,125.8,663,125.8z M668.3,134.6c0-0.9,0-7.5-5.3-7.5
	c-6.2,0-7,6.6-7,7.5H668.3z"/>
<path class="st0" d="M684.9,128l3.8-1.1c8.3-2.4,12.4-0.3,12.4,7.3v12.2c0,3.7,2.7,3.8,2.7,3.8h-10.6c0,0,2.7-0.1,2.7-3.8v-12.2
	c0-6-3-7.3-9.1-5.6l-2,0.6v17.2c0,3.7,2.7,3.8,2.7,3.8H677c0,0,2.7-0.1,2.7-3.8V130c0-2.9-2.7-2.8-2.7-2.8l7.6-1L684.9,128z"/>
<path class="st0" d="M733.6,150.2h-7.3l-0.5-1.8v-0.1c-1.9,1.4-4.3,2.3-7.1,2.3c-6.9,0-12-3.8-12-11.9c0-7.9,5.1-12.9,12-12.9
	c2.9,0,5.2,0.8,7.1,2v-11.2c0-3.3-2.7-3.1-2.7-3.1l7.8-0.7v33.6C730.9,150.1,733.6,150.2,733.6,150.2z M725.8,146.8v-17.2
	c-1.5-1.3-3.4-2.3-5.9-2.3c-4.1,0-7.6,4.2-7.6,10.9c0,6.8,2.9,10.6,7.6,10.6C722.4,148.9,724.3,148,725.8,146.8z"/>
<path class="st0" d="M801.5,133.4c0,10.5-7.4,17.7-17.9,17.7c-10.4,0-17.9-7.2-17.9-17.7c0-10.6,7.4-17.4,17.9-17.4
	C794.1,116,801.5,122.8,801.5,133.4z M795.8,133.4c0-5.9-2.3-16-12.2-16c-9.9,0-12.2,10.1-12.2,16c0,5.9,2.3,16.3,12.2,16.3
	C793.6,149.7,795.8,139.3,795.8,133.4z"/>
<path class="st0" d="M822.4,119.5c-1.8,0-2.6-1.2-2.6-2.8c0-2.3-1.3-3.4-3.4-3.4c-2.5,0-3.7,0.9-3.7,8.4v4.5h9.6v1.3h-9.6v18.9
	c0,3.7,2.7,3.8,2.7,3.8h-10.6c0,0,2.7-0.1,2.7-3.8v-18.9h-4.6v-1.3h4.6v-4.5c0-7,1.3-9.8,8.8-9.8c6.8,0,8.7,3,8.7,4.7
	C825.2,118.3,824.3,119.5,822.4,119.5z"/>
<path class="st0" d="M841.6,119.5c-1.8,0-2.6-1.2-2.6-2.8c0-2.3-1.3-3.4-3.4-3.4c-2.5,0-3.7,0.9-3.7,8.4v4.5h9.6v1.3h-9.6v18.9
	c0,3.7,2.7,3.8,2.7,3.8h-10.6c0,0,2.7-0.1,2.7-3.8v-18.9h-4.6v-1.3h4.6v-4.5c0-7,1.3-9.8,8.8-9.8c6.8,0,8.7,3,8.7,4.7
	C844.4,118.3,843.5,119.5,841.6,119.5z"/>
<path class="st0" d="M35.7,181c0,7.5-8.3,10.3-14.9,10.3c-3.6,0-6.8-0.2-8.7-0.3v9.8c0,3.7,2.7,3.8,2.7,3.8H4.2c0,0,2.7-0.1,2.7-3.8
	v-25.1c0,0,0-4.8-4.1-4.8h17.3C27.6,171,35.7,173.3,35.7,181z M30.2,181.3c0-6-3.5-9-11.1-9h-7.1v17.5c1.8,0,4.8,0.1,8.4,0.1
	C26.8,190,30.2,186.2,30.2,181.3z"/>
<path class="st0" d="M45.4,200.8c0,3.7,2.7,3.8,2.7,3.8H37.6c0,0,2.7-0.1,2.7-3.8v-16.4c0-2.9-2.7-2.8-2.7-2.8l7.8-1V200.8z
	 M39.5,174c0,1.8,1.2,3,3.1,3c1.9,0,3.3-1.2,3.3-3c0-1.8-1.4-3-3.3-3C40.8,171,39.5,172.2,39.5,174z"/>
<path class="st0" d="M54.6,203.1c-1.4,0.8-2.2,2-2.2,2v-13.2c1.3,8.3,5.1,11.7,12,11.7c3,0,5.3-1.7,5.3-4.1c0-2.5-1.7-4.1-7.3-5.6
	c-7.2-1.7-10-3.6-10-7.3c0-3.5,2.5-6.5,11.1-6.5c5.3,0,8.1,2.3,8.1,2.3c1.1-0.8,1.5-2.4,1.5-2.4v11.8c0-6.8-4.2-10.4-10.2-10.4
	c-3.2,0-6.3,1.2-6.3,3.3c0,2.5,4,3.5,10.1,5.3c6.1,1.8,7.6,4.3,7.6,7.9c0,3.9-3.3,7-10.7,7C60.4,205,57,204.4,54.6,203.1z"/>
<path class="st0" d="M87.2,181.9v18.9c0,3.7,2.7,3.8,2.7,3.8H79.4c0,0,2.7-0.1,2.7-3.8v-18.9h-5.7v-1.3h5.7v-5.8
	c0-3.3-2.7-3.1-2.7-3.1l7.8-0.7v9.6h5.3v1.3H87.2z"/>
<path class="st0" d="M106.3,180.2c7.7,0,10.9,5.5,10.9,10.2h-18c0,7.3,3.3,11.6,8.8,11.6c4.8,0,8-2.6,9.4-6.6
	c-0.8,5.6-5.1,9.6-10.8,9.6c-7.6,0-12.7-5-12.7-12.6C94,185.1,98.7,180.2,106.3,180.2z M111.6,189c0-0.9,0-7.5-5.3-7.5
	c-6.2,0-7,6.6-7,7.5H111.6z"/>
<path class="st0" d="M183,204.6h-12.9c0,0,4.2,0,1.7-6.5l-2.4-6.3l-16.6,6.3c-2.3,6.5,4.3,6.5,4.4,6.5h-13.5c0,0,5.3,0,7.6-6.5
	l4.5-12.6c3.6-10.1,5.2-14.5-2.3-14.5h13.2l10.4,27.3C179.6,204.6,183,204.6,183,204.6z M169,190.5l-6.9-18.2l-8.6,24.1L169,190.5z"
	/>
<path class="st0" d="M207.1,200.8c0,3.7,2.7,3.8,2.7,3.8h-7.6l-0.2-1.8l-3.8,1.1c-8.7,2.5-12.9,0.3-12.9-6v-13.5
	c0-2.9-2.7-2.8-2.7-2.8l7.8-1v17.3c0,4.7,3,6.2,9.6,4.3l2-0.6v-17.2c0-2.9-2.7-2.8-2.7-2.8l7.8-1V200.8z"/>
<path class="st0" d="M233.3,184.3c0,1.3-0.8,2.4-2.6,2.4c-1.9,0-2.8-1.2-2.7-2.4c-0.1-2.2-2.4-3.6-7.5-0.2v16.7
	c0,3.7,2.7,3.8,2.7,3.8h-10.6c0,0,2.7-0.1,2.7-3.8v-16.4c0-2.9-2.7-2.8-2.7-2.8l7.6-1l0.2,1.8v0.4l1.7-1.1
	C227.1,178.7,233.3,180.2,233.3,184.3z"/>
<path class="st0" d="M252.8,204.6L252,202l-3,1.3c-6.8,3-14.1,2-14.1-4.6c0-6,6.1-6.7,16.8-9.9c-0.2-6.6-2.4-7.4-5.2-7.4
	c-2.9,0-4.7,1.5-4.7,3.8c0,1.7-0.8,2.8-2.6,2.8c-1.9,0-2.8-1.2-2.7-2.8c0-1.7,2.2-5.1,10-5.1c7.5,0,10.4,2.8,10.4,8.5v12.2
	c0,3.7,2.7,3.8,2.7,3.8H252.8z M250.7,201.2l0.9-0.4v-10.5l-0.6,0.2c-8.1,2.3-11.4,3.5-11.4,7.5
	C239.6,202.6,244.9,203.6,250.7,201.2z"/>
<path class="st0" d="M294.3,200.8v-26c0-3.7-2.7-3.8-2.7-3.8h16.7c7.8,0,13.8,0.1,13.8,6.3c0,4.5-3.6,6.5-8.1,7
	c5.9,0,10.8,2,10.8,9.4c0,9.5-6.5,10.9-15.4,10.9h-17.8C291.6,204.6,294.3,204.5,294.3,200.8z M308.3,183.7c6.3,0,8.9-2,8.9-6
	c0-4.5-2.5-5.4-10.8-5.4h-6.9v11.4H308.3z M309.1,203.3c6.3,0,10-2.4,10-9.2c0-6-1.9-8.9-10.3-8.9h-9.4v18.1H309.1z"/>
<path class="st0" d="M327.6,192.4c0-7.3,5.5-12.2,13.1-12.2s13.1,4.9,13.1,12.2c0,7.5-5.5,12.6-13.1,12.6S327.6,199.9,327.6,192.4z
	 M348.2,192.4c0-4.2-1.2-10.8-7.4-10.8c-6.2,0-7.4,6.6-7.4,10.8c0,4.3,1.2,11.2,7.4,11.2C347,203.6,348.2,196.7,348.2,192.4z"/>
<path class="st0" d="M389.2,200.8v-12.2c0-6-2-7.8-7.7-5.8l-2.8,1c0.5,1.2,0.8,2.9,0.8,4.8v12.2c0,3.7,2.7,3.8,2.7,3.8h-10.6
	c0,0,2.7-0.1,2.7-3.8v-12.2c0-6-2-7.8-7.7-5.8l-2,0.7v17.3c0,3.7,2.7,3.8,2.7,3.8h-10.6c0,0,2.7-0.1,2.7-3.8v-16.4
	c0-2.9-2.7-2.8-2.7-2.8l7.6-1l0.2,1.7l3.9-1.2c4.5-1.5,7.9-1,9.6,1.7l5.2-1.7c6.8-2.2,11-0.1,11,7.5v12.2c0,3.7,2.7,3.8,2.7,3.8
	h-10.6C386.5,204.6,389.2,204.5,389.2,200.8z"/>
<path class="st0" d="M426.9,192c0,9.2-5.2,13-12,13c-2.8,0-5.2-0.9-7.1-2.3v0.1l-0.5,1.8h-7.3c0,0,2.7-0.1,2.7-3.8V170
	c0-2.9-2.7-2.8-2.7-2.8l7.8-1v16c1.9-1.2,4.2-2,7.1-2C421.8,180.2,426.9,184.6,426.9,192z M421.2,192c0-6.7-3.5-10.3-7.6-10.3
	c-2.4,0-4.4,0.9-5.9,2.3v17.2c1.5,1.2,3.4,2.1,5.9,2.1C418.4,203.3,421.2,199.4,421.2,192z"/>
<path class="st0" d="M430.3,192.4c0-7.3,5.5-12.2,13.1-12.2s13.1,4.9,13.1,12.2c0,7.5-5.5,12.6-13.1,12.6S430.3,199.9,430.3,192.4z
	 M450.8,192.4c0-4.2-1.2-10.8-7.4-10.8c-6.2,0-7.4,6.6-7.4,10.8c0,4.3,1.2,11.2,7.4,11.2C449.6,203.6,450.8,196.7,450.8,192.4z"/>
<path class="st0" d="M484.8,208.1c0,5.4-3.8,9.6-12.4,9.6c-8.7,0-13.1-3.4-13.1-7.9c0-3.9,3.5-5.8,4.7-6c-4.9-0.9-4.7-6.4-0.2-7.8
	c-2-1.5-3.1-3.8-3.1-6.9c0-5.9,4.7-9,10.4-9c2.7,0,5.1,0.6,6.9,1.9c2.4-3.8,4.8-3.9,5.8-3.4c1,0.5,1.5,1.4,0.9,2.5
	c-0.6,1.2-1.5,1.2-2.5,0.6c-1.2-0.6-2.2,0-3.1,1.1c1.6,1.5,2.5,3.6,2.5,6.2c0,5.7-4.1,8.8-10.4,8.8c-2.4,0-4.4-0.4-6-1.2
	c-0.6,0.2-0.9,0.6-0.9,1.3c0,1.2,2.4,2.2,10,2.2C481.3,200.4,484.8,204.3,484.8,208.1z M480.1,209.8c0-2.9-2.8-5.2-7.9-5.2
	c-1.8,0-4,0-5.8-0.2c-1.3,0.6-2.6,2.5-2.6,4.9c0,4.1,3.2,7.2,8.6,7.2C477.4,216.4,480.1,213.3,480.1,209.8z M465.7,189.2
	c0,5.1,2.1,7.5,5.4,7.5c3.3,0,5.4-2.4,5.4-7.5c0-5.3-2.1-7.6-5.4-7.6C467.9,181.6,465.7,183.9,465.7,189.2z"/>
<path class="st0" d="M499.2,180.2c7.7,0,10.9,5.5,10.9,10.2h-18c0,7.3,3.3,11.6,8.8,11.6c4.8,0,8-2.6,9.4-6.6
	c-0.8,5.6-5.1,9.6-10.8,9.6c-7.6,0-12.7-5-12.7-12.6C486.9,185.1,491.6,180.2,499.2,180.2z M504.5,189c0-0.9,0-7.5-5.3-7.5
	c-6.2,0-7,6.6-7,7.5H504.5z"/>
<path class="st0" d="M521.1,182.4l3.8-1.1c8.3-2.4,12.4-0.3,12.4,7.3v12.2c0,3.7,2.7,3.8,2.7,3.8h-10.6c0,0,2.7-0.1,2.7-3.8v-12.2
	c0-6-3-7.3-9.1-5.6l-2,0.6v17.2c0,3.7,2.7,3.8,2.7,3.8h-10.6c0,0,2.7-0.1,2.7-3.8v-16.4c0-2.9-2.7-2.8-2.7-2.8l7.6-1L521.1,182.4z"
	/>
<path class="st0" d="M555.2,180.2c7.7,0,10.9,5.5,10.9,10.2h-18c0,7.3,3.3,11.6,8.8,11.6c4.8,0,8-2.6,9.4-6.6
	c-0.8,5.6-5.1,9.6-10.8,9.6c-7.6,0-12.7-5-12.7-12.6C542.9,185.1,547.6,180.2,555.2,180.2z M560.5,189c0-0.9,0-7.5-5.3-7.5
	c-6.2,0-7,6.6-7,7.5H560.5z"/>
<path class="st0" d="M572.3,203.1c-1.4,0.8-2.2,2-2.2,2v-13.2c1.3,8.3,5.1,11.7,12,11.7c3,0,5.3-1.7,5.3-4.1c0-2.5-1.7-4.1-7.3-5.6
	c-7.2-1.7-10-3.6-10-7.3c0-3.5,2.5-6.5,11.1-6.5c5.3,0,8.1,2.3,8.1,2.3c1.1-0.8,1.5-2.4,1.5-2.4v11.8c0-6.8-4.2-10.4-10.2-10.4
	c-3.2,0-6.3,1.2-6.3,3.3c0,2.5,4,3.5,10.1,5.3c6.1,1.8,7.6,4.3,7.6,7.9c0,3.9-3.3,7-10.7,7C578.1,205,574.7,204.4,572.3,203.1z"/>
<path class="st0" d="M603.8,200.8c0,3.7,2.7,3.8,2.7,3.8H596c0,0,2.7-0.1,2.7-3.8v-16.4c0-2.9-2.7-2.8-2.7-2.8l7.8-1V200.8z
	 M597.9,174c0,1.8,1.2,3,3.1,3s3.3-1.2,3.3-3c0-1.8-1.4-3-3.3-3S597.9,172.2,597.9,174z"/>
<path class="st0" d="M613,203.1c-1.4,0.8-2.2,2-2.2,2v-13.2c1.3,8.3,5.1,11.7,12,11.7c3,0,5.3-1.7,5.3-4.1c0-2.5-1.7-4.1-7.3-5.6
	c-7.2-1.7-10-3.6-10-7.3c0-3.5,2.5-6.5,11.1-6.5c5.3,0,8.1,2.3,8.1,2.3c1.1-0.8,1.5-2.4,1.5-2.4v11.8c0-6.8-4.2-10.4-10.2-10.4
	c-3.2,0-6.3,1.2-6.3,3.3c0,2.5,4,3.5,10.1,5.3c6.1,1.8,7.6,4.3,7.6,7.9c0,3.9-3.3,7-10.7,7C618.8,205,615.4,204.4,613,203.1z"/>
<path class="st0" d="M668.2,200.8v-26c0-3.7-2.7-3.8-2.7-3.8h15.7c10.5,0,17.9,6.2,17.9,16.8c0,10.5-7.4,16.8-17.9,16.8h-15.7
	C665.5,204.6,668.2,204.5,668.2,200.8z M681.2,203.3c9.9,0,12.2-9.6,12.2-15.5c0-5.9-2.3-15.5-12.2-15.5h-7.8v30.9H681.2z"/>
<path class="st0" d="M714.2,180.2c7.7,0,10.9,5.5,10.9,10.2h-18c0,7.3,3.3,11.6,8.8,11.6c4.8,0,8-2.6,9.4-6.6
	c-0.8,5.6-5.1,9.6-10.8,9.6c-7.6,0-12.7-5-12.7-12.6C701.9,185.1,706.6,180.2,714.2,180.2z M719.5,189c0-0.9,0-7.5-5.3-7.5
	c-6.2,0-7,6.6-7,7.5H719.5z"/>
<path class="st0" d="M737.6,181.9v18.9c0,3.7,2.7,3.8,2.7,3.8h-10.6c0,0,2.7-0.1,2.7-3.8v-18.9h-5.7v-1.3h5.7v-5.8
	c0-3.3-2.7-3.1-2.7-3.1l7.8-0.7v9.6h5.3v1.3H737.6z"/>
<path class="st0" d="M744.4,192.4c0-7.3,5.5-12.2,13.1-12.2s13.1,4.9,13.1,12.2c0,7.5-5.5,12.6-13.1,12.6S744.4,199.9,744.4,192.4z
	 M764.9,192.4c0-4.2-1.2-10.8-7.4-10.8c-6.2,0-7.4,6.6-7.4,10.8c0,4.3,1.2,11.2,7.4,11.2C763.7,203.6,764.9,196.7,764.9,192.4z"/>
<path class="st0" d="M801.2,204.6h-14.1c2.1,0,3.6-0.7,1.1-4.5l-3.7-5.5l-2.3,3.4c-4,6-2.4,6.6,1.9,6.6h-13.5
	c4-0.1,6.4-1.3,10.3-7.1l2.8-4.1l-5.2-7.7l0,0l-0.1-0.1c-2.4-3.6-4.8-4.8-7.4-5H785c-2,0-3.6,0.7-1.2,4.2l3.8,5.7l2.3-3.3
	c4-6,2.4-6.6-1.9-6.6h13.5c-4,0.1-6.4,1.3-10.3,7.1l-2.8,4.1l6,8.8C796.6,203.4,798.8,204.5,801.2,204.6z"/>
<path class="st0" d="M29.9,255.6c-0.5-1.8-1.2-4.1-2-7c-1.7-6.2-6.3-5.9-6.5-5.9l-9.7,0.9v11.6c0,3.7,2.7,3.8,2.7,3.8H3.8
	c0,0,2.7-0.1,2.7-3.8v-26c0-3.7-2.7-3.8-2.7-3.8h17.5c9,0,14.1,1.4,14.1,8.1s-5.2,8.3-11,8.9v0.3c7-0.9,8.2,2.7,8.6,4.5
	c1.1,4,2,11.8,6.1,11.8H28.2C28.2,259,30.7,259,29.9,255.6z M30.1,234.1c0-4.9-1.7-7.3-8.7-7.3h-9.7v15.6l9.7-0.9
	C26.5,240.9,30.1,238.6,30.1,234.1z"/>
<path class="st0" d="M53,234.6c7.7,0,10.9,5.5,10.9,10.2H46c0,7.3,3.3,11.6,8.8,11.6c4.8,0,8-2.6,9.4-6.6c-0.8,5.6-5.1,9.6-10.8,9.6
	c-7.6,0-12.7-5-12.7-12.6C40.7,239.5,45.4,234.6,53,234.6z M58.3,243.4c0-0.9,0-7.5-5.3-7.5c-6.2,0-7,6.6-7,7.5H58.3z"/>
<path class="st0" d="M67,246.8c0-7.3,5.5-12.2,13.1-12.2c2.8,0,5.4,1.1,7.6,2.3c0.8,0,1.7-0.8,2.2-2.1l-0.2,10.9
	c-0.6-5.2-3.8-9.8-9.9-9.7c-3.7,0-7.4,3.6-7.3,10.3c0,5.7,3.5,10.2,8.9,10.2c4.8,0,8.1-2.7,9.5-6.7c-0.8,5.6-5.3,9.6-10.9,9.6
	C72.2,259.4,67,254.3,67,246.8z"/>
<path class="st0" d="M93.6,246.8c0-7.3,5.5-12.2,13.1-12.2c7.6,0,13.1,4.9,13.1,12.2c0,7.5-5.5,12.6-13.1,12.6
	C99.1,259.4,93.6,254.3,93.6,246.8z M114.2,246.8c0-4.2-1.2-10.8-7.4-10.8c-6.2,0-7.4,6.6-7.4,10.8c0,4.3,1.2,11.2,7.4,11.2
	C113,258,114.2,251.1,114.2,246.8z"/>
<path class="st0" d="M130.6,236.8l3.8-1.1c8.3-2.4,12.4-0.3,12.4,7.3v12.2c0,3.7,2.7,3.8,2.7,3.8H139c0,0,2.7-0.1,2.7-3.8V243
	c0-6-3-7.3-9.1-5.6l-2,0.6v17.2c0,3.7,2.7,3.8,2.7,3.8h-10.6c0,0,2.7-0.1,2.7-3.8v-16.4c0-2.9-2.7-2.8-2.7-2.8l7.6-1L130.6,236.8z"
	/>
<path class="st0" d="M155.5,257.5c-1.4,0.8-2.2,2-2.2,2v-13.2c1.3,8.3,5.1,11.7,12,11.7c3,0,5.3-1.7,5.3-4.1c0-2.5-1.7-4.1-7.3-5.6
	c-7.2-1.7-10-3.6-10-7.3c0-3.5,2.5-6.5,11.1-6.5c5.3,0,8.1,2.3,8.1,2.3c1.1-0.8,1.5-2.4,1.5-2.4v11.8c0-6.8-4.2-10.4-10.2-10.4
	c-3.2,0-6.3,1.2-6.3,3.3c0,2.5,4,3.5,10.1,5.3c6.1,1.8,7.6,4.3,7.6,7.9c0,3.9-3.3,7-10.7,7C161.3,259.4,157.9,258.8,155.5,257.5z"/>
<path class="st0" d="M188.1,236.3v18.9c0,3.7,2.7,3.8,2.7,3.8h-10.6c0,0,2.7-0.1,2.7-3.8v-18.9h-5.7V235h5.7v-5.8
	c0-3.3-2.7-3.1-2.7-3.1l7.8-0.7v9.6h5.3v1.3H188.1z"/>
<path class="st0" d="M215.6,238.7c0,1.3-0.8,2.4-2.6,2.4c-1.9,0-2.8-1.2-2.7-2.4c-0.1-2.2-2.4-3.6-7.5-0.2v16.7
	c0,3.7,2.7,3.8,2.7,3.8h-10.6c0,0,2.7-0.1,2.7-3.8v-16.4c0-2.9-2.7-2.8-2.7-2.8l7.6-1l0.2,1.8v0.4l1.7-1.1
	C209.3,233.1,215.6,234.6,215.6,238.7z"/>
<path class="st0" d="M241.3,255.2c0,3.7,2.7,3.8,2.7,3.8h-7.6l-0.2-1.8l-3.8,1.1c-8.7,2.5-12.9,0.3-12.9-6v-13.5
	c0-2.9-2.7-2.8-2.7-2.8l7.8-1v17.3c0,4.7,3,6.2,9.6,4.3l2-0.6v-17.2c0-2.9-2.7-2.8-2.7-2.8l7.8-1V255.2z"/>
<path class="st0" d="M246.9,246.8c0-7.3,5.5-12.2,13.1-12.2c2.8,0,5.4,1.1,7.6,2.3c0.8,0,1.7-0.8,2.2-2.1l-0.2,10.9
	c-0.6-5.2-3.8-9.8-9.9-9.7c-3.7,0-7.4,3.6-7.3,10.3c0,5.7,3.5,10.2,8.9,10.2c4.8,0,8.1-2.7,9.5-6.7c-0.8,5.6-5.3,9.6-10.9,9.6
	C252.1,259.4,246.9,254.3,246.9,246.8z"/>
<path class="st0" d="M283,236.3v18.9c0,3.7,2.7,3.8,2.7,3.8h-10.6c0,0,2.7-0.1,2.7-3.8v-18.9h-5.7V235h5.7v-5.8
	c0-3.3-2.7-3.1-2.7-3.1l7.8-0.7v9.6h5.3v1.3H283z"/>
<path class="st0" d="M323,225.4l25.1,26.1v-19.6c0-6.3-4.6-6.5-4.6-6.5h10.2c0,0-4.3,0.1-4.3,6.5v23.3c0,3.7,1.3,3.8,1.3,3.8h-2.7
	L323,232.9v19.6c0,6.3,4.7,6.5,4.7,6.5h-10.1c0,0,4-0.2,4-6.5v-20.9c0,0,0-6.2-4.1-6.2H323z"/>
<path class="st0" d="M355.7,246.8c0-7.3,5.5-12.2,13.1-12.2s13.1,4.9,13.1,12.2c0,7.5-5.5,12.6-13.1,12.6S355.7,254.3,355.7,246.8z
	 M376.3,246.8c0-4.2-1.2-10.8-7.4-10.8c-6.2,0-7.4,6.6-7.4,10.8c0,4.3,1.2,11.2,7.4,11.2C375.1,258,376.3,251.1,376.3,246.8z"/>
<path class="st0" d="M417.9,257.1c-1.9,1.1-2.8,2.7-2.8,2.7V242c0.2,6.7,4.1,16.5,14.1,16.5c6.6,0,9.2-2.2,9.2-6.5
	c0-3.7-3.9-6.1-10.8-8c-8.3-2.3-12.5-5.4-12.5-10.5c0-4.6,3.9-8.7,14.4-8.7c3.6,0,7.2,1,10,2.8c1.7-0.5,2.1-2.9,2.1-2.9v16.6
	c-1.5-11.6-6.6-15.2-12.1-15.2c-5.5,0-9.8,1.7-9.8,5.5c0,3.4,2.6,4.4,14,8.1c7.2,2.3,9.6,6.8,9.6,10.7c0,6.4-5.1,9.5-14.1,9.5
	C425.3,259.9,421.1,258.9,417.9,257.1z"/>
<path class="st0" d="M465.3,259l-0.8-2.6l-3,1.3c-6.8,3-14.1,2-14.1-4.6c0-6,6.1-6.7,16.8-9.9c-0.2-6.6-2.4-7.4-5.2-7.4
	c-2.9,0-4.7,1.5-4.7,3.8c0,1.7-0.8,2.8-2.6,2.8c-1.9,0-2.8-1.2-2.7-2.8c0-1.7,2.2-5.1,10-5.1c7.5,0,10.4,2.8,10.4,8.5v12.2
	c0,3.7,2.7,3.8,2.7,3.8H465.3z M463.2,255.6l0.9-0.4v-10.5l-0.6,0.2c-8.1,2.3-11.4,3.5-11.4,7.5C452.2,257,457.4,258,463.2,255.6z"
	/>
<path class="st0" d="M478,257.5c-1.4,0.8-2.2,2-2.2,2v-13.2c1.3,8.3,5.1,11.7,12,11.7c3,0,5.3-1.7,5.3-4.1c0-2.5-1.7-4.1-7.3-5.6
	c-7.2-1.7-10-3.6-10-7.3c0-3.5,2.5-6.5,11.1-6.5c5.3,0,8.1,2.3,8.1,2.3c1.1-0.8,1.5-2.4,1.5-2.4v11.8c0-6.8-4.2-10.4-10.2-10.4
	c-3.2,0-6.3,1.2-6.3,3.3c0,2.5,4,3.5,10.1,5.3c6.1,1.8,7.6,4.3,7.6,7.9c0,3.9-3.3,7-10.7,7C483.8,259.4,480.3,258.8,478,257.5z"/>
<path class="st0" d="M504.3,257.5c-1.4,0.8-2.2,2-2.2,2v-13.2c1.3,8.3,5.1,11.7,12,11.7c3,0,5.3-1.7,5.3-4.1c0-2.5-1.7-4.1-7.3-5.6
	c-7.2-1.7-10-3.6-10-7.3c0-3.5,2.5-6.5,11.1-6.5c5.3,0,8.1,2.3,8.1,2.3c1.1-0.8,1.5-2.4,1.5-2.4v11.8c0-6.8-4.2-10.4-10.2-10.4
	c-3.2,0-6.3,1.2-6.3,3.3c0,2.5,4,3.5,10.1,5.3c6.1,1.8,7.6,4.3,7.6,7.9c0,3.9-3.3,7-10.7,7C510.1,259.4,506.6,258.8,504.3,257.5z"/>
<path class="st0" d="M560.6,257.1c-1.9,1.1-2.8,2.7-2.8,2.7V242c0.2,6.7,4.1,16.5,14.1,16.5c6.6,0,9.2-2.2,9.2-6.5
	c0-3.7-3.9-6.1-10.8-8c-8.3-2.3-12.5-5.4-12.5-10.5c0-4.6,3.9-8.7,14.4-8.7c3.6,0,7.2,1,10,2.8c1.7-0.5,2.1-2.9,2.1-2.9v16.6
	c-1.5-11.6-6.6-15.2-12.1-15.2c-5.5,0-9.8,1.7-9.8,5.5c0,3.4,2.6,4.4,14,8.1c7.2,2.3,9.6,6.8,9.6,10.7c0,6.4-5.1,9.5-14.1,9.5
	C567.9,259.9,563.8,258.9,560.6,257.1z"/>
<path class="st0" d="M599.2,236.3v18.9c0,3.7,2.7,3.8,2.7,3.8h-10.6c0,0,2.7-0.1,2.7-3.8v-18.9h-5.7V235h5.7v-5.8
	c0-3.3-2.7-3.1-2.7-3.1l7.8-0.7v9.6h5.3v1.3H599.2z"/>
<path class="st0" d="M624.1,259l-0.8-2.6l-3,1.3c-6.8,3-14.1,2-14.1-4.6c0-6,6.1-6.7,16.8-9.9c-0.2-6.6-2.4-7.4-5.2-7.4
	c-2.9,0-4.7,1.5-4.7,3.8c0,1.7-0.8,2.8-2.6,2.8c-1.9,0-2.8-1.2-2.7-2.8c0-1.7,2.2-5.1,10-5.1c7.5,0,10.4,2.8,10.4,8.5v12.2
	c0,3.7,2.7,3.8,2.7,3.8H624.1z M622.1,255.6l0.9-0.4v-10.5l-0.6,0.2c-8.1,2.3-11.4,3.5-11.4,7.5C611,257,616.3,258,622.1,255.6z"/>
<path class="st0" d="M643.1,236.3v18.9c0,3.7,2.7,3.8,2.7,3.8h-10.6c0,0,2.7-0.1,2.7-3.8v-18.9h-5.7V235h5.7v-5.8
	c0-3.3-2.7-3.1-2.7-3.1l7.8-0.7v9.6h5.3v1.3H643.1z"/>
<path class="st0" d="M658.2,255.2c0,3.7,2.7,3.8,2.7,3.8h-10.6c0,0,2.7-0.1,2.7-3.8v-16.4c0-2.9-2.7-2.8-2.7-2.8l7.8-1V255.2z
	 M652.3,228.4c0,1.8,1.2,3,3.1,3s3.3-1.2,3.3-3c0-1.8-1.4-3-3.3-3S652.3,226.6,652.3,228.4z"/>
<path class="st0" d="M664.3,246.8c0-7.3,5.5-12.2,13.1-12.2c2.8,0,5.4,1.1,7.6,2.3c0.8,0,1.7-0.8,2.2-2.1l-0.2,10.9
	c-0.6-5.2-3.8-9.8-9.9-9.7c-3.7,0-7.4,3.6-7.3,10.3c0,5.7,3.5,10.2,8.9,10.2c4.8,0,8.1-2.7,9.5-6.7c-0.8,5.6-5.3,9.6-10.9,9.6
	C669.5,259.4,664.3,254.3,664.3,246.8z"/>
<path class="st0" d="M753.6,259h-12.9c0,0,4.2,0,1.7-6.5l-2.4-6.3l-16.6,6.3c-2.3,6.5,4.3,6.5,4.4,6.5h-13.5c0,0,5.3,0,7.6-6.5
	l4.5-12.6c3.6-10.1,5.2-14.5-2.3-14.5h13.2l10.4,27.3C750.2,259,753.6,259,753.6,259z M739.6,244.9l-6.9-18.2l-8.6,24.1L739.6,244.9
	z"/>
<path class="st0" d="M762.6,236.3v18.9c0,3.7,2.7,3.8,2.7,3.8h-10.6c0,0,2.7-0.1,2.7-3.8v-18.9h-5.7V235h5.7v-5.8
	c0-3.3-2.7-3.1-2.7-3.1l7.8-0.7v9.6h5.3v1.3H762.6z"/>
<path class="st0" d="M12.8,290.7v18.9c0,3.7,2.7,3.8,2.7,3.8H4.9c0,0,2.7-0.1,2.7-3.8v-18.9H1.9v-1.3h5.7v-5.8
	c0-3.3-2.7-3.1-2.7-3.1l7.8-0.7v9.6h5.3v1.3H12.8z"/>
<path class="st0" d="M27.4,291.2l3.8-1.1c8.3-2.4,12.4-0.3,12.4,7.3v12.2c0,3.7,2.7,3.8,2.7,3.8H35.8c0,0,2.7-0.1,2.7-3.8v-12.2
	c0-6-3-7.3-9.1-5.6l-2,0.6v17.2c0,3.7,2.7,3.8,2.7,3.8H19.5c0,0,2.7-0.1,2.7-3.8v-29.8c0-3.3-2.7-3.1-2.7-3.1l7.8-0.7V291.2z"/>
<path class="st0" d="M61,289c7.7,0,10.9,5.5,10.9,10.2H54c0,7.3,3.3,11.6,8.8,11.6c4.8,0,8-2.6,9.4-6.6c-0.8,5.6-5.1,9.6-10.8,9.6
	c-7.6,0-12.7-5-12.7-12.6C48.7,293.9,53.4,289,61,289z M66.3,297.8c0-0.9,0-7.5-5.3-7.5c-6.2,0-7,6.6-7,7.5H66.3z"/>
<path class="st0" d="M108.1,311.5c-1.9,1.1-2.8,2.7-2.8,2.7v-17.8c0.2,6.7,4.1,16.5,14.1,16.5c6.6,0,9.2-2.2,9.2-6.5
	c0-3.7-3.9-6.1-10.8-8c-8.3-2.3-12.5-5.4-12.5-10.5c0-4.6,3.9-8.7,14.4-8.7c3.6,0,7.2,1,10,2.8c1.7-0.5,2.1-2.9,2.1-2.9v16.6
	c-1.5-11.6-6.6-15.2-12.1-15.2c-5.5,0-9.8,1.7-9.8,5.5c0,3.4,2.6,4.4,14,8.1c7.2,2.3,9.6,6.8,9.6,10.7c0,6.4-5.1,9.5-14.1,9.5
	C115.5,314.3,111.3,313.3,108.1,311.5z"/>
<path class="st0" d="M161.9,309.6c0,3.7,2.7,3.8,2.7,3.8H157l-0.2-1.8l-3.8,1.1c-8.7,2.5-12.9,0.3-12.9-6v-13.5
	c0-2.9-2.7-2.8-2.7-2.8l7.8-1v17.3c0,4.7,3,6.2,9.6,4.3l2-0.6v-17.2c0-2.9-2.7-2.8-2.7-2.8l7.8-1V309.6z"/>
<path class="st0" d="M199.9,309.6v-12.2c0-6-2-7.8-7.7-5.8l-2.8,1c0.5,1.2,0.8,2.9,0.8,4.8v12.2c0,3.7,2.7,3.8,2.7,3.8h-10.6
	c0,0,2.7-0.1,2.7-3.8v-12.2c0-6-2-7.8-7.7-5.8l-2,0.7v17.3c0,3.7,2.7,3.8,2.7,3.8h-10.6c0,0,2.7-0.1,2.7-3.8v-16.4
	c0-2.9-2.7-2.8-2.7-2.8l7.6-1l0.2,1.7l3.9-1.2c4.5-1.5,7.9-1,9.6,1.7l5.2-1.7c6.8-2.2,11-0.1,11,7.5v12.2c0,3.7,2.7,3.8,2.7,3.8
	h-10.6C197.2,313.4,199.9,313.3,199.9,309.6z"/>
<path class="st0" d="M243.1,309.6v-12.2c0-6-2-7.8-7.7-5.8l-2.8,1c0.5,1.2,0.8,2.9,0.8,4.8v12.2c0,3.7,2.7,3.8,2.7,3.8h-10.6
	c0,0,2.7-0.1,2.7-3.8v-12.2c0-6-2-7.8-7.7-5.8l-2,0.7v17.3c0,3.7,2.7,3.8,2.7,3.8h-10.6c0,0,2.7-0.1,2.7-3.8v-16.4
	c0-2.9-2.7-2.8-2.7-2.8l7.6-1l0.2,1.7l3.9-1.2c4.5-1.5,7.9-1,9.6,1.7l5.2-1.7c6.8-2.2,11-0.1,11,7.5v12.2c0,3.7,2.7,3.8,2.7,3.8
	h-10.6C240.4,313.4,243.1,313.3,243.1,309.6z"/>
<path class="st0" d="M262.1,309.6c0,3.7,2.7,3.8,2.7,3.8h-10.6c0,0,2.7-0.1,2.7-3.8v-16.4c0-2.9-2.7-2.8-2.7-2.8l7.8-1V309.6z
	 M256.2,282.8c0,1.8,1.2,3,3.1,3c1.9,0,3.3-1.2,3.3-3c0-1.8-1.4-3-3.3-3C257.5,279.8,256.2,281,256.2,282.8z"/>
<path class="st0" d="M277.6,290.7v18.9c0,3.7,2.7,3.8,2.7,3.8h-10.6c0,0,2.7-0.1,2.7-3.8v-18.9h-5.7v-1.3h5.7v-5.8
	c0-3.3-2.7-3.1-2.7-3.1l7.8-0.7v9.6h5.3v1.3H277.6z"/>
<path class="st0" d="M343.6,289.4c0,0-1.4-8.3-7.3-8.3h-6v28.5c0,3.7,2.7,3.8,2.7,3.8h-10.6c0,0,2.7-0.1,2.7-3.8v-28.5h-5.7
	c-5.9,0-7.3,8.3-7.3,8.3l0.5-9.6h30.3L343.6,289.4z"/>
<path class="st0" d="M353.4,291.2l3.8-1.1c8.3-2.4,12.4-0.3,12.4,7.3v12.2c0,3.7,2.7,3.8,2.7,3.8h-10.6c0,0,2.7-0.1,2.7-3.8v-12.2
	c0-6-3-7.3-9.1-5.6l-2,0.6v17.2c0,3.7,2.7,3.8,2.7,3.8h-10.6c0,0,2.7-0.1,2.7-3.8v-29.8c0-3.3-2.7-3.1-2.7-3.1l7.8-0.7V291.2z"/>
<path class="st0" d="M387,289c7.7,0,10.9,5.5,10.9,10.2h-18c0,7.3,3.3,11.6,8.8,11.6c4.8,0,8-2.6,9.4-6.6c-0.8,5.6-5.1,9.6-10.8,9.6
	c-7.6,0-12.7-5-12.7-12.6C374.7,293.9,379.4,289,387,289z M392.3,297.8c0-0.9,0-7.5-5.3-7.5c-6.2,0-7,6.6-7,7.5H392.3z"/>
<path class="st0" d="M404.2,311.9c-1.4,0.8-2.2,2-2.2,2v-13.2c1.3,8.3,5.1,11.7,12,11.7c3,0,5.3-1.7,5.3-4.1c0-2.5-1.7-4.1-7.3-5.6
	c-7.2-1.7-10-3.6-10-7.3c0-3.5,2.5-6.5,11.1-6.5c5.3,0,8.1,2.3,8.1,2.3c1.1-0.8,1.5-2.4,1.5-2.4v11.8c0-6.8-4.2-10.4-10.2-10.4
	c-3.2,0-6.3,1.2-6.3,3.3c0,2.5,4,3.5,10.1,5.3c6.1,1.8,7.6,4.3,7.6,7.9c0,3.9-3.3,7-10.7,7C410,313.8,406.5,313.2,404.2,311.9z"/>
<path class="st0" d="M439.6,289c7.7,0,10.9,5.5,10.9,10.2h-18c0,7.3,3.3,11.6,8.8,11.6c4.8,0,8-2.6,9.4-6.6
	c-0.8,5.6-5.1,9.6-10.8,9.6c-7.6,0-12.7-5-12.7-12.6C427.3,293.9,432,289,439.6,289z M445,297.8c0-0.9,0-7.5-5.3-7.5
	c-6.2,0-7,6.6-7,7.5H445z"/>
<path class="st0" d="M509.6,291.2v11.6c0,0-0.1-5.1-7.4-5.1h-10v12c0,3.7,2.7,3.8,2.7,3.8h-10.6c0,0,2.7-0.1,2.7-3.8v-25.1
	c0,0,0-4.8-4-4.8h28.7l1.1,7.9c0,0-1.8-6.5-8.4-6.5h-12.1v15.1l10,0C509.5,296.4,509.6,291.2,509.6,291.2z"/>
<path class="st0" d="M534.8,293.1c0,1.3-0.8,2.4-2.6,2.4c-1.9,0-2.8-1.2-2.7-2.4c-0.1-2.2-2.4-3.6-7.5-0.2v16.7
	c0,3.7,2.7,3.8,2.7,3.8h-10.6c0,0,2.7-0.1,2.7-3.8v-16.4c0-2.9-2.7-2.8-2.7-2.8l7.6-1l0.2,1.8v0.4l1.7-1.1
	C528.6,287.5,534.8,289,534.8,293.1z"/>
<path class="st0" d="M560.6,309.6c0,3.7,2.7,3.8,2.7,3.8h-7.6l-0.2-1.8l-3.8,1.1c-8.7,2.5-12.9,0.3-12.9-6v-13.5
	c0-2.9-2.7-2.8-2.7-2.8l7.8-1v17.3c0,4.7,3,6.2,9.6,4.3l2-0.6v-17.2c0-2.9-2.7-2.8-2.7-2.8l7.8-1V309.6z"/>
<path class="st0" d="M574.5,309.6c0,3.7,2.7,3.8,2.7,3.8h-10.6c0,0,2.7-0.1,2.7-3.8v-16.4c0-2.9-2.7-2.8-2.7-2.8l7.8-1V309.6z
	 M568.6,282.8c0,1.8,1.2,3,3.1,3s3.3-1.2,3.3-3c0-1.8-1.4-3-3.3-3S568.6,281,568.6,282.8z"/>
<path class="st0" d="M590,290.7v18.9c0,3.7,2.7,3.8,2.7,3.8h-10.6c0,0,2.7-0.1,2.7-3.8v-18.9h-5.7v-1.3h5.7v-5.8
	c0-3.3-2.7-3.1-2.7-3.1l7.8-0.7v9.6h5.3v1.3H590z"/>
<path class="st0" d="M599.9,311.9c-1.4,0.8-2.2,2-2.2,2v-13.2c1.3,8.3,5.1,11.7,12,11.7c3,0,5.3-1.7,5.3-4.1c0-2.5-1.7-4.1-7.3-5.6
	c-7.2-1.7-10-3.6-10-7.3c0-3.5,2.5-6.5,11.1-6.5c5.3,0,8.1,2.3,8.1,2.3c1.1-0.8,1.5-2.4,1.5-2.4v11.8c0-6.8-4.2-10.4-10.2-10.4
	c-3.2,0-6.3,1.2-6.3,3.3c0,2.5,4,3.5,10.1,5.3c6.1,1.8,7.6,4.3,7.6,7.9c0,3.9-3.3,7-10.7,7C605.7,313.8,602.2,313.2,599.9,311.9z"/>
<path class="st0" d="M682.3,289.4c0,0-1.4-8.3-7.3-8.3h-6v28.5c0,3.7,2.7,3.8,2.7,3.8h-10.6c0,0,2.7-0.1,2.7-3.8v-28.5h-5.7
	c-5.9,0-7.3,8.3-7.3,8.3l0.5-9.6h30.3L682.3,289.4z"/>
<path class="st0" d="M692.1,291.2l3.8-1.1c8.3-2.4,12.4-0.3,12.4,7.3v12.2c0,3.7,2.7,3.8,2.7,3.8h-10.6c0,0,2.7-0.1,2.7-3.8v-12.2
	c0-6-3-7.3-9.1-5.6l-2,0.6v17.2c0,3.7,2.7,3.8,2.7,3.8h-10.6c0,0,2.7-0.1,2.7-3.8v-29.8c0-3.3-2.7-3.1-2.7-3.1l7.8-0.7V291.2z"/>
<path class="st0" d="M725.7,289c7.7,0,10.9,5.5,10.9,10.2h-18c0,7.3,3.3,11.6,8.8,11.6c4.8,0,8-2.6,9.4-6.6
	c-0.8,5.6-5.1,9.6-10.8,9.6c-7.6,0-12.7-5-12.7-12.6C713.4,293.9,718.1,289,725.7,289z M731,297.8c0-0.9,0-7.5-5.3-7.5
	c-6.2,0-7,6.6-7,7.5H731z"/>
<path class="st0" d="M742.8,311.9c-1.4,0.8-2.2,2-2.2,2v-13.2c1.3,8.3,5.1,11.7,12,11.7c3,0,5.3-1.7,5.3-4.1c0-2.5-1.7-4.1-7.3-5.6
	c-7.2-1.7-10-3.6-10-7.3c0-3.5,2.5-6.5,11.1-6.5c5.3,0,8.1,2.3,8.1,2.3c1.1-0.8,1.5-2.4,1.5-2.4v11.8c0-6.8-4.2-10.4-10.2-10.4
	c-3.2,0-6.3,1.2-6.3,3.3c0,2.5,4,3.5,10.1,5.3c6.1,1.8,7.6,4.3,7.6,7.9c0,3.9-3.3,7-10.7,7C748.6,313.8,745.1,313.2,742.8,311.9z"/>
<path class="st0" d="M778.3,289c7.7,0,10.9,5.5,10.9,10.2h-18c0,7.3,3.3,11.6,8.8,11.6c4.8,0,8-2.6,9.4-6.6
	c-0.8,5.6-5.1,9.6-10.8,9.6c-7.6,0-12.7-5-12.7-12.6C766,293.9,770.7,289,778.3,289z M783.6,297.8c0-0.9,0-7.5-5.3-7.5
	c-6.2,0-7,6.6-7,7.5H783.6z"/>
<path class="st0" d="M36.3,334.2c0,0-3.5,0-5.8,6.5l-9.6,27.1h-5.4L4,337.8c-0.9-2.1-2.8-3.6-4-3.6h10.6c0,0-2.2,0.6-1.1,3.6
	l10.6,28l8.9-25.1c2.3-6.5-1.9-6.5-1.9-6.5H36.3z"/>
<path class="st0" d="M45.6,343.4c7.7,0,10.9,5.5,10.9,10.2h-18c0,7.3,3.3,11.6,8.8,11.6c4.8,0,8-2.6,9.4-6.6
	c-0.8,5.6-5.1,9.6-10.8,9.6c-7.6,0-12.7-5-12.7-12.6C33.3,348.3,38,343.4,45.6,343.4z M50.9,352.2c0-0.9,0-7.5-5.3-7.5
	c-6.2,0-7,6.6-7,7.5H50.9z"/>
<path class="st0" d="M85.1,371.3c0,5.4-3.8,9.6-12.4,9.6c-8.7,0-13.1-3.4-13.1-7.9c0-3.9,3.5-5.8,4.7-6c-4.9-0.9-4.7-6.4-0.2-7.8
	c-2-1.5-3.1-3.8-3.1-6.9c0-5.9,4.7-9,10.4-9c2.7,0,5.1,0.6,6.9,1.9c2.4-3.8,4.8-3.9,5.8-3.4c1,0.5,1.5,1.4,0.9,2.5s-1.5,1.2-2.5,0.6
	c-1.2-0.6-2.2,0-3.1,1.1c1.6,1.5,2.5,3.6,2.5,6.2c0,5.7-4.1,8.8-10.4,8.8c-2.4,0-4.4-0.4-6-1.2c-0.6,0.2-0.9,0.6-0.9,1.3
	c0,1.2,2.4,2.2,10,2.2C81.6,363.6,85.1,367.5,85.1,371.3z M80.4,373c0-2.9-2.8-5.2-7.9-5.2c-1.8,0-4,0-5.8-0.2
	c-1.3,0.6-2.6,2.5-2.6,4.9c0,4.1,3.2,7.2,8.6,7.2C77.7,379.6,80.4,376.5,80.4,373z M66,352.4c0,5.1,2.1,7.5,5.4,7.5
	c3.3,0,5.4-2.4,5.4-7.5c0-5.3-2.1-7.6-5.4-7.6C68.2,344.8,66,347.1,66,352.4z"/>
<path class="st0" d="M99.5,343.4c7.7,0,10.9,5.5,10.9,10.2h-18c0,7.3,3.3,11.6,8.8,11.6c4.8,0,8-2.6,9.4-6.6
	c-0.8,5.6-5.1,9.6-10.8,9.6c-7.6,0-12.7-5-12.7-12.6C87.2,348.3,91.9,343.4,99.5,343.4z M104.8,352.2c0-0.9,0-7.5-5.3-7.5
	c-6.2,0-7,6.6-7,7.5H104.8z"/>
<path class="st0" d="M122.9,345.1V364c0,3.7,2.7,3.8,2.7,3.8h-10.6c0,0,2.7-0.1,2.7-3.8v-18.9H112v-1.3h5.7V338
	c0-3.3-2.7-3.1-2.7-3.1l7.8-0.7v9.6h5.3v1.3H122.9z"/>
<path class="st0" d="M147.9,367.8l-0.8-2.6l-3,1.3c-6.8,3-14.1,2-14.1-4.6c0-6,6.1-6.7,16.8-9.9c-0.2-6.6-2.4-7.4-5.2-7.4
	c-2.9,0-4.7,1.5-4.7,3.8c0,1.7-0.8,2.8-2.6,2.8c-1.9,0-2.8-1.2-2.7-2.8c0-1.7,2.2-5.1,10-5.1c7.5,0,10.4,2.8,10.4,8.5V364
	c0,3.7,2.7,3.8,2.7,3.8H147.9z M145.8,364.4l0.9-0.4v-10.5l-0.6,0.2c-8.1,2.3-11.4,3.5-11.4,7.5C134.7,365.8,140,366.8,145.8,364.4z
	"/>
<path class="st0" d="M184.4,355.2c0,9.2-5.2,13-12,13c-2.8,0-5.2-0.9-7.1-2.3v0.1l-0.5,1.8h-7.3c0,0,2.7-0.1,2.7-3.8v-30.8
	c0-2.9-2.7-2.8-2.7-2.8l7.8-1v16c1.9-1.2,4.2-2,7.1-2C179.3,343.4,184.4,347.8,184.4,355.2z M178.7,355.2c0-6.7-3.5-10.3-7.6-10.3
	c-2.4,0-4.4,0.9-5.9,2.3v17.2c1.5,1.2,3.4,2.1,5.9,2.1C175.8,366.5,178.7,362.6,178.7,355.2z"/>
<path class="st0" d="M196,364c0,3.7,2.7,3.8,2.7,3.8h-10.6c0,0,2.7-0.1,2.7-3.8v-29.8c0-3.3-2.7-3.1-2.7-3.1l7.8-0.7V364z"/>
<path class="st0" d="M214.4,343.4c7.7,0,10.9,5.5,10.9,10.2h-18c0,7.3,3.3,11.6,8.8,11.6c4.8,0,8-2.6,9.4-6.6
	c-0.8,5.6-5.1,9.6-10.8,9.6c-7.6,0-12.7-5-12.7-12.6C202.1,348.3,206.8,343.4,214.4,343.4z M219.8,352.2c0-0.9,0-7.5-5.3-7.5
	c-6.2,0-7,6.6-7,7.5H219.8z"/>
<path class="st0" d="M231.6,366.3c-1.4,0.8-2.2,2-2.2,2v-13.2c1.3,8.3,5.1,11.7,12,11.7c3,0,5.3-1.7,5.3-4.1c0-2.5-1.7-4.1-7.3-5.6
	c-7.2-1.7-10-3.6-10-7.3c0-3.5,2.5-6.5,11.1-6.5c5.3,0,8.1,2.3,8.1,2.3c1.1-0.8,1.5-2.4,1.5-2.4v11.8c0-6.8-4.2-10.4-10.2-10.4
	c-3.2,0-6.3,1.2-6.3,3.3c0,2.5,4,3.5,10.1,5.3c6.1,1.8,7.6,4.3,7.6,7.9c0,3.9-3.3,7-10.7,7C237.4,368.2,233.9,367.6,231.6,366.3z"/>
<path class="st0" d="M291.8,338v26c0,3.7,2.7,3.8,2.7,3.8H284c0,0,2.7-0.1,2.7-3.8v-26c0-3.7-2.7-3.8-2.7-3.8h10.6
	C294.6,334.2,291.8,334.3,291.8,338z"/>
<path class="st0" d="M306.2,364c0,3.7,2.7,3.8,2.7,3.8h-10.6c0,0,2.7-0.1,2.7-3.8v-29.8c0-3.3-2.7-3.1-2.7-3.1l7.8-0.7V364z"/>
<path class="st0" d="M320.6,364c0,3.7,2.7,3.8,2.7,3.8h-10.6c0,0,2.7-0.1,2.7-3.8v-29.8c0-3.3-2.7-3.1-2.7-3.1l7.8-0.7V364z"/>
<path class="st0" d="M351.3,364c0,3.7,2.7,3.8,2.7,3.8h-7.6l-0.2-1.8l-3.8,1.1c-8.7,2.5-12.9,0.3-12.9-6v-13.5
	c0-2.9-2.7-2.8-2.7-2.8l7.8-1v17.3c0,4.7,3,6.2,9.6,4.3l2-0.6v-17.2c0-2.9-2.7-2.8-2.7-2.8l7.8-1V364z"/>
<path class="st0" d="M360,366.3c-1.4,0.8-2.2,2-2.2,2v-13.2c1.3,8.3,5.1,11.7,12,11.7c3,0,5.3-1.7,5.3-4.1c0-2.5-1.7-4.1-7.3-5.6
	c-7.2-1.7-10-3.6-10-7.3c0-3.5,2.5-6.5,11.1-6.5c5.3,0,8.1,2.3,8.1,2.3c1.1-0.8,1.5-2.4,1.5-2.4v11.8c0-6.8-4.2-10.4-10.2-10.4
	c-3.2,0-6.3,1.2-6.3,3.3c0,2.5,4,3.5,10.1,5.3c6.1,1.8,7.6,4.3,7.6,7.9c0,3.9-3.3,7-10.7,7C365.8,368.2,362.3,367.6,360,366.3z"/>
<path class="st0" d="M391.4,364c0,3.7,2.7,3.8,2.7,3.8h-10.6c0,0,2.7-0.1,2.7-3.8v-16.4c0-2.9-2.7-2.8-2.7-2.8l7.8-1V364z
	 M385.5,337.2c0,1.8,1.2,3,3.1,3s3.3-1.2,3.3-3c0-1.8-1.4-3-3.3-3S385.5,335.4,385.5,337.2z"/>
<path class="st0" d="M397.5,355.6c0-7.3,5.5-12.2,13.1-12.2s13.1,4.9,13.1,12.2c0,7.5-5.5,12.6-13.1,12.6S397.5,363.1,397.5,355.6z
	 M418.1,355.6c0-4.2-1.2-10.8-7.4-10.8c-6.2,0-7.4,6.6-7.4,10.8c0,4.3,1.2,11.2,7.4,11.2C416.9,366.8,418.1,359.9,418.1,355.6z"/>
<path class="st0" d="M434.5,345.6l3.8-1.1c8.3-2.4,12.4-0.3,12.4,7.3V364c0,3.7,2.7,3.8,2.7,3.8h-10.6c0,0,2.7-0.1,2.7-3.8v-12.2
	c0-6-3-7.3-9.1-5.6l-2,0.6V364c0,3.7,2.7,3.8,2.7,3.8h-10.6c0,0,2.7-0.1,2.7-3.8v-16.4c0-2.9-2.7-2.8-2.7-2.8l7.6-1L434.5,345.6z"/>
<path class="st0" d="M485.1,355.6c0-7.3,5.5-12.2,13.1-12.2c7.6,0,13.1,4.9,13.1,12.2c0,7.5-5.5,12.6-13.1,12.6
	C490.6,368.2,485.1,363.1,485.1,355.6z M505.6,355.6c0-4.2-1.2-10.8-7.4-10.8c-6.2,0-7.4,6.6-7.4,10.8c0,4.3,1.2,11.2,7.4,11.2
	C504.4,366.8,505.6,359.9,505.6,355.6z"/>
<path class="st0" d="M532.2,337.1c-1.8,0-2.6-1.2-2.6-2.8c0-2.3-1.3-3.4-3.4-3.4c-2.5,0-3.7,0.9-3.7,8.4v4.5h9.6v1.3h-9.6V364
	c0,3.7,2.7,3.8,2.7,3.8h-10.6c0,0,2.7-0.1,2.7-3.8v-18.9h-4.6v-1.3h4.6v-4.5c0-7,1.3-9.8,8.8-9.8c6.8,0,8.7,3,8.7,4.7
	C535,335.9,534.1,337.1,532.2,337.1z"/>
<path class="st0" d="M566.5,365.9c-1.9,1.1-2.8,2.7-2.8,2.7v-17.8c0.2,6.7,4.1,16.5,14.1,16.5c6.6,0,9.2-2.2,9.2-6.5
	c0-3.7-3.9-6.1-10.8-8c-8.3-2.3-12.5-5.4-12.5-10.5c0-4.6,3.9-8.7,14.4-8.7c3.6,0,7.2,1,10,2.8c1.7-0.5,2.1-2.9,2.1-2.9v16.6
	c-1.5-11.6-6.6-15.2-12.1-15.2c-5.5,0-9.8,1.7-9.8,5.5c0,3.4,2.6,4.4,14,8.1c7.2,2.3,9.6,6.8,9.6,10.7c0,6.4-5.1,9.5-14.1,9.5
	C573.9,368.7,569.7,367.7,566.5,365.9z"/>
<path class="st0" d="M608,343.4c7.7,0,10.9,5.5,10.9,10.2h-18c0,7.3,3.3,11.6,8.8,11.6c4.8,0,8-2.6,9.4-6.6
	c-0.8,5.6-5.1,9.6-10.8,9.6c-7.6,0-12.7-5-12.7-12.6C595.7,348.3,600.4,343.4,608,343.4z M613.3,352.2c0-0.9,0-7.5-5.3-7.5
	c-6.2,0-7,6.6-7,7.5H613.3z"/>
<path class="st0" d="M622,355.6c0-7.3,5.5-12.2,13.1-12.2c2.8,0,5.4,1.1,7.6,2.3c0.8,0,1.7-0.8,2.2-2.1l-0.2,10.9
	c-0.6-5.2-3.8-9.8-9.9-9.7c-3.7,0-7.4,3.6-7.3,10.3c0,5.7,3.5,10.2,8.9,10.2c4.8,0,8.1-2.7,9.5-6.7c-0.8,5.6-5.3,9.6-10.9,9.6
	C627.3,368.2,622,363.1,622,355.6z"/>
<path class="st0" d="M657,364c0,3.7,2.7,3.8,2.7,3.8h-10.6c0,0,2.7-0.1,2.7-3.8v-29.8c0-3.3-2.7-3.1-2.7-3.1l7.8-0.7V364z"/>
<path class="st0" d="M687.6,364c0,3.7,2.7,3.8,2.7,3.8h-7.6l-0.2-1.8l-3.8,1.1c-8.7,2.5-12.9,0.3-12.9-6v-13.5
	c0-2.9-2.7-2.8-2.7-2.8l7.8-1v17.3c0,4.7,3,6.2,9.6,4.3l2-0.6v-17.2c0-2.9-2.7-2.8-2.7-2.8l7.8-1V364z"/>
<path class="st0" d="M696.3,366.3c-1.4,0.8-2.2,2-2.2,2v-13.2c1.3,8.3,5.1,11.7,12,11.7c3,0,5.3-1.7,5.3-4.1c0-2.5-1.7-4.1-7.3-5.6
	c-7.2-1.7-10-3.6-10-7.3c0-3.5,2.5-6.5,11.1-6.5c5.3,0,8.1,2.3,8.1,2.3c1.1-0.8,1.5-2.4,1.5-2.4v11.8c0-6.8-4.2-10.4-10.2-10.4
	c-3.2,0-6.3,1.2-6.3,3.3c0,2.5,4,3.5,10.1,5.3c6.1,1.8,7.6,4.3,7.6,7.9c0,3.9-3.3,7-10.7,7C702.1,368.2,698.6,367.6,696.3,366.3z"/>
<path class="st0" d="M727.8,364c0,3.7,2.7,3.8,2.7,3.8H720c0,0,2.7-0.1,2.7-3.8v-16.4c0-2.9-2.7-2.8-2.7-2.8l7.8-1V364z
	 M721.9,337.2c0,1.8,1.2,3,3.1,3s3.3-1.2,3.3-3c0-1.8-1.4-3-3.3-3S721.9,335.4,721.9,337.2z"/>
<path class="st0" d="M733.9,355.6c0-7.3,5.5-12.2,13.1-12.2c7.6,0,13.1,4.9,13.1,12.2c0,7.5-5.5,12.6-13.1,12.6
	C739.3,368.2,733.9,363.1,733.9,355.6z M754.4,355.6c0-4.2-1.2-10.8-7.4-10.8c-6.2,0-7.4,6.6-7.4,10.8c0,4.3,1.2,11.2,7.4,11.2
	C753.2,366.8,754.4,359.9,754.4,355.6z"/>
<path class="st0" d="M770.8,345.6l3.8-1.1c8.3-2.4,12.4-0.3,12.4,7.3V364c0,3.7,2.7,3.8,2.7,3.8h-10.6c0,0,2.7-0.1,2.7-3.8v-12.2
	c0-6-3-7.3-9.1-5.6l-2,0.6V364c0,3.7,2.7,3.8,2.7,3.8H763c0,0,2.7-0.1,2.7-3.8v-16.4c0-2.9-2.7-2.8-2.7-2.8l7.6-1L770.8,345.6z"/>
<path class="st0" d="M6.6,418.4v-26c0-3.7-2.7-3.8-2.7-3.8h15.7c10.5,0,17.9,6.2,17.9,16.8c0,10.5-7.4,16.8-17.9,16.8H3.8
	C3.8,422.2,6.6,422.1,6.6,418.4z M19.5,420.9c9.9,0,12.2-9.6,12.2-15.5c0-5.9-2.3-15.5-12.2-15.5h-7.8v30.9H19.5z"/>
<path class="st0" d="M64.8,418.4c0,3.7,2.7,3.8,2.7,3.8h-7.6l-0.2-1.8l-3.8,1.1c-8.7,2.5-12.9,0.3-12.9-6V402c0-2.9-2.7-2.8-2.7-2.8
	l7.8-1v17.3c0,4.7,3,6.2,9.6,4.3l2-0.6V402c0-2.9-2.7-2.8-2.7-2.8l7.8-1V418.4z"/>
<path class="st0" d="M73.5,420.7c-1.4,0.8-2.2,2-2.2,2v-13.2c1.3,8.3,5.1,11.7,12,11.7c3,0,5.3-1.7,5.3-4.1c0-2.5-1.7-4.1-7.3-5.6
	c-7.2-1.7-10-3.6-10-7.3c0-3.5,2.5-6.5,11.1-6.5c5.3,0,8.1,2.3,8.1,2.3c1.1-0.8,1.5-2.4,1.5-2.4v11.8c0-6.8-4.2-10.4-10.2-10.4
	c-3.2,0-6.3,1.2-6.3,3.3c0,2.5,4,3.5,10.1,5.3c6.1,1.8,7.6,4.3,7.6,7.9c0,3.9-3.3,7-10.7,7C79.3,422.6,75.8,422,73.5,420.7z"/>
<path class="st0" d="M126.4,422.2h-12.7c0,0,3.8-0.2,2-3.6l-5.8-10.6l-4.9,3.9v6.5c0,3.7,2.7,3.8,2.7,3.8H97.2c0,0,2.7-0.1,2.7-3.8
	v-30.8c0-2.9-2.7-2.8-2.7-2.8l7.8-1v26.4l6.1-4.8h0c8.8-6.9,1.7-7.1,1.1-7.1h13.5c0,0-3.4,0.1-7.3,3l-4.6,3.6l7.9,13.8
	C123.6,422.1,126.4,422.2,126.4,422.2z M112.2,398.2L112.2,398.2L112.2,398.2z"/>
<path class="st0" d="M154.7,405.2c0-10.6,7.9-17.2,18.3-17.2c4.1,0,7.9,1.2,11,2.9c1.6-0.5,1.9-3.1,1.9-3.1l1.2,14.6
	c-1.3-6.2-5.9-13.1-14.2-13.1c-9.7,0-12.7,8.6-12.7,15.8c0,8.7,6.1,15.2,14.5,15.2c5.2,0,10.4-2,12.8-7.1
	c-1.7,6.3-7.3,10.1-14.6,10.1C161,423.4,154.7,414.8,154.7,405.2z"/>
<path class="st0" d="M198.9,400l3.8-1.1c8.3-2.4,12.4-0.3,12.4,7.3v12.2c0,3.7,2.7,3.8,2.7,3.8h-10.6c0,0,2.7-0.1,2.7-3.8v-12.2
	c0-6-3-7.3-9.1-5.6l-2,0.6v17.2c0,3.7,2.7,3.8,2.7,3.8H191c0,0,2.7-0.1,2.7-3.8v-29.8c0-3.3-2.7-3.1-2.7-3.1l7.8-0.7V400z"/>
<path class="st0" d="M240.9,401.9c0,1.3-0.8,2.4-2.6,2.4c-1.9,0-2.8-1.2-2.7-2.4c-0.1-2.2-2.4-3.6-7.5-0.2v16.7
	c0,3.7,2.7,3.8,2.7,3.8h-10.6c0,0,2.7-0.1,2.7-3.8V402c0-2.9-2.7-2.8-2.7-2.8l7.6-1l0.2,1.8v0.4l1.7-1.1
	C234.7,396.3,240.9,397.8,240.9,401.9z"/>
<path class="st0" d="M242.2,410c0-7.3,5.5-12.2,13.1-12.2c7.6,0,13.1,4.9,13.1,12.2c0,7.5-5.5,12.6-13.1,12.6
	C247.6,422.6,242.2,417.5,242.2,410z M262.7,410c0-4.2-1.2-10.8-7.4-10.8c-6.2,0-7.4,6.6-7.4,10.8c0,4.3,1.2,11.2,7.4,11.2
	C261.5,421.2,262.7,414.3,262.7,410z"/>
<path class="st0" d="M303.7,418.4v-12.2c0-6-2-7.8-7.7-5.8l-2.8,1c0.5,1.2,0.8,2.9,0.8,4.8v12.2c0,3.7,2.7,3.8,2.7,3.8h-10.6
	c0,0,2.7-0.1,2.7-3.8v-12.2c0-6-2-7.8-7.7-5.8l-2,0.7v17.3c0,3.7,2.7,3.8,2.7,3.8h-10.6c0,0,2.7-0.1,2.7-3.8V402
	c0-2.9-2.7-2.8-2.7-2.8l7.6-1l0.2,1.7l3.9-1.2c4.5-1.5,7.9-1,9.6,1.7l5.2-1.7c6.8-2.2,11-0.1,11,7.5v12.2c0,3.7,2.7,3.8,2.7,3.8H301
	C301,422.2,303.7,422.1,303.7,418.4z"/>
<path class="st0" d="M326.7,397.8c7.7,0,10.9,5.5,10.9,10.2h-18c0,7.3,3.3,11.6,8.8,11.6c4.8,0,8-2.6,9.4-6.6
	c-0.8,5.6-5.1,9.6-10.8,9.6c-7.6,0-12.7-5-12.7-12.6C314.4,402.7,319.1,397.8,326.7,397.8z M332.1,406.6c0-0.9,0-7.5-5.3-7.5
	c-6.2,0-7,6.6-7,7.5H332.1z"/>
<path class="st0" d="M403.5,422.2h-12.9c0,0,4.2,0,1.7-6.5l-2.4-6.3l-16.6,6.3c-2.3,6.5,4.3,6.5,4.4,6.5h-13.5c0,0,5.3,0,7.6-6.5
	l4.5-12.6c3.6-10.1,5.2-14.5-2.3-14.5h13.2l10.4,27.3C400,422.2,403.5,422.2,403.5,422.2z M389.5,408.1l-6.9-18.2L374,414
	L389.5,408.1z"/>
<path class="st0" d="M406.1,420.7c-1.4,0.8-2.2,2-2.2,2v-13.2c1.3,8.3,5.1,11.7,12,11.7c3,0,5.3-1.7,5.3-4.1c0-2.5-1.7-4.1-7.3-5.6
	c-7.2-1.7-10-3.6-10-7.3c0-3.5,2.5-6.5,11.1-6.5c5.3,0,8.1,2.3,8.1,2.3c1.1-0.8,1.5-2.4,1.5-2.4v11.8c0-6.8-4.2-10.4-10.2-10.4
	c-3.2,0-6.3,1.2-6.3,3.3c0,2.5,4,3.5,10.1,5.3c6.1,1.8,7.6,4.3,7.6,7.9c0,3.9-3.3,7-10.7,7C411.9,422.6,408.5,422,406.1,420.7z"/>
<path class="st0" d="M438.7,399.5v18.9c0,3.7,2.7,3.8,2.7,3.8h-10.6c0,0,2.7-0.1,2.7-3.8v-18.9h-5.7v-1.3h5.7v-5.8
	c0-3.3-2.7-3.1-2.7-3.1l7.8-0.7v9.6h5.3v1.3H438.7z"/>
<path class="st0" d="M466.2,401.9c0,1.3-0.8,2.4-2.6,2.4c-1.9,0-2.8-1.2-2.7-2.4c-0.1-2.2-2.4-3.6-7.5-0.2v16.7
	c0,3.7,2.7,3.8,2.7,3.8h-10.6c0,0,2.7-0.1,2.7-3.8V402c0-2.9-2.7-2.8-2.7-2.8l7.6-1l0.2,1.8v0.4l1.7-1.1
	C459.9,396.3,466.2,397.8,466.2,401.9z"/>
<path class="st0" d="M485.6,422.2l-0.8-2.6l-3,1.3c-6.8,3-14.1,2-14.1-4.6c0-6,6.1-6.7,16.8-9.9c-0.2-6.6-2.4-7.4-5.2-7.4
	c-2.9,0-4.7,1.5-4.7,3.8c0,1.7-0.8,2.8-2.6,2.8c-1.9,0-2.8-1.2-2.7-2.8c0-1.7,2.2-5.1,10-5.1c7.5,0,10.4,2.8,10.4,8.5v12.2
	c0,3.7,2.7,3.8,2.7,3.8H485.6z M483.5,418.8l0.9-0.4v-10.5l-0.6,0.2c-8.1,2.3-11.4,3.5-11.4,7.5
	C472.5,420.2,477.7,421.2,483.5,418.8z"/>
<path class="st0" d="M503.5,418.4c0,3.7,2.7,3.8,2.7,3.8h-10.6c0,0,2.7-0.1,2.7-3.8v-29.8c0-3.3-2.7-3.1-2.7-3.1l7.8-0.7V418.4z"/>
<path class="st0" d="M570.7,398.6c0,7.5-8.3,10.3-14.9,10.3c-3.6,0-6.8-0.2-8.7-0.3v9.8c0,3.7,2.7,3.8,2.7,3.8h-10.6
	c0,0,2.7-0.1,2.7-3.8v-25.1c0,0,0-4.8-4.1-4.8h17.3C562.6,388.6,570.7,390.9,570.7,398.6z M565.2,398.9c0-6-3.5-9-11.1-9h-7.1v17.5
	c1.8,0,4.8,0.1,8.4,0.1C561.8,407.6,565.2,403.8,565.2,398.9z"/>
<path class="st0" d="M592.8,401.9c0,1.3-0.8,2.4-2.6,2.4c-1.9,0-2.8-1.2-2.7-2.4c-0.1-2.2-2.4-3.6-7.5-0.2v16.7
	c0,3.7,2.7,3.8,2.7,3.8h-10.6c0,0,2.7-0.1,2.7-3.8V402c0-2.9-2.7-2.8-2.7-2.8l7.6-1l0.2,1.8v0.4l1.7-1.1
	C586.6,396.3,592.8,397.8,592.8,401.9z"/>
<path class="st0" d="M594,410c0-7.3,5.5-12.2,13.1-12.2c7.6,0,13.1,4.9,13.1,12.2c0,7.5-5.5,12.6-13.1,12.6
	C599.5,422.6,594,417.5,594,410z M614.6,410c0-4.2-1.2-10.8-7.4-10.8c-6.2,0-7.4,6.6-7.4,10.8c0,4.3,1.2,11.2,7.4,11.2
	C613.4,421.2,614.6,414.3,614.6,410z"/>
<path class="st0" d="M619.8,430.1c3.4,0,6.7-1.9,6.7-7.9V402c0-2.9-2.7-2.8-2.7-2.8l7.8-1v24C631.6,428.2,627.4,431.8,619.8,430.1z
	 M626.4,388.6v4.8h5.2v-4.8H626.4z"/>
<path class="st0" d="M648.2,397.8c7.7,0,10.9,5.5,10.9,10.2h-18c0,7.3,3.3,11.6,8.8,11.6c4.8,0,8-2.6,9.4-6.6
	c-0.8,5.6-5.1,9.6-10.8,9.6c-7.6,0-12.7-5-12.7-12.6C635.9,402.7,640.6,397.8,648.2,397.8z M653.6,406.6c0-0.9,0-7.5-5.3-7.5
	c-6.2,0-7,6.6-7,7.5H653.6z"/>
<path class="st0" d="M662.2,410c0-7.3,5.5-12.2,13.1-12.2c2.8,0,5.4,1.1,7.6,2.3c0.8,0,1.7-0.8,2.2-2.1l-0.2,10.9
	c-0.6-5.2-3.8-9.8-9.9-9.7c-3.7,0-7.4,3.6-7.3,10.3c0,5.7,3.5,10.2,8.9,10.2c4.8,0,8.1-2.7,9.5-6.7c-0.8,5.6-5.3,9.6-10.9,9.6
	C667.5,422.6,662.2,417.5,662.2,410z"/>
<path class="st0" d="M698.3,399.5v18.9c0,3.7,2.7,3.8,2.7,3.8h-10.6c0,0,2.7-0.1,2.7-3.8v-18.9h-5.7v-1.3h5.7v-5.8
	c0-3.3-2.7-3.1-2.7-3.1l7.8-0.7v9.6h5.3v1.3H698.3z"/>
<path class="st0" d="M713.4,418.4c0,3.7,2.7,3.8,2.7,3.8h-10.6c0,0,2.7-0.1,2.7-3.8V402c0-2.9-2.7-2.8-2.7-2.8l7.8-1V418.4z
	 M707.5,391.6c0,1.8,1.2,3,3.1,3s3.3-1.2,3.3-3c0-1.8-1.4-3-3.3-3S707.5,389.8,707.5,391.6z"/>
<path class="st0" d="M719.5,410c0-7.3,5.5-12.2,13.1-12.2c7.6,0,13.1,4.9,13.1,12.2c0,7.5-5.5,12.6-13.1,12.6
	C724.9,422.6,719.5,417.5,719.5,410z M740,410c0-4.2-1.2-10.8-7.4-10.8c-6.2,0-7.4,6.6-7.4,10.8c0,4.3,1.2,11.2,7.4,11.2
	C738.8,421.2,740,414.3,740,410z"/>
<path class="st0" d="M756.4,400l3.8-1.1c8.3-2.4,12.4-0.3,12.4,7.3v12.2c0,3.7,2.7,3.8,2.7,3.8h-10.6c0,0,2.7-0.1,2.7-3.8v-12.2
	c0-6-3-7.3-9.1-5.6l-2,0.6v17.2c0,3.7,2.7,3.8,2.7,3.8h-10.6c0,0,2.7-0.1,2.7-3.8V402c0-2.9-2.7-2.8-2.7-2.8l7.6-1L756.4,400z"/>
</svg>
