<?xml version="1.0" encoding="UTF-8"?>
<svg width="800px" height="499px" viewBox="0 0 800 499" version="1.1" xmlns="http://www.w3.org/2000/svg" xmlns:xlink="http://www.w3.org/1999/xlink">
    <!-- Generator: Sketch 46.1 (44463) - http://www.bohemiancoding.com/sketch -->
    <title>Artboard 3 Copy 3</title>
    <desc>Created with Sketch.</desc>
    <defs>
        <rect id="path-1" x="0" y="0" width="800" height="499"></rect>
    </defs>
    <g id="Page-1" stroke="none" stroke-width="1" fill="none" fill-rule="evenodd">
        <g id="Artboard-3-Copy-3">
            <g id="Rectangle-10">
                <use fill="#000000" fill-rule="evenodd" xlink:href="#path-1"></use>
                <rect stroke="#FFFFFF" stroke-width="1" x="0.5" y="0.5" width="799" height="498"></rect>
            </g>
            <path d="M45.98,406 L44.58,402.34 L38.6,402.34 L37.2,406 L35.52,406 L40.66,392.8 L42.56,392.8 L47.68,406 L45.98,406 Z M39.18,400.84 L44,400.84 L42.22,396.16 L41.6,394.32 L41.56,394.32 L40.98,396.1 L39.18,400.84 Z M57.34,391.4 L58.94,391.4 L58.94,406 L57.54,406 L57.44,404.26 C56.86,405.4 55.6,406.2 54.02,406.2 C51.24,406.2 49.46,404.26 49.46,401 C49.46,397.74 51.24,395.8 54.02,395.8 C55.52,395.8 56.72,396.52 57.34,397.56 L57.34,391.4 Z M54.2,404.8 C56.1,404.8 57.34,403.38 57.34,401.12 L57.34,400.88 C57.34,398.62 56.1,397.2 54.2,397.2 C52.24,397.2 51.06,398.68 51.06,401 C51.06,403.32 52.24,404.8 54.2,404.8 Z M74.28,395.8 C73.02,395.8 71.42,396.4 70.8,397.76 C70.14,396.42 68.76,395.8 67.36,395.8 C66.12,395.8 64.88,396.34 64.16,397.56 L64.06,396 L62.66,396 L62.66,406 L64.26,406 L64.26,400.66 C64.26,398.18 65.9,397.2 67.22,397.2 C68.54,397.2 69.58,397.94 69.58,399.76 L69.58,406 L71.18,406 L71.18,400.52 C71.18,398.38 72.58,397.2 74.14,397.2 C75.46,397.2 76.5,397.94 76.5,399.76 L76.5,406 L78.1,406 L78.1,399.6 C78.1,396.96 76.2,395.8 74.28,395.8 Z M82.52,394.08 C83.24,394.08 83.72,393.6 83.72,392.88 C83.72,392.16 83.24,391.68 82.52,391.68 C81.8,391.68 81.32,392.16 81.32,392.88 C81.32,393.6 81.8,394.08 82.52,394.08 Z M83.32,396 L81.72,396 L81.72,406 L83.32,406 L83.32,396 Z M91.9,395.8 C90.52,395.8 89.24,396.3 88.54,397.56 L88.44,396 L87.04,396 L87.04,406 L88.64,406 L88.64,400.68 C88.64,398.12 90.28,397.2 91.74,397.2 C93.12,397.2 94.2,397.94 94.2,400.16 L94.2,406 L95.8,406 L95.8,399.6 C95.8,397.02 94.04,395.8 91.9,395.8 Z" id="Admin" fill="#FFFFFF"></path>
            <path d="M161.24,399.34 L161.24,400.84 L165.44,400.84 L165.44,401.3 C165.44,403.58 163.74,404.7 161.54,404.7 C158.6,404.7 157.04,402.72 157.04,399.4 C157.04,396.08 158.84,394.1 161.52,394.1 C163.36,394.1 164.76,394.9 165.34,396.42 L166.8,395.62 C165.78,393.58 164.14,392.6 161.52,392.6 C157.82,392.6 155.36,395.22 155.36,399.4 C155.36,403.58 157.72,406.2 161.48,406.2 C163.5,406.2 164.88,405.46 165.64,404.22 L165.7,406 L166.9,406 L166.9,399.34 L161.24,399.34 Z M177.4,396 L177.4,401.44 C177.4,403.8 175.9,404.8 174.2,404.8 C172.76,404.8 171.84,404.18 171.84,402.12 L171.84,396 L170.24,396 L170.24,402.54 C170.24,405.18 171.94,406.2 173.92,406.2 C175.52,406.2 176.8,405.68 177.5,404.48 L177.6,406 L179,406 L179,396 L177.4,396 Z M191.3,400.48 C191.3,400.94 191.26,401.32 191.22,401.6 L183.68,401.6 C183.88,403.62 185.1,404.8 186.94,404.8 C188.4,404.8 189.4,404.28 189.76,403.32 L191.1,404.02 C190.34,405.38 189.1,406.2 186.94,406.2 C183.92,406.2 182.1,404.24 182.1,401 C182.1,397.76 183.8,395.8 186.82,395.8 C189.72,395.8 191.3,397.9 191.3,400.48 Z M186.82,397.2 C185.04,397.2 183.94,398.3 183.7,400.18 L189.76,400.18 C189.54,398.34 188.52,397.2 186.82,397.2 Z M197.74,406.2 C200.3,406.2 201.92,404.98 201.92,403.24 C201.92,401.6 200.92,400.76 198.12,400.3 C196.08,399.96 195.42,399.52 195.42,398.66 C195.42,397.92 196.42,397.2 197.76,397.2 C199.02,397.2 199.92,397.68 200.36,399 L201.72,398.2 C201.16,396.56 199.9,395.8 197.76,395.8 C195.32,395.8 193.82,397.18 193.82,398.8 C193.82,400.48 194.86,401.26 197.7,401.78 C199.7,402.14 200.32,402.58 200.32,403.32 C200.32,404.14 199.54,404.8 197.9,404.8 C196.46,404.8 195.22,404.26 194.74,403.04 L193.44,403.94 C194.2,405.48 195.9,406.2 197.74,406.2 Z M210.44,403.96 C209.98,404.42 209.46,404.7 208.74,404.7 C207.86,404.7 207.24,404.22 207.24,403.24 L207.24,397.38 L210.94,397.38 L210.94,396 L207.24,396 L207.24,393.16 L205.64,393.6 L205.64,396 L203.64,396 L203.64,397.38 L205.64,397.38 L205.64,403.52 C205.66,405.46 206.94,406.2 208.42,406.2 C209.52,406.2 210.38,405.86 211,405.3 L210.44,403.96 Z M216.66,406.2 C219.22,406.2 220.84,404.98 220.84,403.24 C220.84,401.6 219.84,400.76 217.04,400.3 C215,399.96 214.34,399.52 214.34,398.66 C214.34,397.92 215.34,397.2 216.68,397.2 C217.94,397.2 218.84,397.68 219.28,399 L220.64,398.2 C220.08,396.56 218.82,395.8 216.68,395.8 C214.24,395.8 212.74,397.18 212.74,398.8 C212.74,400.48 213.78,401.26 216.62,401.78 C218.62,402.14 219.24,402.58 219.24,403.32 C219.24,404.14 218.46,404.8 216.82,404.8 C215.38,404.8 214.14,404.26 213.66,403.04 L212.36,403.94 C213.12,405.48 214.82,406.2 216.66,406.2 Z" id="Guests" fill="#FFFFFF"></path>
            <path d="M350.42,392.8 C354.56,392.8 357.06,395.16 357.06,399.4 C357.06,403.64 354.56,406 350.42,406 L346.16,406 L346.16,392.8 L350.42,392.8 Z M350.58,404.5 C353.6,404.5 355.38,402.6 355.38,399.4 C355.38,396.2 353.6,394.3 350.58,394.3 L347.76,394.3 L347.76,404.5 L350.58,404.5 Z M368.86,400.48 C368.86,400.94 368.82,401.32 368.78,401.6 L361.24,401.6 C361.44,403.62 362.66,404.8 364.5,404.8 C365.96,404.8 366.96,404.28 367.32,403.32 L368.66,404.02 C367.9,405.38 366.66,406.2 364.5,406.2 C361.48,406.2 359.66,404.24 359.66,401 C359.66,397.76 361.36,395.8 364.38,395.8 C367.28,395.8 368.86,397.9 368.86,400.48 Z M364.38,397.2 C362.6,397.2 361.5,398.3 361.26,400.18 L367.32,400.18 C367.1,398.34 366.08,397.2 364.38,397.2 Z M375.3,406.2 C377.86,406.2 379.48,404.98 379.48,403.24 C379.48,401.6 378.48,400.76 375.68,400.3 C373.64,399.96 372.98,399.52 372.98,398.66 C372.98,397.92 373.98,397.2 375.32,397.2 C376.58,397.2 377.48,397.68 377.92,399 L379.28,398.2 C378.72,396.56 377.46,395.8 375.32,395.8 C372.88,395.8 371.38,397.18 371.38,398.8 C371.38,400.48 372.42,401.26 375.26,401.78 C377.26,402.14 377.88,402.58 377.88,403.32 C377.88,404.14 377.1,404.8 375.46,404.8 C374.02,404.8 372.78,404.26 372.3,403.04 L371,403.94 C371.76,405.48 373.46,406.2 375.3,406.2 Z M389.52,406 L391.46,406 L387.32,399.9 L391.22,396 L389.22,396 L384.04,401.18 L384.04,391.4 L382.44,391.4 L382.44,406 L384.04,406 L384.04,403.18 L386.16,401.06 L389.52,406 Z M399.34,403.96 C398.88,404.42 398.36,404.7 397.64,404.7 C396.76,404.7 396.14,404.22 396.14,403.24 L396.14,397.38 L399.84,397.38 L399.84,396 L396.14,396 L396.14,393.16 L394.54,393.6 L394.54,396 L392.54,396 L392.54,397.38 L394.54,397.38 L394.54,403.52 C394.56,405.46 395.84,406.2 397.32,406.2 C398.42,406.2 399.28,405.86 399.9,405.3 L399.34,403.96 Z M406.38,395.8 C409.4,395.8 411.22,397.76 411.22,401 C411.22,404.24 409.4,406.2 406.38,406.2 C403.36,406.2 401.54,404.24 401.54,401 C401.54,397.76 403.36,395.8 406.38,395.8 Z M406.38,397.18 C404.36,397.18 403.14,398.62 403.14,401 C403.14,403.38 404.36,404.82 406.38,404.82 C408.4,404.82 409.62,403.38 409.62,401 C409.62,398.62 408.4,397.18 406.38,397.18 Z M419.24,395.8 C422.02,395.8 423.8,397.74 423.8,401 C423.8,404.26 422.02,406.2 419.24,406.2 C417.74,406.2 416.54,405.48 415.92,404.44 L415.92,410.2 L414.32,410.2 L414.32,396 L415.72,396 L415.82,397.74 C416.4,396.6 417.66,395.8 419.24,395.8 Z M419.06,404.8 C421.02,404.8 422.2,403.32 422.2,401 C422.2,398.68 421.02,397.2 419.06,397.2 C417.16,397.2 415.92,398.62 415.92,400.88 L415.92,401.12 C415.92,403.38 417.16,404.8 419.06,404.8 Z M442.86,406 L441.46,402.34 L435.48,402.34 L434.08,406 L432.4,406 L437.54,392.8 L439.44,392.8 L444.56,406 L442.86,406 Z M436.06,400.84 L440.88,400.84 L439.1,396.16 L438.48,394.32 L438.44,394.32 L437.86,396.1 L436.06,400.84 Z M451.86,395.8 C454.64,395.8 456.42,397.74 456.42,401 C456.42,404.26 454.64,406.2 451.86,406.2 C450.36,406.2 449.16,405.48 448.54,404.44 L448.54,410.2 L446.94,410.2 L446.94,396 L448.34,396 L448.44,397.74 C449.02,396.6 450.28,395.8 451.86,395.8 Z M451.68,404.8 C453.64,404.8 454.82,403.32 454.82,401 C454.82,398.68 453.64,397.2 451.68,397.2 C449.78,397.2 448.54,398.62 448.54,400.88 L448.54,401.12 C448.54,403.38 449.78,404.8 451.68,404.8 Z M464.46,395.8 C467.24,395.8 469.02,397.74 469.02,401 C469.02,404.26 467.24,406.2 464.46,406.2 C462.96,406.2 461.76,405.48 461.14,404.44 L461.14,410.2 L459.54,410.2 L459.54,396 L460.94,396 L461.04,397.74 C461.62,396.6 462.88,395.8 464.46,395.8 Z M464.28,404.8 C466.24,404.8 467.42,403.32 467.42,401 C467.42,398.68 466.24,397.2 464.28,397.2 C462.38,397.2 461.14,398.62 461.14,400.88 L461.14,401.12 C461.14,403.38 462.38,404.8 464.28,404.8 Z" id="Desktop-App" fill="#FFFFFF"></path>
            <path d="M622.64,406 L624.56,406 L619.24,398.18 L624.5,392.8 L622.4,392.8 L615.76,399.6 L615.76,392.8 L614.16,392.8 L614.16,406 L615.76,406 L615.76,401.76 L618.12,399.36 L622.64,406 Z M627.78,394.08 C628.5,394.08 628.98,393.6 628.98,392.88 C628.98,392.16 628.5,391.68 627.78,391.68 C627.06,391.68 626.58,392.16 626.58,392.88 C626.58,393.6 627.06,394.08 627.78,394.08 Z M628.58,396 L626.98,396 L626.98,406 L628.58,406 L628.58,396 Z M637.16,395.8 C635.78,395.8 634.5,396.3 633.8,397.56 L633.7,396 L632.3,396 L632.3,406 L633.9,406 L633.9,400.68 C633.9,398.12 635.54,397.2 637,397.2 C638.38,397.2 639.46,397.94 639.46,400.16 L639.46,406 L641.06,406 L641.06,399.6 C641.06,397.02 639.3,395.8 637.16,395.8 Z M653.26,400.48 C653.26,400.94 653.22,401.32 653.18,401.6 L645.64,401.6 C645.84,403.62 647.06,404.8 648.9,404.8 C650.36,404.8 651.36,404.28 651.72,403.32 L653.06,404.02 C652.3,405.38 651.06,406.2 648.9,406.2 C645.88,406.2 644.06,404.24 644.06,401 C644.06,397.76 645.76,395.8 648.78,395.8 C651.68,395.8 653.26,397.9 653.26,400.48 Z M648.78,397.2 C647,397.2 645.9,398.3 645.66,400.18 L651.72,400.18 C651.5,398.34 650.48,397.2 648.78,397.2 Z M660.52,395.8 C657.5,395.8 655.68,397.76 655.68,401 C655.68,404.24 657.5,406.2 660.52,406.2 C662.64,406.2 664.08,405.1 664.76,403.26 L663.28,402.74 C662.98,404.06 662.04,404.8 660.48,404.8 C658.48,404.8 657.28,403.38 657.28,401 C657.28,398.62 658.48,397.2 660.48,397.2 C661.86,397.2 662.72,397.9 663.14,399.18 L664.66,398.46 C663.92,396.82 662.58,395.8 660.52,395.8 Z M673.14,403.96 C672.68,404.42 672.16,404.7 671.44,404.7 C670.56,404.7 669.94,404.22 669.94,403.24 L669.94,397.38 L673.64,397.38 L673.64,396 L669.94,396 L669.94,393.16 L668.34,393.6 L668.34,396 L666.34,396 L666.34,397.38 L668.34,397.38 L668.34,403.52 C668.36,405.46 669.64,406.2 671.12,406.2 C672.22,406.2 673.08,405.86 673.7,405.3 L673.14,403.96 Z M693.32,392.8 L691.6,392.8 L688.24,401.94 L687.4,404.54 L686.56,401.92 L683.2,392.8 L681.48,392.8 L686.5,406 L688.32,406 L693.32,392.8 Z M695.36,406 L704.24,406 L704.24,404.5 L699.62,404.5 C699.22,404.5 698.08,404.54 697.64,404.56 L697.64,404.54 C702.36,401.4 703.96,399.22 703.96,396.74 C703.96,394.3 702.24,392.6 699.54,392.6 C696.86,392.6 695.28,394.22 694.94,396.52 L696.34,397.36 C696.52,395.38 697.66,394.1 699.48,394.1 C701.2,394.1 702.28,395.18 702.28,396.74 C702.28,399.08 700.64,400.82 695.36,404.7 L695.36,406 Z" id="Kinect-V2" fill="#FFFFFF"></path>
            <path d="M618.82,230.8 C621.48,230.8 623.26,232.34 623.26,234.82 C623.26,237.3 621.48,238.84 618.82,238.84 L615.76,238.84 L615.76,244 L614.16,244 L614.16,230.8 L618.82,230.8 Z M618.58,237.34 C620.66,237.34 621.58,236.46 621.58,234.82 C621.58,233.18 620.66,232.3 618.58,232.3 L615.76,232.3 L615.76,237.34 L618.58,237.34 Z M630.78,233.8 C629.22,233.8 628.14,234.42 627.58,235.64 L627.36,234 L626.06,234 L626.06,244 L627.66,244 L627.66,238.6 C627.66,236.36 629.1,235.3 630.3,235.3 C630.82,235.3 631.26,235.4 631.56,235.56 L631.88,234 C631.58,233.84 631.12,233.8 630.78,233.8 Z M638.44,233.8 C641.46,233.8 643.28,235.76 643.28,239 C643.28,242.24 641.46,244.2 638.44,244.2 C635.42,244.2 633.6,242.24 633.6,239 C633.6,235.76 635.42,233.8 638.44,233.8 Z M638.44,235.18 C636.42,235.18 635.2,236.62 635.2,239 C635.2,241.38 636.42,242.82 638.44,242.82 C640.46,242.82 641.68,241.38 641.68,239 C641.68,236.62 640.46,235.18 638.44,235.18 Z M647.18,229.68 C646.52,229.68 645.98,230.22 645.98,230.88 C645.98,231.54 646.52,232.08 647.18,232.08 C647.84,232.08 648.38,231.54 648.38,230.88 C648.38,230.22 647.84,229.68 647.18,229.68 Z M647.98,234 L647.98,245.02 C647.98,247.52 646.3,248.3 644.94,248.3 C644.12,248.3 643.4,248.02 642.94,247.64 L643.28,246.12 C643.66,246.46 644.22,246.74 644.92,246.74 C645.78,246.74 646.38,246.26 646.38,244.86 L646.38,234 L647.98,234 Z M660.28,238.48 C660.28,238.94 660.24,239.32 660.2,239.6 L652.66,239.6 C652.86,241.62 654.08,242.8 655.92,242.8 C657.38,242.8 658.38,242.28 658.74,241.32 L660.08,242.02 C659.32,243.38 658.08,244.2 655.92,244.2 C652.9,244.2 651.08,242.24 651.08,239 C651.08,235.76 652.78,233.8 655.8,233.8 C658.7,233.8 660.28,235.9 660.28,238.48 Z M655.8,235.2 C654.02,235.2 652.92,236.3 652.68,238.18 L658.74,238.18 C658.52,236.34 657.5,235.2 655.8,235.2 Z M667.54,233.8 C664.52,233.8 662.7,235.76 662.7,239 C662.7,242.24 664.52,244.2 667.54,244.2 C669.66,244.2 671.1,243.1 671.78,241.26 L670.3,240.74 C670,242.06 669.06,242.8 667.5,242.8 C665.5,242.8 664.3,241.38 664.3,239 C664.3,236.62 665.5,235.2 667.5,235.2 C668.88,235.2 669.74,235.9 670.16,237.18 L671.68,236.46 C670.94,234.82 669.6,233.8 667.54,233.8 Z M680.16,241.96 C679.7,242.42 679.18,242.7 678.46,242.7 C677.58,242.7 676.96,242.22 676.96,241.24 L676.96,235.38 L680.66,235.38 L680.66,234 L676.96,234 L676.96,231.16 L675.36,231.6 L675.36,234 L673.36,234 L673.36,235.38 L675.36,235.38 L675.36,241.52 C675.38,243.46 676.66,244.2 678.14,244.2 C679.24,244.2 680.1,243.86 680.72,243.3 L680.16,241.96 Z M687.2,233.8 C690.22,233.8 692.04,235.76 692.04,239 C692.04,242.24 690.22,244.2 687.2,244.2 C684.18,244.2 682.36,242.24 682.36,239 C682.36,235.76 684.18,233.8 687.2,233.8 Z M687.2,235.18 C685.18,235.18 683.96,236.62 683.96,239 C683.96,241.38 685.18,242.82 687.2,242.82 C689.22,242.82 690.44,241.38 690.44,239 C690.44,236.62 689.22,235.18 687.2,235.18 Z M699.86,233.8 C698.3,233.8 697.22,234.42 696.66,235.64 L696.44,234 L695.14,234 L695.14,244 L696.74,244 L696.74,238.6 C696.74,236.36 698.18,235.3 699.38,235.3 C699.9,235.3 700.34,235.4 700.64,235.56 L700.96,234 C700.66,233.84 700.2,233.8 699.86,233.8 Z" id="Projector" fill="#FFFFFF"></path>
            <rect id="Rectangle-39-Copy-19" stroke="#FFFFFF" x="35.5" y="261.5" width="64" height="102" rx="7"></rect>
            <rect id="Rectangle-39-Copy-20" stroke="#FFFFFF" x="43.5" y="269.5" width="48" height="82"></rect>
            <g id="Group" transform="translate(152.000000, 261.000000)" stroke="#FFFFFF">
                <rect id="Rectangle-39-Copy-21" x="0.5" y="0.5" width="64" height="102" rx="7"></rect>
                <rect id="Rectangle-39-Copy-22" x="8.5" y="8.5" width="48" height="82"></rect>
            </g>
            <rect id="Rectangle-39-Copy-21" stroke="#FFFFFF" x="227.5" y="261.5" width="64" height="102" rx="7"></rect>
            <rect id="Rectangle-39-Copy-22" stroke="#FFFFFF" x="235.5" y="269.5" width="48" height="82"></rect>
            <g id="Group-Copy-6" transform="translate(344.000000, 200.000000)" stroke="#FFFFFF">
                <rect id="Rectangle-39-Copy-21" x="0.5" y="0.5" width="219" height="133" rx="7"></rect>
            </g>
            <g id="Group-Copy" transform="translate(152.000000, 148.000000)" stroke="#FFFFFF">
                <rect id="Rectangle-39-Copy-21" x="0.5" y="0.5" width="64" height="102" rx="7"></rect>
                <rect id="Rectangle-39-Copy-22" x="8.5" y="8.5" width="48" height="82"></rect>
            </g>
            <g id="Group-Copy-4" transform="translate(227.000000, 148.000000)" stroke="#FFFFFF">
                <rect id="Rectangle-39-Copy-21" x="0.5" y="0.5" width="64" height="102" rx="7"></rect>
                <rect id="Rectangle-39-Copy-22" x="8.5" y="8.5" width="48" height="82"></rect>
            </g>
            <g id="Group-Copy-2" transform="translate(152.000000, 35.000000)" stroke="#FFFFFF">
                <rect id="Rectangle-39-Copy-21" x="0.5" y="0.5" width="64" height="102" rx="7"></rect>
                <rect id="Rectangle-39-Copy-22" x="8.5" y="8.5" width="48" height="82"></rect>
            </g>
            <g id="Group-Copy-5" transform="translate(227.000000, 35.000000)" stroke="#FFFFFF">
                <rect id="Rectangle-39-Copy-21" x="0.5" y="0.5" width="64" height="102" rx="7"></rect>
                <rect id="Rectangle-39-Copy-22" x="8.5" y="8.5" width="48" height="82"></rect>
            </g>
            <polygon id="Star-Copy" stroke="#FFFFFF" points="68 316.779335 63.6737621 319 64.5 314.296556 61 310.965558 65.836881 310.279335 68 306 70.163119 310.279335 75 310.965558 71.5 314.296556 72.3262379 319"></polygon>
            <polyline id="Path-19" stroke="#FFFFFF" points="35 434 35 464 152 464 152 434"></polyline>
            <polyline id="Path-19-Copy" stroke="#FFFFFF" points="152 464 344 464 344 434"></polyline>
            <polyline id="Path-19-Copy-2" stroke="#FFFFFF" points="344 464 612 464 612 434"></polyline>
            <path d="M421.439629,333.5 L417.568661,363.5 L490.431339,363.5 L486.560371,333.5 L421.439629,333.5 Z" id="Rectangle-36" stroke="#FFFFFF"></path>
            <rect id="Rectangle-39-Copy-23" stroke="#FFFFFF" x="352.5" y="208.5" width="203" height="102"></rect>
            <rect id="Rectangle-11" stroke="#FFFFFF" x="612.5" y="322.5" width="152" height="27" rx="3"></rect>
            <rect id="Rectangle-11-Copy" stroke="#FFFFFF" x="612.5" y="356.5" width="152" height="7" rx="3"></rect>
            <rect id="Rectangle-11-Copy" stroke="#FFFFFF" x="663.5" y="349.5" width="50" height="7"></rect>
            <g id="Group-2" transform="translate(612.000000, 166.000000)" stroke="#FFFFFF">
                <path d="M0.5,3.00001915 L0.5,26.9999809 C0.5,28.3777226 1.62483029,29.5 3.00972645,29.5 L113.990274,29.5 C115.385132,29.5 116.5,28.3853056 116.5,26.9999809 L116.5,3.00001915 C116.5,1.62227737 115.37517,0.5 113.990274,0.5 L3.00972645,0.5 C1.61486778,0.5 0.5,1.61469444 0.5,3.00001915 Z" id="Rectangle-37-Copy"></path>
                <circle id="Oval-16-Copy" cx="100.5" cy="14.5" r="5.5"></circle>
                <rect id="Rectangle-3" x="9.5" y="29.5" width="6" height="13" rx="1"></rect>
                <rect id="Rectangle-3-Copy" x="102.5" y="29.5" width="6" height="13" rx="1"></rect>
            </g>
            <path d="M613,272 L613,302" id="Path-19" stroke="#FFFFFF"></path>
            <circle id="Oval" stroke="#FFFFFF" cx="629" cy="336" r="7"></circle>
            <circle id="Oval-Copy" stroke="#FFFFFF" cx="751" cy="336" r="4"></circle>
        </g>
    </g>
</svg>