<?xml version="1.0" encoding="utf-8"?>
<!-- Generator: Adobe Illustrator 19.0.1, SVG Export Plug-In . SVG Version: 6.00 Build 0)  -->
<svg version="1.1" id="Layer_1" xmlns="http://www.w3.org/2000/svg" xmlns:xlink="http://www.w3.org/1999/xlink" x="0px" y="0px"
	 viewBox="0 0 1074.2 1440" style="enable-background:new 0 0 1074.2 1440;" xml:space="preserve">
<style type="text/css">
	.st0{fill:none;stroke:#FFFFFF;stroke-miterlimit:10;}
	.st1{fill:#FFFFFF;}
</style>
<g>
	<g>
		<rect x="616.3" y="0" class="st0" width="38.2" height="180"/>
	</g>
	<g>
		<polyline class="st0" points="616.3,0 538.4,0 538.4,180 616.3,180 		"/>
	</g>
	<g>
		<rect x="730" y="0" class="st0" width="78" height="180"/>
	</g>
	<g>
		<rect x="883.5" y="0" class="st0" width="112.8" height="180"/>
	</g>
	<g>
		<rect x="78" y="0" class="st0" width="78" height="180"/>
	</g>
	<g>
		<rect x="233.9" y="0" class="st0" width="78" height="180"/>
	</g>
	<g>
		<line class="st0" x1="883.5" y1="0" x2="808" y2="0"/>
		<line class="st0" x1="808" y1="180" x2="883.5" y2="180"/>
	</g>
	<g>
		<rect x="996.3" y="0" class="st0" width="78" height="180"/>
	</g>
	<g>
		<line class="st0" x1="233.9" y1="0" x2="156" y2="0"/>
		<line class="st0" x1="156" y1="180" x2="233.9" y2="180"/>
	</g>
	<g>
		<polyline class="st0" points="78,0 0,0 0,180 78,180 		"/>
	</g>
	<g>
		<polyline class="st0" points="311.9,180 389.9,180 389.9,0 311.9,0 		"/>
	</g>
	<g>
		<polyline class="st0" points="389.9,180 460.4,180 460.4,0 389.9,0 		"/>
	</g>
	<g>
		<line class="st0" x1="460.4" y1="180" x2="538.4" y2="180"/>
		<line class="st0" x1="538.4" y1="0" x2="460.4" y2="0"/>
	</g>
	<g>
		<line class="st0" x1="730" y1="0" x2="654.5" y2="0"/>
		<line class="st0" x1="654.5" y1="180" x2="730" y2="180"/>
	</g>
	<g>
		<rect x="0" y="180" class="st0" width="78" height="180"/>
	</g>
	<g>
		<rect x="455.4" y="180" class="st0" width="78" height="180"/>
	</g>
	<g>
		<rect x="721.7" y="180" class="st0" width="78" height="180"/>
	</g>
	<g>
		<polyline class="st0" points="799.7,360 875.2,360 875.2,180 799.7,180 		"/>
	</g>
	<g>
		<polyline class="st0" points="533.4,360 608.9,360 608.9,180 533.4,180 		"/>
	</g>
	<g>
		<polyline class="st0" points="78,360 153.5,360 153.5,180 78,180 		"/>
	</g>
	<g>
		<rect x="387.4" y="180" class="st0" width="68" height="180"/>
	</g>
	<g>
		<rect x="231.4" y="180" class="st0" width="78" height="180"/>
	</g>
	<g>
		<line class="st0" x1="608.9" y1="360" x2="734.9" y2="360"/>
		<line class="st0" x1="734.9" y1="180" x2="608.9" y2="180"/>
	</g>
	<g>
		<polyline class="st0" points="875.2,180 953.1,180 953.1,360 875.2,360 		"/>
	</g>
	<g>
		<line class="st0" x1="387.4" y1="180" x2="309.4" y2="180"/>
		<line class="st0" x1="309.4" y1="360" x2="387.4" y2="360"/>
	</g>
	<g>
		<line class="st0" x1="231.4" y1="180" x2="153.5" y2="180"/>
		<line class="st0" x1="153.5" y1="360" x2="231.4" y2="360"/>
	</g>
	<g>
		<polygon class="st1" points="623.8,18.1 623.8,127.4 647,138.7 647,6.4 		"/>
	</g>
	<g>
		<polygon class="st1" points="585.6,18.1 585.6,62.8 569.1,71.1 569.1,6.4 545.8,18.1 545.8,127.4 569.1,138.7 569.1,74.9 
			585.6,66.6 585.6,127.4 608.9,138.7 608.9,6.4 		"/>
	</g>
	<g>
		<polygon class="st1" points="800.5,6.4 777.3,18.1 777.3,58.7 777.3,60.4 760.7,68.6 760.7,6.4 737.5,18.1 737.5,127.1 
			760.7,138.7 760.7,72.4 777.3,64.1 777.3,127.1 800.5,138.7 800.5,70.3 782.6,61.4 800.5,52.5 		"/>
	</g>
	<g>
		<polygon class="st1" points="966.5,17.6 966.5,17.6 951.5,25.1 951.5,6.4 929.2,17.6 929.2,17.6 914.2,25.1 914.2,6.4 890.9,18.1 
			890.9,127.1 914.2,138.7 914.2,28.8 928.2,21.8 928.2,127.1 951.5,138.7 951.5,28.8 965.6,21.8 965.6,127.1 988.8,138.7 
			988.8,6.4 		"/>
	</g>
	<g>
		<path class="st1" d="M126.9,4.8l-20.7,10.3c0,0,0,0,0,0l-19.9,10l0,0l-0.9,0.5v1v102v1l0.9,0.5l0,0l19.9,10c0,0,0,0,0,0l0.7,0.4
			l20.7-10.3l0,0l19.9-10l0,0l0.9-0.5v-1V73.8v-1l-0.9-0.5l0,0l-16.9-8.5l16.9-8.5l0,0l0.9-0.5v-1V17.4v-1L126.9,4.8z M125.3,62.8
			l-16.6,8.3V17.6l16.6-8.3V62.8z M108.7,74.9l16.6-8.3v61l-16.6,8.3V74.9z"/>
	</g>
	<g>
		<path class="st1" d="M303.5,25.1C303.5,25.1,303.5,25.1,303.5,25.1l-19.9-10c0,0,0,0,0,0L263,4.8l-0.7,0.4c0,0,0,0,0,0l-19.9,10
			c0,0,0,0,0,0l-0.9,0.5v1v112v1l0.9,0.5l0,0l19.9,10c0,0,0,0,0,0l0.7,0.4l20.6-10.3l0,0l19.9-10c0,0,0,0,0,0l0.9-0.5v-1V26.5v-1
			L303.5,25.1z M264.6,9.3l16.6,8.3v109.9l-16.6,8.3V9.3z"/>
	</g>
	<g>
		<polygon class="st1" points="876.1,74.8 876.1,74.8 856.2,84.8 856.2,84.8 855.2,85.2 855.2,86.3 855.2,127.5 838.7,135.8 
			838.7,9.1 838.7,6.4 836.3,7.6 836.3,7.6 816.4,17.6 816.3,17.6 815.4,18.1 815.4,19.1 815.4,128.8 815.4,129.9 816.4,130.3 
			816.4,130.3 830.5,137.2 837,140.4 857.7,130.1 877.6,120.1 877.6,120.1 878.5,119.6 878.5,118.6 878.5,76.3 878.5,73.6 		"/>
	</g>
	<g>
		<polygon class="st1" points="1064.4,7.6 1064.4,7.6 1044.5,17.6 1044.5,17.6 1043.5,18.1 1043.5,19.1 1043.5,64.9 1026.3,6.8 
			1024.6,7.6 1024.6,7.6 1004.7,17.6 1004.6,17.6 1003.7,18.1 1003.7,19.1 1003.7,126.1 1003.7,127.1 1004.6,127.6 1004.7,127.6 
			1024.6,137.5 1024.6,137.5 1027,138.7 1027,136 1027,20.6 1043.5,76.6 1043.5,126.1 1043.5,127.1 1044.5,127.6 1044.5,127.6 
			1064.4,137.5 1064.4,137.5 1066.8,138.7 1066.8,136 1066.8,9.1 1066.8,6.4 		"/>
	</g>
	<g>
		<polygon class="st1" points="225.5,15.1 225.5,15.1 205.6,5.2 205.6,5.2 204.9,4.8 184.2,15.1 184.2,15.1 164.3,25.1 164.3,25.1 
			163.4,25.5 163.4,26.5 163.4,128.6 163.4,129.6 164.3,130.1 164.3,130.1 184.2,140 184.2,140 185,140.4 205.6,130.1 205.6,130.1 
			225.5,120.1 225.5,120.1 226.5,119.6 226.5,118.6 226.5,88.8 226.5,86.1 224.1,87.3 224.1,87.3 204.1,97.2 204.1,97.2 203.2,97.7 
			203.2,98.7 203.2,127.5 186.6,135.8 186.6,17.6 203.2,9.3 203.2,36.5 203.2,37.5 204.1,38 204.1,38 224.1,47.9 224.1,47.9 
			226.5,49.1 226.5,46.5 226.5,16.6 226.5,15.6 		"/>
	</g>
	<g>
		<path class="st1" d="M69.6,15.1C69.6,15.1,69.6,15.1,69.6,15.1l-19.9-10l0,0l-0.7-0.4L8.4,25.1l0,0l-0.9,0.5v101.6l23.2,11.6V87.3
			L47.3,79v47.1v1l0.9,0.5l0,0l19.9,10c0,0,0,0,0,0l2.4,1.2V136V16.6v-1L69.6,15.1z M30.7,17.6l16.6-8.3v66l-16.6,8.3V17.6z"/>
	</g>
	<g>
		<g>
			<polygon class="st1" points="381.5,15.1 381.5,15.1 361.6,5.2 361.6,5.2 360.8,4.8 340.2,15.1 340.2,15.1 320.3,25.1 320.3,25.1 
				319.4,25.5 319.4,26.5 319.4,128.6 319.4,129.6 320.3,130.1 320.3,130.1 340.2,140 340.2,140 340.9,140.4 361.6,130.1 
				361.6,130.1 381.5,120.1 381.5,120.1 382.4,119.6 382.4,118.6 382.4,93.7 382.4,92.7 381.5,92.2 381.5,92.2 361.6,82.3 
				361.6,82.3 359.2,81.1 359.2,83.8 359.2,127.5 342.6,135.8 342.6,69 359.2,77.3 359.2,55.4 342.6,63.7 342.6,17.6 359.2,9.3 
				359.2,41.5 359.2,42.5 360.1,43 360.1,43 380,52.9 380,52.9 382.4,54.1 382.4,51.4 382.4,16.6 382.4,15.6 			"/>
			<polygon class="st1" points="362.5,78.8 362.1,78.8 362.5,79 			"/>
		</g>
	</g>
	<g>
		<polygon class="st1" points="459.5,15.1 459.5,15.1 439.6,5.2 439.6,5.2 438.8,4.8 418.2,15.1 418.2,15.1 398.3,25.1 398.3,25.1 
			397.3,25.5 397.3,26.5 397.3,126.1 397.3,127.1 398.3,127.6 398.3,127.6 418.2,137.5 418.2,137.5 420.6,138.7 420.6,136 
			420.6,71.5 437.2,79.8 437.2,57.9 420.6,66.2 420.6,17.6 437.2,9.3 437.2,41.5 437.2,42.5 438.1,43 438.1,43 458,52.9 458,52.9 
			460.4,54.1 460.4,51.4 460.4,16.6 460.4,15.6 		"/>
	</g>
	<g>
		<g>
			<g>
				<g>
					<path class="st1" d="M529.2,136"/>
				</g>
			</g>
		</g>
		<g>
			<g>
				<g>
					<path class="st1" d="M529.2,118.6"/>
				</g>
			</g>
		</g>
		<path class="st1" d="M530,15.1C530,15.1,530,15.1,530,15.1l-19.9-10c0,0,0,0,0,0l-0.7-0.4l-20.6,10.3c0,0,0,0,0,0l-19.9,10
			c0,0,0,0,0,0l-0.9,0.5v1v102v1l0.9,0.5c0,0,0,0,0,0l19.9,10c0,0,0,0,0,0l0.7,0.4l20.6-10.3l0,0l19.9-10c0,0,0,0,0,0l0.9-0.5v-1
			V54.5v-2.6l-2.4,1.1h0l-19.9,9.4c0,0,0,0,0,0l0,0l-10.9,5.4v3.7l9.9-5v61l-16.6,8.3v-29.3V74.9v-3.7v-3.6V17.6l16.6-8.3v37.1v2.7
			l2.4-1.2c0,0,0,0,0,0L530,38c0,0,0,0,0,0l0.9-0.5v-1V16.6v-1L530,15.1z"/>
	</g>
	<g>
		<polygon class="st1" points="700.2,17.6 700.2,17.6 682.7,26.3 682.7,30.1 699.3,21.8 699.3,127.5 682.7,135.8 682.7,78.8 
			682.7,53.9 682.7,51.2 680.3,52.4 680.3,52.4 660.4,62.4 660.4,62.4 659.5,62.8 659.5,63.9 659.5,128.6 659.5,129.6 660.4,130.1 
			660.4,130.1 680.3,140 680.3,140 681,140.4 721.6,120.1 722.5,119.6 722.5,6.4 		"/>
	</g>
	<g>
		<path class="st1" d="M69.6,195.1L69.6,195.1l-19.9-10l0,0l-0.7-0.4l-20.6,10.3c0,0,0,0,0,0l-19.9,10c0,0,0,0,0,0l-0.9,0.5v1v102v1
			l0.9,0.5l0,0l19.9,10c0,0,0,0,0,0l0.7,0.4l20.6-10.3l0,0l19.9-10c0,0,0,0,0,0l0.9-0.5v-1v-102v-1L69.6,195.1z M30.7,197.6
			l16.6-8.3v118.2l-16.6,8.3V197.6z"/>
	</g>
	<polygon class="st1" points="525.9,318.7 525.9,186.4 502.7,198.1 502.7,305.2 486.1,315.5 486.1,189.1 486.1,189.1 486.1,186.4 
		483.7,187.6 483.7,187.6 463.8,197.6 463.8,197.6 462.9,198.1 462.9,199.1 462.9,308.6 462.9,309.6 463.8,310.1 463.8,310.1 
		473.7,315 484.5,320.4 485.3,319.9 485.3,319.9 485.3,319.9 504.4,308 	"/>
	<polygon class="st1" points="792.2,186.4 769,198.1 769,242.8 760.7,247 752.4,242.8 752.4,186.4 729.2,198.1 729.2,234.9 
		730.1,235.4 730.1,235.4 757,248.8 752.4,251.1 752.4,251.1 740.8,256.9 730.1,262.3 730.1,262.3 729.2,262.8 729.2,307.1 
		752.4,318.7 752.4,254.9 760.7,250.7 769,254.9 769,307.1 792.2,318.7 792.2,262.8 791.3,262.3 791.3,262.3 764.4,248.8 
		791.3,235.4 791.3,235.4 792.2,234.9 	"/>
	<polygon class="st1" points="844.5,198.1 844.5,265.2 827.9,273.5 827.9,189.1 827.9,186.4 825.5,187.6 825.5,187.6 805.6,197.6 
		805.6,197.6 804.6,198.1 804.6,199.1 804.6,266.3 804.6,267.3 805.6,267.8 805.6,267.8 825.5,277.7 825.5,277.7 826.2,278.1 
		844.5,269 844.5,318.7 867.7,307.1 867.7,186.4 	"/>
	<polygon class="st1" points="601.5,187.6 601.5,187.6 581.6,197.6 581.6,197.6 580.7,198.1 580.7,199.1 580.7,297.9 564.1,314.5 
		564.1,189.1 564.1,186.4 561.7,187.6 561.7,187.6 541.8,197.6 541.8,197.6 540.9,198.1 540.9,199.1 540.9,308.6 540.9,309.6 
		541.8,310.1 541.8,310.1 561.7,320 561.7,320 562.8,320.5 603.9,279.4 603.9,278.7 603.9,189.1 603.9,186.4 	"/>
	<g>
		<path class="st1" d="M126.9,184.8l-18.2,9.1v-7.5l-23.2,11.6v109.1l23.2,11.6v-41.5l19-9.5h0l19.9-10l0,0l0.9-0.5v-1v-59.7v-1
			L126.9,184.8z M108.7,197.6l16.6-8.3v75.9l-16.6,8.3V197.6z"/>
	</g>
	<polygon class="st1" points="455.4,209.5 455.4,181.5 435.6,191.4 435.6,191.4 433,192.7 433,192.7 431.3,193.5 430.6,193.9 
		430.6,193.9 410.7,203.8 410.7,203.8 407.9,205.2 387.4,215.4 387.4,244.8 409.8,208.4 409.8,305.9 433,317.5 433,196.4 433.8,196 
			"/>
	<path class="st1" d="M301,195.1C301,195.1,301,195.1,301,195.1l-19.9-10c0,0,0,0,0,0l-0.7-0.4l-18.2,9.1v-7.5l-23.2,11.6v109.1
		l23.2,11.6v-63.9l16.6-8.3v60.5l23.2,11.6v-65.9l-17.9-8.9l16.9-8.5c0,0,0,0,0,0l0.9-0.5v-1v-37.3v-1L301,195.1z M262.1,197.6
		l16.6-8.3v51.9v1.7l-16.6,8.3V197.6z"/>
	<polygon class="st1" points="714.2,186.4 691,198.1 691,305.2 676.9,315.3 676.9,189.1 676.9,186.4 674.5,187.6 674.5,187.6 
		654.6,197.6 654.6,197.6 653.7,198.1 653.7,199.1 653.7,307.6 639.6,315.7 639.6,189.1 639.6,186.4 637.2,187.6 637.2,187.6 
		617.3,197.6 617.3,197.6 616.3,198.1 616.3,199.1 616.3,308.6 616.3,309.6 617.3,310.1 617.3,310.1 637.2,320 637.2,320 638,320.4 
		655.4,310.5 674.5,320 674.5,320 675.4,320.5 692.8,308 714.2,318.7 	"/>
	<polygon class="st1" points="944.7,195.1 944.7,195.1 924.8,185.2 924.8,185.2 924.1,184.8 903.4,195.1 903.4,195.1 883.5,205.1 
		883.5,205.1 882.6,205.5 882.6,206.5 882.6,243.9 882.6,246.6 885,245.4 885,245.4 904.9,235.4 904.9,235.4 905.8,234.9 
		905.8,233.9 905.8,197.6 922.4,189.3 922.4,242.8 903.4,252.3 903.4,252.3 883.5,262.3 883.5,262.3 882.6,262.8 882.6,263.8 
		882.6,308.6 882.6,309.6 883.5,310.1 883.5,310.1 903.4,320 903.4,320 904.2,320.4 924.8,310.1 924.8,310.1 944.7,300.1 
		944.7,300.1 945.7,299.6 945.7,298.6 945.7,253.8 945.7,251.1 943.3,252.3 943.3,252.3 923.4,262.3 923.4,262.3 922.4,262.8 
		922.4,263.8 922.4,307.5 905.8,315.8 905.8,254.9 944.3,235.6 944.7,235.4 944.7,235.4 945.7,234.9 945.7,233.9 945.7,196.6 
		945.7,195.6 	"/>
	<polygon class="st1" points="379,195.1 379,195.1 359.1,185.2 359.1,185.2 358.4,184.8 340.1,193.9 340.1,193.9 316.9,205.5 
		316.9,266.5 340.1,254.9 356.7,246.6 356.7,307.5 340.1,315.8 340.1,273.7 340.1,271 337.7,272.2 337.7,272.2 317.8,282.2 
		317.8,282.2 316.9,282.7 316.9,283.7 316.9,308.6 316.9,309.6 317.8,310.1 317.8,310.1 337.7,320 337.7,320 338.5,320.4 
		356.7,311.3 379.9,299.6 379.9,231.2 356.7,242.8 340.1,251.1 340.1,197.6 356.7,189.3 356.7,224 356.7,226.7 359.1,225.5 
		359.1,225.5 379,215.5 379,215.5 379.9,215 379.9,214 379.9,196.6 379.9,195.6 	"/>
	<g>
		<path class="st1" d="M231.4,317.7l-24.9-9.3l16.5-8.2c0,0,0,0,0,0l0.9-0.5v-1v-102v-1l-0.9-0.5l0,0l-19.9-10l0,0l-0.7-0.4
			l-20.6,10.3c0,0,0,0,0,0l-19.9,10c0,0,0,0,0,0l-0.9,0.5v1v102v1l0.9,0.5l0,0l19.9,10c0,0,0,0,0,0l0.7,0.4l0.7-0.4l0,0l19.3-9.6
			l28.9,10.9V317.7z M184.2,315.8v-12.3l14.1,5.3L184.2,315.8z M200.7,306.2l-16.6-6.2V197.6l16.6-8.3V306.2z"/>
	</g>
</g>
<g>
	<g>
		<rect x="443" y="450" class="st0" width="78" height="180"/>
	</g>
	<g>
		<rect x="598.9" y="450" class="st0" width="38.2" height="180"/>
	</g>
	<g>
		<polyline class="st0" points="637.1,630 675.2,630 675.2,450 637.1,450 		"/>
	</g>
	<g>
		<rect x="0" y="450" class="st0" width="78" height="180"/>
	</g>
	<g>
		<polyline class="st0" points="78,630 156,630 156,450 78,450 		"/>
	</g>
	<g>
		<rect x="750.7" y="450" class="st0" width="38.2" height="180"/>
	</g>
	<g>
		<rect x="233.9" y="450" class="st0" width="78" height="180"/>
	</g>
	<g>
		<line class="st0" x1="598.9" y1="450" x2="520.9" y2="450"/>
		<line class="st0" x1="520.9" y1="630" x2="598.9" y2="630"/>
	</g>
	<g>
		<rect x="901.7" y="450" class="st0" width="78" height="180"/>
	</g>
	<g>
		<line class="st0" x1="750.7" y1="450" x2="675.2" y2="450"/>
		<line class="st0" x1="675.2" y1="630" x2="750.7" y2="630"/>
	</g>
	<g>
		<polyline class="st0" points="311.9,630 389.9,630 389.9,450 311.9,450 		"/>
	</g>
	<g>
		<line class="st0" x1="901.7" y1="450" x2="788.9" y2="450"/>
		<line class="st0" x1="788.9" y1="630" x2="901.7" y2="630"/>
	</g>
	<g>
		<line class="st0" x1="233.9" y1="450" x2="156" y2="450"/>
		<line class="st0" x1="156" y1="630" x2="233.9" y2="630"/>
	</g>
	<g>
		<line class="st0" x1="443" y1="450" x2="389.9" y2="450"/>
		<line class="st0" x1="389.9" y1="630" x2="443" y2="630"/>
	</g>
	<g>
		<rect x="442.2" y="630" class="st0" width="78" height="180"/>
	</g>
	<g>
		<rect x="708.5" y="630" class="st0" width="78" height="180"/>
	</g>
	<g>
		<polyline class="st0" points="786.5,810 864.5,810 864.5,630 786.5,630 		"/>
	</g>
	<g>
		<rect x="78" y="630" class="st0" width="78" height="180"/>
	</g>
	<g>
		<rect x="233.9" y="630" class="st0" width="70.5" height="180"/>
	</g>
	<g>
		<polyline class="st0" points="708.5,630 595.7,630 595.7,810 708.5,810 		"/>
	</g>
	<g>
		<polyline class="st0" points="442.2,630 382.4,630 382.4,810 442.2,810 		"/>
	</g>
	<g>
		<line class="st0" x1="156" y1="810" x2="233.9" y2="810"/>
		<line class="st0" x1="233.9" y1="630" x2="156" y2="630"/>
	</g>
	<g>
		<line class="st0" x1="304.4" y1="810" x2="382.4" y2="810"/>
		<line class="st0" x1="382.4" y1="630" x2="304.4" y2="630"/>
	</g>
	<g>
		<line class="st0" x1="625.3" y1="630" x2="520.2" y2="630"/>
		<line class="st0" x1="520.2" y1="810" x2="625.3" y2="810"/>
	</g>
	<g>
		<polyline class="st0" points="864.5,810 942.4,810 942.4,630 864.5,630 		"/>
	</g>
	<g>
		<polyline class="st0" points="78,630 0,630 0,810 78,810 		"/>
	</g>
	<g>
		<path class="st1" d="M491.9,494.6l-20.6,10.3l0,0l-19.9,10c0,0,0,0,0,0l-0.9,0.5v1v62.2v1l0.9,0.5c0,0,0,0,0,0l19.9,10
			c0,0,0,0,0,0l0.7,0.4l18.2-9.1v33.6l-16.6,8.3v-19.7v-1l-0.9-0.5c0,0,0,0,0,0l-19.9-10c0,0,0,0,0,0l-2.4-1.2v2.7v22.4v1l0.9,0.5
			c0,0,0,0,0,0l19.9,10c0,0,0,0,0,0l0.7,0.4l20.6-10.3c0,0,0,0,0,0l19.9-10c0,0,0,0,0,0l0.9-0.5v-1v-99.3v-1.3L491.9,494.6z
			 M473.7,585.8v-78.4l16.6-8.3v78.4L473.7,585.8z"/>
	</g>
	<g>
		<g>
			<polygon class="st1" points="606.4,475.5 606.4,499.1 629.6,487.5 629.6,463.9 			"/>
			<polygon class="st1" points="606.4,577.1 629.6,588.7 629.6,496.3 606.4,507.9 			"/>
		</g>
	</g>
	<g>
		<g>
			<polygon class="st1" points="644.6,475.5 644.6,499.1 667.8,487.5 667.8,463.9 			"/>
			<polygon class="st1" points="644.6,628.5 667.8,616.9 667.8,496.3 644.6,507.9 			"/>
		</g>
	</g>
	<g>
		<path class="st1" d="M69.6,504.9C69.6,504.9,69.6,504.9,69.6,504.9l-19.9-10l0,0l-0.7-0.4l-20.6,10.3l0,0l-19.9,10c0,0,0,0,0,0
			l-0.9,0.5v1v17.4v2.7l2.4-1.2c0,0,0,0,0,0l19.9-10l0,0l0.9-0.5v-1v-16.4l16.6-8.3v26.1L27.8,535l-19.4,9.7c0,0,0,0,0,0l-0.9,0.5v1
			v32.3v1l0.9,0.5l0,0l19.9,10l0,0l0.8,0.4L49,578l19.1,9.5c0,0,0,0,0,0l2.4,1.2V586v-79.6v-1L69.6,504.9z M47.3,575.2l-16.6,10.4
			v-48.2l16.6-8.3V575.2z"/>
	</g>
	<g>
		<path class="st1" d="M147.6,504.9L147.6,504.9l-19.9-10l0,0l-0.7-0.4l-18.2,9.1v-49.6v-2.7l-2.4,1.2l0,0l-19.9,10c0,0,0,0,0,0
			l-0.9,0.5v1v114.5v1l0.9,0.5l0,0l19.9,10c0,0,0,0,0,0l0.7,0.4l20.7-10.3l0,0l19.9-10l0,0l0.9-0.5v-1v-62.2v-1L147.6,504.9z
			 M125.3,499.1v78.4l-16.6,8.3v-78.4L125.3,499.1z"/>
	</g>
	<g>
		<polygon class="st1" points="758.2,465.6 758.2,577.1 781.4,588.7 781.4,453.9 		"/>
	</g>
	<g>
		<path class="st1" d="M302,452.7L302,452.7l-19.9,10c0,0,0,0,0,0l-0.9,0.5v1v31.3l-19,9.5l0,0l-19.9,10l0,0l-0.9,0.5v1v62.2v1
			l0.9,0.5l0,0l19.9,10l0,0l0.8,0.4L283,578l19.1,9.5l0,0l2.4,1.2V586V454.2v-2.7L302,452.7z M281.2,575.2l-16.6,10.4v-78.1
			l16.6-8.3V575.2z"/>
	</g>
	<g>
		<polygon class="st1" points="590.5,504.9 590.5,504.9 570.6,495 570.6,495 569.9,494.6 551.6,503.7 551.6,456.6 551.6,453.9 
			549.2,455.2 549.2,455.2 529.3,465.1 529.3,465.1 528.4,465.6 528.4,466.6 528.4,576.1 528.4,577.1 529.3,577.6 529.3,577.6 
			549.2,587.5 549.2,587.5 551.6,588.7 551.6,586 551.6,507.4 568.2,499.1 568.2,576.1 568.2,577.1 569.1,577.6 569.1,577.6 
			589.1,587.5 589.1,587.5 591.5,588.7 591.5,586 591.5,506.4 591.5,505.4 		"/>
	</g>
	<g>
		<polygon class="st1" points="971.3,504.9 971.3,504.9 951.4,495 951.4,495 950.7,494.6 932.4,503.7 932.4,498.9 932.4,496.3 
			930,497.5 930,497.5 910.1,507.4 910.1,507.4 909.2,507.9 909.2,508.9 909.2,576.1 909.2,577.1 910.1,577.6 910.1,577.6 
			930,587.5 930,587.5 932.4,588.7 932.4,586 932.4,507.4 949,499.1 949,576.1 949,577.1 949.9,577.6 949.9,577.6 969.8,587.5 
			969.8,587.5 972.2,588.7 972.2,586 972.2,506.4 972.2,505.4 		"/>
	</g>
	<g>
		<polygon class="st1" points="745.8,505.4 722.5,493.8 722.5,533.6 722.5,535.2 705.9,543.5 705.9,453.9 682.7,465.6 682.7,577.1 
			705.9,588.7 705.9,547.2 722.5,539 722.5,577.1 745.8,588.7 745.8,545.2 727.9,536.3 745.8,527.3 		"/>
	</g>
	<g>
		<path class="st1" d="M381.5,504.9C381.5,504.9,381.5,504.9,381.5,504.9l-19.9-10c0,0,0,0,0,0l-0.7-0.4l-20.6,10.3l0,0l-19.9,10
			c0,0,0,0,0,0l-0.9,0.5v1v62.2v1l0.9,0.5l0,0l19.9,10c0,0,0,0,0,0l0.7,0.4l20.6-10.3c0,0,0,0,0,0l19.9-10c0,0,0,0,0,0l0.9-0.5v-1
			v-17.4v-1l-0.9-0.5c0,0,0,0,0,0l-19.9-10c0,0,0,0,0,0l-2.4-1.2v2.7v36.3l-16.6,8.3v-43.6l19-9.5c0,0,0,0,0,0l19.9-10c0,0,0,0,0,0
			l0.9-0.5v-1v-14.9v-1L381.5,504.9z M342.6,507.4l16.6-8.3v31.1l-16.6,8.3V507.4z"/>
	</g>
	<g>
		<polygon class="st1" points="893.3,504.9 893.3,504.9 873.4,495 873.4,495 872.6,494.6 855.2,504.5 836.1,495 836.1,495 
			835.3,494.6 819.6,503.5 819.6,496.3 796.4,507.9 796.4,513.9 796.4,577.1 819.6,588.7 819.6,507.4 833.7,499.3 833.7,513.9 
			833.7,576.1 833.7,577.1 834.6,577.6 834.6,577.6 854.5,587.5 854.5,587.5 856.9,588.7 856.9,586 856.9,516.4 856.9,507.4 
			871,499.3 871,576.1 871,577.1 871.9,577.6 871.9,577.6 891.8,587.5 891.8,587.5 894.2,588.7 894.2,586 894.2,506.4 894.2,505.4 
					"/>
	</g>
	<g>
		<polygon class="st1" points="225.5,504.9 225.5,504.9 205.6,495 205.6,495 204.9,494.6 184.2,504.9 184.2,504.9 164.3,514.9 
			164.3,514.9 163.4,515.3 163.4,516.4 163.4,578.6 163.4,579.6 164.3,580.1 164.3,580.1 184.2,590 184.2,590 185,590.4 185.7,590 
			185.7,590 205.6,580.1 205.6,580.1 225.5,570.1 225.5,570.1 226.5,569.6 226.5,568.6 226.5,546.2 226.5,543.5 224.1,544.7 
			224.1,544.7 204.2,554.7 204.1,554.7 203.2,555.1 203.2,556.2 203.2,577.5 186.6,585.8 186.6,507.4 203.2,499.1 203.2,518.8 
			203.2,519.9 204.1,520.3 204.2,520.3 224.1,530.3 224.1,530.3 226.5,531.5 226.5,528.8 226.5,506.4 226.5,505.4 		"/>
	</g>
	<g>
		<polygon class="st1" points="440.6,455.2 440.6,455.2 400.8,475.1 400.8,475.1 399.8,475.5 399.8,476.5 399.8,535.2 389.9,540.2 
			389.9,543.9 399.8,539 399.8,576.1 399.8,577.1 400.8,577.6 400.8,577.6 420.7,587.5 420.7,587.5 423.1,588.7 423.1,586 
			423.1,527.3 443,517.4 443,513.7 423.1,523.6 423.1,469.3 440.6,478 440.6,478 443,479.2 443,476.5 443,456.6 443,453.9 		"/>
	</g>
	<g>
		<polygon class="st1" points="510.3,677.5 510.3,677.5 490.4,687.4 490.4,687.4 489.5,687.9 489.5,688.9 489.5,755.2 472.9,765.5 
			472.9,678.9 472.9,676.3 470.5,677.5 470.5,677.5 450.6,687.4 450.6,687.4 449.7,687.9 449.7,688.9 449.7,758.6 449.7,759.6 
			450.6,760.1 450.6,760.1 470.5,770 470.5,770 471.4,770.4 472.1,769.9 472.1,769.9 472.1,769.9 491.3,758 510.3,767.5 
			510.3,767.5 512.7,768.7 512.7,766 512.7,678.9 512.7,676.3 		"/>
	</g>
	<g>
		<polygon class="st1" points="779,676.3 755.8,687.9 755.8,715.2 747.5,719.4 739.2,715.2 739.2,676.3 716,687.9 716,707.3 
			716.9,707.8 716.9,707.8 743.8,721.2 716.9,734.7 716.9,734.7 716,735.1 716,757.1 739.2,768.7 739.2,727.2 747.5,723.1 
			755.8,727.2 755.8,757.1 779,768.7 779,735.1 778.1,734.7 778.1,734.7 751.2,721.2 778.1,707.8 778.1,707.8 779,707.3 		"/>
	</g>
	<g>
		<polygon class="st1" points="857,676.3 833.8,687.9 833.8,757.5 817.2,765.8 817.2,678.9 817.2,676.3 814.8,677.5 814.8,677.5 
			794.9,687.4 794.9,687.4 794,687.9 794,688.9 794,758.6 794,759.6 794.9,760.1 794.9,760.1 814.8,770 814.8,770 815.5,770.4 
			816.3,770 816.3,770 833.8,761.3 833.8,794.9 817.2,803.2 817.2,783.5 817.2,782.4 816.3,782 816.3,782 796.4,772 796.4,772 
			794,770.8 794,773.5 794,795.9 794,796.9 794.9,797.4 794.9,797.4 814.8,807.3 814.8,807.3 815.5,807.7 856.1,787.4 856.1,787.4 
			857,787 		"/>
	</g>
	<g>
		<g>
			<g>
				<path class="st1" d="M599,746.1"/>
			</g>
		</g>
	</g>
	<g>
		<path class="st1" d="M147.6,684.9C147.6,684.9,147.6,684.9,147.6,684.9l-7.5-3.7l0,0l-12.4-6.2c0,0,0,0,0,0l-0.7-0.4l-18.2,9.1
			v-7.5l-23.2,11.6v109.1l23.2,11.6v-39l19-9.5l19.9-10c0,0,0,0,0,0l0.9-0.5v-1v-62.2v-1L147.6,684.9z M125.3,679.1v78.4l-16.6,8.3
			v-78.4L125.3,679.1z"/>
	</g>
	<g>
		<polygon class="st1" points="303.5,684.9 303.5,684.9 283.6,675 283.6,675 282.9,674.6 264.6,683.7 264.6,678.9 264.6,676.3 
			262.2,677.5 262.2,677.5 242.3,687.4 242.3,687.4 241.4,687.9 241.4,688.9 241.4,756.1 241.4,757.1 242.3,757.6 242.3,757.6 
			262.2,767.5 262.2,767.5 264.6,768.7 264.6,766 264.6,691.4 264.6,687.4 281.2,679.1 281.2,701.3 281.2,702.4 282.1,702.8 
			282.1,702.8 302,712.8 302,712.8 304.4,714 304.4,711.3 304.4,686.4 304.4,685.4 		"/>
	</g>
	<g>
		<polygon class="st1" points="698.6,677.5 698.6,677.5 678.7,687.4 678.7,687.4 677.8,687.9 677.8,688.9 677.8,755.2 663.7,765.3 
			663.7,678.9 663.7,676.3 661.3,677.5 661.3,677.5 641.4,687.4 641.4,687.4 640.5,687.9 640.5,688.9 640.5,757.6 626.4,765.7 
			626.4,678.9 626.4,676.3 624,677.5 624,677.5 604.1,687.4 604.1,687.4 603.2,687.9 603.2,688.9 603.2,758.6 603.2,759.6 
			604.1,760.1 604.1,760.1 624,770 624,770 624.8,770.4 642.2,760.5 661.3,770 661.3,770 662.2,770.5 679.6,758 698.6,767.5 
			698.6,767.5 701,768.7 701,766 701,678.9 701,676.3 		"/>
	</g>
	<g>
		<polygon class="st1" points="442.2,671.3 422.3,681.2 422.3,643.9 399.1,655.5 399.1,692.8 382.4,701.1 382.4,727.6 399.1,698.5 
			399.1,757.1 422.3,768.7 422.3,686.1 442.2,696.4 		"/>
	</g>
	<g>
		<path class="st1" d="M225.5,684.9L225.5,684.9l-19.9-10c0,0,0,0,0,0l-0.7-0.4l-20.6,10.3l0,0l-19.9,10c0,0,0,0,0,0l-0.9,0.5v1
			v62.2v1l0.9,0.5c0,0,0,0,0,0l19.9,10c0,0,0,0,0,0l0.7,0.4l18.2-9.1v34.6v1l0.9,0.5l0,0l19.9,10l0,0l2.4,1.2v-2.7v-102v-17.4v-1
			L225.5,684.9z M186.6,765.8v-78.4l16.6-8.3v76.9v1.5L186.6,765.8z"/>
	</g>
	<g>
		<polygon class="st1" points="374,684.9 374,684.9 354.1,675 354.1,675 353.4,674.6 352.6,675 352.6,675 312.8,694.9 312.8,694.9 
			311.9,695.3 311.9,738.9 314.3,737.7 314.3,737.7 351.7,719 351.7,757.5 335.1,765.8 335.1,738.7 335.1,736 332.7,737.2 
			332.7,737.2 312.8,747.1 312.8,747.1 311.9,747.6 311.9,748.6 311.9,758.6 311.9,759.6 312.8,760.1 312.8,760.1 332.7,770 
			332.7,770 333.5,770.4 334.2,770 334.2,770 351.7,761.3 351.7,761.3 358.9,757.7 374,750.1 374,750.1 374.9,749.6 374.9,703.6 
			352.6,714.8 352.6,714.8 335.1,723.5 335.1,687.4 351.7,679.1 351.7,703.8 351.7,706.5 354.1,705.3 354.1,705.3 374,695.4 
			374,695.4 374.9,694.9 374.9,693.9 374.9,686.4 374.9,685.4 		"/>
	</g>
	<g>
		<polygon class="st1" points="588.3,677.5 588.3,677.5 568.4,687.4 568.4,687.4 567.5,687.9 567.5,688.9 567.5,746.1 567.5,746.7 
			550.9,764.3 550.9,678.9 550.9,676.3 548.5,677.5 548.5,677.5 528.6,687.4 528.6,687.4 527.7,687.9 527.7,688.9 527.7,758.6 
			527.7,759.6 528.6,760.1 528.6,760.1 548.5,770 548.5,770 549.6,770.6 550.4,769.7 550.4,769.7 590.7,726.9 590.7,726.2 
			590.7,678.9 590.7,676.3 		"/>
	</g>
	<g>
		<polygon class="st1" points="934.1,684.9 934.1,684.9 914.1,675 914.1,675 913.4,674.6 872.8,694.9 872.8,694.9 871.9,695.3 
			871.9,726.4 895.2,714.8 895.2,687.4 911.7,679.1 911.7,715.2 892.8,724.7 892.8,724.7 872.8,734.7 872.8,734.7 871.9,735.1 
			871.9,736.2 871.9,758.6 871.9,759.6 872.8,760.1 872.8,760.1 892.8,770 892.8,770 893.5,770.4 911.7,761.3 911.7,761.3 
			923.4,755.5 934.1,750.1 934.1,750.1 935,749.6 935,716.1 911.7,727.7 911.7,757.5 895.2,765.8 895.2,727.2 914.1,717.8 
			934.1,707.8 934.1,707.8 935,707.3 935,706.3 935,686.4 935,685.4 		"/>
	</g>
	<g>
		<path class="st1" d="M69.6,684.9L69.6,684.9l-19.9-10c0,0,0,0,0,0l-0.7-0.4l-20.6,10.3l0,0l-19.9,10c0,0,0,0,0,0l-0.9,0.5v1v62.2
			v1l0.9,0.5c0,0,0,0,0,0l19.9,10c0,0,0,0,0,0l0.7,0.4l20.6-10.3l0,0l19.9-10l0,0l0.9-0.5v-1v-62.2v-1L69.6,684.9z M30.7,687.4
			l16.6-8.3v78.4l-16.6,8.3V687.4z"/>
	</g>
</g>
<g>
	<rect x="818.3" y="900" class="st0" width="38.2" height="180"/>
	<polyline class="st0" points="818.3,900 750.3,900 750.3,1080 818.3,1080 	"/>
	<g>
		<rect x="128.6" y="900" class="st0" width="78" height="180"/>
	</g>
	<g>
		<rect x="594.3" y="900" class="st0" width="78" height="180"/>
	</g>
	<g>
		<line class="st0" x1="750.3" y1="900" x2="672.3" y2="900"/>
		<line class="st0" x1="672.3" y1="1080" x2="750.3" y2="1080"/>
	</g>
	<g>
		<polyline class="st0" points="594.3,900 518.9,900 518.9,1080 594.3,1080 		"/>
	</g>
	<g>
		<rect x="362.9" y="900" class="st0" width="78" height="180"/>
	</g>
	<g>
		<line class="st0" x1="518.9" y1="900" x2="440.9" y2="900"/>
		<line class="st0" x1="440.9" y1="1080" x2="518.9" y2="1080"/>
	</g>
	<g>
		<rect x="0" y="900" class="st0" width="78" height="180"/>
	</g>
	<g>
		<line class="st0" x1="78" y1="1080" x2="128.6" y2="1080"/>
		<line class="st0" x1="128.6" y1="900" x2="78" y2="900"/>
	</g>
	<g>
		<polyline class="st0" points="206.6,1080 284.5,1080 284.5,900 206.6,900 		"/>
	</g>
	<g>
		<line class="st0" x1="362.5" y1="900" x2="284.5" y2="900"/>
		<line class="st0" x1="284.5" y1="1080" x2="362.5" y2="1080"/>
	</g>
	<g>
		<polygon class="st1" points="825.8,915.6 825.8,1006.4 849,994.8 849,903.9 		"/>
		<polygon class="st1" points="825.8,1038.7 849,1027.1 849,1003.5 825.8,1015.1 		"/>
	</g>
	<g>
		<polygon class="st1" points="770.2,1038.7 793.4,1027.1 793.4,1003.5 770.2,1015.1 		"/>
		<polygon class="st1" points="812.4,915.1 812.4,915.1 792.5,905.2 792.5,905.2 791.8,904.8 751.2,925.1 751.2,925.1 750.3,925.5 
			750.3,956.6 773.5,945 773.5,917.6 790.1,909.3 790.1,962.8 771.1,972.3 771.1,972.3 770.2,972.8 770.2,1006.4 793.4,994.8 
			793.4,964.9 812.4,955.4 812.4,955.4 813.3,954.9 813.3,953.9 813.3,916.6 813.3,915.6 		"/>
	</g>
	<g>
		<polygon class="st1" points="198.2,915.1 198.2,915.1 178.3,905.2 178.3,905.2 177.5,904.8 156.9,915.1 156.9,915.1 137,925.1 
			137,925.1 136,925.5 136,926.5 136,963.9 136,966.6 138.4,965.4 138.4,965.4 158.4,955.4 158.4,955.4 159.3,954.9 159.3,953.9 
			159.3,917.6 175.9,909.3 175.9,962.8 156.9,972.3 156.9,972.3 137,982.3 137,982.3 136,982.8 136,983.8 136,1028.6 136,1029.6 
			137,1030.1 137,1030.1 156.9,1040 156.9,1040 157.6,1040.4 178.3,1030.1 178.3,1030.1 198.2,1020.1 198.2,1020.1 199.1,1019.6 
			199.1,1018.6 199.1,973.8 199.1,971.1 196.7,972.3 196.7,972.3 176.8,982.3 176.8,982.3 175.9,982.8 175.9,983.8 175.9,1027.5 
			159.3,1035.8 159.3,974.9 197.7,955.6 198.2,955.4 198.2,955.4 199.1,954.9 199.1,953.9 199.1,916.6 199.1,915.6 		"/>
	</g>
	<g>
		<path class="st1" d="M663.9,915.1C663.9,915.1,663.9,915.1,663.9,915.1l-19.9-10c0,0,0,0,0,0l-0.7-0.4l-38.2,19.1l-2.4,1.2v0
			l-0.9,0.5v1v34.8v1l0.9,0.5c0,0,0,0,0,0l16.9,8.5l-16.9,8.5c0,0,0,0,0,0l-0.9,0.5v1v47.3v1l0.9,0.5c0,0,0,0,0,0l19.9,10
			c0,0,0,0,0,0l0.7,0.4l20.6-10.3l0,0l19.9-10c0,0,0,0,0,0l0.9-0.5v-1v-47.3v-1l-12.6-6.3l-5.2-2.6l16.9-8.5c0,0,0,0,0,0l0.9-0.5v-1
			v-34.8v-1L663.9,915.1z M625,968.6v-51l16.6-8.3v51L625,968.6z M625,972.4l0.1-0.1l16.5-8.2v63.5l-16.6,8.3V972.4z"/>
	</g>
	<g>
		<path class="st1" d="M741.9,915.1C741.9,915.1,741.9,915.1,741.9,915.1l-19.9-10c0,0,0,0,0,0l-0.7-0.4l-20.7,10.3l0,0l-19.9,10
			l0,0l-0.9,0.5v1v37.3v1l0.9,0.5l0,0l19.9,10l0,0l0.7,0.4l18.2-9.1v61l-16.6,8.3v-49.6v-2.7l-2.4,1.2l0,0l-19.9,10l0,0l-0.9,0.5v1
			v32.3v1l0.9,0.5l0,0l19.9,10l0,0l0.7,0.4l20.7-10.3l0,0l19.9-10l0,0l0.9-0.5v-1v-64.7v-37.3v-1L741.9,915.1z M703,917.6l16.6-8.3
			v53.5l-16.6,8.3V917.6z"/>
	</g>
	<g>
		<polygon class="st1" points="587.1,915 566.7,904.8 526.2,925.1 526.2,925.1 525.2,925.5 525.2,954.1 548.5,942.5 548.5,917.6 
			564.5,909.6 539.6,1041.5 565.6,1028.5 565.8,1027.7 565.8,1027.7 586.9,916.2 586.9,916.2 		"/>
	</g>
	<g>
		<polygon class="st1" points="432.5,915.1 432.5,915.1 412.6,905.2 412.6,905.2 411.8,904.8 383.9,918.8 370.4,925.5 370.4,925.5 
			370.4,986.5 393.6,974.9 393.6,974.9 410.2,966.6 410.2,1027.5 393.6,1035.8 393.6,993.7 393.6,991 391.2,992.2 391.2,992.2 
			371.3,1002.2 371.3,1002.2 370.4,1002.7 370.4,1003.7 370.4,1028.6 370.4,1029.6 371.3,1030.1 371.3,1030.1 391.2,1040 
			391.2,1040 391.9,1040.4 412.6,1030.1 412.6,1030.1 432.5,1020.1 432.5,1020.1 433.4,1019.6 433.4,1018.6 433.4,973.8 
			433.4,972.8 432.5,972.3 432.5,972.3 412.6,962.4 412.6,962.4 411.8,962 393.6,971.1 393.6,917.6 410.2,909.3 410.2,944 
			410.2,946.7 412.6,945.5 412.6,945.5 432.5,935.5 432.5,935.5 433.4,935 433.4,934 433.4,916.6 433.4,915.6 		"/>
	</g>
	<g>
		<path class="st1" d="M510.5,915.1L510.5,915.1l-19.9-10c0,0,0,0,0,0l-0.7-0.4l-20.6,10.3l0,0l-19.9,10c0,0,0,0,0,0l-0.9,0.5v1v102
			v1l0.9,0.5c0,0,0,0,0,0l19.9,10c0,0,0,0,0,0l0.7,0.4l20.6-10.3c0,0,0,0,0,0l19.9-10l0,0l0.9-0.5v-1v-44.8v-1l-0.9-0.5c0,0,0,0,0,0
			l-19.9-10c0,0,0,0,0,0l-0.7-0.4l-18.2,9.1v-53.5l16.6-8.3v37.1v2.7l2.4-1.2l0,0l19.9-10l0,0l0.9-0.5v-1v-19.9v-1L510.5,915.1z
			 M488.2,966.6v61l-16.6,8.3v-61L488.2,966.6z"/>
	</g>
	<g>
		<path class="st1" d="M69.6,915.1L69.6,915.1l-19.9-10c0,0,0,0,0,0l-0.7-0.4l-20.6,10.3l0,0l-19.9,10c0,0,0,0,0,0l-0.9,0.5v1v102v1
			l0.9,0.5c0,0,0,0,0,0l19.9,10c0,0,0,0,0,0l0.7,0.4l20.6-10.3c0,0,0,0,0,0l19.9-10l0,0l0.9-0.5v-1v-102v-1L69.6,915.1z M30.7,917.6
			l16.1-8.1l-16.1,106.8V917.6z M47.3,928.8v98.8l-16.1,8.1L47.3,928.8z"/>
	</g>
	<g>
		<polygon class="st1" points="98.8,917.6 98.8,917.6 80.4,926.8 80.4,930.5 97.9,921.8 97.9,1038.7 121.1,1027.1 121.1,906.4 		"/>
	</g>
	<g>
		<polygon class="st1" points="276.1,915.1 276.1,915.1 256.2,905.2 256.2,905.2 255.5,904.8 234.8,915.1 234.8,915.1 214.9,925.1 
			214.9,925.1 214,925.5 214,926.5 214,951.4 214,954.1 216.4,952.9 216.4,952.9 236.3,943 236.3,943 237.3,942.5 237.3,941.5 
			237.3,917.6 253.8,909.3 253.8,963.7 237.3,955.4 237.3,977.3 253.8,969 253.8,1027.5 237.3,1035.8 237.3,988.8 237.3,986.1 
			234.8,987.3 234.8,987.3 214.9,997.2 214.9,997.2 214,997.7 214,998.7 214,1028.6 214,1029.6 214.9,1030.1 214.9,1030.1 
			234.8,1040 234.8,1040 235.6,1040.4 256.2,1030.1 256.2,1030.1 276.1,1020.1 276.1,1020.1 277.1,1019.6 277.1,1018.6 277.1,976.3 
			277.1,975.3 276.1,974.8 276.1,974.8 259.2,966.4 276.1,957.9 276.1,957.9 277.1,957.4 277.1,956.4 277.1,916.6 277.1,915.6 		"/>
	</g>
	<g>
		<polygon class="st1" points="362.5,968.6 352.6,973.6 352.6,906.4 329.3,918.1 329.3,985.2 312.7,993.5 312.7,990 312.7,909.1 
			312.7,906.4 310.3,907.6 310.3,907.6 290.4,917.6 290.4,917.6 289.5,918.1 289.5,919.1 289.5,986.3 289.5,987.3 290.4,987.8 
			290.4,987.8 310.3,997.7 310.3,997.7 311.1,998.1 329.3,989 329.3,1038.7 352.6,1027.1 352.6,977.3 362.5,972.4 		"/>
	</g>
	<g>
		<rect x="375.4" y="1080" class="st0" width="75.5" height="180"/>
	</g>
	<g>
		<polyline class="st0" points="863.2,1260 941.2,1260 941.2,1080 863.2,1080 		"/>
	</g>
	<g>
		<polyline class="st0" points="941.2,1260 1019.1,1260 1019.1,1080 941.2,1080 		"/>
	</g>
	<g>
		<polyline class="st0" points="589.4,1080 526.4,1080 526.4,1260 589.4,1260 		"/>
	</g>
	<g>
		<rect x="285" y="1080" class="st0" width="90.4" height="180"/>
	</g>
	<g>
		<rect x="589.4" y="1080" class="st0" width="65.5" height="180"/>
	</g>
	<g>
		<polyline class="st0" points="655,1260 745.4,1260 745.4,1080 655,1080 		"/>
	</g>
	<g>
		<polyline class="st0" points="745.4,1260 863.2,1260 863.2,1080 745.4,1080 		"/>
	</g>
	<g>
		<rect x="0" y="1080" class="st0" width="50.6" height="180"/>
	</g>
	<g>
		<polyline class="st0" points="108.7,1080 58.1,1080 58.1,1260 108.7,1260 		"/>
	</g>
	<g>
		<rect x="186.6" y="1080" class="st0" width="98.4" height="180"/>
	</g>
	<g>
		<polyline class="st0" points="526.4,1260 450.9,1260 450.9,1080 526.4,1080 		"/>
	</g>
	<g>
		<polygon class="st1" points="425.5,1095.4 381.3,1220.2 400.9,1207.2 444.8,1085.8 		"/>
	</g>
	<g>
		<polygon class="st1" points="930,1147.2 903.8,1147.2 903.8,1125.2 900.5,1125.2 900.5,1147.2 883.8,1147.2 874.3,1163 
			900.5,1163 900.5,1184.9 903.8,1184.9 903.8,1163 920.5,1163 		"/>
	</g>
	<g>
		<g>
			<polygon class="st1" points="1008,1134.7 961.8,1134.7 952.3,1150.5 998.5,1150.5 			"/>
			<polygon class="st1" points="952.3,1175.4 998.5,1175.4 1008,1159.6 961.8,1159.6 			"/>
		</g>
	</g>
	<g>
		<polygon class="st1" points="577.8,1121.3 582.7,1116.5 577.8,1111.7 574.6,1114.8 562.9,1114.8 573.7,1106.8 573.7,1100.8 
			567.6,1100.8 559.6,1111.5 559.6,1099.8 562.8,1096.6 557.9,1091.8 553.1,1096.6 556.3,1099.8 556.3,1111.5 548.2,1100.8 
			542.2,1100.8 542.2,1106.8 552.9,1114.8 541.2,1114.8 538,1111.7 533.2,1116.5 538,1121.3 541.2,1118.2 552.9,1118.2 
			542.2,1126.2 542.2,1132.2 548.2,1132.2 556.3,1121.5 556.3,1133.2 553.1,1136.4 557.9,1141.2 562.8,1136.4 559.6,1133.2 
			559.6,1121.5 567.6,1132.2 573.7,1132.2 573.7,1126.2 562.9,1118.2 574.6,1118.2 		"/>
	</g>
	<g>
		<g>
			<polygon class="st1" points="342.6,1095.4 298.4,1220.2 317.9,1207.2 361.8,1085.8 			"/>
			<path class="st1" d="M303.3,1142.9L303.3,1142.9l0.7,0.4l10.8-5.4l9.9-4.9l0,0l0.9-0.5v-1V1114v-1l-0.9-0.5l0,0l-10-5l0,0
				l-0.7-0.4l-10.7,5.3l0,0l-10,5l0,0l-0.9,0.5v1v17.4v1l0.9,0.5l0,0L303.3,1142.9z M312.4,1135.4l-6.6,3.3V1115l6.6-3.3V1135.4z"/>
			<path class="st1" d="M367,1167.3L367,1167.3l-10-5c0,0,0,0,0,0l-0.7-0.4l-10.7,5.3l0,0l-10,5l0,0l-0.9,0.5v1v17.4v1l0.9,0.5
				c0,0,0,0,0,0l10,5c0,0,0,0,0,0l0.7,0.4l10.7-5.3l0,0l10-5l0,0l0.9-0.5v-1v-17.4v-1L367,1167.3z M348,1169.8l6.6-3.3v23.7
				l-6.6,3.3V1169.8z"/>
		</g>
	</g>
	<g>
		<polygon class="st1" points="605.1,1147.2 595.6,1163 639.3,1163 648.8,1147.2 		"/>
	</g>
	<g>
		<polygon class="st1" points="670.6,1147.2 661.2,1163 729.7,1163 739.2,1147.2 		"/>
	</g>
	<g>
		<polygon class="st1" points="836.8,1147.2 761,1147.2 761,1147.2 760.5,1148 751.6,1163 847.5,1163 857,1147.2 		"/>
	</g>
	<g>
		<polygon class="st1" points="50.6,1225 49.7,1224.5 30.7,1215 30.7,1097.6 49.7,1088.1 50.6,1087.7 50.6,1083.9 48.2,1085.2 
			28.3,1095.1 28.3,1095.1 7.5,1105.5 7.5,1207.1 28.3,1217.5 28.3,1217.5 48.2,1227.5 50.6,1228.7 		"/>
	</g>
	<g>
		<polygon class="st1" points="101.2,1105.5 80.4,1095.1 80.4,1095.1 60.5,1085.2 58.1,1083.9 58.1,1087.7 59,1088.1 78,1097.6 
			78,1215 59,1224.5 58.1,1225 58.1,1228.7 60.5,1227.5 80.4,1217.5 80.4,1217.5 101.2,1207.1 		"/>
	</g>
	<g>
		<path class="st1" d="M285,1216.9v-4.8l-17.9-18.9v-47l-23.2,11.6v10.9l-25.4-26.8l12.9-6.5l10-5l5-2.5c0,0,0,0,0,0l0.9-0.5v-1
			v-29.9v-0.9l-16.5-11l-29.9,15l-0.8,0.4v0l-0.9,0.5v1v24.9v0.7l13.8,13.8l-17.8,8.9c0,0,0,0,0,0l-0.9,0.5v1v57.2v1l0.9,0.5l0,0
			l19.9,10c0,0,0,0,0,0l0.7,0.4l40.6-20.3l0,0l8.7-4.4L285,1216.9z M217.3,1095.1l11.6-5.8v43.6l-11.6,5.8V1095.1z M243.9,1202.6
			l-26.5,13.3v-70.3l26.5,28V1202.6z"/>
	</g>
	<g>
		<polygon class="st1" points="476.3,1095.4 520.5,1220.2 501,1207.2 457.1,1085.8 		"/>
	</g>
	<g>
		<g>
			<polyline class="st0" points="186.6,1260 108.7,1260 108.7,1080 186.6,1080 			"/>
		</g>
		<g>
			<path class="st1" d="M178.3,1095.1L178.3,1095.1l-19.9-10c0,0,0,0,0,0l-0.7-0.4l-8.3,4.1v-6.2l-3.3,1.7v6.2l-16.4,8.2l-13.5,6.8
				v0v60.9l23.2-11.6l6.6-3.3v61l-6.6,3.3v-42.1v-2.7l-2.4,1.2c0,0,0,0,0,0l-19.9,10c0,0,0,0,0,0l-0.9,0.5v1v24.9v1l0.9,0.5
				c0,0,0,0,0,0l19.9,10c0,0,0,0,0,0l0.7,0.4l8.3-4.1v6.2l3.3-1.7v-6.2l29.9-14.9v-68.4l-23.2,11.6v0l-6.6,3.3v-53.5l6.6-3.3v34.6
				v2.7l2.4-1.2l0,0l19.9-10c0,0,0,0,0,0l0.9-0.5v-1v-17.4v-1L178.3,1095.1z M146,1147.8l-6.6,3.3v-53.5l6.6-3.3V1147.8z
				 M156,1146.6v61l-6.6,3.3v-61L156,1146.6z"/>
		</g>
	</g>
	<rect x="856.5" y="900" class="st0" width="38.2" height="180"/>
	<rect x="971" y="900" class="st0" width="38.2" height="180"/>
	<g>
		<polyline class="st0" points="894.6,1080 932.8,1080 932.8,900 894.6,900 		"/>
	</g>
	<g>
		<line class="st0" x1="932.8" y1="1080" x2="971" y2="1080"/>
		<line class="st0" x1="971" y1="900" x2="932.8" y2="900"/>
	</g>
	<g>
		<polygon class="st1" points="863.9,1015.1 863.9,1038.7 887.2,1027.1 887.2,1003.5 		"/>
	</g>
	<g>
		<g>
			<polygon class="st1" points="978.4,965.3 978.4,989 1001.7,977.3 1001.7,953.7 			"/>
			<polygon class="st1" points="978.4,1038.7 1001.7,1027.1 1001.7,1003.5 978.4,1015.1 			"/>
		</g>
	</g>
	<g>
		<polygon class="st1" points="902.1,1015.1 902.1,1038.7 922,1028.8 922,1040 902.1,1049.9 902.1,1053.7 925.3,1042 925.3,1027.1 
			925.3,1026.1 925.3,1003.5 		"/>
	</g>
	<g>
		<polygon class="st1" points="940.3,965.3 940.3,989 963.5,977.3 963.5,953.7 		"/>
		<polygon class="st1" points="940.3,1015.1 940.3,1038.7 960.2,1028.8 960.2,1040 940.3,1049.9 940.3,1053.7 963.5,1042 
			963.5,1027.1 963.5,1026.1 963.5,1003.5 		"/>
	</g>
	<g>
		<g>
			<path class="st0" d="M0,1260"/>
			<rect x="0" y="1260" class="st0" width="65.5" height="180"/>
		</g>
		<g>
			<line class="st0" x1="65.5" y1="1440" x2="136" y2="1440"/>
			<line class="st0" x1="136" y1="1260" x2="70.5" y2="1260"/>
		</g>
		<g>
			<rect x="131.1" y="1260" class="st0" width="38.2" height="180"/>
		</g>
		<g>
			<polyline class="st0" points="169.2,1440 207.4,1440 207.4,1260 169.2,1260 			"/>
		</g>
		<g>
			<polygon class="st1" points="10.8,1280.1 30.7,1270.2 30.7,1266.4 7.5,1278.1 7.5,1293 7.5,1294 7.5,1316.6 30.7,1305 
				30.7,1281.4 10.8,1291.3 			"/>
			<polygon class="st1" points="38.2,1280.1 58.1,1270.2 58.1,1266.4 34.8,1278.1 34.8,1293 34.8,1294 34.8,1316.6 58.1,1305 
				58.1,1281.4 38.2,1291.3 			"/>
		</g>
		<g>
			<polygon class="st1" points="92.9,1302.9 73,1312.9 73,1316.6 96.2,1305 96.2,1290.1 96.2,1289 96.2,1266.4 73,1278.1 73,1301.7 
				92.9,1291.7 			"/>
			<polygon class="st1" points="120.3,1302.9 100.4,1312.9 100.4,1316.6 123.6,1305 123.6,1290.1 123.6,1289 123.6,1266.4 
				100.4,1278.1 100.4,1301.7 120.3,1291.7 			"/>
		</g>
		<g>
			<polygon class="st1" points="141.9,1280.1 161.8,1270.2 161.8,1266.4 138.5,1278.1 138.5,1293 138.5,1294 138.5,1316.6 
				161.8,1305 161.8,1281.4 141.9,1291.3 			"/>
		</g>
		<g>
			<polygon class="st1" points="176.7,1316.6 176.7,1312.9 196.6,1302.9 196.6,1291.7 176.7,1301.7 176.7,1278.1 199.9,1266.4 
				199.9,1289 199.9,1290.1 199.9,1305 			"/>
		</g>
		<g>
			<g>
				<polyline class="st0" points="207.4,1440 260.5,1440 260.5,1260 207.4,1260 				"/>
			</g>
			<g>
				<polyline class="st0" points="260.5,1440 313.6,1440 313.6,1260 260.5,1260 				"/>
			</g>
			<g>
				<polygon class="st1" points="253,1360.2 244.3,1355.3 219.9,1341.3 253,1322.3 253,1321.4 253,1306.5 253,1303.6 214.9,1325.4 
					214.9,1326.4 214.9,1341.3 214.9,1342.3 215.7,1342.7 215.7,1342.7 215.7,1342.7 250.5,1362.6 250.5,1362.6 253,1364.1 				"/>
			</g>
			<g>
				<polygon class="st1" points="268,1303.6 268,1306.5 268,1321.4 268,1322.3 301.1,1341.3 289.3,1348 268,1360.2 268,1364.1 
					270.4,1362.6 270.4,1362.6 305.3,1342.7 305.3,1342.7 305.3,1342.7 306.1,1342.3 306.1,1341.3 306.1,1326.4 306.1,1325.4 				
					"/>
			</g>
		</g>
	</g>
</g>
</svg>
