<?xml version="1.0" encoding="utf-8"?>
<!-- Generator: Adobe Illustrator 19.0.1, SVG Export Plug-In . SVG Version: 6.00 Build 0)  -->
<svg version="1.1" id="Layer_1" xmlns="http://www.w3.org/2000/svg" xmlns:xlink="http://www.w3.org/1999/xlink" x="0px" y="0px"
	 viewBox="144 -417.2 1080 1447.2" style="enable-background:new 144 -417.2 1080 1447.2;" xml:space="preserve">
<style type="text/css">
	.st0{fill:none;stroke:#FFFFFF;stroke-miterlimit:10;}
	.st1{fill:#FFFFFF;}
</style>
<g>
	<g>
		<rect x="763.1" y="-412.8" class="st0" width="38.2" height="180"/>
	</g>
	<g>
		<polyline class="st0" points="763.1,-412.8 685.2,-412.8 685.2,-232.8 763.1,-232.8 		"/>
	</g>
	<g>
		<rect x="876.8" y="-412.8" class="st0" width="78" height="180"/>
	</g>
	<g>
		<rect x="1030.3" y="-412.8" class="st0" width="112.8" height="180"/>
	</g>
	<g>
		<rect x="224.8" y="-412.8" class="st0" width="78" height="180"/>
	</g>
	<g>
		<rect x="380.7" y="-412.8" class="st0" width="78" height="180"/>
	</g>
	<g>
		<line class="st0" x1="1030.3" y1="-412.8" x2="954.8" y2="-412.8"/>
		<line class="st0" x1="954.8" y1="-232.8" x2="1030.3" y2="-232.8"/>
	</g>
	<g>
		<rect x="1143.1" y="-412.8" class="st0" width="78" height="180"/>
	</g>
	<g>
		<line class="st0" x1="380.7" y1="-412.8" x2="302.8" y2="-412.8"/>
		<line class="st0" x1="302.8" y1="-232.8" x2="380.7" y2="-232.8"/>
	</g>
	<g>
		<polyline class="st0" points="224.8,-412.8 146.8,-412.8 146.8,-232.8 224.8,-232.8 		"/>
	</g>
	<g>
		<polyline class="st0" points="458.7,-232.8 536.8,-232.8 536.8,-412.8 458.7,-412.8 		"/>
	</g>
	<g>
		<polyline class="st0" points="536.8,-232.8 607.2,-232.8 607.2,-412.8 536.8,-412.8 		"/>
	</g>
	<g>
		<line class="st0" x1="607.2" y1="-232.8" x2="685.2" y2="-232.8"/>
		<line class="st0" x1="685.2" y1="-412.8" x2="607.2" y2="-412.8"/>
	</g>
	<g>
		<line class="st0" x1="876.8" y1="-412.8" x2="801.3" y2="-412.8"/>
		<line class="st0" x1="801.3" y1="-232.8" x2="876.8" y2="-232.8"/>
	</g>
	<g>
		<rect x="146.8" y="-232.8" class="st0" width="78" height="180"/>
	</g>
	<g>
		<rect x="602.2" y="-232.8" class="st0" width="78" height="180"/>
	</g>
	<g>
		<rect x="868.5" y="-232.8" class="st0" width="78" height="180"/>
	</g>
	<g>
		<polyline class="st0" points="946.5,-52.8 1022,-52.8 1022,-232.8 946.5,-232.8 		"/>
	</g>
	<g>
		<polyline class="st0" points="680.2,-52.8 755.8,-52.8 755.8,-232.8 680.2,-232.8 		"/>
	</g>
	<g>
		<polyline class="st0" points="224.8,-52.8 300.3,-52.8 300.3,-232.8 224.8,-232.8 		"/>
	</g>
	<g>
		<rect x="534.2" y="-232.8" class="st0" width="68" height="180"/>
	</g>
	<g>
		<rect x="378.2" y="-232.8" class="st0" width="78" height="180"/>
	</g>
	<g>
		<line class="st0" x1="755.8" y1="-52.8" x2="881.8" y2="-52.8"/>
		<line class="st0" x1="881.8" y1="-232.8" x2="755.8" y2="-232.8"/>
	</g>
	<g>
		<polyline class="st0" points="1022,-232.8 1099.9,-232.8 1099.9,-52.8 1022,-52.8 		"/>
	</g>
	<g>
		<line class="st0" x1="534.2" y1="-232.8" x2="456.2" y2="-232.8"/>
		<line class="st0" x1="456.2" y1="-52.8" x2="534.2" y2="-52.8"/>
	</g>
	<g>
		<line class="st0" x1="378.2" y1="-232.8" x2="300.3" y2="-232.8"/>
		<line class="st0" x1="300.3" y1="-52.8" x2="378.2" y2="-52.8"/>
	</g>
	<g>
		<polygon class="st1" points="770.6,-394.7 770.6,-285.4 793.8,-274.1 793.8,-406.4 		"/>
	</g>
	<g>
		<polygon class="st1" points="732.4,-394.7 732.4,-350 715.9,-341.7 715.9,-406.4 692.6,-394.7 692.6,-285.4 715.9,-274.1 
			715.9,-337.9 732.4,-346.2 732.4,-285.4 755.8,-274.1 755.8,-406.4 		"/>
	</g>
	<g>
		<polygon class="st1" points="947.3,-406.4 924.1,-394.7 924.1,-354.1 924.1,-352.4 907.5,-344.2 907.5,-406.4 884.3,-394.7 
			884.3,-285.7 907.5,-274.1 907.5,-340.4 924.1,-348.7 924.1,-285.7 947.3,-274.1 947.3,-342.5 929.4,-351.4 947.3,-360.3 		"/>
	</g>
	<g>
		<polygon class="st1" points="1113.3,-395.2 1113.3,-395.2 1098.3,-387.7 1098.3,-406.4 1076,-395.2 1076,-395.2 1061,-387.7 
			1061,-406.4 1037.8,-394.7 1037.8,-285.7 1061,-274.1 1061,-384 1075,-391 1075,-285.7 1098.3,-274.1 1098.3,-384 1112.4,-391 
			1112.4,-285.7 1135.6,-274.1 1135.6,-406.4 		"/>
	</g>
	<g>
		<path class="st1" d="M273.8-408L253-397.7l0,0l-19.9,10l0,0l-0.9,0.5v1v102v1l0.9,0.5l0,0l19.9,10l0,0l0.7,0.4l20.7-10.3l0,0
			l19.9-10l0,0l0.9-0.5v-1V-339v-1l-0.9-0.5l0,0l-16.9-8.5l16.9-8.5l0,0l0.9-0.5v-1v-36.4v-1L273.8-408z M272.1-350l-16.6,8.3v-53.5
			l16.6-8.3V-350z M255.5-337.9l16.6-8.3v61l-16.6,8.3V-337.9z"/>
	</g>
	<g>
		<path class="st1" d="M450.3-387.7L450.3-387.7l-19.9-10l0,0L409.8-408l-0.7,0.4l0,0l-19.9,10l0,0l-0.9,0.5v1v112v1l0.9,0.5l0,0
			l19.9,10l0,0l0.7,0.4l20.6-10.3l0,0l19.9-10l0,0l0.9-0.5v-1v-92.3v-1L450.3-387.7z M411.4-403.5l16.6,8.3v109.9l-16.6,8.3V-403.5z
			"/>
	</g>
	<g>
		<polygon class="st1" points="1022.9,-338 1022.9,-338 1003,-328 1003,-328 1002,-327.6 1002,-326.5 1002,-285.3 985.5,-277 
			985.5,-403.7 985.5,-406.4 983.1,-405.2 983.1,-405.2 963.2,-395.2 963.1,-395.2 962.2,-394.7 962.2,-393.7 962.2,-284 
			962.2,-282.9 963.2,-282.5 963.2,-282.5 977.3,-275.6 983.8,-272.4 1004.5,-282.7 1024.4,-292.7 1024.4,-292.7 1025.3,-293.2 
			1025.3,-294.2 1025.3,-336.5 1025.3,-339.2 		"/>
	</g>
	<g>
		<polygon class="st1" points="1211.2,-405.2 1211.2,-405.2 1191.3,-395.2 1191.3,-395.2 1190.3,-394.7 1190.3,-393.7 
			1190.3,-347.9 1173.1,-406 1171.4,-405.2 1171.4,-405.2 1151.6,-395.2 1151.4,-395.2 1150.6,-394.7 1150.6,-393.7 1150.6,-286.7 
			1150.6,-285.7 1151.4,-285.2 1151.6,-285.2 1171.4,-275.3 1171.4,-275.3 1173.8,-274.1 1173.8,-276.8 1173.8,-392.2 
			1190.3,-336.2 1190.3,-286.7 1190.3,-285.7 1191.3,-285.2 1191.3,-285.2 1211.2,-275.3 1211.2,-275.3 1213.6,-274.1 
			1213.6,-276.8 1213.6,-403.7 1213.6,-406.4 		"/>
	</g>
	<g>
		<polygon class="st1" points="372.3,-397.7 372.3,-397.7 352.4,-407.6 352.4,-407.6 351.7,-408 331,-397.7 331,-397.7 
			311.1,-387.7 311.1,-387.7 310.2,-387.3 310.2,-386.3 310.2,-284.2 310.2,-283.2 311.1,-282.7 311.1,-282.7 331,-272.8 
			331,-272.8 331.8,-272.4 352.4,-282.7 352.4,-282.7 372.3,-292.7 372.3,-292.7 373.3,-293.2 373.3,-294.2 373.3,-324 
			373.3,-326.7 370.9,-325.5 370.9,-325.5 350.9,-315.6 350.9,-315.6 350,-315.1 350,-314.1 350,-285.3 333.4,-277 333.4,-395.2 
			350,-403.5 350,-376.3 350,-375.3 350.9,-374.8 350.9,-374.8 370.9,-364.9 370.9,-364.9 373.3,-363.7 373.3,-366.3 373.3,-396.2 
			373.3,-397.2 		"/>
	</g>
	<g>
		<path class="st1" d="M216.4-397.7L216.4-397.7l-19.9-10l0,0l-0.7-0.4l-40.6,20.4l0,0l-0.9,0.5v101.6l23.2,11.6v-51.5l16.6-8.3
			v47.1v1l0.9,0.5l0,0l19.9,10l0,0l2.4,1.2v-2.8v-119.4v-1L216.4-397.7z M177.5-395.2l16.6-8.3v66l-16.6,8.3
			C177.5-329.2,177.5-395.2,177.5-395.2z"/>
	</g>
	<g>
		<g>
			<polygon class="st1" points="528.3,-397.7 528.3,-397.7 508.4,-407.6 508.4,-407.6 507.6,-408 487,-397.7 487,-397.7 
				467.1,-387.7 467.1,-387.7 466.2,-387.3 466.2,-386.3 466.2,-284.2 466.2,-283.2 467.1,-282.7 467.1,-282.7 487,-272.8 
				487,-272.8 487.7,-272.4 508.4,-282.7 508.4,-282.7 528.3,-292.7 528.3,-292.7 529.2,-293.2 529.2,-294.2 529.2,-319.1 
				529.2,-320.1 528.3,-320.6 528.3,-320.6 508.4,-330.5 508.4,-330.5 506,-331.7 506,-329 506,-285.3 489.4,-277 489.4,-343.8 
				506,-335.5 506,-357.4 489.4,-349.1 489.4,-395.2 506,-403.5 506,-371.3 506,-370.3 506.9,-369.8 506.9,-369.8 526.8,-359.9 
				526.8,-359.9 529.2,-358.7 529.2,-361.4 529.2,-396.2 529.2,-397.2 			"/>
			<polygon class="st1" points="509.3,-334 508.9,-334 509.3,-333.8 			"/>
		</g>
	</g>
	<g>
		<polygon class="st1" points="606.3,-397.7 606.3,-397.7 586.4,-407.6 586.4,-407.6 585.6,-408 565,-397.7 565,-397.7 
			545.1,-387.7 545.1,-387.7 544.1,-387.3 544.1,-386.3 544.1,-286.7 544.1,-285.7 545.1,-285.2 545.1,-285.2 565,-275.3 
			565,-275.3 567.4,-274.1 567.4,-276.8 567.4,-341.3 584,-333 584,-354.9 567.4,-346.6 567.4,-395.2 584,-403.5 584,-371.3 
			584,-370.3 584.9,-369.8 584.9,-369.8 604.8,-359.9 604.8,-359.9 607.2,-358.7 607.2,-361.4 607.2,-396.2 607.2,-397.2 		"/>
	</g>
	<g>
		<path class="st1" d="M676.8-397.7L676.8-397.7l-19.9-10l0,0l-0.7-0.4l-20.6,10.3l0,0l-19.9,10l0,0l-0.9,0.5v1v102v1l0.9,0.5l0,0
			l19.9,10l0,0l0.7,0.4l20.6-10.3l0,0l19.9-10l0,0l0.9-0.5v-1v-64.1v-2.6l-2.4,1.1l0,0l-19.9,9.4l0,0l0,0l-10.9,5.4v3.7l9.9-5v61
			l-16.6,8.3v-29.3v-31.6v-3.7v-3.6v-50l16.6-8.3v37.1v2.7l2.4-1.2l0,0l20-9.9l0,0l0.9-0.5v-1v-19.9v-1L676.8-397.7z"/>
	</g>
	<g>
		<polygon class="st1" points="847,-395.2 847,-395.2 829.5,-386.5 829.5,-382.7 846.1,-391 846.1,-285.3 829.5,-277 829.5,-334 
			829.5,-358.9 829.5,-361.6 827.1,-360.4 827.1,-360.4 807.2,-350.4 807.2,-350.4 806.3,-350 806.3,-348.9 806.3,-284.2 
			806.3,-283.2 807.2,-282.7 807.2,-282.7 827.1,-272.8 827.1,-272.8 827.8,-272.4 868.4,-292.7 869.3,-293.2 869.3,-406.4 		"/>
	</g>
	<g>
		<path class="st1" d="M216.4-217.7L216.4-217.7l-19.9-10l0,0l-0.7-0.4l-20.6,10.3l0,0l-19.9,10l0,0l-0.9,0.5v1v102v1l0.9,0.5l0,0
			l19.9,10l0,0l0.7,0.4l20.6-10.3l0,0l19.9-10l0,0l0.9-0.5v-1v-102v-1L216.4-217.7z M177.5-215.2l16.6-8.3v118.2L177.5-97V-215.2z"
			/>
	</g>
	<polygon class="st1" points="672.8,-94.1 672.8,-226.4 649.5,-214.7 649.5,-107.6 632.9,-97.3 632.9,-223.7 632.9,-223.7 
		632.9,-226.4 630.5,-225.2 630.5,-225.2 610.6,-215.2 610.6,-215.2 609.8,-214.7 609.8,-213.7 609.8,-104.2 609.8,-103.2 
		610.6,-102.7 610.6,-102.7 620.5,-97.8 631.3,-92.4 632.1,-92.9 632.1,-92.9 632.1,-92.9 651.2,-104.8 	"/>
	<polygon class="st1" points="939,-226.4 915.8,-214.7 915.8,-170 907.5,-165.8 899.2,-170 899.2,-226.4 876,-214.7 876,-177.9 
		876.9,-177.4 876.9,-177.4 903.8,-164 899.2,-161.7 899.2,-161.7 887.6,-155.9 876.9,-150.5 876.9,-150.5 876,-150 876,-105.7 
		899.2,-94.1 899.2,-157.9 907.5,-162.1 915.8,-157.9 915.8,-105.7 939,-94.1 939,-150 938.1,-150.5 938.1,-150.5 911.2,-164 
		938.1,-177.4 938.1,-177.4 939,-177.9 	"/>
	<polygon class="st1" points="991.3,-214.7 991.3,-147.6 974.8,-139.3 974.8,-223.7 974.8,-226.4 972.3,-225.2 972.3,-225.2 
		952.4,-215.2 952.4,-215.2 951.4,-214.7 951.4,-213.7 951.4,-146.5 951.4,-145.5 952.4,-145 952.4,-145 972.3,-135.1 972.3,-135.1 
		973,-134.7 991.3,-143.8 991.3,-94.1 1014.5,-105.7 1014.5,-226.4 	"/>
	<polygon class="st1" points="748.3,-225.2 748.3,-225.2 728.4,-215.2 728.4,-215.2 727.5,-214.7 727.5,-213.7 727.5,-114.9 
		710.9,-98.3 710.9,-223.7 710.9,-226.4 708.5,-225.2 708.5,-225.2 688.6,-215.2 688.6,-215.2 687.8,-214.7 687.8,-213.7 
		687.8,-104.2 687.8,-103.2 688.6,-102.7 688.6,-102.7 708.5,-92.8 708.5,-92.8 709.6,-92.3 750.8,-133.4 750.8,-134.1 
		750.8,-223.7 750.8,-226.4 	"/>
	<g>
		<path class="st1" d="M273.8-228l-18.2,9.1v-7.5l-23.2,11.6v109.1l23.2,11.6v-41.5l19-9.5l0,0l19.9-10l0,0l0.9-0.5v-1v-59.7v-1
			L273.8-228z M255.5-215.2l16.6-8.3v75.9l-16.6,8.3V-215.2z"/>
	</g>
	<polygon class="st1" points="602.2,-203.3 602.2,-231.3 582.4,-221.4 582.4,-221.4 579.8,-220.1 579.8,-220.1 578.1,-219.3 
		577.4,-218.9 577.4,-218.9 557.5,-209 557.5,-209 554.8,-207.6 534.2,-197.4 534.2,-168 556.6,-204.4 556.6,-106.9 579.8,-95.3 
		579.8,-216.4 580.6,-216.8 	"/>
	<path class="st1" d="M447.8-217.7L447.8-217.7l-19.9-10l0,0l-0.7-0.4L409-219v-7.5l-23.2,11.6v109.1L409-94.2v-63.9l16.6-8.3v60.5
		l23.2,11.6v-65.9l-17.9-8.9l16.9-8.5l0,0l0.9-0.5v-1v-37.3v-1L447.8-217.7z M408.9-215.2l16.6-8.3v51.9v1.7l-16.6,8.3V-215.2z"/>
	<polygon class="st1" points="861,-226.4 837.8,-214.7 837.8,-107.6 823.8,-97.5 823.8,-223.7 823.8,-226.4 821.3,-225.2 
		821.3,-225.2 801.4,-215.2 801.4,-215.2 800.5,-214.7 800.5,-213.7 800.5,-105.2 786.4,-97.1 786.4,-223.7 786.4,-226.4 
		784,-225.2 784,-225.2 764.1,-215.2 764.1,-215.2 763.1,-214.7 763.1,-213.7 763.1,-104.2 763.1,-103.2 764.1,-102.7 764.1,-102.7 
		784,-92.8 784,-92.8 784.8,-92.4 802.2,-102.3 821.3,-92.8 821.3,-92.8 822.2,-92.3 839.6,-104.8 861,-94.1 	"/>
	<polygon class="st1" points="1091.6,-217.7 1091.6,-217.7 1071.7,-227.6 1071.7,-227.6 1070.9,-228 1050.2,-217.7 1050.2,-217.7 
		1030.3,-207.7 1030.3,-207.7 1029.4,-207.3 1029.4,-206.3 1029.4,-168.9 1029.4,-166.2 1031.8,-167.4 1031.8,-167.4 1051.8,-177.4 
		1051.8,-177.4 1052.7,-177.9 1052.7,-178.9 1052.7,-215.2 1069.2,-223.5 1069.2,-170 1050.2,-160.5 1050.2,-160.5 1030.3,-150.5 
		1030.3,-150.5 1029.4,-150 1029.4,-149 1029.4,-104.2 1029.4,-103.2 1030.3,-102.7 1030.3,-102.7 1050.2,-92.8 1050.2,-92.8 
		1051,-92.4 1071.7,-102.7 1071.7,-102.7 1091.6,-112.7 1091.6,-112.7 1092.6,-113.2 1092.6,-114.2 1092.6,-159 1092.6,-161.7 
		1090.1,-160.5 1090.1,-160.5 1070.2,-150.5 1070.2,-150.5 1069.2,-150 1069.2,-149 1069.2,-105.3 1052.7,-97 1052.7,-157.9 
		1091.1,-177.2 1091.6,-177.4 1091.6,-177.4 1092.6,-177.9 1092.6,-178.9 1092.6,-216.2 1092.6,-217.2 	"/>
	<polygon class="st1" points="525.8,-217.7 525.8,-217.7 505.9,-227.6 505.9,-227.6 505.2,-228 486.9,-218.9 486.9,-218.9 
		463.7,-207.3 463.7,-146.3 486.9,-157.9 503.5,-166.2 503.5,-105.3 486.9,-97 486.9,-139.1 486.9,-141.8 484.5,-140.6 
		484.5,-140.6 464.6,-130.6 464.6,-130.6 463.7,-130.1 463.7,-129.1 463.7,-104.2 463.7,-103.2 464.6,-102.7 464.6,-102.7 
		484.5,-92.8 484.5,-92.8 485.3,-92.4 503.5,-101.5 526.8,-113.2 526.8,-181.6 503.5,-170 486.9,-161.7 486.9,-215.2 503.5,-223.5 
		503.5,-188.8 503.5,-186.1 505.9,-187.3 505.9,-187.3 525.8,-197.3 525.8,-197.3 526.8,-197.8 526.8,-198.8 526.8,-216.2 
		526.8,-217.2 	"/>
	<g>
		<path class="st1" d="M378.2-95.1l-24.9-9.3l16.5-8.2l0,0l0.9-0.5v-1v-102v-1l-0.9-0.5l0,0l-19.9-10l0,0l-0.7-0.4l-20.6,10.3l0,0
			l-19.9,10l0,0l-0.9,0.5v1v102v1l0.9,0.5l0,0l19.9,10l0,0l0.7,0.4l0.7-0.4l0,0l19.3-9.6l28.9,10.9L378.2-95.1L378.2-95.1z M331-97
			v-12.3l14.1,5.3L331-97z M347.5-106.6l-16.6-6.2v-102.4l16.6-8.3V-106.6z"/>
	</g>
</g>
<g>
	<g>
		<rect x="589.8" y="37.2" class="st0" width="78" height="180"/>
	</g>
	<g>
		<rect x="745.8" y="37.2" class="st0" width="38.2" height="180"/>
	</g>
	<g>
		<polyline class="st0" points="783.9,217.2 822,217.2 822,37.2 783.9,37.2 		"/>
	</g>
	<g>
		<rect x="146.8" y="37.2" class="st0" width="78" height="180"/>
	</g>
	<g>
		<polyline class="st0" points="224.8,217.2 302.8,217.2 302.8,37.2 224.8,37.2 		"/>
	</g>
	<g>
		<rect x="897.5" y="37.2" class="st0" width="38.2" height="180"/>
	</g>
	<g>
		<rect x="380.7" y="37.2" class="st0" width="78" height="180"/>
	</g>
	<g>
		<line class="st0" x1="745.8" y1="37.2" x2="667.8" y2="37.2"/>
		<line class="st0" x1="667.8" y1="217.2" x2="745.8" y2="217.2"/>
	</g>
	<g>
		<rect x="1048.5" y="37.2" class="st0" width="78" height="180"/>
	</g>
	<g>
		<line class="st0" x1="897.5" y1="37.2" x2="822" y2="37.2"/>
		<line class="st0" x1="822" y1="217.2" x2="897.5" y2="217.2"/>
	</g>
	<g>
		<polyline class="st0" points="458.7,217.2 536.8,217.2 536.8,37.2 458.7,37.2 		"/>
	</g>
	<g>
		<line class="st0" x1="1048.5" y1="37.2" x2="935.8" y2="37.2"/>
		<line class="st0" x1="935.8" y1="217.2" x2="1048.5" y2="217.2"/>
	</g>
	<g>
		<line class="st0" x1="380.7" y1="37.2" x2="302.8" y2="37.2"/>
		<line class="st0" x1="302.8" y1="217.2" x2="380.7" y2="217.2"/>
	</g>
	<g>
		<line class="st0" x1="589.8" y1="37.2" x2="536.8" y2="37.2"/>
		<line class="st0" x1="536.8" y1="217.2" x2="589.8" y2="217.2"/>
	</g>
	<g>
		<rect x="589" y="217.2" class="st0" width="78" height="180"/>
	</g>
	<g>
		<rect x="855.3" y="217.2" class="st0" width="78" height="180"/>
	</g>
	<g>
		<polyline class="st0" points="933.3,397.2 1011.3,397.2 1011.3,217.2 933.3,217.2 		"/>
	</g>
	<g>
		<rect x="224.8" y="217.2" class="st0" width="78" height="180"/>
	</g>
	<g>
		<rect x="380.7" y="217.2" class="st0" width="70.5" height="180"/>
	</g>
	<g>
		<polyline class="st0" points="855.3,217.2 742.5,217.2 742.5,397.2 855.3,397.2 		"/>
	</g>
	<g>
		<polyline class="st0" points="589,217.2 529.2,217.2 529.2,397.2 589,397.2 		"/>
	</g>
	<g>
		<line class="st0" x1="302.8" y1="397.2" x2="380.7" y2="397.2"/>
		<line class="st0" x1="380.7" y1="217.2" x2="302.8" y2="217.2"/>
	</g>
	<g>
		<line class="st0" x1="451.2" y1="397.2" x2="529.2" y2="397.2"/>
		<line class="st0" x1="529.2" y1="217.2" x2="451.2" y2="217.2"/>
	</g>
	<g>
		<line class="st0" x1="772.1" y1="217.2" x2="667" y2="217.2"/>
		<line class="st0" x1="667" y1="397.2" x2="772.1" y2="397.2"/>
	</g>
	<g>
		<polyline class="st0" points="1011.3,397.2 1089.2,397.2 1089.2,217.2 1011.3,217.2 		"/>
	</g>
	<g>
		<polyline class="st0" points="224.8,217.2 146.8,217.2 146.8,397.2 224.8,397.2 		"/>
	</g>
	<g>
		<path class="st1" d="M638.8,81.8l-20.6,10.3l0,0l-19.9,10l0,0l-0.9,0.5v1v62.2v1l0.9,0.5l0,0l19.9,10l0,0l0.7,0.4l18.2-9.1v33.6
			l-16.6,8.3v-19.7v-1l-0.9-0.5l0,0l-19.9-10l0,0l-2.4-1.2v2.7v22.4v1l0.9,0.5l0,0l19.9,10l0,0l0.7,0.4l20.6-10.3l0,0l19.9-10l0,0
			l0.9-0.5v-1V94v-1.3L638.8,81.8z M620.5,173V94.6l16.6-8.3v78.4L620.5,173z"/>
	</g>
	<g>
		<g>
			<polygon class="st1" points="753.2,62.7 753.2,86.3 776.4,74.7 776.4,51.1 			"/>
			<polygon class="st1" points="753.2,164.2 776.4,175.9 776.4,83.5 753.2,95.1 			"/>
		</g>
	</g>
	<g>
		<g>
			<polygon class="st1" points="791.4,62.7 791.4,86.3 814.6,74.7 814.6,51.1 			"/>
			<polygon class="st1" points="791.4,215.7 814.6,204.1 814.6,83.5 791.4,95.1 			"/>
		</g>
	</g>
	<g>
		<path class="st1" d="M216.4,92.1L216.4,92.1l-19.9-10l0,0l-0.7-0.4L175.2,92l0,0l-19.9,10l0,0l-0.9,0.5v1v17.4v2.7l2.4-1.2l0,0
			l19.9-10l0,0l0.9-0.5v-1V94.5l16.6-8.3v26.1l-19.6,9.9l-19.4,9.7l0,0l-0.9,0.5v1v32.3v1l0.9,0.5l0,0l19.9,10l0,0l0.8,0.4
			l19.9-12.4l19.1,9.5l0,0l2.4,1.2v-2.7V93.6v-1L216.4,92.1z M194.1,162.4l-16.6,10.4v-48.2l16.6-8.3V162.4z"/>
	</g>
	<g>
		<path class="st1" d="M294.4,92.1L294.4,92.1l-19.9-10l0,0l-0.7-0.4l-18.2,9.1V41.2v-2.7l-2.4,1.2l0,0l-19.9,10l0,0l-0.9,0.5v1
			v114.5v1l0.9,0.5l0,0l19.9,10l0,0l0.7,0.4l20.7-10.3l0,0l19.9-10l0,0l0.9-0.5v-1V93.6v-1L294.4,92.1z M272.1,86.3v78.4l-16.6,8.3
			V94.6L272.1,86.3z"/>
	</g>
	<g>
		<polygon class="st1" points="905,52.8 905,164.2 928.2,175.9 928.2,41.1 		"/>
	</g>
	<g>
		<path class="st1" d="M448.8,39.9L448.8,39.9l-19.9,10l0,0l-0.9,0.5v1v31.3l-19,9.5l0,0l-19.9,10l0,0l-0.9,0.5v1v62.2v1l0.9,0.5
			l0,0l19.9,10l0,0l0.8,0.4l20-12.6l19.1,9.5l0,0l2.4,1.2v-2.7V41.4v-2.7L448.8,39.9z M428,162.4l-16.6,10.4V94.7l16.6-8.3V162.4z"
			/>
	</g>
	<g>
		<polygon class="st1" points="737.3,92.1 737.3,92.1 717.4,82.2 717.4,82.2 716.8,81.8 698.4,90.9 698.4,43.8 698.4,41.1 696,42.4 
			696,42.4 676.1,52.3 676.1,52.3 675.2,52.8 675.2,53.8 675.2,163.2 675.2,164.2 676.1,164.8 676.1,164.8 696,174.7 696,174.7 
			698.4,175.9 698.4,173.2 698.4,94.6 715,86.3 715,163.2 715,164.2 715.9,164.8 715.9,164.8 735.9,174.7 735.9,174.7 738.3,175.9 
			738.3,173.2 738.3,93.6 738.3,92.6 		"/>
	</g>
	<g>
		<polygon class="st1" points="1118.1,92.1 1118.1,92.1 1098.2,82.2 1098.2,82.2 1097.6,81.8 1079.2,90.9 1079.2,86.1 1079.2,83.5 
			1076.8,84.7 1076.8,84.7 1056.9,94.6 1056.9,94.6 1056,95.1 1056,96.1 1056,163.2 1056,164.2 1056.9,164.8 1056.9,164.8 
			1076.8,174.7 1076.8,174.7 1079.2,175.9 1079.2,173.2 1079.2,94.6 1095.8,86.3 1095.8,163.2 1095.8,164.2 1096.8,164.8 
			1096.8,164.8 1116.6,174.7 1116.6,174.7 1119.1,175.9 1119.1,173.2 1119.1,93.6 1119.1,92.6 		"/>
	</g>
	<g>
		<polygon class="st1" points="892.6,92.6 869.3,81 869.3,120.8 869.3,122.4 852.8,130.7 852.8,41.1 829.5,52.8 829.5,164.2 
			852.8,175.9 852.8,134.4 869.3,126.2 869.3,164.2 892.6,175.9 892.6,132.4 874.8,123.5 892.6,114.5 		"/>
	</g>
	<g>
		<path class="st1" d="M528.3,92.1L528.3,92.1l-19.9-10l0,0l-0.7-0.4L487.1,92l0,0l-19.9,10l0,0l-0.9,0.5v1v62.2v1l0.9,0.5l0,0
			l19.9,10l0,0l0.7,0.4l20.6-10.3l0,0l19.9-10l0,0l0.9-0.5v-1v-17.4v-1l-0.9-0.5l0,0l-19.9-10l0,0l-2.4-1.2v2.7v36.3l-16.6,8.3
			v-43.6l19-9.5l0,0l19.9-10l0,0l0.9-0.5v-1V93.5v-1L528.3,92.1z M489.4,94.6l16.6-8.3v31.1l-16.6,8.3V94.6z"/>
	</g>
	<g>
		<polygon class="st1" points="1040.2,92.1 1040.2,92.1 1020.2,82.2 1020.2,82.2 1019.4,81.8 1002,91.7 982.9,82.2 982.9,82.2 
			982.1,81.8 966.4,90.7 966.4,83.5 943.2,95.1 943.2,101.1 943.2,164.2 966.4,175.9 966.4,94.6 980.5,86.5 980.5,101.1 
			980.5,163.2 980.5,164.2 981.4,164.8 981.4,164.8 1001.3,174.7 1001.3,174.7 1003.8,175.9 1003.8,173.2 1003.8,103.6 1003.8,94.6 
			1017.8,86.5 1017.8,163.2 1017.8,164.2 1018.8,164.8 1018.8,164.8 1038.7,174.7 1038.7,174.7 1041,175.9 1041,173.2 1041,93.6 
			1041,92.6 		"/>
	</g>
	<g>
		<polygon class="st1" points="372.3,92.1 372.3,92.1 352.4,82.2 352.4,82.2 351.7,81.8 331,92.1 331,92.1 311.1,102.1 311.1,102.1 
			310.2,102.5 310.2,103.6 310.2,165.8 310.2,166.8 311.1,167.2 311.1,167.2 331,177.2 331,177.2 331.8,177.6 332.5,177.2 
			332.5,177.2 352.4,167.2 352.4,167.2 372.3,157.2 372.3,157.2 373.3,156.8 373.3,155.8 373.3,133.4 373.3,130.7 370.9,131.9 
			370.9,131.9 351,141.9 350.9,141.9 350,142.2 350,143.4 350,164.7 333.4,173 333.4,94.6 350,86.3 350,106 350,107.1 350.9,107.5 
			351,107.5 370.9,117.5 370.9,117.5 373.3,118.7 373.3,116 373.3,93.6 373.3,92.6 		"/>
	</g>
	<g>
		<polygon class="st1" points="587.4,42.4 587.4,42.4 547.6,62.3 547.6,62.3 546.6,62.7 546.6,63.7 546.6,122.4 536.8,127.4 
			536.8,131.1 546.6,126.2 546.6,163.2 546.6,164.2 547.6,164.8 547.6,164.8 567.5,174.7 567.5,174.7 569.9,175.9 569.9,173.2 
			569.9,114.5 589.8,104.6 589.8,100.9 569.9,110.8 569.9,56.5 587.4,65.2 587.4,65.2 589.8,66.4 589.8,63.7 589.8,43.8 589.8,41.1 
					"/>
	</g>
	<g>
		<polygon class="st1" points="657.1,264.7 657.1,264.7 637.2,274.6 637.2,274.6 636.3,275.1 636.3,276.1 636.3,342.4 619.8,352.7 
			619.8,266.1 619.8,263.5 617.3,264.7 617.3,264.7 597.4,274.6 597.4,274.6 596.5,275.1 596.5,276.1 596.5,345.8 596.5,346.8 
			597.4,347.2 597.4,347.2 617.3,357.2 617.3,357.2 618.2,357.6 618.9,357.1 618.9,357.1 618.9,357.1 638.1,345.2 657.1,354.7 
			657.1,354.7 659.5,355.9 659.5,353.2 659.5,266.1 659.5,263.5 		"/>
	</g>
	<g>
		<polygon class="st1" points="925.8,263.5 902.6,275.1 902.6,302.4 894.3,306.6 886,302.4 886,263.5 862.8,275.1 862.8,294.5 
			863.8,295 863.8,295 890.6,308.4 863.8,321.9 863.8,321.9 862.8,322.2 862.8,344.2 886,355.9 886,314.4 894.3,310.2 902.6,314.4 
			902.6,344.2 925.8,355.9 925.8,322.2 924.9,321.9 924.9,321.9 898,308.4 924.9,295 924.9,295 925.8,294.5 		"/>
	</g>
	<g>
		<polygon class="st1" points="1003.8,263.5 980.6,275.1 980.6,344.7 964,353 964,266.1 964,263.5 961.6,264.7 961.6,264.7 
			941.8,274.6 941.8,274.6 940.8,275.1 940.8,276.1 940.8,345.8 940.8,346.8 941.8,347.2 941.8,347.2 961.6,357.2 961.6,357.2 
			962.3,357.6 963.1,357.2 963.1,357.2 980.6,348.5 980.6,382.1 964,390.4 964,370.7 964,369.6 963.1,369.2 963.1,369.2 
			943.2,359.2 943.2,359.2 940.8,358 940.8,360.7 940.8,383.1 940.8,384.1 941.8,384.6 941.8,384.6 961.6,394.5 961.6,394.5 
			962.3,394.9 1002.9,374.6 1002.9,374.6 1003.8,374.2 		"/>
	</g>
	<g>
		<path class="st1" d="M294.4,272.1L294.4,272.1l-7.5-3.7l0,0l-12.4-6.2l0,0l-0.7-0.4l-18.2,9.1v-7.5l-23.2,11.6V384l23.2,11.6v-39
			l19-9.5l19.9-10l0,0l0.9-0.5v-1v-62.2v-1L294.4,272.1z M272.1,266.2v78.4l-16.6,8.3v-78.4L272.1,266.2z"/>
	</g>
	<g>
		<polygon class="st1" points="450.3,272.1 450.3,272.1 430.4,262.2 430.4,262.2 429.7,261.8 411.4,270.9 411.4,266.1 411.4,263.5 
			409,264.7 409,264.7 389.1,274.6 389.1,274.6 388.2,275.1 388.2,276.1 388.2,343.2 388.2,344.2 389.1,344.8 389.1,344.8 
			409,354.7 409,354.7 411.4,355.9 411.4,353.2 411.4,278.6 411.4,274.6 428,266.2 428,288.5 428,289.6 428.9,290 428.9,290 
			448.8,300 448.8,300 451.2,301.2 451.2,298.5 451.2,273.6 451.2,272.6 		"/>
	</g>
	<g>
		<polygon class="st1" points="845.4,264.7 845.4,264.7 825.5,274.6 825.5,274.6 824.6,275.1 824.6,276.1 824.6,342.4 810.5,352.5 
			810.5,266.1 810.5,263.5 808.1,264.7 808.1,264.7 788.2,274.6 788.2,274.6 787.3,275.1 787.3,276.1 787.3,344.8 773.2,352.9 
			773.2,266.1 773.2,263.5 770.8,264.7 770.8,264.7 750.9,274.6 750.9,274.6 750,275.1 750,276.1 750,345.8 750,346.8 750.9,347.2 
			750.9,347.2 770.8,357.2 770.8,357.2 771.6,357.6 789,347.7 808.1,357.2 808.1,357.2 809,357.7 826.4,345.2 845.4,354.7 
			845.4,354.7 847.8,355.9 847.8,353.2 847.8,266.1 847.8,263.5 		"/>
	</g>
	<g>
		<polygon class="st1" points="589,258.5 569.1,268.4 569.1,231.1 545.9,242.7 545.9,280 529.2,288.2 529.2,314.8 545.9,285.7 
			545.9,344.2 569.1,355.9 569.1,273.2 589,283.6 		"/>
	</g>
	<g>
		<path class="st1" d="M372.3,272.1L372.3,272.1l-19.9-10l0,0l-0.7-0.4L331.1,272l0,0l-19.9,10l0,0l-0.9,0.5v1v62.2v1l0.9,0.5l0,0
			l19.9,10l0,0l0.7,0.4l18.2-9.1v34.6v1l0.9,0.5l0,0l19.9,10l0,0l2.4,1.2v-2.7v-102v-17.4v-1L372.3,272.1z M333.4,353v-78.4
			l16.6-8.3v76.9v1.5L333.4,353z"/>
	</g>
	<g>
		<polygon class="st1" points="520.8,272.1 520.8,272.1 500.9,262.2 500.9,262.2 500.2,261.8 499.4,262.2 499.4,262.2 459.6,282.1 
			459.6,282.1 458.7,282.5 458.7,326.1 461.1,324.9 461.1,324.9 498.5,306.2 498.5,344.7 481.9,353 481.9,325.9 481.9,323.2 
			479.5,324.4 479.5,324.4 459.6,334.2 459.6,334.2 458.7,334.8 458.7,335.8 458.7,345.8 458.7,346.8 459.6,347.2 459.6,347.2 
			479.5,357.2 479.5,357.2 480.3,357.6 481,357.2 481,357.2 498.5,348.5 498.5,348.5 505.7,344.9 520.8,337.2 520.8,337.2 
			521.8,336.8 521.8,290.8 499.4,302 499.4,302 481.9,310.7 481.9,274.6 498.5,266.2 498.5,291 498.5,293.7 500.9,292.5 
			500.9,292.5 520.8,282.6 520.8,282.6 521.8,282.1 521.8,281.1 521.8,273.6 521.8,272.6 		"/>
	</g>
	<g>
		<polygon class="st1" points="735.1,264.7 735.1,264.7 715.2,274.6 715.2,274.6 714.3,275.1 714.3,276.1 714.3,333.2 714.3,333.9 
			697.8,351.5 697.8,266.1 697.8,263.5 695.3,264.7 695.3,264.7 675.4,274.6 675.4,274.6 674.5,275.1 674.5,276.1 674.5,345.8 
			674.5,346.8 675.4,347.2 675.4,347.2 695.3,357.2 695.3,357.2 696.4,357.8 697.2,356.9 697.2,356.9 737.5,314.1 737.5,313.4 
			737.5,266.1 737.5,263.5 		"/>
	</g>
	<g>
		<polygon class="st1" points="1080.9,272.1 1080.9,272.1 1060.9,262.2 1060.9,262.2 1060.2,261.8 1019.6,282.1 1019.6,282.1 
			1018.8,282.5 1018.8,313.6 1042,302 1042,274.6 1058.5,266.2 1058.5,302.4 1039.7,311.9 1039.7,311.9 1019.6,321.9 1019.6,321.9 
			1018.8,322.2 1018.8,323.4 1018.8,345.8 1018.8,346.8 1019.6,347.2 1019.6,347.2 1039.7,357.2 1039.7,357.2 1040.3,357.6 
			1058.5,348.5 1058.5,348.5 1070.2,342.7 1080.9,337.2 1080.9,337.2 1081.8,336.8 1081.8,303.2 1058.5,314.9 1058.5,344.7 
			1042,353 1042,314.4 1060.9,305 1080.9,295 1080.9,295 1081.8,294.5 1081.8,293.5 1081.8,273.6 1081.8,272.6 		"/>
	</g>
	<g>
		<path class="st1" d="M216.4,272.1L216.4,272.1l-19.9-10l0,0l-0.7-0.4L175.2,272l0,0l-19.9,10l0,0l-0.9,0.5v1v62.2v1l0.9,0.5l0,0
			l19.9,10l0,0l0.7,0.4l20.6-10.3l0,0l19.9-10l0,0l0.9-0.5v-1v-62.2v-1L216.4,272.1z M177.5,274.6l16.6-8.3v78.4l-16.6,8.3
			C177.5,353,177.5,274.6,177.5,274.6z"/>
	</g>
</g>
<g>
	<rect x="965.1" y="487.2" class="st0" width="38.2" height="180"/>
	<polyline class="st0" points="965.1,487.2 897.1,487.2 897.1,667.2 965.1,667.2 	"/>
	<g>
		<rect x="275.4" y="487.2" class="st0" width="78" height="180"/>
	</g>
	<g>
		<rect x="741.1" y="487.2" class="st0" width="78" height="180"/>
	</g>
	<g>
		<line class="st0" x1="897.1" y1="487.2" x2="819.1" y2="487.2"/>
		<line class="st0" x1="819.1" y1="667.2" x2="897.1" y2="667.2"/>
	</g>
	<g>
		<polyline class="st0" points="741.1,487.2 665.8,487.2 665.8,667.2 741.1,667.2 		"/>
	</g>
	<g>
		<rect x="509.7" y="487.2" class="st0" width="78" height="180"/>
	</g>
	<g>
		<line class="st0" x1="665.8" y1="487.2" x2="587.8" y2="487.2"/>
		<line class="st0" x1="587.8" y1="667.2" x2="665.8" y2="667.2"/>
	</g>
	<g>
		<rect x="146.8" y="487.2" class="st0" width="78" height="180"/>
	</g>
	<g>
		<line class="st0" x1="224.8" y1="667.2" x2="275.4" y2="667.2"/>
		<line class="st0" x1="275.4" y1="487.2" x2="224.8" y2="487.2"/>
	</g>
	<g>
		<polyline class="st0" points="353.4,667.2 431.3,667.2 431.3,487.2 353.4,487.2 		"/>
	</g>
	<g>
		<line class="st0" x1="509.3" y1="487.2" x2="431.3" y2="487.2"/>
		<line class="st0" x1="431.3" y1="667.2" x2="509.3" y2="667.2"/>
	</g>
	<g>
		<polygon class="st1" points="972.6,502.8 972.6,593.6 995.8,582 995.8,491.1 		"/>
		<polygon class="st1" points="972.6,625.8 995.8,614.2 995.8,590.7 972.6,602.2 		"/>
	</g>
	<g>
		<polygon class="st1" points="917,625.8 940.2,614.2 940.2,590.7 917,602.2 		"/>
		<polygon class="st1" points="959.2,502.2 959.2,502.2 939.3,492.4 939.3,492.4 938.6,492 898,512.2 898,512.2 897.1,512.7 
			897.1,543.8 920.3,532.2 920.3,504.8 936.9,496.5 936.9,550 917.9,559.5 917.9,559.5 917,560 917,593.6 940.2,582 940.2,552.1 
			959.2,542.6 959.2,542.6 960.1,542.1 960.1,541.1 960.1,503.8 960.1,502.8 		"/>
	</g>
	<g>
		<polygon class="st1" points="345,502.2 345,502.2 325.1,492.4 325.1,492.4 324.3,492 303.8,502.2 303.8,502.2 283.8,512.2 
			283.8,512.2 282.8,512.7 282.8,513.7 282.8,551.1 282.8,553.8 285.2,552.6 285.2,552.6 305.2,542.6 305.2,542.6 306.1,542.1 
			306.1,541.1 306.1,504.8 322.7,496.5 322.7,550 303.8,559.5 303.8,559.5 283.8,569.5 283.8,569.5 282.8,570 282.8,571 
			282.8,615.8 282.8,616.8 283.8,617.2 283.8,617.2 303.8,627.2 303.8,627.2 304.4,627.6 325.1,617.2 325.1,617.2 345,607.2 
			345,607.2 345.9,606.8 345.9,605.8 345.9,561 345.9,558.2 343.5,559.5 343.5,559.5 323.6,569.5 323.6,569.5 322.7,570 322.7,571 
			322.7,614.7 306.1,623 306.1,562.1 344.5,542.8 345,542.6 345,542.6 345.9,542.1 345.9,541.1 345.9,503.8 345.9,502.8 		"/>
	</g>
	<g>
		<path class="st1" d="M810.8,502.2L810.8,502.2l-19.9-10l0,0l-0.7-0.4l-38.2,19.1l-2.4,1.2l0,0l-0.9,0.5v1v34.8v1l0.9,0.5l0,0
			l16.9,8.5l-16.9,8.5l0,0l-0.9,0.5v1v47.3v1l0.9,0.5l0,0l19.9,10l0,0l0.7,0.4l20.6-10.3l0,0l19.9-10l0,0l0.9-0.5v-1v-47.3v-1
			l-12.6-6.3l-5.2-2.6l16.9-8.5l0,0l0.9-0.5v-1v-34.8v-1L810.8,502.2z M771.8,555.8v-51l16.6-8.3v51L771.8,555.8z M771.8,559.6
			L771.8,559.6l16.6-8.3v63.5l-16.6,8.3V559.6z"/>
	</g>
	<g>
		<path class="st1" d="M888.8,502.2L888.8,502.2l-19.9-10l0,0l-0.7-0.4l-20.7,10.3l0,0l-19.9,10l0,0l-0.9,0.5v1V551v1l0.9,0.5l0,0
			l19.9,10l0,0l0.7,0.4l18.2-9.1v61l-16.6,8.3v-49.6v-2.7l-2.4,1.2l0,0l-19.9,10l0,0l-0.9,0.5v1v32.3v1l0.9,0.5l0,0l19.9,10l0,0
			l0.7,0.4l20.7-10.3l0,0l19.9-10l0,0l0.9-0.5v-1v-64.7v-37.3v-1L888.8,502.2z M849.8,504.8l16.6-8.3V550l-16.6,8.3V504.8z"/>
	</g>
	<g>
		<polygon class="st1" points="733.9,502.2 713.5,492 673,512.2 673,512.2 672,512.7 672,541.2 695.3,529.7 695.3,504.8 
			711.3,496.8 686.4,628.7 712.4,615.7 712.6,614.8 712.6,614.8 733.8,503.4 733.8,503.4 		"/>
	</g>
	<g>
		<polygon class="st1" points="579.3,502.2 579.3,502.2 559.4,492.4 559.4,492.4 558.6,492 530.8,506 517.2,512.7 517.2,512.7 
			517.2,573.7 540.4,562.1 540.4,562.1 557,553.8 557,614.7 540.4,623 540.4,580.9 540.4,578.2 538,579.4 538,579.4 518.1,589.4 
			518.1,589.4 517.2,589.9 517.2,590.9 517.2,615.8 517.2,616.8 518.1,617.2 518.1,617.2 538,627.2 538,627.2 538.8,627.6 
			559.4,617.2 559.4,617.2 579.3,607.2 579.3,607.2 580.2,606.8 580.2,605.8 580.2,561 580.2,560 579.3,559.5 579.3,559.5 
			559.4,549.6 559.4,549.6 558.6,549.2 540.4,558.2 540.4,504.8 557,496.5 557,531.2 557,533.9 559.4,532.7 559.4,532.7 
			579.3,522.7 579.3,522.7 580.2,522.2 580.2,521.2 580.2,503.8 580.2,502.8 		"/>
	</g>
	<g>
		<path class="st1" d="M657.3,502.2L657.3,502.2l-19.9-10l0,0l-0.7-0.4l-20.6,10.3l0,0l-19.9,10l0,0l-0.9,0.5v1v102v1l0.9,0.5l0,0
			l19.9,10l0,0l0.7,0.4l20.6-10.3l0,0l19.9-10l0,0l0.9-0.5v-1V561v-1l-0.9-0.5l0,0l-19.9-10l0,0l-0.7-0.4l-18.2,9.1v-53.5l16.6-8.3
			v37.1v2.7l2.4-1.2l0,0l19.9-10l0,0l0.9-0.5v-1v-19.9v-1L657.3,502.2z M635,553.8v61l-16.6,8.3v-61L635,553.8z"/>
	</g>
	<g>
		<path class="st1" d="M216.4,502.2L216.4,502.2l-19.9-10l0,0l-0.7-0.4l-20.6,10.3l0,0l-19.9,10l0,0l-0.9,0.5v1v102v1l0.9,0.5l0,0
			l19.9,10l0,0l0.7,0.4l20.6-10.3l0,0l19.9-10l0,0l0.9-0.5v-1v-102v-1L216.4,502.2z M177.5,504.8l16.1-8.1l-16.1,106.8V504.8z
			 M194.1,516v98.8l-16.1,8.1L194.1,516z"/>
	</g>
	<g>
		<polygon class="st1" points="245.6,504.8 245.6,504.8 227.2,514 227.2,517.7 244.8,509 244.8,625.8 267.9,614.2 267.9,493.6 		"/>
	</g>
	<g>
		<polygon class="st1" points="422.9,502.2 422.9,502.2 403,492.4 403,492.4 402.3,492 381.6,502.2 381.6,502.2 361.7,512.2 
			361.7,512.2 360.8,512.7 360.8,513.7 360.8,538.6 360.8,541.2 363.2,540.1 363.2,540.1 383.1,530.2 383.1,530.2 384.1,529.7 
			384.1,528.7 384.1,504.8 400.6,496.5 400.6,550.9 384.1,542.6 384.1,564.5 400.6,556.2 400.6,614.7 384.1,623 384.1,576 
			384.1,573.2 381.6,574.5 381.6,574.5 361.7,584.4 361.7,584.4 360.8,584.9 360.8,585.9 360.8,615.8 360.8,616.8 361.7,617.2 
			361.7,617.2 381.6,627.2 381.6,627.2 382.4,627.6 403,617.2 403,617.2 422.9,607.2 422.9,607.2 423.9,606.8 423.9,605.8 
			423.9,563.5 423.9,562.5 422.9,562 422.9,562 406,553.6 422.9,545.1 422.9,545.1 423.9,544.6 423.9,543.6 423.9,503.8 
			423.9,502.8 		"/>
	</g>
	<g>
		<polygon class="st1" points="509.3,555.8 499.4,560.8 499.4,493.6 476.1,505.2 476.1,572.4 459.5,580.7 459.5,577.2 459.5,496.2 
			459.5,493.6 457.1,494.8 457.1,494.8 437.2,504.8 437.2,504.8 436.3,505.2 436.3,506.2 436.3,573.5 436.3,574.5 437.2,575 
			437.2,575 457.1,584.9 457.1,584.9 457.9,585.2 476.1,576.2 476.1,625.8 499.4,614.2 499.4,564.5 509.3,559.6 		"/>
	</g>
	<g>
		<rect x="522.2" y="667.2" class="st0" width="75.5" height="180"/>
	</g>
	<g>
		<polyline class="st0" points="1010,847.2 1088,847.2 1088,667.2 1010,667.2 		"/>
	</g>
	<g>
		<polyline class="st0" points="1088,847.2 1165.9,847.2 1165.9,667.2 1088,667.2 		"/>
	</g>
	<g>
		<polyline class="st0" points="736.2,667.2 673.2,667.2 673.2,847.2 736.2,847.2 		"/>
	</g>
	<g>
		<rect x="431.8" y="667.2" class="st0" width="90.4" height="180"/>
	</g>
	<g>
		<rect x="736.2" y="667.2" class="st0" width="65.5" height="180"/>
	</g>
	<g>
		<polyline class="st0" points="801.8,847.2 892.2,847.2 892.2,667.2 801.8,667.2 		"/>
	</g>
	<g>
		<polyline class="st0" points="892.2,847.2 1010,847.2 1010,667.2 892.2,667.2 		"/>
	</g>
	<g>
		<rect x="146.8" y="667.2" class="st0" width="50.6" height="180"/>
	</g>
	<g>
		<polyline class="st0" points="255.5,667.2 204.9,667.2 204.9,847.2 255.5,847.2 		"/>
	</g>
	<g>
		<rect x="333.4" y="667.2" class="st0" width="98.4" height="180"/>
	</g>
	<g>
		<polyline class="st0" points="673.2,847.2 597.8,847.2 597.8,667.2 673.2,667.2 		"/>
	</g>
	<g>
		<polygon class="st1" points="572.3,682.6 528.1,807.3 547.8,794.3 591.6,673 		"/>
	</g>
	<g>
		<polygon class="st1" points="1076.8,734.3 1050.7,734.3 1050.7,712.3 1047.3,712.3 1047.3,734.3 1030.7,734.3 1021.1,750.2 
			1047.3,750.2 1047.3,772.1 1050.7,772.1 1050.7,750.2 1067.3,750.2 		"/>
	</g>
	<g>
		<g>
			<polygon class="st1" points="1154.8,721.8 1108.6,721.8 1099.1,737.7 1145.3,737.7 			"/>
			<polygon class="st1" points="1099.1,762.6 1145.3,762.6 1154.8,746.8 1108.6,746.8 			"/>
		</g>
	</g>
	<g>
		<polygon class="st1" points="724.6,708.5 729.5,703.7 724.6,698.8 721.4,702 709.8,702 720.5,694 720.5,688 714.4,688 
			706.4,698.7 706.4,687 709.6,683.8 704.8,679 699.9,683.8 703.1,687 703.1,698.7 695,688 689,688 689,694 699.8,702 688,702 
			684.8,698.8 680,703.7 684.8,708.5 688,705.3 699.8,705.3 689,713.3 689,719.3 695,719.3 703.1,708.7 703.1,720.3 699.9,723.6 
			704.8,728.3 709.6,723.6 706.4,720.3 706.4,708.7 714.4,719.3 720.5,719.3 720.5,713.3 709.8,705.3 721.4,705.3 		"/>
	</g>
	<g>
		<g>
			<polygon class="st1" points="489.4,682.6 445.2,807.3 464.7,794.3 508.6,673 			"/>
			<path class="st1" d="M450.1,730.1L450.1,730.1l0.7,0.4l10.8-5.4l9.9-4.9l0,0l0.9-0.5v-1v-17.5v-1l-0.9-0.5l0,0l-10-5l0,0
				l-0.7-0.4l-10.7,5.3l0,0l-10,5l0,0l-0.9,0.5v1v17.4v1l0.9,0.5l0,0L450.1,730.1z M459.2,722.6l-6.6,3.3v-23.7l6.6-3.3V722.6z"/>
			<path class="st1" d="M513.8,754.5L513.8,754.5l-10-5l0,0l-0.7-0.4l-10.7,5.3l0,0l-10,5l0,0l-0.9,0.5v1v17.4v1l0.9,0.5l0,0l10,5
				l0,0l0.7,0.4l10.7-5.3l0,0l10-5l0,0l0.9-0.5v-1V756v-1L513.8,754.5z M494.8,757l6.6-3.3v23.7l-6.6,3.3V757z"/>
		</g>
	</g>
	<g>
		<polygon class="st1" points="751.9,734.3 742.4,750.2 786.1,750.2 795.6,734.3 		"/>
	</g>
	<g>
		<polygon class="st1" points="817.4,734.3 808,750.2 876.5,750.2 886,734.3 		"/>
	</g>
	<g>
		<polygon class="st1" points="983.6,734.3 907.8,734.3 907.8,734.3 907.3,735.2 898.4,750.2 994.3,750.2 1003.8,734.3 		"/>
	</g>
	<g>
		<polygon class="st1" points="197.4,812.2 196.5,811.7 177.5,802.2 177.5,684.8 196.5,675.2 197.4,674.8 197.4,671.1 195,672.3 
			175.1,682.2 175.1,682.2 154.3,692.7 154.3,794.2 175.1,804.7 175.1,804.7 195,814.7 197.4,815.8 		"/>
	</g>
	<g>
		<polygon class="st1" points="248,692.7 227.2,682.2 227.2,682.2 207.3,672.3 204.9,671.1 204.9,674.8 205.8,675.2 224.8,684.8 
			224.8,802.2 205.8,811.7 204.9,812.2 204.9,815.8 207.3,814.7 227.2,804.7 227.2,804.7 248,794.2 		"/>
	</g>
	<g>
		<path class="st1" d="M431.8,804.1v-4.8l-17.9-18.9v-47l-23.2,11.6v10.9L365.3,729l12.9-6.5l10-5l5-2.5l0,0l0.9-0.5v-1v-29.9v-0.9
			l-16.5-11l-29.9,15l-0.8,0.4l0,0l-0.9,0.5v1v24.9v0.7l13.8,13.8l-17.8,8.9l0,0l-0.9,0.5v1v57.2v1l0.9,0.5l0,0l19.9,10l0,0l0.7,0.4
			l40.6-20.3l0,0l8.7-4.4L431.8,804.1z M364.1,682.2l11.6-5.8V720l-11.6,5.8V682.2z M390.7,789.8l-26.5,13.3v-70.3l26.5,28V789.8z"
			/>
	</g>
	<g>
		<polygon class="st1" points="623.1,682.6 667.3,807.3 647.8,794.3 603.9,673 		"/>
	</g>
	<g>
		<g>
			<polyline class="st0" points="333.4,847.2 255.5,847.2 255.5,667.2 333.4,667.2 			"/>
		</g>
		<g>
			<path class="st1" d="M325.1,682.2L325.1,682.2l-19.9-10l0,0l-0.7-0.4l-8.3,4.1v-6.2l-3.3,1.7v6.2l-16.4,8.2l-13.5,6.8l0,0v60.9
				l23.2-11.6l6.6-3.3v61l-6.6,3.3v-42.1v-2.7l-2.4,1.2l0,0l-19.9,10l0,0l-0.9,0.5v1v24.9v1l0.9,0.5l0,0l19.9,10l0,0l0.7,0.4
				l8.3-4.1v6.2l3.3-1.7v-6.2L326,787v-68.4l-23.2,11.6l0,0l-6.6,3.3V680l6.6-3.3v34.6v2.7l2.4-1.2l0,0l19.9-10l0,0l0.9-0.5v-1
				v-17.4v-1L325.1,682.2z M292.8,735l-6.6,3.3v-53.5l6.6-3.3V735z M302.8,733.8v61l-6.6,3.3v-61L302.8,733.8z"/>
		</g>
	</g>
	<rect x="1003.3" y="487.2" class="st0" width="38.2" height="180"/>
	<rect x="1117.8" y="487.2" class="st0" width="38.2" height="180"/>
	<g>
		<polyline class="st0" points="1041.4,667.2 1079.7,667.2 1079.7,487.2 1041.4,487.2 		"/>
	</g>
	<g>
		<line class="st0" x1="1079.7" y1="667.2" x2="1117.8" y2="667.2"/>
		<line class="st0" x1="1117.8" y1="487.2" x2="1079.7" y2="487.2"/>
	</g>
	<g>
		<polygon class="st1" points="1010.8,602.2 1010.8,625.8 1034,614.2 1034,590.7 		"/>
	</g>
	<g>
		<g>
			<polygon class="st1" points="1125.2,552.5 1125.2,576.2 1148.6,564.5 1148.6,540.9 			"/>
			<polygon class="st1" points="1125.2,625.8 1148.6,614.2 1148.6,590.7 1125.2,602.2 			"/>
		</g>
	</g>
	<g>
		<polygon class="st1" points="1048.9,602.2 1048.9,625.8 1068.8,616 1068.8,627.2 1048.9,637.1 1048.9,640.8 1072.2,629.2 
			1072.2,614.2 1072.2,613.2 1072.2,590.7 		"/>
	</g>
	<g>
		<polygon class="st1" points="1087.2,552.5 1087.2,576.2 1110.3,564.5 1110.3,540.9 		"/>
		<polygon class="st1" points="1087.2,602.2 1087.2,625.8 1107.1,616 1107.1,627.2 1087.2,637.1 1087.2,640.8 1110.3,629.2 
			1110.3,614.2 1110.3,613.2 1110.3,590.7 		"/>
	</g>
	<g>
		<g>
			<rect x="146.8" y="847.2" class="st0" width="65.5" height="180"/>
		</g>
		<g>
			<line class="st0" x1="212.3" y1="1027.2" x2="282.8" y2="1027.2"/>
			<line class="st0" x1="282.8" y1="847.2" x2="217.3" y2="847.2"/>
		</g>
		<g>
			<rect x="277.9" y="847.2" class="st0" width="38.2" height="180"/>
		</g>
		<g>
			<polyline class="st0" points="316,1027.2 354.2,1027.2 354.2,847.2 316,847.2 			"/>
		</g>
		<g>
			<polygon class="st1" points="157.6,867.2 177.5,857.3 177.5,853.6 154.3,865.2 154.3,880.2 154.3,881.2 154.3,903.8 177.5,892.2 
				177.5,868.6 157.6,878.5 			"/>
			<polygon class="st1" points="185,867.2 204.9,857.3 204.9,853.6 181.6,865.2 181.6,880.2 181.6,881.2 181.6,903.8 204.9,892.2 
				204.9,868.6 185,878.5 			"/>
		</g>
		<g>
			<polygon class="st1" points="239.8,890.1 219.8,900.1 219.8,903.8 243,892.2 243,877.2 243,876.2 243,853.6 219.8,865.2 
				219.8,888.8 239.8,878.8 			"/>
			<polygon class="st1" points="267.1,890.1 247.2,900.1 247.2,903.8 270.4,892.2 270.4,877.2 270.4,876.2 270.4,853.6 247.2,865.2 
				247.2,888.8 267.1,878.8 			"/>
		</g>
		<g>
			<polygon class="st1" points="288.8,867.2 308.6,857.3 308.6,853.6 285.3,865.2 285.3,880.2 285.3,881.2 285.3,903.8 308.6,892.2 
				308.6,868.6 288.8,878.5 			"/>
		</g>
		<g>
			<polygon class="st1" points="323.5,903.8 323.5,900.1 343.4,890.1 343.4,878.8 323.5,888.8 323.5,865.2 346.7,853.6 346.7,876.2 
				346.7,877.2 346.7,892.2 			"/>
		</g>
		<g>
			<g>
				<polyline class="st0" points="354.2,1027.2 407.3,1027.2 407.3,847.2 354.2,847.2 				"/>
			</g>
			<g>
				<polyline class="st0" points="407.3,1027.2 460.4,1027.2 460.4,847.2 407.3,847.2 				"/>
			</g>
			<g>
				<polygon class="st1" points="399.8,947.3 391.1,942.5 366.7,928.5 399.8,909.5 399.8,908.6 399.8,893.7 399.8,890.8 
					361.7,912.6 361.7,913.6 361.7,928.5 361.7,929.5 362.5,929.8 362.5,929.8 362.5,929.8 397.3,949.8 397.3,949.8 399.8,951.2 
									"/>
			</g>
			<g>
				<polygon class="st1" points="414.8,890.8 414.8,893.7 414.8,908.6 414.8,909.5 447.9,928.5 436.1,935.2 414.8,947.3 
					414.8,951.2 417.2,949.8 417.2,949.8 452.1,929.8 452.1,929.8 452.1,929.8 452.9,929.5 452.9,928.5 452.9,913.6 452.9,912.6 
									"/>
			</g>
		</g>
	</g>
</g>
</svg>
