<?xml version="1.0" encoding="utf-8"?>
<!-- Generator: Adobe Illustrator 19.0.1, SVG Export Plug-In . SVG Version: 6.00 Build 0)  -->
<svg version="1.1" id="Layer_1" xmlns="http://www.w3.org/2000/svg" xmlns:xlink="http://www.w3.org/1999/xlink" x="0px" y="0px"
	 viewBox="-688.9 -3.6 1080 1447.2" style="enable-background:new -688.9 -3.6 1080 1447.2;" xml:space="preserve">
<style type="text/css">
	.st0{fill:none;stroke:#747279;stroke-miterlimit:10;}
	.st1{fill:#747279;}
</style>
<g>
	<g>
		<rect x="-69.7" y="0" class="st0" width="38.2" height="180"/>
	</g>
	<g>
		<polyline class="st0" points="-69.7,0 -147.6,0 -147.6,180 -69.7,180 		"/>
	</g>
	<g>
		<rect x="44" y="0" class="st0" width="78" height="180"/>
	</g>
	<g>
		<rect x="197.5" y="0" class="st0" width="112.8" height="180"/>
	</g>
	<g>
		<rect x="-608" y="0" class="st0" width="78" height="180"/>
	</g>
	<g>
		<rect x="-452.1" y="0" class="st0" width="78" height="180"/>
	</g>
	<g>
		<line class="st0" x1="197.5" y1="0" x2="122" y2="0"/>
		<line class="st0" x1="122" y1="180" x2="197.5" y2="180"/>
	</g>
	<g>
		<rect x="310.3" y="0" class="st0" width="78" height="180"/>
	</g>
	<g>
		<line class="st0" x1="-452.1" y1="0" x2="-530" y2="0"/>
		<line class="st0" x1="-530" y1="180" x2="-452.1" y2="180"/>
	</g>
	<g>
		<polyline class="st0" points="-608,0 -686,0 -686,180 -608,180 		"/>
	</g>
	<g>
		<polyline class="st0" points="-374.1,180 -296.1,180 -296.1,0 -374.1,0 		"/>
	</g>
	<g>
		<polyline class="st0" points="-296.1,180 -225.6,180 -225.6,0 -296.1,0 		"/>
	</g>
	<g>
		<line class="st0" x1="-225.6" y1="180" x2="-147.6" y2="180"/>
		<line class="st0" x1="-147.6" y1="0" x2="-225.6" y2="0"/>
	</g>
	<g>
		<line class="st0" x1="44" y1="0" x2="-31.5" y2="0"/>
		<line class="st0" x1="-31.5" y1="180" x2="44" y2="180"/>
	</g>
	<g>
		<rect x="-686" y="180" class="st0" width="78" height="180"/>
	</g>
	<g>
		<rect x="-230.6" y="180" class="st0" width="78" height="180"/>
	</g>
	<g>
		<rect x="35.7" y="180" class="st0" width="78" height="180"/>
	</g>
	<g>
		<polyline class="st0" points="113.7,360 189.2,360 189.2,180 113.7,180 		"/>
	</g>
	<g>
		<polyline class="st0" points="-152.6,360 -77.1,360 -77.1,180 -152.6,180 		"/>
	</g>
	<g>
		<polyline class="st0" points="-608,360 -532.5,360 -532.5,180 -608,180 		"/>
	</g>
	<g>
		<rect x="-298.6" y="180" class="st0" width="68" height="180"/>
	</g>
	<g>
		<rect x="-454.6" y="180" class="st0" width="78" height="180"/>
	</g>
	<g>
		<line class="st0" x1="-77.1" y1="360" x2="48.9" y2="360"/>
		<line class="st0" x1="48.9" y1="180" x2="-77.1" y2="180"/>
	</g>
	<g>
		<polyline class="st0" points="189.2,180 267.1,180 267.1,360 189.2,360 		"/>
	</g>
	<g>
		<line class="st0" x1="-298.6" y1="180" x2="-376.6" y2="180"/>
		<line class="st0" x1="-376.6" y1="360" x2="-298.6" y2="360"/>
	</g>
	<g>
		<line class="st0" x1="-454.6" y1="180" x2="-532.5" y2="180"/>
		<line class="st0" x1="-532.5" y1="360" x2="-454.6" y2="360"/>
	</g>
	<g>
		<polygon class="st1" points="-62.2,18.1 -62.2,127.4 -39,138.7 -39,6.4 		"/>
	</g>
	<g>
		<polygon class="st1" points="-100.4,18.1 -100.4,62.8 -116.9,71.1 -116.9,6.4 -140.2,18.1 -140.2,127.4 -116.9,138.7 -116.9,74.9 
			-100.4,66.6 -100.4,127.4 -77.1,138.7 -77.1,6.4 		"/>
	</g>
	<g>
		<polygon class="st1" points="114.5,6.4 91.3,18.1 91.3,58.7 91.3,60.4 74.7,68.6 74.7,6.4 51.5,18.1 51.5,127.1 74.7,138.7 
			74.7,72.4 91.3,64.1 91.3,127.1 114.5,138.7 114.5,70.3 96.6,61.4 114.5,52.5 		"/>
	</g>
	<g>
		<polygon class="st1" points="280.5,17.6 280.5,17.6 265.5,25.1 265.5,6.4 243.2,17.6 243.2,17.6 228.2,25.1 228.2,6.4 204.9,18.1 
			204.9,127.1 228.2,138.7 228.2,28.8 242.2,21.8 242.2,127.1 265.5,138.7 265.5,28.8 279.6,21.8 279.6,127.1 302.8,138.7 
			302.8,6.4 		"/>
	</g>
	<g>
		<path class="st1" d="M-559.1,4.8l-20.7,10.3l0,0l-19.9,10l0,0l-0.9,0.5v1v102v1l0.9,0.5l0,0l19.9,10l0,0l0.7,0.4l20.7-10.3l0,0
			l19.9-10l0,0l0.9-0.5v-1V73.8v-1l-0.9-0.5l0,0l-16.9-8.5l16.9-8.5l0,0l0.9-0.5v-1V17.4v-1L-559.1,4.8z M-560.7,62.8l-16.6,8.3
			V17.6l16.6-8.3V62.8z M-577.3,74.9l16.6-8.3v61l-16.6,8.3V74.9z"/>
	</g>
	<g>
		<path class="st1" d="M-382.5,25.1L-382.5,25.1l-19.9-10l0,0L-423,4.8l-0.7,0.4l0,0l-19.9,10l0,0l-0.9,0.5v1v112v1l0.9,0.5l0,0
			l19.9,10l0,0l0.7,0.4l20.6-10.3l0,0l19.9-10l0,0l0.9-0.5v-1V26.5v-1L-382.5,25.1z M-421.4,9.3l16.6,8.3v109.9l-16.6,8.3V9.3z"/>
	</g>
	<g>
		<polygon class="st1" points="190.1,74.8 190.1,74.8 170.2,84.8 170.2,84.8 169.2,85.2 169.2,86.3 169.2,127.5 152.7,135.8 
			152.7,9.1 152.7,6.4 150.3,7.6 150.3,7.6 130.4,17.6 130.3,17.6 129.4,18.1 129.4,19.1 129.4,128.8 129.4,129.9 130.4,130.3 
			130.4,130.3 144.5,137.2 151,140.4 171.7,130.1 191.6,120.1 191.6,120.1 192.5,119.6 192.5,118.6 192.5,76.3 192.5,73.6 		"/>
	</g>
	<g>
		<polygon class="st1" points="378.4,7.6 378.4,7.6 358.5,17.6 358.5,17.6 357.5,18.1 357.5,19.1 357.5,64.9 340.3,6.8 338.6,7.6 
			338.6,7.6 318.7,17.6 318.6,17.6 317.7,18.1 317.7,19.1 317.7,126.1 317.7,127.1 318.6,127.6 318.7,127.6 338.6,137.5 
			338.6,137.5 341,138.7 341,136 341,20.6 357.5,76.6 357.5,126.1 357.5,127.1 358.5,127.6 358.5,127.6 378.4,137.5 378.4,137.5 
			380.8,138.7 380.8,136 380.8,9.1 380.8,6.4 		"/>
	</g>
	<g>
		<polygon class="st1" points="-460.5,15.1 -460.5,15.1 -480.4,5.2 -480.4,5.2 -481.1,4.8 -501.8,15.1 -501.8,15.1 -521.7,25.1 
			-521.7,25.1 -522.6,25.5 -522.6,26.5 -522.6,128.6 -522.6,129.6 -521.7,130.1 -521.7,130.1 -501.8,140 -501.8,140 -501,140.4 
			-480.4,130.1 -480.4,130.1 -460.5,120.1 -460.5,120.1 -459.5,119.6 -459.5,118.6 -459.5,88.8 -459.5,86.1 -461.9,87.3 
			-461.9,87.3 -481.9,97.2 -481.9,97.2 -482.8,97.7 -482.8,98.7 -482.8,127.5 -499.4,135.8 -499.4,17.6 -482.8,9.3 -482.8,36.5 
			-482.8,37.5 -481.9,38 -481.9,38 -461.9,47.9 -461.9,47.9 -459.5,49.1 -459.5,46.5 -459.5,16.6 -459.5,15.6 		"/>
	</g>
	<g>
		<path class="st1" d="M-616.4,15.1L-616.4,15.1l-19.9-10l0,0l-0.7-0.4l-40.6,20.4l0,0l-0.9,0.5v101.6l23.2,11.6V87.3l16.6-8.3v47.1
			v1l0.9,0.5l0,0l19.9,10l0,0l2.4,1.2V136V16.6v-1L-616.4,15.1z M-655.3,17.6l16.6-8.3v66l-16.6,8.3
			C-655.3,83.6-655.3,17.6-655.3,17.6z"/>
	</g>
	<g>
		<g>
			<polygon class="st1" points="-304.5,15.1 -304.5,15.1 -324.4,5.2 -324.4,5.2 -325.2,4.8 -345.8,15.1 -345.8,15.1 -365.7,25.1 
				-365.7,25.1 -366.6,25.5 -366.6,26.5 -366.6,128.6 -366.6,129.6 -365.7,130.1 -365.7,130.1 -345.8,140 -345.8,140 -345.1,140.4 
				-324.4,130.1 -324.4,130.1 -304.5,120.1 -304.5,120.1 -303.6,119.6 -303.6,118.6 -303.6,93.7 -303.6,92.7 -304.5,92.2 
				-304.5,92.2 -324.4,82.3 -324.4,82.3 -326.8,81.1 -326.8,83.8 -326.8,127.5 -343.4,135.8 -343.4,69 -326.8,77.3 -326.8,55.4 
				-343.4,63.7 -343.4,17.6 -326.8,9.3 -326.8,41.5 -326.8,42.5 -325.9,43 -325.9,43 -306,52.9 -306,52.9 -303.6,54.1 -303.6,51.4 
				-303.6,16.6 -303.6,15.6 			"/>
			<polygon class="st1" points="-323.5,78.8 -323.9,78.8 -323.5,79 			"/>
		</g>
	</g>
	<g>
		<polygon class="st1" points="-226.5,15.1 -226.5,15.1 -246.4,5.2 -246.4,5.2 -247.2,4.8 -267.8,15.1 -267.8,15.1 -287.7,25.1 
			-287.7,25.1 -288.7,25.5 -288.7,26.5 -288.7,126.1 -288.7,127.1 -287.7,127.6 -287.7,127.6 -267.8,137.5 -267.8,137.5 
			-265.4,138.7 -265.4,136 -265.4,71.5 -248.8,79.8 -248.8,57.9 -265.4,66.2 -265.4,17.6 -248.8,9.3 -248.8,41.5 -248.8,42.5 
			-247.9,43 -247.9,43 -228,52.9 -228,52.9 -225.6,54.1 -225.6,51.4 -225.6,16.6 -225.6,15.6 		"/>
	</g>
	<g>
		<g>
			<g>
				<g>
					<path class="st1" d="M-156.8,136"/>
				</g>
			</g>
		</g>
		<g>
			<g>
				<g>
					<path class="st1" d="M-156.8,118.6"/>
				</g>
			</g>
		</g>
		<path class="st1" d="M-156,15.1L-156,15.1l-19.9-10l0,0l-0.7-0.4L-197.2,15l0,0l-19.9,10l0,0l-0.9,0.5v1v102v1l0.9,0.5l0,0
			l19.9,10l0,0l0.7,0.4l20.6-10.3l0,0l19.9-10l0,0l0.9-0.5v-1V54.5v-2.6l-2.4,1.1l0,0l-19.9,9.4l0,0l0,0l-10.9,5.4v3.7l9.9-5v61
			l-16.6,8.3v-29.3V74.9v-3.7v-3.6v-50l16.6-8.3v37.1v2.7l2.4-1.2l0,0l20-9.9l0,0l0.9-0.5v-1V16.6v-1L-156,15.1z"/>
	</g>
	<g>
		<polygon class="st1" points="14.2,17.6 14.2,17.6 -3.3,26.3 -3.3,30.1 13.3,21.8 13.3,127.5 -3.3,135.8 -3.3,78.8 -3.3,53.9 
			-3.3,51.2 -5.7,52.4 -5.7,52.4 -25.6,62.4 -25.6,62.4 -26.5,62.8 -26.5,63.9 -26.5,128.6 -26.5,129.6 -25.6,130.1 -25.6,130.1 
			-5.7,140 -5.7,140 -5,140.4 35.6,120.1 36.5,119.6 36.5,6.4 		"/>
	</g>
	<g>
		<path class="st1" d="M-616.4,195.1L-616.4,195.1l-19.9-10l0,0l-0.7-0.4l-20.6,10.3l0,0l-19.9,10l0,0l-0.9,0.5v1v102v1l0.9,0.5l0,0
			l19.9,10l0,0l0.7,0.4l20.6-10.3l0,0l19.9-10l0,0l0.9-0.5v-1v-102v-1L-616.4,195.1z M-655.3,197.6l16.6-8.3v118.2l-16.6,8.3
			C-655.3,315.8-655.3,197.6-655.3,197.6z"/>
	</g>
	<polygon class="st1" points="-160.1,318.7 -160.1,186.4 -183.3,198.1 -183.3,305.2 -199.9,315.5 -199.9,189.1 -199.9,189.1 
		-199.9,186.4 -202.3,187.6 -202.3,187.6 -222.2,197.6 -222.2,197.6 -223.1,198.1 -223.1,199.1 -223.1,308.6 -223.1,309.6 
		-222.2,310.1 -222.2,310.1 -212.3,315 -201.5,320.4 -200.7,319.9 -200.7,319.9 -200.7,319.9 -181.6,308 	"/>
	<polygon class="st1" points="106.2,186.4 83,198.1 83,242.8 74.7,247 66.4,242.8 66.4,186.4 43.2,198.1 43.2,234.9 44.1,235.4 
		44.1,235.4 71,248.8 66.4,251.1 66.4,251.1 54.8,256.9 44.1,262.3 44.1,262.3 43.2,262.8 43.2,307.1 66.4,318.7 66.4,254.9 
		74.7,250.7 83,254.9 83,307.1 106.2,318.7 106.2,262.8 105.3,262.3 105.3,262.3 78.4,248.8 105.3,235.4 105.3,235.4 106.2,234.9 	
		"/>
	<polygon class="st1" points="158.5,198.1 158.5,265.2 141.9,273.5 141.9,189.1 141.9,186.4 139.5,187.6 139.5,187.6 119.6,197.6 
		119.6,197.6 118.6,198.1 118.6,199.1 118.6,266.3 118.6,267.3 119.6,267.8 119.6,267.8 139.5,277.7 139.5,277.7 140.2,278.1 
		158.5,269 158.5,318.7 181.7,307.1 181.7,186.4 	"/>
	<polygon class="st1" points="-84.5,187.6 -84.5,187.6 -104.4,197.6 -104.4,197.6 -105.3,198.1 -105.3,199.1 -105.3,297.9 
		-121.9,314.5 -121.9,189.1 -121.9,186.4 -124.3,187.6 -124.3,187.6 -144.2,197.6 -144.2,197.6 -145.1,198.1 -145.1,199.1 
		-145.1,308.6 -145.1,309.6 -144.2,310.1 -144.2,310.1 -124.3,320 -124.3,320 -123.2,320.5 -82.1,279.4 -82.1,278.7 -82.1,189.1 
		-82.1,186.4 	"/>
	<g>
		<path class="st1" d="M-559.1,184.8l-18.2,9.1v-7.5l-23.2,11.6v109.1l23.2,11.6v-41.5l19-9.5l0,0l19.9-10l0,0l0.9-0.5v-1v-59.7v-1
			L-559.1,184.8z M-577.3,197.6l16.6-8.3v75.9l-16.6,8.3V197.6z"/>
	</g>
	<polygon class="st1" points="-230.6,209.5 -230.6,181.5 -250.4,191.4 -250.4,191.4 -253,192.7 -253,192.7 -254.7,193.5 
		-255.4,193.9 -255.4,193.9 -275.3,203.8 -275.3,203.8 -278.1,205.2 -298.6,215.4 -298.6,244.8 -276.2,208.4 -276.2,305.9 
		-253,317.5 -253,196.4 -252.2,196 	"/>
	<path class="st1" d="M-385,195.1L-385,195.1l-19.9-10l0,0l-0.7-0.4l-18.2,9.1v-7.5l-23.2,11.6V307l23.2,11.6v-63.9l16.6-8.3v60.5
		l23.2,11.6v-65.9l-17.9-8.9l16.9-8.5l0,0l0.9-0.5v-1v-37.3v-1L-385,195.1z M-423.9,197.6l16.6-8.3v51.9v1.7l-16.6,8.3V197.6z"/>
	<polygon class="st1" points="28.2,186.4 5,198.1 5,305.2 -9.1,315.3 -9.1,189.1 -9.1,186.4 -11.5,187.6 -11.5,187.6 -31.4,197.6 
		-31.4,197.6 -32.3,198.1 -32.3,199.1 -32.3,307.6 -46.4,315.7 -46.4,189.1 -46.4,186.4 -48.8,187.6 -48.8,187.6 -68.7,197.6 
		-68.7,197.6 -69.7,198.1 -69.7,199.1 -69.7,308.6 -69.7,309.6 -68.7,310.1 -68.7,310.1 -48.8,320 -48.8,320 -48,320.4 -30.6,310.5 
		-11.5,320 -11.5,320 -10.6,320.5 6.8,308 28.2,318.7 	"/>
	<polygon class="st1" points="258.7,195.1 258.7,195.1 238.8,185.2 238.8,185.2 238.1,184.8 217.4,195.1 217.4,195.1 197.5,205.1 
		197.5,205.1 196.6,205.5 196.6,206.5 196.6,243.9 196.6,246.6 199,245.4 199,245.4 218.9,235.4 218.9,235.4 219.8,234.9 
		219.8,233.9 219.8,197.6 236.4,189.3 236.4,242.8 217.4,252.3 217.4,252.3 197.5,262.3 197.5,262.3 196.6,262.8 196.6,263.8 
		196.6,308.6 196.6,309.6 197.5,310.1 197.5,310.1 217.4,320 217.4,320 218.2,320.4 238.8,310.1 238.8,310.1 258.7,300.1 
		258.7,300.1 259.7,299.6 259.7,298.6 259.7,253.8 259.7,251.1 257.3,252.3 257.3,252.3 237.4,262.3 237.4,262.3 236.4,262.8 
		236.4,263.8 236.4,307.5 219.8,315.8 219.8,254.9 258.3,235.6 258.7,235.4 258.7,235.4 259.7,234.9 259.7,233.9 259.7,196.6 
		259.7,195.6 	"/>
	<polygon class="st1" points="-307,195.1 -307,195.1 -326.9,185.2 -326.9,185.2 -327.6,184.8 -345.9,193.9 -345.9,193.9 
		-369.1,205.5 -369.1,266.5 -345.9,254.9 -329.3,246.6 -329.3,307.5 -345.9,315.8 -345.9,273.7 -345.9,271 -348.3,272.2 
		-348.3,272.2 -368.2,282.2 -368.2,282.2 -369.1,282.7 -369.1,283.7 -369.1,308.6 -369.1,309.6 -368.2,310.1 -368.2,310.1 
		-348.3,320 -348.3,320 -347.5,320.4 -329.3,311.3 -306.1,299.6 -306.1,231.2 -329.3,242.8 -345.9,251.1 -345.9,197.6 -329.3,189.3 
		-329.3,224 -329.3,226.7 -326.9,225.5 -326.9,225.5 -307,215.5 -307,215.5 -306.1,215 -306.1,214 -306.1,196.6 -306.1,195.6 	"/>
	<g>
		<path class="st1" d="M-454.6,317.7l-24.9-9.3l16.5-8.2l0,0l0.9-0.5v-1v-102v-1l-0.9-0.5l0,0l-19.9-10l0,0l-0.7-0.4l-20.6,10.3l0,0
			l-19.9,10l0,0l-0.9,0.5v1v102v1l0.9,0.5l0,0l19.9,10l0,0l0.7,0.4l0.7-0.4l0,0l19.3-9.6l28.9,10.9V317.7z M-501.8,315.8v-12.3
			l14.1,5.3L-501.8,315.8z M-485.3,306.2l-16.6-6.2V197.6l16.6-8.3V306.2z"/>
	</g>
</g>
<g>
	<g>
		<rect x="-243" y="450" class="st0" width="78" height="180"/>
	</g>
	<g>
		<rect x="-87.1" y="450" class="st0" width="38.2" height="180"/>
	</g>
	<g>
		<polyline class="st0" points="-48.9,630 -10.8,630 -10.8,450 -48.9,450 		"/>
	</g>
	<g>
		<rect x="-686" y="450" class="st0" width="78" height="180"/>
	</g>
	<g>
		<polyline class="st0" points="-608,630 -530,630 -530,450 -608,450 		"/>
	</g>
	<g>
		<rect x="64.7" y="450" class="st0" width="38.2" height="180"/>
	</g>
	<g>
		<rect x="-452.1" y="450" class="st0" width="78" height="180"/>
	</g>
	<g>
		<line class="st0" x1="-87.1" y1="450" x2="-165.1" y2="450"/>
		<line class="st0" x1="-165.1" y1="630" x2="-87.1" y2="630"/>
	</g>
	<g>
		<rect x="215.7" y="450" class="st0" width="78" height="180"/>
	</g>
	<g>
		<line class="st0" x1="64.7" y1="450" x2="-10.8" y2="450"/>
		<line class="st0" x1="-10.8" y1="630" x2="64.7" y2="630"/>
	</g>
	<g>
		<polyline class="st0" points="-374.1,630 -296.1,630 -296.1,450 -374.1,450 		"/>
	</g>
	<g>
		<line class="st0" x1="215.7" y1="450" x2="102.9" y2="450"/>
		<line class="st0" x1="102.9" y1="630" x2="215.7" y2="630"/>
	</g>
	<g>
		<line class="st0" x1="-452.1" y1="450" x2="-530" y2="450"/>
		<line class="st0" x1="-530" y1="630" x2="-452.1" y2="630"/>
	</g>
	<g>
		<line class="st0" x1="-243" y1="450" x2="-296.1" y2="450"/>
		<line class="st0" x1="-296.1" y1="630" x2="-243" y2="630"/>
	</g>
	<g>
		<rect x="-243.8" y="630" class="st0" width="78" height="180"/>
	</g>
	<g>
		<rect x="22.5" y="630" class="st0" width="78" height="180"/>
	</g>
	<g>
		<polyline class="st0" points="100.5,810 178.5,810 178.5,630 100.5,630 		"/>
	</g>
	<g>
		<rect x="-608" y="630" class="st0" width="78" height="180"/>
	</g>
	<g>
		<rect x="-452.1" y="630" class="st0" width="70.5" height="180"/>
	</g>
	<g>
		<polyline class="st0" points="22.5,630 -90.3,630 -90.3,810 22.5,810 		"/>
	</g>
	<g>
		<polyline class="st0" points="-243.8,630 -303.6,630 -303.6,810 -243.8,810 		"/>
	</g>
	<g>
		<line class="st0" x1="-530" y1="810" x2="-452.1" y2="810"/>
		<line class="st0" x1="-452.1" y1="630" x2="-530" y2="630"/>
	</g>
	<g>
		<line class="st0" x1="-381.6" y1="810" x2="-303.6" y2="810"/>
		<line class="st0" x1="-303.6" y1="630" x2="-381.6" y2="630"/>
	</g>
	<g>
		<line class="st0" x1="-60.7" y1="630" x2="-165.8" y2="630"/>
		<line class="st0" x1="-165.8" y1="810" x2="-60.7" y2="810"/>
	</g>
	<g>
		<polyline class="st0" points="178.5,810 256.4,810 256.4,630 178.5,630 		"/>
	</g>
	<g>
		<polyline class="st0" points="-608,630 -686,630 -686,810 -608,810 		"/>
	</g>
	<g>
		<path class="st1" d="M-194.1,494.6l-20.6,10.3l0,0l-19.9,10l0,0l-0.9,0.5v1v62.2v1l0.9,0.5l0,0l19.9,10l0,0l0.7,0.4l18.2-9.1V615
			l-16.6,8.3v-19.7v-1l-0.9-0.5l0,0l-19.9-10l0,0l-2.4-1.2v2.7V616v1l0.9,0.5l0,0l19.9,10l0,0l0.7,0.4l20.6-10.3l0,0l19.9-10l0,0
			l0.9-0.5v-1v-99.3v-1.3L-194.1,494.6z M-212.3,585.8v-78.4l16.6-8.3v78.4L-212.3,585.8z"/>
	</g>
	<g>
		<g>
			<polygon class="st1" points="-79.6,475.5 -79.6,499.1 -56.4,487.5 -56.4,463.9 			"/>
			<polygon class="st1" points="-79.6,577.1 -56.4,588.7 -56.4,496.3 -79.6,507.9 			"/>
		</g>
	</g>
	<g>
		<g>
			<polygon class="st1" points="-41.4,475.5 -41.4,499.1 -18.2,487.5 -18.2,463.9 			"/>
			<polygon class="st1" points="-41.4,628.5 -18.2,616.9 -18.2,496.3 -41.4,507.9 			"/>
		</g>
	</g>
	<g>
		<path class="st1" d="M-616.4,504.9L-616.4,504.9l-19.9-10l0,0l-0.7-0.4l-20.6,10.3l0,0l-19.9,10l0,0l-0.9,0.5v1v17.4v2.7l2.4-1.2
			l0,0l19.9-10l0,0l0.9-0.5v-1v-16.4l16.6-8.3v26.1l-19.6,9.9l-19.4,9.7l0,0l-0.9,0.5v1v32.3v1l0.9,0.5l0,0l19.9,10l0,0l0.8,0.4
			L-637,578l19.1,9.5l0,0l2.4,1.2V586v-79.6v-1L-616.4,504.9z M-638.7,575.2l-16.6,10.4v-48.2l16.6-8.3V575.2z"/>
	</g>
	<g>
		<path class="st1" d="M-538.4,504.9L-538.4,504.9l-19.9-10l0,0l-0.7-0.4l-18.2,9.1V454v-2.7l-2.4,1.2l0,0l-19.9,10l0,0l-0.9,0.5v1
			v114.5v1l0.9,0.5l0,0l19.9,10l0,0l0.7,0.4l20.7-10.3l0,0l19.9-10l0,0l0.9-0.5v-1v-62.2v-1L-538.4,504.9z M-560.7,499.1v78.4
			l-16.6,8.3v-78.4L-560.7,499.1z"/>
	</g>
	<g>
		<polygon class="st1" points="72.2,465.6 72.2,577.1 95.4,588.7 95.4,453.9 		"/>
	</g>
	<g>
		<path class="st1" d="M-384,452.7L-384,452.7l-19.9,10l0,0l-0.9,0.5v1v31.3l-19,9.5l0,0l-19.9,10l0,0l-0.9,0.5v1v62.2v1l0.9,0.5
			l0,0l19.9,10l0,0l0.8,0.4l20-12.6l19.1,9.5l0,0l2.4,1.2V586V454.2v-2.7L-384,452.7z M-404.8,575.2l-16.6,10.4v-78.1l16.6-8.3
			V575.2z"/>
	</g>
	<g>
		<polygon class="st1" points="-95.5,504.9 -95.5,504.9 -115.4,495 -115.4,495 -116.1,494.6 -134.4,503.7 -134.4,456.6 
			-134.4,453.9 -136.8,455.2 -136.8,455.2 -156.7,465.1 -156.7,465.1 -157.6,465.6 -157.6,466.6 -157.6,576.1 -157.6,577.1 
			-156.7,577.6 -156.7,577.6 -136.8,587.5 -136.8,587.5 -134.4,588.7 -134.4,586 -134.4,507.4 -117.8,499.1 -117.8,576.1 
			-117.8,577.1 -116.9,577.6 -116.9,577.6 -96.9,587.5 -96.9,587.5 -94.5,588.7 -94.5,586 -94.5,506.4 -94.5,505.4 		"/>
	</g>
	<g>
		<polygon class="st1" points="285.3,504.9 285.3,504.9 265.4,495 265.4,495 264.7,494.6 246.4,503.7 246.4,498.9 246.4,496.3 
			244,497.5 244,497.5 224.1,507.4 224.1,507.4 223.2,507.9 223.2,508.9 223.2,576.1 223.2,577.1 224.1,577.6 224.1,577.6 
			244,587.5 244,587.5 246.4,588.7 246.4,586 246.4,507.4 263,499.1 263,576.1 263,577.1 263.9,577.6 263.9,577.6 283.8,587.5 
			283.8,587.5 286.2,588.7 286.2,586 286.2,506.4 286.2,505.4 		"/>
	</g>
	<g>
		<polygon class="st1" points="59.8,505.4 36.5,493.8 36.5,533.6 36.5,535.2 19.9,543.5 19.9,453.9 -3.3,465.6 -3.3,577.1 
			19.9,588.7 19.9,547.2 36.5,539 36.5,577.1 59.8,588.7 59.8,545.2 41.9,536.3 59.8,527.3 		"/>
	</g>
	<g>
		<path class="st1" d="M-304.5,504.9L-304.5,504.9l-19.9-10l0,0l-0.7-0.4l-20.6,10.3l0,0l-19.9,10l0,0l-0.9,0.5v1v62.2v1l0.9,0.5
			l0,0l19.9,10l0,0l0.7,0.4l20.6-10.3l0,0l19.9-10l0,0l0.9-0.5v-1v-17.4v-1l-0.9-0.5l0,0l-19.9-10l0,0l-2.4-1.2v2.7v36.3l-16.6,8.3
			v-43.6l19-9.5l0,0l19.9-10l0,0l0.9-0.5v-1v-14.9v-1L-304.5,504.9z M-343.4,507.4l16.6-8.3v31.1l-16.6,8.3V507.4z"/>
	</g>
	<g>
		<polygon class="st1" points="207.3,504.9 207.3,504.9 187.4,495 187.4,495 186.6,494.6 169.2,504.5 150.1,495 150.1,495 
			149.3,494.6 133.6,503.5 133.6,496.3 110.4,507.9 110.4,513.9 110.4,577.1 133.6,588.7 133.6,507.4 147.7,499.3 147.7,513.9 
			147.7,576.1 147.7,577.1 148.6,577.6 148.6,577.6 168.5,587.5 168.5,587.5 170.9,588.7 170.9,586 170.9,516.4 170.9,507.4 
			185,499.3 185,576.1 185,577.1 185.9,577.6 185.9,577.6 205.8,587.5 205.8,587.5 208.2,588.7 208.2,586 208.2,506.4 208.2,505.4 
					"/>
	</g>
	<g>
		<polygon class="st1" points="-460.5,504.9 -460.5,504.9 -480.4,495 -480.4,495 -481.1,494.6 -501.8,504.9 -501.8,504.9 
			-521.7,514.9 -521.7,514.9 -522.6,515.3 -522.6,516.4 -522.6,578.6 -522.6,579.6 -521.7,580.1 -521.7,580.1 -501.8,590 
			-501.8,590 -501,590.4 -500.3,590 -500.3,590 -480.4,580.1 -480.4,580.1 -460.5,570.1 -460.5,570.1 -459.5,569.6 -459.5,568.6 
			-459.5,546.2 -459.5,543.5 -461.9,544.7 -461.9,544.7 -481.8,554.7 -481.9,554.7 -482.8,555.1 -482.8,556.2 -482.8,577.5 
			-499.4,585.8 -499.4,507.4 -482.8,499.1 -482.8,518.8 -482.8,519.9 -481.9,520.3 -481.8,520.3 -461.9,530.3 -461.9,530.3 
			-459.5,531.5 -459.5,528.8 -459.5,506.4 -459.5,505.4 		"/>
	</g>
	<g>
		<polygon class="st1" points="-245.4,455.2 -245.4,455.2 -285.2,475.1 -285.2,475.1 -286.2,475.5 -286.2,476.5 -286.2,535.2 
			-296.1,540.2 -296.1,543.9 -286.2,539 -286.2,576.1 -286.2,577.1 -285.2,577.6 -285.2,577.6 -265.3,587.5 -265.3,587.5 
			-262.9,588.7 -262.9,586 -262.9,527.3 -243,517.4 -243,513.7 -262.9,523.6 -262.9,469.3 -245.4,478 -245.4,478 -243,479.2 
			-243,476.5 -243,456.6 -243,453.9 		"/>
	</g>
	<g>
		<polygon class="st1" points="-175.7,677.5 -175.7,677.5 -195.6,687.4 -195.6,687.4 -196.5,687.9 -196.5,688.9 -196.5,755.2 
			-213.1,765.5 -213.1,678.9 -213.1,676.3 -215.5,677.5 -215.5,677.5 -235.4,687.4 -235.4,687.4 -236.3,687.9 -236.3,688.9 
			-236.3,758.6 -236.3,759.6 -235.4,760.1 -235.4,760.1 -215.5,770 -215.5,770 -214.6,770.4 -213.9,769.9 -213.9,769.9 
			-213.9,769.9 -194.7,758 -175.7,767.5 -175.7,767.5 -173.3,768.7 -173.3,766 -173.3,678.9 -173.3,676.3 		"/>
	</g>
	<g>
		<polygon class="st1" points="93,676.3 69.8,687.9 69.8,715.2 61.5,719.4 53.2,715.2 53.2,676.3 30,687.9 30,707.3 30.9,707.8 
			30.9,707.8 57.8,721.2 30.9,734.7 30.9,734.7 30,735.1 30,757.1 53.2,768.7 53.2,727.2 61.5,723.1 69.8,727.2 69.8,757.1 
			93,768.7 93,735.1 92.1,734.7 92.1,734.7 65.2,721.2 92.1,707.8 92.1,707.8 93,707.3 		"/>
	</g>
	<g>
		<polygon class="st1" points="171,676.3 147.8,687.9 147.8,757.5 131.2,765.8 131.2,678.9 131.2,676.3 128.8,677.5 128.8,677.5 
			108.9,687.4 108.9,687.4 108,687.9 108,688.9 108,758.6 108,759.6 108.9,760.1 108.9,760.1 128.8,770 128.8,770 129.5,770.4 
			130.3,770 130.3,770 147.8,761.3 147.8,794.9 131.2,803.2 131.2,783.5 131.2,782.4 130.3,782 130.3,782 110.4,772 110.4,772 
			108,770.8 108,773.5 108,795.9 108,796.9 108.9,797.4 108.9,797.4 128.8,807.3 128.8,807.3 129.5,807.7 170.1,787.4 170.1,787.4 
			171,787 		"/>
	</g>
	<g>
		<g>
			<g>
				<path class="st1" d="M-87,746.1"/>
			</g>
		</g>
	</g>
	<g>
		<path class="st1" d="M-538.4,684.9L-538.4,684.9l-7.5-3.7l0,0l-12.4-6.2l0,0l-0.7-0.4l-18.2,9.1v-7.5l-23.2,11.6v109.1l23.2,11.6
			v-39l19-9.5l19.9-10l0,0l0.9-0.5v-1v-62.2v-1L-538.4,684.9z M-560.7,679.1v78.4l-16.6,8.3v-78.4L-560.7,679.1z"/>
	</g>
	<g>
		<polygon class="st1" points="-382.5,684.9 -382.5,684.9 -402.4,675 -402.4,675 -403.1,674.6 -421.4,683.7 -421.4,678.9 
			-421.4,676.3 -423.8,677.5 -423.8,677.5 -443.7,687.4 -443.7,687.4 -444.6,687.9 -444.6,688.9 -444.6,756.1 -444.6,757.1 
			-443.7,757.6 -443.7,757.6 -423.8,767.5 -423.8,767.5 -421.4,768.7 -421.4,766 -421.4,691.4 -421.4,687.4 -404.8,679.1 
			-404.8,701.3 -404.8,702.4 -403.9,702.8 -403.9,702.8 -384,712.8 -384,712.8 -381.6,714 -381.6,711.3 -381.6,686.4 -381.6,685.4 
					"/>
	</g>
	<g>
		<polygon class="st1" points="12.6,677.5 12.6,677.5 -7.3,687.4 -7.3,687.4 -8.2,687.9 -8.2,688.9 -8.2,755.2 -22.3,765.3 
			-22.3,678.9 -22.3,676.3 -24.7,677.5 -24.7,677.5 -44.6,687.4 -44.6,687.4 -45.5,687.9 -45.5,688.9 -45.5,757.6 -59.6,765.7 
			-59.6,678.9 -59.6,676.3 -62,677.5 -62,677.5 -81.9,687.4 -81.9,687.4 -82.8,687.9 -82.8,688.9 -82.8,758.6 -82.8,759.6 
			-81.9,760.1 -81.9,760.1 -62,770 -62,770 -61.2,770.4 -43.8,760.5 -24.7,770 -24.7,770 -23.8,770.5 -6.4,758 12.6,767.5 
			12.6,767.5 15,768.7 15,766 15,678.9 15,676.3 		"/>
	</g>
	<g>
		<polygon class="st1" points="-243.8,671.3 -263.7,681.2 -263.7,643.9 -286.9,655.5 -286.9,692.8 -303.6,701.1 -303.6,727.6 
			-286.9,698.5 -286.9,757.1 -263.7,768.7 -263.7,686.1 -243.8,696.4 		"/>
	</g>
	<g>
		<path class="st1" d="M-460.5,684.9L-460.5,684.9l-19.9-10l0,0l-0.7-0.4l-20.6,10.3l0,0l-19.9,10l0,0l-0.9,0.5v1v62.2v1l0.9,0.5
			l0,0l19.9,10l0,0l0.7,0.4l18.2-9.1v34.6v1l0.9,0.5l0,0l19.9,10l0,0l2.4,1.2v-2.7v-102v-17.4v-1L-460.5,684.9z M-499.4,765.8v-78.4
			l16.6-8.3V756v1.5L-499.4,765.8z"/>
	</g>
	<g>
		<polygon class="st1" points="-312,684.9 -312,684.9 -331.9,675 -331.9,675 -332.6,674.6 -333.4,675 -333.4,675 -373.2,694.9 
			-373.2,694.9 -374.1,695.3 -374.1,738.9 -371.7,737.7 -371.7,737.7 -334.3,719 -334.3,757.5 -350.9,765.8 -350.9,738.7 
			-350.9,736 -353.3,737.2 -353.3,737.2 -373.2,747.1 -373.2,747.1 -374.1,747.6 -374.1,748.6 -374.1,758.6 -374.1,759.6 
			-373.2,760.1 -373.2,760.1 -353.3,770 -353.3,770 -352.5,770.4 -351.8,770 -351.8,770 -334.3,761.3 -334.3,761.3 -327.1,757.7 
			-312,750.1 -312,750.1 -311.1,749.6 -311.1,703.6 -333.4,714.8 -333.4,714.8 -350.9,723.5 -350.9,687.4 -334.3,679.1 
			-334.3,703.8 -334.3,706.5 -331.9,705.3 -331.9,705.3 -312,695.4 -312,695.4 -311.1,694.9 -311.1,693.9 -311.1,686.4 
			-311.1,685.4 		"/>
	</g>
	<g>
		<polygon class="st1" points="-97.7,677.5 -97.7,677.5 -117.6,687.4 -117.6,687.4 -118.5,687.9 -118.5,688.9 -118.5,746.1 
			-118.5,746.7 -135.1,764.3 -135.1,678.9 -135.1,676.3 -137.5,677.5 -137.5,677.5 -157.4,687.4 -157.4,687.4 -158.3,687.9 
			-158.3,688.9 -158.3,758.6 -158.3,759.6 -157.4,760.1 -157.4,760.1 -137.5,770 -137.5,770 -136.4,770.6 -135.6,769.7 
			-135.6,769.7 -95.3,726.9 -95.3,726.2 -95.3,678.9 -95.3,676.3 		"/>
	</g>
	<g>
		<polygon class="st1" points="248.1,684.9 248.1,684.9 228.1,675 228.1,675 227.4,674.6 186.8,694.9 186.8,694.9 185.9,695.3 
			185.9,726.4 209.2,714.8 209.2,687.4 225.7,679.1 225.7,715.2 206.8,724.7 206.8,724.7 186.8,734.7 186.8,734.7 185.9,735.1 
			185.9,736.2 185.9,758.6 185.9,759.6 186.8,760.1 186.8,760.1 206.8,770 206.8,770 207.5,770.4 225.7,761.3 225.7,761.3 
			237.4,755.5 248.1,750.1 248.1,750.1 249,749.6 249,716.1 225.7,727.7 225.7,757.5 209.2,765.8 209.2,727.2 228.1,717.8 
			248.1,707.8 248.1,707.8 249,707.3 249,706.3 249,686.4 249,685.4 		"/>
	</g>
	<g>
		<path class="st1" d="M-616.4,684.9L-616.4,684.9l-19.9-10l0,0l-0.7-0.4l-20.6,10.3l0,0l-19.9,10l0,0l-0.9,0.5v1v62.2v1l0.9,0.5
			l0,0l19.9,10l0,0l0.7,0.4l20.6-10.3l0,0l19.9-10l0,0l0.9-0.5v-1v-62.2v-1L-616.4,684.9z M-655.3,687.4l16.6-8.3v78.4l-16.6,8.3
			C-655.3,765.8-655.3,687.4-655.3,687.4z"/>
	</g>
</g>
<g>
	<rect x="132.3" y="900" class="st0" width="38.2" height="180"/>
	<polyline class="st0" points="132.3,900 64.3,900 64.3,1080 132.3,1080 	"/>
	<g>
		<rect x="-557.4" y="900" class="st0" width="78" height="180"/>
	</g>
	<g>
		<rect x="-91.7" y="900" class="st0" width="78" height="180"/>
	</g>
	<g>
		<line class="st0" x1="64.3" y1="900" x2="-13.7" y2="900"/>
		<line class="st0" x1="-13.7" y1="1080" x2="64.3" y2="1080"/>
	</g>
	<g>
		<polyline class="st0" points="-91.7,900 -167.1,900 -167.1,1080 -91.7,1080 		"/>
	</g>
	<g>
		<rect x="-323.1" y="900" class="st0" width="78" height="180"/>
	</g>
	<g>
		<line class="st0" x1="-167.1" y1="900" x2="-245.1" y2="900"/>
		<line class="st0" x1="-245.1" y1="1080" x2="-167.1" y2="1080"/>
	</g>
	<g>
		<rect x="-686" y="900" class="st0" width="78" height="180"/>
	</g>
	<g>
		<line class="st0" x1="-608" y1="1080" x2="-557.4" y2="1080"/>
		<line class="st0" x1="-557.4" y1="900" x2="-608" y2="900"/>
	</g>
	<g>
		<polyline class="st0" points="-479.4,1080 -401.5,1080 -401.5,900 -479.4,900 		"/>
	</g>
	<g>
		<line class="st0" x1="-323.5" y1="900" x2="-401.5" y2="900"/>
		<line class="st0" x1="-401.5" y1="1080" x2="-323.5" y2="1080"/>
	</g>
	<g>
		<polygon class="st1" points="139.8,915.6 139.8,1006.4 163,994.8 163,903.9 		"/>
		<polygon class="st1" points="139.8,1038.7 163,1027.1 163,1003.5 139.8,1015.1 		"/>
	</g>
	<g>
		<polygon class="st1" points="84.2,1038.7 107.4,1027.1 107.4,1003.5 84.2,1015.1 		"/>
		<polygon class="st1" points="126.4,915.1 126.4,915.1 106.5,905.2 106.5,905.2 105.8,904.8 65.2,925.1 65.2,925.1 64.3,925.5 
			64.3,956.6 87.5,945 87.5,917.6 104.1,909.3 104.1,962.8 85.1,972.3 85.1,972.3 84.2,972.8 84.2,1006.4 107.4,994.8 107.4,964.9 
			126.4,955.4 126.4,955.4 127.3,954.9 127.3,953.9 127.3,916.6 127.3,915.6 		"/>
	</g>
	<g>
		<polygon class="st1" points="-487.8,915.1 -487.8,915.1 -507.7,905.2 -507.7,905.2 -508.5,904.8 -529.1,915.1 -529.1,915.1 
			-549,925.1 -549,925.1 -550,925.5 -550,926.5 -550,963.9 -550,966.6 -547.6,965.4 -547.6,965.4 -527.6,955.4 -527.6,955.4 
			-526.7,954.9 -526.7,953.9 -526.7,917.6 -510.1,909.3 -510.1,962.8 -529.1,972.3 -529.1,972.3 -549,982.3 -549,982.3 -550,982.8 
			-550,983.8 -550,1028.6 -550,1029.6 -549,1030.1 -549,1030.1 -529.1,1040 -529.1,1040 -528.4,1040.4 -507.7,1030.1 -507.7,1030.1 
			-487.8,1020.1 -487.8,1020.1 -486.9,1019.6 -486.9,1018.6 -486.9,973.8 -486.9,971.1 -489.3,972.3 -489.3,972.3 -509.2,982.3 
			-509.2,982.3 -510.1,982.8 -510.1,983.8 -510.1,1027.5 -526.7,1035.8 -526.7,974.9 -488.3,955.6 -487.8,955.4 -487.8,955.4 
			-486.9,954.9 -486.9,953.9 -486.9,916.6 -486.9,915.6 		"/>
	</g>
	<g>
		<path class="st1" d="M-22.1,915.1L-22.1,915.1l-19.9-10l0,0l-0.7-0.4l-38.2,19.1l-2.4,1.2l0,0l-0.9,0.5v1v34.8v1l0.9,0.5l0,0
			l16.9,8.5l-16.9,8.5l0,0l-0.9,0.5v1v47.3v1l0.9,0.5l0,0l19.9,10l0,0l0.7,0.4l20.6-10.3l0,0l19.9-10l0,0l0.9-0.5v-1v-47.3v-1
			l-12.6-6.3l-5.2-2.6l16.9-8.5l0,0l0.9-0.5v-1v-34.8v-1L-22.1,915.1z M-61,968.6v-51l16.6-8.3v51L-61,968.6z M-61,972.4L-61,972.4
			l16.6-8.3v63.5l-16.6,8.3V972.4z"/>
	</g>
	<g>
		<path class="st1" d="M55.9,915.1L55.9,915.1l-19.9-10l0,0l-0.7-0.4L14.6,915l0,0l-19.9,10l0,0l-0.9,0.5v1v37.3v1l0.9,0.5l0,0
			l19.9,10l0,0l0.7,0.4l18.2-9.1v61l-16.6,8.3v-49.6v-2.7l-2.4,1.2l0,0l-19.9,10l0,0l-0.9,0.5v1v32.3v1l0.9,0.5l0,0l19.9,10l0,0
			l0.7,0.4l20.7-10.3l0,0l19.9-10l0,0l0.9-0.5v-1V954v-37.3v-1L55.9,915.1z M17,917.6l16.6-8.3v53.5L17,971.1V917.6z"/>
	</g>
	<g>
		<polygon class="st1" points="-98.9,915 -119.3,904.8 -159.8,925.1 -159.8,925.1 -160.8,925.5 -160.8,954.1 -137.5,942.5 
			-137.5,917.6 -121.5,909.6 -146.4,1041.5 -120.4,1028.5 -120.2,1027.7 -120.2,1027.7 -99.1,916.2 -99.1,916.2 		"/>
	</g>
	<g>
		<polygon class="st1" points="-253.5,915.1 -253.5,915.1 -273.4,905.2 -273.4,905.2 -274.2,904.8 -302.1,918.8 -315.6,925.5 
			-315.6,925.5 -315.6,986.5 -292.4,974.9 -292.4,974.9 -275.8,966.6 -275.8,1027.5 -292.4,1035.8 -292.4,993.7 -292.4,991 
			-294.8,992.2 -294.8,992.2 -314.7,1002.2 -314.7,1002.2 -315.6,1002.7 -315.6,1003.7 -315.6,1028.6 -315.6,1029.6 -314.7,1030.1 
			-314.7,1030.1 -294.8,1040 -294.8,1040 -294.1,1040.4 -273.4,1030.1 -273.4,1030.1 -253.5,1020.1 -253.5,1020.1 -252.6,1019.6 
			-252.6,1018.6 -252.6,973.8 -252.6,972.8 -253.5,972.3 -253.5,972.3 -273.4,962.4 -273.4,962.4 -274.2,962 -292.4,971.1 
			-292.4,917.6 -275.8,909.3 -275.8,944 -275.8,946.7 -273.4,945.5 -273.4,945.5 -253.5,935.5 -253.5,935.5 -252.6,935 -252.6,934 
			-252.6,916.6 -252.6,915.6 		"/>
	</g>
	<g>
		<path class="st1" d="M-175.5,915.1L-175.5,915.1l-19.9-10l0,0l-0.7-0.4l-20.6,10.3l0,0l-19.9,10l0,0l-0.9,0.5v1v102v1l0.9,0.5l0,0
			l19.9,10l0,0l0.7,0.4l20.6-10.3l0,0l19.9-10l0,0l0.9-0.5v-1v-44.8v-1l-0.9-0.5l0,0l-19.9-10l0,0l-0.7-0.4l-18.2,9.1v-53.5
			l16.6-8.3v37.1v2.7l2.4-1.2l0,0l19.9-10l0,0l0.9-0.5v-1v-19.9v-1L-175.5,915.1z M-197.8,966.6v61l-16.6,8.3v-61L-197.8,966.6z"/>
	</g>
	<g>
		<path class="st1" d="M-616.4,915.1L-616.4,915.1l-19.9-10l0,0l-0.7-0.4l-20.6,10.3l0,0l-19.9,10l0,0l-0.9,0.5v1v102v1l0.9,0.5l0,0
			l19.9,10l0,0l0.7,0.4l20.6-10.3l0,0l19.9-10l0,0l0.9-0.5v-1v-102v-1L-616.4,915.1z M-655.3,917.6l16.1-8.1l-16.1,106.8
			C-655.3,1016.3-655.3,917.6-655.3,917.6z M-638.7,928.8v98.8l-16.1,8.1L-638.7,928.8z"/>
	</g>
	<g>
		<polygon class="st1" points="-587.2,917.6 -587.2,917.6 -605.6,926.8 -605.6,930.5 -588.1,921.8 -588.1,1038.7 -564.9,1027.1 
			-564.9,906.4 		"/>
	</g>
	<g>
		<polygon class="st1" points="-409.9,915.1 -409.9,915.1 -429.8,905.2 -429.8,905.2 -430.5,904.8 -451.2,915.1 -451.2,915.1 
			-471.1,925.1 -471.1,925.1 -472,925.5 -472,926.5 -472,951.4 -472,954.1 -469.6,952.9 -469.6,952.9 -449.7,943 -449.7,943 
			-448.7,942.5 -448.7,941.5 -448.7,917.6 -432.2,909.3 -432.2,963.7 -448.7,955.4 -448.7,977.3 -432.2,969 -432.2,1027.5 
			-448.7,1035.8 -448.7,988.8 -448.7,986.1 -451.2,987.3 -451.2,987.3 -471.1,997.2 -471.1,997.2 -472,997.7 -472,998.7 
			-472,1028.6 -472,1029.6 -471.1,1030.1 -471.1,1030.1 -451.2,1040 -451.2,1040 -450.4,1040.4 -429.8,1030.1 -429.8,1030.1 
			-409.9,1020.1 -409.9,1020.1 -408.9,1019.6 -408.9,1018.6 -408.9,976.3 -408.9,975.3 -409.9,974.8 -409.9,974.8 -426.8,966.4 
			-409.9,957.9 -409.9,957.9 -408.9,957.4 -408.9,956.4 -408.9,916.6 -408.9,915.6 		"/>
	</g>
	<g>
		<polygon class="st1" points="-323.5,968.6 -333.4,973.6 -333.4,906.4 -356.7,918.1 -356.7,985.2 -373.3,993.5 -373.3,990 
			-373.3,909.1 -373.3,906.4 -375.7,907.6 -375.7,907.6 -395.6,917.6 -395.6,917.6 -396.5,918.1 -396.5,919.1 -396.5,986.3 
			-396.5,987.3 -395.6,987.8 -395.6,987.8 -375.7,997.7 -375.7,997.7 -374.9,998.1 -356.7,989 -356.7,1038.7 -333.4,1027.1 
			-333.4,977.3 -323.5,972.4 		"/>
	</g>
	<g>
		<rect x="-310.6" y="1080" class="st0" width="75.5" height="180"/>
	</g>
	<g>
		<polyline class="st0" points="177.2,1260 255.2,1260 255.2,1080 177.2,1080 		"/>
	</g>
	<g>
		<polyline class="st0" points="255.2,1260 333.1,1260 333.1,1080 255.2,1080 		"/>
	</g>
	<g>
		<polyline class="st0" points="-96.6,1080 -159.6,1080 -159.6,1260 -96.6,1260 		"/>
	</g>
	<g>
		<rect x="-401" y="1080" class="st0" width="90.4" height="180"/>
	</g>
	<g>
		<rect x="-96.6" y="1080" class="st0" width="65.5" height="180"/>
	</g>
	<g>
		<polyline class="st0" points="-31,1260 59.4,1260 59.4,1080 -31,1080 		"/>
	</g>
	<g>
		<polyline class="st0" points="59.4,1260 177.2,1260 177.2,1080 59.4,1080 		"/>
	</g>
	<g>
		<rect x="-686" y="1080" class="st0" width="50.6" height="180"/>
	</g>
	<g>
		<polyline class="st0" points="-577.3,1080 -627.9,1080 -627.9,1260 -577.3,1260 		"/>
	</g>
	<g>
		<rect x="-499.4" y="1080" class="st0" width="98.4" height="180"/>
	</g>
	<g>
		<polyline class="st0" points="-159.6,1260 -235.1,1260 -235.1,1080 -159.6,1080 		"/>
	</g>
	<g>
		<polygon class="st1" points="-260.5,1095.4 -304.7,1220.2 -285.1,1207.2 -241.2,1085.8 		"/>
	</g>
	<g>
		<polygon class="st1" points="244,1147.2 217.8,1147.2 217.8,1125.2 214.5,1125.2 214.5,1147.2 197.8,1147.2 188.3,1163 
			214.5,1163 214.5,1184.9 217.8,1184.9 217.8,1163 234.5,1163 		"/>
	</g>
	<g>
		<g>
			<polygon class="st1" points="322,1134.7 275.8,1134.7 266.3,1150.5 312.5,1150.5 			"/>
			<polygon class="st1" points="266.3,1175.4 312.5,1175.4 322,1159.6 275.8,1159.6 			"/>
		</g>
	</g>
	<g>
		<polygon class="st1" points="-108.2,1121.3 -103.3,1116.5 -108.2,1111.7 -111.4,1114.8 -123.1,1114.8 -112.3,1106.8 
			-112.3,1100.8 -118.4,1100.8 -126.4,1111.5 -126.4,1099.8 -123.2,1096.6 -128.1,1091.8 -132.9,1096.6 -129.7,1099.8 
			-129.7,1111.5 -137.8,1100.8 -143.8,1100.8 -143.8,1106.8 -133.1,1114.8 -144.8,1114.8 -148,1111.7 -152.8,1116.5 -148,1121.3 
			-144.8,1118.2 -133.1,1118.2 -143.8,1126.2 -143.8,1132.2 -137.8,1132.2 -129.7,1121.5 -129.7,1133.2 -132.9,1136.4 
			-128.1,1141.2 -123.2,1136.4 -126.4,1133.2 -126.4,1121.5 -118.4,1132.2 -112.3,1132.2 -112.3,1126.2 -123.1,1118.2 
			-111.4,1118.2 		"/>
	</g>
	<g>
		<g>
			<polygon class="st1" points="-343.4,1095.4 -387.6,1220.2 -368.1,1207.2 -324.2,1085.8 			"/>
			<path class="st1" d="M-382.7,1142.9L-382.7,1142.9l0.7,0.4l10.8-5.4l9.9-4.9l0,0l0.9-0.5v-1V1114v-1l-0.9-0.5l0,0l-10-5l0,0
				l-0.7-0.4l-10.7,5.3l0,0l-10,5l0,0l-0.9,0.5v1v17.4v1l0.9,0.5l0,0L-382.7,1142.9z M-373.6,1135.4l-6.6,3.3V1115l6.6-3.3V1135.4z"
				/>
			<path class="st1" d="M-319,1167.3L-319,1167.3l-10-5l0,0l-0.7-0.4l-10.7,5.3l0,0l-10,5l0,0l-0.9,0.5v1v17.4v1l0.9,0.5l0,0l10,5
				l0,0l0.7,0.4l10.7-5.3l0,0l10-5l0,0l0.9-0.5v-1v-17.4v-1L-319,1167.3z M-338,1169.8l6.6-3.3v23.7l-6.6,3.3V1169.8z"/>
		</g>
	</g>
	<g>
		<polygon class="st1" points="-80.9,1147.2 -90.4,1163 -46.7,1163 -37.2,1147.2 		"/>
	</g>
	<g>
		<polygon class="st1" points="-15.4,1147.2 -24.8,1163 43.7,1163 53.2,1147.2 		"/>
	</g>
	<g>
		<polygon class="st1" points="150.8,1147.2 75,1147.2 75,1147.2 74.5,1148 65.6,1163 161.5,1163 171,1147.2 		"/>
	</g>
	<g>
		<polygon class="st1" points="-635.4,1225 -636.3,1224.5 -655.3,1215 -655.3,1097.6 -636.3,1088.1 -635.4,1087.7 -635.4,1083.9 
			-637.8,1085.2 -657.7,1095.1 -657.7,1095.1 -678.5,1105.5 -678.5,1207.1 -657.7,1217.5 -657.7,1217.5 -637.8,1227.5 
			-635.4,1228.7 		"/>
	</g>
	<g>
		<polygon class="st1" points="-584.8,1105.5 -605.6,1095.1 -605.6,1095.1 -625.5,1085.2 -627.9,1083.9 -627.9,1087.7 -627,1088.1 
			-608,1097.6 -608,1215 -627,1224.5 -627.9,1225 -627.9,1228.7 -625.5,1227.5 -605.6,1217.5 -605.6,1217.5 -584.8,1207.1 		"/>
	</g>
	<g>
		<path class="st1" d="M-401,1216.9v-4.8l-17.9-18.9v-47l-23.2,11.6v10.9l-25.4-26.8l12.9-6.5l10-5l5-2.5l0,0l0.9-0.5v-1v-29.9v-0.9
			l-16.5-11l-29.9,15l-0.8,0.4l0,0l-0.9,0.5v1v24.9v0.7l13.8,13.8l-17.8,8.9l0,0l-0.9,0.5v1v57.2v1l0.9,0.5l0,0l19.9,10l0,0l0.7,0.4
			l40.6-20.3l0,0l8.7-4.4L-401,1216.9z M-468.7,1095.1l11.6-5.8v43.6l-11.6,5.8V1095.1z M-442.1,1202.6l-26.5,13.3v-70.3l26.5,28
			V1202.6z"/>
	</g>
	<g>
		<polygon class="st1" points="-209.7,1095.4 -165.5,1220.2 -185,1207.2 -228.9,1085.8 		"/>
	</g>
	<g>
		<g>
			<polyline class="st0" points="-499.4,1260 -577.3,1260 -577.3,1080 -499.4,1080 			"/>
		</g>
		<g>
			<path class="st1" d="M-507.7,1095.1L-507.7,1095.1l-19.9-10l0,0l-0.7-0.4l-8.3,4.1v-6.2l-3.3,1.7v6.2l-16.4,8.2l-13.5,6.8l0,0
				v60.9l23.2-11.6l6.6-3.3v61l-6.6,3.3v-42.1v-2.7l-2.4,1.2l0,0l-19.9,10l0,0l-0.9,0.5v1v24.9v1l0.9,0.5l0,0l19.9,10l0,0l0.7,0.4
				l8.3-4.1v6.2l3.3-1.7v-6.2l29.9-14.9v-68.4L-530,1143l0,0l-6.6,3.3v-53.5l6.6-3.3v34.6v2.7l2.4-1.2l0,0l19.9-10l0,0l0.9-0.5v-1
				v-17.4v-1L-507.7,1095.1z M-540,1147.8l-6.6,3.3v-53.5l6.6-3.3V1147.8z M-530,1146.6v61l-6.6,3.3v-61L-530,1146.6z"/>
		</g>
	</g>
	<rect x="170.5" y="900" class="st0" width="38.2" height="180"/>
	<rect x="285" y="900" class="st0" width="38.2" height="180"/>
	<g>
		<polyline class="st0" points="208.6,1080 246.8,1080 246.8,900 208.6,900 		"/>
	</g>
	<g>
		<line class="st0" x1="246.8" y1="1080" x2="285" y2="1080"/>
		<line class="st0" x1="285" y1="900" x2="246.8" y2="900"/>
	</g>
	<g>
		<polygon class="st1" points="177.9,1015.1 177.9,1038.7 201.2,1027.1 201.2,1003.5 		"/>
	</g>
	<g>
		<g>
			<polygon class="st1" points="292.4,965.3 292.4,989 315.7,977.3 315.7,953.7 			"/>
			<polygon class="st1" points="292.4,1038.7 315.7,1027.1 315.7,1003.5 292.4,1015.1 			"/>
		</g>
	</g>
	<g>
		<polygon class="st1" points="216.1,1015.1 216.1,1038.7 236,1028.8 236,1040 216.1,1049.9 216.1,1053.7 239.3,1042 239.3,1027.1 
			239.3,1026.1 239.3,1003.5 		"/>
	</g>
	<g>
		<polygon class="st1" points="254.3,965.3 254.3,989 277.5,977.3 277.5,953.7 		"/>
		<polygon class="st1" points="254.3,1015.1 254.3,1038.7 274.2,1028.8 274.2,1040 254.3,1049.9 254.3,1053.7 277.5,1042 
			277.5,1027.1 277.5,1026.1 277.5,1003.5 		"/>
	</g>
	<g>
		<g>
			<path class="st0" d="M-686,1260"/>
			<rect x="-686" y="1260" class="st0" width="65.5" height="180"/>
		</g>
		<g>
			<line class="st0" x1="-620.5" y1="1440" x2="-550" y2="1440"/>
			<line class="st0" x1="-550" y1="1260" x2="-615.5" y2="1260"/>
		</g>
		<g>
			<rect x="-554.9" y="1260" class="st0" width="38.2" height="180"/>
		</g>
		<g>
			<polyline class="st0" points="-516.8,1440 -478.6,1440 -478.6,1260 -516.8,1260 			"/>
		</g>
		<g>
			<polygon class="st1" points="-675.2,1280.1 -655.3,1270.2 -655.3,1266.4 -678.5,1278.1 -678.5,1293 -678.5,1294 -678.5,1316.6 
				-655.3,1305 -655.3,1281.4 -675.2,1291.3 			"/>
			<polygon class="st1" points="-647.8,1280.1 -627.9,1270.2 -627.9,1266.4 -651.2,1278.1 -651.2,1293 -651.2,1294 -651.2,1316.6 
				-627.9,1305 -627.9,1281.4 -647.8,1291.3 			"/>
		</g>
		<g>
			<polygon class="st1" points="-593.1,1302.9 -613,1312.9 -613,1316.6 -589.8,1305 -589.8,1290.1 -589.8,1289 -589.8,1266.4 
				-613,1278.1 -613,1301.7 -593.1,1291.7 			"/>
			<polygon class="st1" points="-565.7,1302.9 -585.6,1312.9 -585.6,1316.6 -562.4,1305 -562.4,1290.1 -562.4,1289 -562.4,1266.4 
				-585.6,1278.1 -585.6,1301.7 -565.7,1291.7 			"/>
		</g>
		<g>
			<polygon class="st1" points="-544.1,1280.1 -524.2,1270.2 -524.2,1266.4 -547.5,1278.1 -547.5,1293 -547.5,1294 -547.5,1316.6 
				-524.2,1305 -524.2,1281.4 -544.1,1291.3 			"/>
		</g>
		<g>
			<polygon class="st1" points="-509.3,1316.6 -509.3,1312.9 -489.4,1302.9 -489.4,1291.7 -509.3,1301.7 -509.3,1278.1 
				-486.1,1266.4 -486.1,1289 -486.1,1290.1 -486.1,1305 			"/>
		</g>
		<g>
			<g>
				<polyline class="st0" points="-478.6,1440 -425.5,1440 -425.5,1260 -478.6,1260 				"/>
			</g>
			<g>
				<polyline class="st0" points="-425.5,1440 -372.4,1440 -372.4,1260 -425.5,1260 				"/>
			</g>
			<g>
				<polygon class="st1" points="-433,1360.2 -441.7,1355.3 -466.1,1341.3 -433,1322.3 -433,1321.4 -433,1306.5 -433,1303.6 
					-471.1,1325.4 -471.1,1326.4 -471.1,1341.3 -471.1,1342.3 -470.3,1342.7 -470.3,1342.7 -470.3,1342.7 -435.5,1362.6 
					-435.5,1362.6 -433,1364.1 				"/>
			</g>
			<g>
				<polygon class="st1" points="-418,1303.6 -418,1306.5 -418,1321.4 -418,1322.3 -384.9,1341.3 -396.7,1348 -418,1360.2 
					-418,1364.1 -415.6,1362.6 -415.6,1362.6 -380.7,1342.7 -380.7,1342.7 -380.7,1342.7 -379.9,1342.3 -379.9,1341.3 
					-379.9,1326.4 -379.9,1325.4 				"/>
			</g>
		</g>
	</g>
</g>
</svg>
