<?xml version="1.0" encoding="UTF-8" standalone="no"?>
<svg width="1436px" height="739px" viewBox="0 0 1436 739" version="1.1" xmlns="http://www.w3.org/2000/svg" xmlns:xlink="http://www.w3.org/1999/xlink">
    <!-- Generator: Sketch 42 (36781) - http://www.bohemiancoding.com/sketch -->
    <title>Artboard 2 Copy</title>
    <desc>Created with Sketch.</desc>
    <defs>
        <rect id="path-1" x="589" y="245" width="422" height="227" rx="2"></rect>
        <mask id="mask-2" maskContentUnits="userSpaceOnUse" maskUnits="objectBoundingBox" x="0" y="0" width="422" height="227" fill="white">
            <use xlink:href="#path-1"></use>
        </mask>
        <polygon id="path-3" points="770 471 841 471 851 513 761 513"></polygon>
        <mask id="mask-4" maskContentUnits="userSpaceOnUse" maskUnits="objectBoundingBox" x="0" y="0" width="90" height="42" fill="white">
            <use xlink:href="#path-3"></use>
        </mask>
        <path d="M1155,441.003681 C1155,439.344794 1156.33919,438 1158.00979,438 L1384.99021,438 C1386.65247,438 1388,439.349846 1388,441.003681 L1388,476.996319 C1388,478.655206 1386.66081,480 1384.99021,480 L1158.00979,480 C1156.34753,480 1155,478.650154 1155,476.996319 L1155,441.003681 Z" id="path-5"></path>
        <mask id="mask-6" maskContentUnits="userSpaceOnUse" maskUnits="objectBoundingBox" x="0" y="0" width="233" height="42" fill="white">
            <use xlink:href="#path-5"></use>
        </mask>
        <path d="M1155,492.00033 C1155,490.343293 1156.33919,489 1158.00979,489 L1384.99021,489 C1386.65247,489 1388,490.348644 1388,492.00033 L1388,495.99967 C1388,497.656707 1386.66081,499 1384.99021,499 L1158.00979,499 C1156.34753,499 1155,497.651356 1155,495.99967 L1155,492.00033 Z" id="path-7"></path>
        <mask id="mask-8" maskContentUnits="userSpaceOnUse" maskUnits="objectBoundingBox" x="0" y="0" width="233" height="10" fill="white">
            <use xlink:href="#path-7"></use>
        </mask>
        <rect id="path-9" x="609" y="263" width="382" height="180"></rect>
        <mask id="mask-10" maskContentUnits="userSpaceOnUse" maskUnits="objectBoundingBox" x="0" y="0" width="382" height="180" fill="white">
            <use xlink:href="#path-9"></use>
        </mask>
        <rect id="path-11" x="2" y="393" width="83" height="120" rx="7"></rect>
        <mask id="mask-12" maskContentUnits="userSpaceOnUse" maskUnits="objectBoundingBox" x="0" y="0" width="83" height="120" fill="white">
            <use xlink:href="#path-11"></use>
        </mask>
        <rect id="path-13" x="333" y="121" width="83" height="120" rx="7"></rect>
        <mask id="mask-14" maskContentUnits="userSpaceOnUse" maskUnits="objectBoundingBox" x="0" y="0" width="83" height="120" fill="white">
            <use xlink:href="#path-13"></use>
        </mask>
        <rect id="path-15" x="333" y="257" width="83" height="120" rx="7"></rect>
        <mask id="mask-16" maskContentUnits="userSpaceOnUse" maskUnits="objectBoundingBox" x="0" y="0" width="83" height="120" fill="white">
            <use xlink:href="#path-15"></use>
        </mask>
        <rect id="path-17" x="333" y="393" width="83" height="120" rx="7"></rect>
        <mask id="mask-18" maskContentUnits="userSpaceOnUse" maskUnits="objectBoundingBox" x="0" y="0" width="83" height="120" fill="white">
            <use xlink:href="#path-17"></use>
        </mask>
        <rect id="path-19" x="436" y="121" width="83" height="120" rx="7"></rect>
        <mask id="mask-20" maskContentUnits="userSpaceOnUse" maskUnits="objectBoundingBox" x="0" y="0" width="83" height="120" fill="white">
            <use xlink:href="#path-19"></use>
        </mask>
        <rect id="path-21" x="436" y="257" width="83" height="120" rx="7"></rect>
        <mask id="mask-22" maskContentUnits="userSpaceOnUse" maskUnits="objectBoundingBox" x="0" y="0" width="83" height="120" fill="white">
            <use xlink:href="#path-21"></use>
        </mask>
        <rect id="path-23" x="436" y="393" width="83" height="120" rx="7"></rect>
        <mask id="mask-24" maskContentUnits="userSpaceOnUse" maskUnits="objectBoundingBox" x="0" y="0" width="83" height="120" fill="white">
            <use xlink:href="#path-23"></use>
        </mask>
        <rect id="path-25" x="230" y="121" width="83" height="120" rx="7"></rect>
        <mask id="mask-26" maskContentUnits="userSpaceOnUse" maskUnits="objectBoundingBox" x="0" y="0" width="83" height="120" fill="white">
            <use xlink:href="#path-25"></use>
        </mask>
        <rect id="path-27" x="230" y="257" width="83" height="120" rx="7"></rect>
        <mask id="mask-28" maskContentUnits="userSpaceOnUse" maskUnits="objectBoundingBox" x="0" y="0" width="83" height="120" fill="white">
            <use xlink:href="#path-27"></use>
        </mask>
        <rect id="path-29" x="230" y="393" width="83" height="120" rx="7"></rect>
        <mask id="mask-30" maskContentUnits="userSpaceOnUse" maskUnits="objectBoundingBox" x="0" y="0" width="83" height="120" fill="white">
            <use xlink:href="#path-29"></use>
        </mask>
        <rect id="path-31" x="10" y="401" width="67" height="98"></rect>
        <mask id="mask-32" maskContentUnits="userSpaceOnUse" maskUnits="objectBoundingBox" x="0" y="0" width="67" height="98" fill="white">
            <use xlink:href="#path-31"></use>
        </mask>
        <rect id="path-33" x="341" y="129" width="67" height="98"></rect>
        <mask id="mask-34" maskContentUnits="userSpaceOnUse" maskUnits="objectBoundingBox" x="0" y="0" width="67" height="98" fill="white">
            <use xlink:href="#path-33"></use>
        </mask>
        <rect id="path-35" x="341" y="265" width="67" height="98"></rect>
        <mask id="mask-36" maskContentUnits="userSpaceOnUse" maskUnits="objectBoundingBox" x="0" y="0" width="67" height="98" fill="white">
            <use xlink:href="#path-35"></use>
        </mask>
        <rect id="path-37" x="341" y="401" width="67" height="98"></rect>
        <mask id="mask-38" maskContentUnits="userSpaceOnUse" maskUnits="objectBoundingBox" x="0" y="0" width="67" height="98" fill="white">
            <use xlink:href="#path-37"></use>
        </mask>
        <rect id="path-39" x="444" y="129" width="67" height="98"></rect>
        <mask id="mask-40" maskContentUnits="userSpaceOnUse" maskUnits="objectBoundingBox" x="0" y="0" width="67" height="98" fill="white">
            <use xlink:href="#path-39"></use>
        </mask>
        <rect id="path-41" x="444" y="265" width="67" height="98"></rect>
        <mask id="mask-42" maskContentUnits="userSpaceOnUse" maskUnits="objectBoundingBox" x="0" y="0" width="67" height="98" fill="white">
            <use xlink:href="#path-41"></use>
        </mask>
        <rect id="path-43" x="444" y="401" width="67" height="98"></rect>
        <mask id="mask-44" maskContentUnits="userSpaceOnUse" maskUnits="objectBoundingBox" x="0" y="0" width="67" height="98" fill="white">
            <use xlink:href="#path-43"></use>
        </mask>
        <rect id="path-45" x="238" y="129" width="67" height="98"></rect>
        <mask id="mask-46" maskContentUnits="userSpaceOnUse" maskUnits="objectBoundingBox" x="0" y="0" width="67" height="98" fill="white">
            <use xlink:href="#path-45"></use>
        </mask>
        <rect id="path-47" x="238" y="265" width="67" height="98"></rect>
        <mask id="mask-48" maskContentUnits="userSpaceOnUse" maskUnits="objectBoundingBox" x="0" y="0" width="67" height="98" fill="white">
            <use xlink:href="#path-47"></use>
        </mask>
        <rect id="path-49" x="238" y="401" width="67" height="98"></rect>
        <mask id="mask-50" maskContentUnits="userSpaceOnUse" maskUnits="objectBoundingBox" x="0" y="0" width="67" height="98" fill="white">
            <use xlink:href="#path-49"></use>
        </mask>
        <rect id="path-51" x="1231" y="479" width="81" height="11" rx="1"></rect>
        <mask id="mask-52" maskContentUnits="userSpaceOnUse" maskUnits="objectBoundingBox" x="0" y="0" width="81" height="11" fill="white">
            <use xlink:href="#path-51"></use>
        </mask>
        <path d="M0,3.00001915 C0,1.34315432 1.34756232,0 3.00658937,0 L144.993411,0 C146.653904,0 148,1.34731857 148,3.00001915 L148,26.9999809 C148,28.6568457 146.652438,30 144.993411,30 L3.00658937,30 C1.34609591,30 0,28.6526814 0,26.9999809 L0,3.00001915 Z" id="path-53"></path>
        <mask id="mask-54" maskContentUnits="userSpaceOnUse" maskUnits="objectBoundingBox" x="0" y="0" width="148" height="30" fill="white">
            <use xlink:href="#path-53"></use>
        </mask>
        <rect id="path-55" x="9" y="29" width="7" height="14" rx="1"></rect>
        <mask id="mask-56" maskContentUnits="userSpaceOnUse" maskUnits="objectBoundingBox" x="0" y="0" width="7" height="14" fill="white">
            <use xlink:href="#path-55"></use>
        </mask>
        <rect id="path-57" x="132" y="29" width="7" height="14" rx="1"></rect>
        <mask id="mask-58" maskContentUnits="userSpaceOnUse" maskUnits="objectBoundingBox" x="0" y="0" width="7" height="14" fill="white">
            <use xlink:href="#path-57"></use>
        </mask>
    </defs>
    <g id="Page-1" stroke="none" stroke-width="1" fill="none" fill-rule="evenodd">
        <g id="Artboard-2-Copy">
            <rect id="Rectangle" fill="#000000" x="-180" y="-146" width="1769" height="1002"></rect>
            <text id="Admin-Phone" font-family="WorkSans-SemiBold, Work Sans" font-size="20" font-weight="500" line-spacing="30" fill="#FFFFFF">
                <tspan x="1" y="556">Admin Phone</tspan>
            </text>
            <text id="Guest-Phones" font-family="WorkSans-SemiBold, Work Sans" font-size="20" font-weight="500" line-spacing="30" fill="#FFFFFF">
                <tspan x="230" y="556">Guest Phones</tspan>
            </text>
            <text id="Computer-w/-Desktop" font-family="WorkSans-SemiBold, Work Sans" font-size="20" font-weight="500" line-spacing="30" fill="#FFFFFF">
                <tspan x="595" y="556">Computer w/ Desktop App</tspan>
            </text>
            <text id="Kinect-V2-(With-Skel" font-family="WorkSans-SemiBold, Work Sans" font-size="20" font-weight="500" line-spacing="24" fill="#FFFFFF">
                <tspan x="1155" y="542">Kinect V2 </tspan>
                <tspan x="1155" y="566" font-size="14">(With Skeleton Tracking)</tspan>
            </text>
            <text id="External-Projector-/" font-family="WorkSans-SemiBold, Work Sans" font-size="20" font-weight="500" line-spacing="24" fill="#FFFFFF">
                <tspan x="1155" y="255">External Projector / Monitor</tspan>
                <tspan x="1155" y="279" font-size="14">(Optional)</tspan>
            </text>
            <text id="Collective-Desktop-A" font-family="WorkSans-Light, Work Sans" font-size="20" font-weight="300" line-spacing="30" fill="#000000">
                <tspan x="690" y="358">Collective Desktop App</tspan>
            </text>
            <use id="Rectangle-35" stroke="#FFFFFF" mask="url(#mask-2)" stroke-width="2" xlink:href="#path-1"></use>
            <use id="Rectangle-36" stroke="#FFFFFF" mask="url(#mask-4)" stroke-width="2" xlink:href="#path-3"></use>
            <use id="Rectangle-37" stroke="#FFFFFF" mask="url(#mask-6)" stroke-width="2" xlink:href="#path-5"></use>
            <use id="Rectangle-37-Copy-2" stroke="#FFFFFF" mask="url(#mask-8)" stroke-width="2" xlink:href="#path-7"></use>
            <ellipse id="Oval-16" stroke="#FFFFFF" cx="1180.5" cy="458.5" rx="9.5" ry="9.5"></ellipse>
            <circle id="Oval-16-Copy-2" stroke="#FFFFFF" cx="1371" cy="459" r="5"></circle>
            <use id="Rectangle-38" stroke="#FFFFFF" mask="url(#mask-10)" stroke-width="2" xlink:href="#path-9"></use>
            <use id="Rectangle-39" stroke="#FFFFFF" mask="url(#mask-12)" stroke-width="2" xlink:href="#path-11"></use>
            <use id="Rectangle-39-Copy" stroke="#FFFFFF" mask="url(#mask-14)" stroke-width="2" xlink:href="#path-13"></use>
            <use id="Rectangle-39-Copy-7" stroke="#FFFFFF" mask="url(#mask-16)" stroke-width="2" xlink:href="#path-15"></use>
            <use id="Rectangle-39-Copy-13" stroke="#FFFFFF" mask="url(#mask-18)" stroke-width="2" xlink:href="#path-17"></use>
            <use id="Rectangle-39-Copy-3" stroke="#FFFFFF" mask="url(#mask-20)" stroke-width="2" xlink:href="#path-19"></use>
            <use id="Rectangle-39-Copy-8" stroke="#FFFFFF" mask="url(#mask-22)" stroke-width="2" xlink:href="#path-21"></use>
            <use id="Rectangle-39-Copy-14" stroke="#FFFFFF" mask="url(#mask-24)" stroke-width="2" xlink:href="#path-23"></use>
            <use id="Rectangle-39-Copy-5" stroke="#FFFFFF" mask="url(#mask-26)" stroke-width="2" xlink:href="#path-25"></use>
            <use id="Rectangle-39-Copy-9" stroke="#FFFFFF" mask="url(#mask-28)" stroke-width="2" xlink:href="#path-27"></use>
            <use id="Rectangle-39-Copy-15" stroke="#FFFFFF" mask="url(#mask-30)" stroke-width="2" xlink:href="#path-29"></use>
            <use id="Rectangle-39" stroke="#FFFFFF" mask="url(#mask-32)" stroke-width="2" xlink:href="#path-31"></use>
            <use id="Rectangle-39-Copy-2" stroke="#FFFFFF" mask="url(#mask-34)" stroke-width="2" xlink:href="#path-33"></use>
            <use id="Rectangle-39-Copy-10" stroke="#FFFFFF" mask="url(#mask-36)" stroke-width="2" xlink:href="#path-35"></use>
            <use id="Rectangle-39-Copy-16" stroke="#FFFFFF" mask="url(#mask-38)" stroke-width="2" xlink:href="#path-37"></use>
            <use id="Rectangle-39-Copy-4" stroke="#FFFFFF" mask="url(#mask-40)" stroke-width="2" xlink:href="#path-39"></use>
            <use id="Rectangle-39-Copy-11" stroke="#FFFFFF" mask="url(#mask-42)" stroke-width="2" xlink:href="#path-41"></use>
            <use id="Rectangle-39-Copy-17" stroke="#FFFFFF" mask="url(#mask-44)" stroke-width="2" xlink:href="#path-43"></use>
            <use id="Rectangle-39-Copy-6" stroke="#FFFFFF" mask="url(#mask-46)" stroke-width="2" xlink:href="#path-45"></use>
            <use id="Rectangle-39-Copy-12" stroke="#FFFFFF" mask="url(#mask-48)" stroke-width="2" xlink:href="#path-47"></use>
            <use id="Rectangle-39-Copy-18" stroke="#FFFFFF" mask="url(#mask-50)" stroke-width="2" xlink:href="#path-49"></use>
            <polyline id="Path-19" stroke="#FFFFFF" points="3 587 3 617 232.00831 617 232.00831 587"></polyline>
            <polyline id="Path-19-Copy" stroke="#FFFFFF" points="232 587 232 617 592 617 592 587"></polyline>
            <polyline id="Path-19-Copy-2" stroke="#FFFFFF" points="855 587 855 617 1155 617 1155 587"></polyline>
            <polygon id="Star" fill="#F1FF00" points="99.8959951 405.876318 95.6340357 408.116962 96.4479975 403.371201 93 400.010234 97.7650154 399.317836 99.8959951 395 102.026975 399.317836 106.79199 400.010234 103.343993 403.371201 104.157954 408.116962"></polygon>
            <polyline id="Path-2" stroke="#FFFFFF" points="1063 617 1063 245 1135 245"></polyline>
            <use id="Rectangle-2" stroke="#FFFFFF" mask="url(#mask-52)" stroke-width="2" xlink:href="#path-51"></use>
            <g id="Group" transform="translate(1155.000000, 308.000000)" stroke="#FFFFFF">
                <use id="Rectangle-37-Copy" mask="url(#mask-54)" stroke-width="2" xlink:href="#path-53"></use>
                <ellipse id="Oval-16-Copy" cx="133.5" cy="14.5" rx="5.5" ry="5.5"></ellipse>
                <use id="Rectangle-3" mask="url(#mask-56)" stroke-width="2" xlink:href="#path-55"></use>
                <use id="Rectangle-3-Copy" mask="url(#mask-58)" stroke-width="2" xlink:href="#path-57"></use>
            </g>
        </g>
    </g>
</svg>