<?xml version="1.0" encoding="UTF-8" standalone="no"?>
<svg width="1850px" height="602px" viewBox="0 0 1850 602" version="1.1" xmlns="http://www.w3.org/2000/svg" xmlns:xlink="http://www.w3.org/1999/xlink">
    <!-- Generator: Sketch 46.1 (44463) - http://www.bohemiancoding.com/sketch -->
    <title>Artboard 2 Copy 4</title>
    <desc>Created with Sketch.</desc>
    <defs></defs>
    <g id="Page-1" stroke="none" stroke-width="1" fill="none" fill-rule="evenodd">
        <g id="Artboard-2-Copy-4">
            <rect id="Rectangle" fill="#000000" x="-180" y="-146" width="2030" height="1002"></rect>
            <text id="Admin-Phone" font-family="WorkSans-Regular, Work Sans" font-size="20" font-weight="normal" line-spacing="30" fill="#FFFFFF">
                <tspan x="210" y="485">Admin Phone</tspan>
            </text>
            <text id="Guest-Phones" font-family="WorkSans-Regular, Work Sans" font-size="20" font-weight="normal" line-spacing="30" fill="#FFFFFF">
                <tspan x="439" y="485">Guest Phones</tspan>
            </text>
            <text id="Computer-w/-Desktop" font-family="WorkSans-Regular, Work Sans" font-size="20" font-weight="normal" line-spacing="30" fill="#FFFFFF">
                <tspan x="804" y="485">Computer w/ Desktop App</tspan>
            </text>
            <text id="Kinect-V2-(With-Skel" font-family="WorkSans-Regular, Work Sans" font-size="20" font-weight="normal" line-spacing="24" fill="#FFFFFF">
                <tspan x="1364" y="471">Kinect V2 </tspan>
                <tspan x="1364" y="495" font-size="14">(With Skeleton Tracking)</tspan>
            </text>
            <text id="External-Projector-/" font-family="WorkSans-Regular, Work Sans" font-size="20" font-weight="normal" line-spacing="24" fill="#FFFFFF">
                <tspan x="1364" y="184">External Projector / Monitor</tspan>
                <tspan x="1364" y="208" font-size="14">(Optional)</tspan>
            </text>
            <text id="Collective-Desktop-A" font-family="WorkSans-Light, Work Sans" font-size="20" font-weight="300" line-spacing="30" fill="#000000">
                <tspan x="899" y="287">Collective Desktop App</tspan>
            </text>
            <rect id="Rectangle-35" stroke="#FFFFFF" x="798.5" y="174.5" width="421" height="226" rx="2"></rect>
            <path d="M979.404208,400.5 L970.618494,441.5 L1059.36698,441.5 L1049.60507,400.5 L979.404208,400.5 Z" id="Rectangle-36" stroke="#FFFFFF"></path>
            <path d="M1364.5,370.003681 L1364.5,405.996319 C1364.5,407.375659 1365.62532,408.5 1367.00979,408.5 L1593.99021,408.5 C1595.3818,408.5 1596.5,407.381931 1596.5,405.996319 L1596.5,370.003681 C1596.5,368.624341 1595.37468,367.5 1593.99021,367.5 L1367.00979,367.5 C1365.6182,367.5 1364.5,368.618069 1364.5,370.003681 Z" id="Rectangle-37" stroke="#FFFFFF"></path>
            <path d="M1364.5,421.00033 L1364.5,424.99967 C1364.5,426.376847 1365.62531,427.5 1367.00979,427.5 L1593.99021,427.5 C1595.38193,427.5 1596.5,426.383304 1596.5,424.99967 L1596.5,421.00033 C1596.5,419.623153 1595.37469,418.5 1593.99021,418.5 L1367.00979,418.5 C1365.61807,418.5 1364.5,419.616696 1364.5,421.00033 Z" id="Rectangle-37-Copy-2" stroke="#FFFFFF"></path>
            <circle id="Oval-16" stroke="#FFFFFF" cx="1389.5" cy="387.5" r="9.5"></circle>
            <circle id="Oval-16-Copy-2" stroke="#FFFFFF" cx="1580" cy="388" r="5"></circle>
            <rect id="Rectangle-38" stroke="#FFFFFF" x="818.5" y="192.5" width="381" height="179"></rect>
            <rect id="Rectangle-39" stroke="#FFFFFF" x="211.5" y="322.5" width="82" height="119" rx="7"></rect>
            <rect id="Rectangle-39-Copy" stroke="#FFFFFF" x="542.5" y="50.5" width="82" height="119" rx="7"></rect>
            <rect id="Rectangle-39-Copy-7" stroke="#FFFFFF" x="542.5" y="186.5" width="82" height="119" rx="7"></rect>
            <rect id="Rectangle-39-Copy-13" stroke="#FFFFFF" x="542.5" y="322.5" width="82" height="119" rx="7"></rect>
            <rect id="Rectangle-39-Copy-3" stroke="#FFFFFF" x="645.5" y="50.5" width="82" height="119" rx="7"></rect>
            <rect id="Rectangle-39-Copy-8" stroke="#FFFFFF" x="645.5" y="186.5" width="82" height="119" rx="7"></rect>
            <rect id="Rectangle-39-Copy-14" stroke="#FFFFFF" x="645.5" y="322.5" width="82" height="119" rx="7"></rect>
            <rect id="Rectangle-39-Copy-5" stroke="#FFFFFF" x="439.5" y="50.5" width="82" height="119" rx="7"></rect>
            <rect id="Rectangle-39-Copy-9" stroke="#FFFFFF" x="439.5" y="186.5" width="82" height="119" rx="7"></rect>
            <rect id="Rectangle-39-Copy-15" stroke="#FFFFFF" x="439.5" y="322.5" width="82" height="119" rx="7"></rect>
            <rect id="Rectangle-39" stroke="#FFFFFF" x="219.5" y="330.5" width="66" height="97"></rect>
            <rect id="Rectangle-39-Copy-2" stroke="#FFFFFF" x="550.5" y="58.5" width="66" height="97"></rect>
            <rect id="Rectangle-39-Copy-10" stroke="#FFFFFF" x="550.5" y="194.5" width="66" height="97"></rect>
            <rect id="Rectangle-39-Copy-16" stroke="#FFFFFF" x="550.5" y="330.5" width="66" height="97"></rect>
            <rect id="Rectangle-39-Copy-4" stroke="#FFFFFF" x="653.5" y="58.5" width="66" height="97"></rect>
            <rect id="Rectangle-39-Copy-11" stroke="#FFFFFF" x="653.5" y="194.5" width="66" height="97"></rect>
            <rect id="Rectangle-39-Copy-17" stroke="#FFFFFF" x="653.5" y="330.5" width="66" height="97"></rect>
            <rect id="Rectangle-39-Copy-6" stroke="#FFFFFF" x="447.5" y="58.5" width="66" height="97"></rect>
            <rect id="Rectangle-39-Copy-12" stroke="#FFFFFF" x="447.5" y="194.5" width="66" height="97"></rect>
            <rect id="Rectangle-39-Copy-18" stroke="#FFFFFF" x="447.5" y="330.5" width="66" height="97"></rect>
            <polyline id="Path-19" stroke="#FFFFFF" points="213 516 213 546 442 546 442 516"></polyline>
            <polyline id="Path-19-Copy" stroke="#FFFFFF" points="442 516 442 546 807 546 807 516"></polyline>
            <polyline id="Path-19-Copy-2" stroke="#FFFFFF" points="1064 516 1064 546 1364 546 1364 516"></polyline>
            <polygon id="Star" fill="#F1FF00" points="308.895995 334.876318 304.634036 337.116962 305.447998 332.371201 302 329.010234 306.765015 328.317836 308.895995 324 311.026975 328.317836 315.79199 329.010234 312.343993 332.371201 313.157954 337.116962"></polygon>
            <polyline id="Path-2" stroke="#FFFFFF" points="1272 546 1272 174 1344 174"></polyline>
            <rect id="Rectangle-2" stroke="#FFFFFF" x="1440.5" y="408.5" width="80" height="10" rx="1"></rect>
            <g id="Group" transform="translate(1364.000000, 237.000000)" stroke="#FFFFFF">
                <path d="M0.5,3.00001915 L0.5,26.9999809 C0.5,28.3778396 1.62354077,29.5 3.00658937,29.5 L144.993411,29.5 C146.377084,29.5 147.5,28.3799152 147.5,26.9999809 L147.5,3.00001915 C147.5,1.62216042 146.376459,0.5 144.993411,0.5 L3.00658937,0.5 C1.62291607,0.5 0.5,1.62008484 0.5,3.00001915 Z" id="Rectangle-37-Copy"></path>
                <circle id="Oval-16-Copy" cx="133.5" cy="14.5" r="5.5"></circle>
                <rect id="Rectangle-3" x="9.5" y="29.5" width="6" height="13" rx="1"></rect>
                <rect id="Rectangle-3-Copy" x="132.5" y="29.5" width="6" height="13" rx="1"></rect>
            </g>
        </g>
    </g>
</svg>