<?xml version="1.0" encoding="UTF-8" standalone="no"?>
<svg width="1436px" height="501px" viewBox="0 0 1436 501" version="1.1" xmlns="http://www.w3.org/2000/svg" xmlns:xlink="http://www.w3.org/1999/xlink">
    <!-- Generator: Sketch 42 (36781) - http://www.bohemiancoding.com/sketch -->
    <title>Artboard 2 Copy 2</title>
    <desc>Created with Sketch.</desc>
    <defs>
        <rect id="path-1" x="589" y="126" width="422" height="227" rx="2"></rect>
        <mask id="mask-2" maskContentUnits="userSpaceOnUse" maskUnits="objectBoundingBox" x="0" y="0" width="422" height="227" fill="white">
            <use xlink:href="#path-1"></use>
        </mask>
        <polygon id="path-3" points="770 352 841 352 851 394 761 394"></polygon>
        <mask id="mask-4" maskContentUnits="userSpaceOnUse" maskUnits="objectBoundingBox" x="0" y="0" width="90" height="42" fill="white">
            <use xlink:href="#path-3"></use>
        </mask>
        <path d="M1155,322.003681 C1155,320.344794 1156.33919,319 1158.00979,319 L1384.99021,319 C1386.65247,319 1388,320.349846 1388,322.003681 L1388,357.996319 C1388,359.655206 1386.66081,361 1384.99021,361 L1158.00979,361 C1156.34753,361 1155,359.650154 1155,357.996319 L1155,322.003681 Z" id="path-5"></path>
        <mask id="mask-6" maskContentUnits="userSpaceOnUse" maskUnits="objectBoundingBox" x="0" y="0" width="233" height="42" fill="white">
            <use xlink:href="#path-5"></use>
        </mask>
        <path d="M1155,373.00033 C1155,371.343293 1156.33919,370 1158.00979,370 L1384.99021,370 C1386.65247,370 1388,371.348644 1388,373.00033 L1388,376.99967 C1388,378.656707 1386.66081,380 1384.99021,380 L1158.00979,380 C1156.34753,380 1155,378.651356 1155,376.99967 L1155,373.00033 Z" id="path-7"></path>
        <mask id="mask-8" maskContentUnits="userSpaceOnUse" maskUnits="objectBoundingBox" x="0" y="0" width="233" height="10" fill="white">
            <use xlink:href="#path-7"></use>
        </mask>
        <rect id="path-9" x="609" y="144" width="382" height="180"></rect>
        <mask id="mask-10" maskContentUnits="userSpaceOnUse" maskUnits="objectBoundingBox" x="0" y="0" width="382" height="180" fill="white">
            <use xlink:href="#path-9"></use>
        </mask>
        <rect id="path-11" x="2" y="274" width="83" height="120" rx="7"></rect>
        <mask id="mask-12" maskContentUnits="userSpaceOnUse" maskUnits="objectBoundingBox" x="0" y="0" width="83" height="120" fill="white">
            <use xlink:href="#path-11"></use>
        </mask>
        <rect id="path-13" x="333" y="2" width="83" height="120" rx="7"></rect>
        <mask id="mask-14" maskContentUnits="userSpaceOnUse" maskUnits="objectBoundingBox" x="0" y="0" width="83" height="120" fill="white">
            <use xlink:href="#path-13"></use>
        </mask>
        <rect id="path-15" x="333" y="138" width="83" height="120" rx="7"></rect>
        <mask id="mask-16" maskContentUnits="userSpaceOnUse" maskUnits="objectBoundingBox" x="0" y="0" width="83" height="120" fill="white">
            <use xlink:href="#path-15"></use>
        </mask>
        <rect id="path-17" x="333" y="274" width="83" height="120" rx="7"></rect>
        <mask id="mask-18" maskContentUnits="userSpaceOnUse" maskUnits="objectBoundingBox" x="0" y="0" width="83" height="120" fill="white">
            <use xlink:href="#path-17"></use>
        </mask>
        <rect id="path-19" x="436" y="2" width="83" height="120" rx="7"></rect>
        <mask id="mask-20" maskContentUnits="userSpaceOnUse" maskUnits="objectBoundingBox" x="0" y="0" width="83" height="120" fill="white">
            <use xlink:href="#path-19"></use>
        </mask>
        <rect id="path-21" x="436" y="138" width="83" height="120" rx="7"></rect>
        <mask id="mask-22" maskContentUnits="userSpaceOnUse" maskUnits="objectBoundingBox" x="0" y="0" width="83" height="120" fill="white">
            <use xlink:href="#path-21"></use>
        </mask>
        <rect id="path-23" x="436" y="274" width="83" height="120" rx="7"></rect>
        <mask id="mask-24" maskContentUnits="userSpaceOnUse" maskUnits="objectBoundingBox" x="0" y="0" width="83" height="120" fill="white">
            <use xlink:href="#path-23"></use>
        </mask>
        <rect id="path-25" x="230" y="2" width="83" height="120" rx="7"></rect>
        <mask id="mask-26" maskContentUnits="userSpaceOnUse" maskUnits="objectBoundingBox" x="0" y="0" width="83" height="120" fill="white">
            <use xlink:href="#path-25"></use>
        </mask>
        <rect id="path-27" x="230" y="138" width="83" height="120" rx="7"></rect>
        <mask id="mask-28" maskContentUnits="userSpaceOnUse" maskUnits="objectBoundingBox" x="0" y="0" width="83" height="120" fill="white">
            <use xlink:href="#path-27"></use>
        </mask>
        <rect id="path-29" x="230" y="274" width="83" height="120" rx="7"></rect>
        <mask id="mask-30" maskContentUnits="userSpaceOnUse" maskUnits="objectBoundingBox" x="0" y="0" width="83" height="120" fill="white">
            <use xlink:href="#path-29"></use>
        </mask>
        <rect id="path-31" x="10" y="282" width="67" height="98"></rect>
        <mask id="mask-32" maskContentUnits="userSpaceOnUse" maskUnits="objectBoundingBox" x="0" y="0" width="67" height="98" fill="white">
            <use xlink:href="#path-31"></use>
        </mask>
        <rect id="path-33" x="341" y="10" width="67" height="98"></rect>
        <mask id="mask-34" maskContentUnits="userSpaceOnUse" maskUnits="objectBoundingBox" x="0" y="0" width="67" height="98" fill="white">
            <use xlink:href="#path-33"></use>
        </mask>
        <rect id="path-35" x="341" y="146" width="67" height="98"></rect>
        <mask id="mask-36" maskContentUnits="userSpaceOnUse" maskUnits="objectBoundingBox" x="0" y="0" width="67" height="98" fill="white">
            <use xlink:href="#path-35"></use>
        </mask>
        <rect id="path-37" x="341" y="282" width="67" height="98"></rect>
        <mask id="mask-38" maskContentUnits="userSpaceOnUse" maskUnits="objectBoundingBox" x="0" y="0" width="67" height="98" fill="white">
            <use xlink:href="#path-37"></use>
        </mask>
        <rect id="path-39" x="444" y="10" width="67" height="98"></rect>
        <mask id="mask-40" maskContentUnits="userSpaceOnUse" maskUnits="objectBoundingBox" x="0" y="0" width="67" height="98" fill="white">
            <use xlink:href="#path-39"></use>
        </mask>
        <rect id="path-41" x="444" y="146" width="67" height="98"></rect>
        <mask id="mask-42" maskContentUnits="userSpaceOnUse" maskUnits="objectBoundingBox" x="0" y="0" width="67" height="98" fill="white">
            <use xlink:href="#path-41"></use>
        </mask>
        <rect id="path-43" x="444" y="282" width="67" height="98"></rect>
        <mask id="mask-44" maskContentUnits="userSpaceOnUse" maskUnits="objectBoundingBox" x="0" y="0" width="67" height="98" fill="white">
            <use xlink:href="#path-43"></use>
        </mask>
        <rect id="path-45" x="238" y="10" width="67" height="98"></rect>
        <mask id="mask-46" maskContentUnits="userSpaceOnUse" maskUnits="objectBoundingBox" x="0" y="0" width="67" height="98" fill="white">
            <use xlink:href="#path-45"></use>
        </mask>
        <rect id="path-47" x="238" y="146" width="67" height="98"></rect>
        <mask id="mask-48" maskContentUnits="userSpaceOnUse" maskUnits="objectBoundingBox" x="0" y="0" width="67" height="98" fill="white">
            <use xlink:href="#path-47"></use>
        </mask>
        <rect id="path-49" x="238" y="282" width="67" height="98"></rect>
        <mask id="mask-50" maskContentUnits="userSpaceOnUse" maskUnits="objectBoundingBox" x="0" y="0" width="67" height="98" fill="white">
            <use xlink:href="#path-49"></use>
        </mask>
        <rect id="path-51" x="1231" y="360" width="81" height="11" rx="1"></rect>
        <mask id="mask-52" maskContentUnits="userSpaceOnUse" maskUnits="objectBoundingBox" x="0" y="0" width="81" height="11" fill="white">
            <use xlink:href="#path-51"></use>
        </mask>
        <path d="M0,3.00001915 C0,1.34315432 1.34756232,0 3.00658937,0 L144.993411,0 C146.653904,0 148,1.34731857 148,3.00001915 L148,26.9999809 C148,28.6568457 146.652438,30 144.993411,30 L3.00658937,30 C1.34609591,30 0,28.6526814 0,26.9999809 L0,3.00001915 Z" id="path-53"></path>
        <mask id="mask-54" maskContentUnits="userSpaceOnUse" maskUnits="objectBoundingBox" x="0" y="0" width="148" height="30" fill="white">
            <use xlink:href="#path-53"></use>
        </mask>
        <rect id="path-55" x="9" y="29" width="7" height="14" rx="1"></rect>
        <mask id="mask-56" maskContentUnits="userSpaceOnUse" maskUnits="objectBoundingBox" x="0" y="0" width="7" height="14" fill="white">
            <use xlink:href="#path-55"></use>
        </mask>
        <rect id="path-57" x="132" y="29" width="7" height="14" rx="1"></rect>
        <mask id="mask-58" maskContentUnits="userSpaceOnUse" maskUnits="objectBoundingBox" x="0" y="0" width="7" height="14" fill="white">
            <use xlink:href="#path-57"></use>
        </mask>
    </defs>
    <g id="Page-1" stroke="none" stroke-width="1" fill="none" fill-rule="evenodd">
        <g id="Artboard-2-Copy-2">
            <path d="M11.98,440 L10.58,436.34 L4.6,436.34 L3.2,440 L1.52,440 L6.66,426.8 L8.56,426.8 L13.68,440 L11.98,440 Z M5.18,434.84 L10,434.84 L8.22,430.16 L7.6,428.32 L7.56,428.32 L6.98,430.1 L5.18,434.84 Z M23.34,425.4 L24.94,425.4 L24.94,440 L23.54,440 L23.44,438.26 C22.86,439.4 21.6,440.2 20.02,440.2 C17.24,440.2 15.46,438.26 15.46,435 C15.46,431.74 17.24,429.8 20.02,429.8 C21.52,429.8 22.72,430.52 23.34,431.56 L23.34,425.4 Z M20.2,438.8 C22.1,438.8 23.34,437.38 23.34,435.12 L23.34,434.88 C23.34,432.62 22.1,431.2 20.2,431.2 C18.24,431.2 17.06,432.68 17.06,435 C17.06,437.32 18.24,438.8 20.2,438.8 Z M40.28,429.8 C39.02,429.8 37.42,430.4 36.8,431.76 C36.14,430.42 34.76,429.8 33.36,429.8 C32.12,429.8 30.88,430.34 30.16,431.56 L30.06,430 L28.66,430 L28.66,440 L30.26,440 L30.26,434.66 C30.26,432.18 31.9,431.2 33.22,431.2 C34.54,431.2 35.58,431.94 35.58,433.76 L35.58,440 L37.18,440 L37.18,434.52 C37.18,432.38 38.58,431.2 40.14,431.2 C41.46,431.2 42.5,431.94 42.5,433.76 L42.5,440 L44.1,440 L44.1,433.6 C44.1,430.96 42.2,429.8 40.28,429.8 Z M48.52,428.08 C49.24,428.08 49.72,427.6 49.72,426.88 C49.72,426.16 49.24,425.68 48.52,425.68 C47.8,425.68 47.32,426.16 47.32,426.88 C47.32,427.6 47.8,428.08 48.52,428.08 Z M49.32,430 L47.72,430 L47.72,440 L49.32,440 L49.32,430 Z M57.9,429.8 C56.52,429.8 55.24,430.3 54.54,431.56 L54.44,430 L53.04,430 L53.04,440 L54.64,440 L54.64,434.68 C54.64,432.12 56.28,431.2 57.74,431.2 C59.12,431.2 60.2,431.94 60.2,434.16 L60.2,440 L61.8,440 L61.8,433.6 C61.8,431.02 60.04,429.8 57.9,429.8 Z M77.2,426.8 C79.86,426.8 81.64,428.34 81.64,430.82 C81.64,433.3 79.86,434.84 77.2,434.84 L74.14,434.84 L74.14,440 L72.54,440 L72.54,426.8 L77.2,426.8 Z M76.96,433.34 C79.04,433.34 79.96,432.46 79.96,430.82 C79.96,429.18 79.04,428.3 76.96,428.3 L74.14,428.3 L74.14,433.34 L76.96,433.34 Z M89.3,429.8 C87.94,429.8 86.74,430.3 86.04,431.5 L86.04,425.4 L84.44,425.4 L84.44,440 L86.04,440 L86.04,434.7 C86.04,432.14 87.68,431.2 89.14,431.2 C90.52,431.2 91.6,431.94 91.6,434.16 L91.6,440 L93.2,440 L93.2,433.6 C93.2,431.02 91.44,429.8 89.3,429.8 Z M101.04,429.8 C104.06,429.8 105.88,431.76 105.88,435 C105.88,438.24 104.06,440.2 101.04,440.2 C98.02,440.2 96.2,438.24 96.2,435 C96.2,431.76 98.02,429.8 101.04,429.8 Z M101.04,431.18 C99.02,431.18 97.8,432.62 97.8,435 C97.8,437.38 99.02,438.82 101.04,438.82 C103.06,438.82 104.28,437.38 104.28,435 C104.28,432.62 103.06,431.18 101.04,431.18 Z M113.84,429.8 C112.46,429.8 111.18,430.3 110.48,431.56 L110.38,430 L108.98,430 L108.98,440 L110.58,440 L110.58,434.68 C110.58,432.12 112.22,431.2 113.68,431.2 C115.06,431.2 116.14,431.94 116.14,434.16 L116.14,440 L117.74,440 L117.74,433.6 C117.74,431.02 115.98,429.8 113.84,429.8 Z M129.94,434.48 C129.94,434.94 129.9,435.32 129.86,435.6 L122.32,435.6 C122.52,437.62 123.74,438.8 125.58,438.8 C127.04,438.8 128.04,438.28 128.4,437.32 L129.74,438.02 C128.98,439.38 127.74,440.2 125.58,440.2 C122.56,440.2 120.74,438.24 120.74,435 C120.74,431.76 122.44,429.8 125.46,429.8 C128.36,429.8 129.94,431.9 129.94,434.48 Z M125.46,431.2 C123.68,431.2 122.58,432.3 122.34,434.18 L128.4,434.18 C128.18,432.34 127.16,431.2 125.46,431.2 Z" id="Admin-Phone" fill="#747279"></path>
            <path d="M237.24,433.34 L237.24,434.84 L241.44,434.84 L241.44,435.3 C241.44,437.58 239.74,438.7 237.54,438.7 C234.6,438.7 233.04,436.72 233.04,433.4 C233.04,430.08 234.84,428.1 237.52,428.1 C239.36,428.1 240.76,428.9 241.34,430.42 L242.8,429.62 C241.78,427.58 240.14,426.6 237.52,426.6 C233.82,426.6 231.36,429.22 231.36,433.4 C231.36,437.58 233.72,440.2 237.48,440.2 C239.5,440.2 240.88,439.46 241.64,438.22 L241.7,440 L242.9,440 L242.9,433.34 L237.24,433.34 Z M253.4,430 L253.4,435.44 C253.4,437.8 251.9,438.8 250.2,438.8 C248.76,438.8 247.84,438.18 247.84,436.12 L247.84,430 L246.24,430 L246.24,436.54 C246.24,439.18 247.94,440.2 249.92,440.2 C251.52,440.2 252.8,439.68 253.5,438.48 L253.6,440 L255,440 L255,430 L253.4,430 Z M267.3,434.48 C267.3,434.94 267.26,435.32 267.22,435.6 L259.68,435.6 C259.88,437.62 261.1,438.8 262.94,438.8 C264.4,438.8 265.4,438.28 265.76,437.32 L267.1,438.02 C266.34,439.38 265.1,440.2 262.94,440.2 C259.92,440.2 258.1,438.24 258.1,435 C258.1,431.76 259.8,429.8 262.82,429.8 C265.72,429.8 267.3,431.9 267.3,434.48 Z M262.82,431.2 C261.04,431.2 259.94,432.3 259.7,434.18 L265.76,434.18 C265.54,432.34 264.52,431.2 262.82,431.2 Z M273.74,440.2 C276.3,440.2 277.92,438.98 277.92,437.24 C277.92,435.6 276.92,434.76 274.12,434.3 C272.08,433.96 271.42,433.52 271.42,432.66 C271.42,431.92 272.42,431.2 273.76,431.2 C275.02,431.2 275.92,431.68 276.36,433 L277.72,432.2 C277.16,430.56 275.9,429.8 273.76,429.8 C271.32,429.8 269.82,431.18 269.82,432.8 C269.82,434.48 270.86,435.26 273.7,435.78 C275.7,436.14 276.32,436.58 276.32,437.32 C276.32,438.14 275.54,438.8 273.9,438.8 C272.46,438.8 271.22,438.26 270.74,437.04 L269.44,437.94 C270.2,439.48 271.9,440.2 273.74,440.2 Z M286.44,437.96 C285.98,438.42 285.46,438.7 284.74,438.7 C283.86,438.7 283.24,438.22 283.24,437.24 L283.24,431.38 L286.94,431.38 L286.94,430 L283.24,430 L283.24,427.16 L281.64,427.6 L281.64,430 L279.64,430 L279.64,431.38 L281.64,431.38 L281.64,437.52 C281.66,439.46 282.94,440.2 284.42,440.2 C285.52,440.2 286.38,439.86 287,439.3 L286.44,437.96 Z M301.04,426.8 C303.7,426.8 305.48,428.34 305.48,430.82 C305.48,433.3 303.7,434.84 301.04,434.84 L297.98,434.84 L297.98,440 L296.38,440 L296.38,426.8 L301.04,426.8 Z M300.8,433.34 C302.88,433.34 303.8,432.46 303.8,430.82 C303.8,429.18 302.88,428.3 300.8,428.3 L297.98,428.3 L297.98,433.34 L300.8,433.34 Z M313.14,429.8 C311.78,429.8 310.58,430.3 309.88,431.5 L309.88,425.4 L308.28,425.4 L308.28,440 L309.88,440 L309.88,434.7 C309.88,432.14 311.52,431.2 312.98,431.2 C314.36,431.2 315.44,431.94 315.44,434.16 L315.44,440 L317.04,440 L317.04,433.6 C317.04,431.02 315.28,429.8 313.14,429.8 Z M324.88,429.8 C327.9,429.8 329.72,431.76 329.72,435 C329.72,438.24 327.9,440.2 324.88,440.2 C321.86,440.2 320.04,438.24 320.04,435 C320.04,431.76 321.86,429.8 324.88,429.8 Z M324.88,431.18 C322.86,431.18 321.64,432.62 321.64,435 C321.64,437.38 322.86,438.82 324.88,438.82 C326.9,438.82 328.12,437.38 328.12,435 C328.12,432.62 326.9,431.18 324.88,431.18 Z M337.68,429.8 C336.3,429.8 335.02,430.3 334.32,431.56 L334.22,430 L332.82,430 L332.82,440 L334.42,440 L334.42,434.68 C334.42,432.12 336.06,431.2 337.52,431.2 C338.9,431.2 339.98,431.94 339.98,434.16 L339.98,440 L341.58,440 L341.58,433.6 C341.58,431.02 339.82,429.8 337.68,429.8 Z M353.78,434.48 C353.78,434.94 353.74,435.32 353.7,435.6 L346.16,435.6 C346.36,437.62 347.58,438.8 349.42,438.8 C350.88,438.8 351.88,438.28 352.24,437.32 L353.58,438.02 C352.82,439.38 351.58,440.2 349.42,440.2 C346.4,440.2 344.58,438.24 344.58,435 C344.58,431.76 346.28,429.8 349.3,429.8 C352.2,429.8 353.78,431.9 353.78,434.48 Z M349.3,431.2 C347.52,431.2 346.42,432.3 346.18,434.18 L352.24,434.18 C352.02,432.34 351,431.2 349.3,431.2 Z M360.22,440.2 C362.78,440.2 364.4,438.98 364.4,437.24 C364.4,435.6 363.4,434.76 360.6,434.3 C358.56,433.96 357.9,433.52 357.9,432.66 C357.9,431.92 358.9,431.2 360.24,431.2 C361.5,431.2 362.4,431.68 362.84,433 L364.2,432.2 C363.64,430.56 362.38,429.8 360.24,429.8 C357.8,429.8 356.3,431.18 356.3,432.8 C356.3,434.48 357.34,435.26 360.18,435.78 C362.18,436.14 362.8,436.58 362.8,437.32 C362.8,438.14 362.02,438.8 360.38,438.8 C358.94,438.8 357.7,438.26 357.22,437.04 L355.92,437.94 C356.68,439.48 358.38,440.2 360.22,440.2 Z" id="Guest-Phones" fill="#747279"></path>
            <path d="M607.8,436.62 L606.2,436.02 C605.62,437.8 604.24,438.7 602.48,438.7 C599.74,438.7 598.04,436.72 598.04,433.4 C598.04,430.06 599.86,428.1 602.56,428.1 C604.32,428.1 605.4,428.9 605.98,430.42 L607.56,429.68 C606.72,427.68 605,426.6 602.44,426.6 C598.76,426.6 596.36,429.22 596.36,433.4 C596.36,437.58 598.72,440.2 602.48,440.2 C604.96,440.2 606.96,438.88 607.8,436.62 Z M614.8,429.8 C617.82,429.8 619.64,431.76 619.64,435 C619.64,438.24 617.82,440.2 614.8,440.2 C611.78,440.2 609.96,438.24 609.96,435 C609.96,431.76 611.78,429.8 614.8,429.8 Z M614.8,431.18 C612.78,431.18 611.56,432.62 611.56,435 C611.56,437.38 612.78,438.82 614.8,438.82 C616.82,438.82 618.04,437.38 618.04,435 C618.04,432.62 616.82,431.18 614.8,431.18 Z M634.36,429.8 C633.1,429.8 631.5,430.4 630.88,431.76 C630.22,430.42 628.84,429.8 627.44,429.8 C626.2,429.8 624.96,430.34 624.24,431.56 L624.14,430 L622.74,430 L622.74,440 L624.34,440 L624.34,434.66 C624.34,432.18 625.98,431.2 627.3,431.2 C628.62,431.2 629.66,431.94 629.66,433.76 L629.66,440 L631.26,440 L631.26,434.52 C631.26,432.38 632.66,431.2 634.22,431.2 C635.54,431.2 636.58,431.94 636.58,433.76 L636.58,440 L638.18,440 L638.18,433.6 C638.18,430.96 636.28,429.8 634.36,429.8 Z M646.72,429.8 C649.5,429.8 651.28,431.74 651.28,435 C651.28,438.26 649.5,440.2 646.72,440.2 C645.22,440.2 644.02,439.48 643.4,438.44 L643.4,444.2 L641.8,444.2 L641.8,430 L643.2,430 L643.3,431.74 C643.88,430.6 645.14,429.8 646.72,429.8 Z M646.54,438.8 C648.5,438.8 649.68,437.32 649.68,435 C649.68,432.68 648.5,431.2 646.54,431.2 C644.64,431.2 643.4,432.62 643.4,434.88 L643.4,435.12 C643.4,437.38 644.64,438.8 646.54,438.8 Z M661.46,430 L661.46,435.44 C661.46,437.8 659.96,438.8 658.26,438.8 C656.82,438.8 655.9,438.18 655.9,436.12 L655.9,430 L654.3,430 L654.3,436.54 C654.3,439.18 656,440.2 657.98,440.2 C659.58,440.2 660.86,439.68 661.56,438.48 L661.66,440 L663.06,440 L663.06,430 L661.46,430 Z M672.34,437.96 C671.88,438.42 671.36,438.7 670.64,438.7 C669.76,438.7 669.14,438.22 669.14,437.24 L669.14,431.38 L672.84,431.38 L672.84,430 L669.14,430 L669.14,427.16 L667.54,427.6 L667.54,430 L665.54,430 L665.54,431.38 L667.54,431.38 L667.54,437.52 C667.56,439.46 668.84,440.2 670.32,440.2 C671.42,440.2 672.28,439.86 672.9,439.3 L672.34,437.96 Z M683.74,434.48 C683.74,434.94 683.7,435.32 683.66,435.6 L676.12,435.6 C676.32,437.62 677.54,438.8 679.38,438.8 C680.84,438.8 681.84,438.28 682.2,437.32 L683.54,438.02 C682.78,439.38 681.54,440.2 679.38,440.2 C676.36,440.2 674.54,438.24 674.54,435 C674.54,431.76 676.24,429.8 679.26,429.8 C682.16,429.8 683.74,431.9 683.74,434.48 Z M679.26,431.2 C677.48,431.2 676.38,432.3 676.14,434.18 L682.2,434.18 C681.98,432.34 680.96,431.2 679.26,431.2 Z M691.5,429.8 C689.94,429.8 688.86,430.42 688.3,431.64 L688.08,430 L686.78,430 L686.78,440 L688.38,440 L688.38,434.6 C688.38,432.36 689.82,431.3 691.02,431.3 C691.54,431.3 691.98,431.4 692.28,431.56 L692.6,430 C692.3,429.84 691.84,429.8 691.5,429.8 Z M714.5,430 L711.98,438.14 L709.26,430 L707.66,430 L704.94,438.14 L702.42,430 L700.64,430 L704.12,440 L705.72,440 L708.38,432.04 L711.2,440 L712.8,440 L716.28,430 L714.5,430 Z M725.2,425.4 L723.7,425.4 L717.58,441.4 L719.08,441.4 L725.2,425.4 Z M739.02,426.8 C743.16,426.8 745.66,429.16 745.66,433.4 C745.66,437.64 743.16,440 739.02,440 L734.76,440 L734.76,426.8 L739.02,426.8 Z M739.18,438.5 C742.2,438.5 743.98,436.6 743.98,433.4 C743.98,430.2 742.2,428.3 739.18,428.3 L736.36,428.3 L736.36,438.5 L739.18,438.5 Z M757.46,434.48 C757.46,434.94 757.42,435.32 757.38,435.6 L749.84,435.6 C750.04,437.62 751.26,438.8 753.1,438.8 C754.56,438.8 755.56,438.28 755.92,437.32 L757.26,438.02 C756.5,439.38 755.26,440.2 753.1,440.2 C750.08,440.2 748.26,438.24 748.26,435 C748.26,431.76 749.96,429.8 752.98,429.8 C755.88,429.8 757.46,431.9 757.46,434.48 Z M752.98,431.2 C751.2,431.2 750.1,432.3 749.86,434.18 L755.92,434.18 C755.7,432.34 754.68,431.2 752.98,431.2 Z M763.9,440.2 C766.46,440.2 768.08,438.98 768.08,437.24 C768.08,435.6 767.08,434.76 764.28,434.3 C762.24,433.96 761.58,433.52 761.58,432.66 C761.58,431.92 762.58,431.2 763.92,431.2 C765.18,431.2 766.08,431.68 766.52,433 L767.88,432.2 C767.32,430.56 766.06,429.8 763.92,429.8 C761.48,429.8 759.98,431.18 759.98,432.8 C759.98,434.48 761.02,435.26 763.86,435.78 C765.86,436.14 766.48,436.58 766.48,437.32 C766.48,438.14 765.7,438.8 764.06,438.8 C762.62,438.8 761.38,438.26 760.9,437.04 L759.6,437.94 C760.36,439.48 762.06,440.2 763.9,440.2 Z M778.12,440 L780.06,440 L775.92,433.9 L779.82,430 L777.82,430 L772.64,435.18 L772.64,425.4 L771.04,425.4 L771.04,440 L772.64,440 L772.64,437.18 L774.76,435.06 L778.12,440 Z M787.94,437.96 C787.48,438.42 786.96,438.7 786.24,438.7 C785.36,438.7 784.74,438.22 784.74,437.24 L784.74,431.38 L788.44,431.38 L788.44,430 L784.74,430 L784.74,427.16 L783.14,427.6 L783.14,430 L781.14,430 L781.14,431.38 L783.14,431.38 L783.14,437.52 C783.16,439.46 784.44,440.2 785.92,440.2 C787.02,440.2 787.88,439.86 788.5,439.3 L787.94,437.96 Z M794.98,429.8 C798,429.8 799.82,431.76 799.82,435 C799.82,438.24 798,440.2 794.98,440.2 C791.96,440.2 790.14,438.24 790.14,435 C790.14,431.76 791.96,429.8 794.98,429.8 Z M794.98,431.18 C792.96,431.18 791.74,432.62 791.74,435 C791.74,437.38 792.96,438.82 794.98,438.82 C797,438.82 798.22,437.38 798.22,435 C798.22,432.62 797,431.18 794.98,431.18 Z M807.84,429.8 C810.62,429.8 812.4,431.74 812.4,435 C812.4,438.26 810.62,440.2 807.84,440.2 C806.34,440.2 805.14,439.48 804.52,438.44 L804.52,444.2 L802.92,444.2 L802.92,430 L804.32,430 L804.42,431.74 C805,430.6 806.26,429.8 807.84,429.8 Z M807.66,438.8 C809.62,438.8 810.8,437.32 810.8,435 C810.8,432.68 809.62,431.2 807.66,431.2 C805.76,431.2 804.52,432.62 804.52,434.88 L804.52,435.12 C804.52,437.38 805.76,438.8 807.66,438.8 Z M831.46,440 L830.06,436.34 L824.08,436.34 L822.68,440 L821,440 L826.14,426.8 L828.04,426.8 L833.16,440 L831.46,440 Z M824.66,434.84 L829.48,434.84 L827.7,430.16 L827.08,428.32 L827.04,428.32 L826.46,430.1 L824.66,434.84 Z M840.46,429.8 C843.24,429.8 845.02,431.74 845.02,435 C845.02,438.26 843.24,440.2 840.46,440.2 C838.96,440.2 837.76,439.48 837.14,438.44 L837.14,444.2 L835.54,444.2 L835.54,430 L836.94,430 L837.04,431.74 C837.62,430.6 838.88,429.8 840.46,429.8 Z M840.28,438.8 C842.24,438.8 843.42,437.32 843.42,435 C843.42,432.68 842.24,431.2 840.28,431.2 C838.38,431.2 837.14,432.62 837.14,434.88 L837.14,435.12 C837.14,437.38 838.38,438.8 840.28,438.8 Z M853.06,429.8 C855.84,429.8 857.62,431.74 857.62,435 C857.62,438.26 855.84,440.2 853.06,440.2 C851.56,440.2 850.36,439.48 849.74,438.44 L849.74,444.2 L848.14,444.2 L848.14,430 L849.54,430 L849.64,431.74 C850.22,430.6 851.48,429.8 853.06,429.8 Z M852.88,438.8 C854.84,438.8 856.02,437.32 856.02,435 C856.02,432.68 854.84,431.2 852.88,431.2 C850.98,431.2 849.74,432.62 849.74,434.88 L849.74,435.12 C849.74,437.38 850.98,438.8 852.88,438.8 Z" id="Computer-w/-Desktop" fill="#747279"></path>
            <path d="M1165.64,423 L1167.56,423 L1162.24,415.18 L1167.5,409.8 L1165.4,409.8 L1158.76,416.6 L1158.76,409.8 L1157.16,409.8 L1157.16,423 L1158.76,423 L1158.76,418.76 L1161.12,416.36 L1165.64,423 Z M1170.78,411.08 C1171.5,411.08 1171.98,410.6 1171.98,409.88 C1171.98,409.16 1171.5,408.68 1170.78,408.68 C1170.06,408.68 1169.58,409.16 1169.58,409.88 C1169.58,410.6 1170.06,411.08 1170.78,411.08 Z M1171.58,413 L1169.98,413 L1169.98,423 L1171.58,423 L1171.58,413 Z M1180.16,412.8 C1178.78,412.8 1177.5,413.3 1176.8,414.56 L1176.7,413 L1175.3,413 L1175.3,423 L1176.9,423 L1176.9,417.68 C1176.9,415.12 1178.54,414.2 1180,414.2 C1181.38,414.2 1182.46,414.94 1182.46,417.16 L1182.46,423 L1184.06,423 L1184.06,416.6 C1184.06,414.02 1182.3,412.8 1180.16,412.8 Z M1196.26,417.48 C1196.26,417.94 1196.22,418.32 1196.18,418.6 L1188.64,418.6 C1188.84,420.62 1190.06,421.8 1191.9,421.8 C1193.36,421.8 1194.36,421.28 1194.72,420.32 L1196.06,421.02 C1195.3,422.38 1194.06,423.2 1191.9,423.2 C1188.88,423.2 1187.06,421.24 1187.06,418 C1187.06,414.76 1188.76,412.8 1191.78,412.8 C1194.68,412.8 1196.26,414.9 1196.26,417.48 Z M1191.78,414.2 C1190,414.2 1188.9,415.3 1188.66,417.18 L1194.72,417.18 C1194.5,415.34 1193.48,414.2 1191.78,414.2 Z M1203.52,412.8 C1200.5,412.8 1198.68,414.76 1198.68,418 C1198.68,421.24 1200.5,423.2 1203.52,423.2 C1205.64,423.2 1207.08,422.1 1207.76,420.26 L1206.28,419.74 C1205.98,421.06 1205.04,421.8 1203.48,421.8 C1201.48,421.8 1200.28,420.38 1200.28,418 C1200.28,415.62 1201.48,414.2 1203.48,414.2 C1204.86,414.2 1205.72,414.9 1206.14,416.18 L1207.66,415.46 C1206.92,413.82 1205.58,412.8 1203.52,412.8 Z M1216.14,420.96 C1215.68,421.42 1215.16,421.7 1214.44,421.7 C1213.56,421.7 1212.94,421.22 1212.94,420.24 L1212.94,414.38 L1216.64,414.38 L1216.64,413 L1212.94,413 L1212.94,410.16 L1211.34,410.6 L1211.34,413 L1209.34,413 L1209.34,414.38 L1211.34,414.38 L1211.34,420.52 C1211.36,422.46 1212.64,423.2 1214.12,423.2 C1215.22,423.2 1216.08,422.86 1216.7,422.3 L1216.14,420.96 Z M1236.32,409.8 L1234.6,409.8 L1231.24,418.94 L1230.4,421.54 L1229.56,418.92 L1226.2,409.8 L1224.48,409.8 L1229.5,423 L1231.32,423 L1236.32,409.8 Z M1238.36,423 L1247.24,423 L1247.24,421.5 L1242.62,421.5 C1242.22,421.5 1241.08,421.54 1240.64,421.56 L1240.64,421.54 C1245.36,418.4 1246.96,416.22 1246.96,413.74 C1246.96,411.3 1245.24,409.6 1242.54,409.6 C1239.86,409.6 1238.28,411.22 1237.94,413.52 L1239.34,414.36 C1239.52,412.38 1240.66,411.1 1242.48,411.1 C1244.2,411.1 1245.28,412.18 1245.28,413.74 C1245.28,416.08 1243.64,417.82 1238.36,421.7 L1238.36,423 Z M1158.85,436.486 C1156.876,438.194 1155.854,440.434 1155.854,443.066 C1155.854,445.698 1156.876,447.938 1158.85,449.646 L1159.494,449.002 C1157.646,447.308 1157.002,445.628 1157.002,443.066 C1157.002,440.504 1157.646,438.824 1159.494,437.13 L1158.85,436.486 Z M1166.144,441.008 L1166.62,438.922 L1166.634,438.922 L1167.11,441.008 L1168.748,447 L1170.134,447 L1172.85,437.76 L1171.716,437.76 L1169.476,446.146 L1167.292,437.76 L1166.018,437.76 L1163.834,446.118 L1161.608,437.76 L1160.404,437.76 L1163.134,447 L1164.52,447 L1166.144,441.008 Z M1175.216,438.656 C1175.72,438.656 1176.056,438.32 1176.056,437.816 C1176.056,437.312 1175.72,436.976 1175.216,436.976 C1174.712,436.976 1174.376,437.312 1174.376,437.816 C1174.376,438.32 1174.712,438.656 1175.216,438.656 Z M1175.776,440 L1174.656,440 L1174.656,447 L1175.776,447 L1175.776,440 Z M1182.272,445.572 C1181.95,445.894 1181.586,446.09 1181.082,446.09 C1180.466,446.09 1180.032,445.754 1180.032,445.068 L1180.032,440.966 L1182.622,440.966 L1182.622,440 L1180.032,440 L1180.032,438.012 L1178.912,438.32 L1178.912,440 L1177.512,440 L1177.512,440.966 L1178.912,440.966 L1178.912,445.264 C1178.926,446.622 1179.822,447.14 1180.858,447.14 C1181.628,447.14 1182.23,446.902 1182.664,446.51 L1182.272,445.572 Z M1187.648,439.86 C1186.696,439.86 1185.856,440.21 1185.366,441.05 L1185.366,436.78 L1184.246,436.78 L1184.246,447 L1185.366,447 L1185.366,443.29 C1185.366,441.498 1186.514,440.84 1187.536,440.84 C1188.502,440.84 1189.258,441.358 1189.258,442.912 L1189.258,447 L1190.378,447 L1190.378,442.52 C1190.378,440.714 1189.146,439.86 1187.648,439.86 Z M1200.864,437.62 C1198.722,437.62 1197.42,438.88 1197.42,440.364 C1197.42,441.778 1198.316,442.534 1200.808,442.968 C1202.754,443.304 1203.356,443.766 1203.356,444.564 C1203.356,445.558 1202.404,446.09 1200.976,446.09 C1199.464,446.09 1198.512,445.418 1198.022,444.354 L1197.056,445.138 C1197.7,446.286 1198.988,447.14 1200.948,447.14 C1203.104,447.14 1204.518,446.09 1204.518,444.508 C1204.518,443.08 1203.636,442.296 1201.158,441.876 C1199.212,441.54 1198.596,441.106 1198.596,440.238 C1198.596,439.356 1199.408,438.67 1200.878,438.67 C1202.236,438.67 1202.908,439.146 1203.468,440.364 L1204.434,439.58 C1203.72,438.292 1202.558,437.62 1200.864,437.62 Z M1211.616,447 L1212.974,447 L1210.076,442.73 L1212.806,440 L1211.406,440 L1207.78,443.626 L1207.78,436.78 L1206.66,436.78 L1206.66,447 L1207.78,447 L1207.78,445.026 L1209.264,443.542 L1211.616,447 Z M1220.604,443.136 C1220.604,443.458 1220.576,443.724 1220.548,443.92 L1215.27,443.92 C1215.41,445.334 1216.264,446.16 1217.552,446.16 C1218.574,446.16 1219.274,445.796 1219.526,445.124 L1220.464,445.614 C1219.932,446.566 1219.064,447.14 1217.552,447.14 C1215.438,447.14 1214.164,445.768 1214.164,443.5 C1214.164,441.232 1215.354,439.86 1217.468,439.86 C1219.498,439.86 1220.604,441.33 1220.604,443.136 Z M1217.468,440.84 C1216.222,440.84 1215.452,441.61 1215.284,442.926 L1219.526,442.926 C1219.372,441.638 1218.658,440.84 1217.468,440.84 Z M1223.796,436.78 L1222.676,436.78 L1222.676,445.264 C1222.676,446.538 1223.222,447.14 1224.356,447.14 C1224.72,447.14 1225.098,447.07 1225.392,446.944 L1225.574,445.866 C1225.168,446.02 1224.93,446.062 1224.552,446.062 C1223.978,446.062 1223.796,445.838 1223.796,445.124 L1223.796,436.78 Z M1233.022,443.136 C1233.022,443.458 1232.994,443.724 1232.966,443.92 L1227.688,443.92 C1227.828,445.334 1228.682,446.16 1229.97,446.16 C1230.992,446.16 1231.692,445.796 1231.944,445.124 L1232.882,445.614 C1232.35,446.566 1231.482,447.14 1229.97,447.14 C1227.856,447.14 1226.582,445.768 1226.582,443.5 C1226.582,441.232 1227.772,439.86 1229.886,439.86 C1231.916,439.86 1233.022,441.33 1233.022,443.136 Z M1229.886,440.84 C1228.64,440.84 1227.87,441.61 1227.702,442.926 L1231.944,442.926 C1231.79,441.638 1231.076,440.84 1229.886,440.84 Z M1239.042,445.572 C1238.72,445.894 1238.356,446.09 1237.852,446.09 C1237.236,446.09 1236.802,445.754 1236.802,445.068 L1236.802,440.966 L1239.392,440.966 L1239.392,440 L1236.802,440 L1236.802,438.012 L1235.682,438.32 L1235.682,440 L1234.282,440 L1234.282,440.966 L1235.682,440.966 L1235.682,445.264 C1235.696,446.622 1236.592,447.14 1237.628,447.14 C1238.398,447.14 1239,446.902 1239.434,446.51 L1239.042,445.572 Z M1243.97,439.86 C1246.084,439.86 1247.358,441.232 1247.358,443.5 C1247.358,445.768 1246.084,447.14 1243.97,447.14 C1241.856,447.14 1240.582,445.768 1240.582,443.5 C1240.582,441.232 1241.856,439.86 1243.97,439.86 Z M1243.97,440.826 C1242.556,440.826 1241.702,441.834 1241.702,443.5 C1241.702,445.166 1242.556,446.174 1243.97,446.174 C1245.384,446.174 1246.238,445.166 1246.238,443.5 C1246.238,441.834 1245.384,440.826 1243.97,440.826 Z M1252.93,439.86 C1251.964,439.86 1251.068,440.21 1250.578,441.092 L1250.508,440 L1249.528,440 L1249.528,447 L1250.648,447 L1250.648,443.276 C1250.648,441.484 1251.796,440.84 1252.818,440.84 C1253.784,440.84 1254.54,441.358 1254.54,442.912 L1254.54,447 L1255.66,447 L1255.66,442.52 C1255.66,440.714 1254.428,439.86 1252.93,439.86 Z M1269.674,437.76 L1262.114,437.76 L1262.114,438.81 L1265.334,438.81 L1265.334,447 L1266.454,447 L1266.454,438.81 L1269.674,438.81 L1269.674,437.76 Z M1274.728,439.86 C1273.636,439.86 1272.88,440.294 1272.488,441.148 L1272.334,440 L1271.424,440 L1271.424,447 L1272.544,447 L1272.544,443.22 C1272.544,441.652 1273.552,440.91 1274.392,440.91 C1274.756,440.91 1275.064,440.98 1275.274,441.092 L1275.498,440 C1275.288,439.888 1274.966,439.86 1274.728,439.86 Z M1282.876,446.188 C1283.058,446.188 1283.268,446.16 1283.436,446.118 L1283.366,447 C1283.17,447.07 1282.876,447.14 1282.526,447.14 C1281.84,447.14 1281.392,446.888 1281.266,446.104 C1280.818,446.762 1279.908,447.14 1279.012,447.14 C1277.696,447.14 1276.632,446.524 1276.632,445.264 C1276.632,444.214 1277.556,443.388 1279.362,443.08 L1281.224,442.772 L1281.224,442.38 C1281.224,441.456 1280.636,440.84 1279.586,440.84 C1278.662,440.84 1277.962,441.288 1277.584,442.17 L1276.758,441.568 C1277.122,440.532 1278.228,439.86 1279.586,439.86 C1281.182,439.86 1282.344,440.616 1282.344,442.24 L1282.344,445.684 C1282.344,446.02 1282.484,446.188 1282.876,446.188 Z M1279.068,446.16 C1280.188,446.16 1281.224,445.572 1281.224,444.648 L1281.224,443.682 L1279.656,443.976 C1278.424,444.2 1277.794,444.606 1277.794,445.264 C1277.794,445.852 1278.27,446.16 1279.068,446.16 Z M1288.014,439.86 C1285.9,439.86 1284.626,441.232 1284.626,443.5 C1284.626,445.768 1285.9,447.14 1288.014,447.14 C1289.498,447.14 1290.506,446.37 1290.982,445.082 L1289.946,444.718 C1289.736,445.642 1289.078,446.16 1287.986,446.16 C1286.586,446.16 1285.746,445.166 1285.746,443.5 C1285.746,441.834 1286.586,440.84 1287.986,440.84 C1288.952,440.84 1289.554,441.33 1289.848,442.226 L1290.912,441.722 C1290.394,440.574 1289.456,439.86 1288.014,439.86 Z M1297.912,447 L1299.27,447 L1296.372,442.73 L1299.102,440 L1297.702,440 L1294.076,443.626 L1294.076,436.78 L1292.956,436.78 L1292.956,447 L1294.076,447 L1294.076,445.026 L1295.56,443.542 L1297.912,447 Z M1301.454,438.656 C1301.958,438.656 1302.294,438.32 1302.294,437.816 C1302.294,437.312 1301.958,436.976 1301.454,436.976 C1300.95,436.976 1300.614,437.312 1300.614,437.816 C1300.614,438.32 1300.95,438.656 1301.454,438.656 Z M1302.014,440 L1300.894,440 L1300.894,447 L1302.014,447 L1302.014,440 Z M1308.02,439.86 C1307.054,439.86 1306.158,440.21 1305.668,441.092 L1305.598,440 L1304.618,440 L1304.618,447 L1305.738,447 L1305.738,443.276 C1305.738,441.484 1306.886,440.84 1307.908,440.84 C1308.874,440.84 1309.63,441.358 1309.63,442.912 L1309.63,447 L1310.75,447 L1310.75,442.52 C1310.75,440.714 1309.518,439.86 1308.02,439.86 Z M1317.19,446.104 C1318.52,446.104 1319.304,446.762 1319.304,447.77 C1319.304,449.156 1317.736,450.01 1315.846,450.01 C1313.634,450.01 1312.626,449.212 1312.626,448.162 C1312.626,447.518 1313.088,447.014 1313.858,446.804 C1313.326,446.552 1312.906,446.132 1312.906,445.516 C1312.906,444.788 1313.34,444.354 1313.956,444.144 C1313.284,443.724 1312.934,443.038 1312.934,442.226 C1312.934,440.84 1314.124,439.86 1315.804,439.86 C1316.336,439.86 1316.812,439.958 1317.232,440.14 C1317.498,439.174 1318.156,438.712 1319.206,438.712 L1319.458,439.692 C1318.52,439.692 1317.988,439.958 1317.792,440.462 C1318.352,440.882 1318.674,441.498 1318.674,442.226 C1318.674,443.612 1317.484,444.592 1315.804,444.592 C1315.398,444.592 1315.034,444.55 1314.726,444.466 C1314.166,444.592 1313.942,444.872 1313.942,445.348 C1313.942,445.838 1314.32,446.104 1314.866,446.104 L1317.19,446.104 Z M1315.804,440.77 C1314.838,440.77 1314.096,441.358 1314.096,442.226 C1314.096,443.094 1314.838,443.682 1315.804,443.682 C1316.77,443.682 1317.512,443.094 1317.512,442.226 C1317.512,441.358 1316.77,440.77 1315.804,440.77 Z M1315.972,449.072 C1317.456,449.072 1318.268,448.512 1318.268,447.896 C1318.268,447.392 1317.932,447.07 1316.882,447.07 L1315.006,447.07 C1314.124,447.07 1313.662,447.406 1313.662,447.938 C1313.662,448.624 1314.432,449.072 1315.972,449.072 Z M1320.718,436.486 L1320.074,437.13 C1321.922,438.824 1322.566,440.504 1322.566,443.066 C1322.566,445.628 1321.922,447.308 1320.074,449.002 L1320.718,449.646 C1322.692,447.938 1323.714,445.698 1323.714,443.066 C1323.714,440.434 1322.692,438.194 1320.718,436.486 Z" id="Kinect-V2-(With-Skel" fill="#747279"></path>
            <path d="M1158.76,134.5 L1158.76,130.06 L1164.72,130.06 L1164.72,128.56 L1158.76,128.56 L1158.76,124.3 L1166.42,124.3 L1166.42,122.8 L1157.16,122.8 L1157.16,136 L1166.72,136 L1166.72,134.5 L1158.76,134.5 Z M1177.76,136 L1174.08,130.9 L1177.7,126 L1175.82,126 L1173.22,129.7 L1170.58,126 L1168.58,126 L1172.18,130.96 L1168.34,136 L1170.2,136 L1173.04,132.14 L1175.8,136 L1177.76,136 Z M1185.84,133.96 C1185.38,134.42 1184.86,134.7 1184.14,134.7 C1183.26,134.7 1182.64,134.22 1182.64,133.24 L1182.64,127.38 L1186.34,127.38 L1186.34,126 L1182.64,126 L1182.64,123.16 L1181.04,123.6 L1181.04,126 L1179.04,126 L1179.04,127.38 L1181.04,127.38 L1181.04,133.52 C1181.06,135.46 1182.34,136.2 1183.82,136.2 C1184.92,136.2 1185.78,135.86 1186.4,135.3 L1185.84,133.96 Z M1197.24,130.48 C1197.24,130.94 1197.2,131.32 1197.16,131.6 L1189.62,131.6 C1189.82,133.62 1191.04,134.8 1192.88,134.8 C1194.34,134.8 1195.34,134.28 1195.7,133.32 L1197.04,134.02 C1196.28,135.38 1195.04,136.2 1192.88,136.2 C1189.86,136.2 1188.04,134.24 1188.04,131 C1188.04,127.76 1189.74,125.8 1192.76,125.8 C1195.66,125.8 1197.24,127.9 1197.24,130.48 Z M1192.76,127.2 C1190.98,127.2 1189.88,128.3 1189.64,130.18 L1195.7,130.18 C1195.48,128.34 1194.46,127.2 1192.76,127.2 Z M1205,125.8 C1203.44,125.8 1202.36,126.42 1201.8,127.64 L1201.58,126 L1200.28,126 L1200.28,136 L1201.88,136 L1201.88,130.6 C1201.88,128.36 1203.32,127.3 1204.52,127.3 C1205.04,127.3 1205.48,127.4 1205.78,127.56 L1206.1,126 C1205.8,125.84 1205.34,125.8 1205,125.8 Z M1213.3,125.8 C1211.92,125.8 1210.64,126.3 1209.94,127.56 L1209.84,126 L1208.44,126 L1208.44,136 L1210.04,136 L1210.04,130.68 C1210.04,128.12 1211.68,127.2 1213.14,127.2 C1214.52,127.2 1215.6,127.94 1215.6,130.16 L1215.6,136 L1217.2,136 L1217.2,129.6 C1217.2,127.02 1215.44,125.8 1213.3,125.8 Z M1229.02,134.84 C1229.28,134.84 1229.58,134.8 1229.82,134.74 L1229.72,136 C1229.44,136.1 1229.02,136.2 1228.52,136.2 C1227.54,136.2 1226.9,135.84 1226.72,134.72 C1226.08,135.66 1224.78,136.2 1223.5,136.2 C1221.62,136.2 1220.1,135.32 1220.1,133.52 C1220.1,132.02 1221.42,130.84 1224,130.4 L1226.66,129.96 L1226.66,129.4 C1226.66,128.08 1225.82,127.2 1224.32,127.2 C1223,127.2 1222,127.84 1221.46,129.1 L1220.28,128.24 C1220.8,126.76 1222.38,125.8 1224.32,125.8 C1226.6,125.8 1228.26,126.88 1228.26,129.2 L1228.26,134.12 C1228.26,134.6 1228.46,134.84 1229.02,134.84 Z M1223.58,134.8 C1225.18,134.8 1226.66,133.96 1226.66,132.64 L1226.66,131.26 L1224.42,131.68 C1222.66,132 1221.76,132.58 1221.76,133.52 C1221.76,134.36 1222.44,134.8 1223.58,134.8 Z M1233.66,121.4 L1232.06,121.4 L1232.06,133.52 C1232.06,135.34 1232.84,136.2 1234.46,136.2 C1234.98,136.2 1235.52,136.1 1235.94,135.92 L1236.2,134.38 C1235.62,134.6 1235.28,134.66 1234.74,134.66 C1233.92,134.66 1233.66,134.34 1233.66,133.32 L1233.66,121.4 Z M1250.04,122.8 C1252.7,122.8 1254.48,124.34 1254.48,126.82 C1254.48,129.3 1252.7,130.84 1250.04,130.84 L1246.98,130.84 L1246.98,136 L1245.38,136 L1245.38,122.8 L1250.04,122.8 Z M1249.8,129.34 C1251.88,129.34 1252.8,128.46 1252.8,126.82 C1252.8,125.18 1251.88,124.3 1249.8,124.3 L1246.98,124.3 L1246.98,129.34 L1249.8,129.34 Z M1262,125.8 C1260.44,125.8 1259.36,126.42 1258.8,127.64 L1258.58,126 L1257.28,126 L1257.28,136 L1258.88,136 L1258.88,130.6 C1258.88,128.36 1260.32,127.3 1261.52,127.3 C1262.04,127.3 1262.48,127.4 1262.78,127.56 L1263.1,126 C1262.8,125.84 1262.34,125.8 1262,125.8 Z M1269.66,125.8 C1272.68,125.8 1274.5,127.76 1274.5,131 C1274.5,134.24 1272.68,136.2 1269.66,136.2 C1266.64,136.2 1264.82,134.24 1264.82,131 C1264.82,127.76 1266.64,125.8 1269.66,125.8 Z M1269.66,127.18 C1267.64,127.18 1266.42,128.62 1266.42,131 C1266.42,133.38 1267.64,134.82 1269.66,134.82 C1271.68,134.82 1272.9,133.38 1272.9,131 C1272.9,128.62 1271.68,127.18 1269.66,127.18 Z M1278.4,121.68 C1277.74,121.68 1277.2,122.22 1277.2,122.88 C1277.2,123.54 1277.74,124.08 1278.4,124.08 C1279.06,124.08 1279.6,123.54 1279.6,122.88 C1279.6,122.22 1279.06,121.68 1278.4,121.68 Z M1279.2,126 L1279.2,137.02 C1279.2,139.52 1277.52,140.3 1276.16,140.3 C1275.34,140.3 1274.62,140.02 1274.16,139.64 L1274.5,138.12 C1274.88,138.46 1275.44,138.74 1276.14,138.74 C1277,138.74 1277.6,138.26 1277.6,136.86 L1277.6,126 L1279.2,126 Z M1291.5,130.48 C1291.5,130.94 1291.46,131.32 1291.42,131.6 L1283.88,131.6 C1284.08,133.62 1285.3,134.8 1287.14,134.8 C1288.6,134.8 1289.6,134.28 1289.96,133.32 L1291.3,134.02 C1290.54,135.38 1289.3,136.2 1287.14,136.2 C1284.12,136.2 1282.3,134.24 1282.3,131 C1282.3,127.76 1284,125.8 1287.02,125.8 C1289.92,125.8 1291.5,127.9 1291.5,130.48 Z M1287.02,127.2 C1285.24,127.2 1284.14,128.3 1283.9,130.18 L1289.96,130.18 C1289.74,128.34 1288.72,127.2 1287.02,127.2 Z M1298.76,125.8 C1295.74,125.8 1293.92,127.76 1293.92,131 C1293.92,134.24 1295.74,136.2 1298.76,136.2 C1300.88,136.2 1302.32,135.1 1303,133.26 L1301.52,132.74 C1301.22,134.06 1300.28,134.8 1298.72,134.8 C1296.72,134.8 1295.52,133.38 1295.52,131 C1295.52,128.62 1296.72,127.2 1298.72,127.2 C1300.1,127.2 1300.96,127.9 1301.38,129.18 L1302.9,128.46 C1302.16,126.82 1300.82,125.8 1298.76,125.8 Z M1311.38,133.96 C1310.92,134.42 1310.4,134.7 1309.68,134.7 C1308.8,134.7 1308.18,134.22 1308.18,133.24 L1308.18,127.38 L1311.88,127.38 L1311.88,126 L1308.18,126 L1308.18,123.16 L1306.58,123.6 L1306.58,126 L1304.58,126 L1304.58,127.38 L1306.58,127.38 L1306.58,133.52 C1306.6,135.46 1307.88,136.2 1309.36,136.2 C1310.46,136.2 1311.32,135.86 1311.94,135.3 L1311.38,133.96 Z M1318.42,125.8 C1321.44,125.8 1323.26,127.76 1323.26,131 C1323.26,134.24 1321.44,136.2 1318.42,136.2 C1315.4,136.2 1313.58,134.24 1313.58,131 C1313.58,127.76 1315.4,125.8 1318.42,125.8 Z M1318.42,127.18 C1316.4,127.18 1315.18,128.62 1315.18,131 C1315.18,133.38 1316.4,134.82 1318.42,134.82 C1320.44,134.82 1321.66,133.38 1321.66,131 C1321.66,128.62 1320.44,127.18 1318.42,127.18 Z M1331.08,125.8 C1329.52,125.8 1328.44,126.42 1327.88,127.64 L1327.66,126 L1326.36,126 L1326.36,136 L1327.96,136 L1327.96,130.6 C1327.96,128.36 1329.4,127.3 1330.6,127.3 C1331.12,127.3 1331.56,127.4 1331.86,127.56 L1332.18,126 C1331.88,125.84 1331.42,125.8 1331.08,125.8 Z M1347.66,121.4 L1346.16,121.4 L1340.04,137.4 L1341.54,137.4 L1347.66,121.4 Z M1369.98,122.8 L1367.52,122.8 L1364.64,130.84 L1363.62,134.12 L1363.58,134.12 L1362.58,130.82 L1359.68,122.8 L1357.22,122.8 L1357.22,136 L1358.74,136 L1358.74,127.7 L1358.56,124.22 L1358.58,124.22 L1362.92,136 L1364.28,136 L1368.62,124.22 L1368.64,124.22 L1368.46,127.7 L1368.46,136 L1369.98,136 L1369.98,122.8 Z M1378.22,125.8 C1381.24,125.8 1383.06,127.76 1383.06,131 C1383.06,134.24 1381.24,136.2 1378.22,136.2 C1375.2,136.2 1373.38,134.24 1373.38,131 C1373.38,127.76 1375.2,125.8 1378.22,125.8 Z M1378.22,127.18 C1376.2,127.18 1374.98,128.62 1374.98,131 C1374.98,133.38 1376.2,134.82 1378.22,134.82 C1380.24,134.82 1381.46,133.38 1381.46,131 C1381.46,128.62 1380.24,127.18 1378.22,127.18 Z M1391.02,125.8 C1389.64,125.8 1388.36,126.3 1387.66,127.56 L1387.56,126 L1386.16,126 L1386.16,136 L1387.76,136 L1387.76,130.68 C1387.76,128.12 1389.4,127.2 1390.86,127.2 C1392.24,127.2 1393.32,127.94 1393.32,130.16 L1393.32,136 L1394.92,136 L1394.92,129.6 C1394.92,127.02 1393.16,125.8 1391.02,125.8 Z M1399.34,124.08 C1400.06,124.08 1400.54,123.6 1400.54,122.88 C1400.54,122.16 1400.06,121.68 1399.34,121.68 C1398.62,121.68 1398.14,122.16 1398.14,122.88 C1398.14,123.6 1398.62,124.08 1399.34,124.08 Z M1400.14,126 L1398.54,126 L1398.54,136 L1400.14,136 L1400.14,126 Z M1409.42,133.96 C1408.96,134.42 1408.44,134.7 1407.72,134.7 C1406.84,134.7 1406.22,134.22 1406.22,133.24 L1406.22,127.38 L1409.92,127.38 L1409.92,126 L1406.22,126 L1406.22,123.16 L1404.62,123.6 L1404.62,126 L1402.62,126 L1402.62,127.38 L1404.62,127.38 L1404.62,133.52 C1404.64,135.46 1405.92,136.2 1407.4,136.2 C1408.5,136.2 1409.36,135.86 1409.98,135.3 L1409.42,133.96 Z M1416.46,125.8 C1419.48,125.8 1421.3,127.76 1421.3,131 C1421.3,134.24 1419.48,136.2 1416.46,136.2 C1413.44,136.2 1411.62,134.24 1411.62,131 C1411.62,127.76 1413.44,125.8 1416.46,125.8 Z M1416.46,127.18 C1414.44,127.18 1413.22,128.62 1413.22,131 C1413.22,133.38 1414.44,134.82 1416.46,134.82 C1418.48,134.82 1419.7,133.38 1419.7,131 C1419.7,128.62 1418.48,127.18 1416.46,127.18 Z M1429.12,125.8 C1427.56,125.8 1426.48,126.42 1425.92,127.64 L1425.7,126 L1424.4,126 L1424.4,136 L1426,136 L1426,130.6 C1426,128.36 1427.44,127.3 1428.64,127.3 C1429.16,127.3 1429.6,127.4 1429.9,127.56 L1430.22,126 C1429.92,125.84 1429.46,125.8 1429.12,125.8 Z M1158.85,149.486 C1156.876,151.194 1155.854,153.434 1155.854,156.066 C1155.854,158.698 1156.876,160.938 1158.85,162.646 L1159.494,162.002 C1157.646,160.308 1157.002,158.628 1157.002,156.066 C1157.002,153.504 1157.646,151.824 1159.494,150.13 L1158.85,149.486 Z M1165.136,150.62 C1167.768,150.62 1169.42,152.454 1169.42,155.38 C1169.42,158.306 1167.768,160.14 1165.136,160.14 C1162.504,160.14 1160.852,158.306 1160.852,155.38 C1160.852,152.454 1162.504,150.62 1165.136,150.62 Z M1165.136,151.67 C1163.218,151.67 1162.028,153.056 1162.028,155.38 C1162.028,157.704 1163.218,159.09 1165.136,159.09 C1167.054,159.09 1168.244,157.704 1168.244,155.38 C1168.244,153.056 1167.054,151.67 1165.136,151.67 Z M1175.118,152.86 C1177.064,152.86 1178.31,154.218 1178.31,156.5 C1178.31,158.782 1177.064,160.14 1175.118,160.14 C1174.068,160.14 1173.228,159.636 1172.794,158.908 L1172.794,162.94 L1171.674,162.94 L1171.674,153 L1172.654,153 L1172.724,154.218 C1173.13,153.42 1174.012,152.86 1175.118,152.86 Z M1174.992,159.16 C1176.364,159.16 1177.19,158.124 1177.19,156.5 C1177.19,154.876 1176.364,153.84 1174.992,153.84 C1173.662,153.84 1172.794,154.834 1172.794,156.416 L1172.794,156.584 C1172.794,158.166 1173.662,159.16 1174.992,159.16 Z M1184.386,158.572 C1184.064,158.894 1183.7,159.09 1183.196,159.09 C1182.58,159.09 1182.146,158.754 1182.146,158.068 L1182.146,153.966 L1184.736,153.966 L1184.736,153 L1182.146,153 L1182.146,151.012 L1181.026,151.32 L1181.026,153 L1179.626,153 L1179.626,153.966 L1181.026,153.966 L1181.026,158.264 C1181.04,159.622 1181.936,160.14 1182.972,160.14 C1183.742,160.14 1184.344,159.902 1184.778,159.51 L1184.386,158.572 Z M1186.92,151.656 C1187.424,151.656 1187.76,151.32 1187.76,150.816 C1187.76,150.312 1187.424,149.976 1186.92,149.976 C1186.416,149.976 1186.08,150.312 1186.08,150.816 C1186.08,151.32 1186.416,151.656 1186.92,151.656 Z M1187.48,153 L1186.36,153 L1186.36,160 L1187.48,160 L1187.48,153 Z M1193.038,152.86 C1195.152,152.86 1196.426,154.232 1196.426,156.5 C1196.426,158.768 1195.152,160.14 1193.038,160.14 C1190.924,160.14 1189.65,158.768 1189.65,156.5 C1189.65,154.232 1190.924,152.86 1193.038,152.86 Z M1193.038,153.826 C1191.624,153.826 1190.77,154.834 1190.77,156.5 C1190.77,158.166 1191.624,159.174 1193.038,159.174 C1194.452,159.174 1195.306,158.166 1195.306,156.5 C1195.306,154.834 1194.452,153.826 1193.038,153.826 Z M1201.998,152.86 C1201.032,152.86 1200.136,153.21 1199.646,154.092 L1199.576,153 L1198.596,153 L1198.596,160 L1199.716,160 L1199.716,156.276 C1199.716,154.484 1200.864,153.84 1201.886,153.84 C1202.852,153.84 1203.608,154.358 1203.608,155.912 L1203.608,160 L1204.728,160 L1204.728,155.52 C1204.728,153.714 1203.496,152.86 1201.998,152.86 Z M1213.002,159.188 C1213.184,159.188 1213.394,159.16 1213.562,159.118 L1213.492,160 C1213.296,160.07 1213.002,160.14 1212.652,160.14 C1211.966,160.14 1211.518,159.888 1211.392,159.104 C1210.944,159.762 1210.034,160.14 1209.138,160.14 C1207.822,160.14 1206.758,159.524 1206.758,158.264 C1206.758,157.214 1207.682,156.388 1209.488,156.08 L1211.35,155.772 L1211.35,155.38 C1211.35,154.456 1210.762,153.84 1209.712,153.84 C1208.788,153.84 1208.088,154.288 1207.71,155.17 L1206.884,154.568 C1207.248,153.532 1208.354,152.86 1209.712,152.86 C1211.308,152.86 1212.47,153.616 1212.47,155.24 L1212.47,158.684 C1212.47,159.02 1212.61,159.188 1213.002,159.188 Z M1209.194,159.16 C1210.314,159.16 1211.35,158.572 1211.35,157.648 L1211.35,156.682 L1209.782,156.976 C1208.55,157.2 1207.92,157.606 1207.92,158.264 C1207.92,158.852 1208.396,159.16 1209.194,159.16 Z M1216.25,149.78 L1215.13,149.78 L1215.13,158.264 C1215.13,159.538 1215.676,160.14 1216.81,160.14 C1217.174,160.14 1217.552,160.07 1217.846,159.944 L1218.028,158.866 C1217.622,159.02 1217.384,159.062 1217.006,159.062 C1216.432,159.062 1216.25,158.838 1216.25,158.124 L1216.25,149.78 Z M1219.218,149.486 L1218.574,150.13 C1220.422,151.824 1221.066,153.504 1221.066,156.066 C1221.066,158.628 1220.422,160.308 1218.574,162.002 L1219.218,162.646 C1221.192,160.938 1222.214,158.698 1222.214,156.066 C1222.214,153.434 1221.192,151.194 1219.218,149.486 Z" id="External-Projector-/" fill="#747279"></path>
            <use id="Rectangle-35" stroke="#747279" mask="url(#mask-2)" stroke-width="2" xlink:href="#path-1"></use>
            <use id="Rectangle-36" stroke="#747279" mask="url(#mask-4)" stroke-width="2" xlink:href="#path-3"></use>
            <use id="Rectangle-37" stroke="#747279" mask="url(#mask-6)" stroke-width="2" xlink:href="#path-5"></use>
            <use id="Rectangle-37-Copy-2" stroke="#747279" mask="url(#mask-8)" stroke-width="2" xlink:href="#path-7"></use>
            <ellipse id="Oval-16" stroke="#747279" cx="1180.5" cy="339.5" rx="9.5" ry="9.5"></ellipse>
            <circle id="Oval-16-Copy-2" stroke="#747279" cx="1371" cy="340" r="5"></circle>
            <use id="Rectangle-38" stroke="#747279" mask="url(#mask-10)" stroke-width="2" xlink:href="#path-9"></use>
            <use id="Rectangle-39" stroke="#747279" mask="url(#mask-12)" stroke-width="2" xlink:href="#path-11"></use>
            <use id="Rectangle-39-Copy" stroke="#747279" mask="url(#mask-14)" stroke-width="2" xlink:href="#path-13"></use>
            <use id="Rectangle-39-Copy-7" stroke="#747279" mask="url(#mask-16)" stroke-width="2" xlink:href="#path-15"></use>
            <use id="Rectangle-39-Copy-13" stroke="#747279" mask="url(#mask-18)" stroke-width="2" xlink:href="#path-17"></use>
            <use id="Rectangle-39-Copy-3" stroke="#747279" mask="url(#mask-20)" stroke-width="2" xlink:href="#path-19"></use>
            <use id="Rectangle-39-Copy-8" stroke="#747279" mask="url(#mask-22)" stroke-width="2" xlink:href="#path-21"></use>
            <use id="Rectangle-39-Copy-14" stroke="#747279" mask="url(#mask-24)" stroke-width="2" xlink:href="#path-23"></use>
            <use id="Rectangle-39-Copy-5" stroke="#747279" mask="url(#mask-26)" stroke-width="2" xlink:href="#path-25"></use>
            <use id="Rectangle-39-Copy-9" stroke="#747279" mask="url(#mask-28)" stroke-width="2" xlink:href="#path-27"></use>
            <use id="Rectangle-39-Copy-15" stroke="#747279" mask="url(#mask-30)" stroke-width="2" xlink:href="#path-29"></use>
            <use id="Rectangle-39" stroke="#747279" mask="url(#mask-32)" stroke-width="2" xlink:href="#path-31"></use>
            <use id="Rectangle-39-Copy-2" stroke="#747279" mask="url(#mask-34)" stroke-width="2" xlink:href="#path-33"></use>
            <use id="Rectangle-39-Copy-10" stroke="#747279" mask="url(#mask-36)" stroke-width="2" xlink:href="#path-35"></use>
            <use id="Rectangle-39-Copy-16" stroke="#747279" mask="url(#mask-38)" stroke-width="2" xlink:href="#path-37"></use>
            <use id="Rectangle-39-Copy-4" stroke="#747279" mask="url(#mask-40)" stroke-width="2" xlink:href="#path-39"></use>
            <use id="Rectangle-39-Copy-11" stroke="#747279" mask="url(#mask-42)" stroke-width="2" xlink:href="#path-41"></use>
            <use id="Rectangle-39-Copy-17" stroke="#747279" mask="url(#mask-44)" stroke-width="2" xlink:href="#path-43"></use>
            <use id="Rectangle-39-Copy-6" stroke="#747279" mask="url(#mask-46)" stroke-width="2" xlink:href="#path-45"></use>
            <use id="Rectangle-39-Copy-12" stroke="#747279" mask="url(#mask-48)" stroke-width="2" xlink:href="#path-47"></use>
            <use id="Rectangle-39-Copy-18" stroke="#747279" mask="url(#mask-50)" stroke-width="2" xlink:href="#path-49"></use>
            <polyline id="Path-19" stroke="#747279" points="4 468 4 498 233 498 233 468"></polyline>
            <polyline id="Path-19-Copy" stroke="#747279" points="233 468 233 498 598 498 598 468"></polyline>
            <polyline id="Path-19-Copy-2" stroke="#747279" points="855 468 855 498 1155 498 1155 468"></polyline>
            <polygon id="Star" stroke="#747279" points="99.8959951 286.876318 95.6340357 289.116962 96.4479975 284.371201 93 281.010234 97.7650154 280.317836 99.8959951 276 102.026975 280.317836 106.79199 281.010234 103.343993 284.371201 104.157954 289.116962"></polygon>
            <polyline id="Path-2" stroke="#747279" points="1063 498 1063 126 1135 126"></polyline>
            <use id="Rectangle-2" stroke="#747279" mask="url(#mask-52)" stroke-width="2" xlink:href="#path-51"></use>
            <g id="Group" transform="translate(1155.000000, 189.000000)" stroke="#747279">
                <use id="Rectangle-37-Copy" mask="url(#mask-54)" stroke-width="2" xlink:href="#path-53"></use>
                <ellipse id="Oval-16-Copy" cx="133.5" cy="14.5" rx="5.5" ry="5.5"></ellipse>
                <use id="Rectangle-3" mask="url(#mask-56)" stroke-width="2" xlink:href="#path-55"></use>
                <use id="Rectangle-3-Copy" mask="url(#mask-58)" stroke-width="2" xlink:href="#path-57"></use>
            </g>
        </g>
    </g>
</svg>