<?xml version="1.0" encoding="utf-8"?>
<!-- Generator: Adobe Illustrator 19.0.1, SVG Export Plug-In . SVG Version: 6.00 Build 0)  -->
<svg version="1.1" xmlns="http://www.w3.org/2000/svg" xmlns:xlink="http://www.w3.org/1999/xlink" x="0px" y="0px"
	 viewBox="0 0 1456.8 965.7" style="enable-background:new 0 0 1456.8 965.7;" xml:space="preserve">
<style type="text/css">
	.st0{display:none;}
	.st1{display:inline;}
	.st2{fill:none;stroke:#000000;stroke-miterlimit:10;}
	.st3{display:inline;fill:none;stroke:#000000;stroke-miterlimit:10;}
	.st4{fill:#FFFFFF;}
</style>
<g id="Layer_1" class="st0">
</g>
<g id="Layer_2" class="st0">
	<g class="st1">
		<rect x="58.1" y="-1.5" class="st2" width="68" height="180"/>
	</g>
	<g class="st1">
		<g>
			<rect x="411.4" y="-1.5" class="st2" width="78" height="180"/>
		</g>
	</g>
	<g class="st1">
		<line class="st2" x1="126.1" y1="178.5" x2="204.1" y2="178.5"/>
	</g>
	<g class="st1">
		<g>
			<rect x="846.2" y="-1.5" class="st2" width="78" height="180"/>
		</g>
	</g>
	<g class="st1">
		<g>
			<rect x="810.6" y="230" class="st2" width="78" height="180"/>
		</g>
	</g>
	<g class="st1">
		<g>
			<line class="st2" x1="1287.6" y1="924.3" x2="1212.1" y2="924.3"/>
		</g>
	</g>
	<g class="st1">
		<polyline class="st2" points="204.1,178.5 282,178.5 282,-1.5 204.1,-1.5 		"/>
	</g>
	<g class="st1">
		<line class="st2" x1="1208.7" y1="461.4" x2="1130.8" y2="461.4"/>
		<line class="st2" x1="1130.8" y1="641.4" x2="1208.7" y2="641.4"/>
	</g>
	<g class="st1">
		<polyline class="st2" points="1208.7,641.4 1286.7,641.4 1286.7,461.4 1208.7,461.4 		"/>
	</g>
	<g class="st1">
		<g>
			<line class="st2" x1="1134.2" y1="924.3" x2="1021.3" y2="924.3"/>
		</g>
	</g>
	<g class="st1">
		<g>
			<line class="st2" x1="114.5" y1="692.8" x2="61.4" y2="692.8"/>
			<line class="st2" x1="61.4" y1="872.8" x2="114.5" y2="872.8"/>
		</g>
	</g>
	<g class="st1">
		<g>
			<rect x="114.5" y="692.8" class="st2" width="78" height="180"/>
		</g>
	</g>
	<g class="st1">
		<g>
			<polyline class="st2" points="508.6,1104.3 586.6,1104.3 586.6,924.3 508.6,924.3 			"/>
		</g>
	</g>
	<g class="st1">
		<rect x="333.5" y="-1.5" class="st2" width="78" height="180"/>
	</g>
	<g class="st1">
		<g>
			<polyline class="st2" points="627.2,-1.5 567.4,-1.5 567.4,178.5 627.2,178.5 			"/>
		</g>
	</g>
	<g class="st1">
		<g>
			<polyline class="st2" points="438.1,924.3 378.3,924.3 378.3,1104.3 438.1,1104.3 			"/>
		</g>
	</g>
	<g class="st1">
		<g>
			<polyline class="st2" points="891.9,924.3 832.1,924.3 832.1,1104.3 891.9,1104.3 			"/>
		</g>
	</g>
	<g class="st1">
		<g>
			<polyline class="st2" points="1130.8,461.4 1070.9,461.4 1070.9,641.4 1130.8,641.4 			"/>
		</g>
	</g>
	<g class="st1">
		<g>
			<line class="st2" x1="489.4" y1="178.5" x2="567.4" y2="178.5"/>
		</g>
	</g>
	<g class="st1">
		<g>
			<g>
				<rect x="678.7" y="-1.5" class="st2" width="38.2" height="180"/>
			</g>
		</g>
		<g>
			<g>
				<line class="st2" x1="716.8" y1="178.5" x2="794.8" y2="178.5"/>
			</g>
		</g>
	</g>
	<g class="st1">
		<rect x="1365.6" y="924.3" class="st2" width="38.2" height="180"/>
	</g>
	<g class="st1">
		<g>
			<rect x="-7.5" y="-1.5" class="st2" width="65.5" height="180"/>
		</g>
	</g>
	<g class="st1">
		<g>
			<line class="st2" x1="1469.3" y1="924.3" x2="1403.8" y2="924.3"/>
		</g>
	</g>
	<g class="st1">
		<polyline class="st2" points="1062,-1.5 1002.2,-1.5 1002.2,178.5 1062,178.5 		"/>
	</g>
	<g class="st1">
		<polyline class="st2" points="1002.2,-1.5 924.2,-1.5 924.2,178.5 1002.2,178.5 		"/>
	</g>
	<g class="st1">
		<polyline class="st2" points="252.3,692.8 192.5,692.8 192.5,872.8 252.3,872.8 		"/>
	</g>
	<g class="st1">
		<g>
			<rect x="58.1" y="924.3" class="st2" width="78" height="180"/>
		</g>
	</g>
	<g class="st1">
		<polyline class="st2" points="214,924.3 136,924.3 136,1104.3 214,1104.3 		"/>
	</g>
	<g class="st1">
		<g>
			<polyline class="st2" points="969.9,924.3 891.9,924.3 891.9,1104.3 969.9,1104.3 			"/>
		</g>
	</g>
	<g class="st1">
		<rect x="1269.4" y="-1.5" class="st2" width="78" height="180"/>
	</g>
	<g class="st1">
		<rect x="1113.4" y="-1.5" class="st2" width="78" height="180"/>
	</g>
	<g class="st1">
		<polyline class="st2" points="1191.4,178.5 1269.4,178.5 1269.4,-1.5 1191.4,-1.5 		"/>
	</g>
	<g class="st1">
		<rect x="1347.3" y="-1.5" class="st2" width="78" height="180"/>
	</g>
	<g class="st1">
		<polyline class="st2" points="1425.3,178.5 1463.5,178.5 1463.5,-1.5 1425.3,-1.5 		"/>
	</g>
	<g class="st1">
		<g>
			<polyline class="st2" points="1095.9,410 1134.1,410 1134.1,230 1095.9,230 			"/>
		</g>
	</g>
	<g class="st1">
		<g>
			<rect x="940" y="230" class="st2" width="78" height="180"/>
		</g>
	</g>
	<g class="st1">
		<g>
			<line class="st2" x1="1017.9" y1="410" x2="1095.9" y2="410"/>
			<line class="st2" x1="1095.9" y1="230" x2="1017.9" y2="230"/>
		</g>
	</g>
	<rect x="282" y="-1.5" class="st3" width="51.4" height="180"/>
	<g class="st1">
		<line class="st2" x1="451.4" y1="410" x2="526.8" y2="410"/>
	</g>
	<g class="st1">
		<g>
			<polyline class="st2" points="156,230 96.2,230 96.2,410 156,410 			"/>
		</g>
	</g>
	<g class="st1">
		<g>
			<rect x="207.5" y="230" class="st2" width="38.2" height="180"/>
		</g>
	</g>
	<g class="st1">
		<g>
			<rect x="772.4" y="230" class="st2" width="38.2" height="180"/>
		</g>
	</g>
	<g class="st1">
		<g>
			<rect x="58.1" y="230" class="st2" width="38.2" height="180"/>
		</g>
	</g>
	<g class="st1">
		<g>
			<line class="st2" x1="245.6" y1="410" x2="323.6" y2="410"/>
			<line class="st2" x1="323.6" y1="230" x2="245.6" y2="230"/>
		</g>
	</g>
	<g class="st1">
		<g>
			<rect x="643" y="230" class="st2" width="78" height="180"/>
		</g>
	</g>
	<g class="st1">
		<g>
			<rect x="413.2" y="230" class="st2" width="38.2" height="180"/>
		</g>
	</g>
	<g class="st1">
		<g>
			<rect x="526.8" y="230" class="st2" width="38.2" height="180"/>
		</g>
	</g>
	<g class="st1">
		<g>
			<rect x="375" y="230" class="st2" width="38.2" height="180"/>
		</g>
	</g>
	<g class="st1">
		<g>
			<rect x="565" y="230" class="st2" width="78" height="180"/>
		</g>
	</g>
	<g class="st1">
		<g>
			<g>
				<rect x="702.7" y="924.3" class="st2" width="78" height="180"/>
			</g>
		</g>
		<g>
			<g>
				<rect x="586.6" y="924.3" class="st2" width="38.2" height="180"/>
			</g>
		</g>
		<g>
			<g>
				<rect x="624.7" y="924.3" class="st2" width="78" height="180"/>
			</g>
		</g>
	</g>
	<g class="st1">
		<g>
			<polyline class="st2" points="451.4,230 526.8,230 526.8,410 			"/>
		</g>
	</g>
	<rect x="156" y="230" class="st3" width="51.4" height="180"/>
	<rect x="323.6" y="230" class="st3" width="51.4" height="180"/>
	<rect x="58.1" y="410" class="st3" width="180" height="51.4"/>
	<rect x="58.1" y="641.4" class="st3" width="180" height="51.4"/>
	<rect x="58.1" y="872.8" class="st3" width="180" height="51.4"/>
	<rect x="58.1" y="178.5" class="st3" width="180" height="51.4"/>
	<rect x="721" y="230" class="st3" width="51.4" height="180"/>
	<g class="st1">
		<g>
			<g>
				<rect x="941.5" y="461.4" class="st2" width="78" height="180"/>
			</g>
		</g>
		<g>
			<g>
				<rect x="903.4" y="461.4" class="st2" width="38.2" height="180"/>
			</g>
		</g>
		<rect x="851.9" y="461.4" class="st2" width="51.4" height="180"/>
	</g>
	<rect x="888.5" y="230" class="st3" width="51.4" height="180"/>
	<rect x="627.2" y="-1.5" class="st3" width="51.4" height="180"/>
	<rect x="794.8" y="-1.5" class="st3" width="51.4" height="180"/>
	<rect x="1062" y="-1.5" class="st3" width="51.4" height="180"/>
	<rect x="1134.1" y="230" class="st3" width="51.4" height="180"/>
	<rect x="1019.5" y="461.4" class="st3" width="51.4" height="180"/>
	<g class="st1">
		<g>
			<rect x="1185.5" y="230" class="st2" width="78" height="180"/>
		</g>
	</g>
	<g class="st1">
		<g>
			<rect x="1263.5" y="230" class="st2" width="78" height="180"/>
		</g>
	</g>
	<g class="st1">
		<rect x="1341.5" y="230" class="st2" width="78" height="180"/>
	</g>
	<rect x="285.4" y="461.4" class="st3" width="51.4" height="180"/>
	<rect x="492.8" y="461.4" class="st3" width="51.4" height="180"/>
	<rect x="326.8" y="924.3" class="st3" width="51.4" height="180"/>
	<rect x="780.7" y="924.3" class="st3" width="51.4" height="180"/>
	<rect x="969.9" y="924.3" class="st3" width="51.4" height="180"/>
	<g class="st1">
		<g>
			<rect x="209" y="461.4" class="st2" width="38.2" height="180"/>
		</g>
	</g>
	<g class="st1">
		<g>
			<rect x="247.2" y="461.4" class="st2" width="38.2" height="180"/>
		</g>
	</g>
	<g class="st1">
		<polyline class="st2" points="170.9,461.4 58.1,461.4 58.1,641.4 170.9,641.4 		"/>
	</g>
	<g class="st1">
		<g>
			<rect x="170.9" y="461.4" class="st2" width="38.2" height="180"/>
		</g>
	</g>
	<g class="st1">
		<polyline class="st2" points="326.8,924.3 214,924.3 214,1104.3 326.8,1104.3 		"/>
	</g>
	<g class="st1">
		<polyline class="st2" points="336.8,641.4 414.8,641.4 414.8,461.4 336.8,461.4 		"/>
	</g>
	<g class="st1">
		<polyline class="st2" points="414.8,641.4 492.8,641.4 492.8,461.4 414.8,461.4 		"/>
	</g>
	<g class="st1">
		<g>
			<rect x="660.3" y="461.4" class="st2" width="38.2" height="180"/>
		</g>
	</g>
	<g class="st1">
		<line class="st2" x1="698.5" y1="641.4" x2="774" y2="641.4"/>
	</g>
	<g class="st1">
		<g>
			<polyline class="st2" points="698.5,461.4 774,461.4 774,641.4 			"/>
		</g>
	</g>
	<g class="st1">
		<rect x="544.2" y="461.4" class="st2" width="78" height="180"/>
	</g>
	<g class="st1">
		<rect x="622.2" y="461.4" class="st2" width="38.2" height="180"/>
	</g>
	<g class="st1">
		<g>
			<rect x="1134.2" y="924.3" class="st2" width="78" height="180"/>
		</g>
	</g>
	<g class="st1">
		<polyline class="st2" points="774,641.4 851.9,641.4 851.9,461.4 774,461.4 		"/>
	</g>
	<g class="st1">
		<g>
			<rect x="438.1" y="924.3" class="st2" width="70.5" height="180"/>
		</g>
	</g>
	<g class="st1">
		<g>
			<polyline class="st2" points="1287.6,1104.3 1365.6,1104.3 1365.6,924.3 1287.6,924.3 			"/>
		</g>
	</g>
	<g class="st1">
		<g>
			<polyline class="st2" points="1079.3,872.8 1157.3,872.8 1157.3,692.8 1079.3,692.8 			"/>
		</g>
		<g>
			<g>
				<rect x="252.3" y="692.8" class="st2" width="78" height="180"/>
			</g>
		</g>
		<rect x="478.7" y="692.8" class="st2" width="51.4" height="180"/>
		<rect x="915.1" y="692.8" class="st2" width="51.4" height="180"/>
		<rect x="1157.3" y="692.8" class="st2" width="51.4" height="180"/>
		<g>
			<g>
				<polyline class="st2" points="643,692.8 530.2,692.8 530.2,872.8 643,872.8 				"/>
			</g>
		</g>
		<g>
			<g>
				<polyline class="st2" points="1079.3,692.8 966.5,692.8 966.5,872.8 1079.3,872.8 				"/>
			</g>
		</g>
		<g>
			<g>
				<rect x="1208.7" y="692.8" class="st2" width="78" height="180"/>
			</g>
		</g>
		<g>
			<g>
				<rect x="330.2" y="692.8" class="st2" width="70.5" height="180"/>
			</g>
		</g>
		<g>
			<g>
				<polyline class="st2" points="400.8,872.8 478.7,872.8 478.7,692.8 400.8,692.8 				"/>
			</g>
		</g>
		<g>
			<g>
				<rect x="1286.7" y="692.8" class="st2" width="70.5" height="180"/>
			</g>
		</g>
		<g>
			<g>
				<polyline class="st2" points="1357.2,872.8 1435.2,872.8 1435.2,692.8 1357.2,692.8 				"/>
			</g>
		</g>
		<g>
			<g>
				<rect x="721" y="692.8" class="st2" width="38.2" height="180"/>
			</g>
			<g>
				<line class="st2" x1="721" y1="692.8" x2="643" y2="692.8"/>
				<line class="st2" x1="643" y1="872.8" x2="721" y2="872.8"/>
			</g>
		</g>
		<g>
			<g>
				<line class="st2" x1="915.1" y1="692.8" x2="837.1" y2="692.8"/>
				<line class="st2" x1="837.1" y1="872.8" x2="915.1" y2="872.8"/>
			</g>
		</g>
		<g>
			<g>
				<line class="st2" x1="837.1" y1="692.8" x2="759.1" y2="692.8"/>
				<line class="st2" x1="759.1" y1="872.8" x2="837.1" y2="872.8"/>
			</g>
		</g>
	</g>
</g>
<g id="Layer_3">
	<polygon class="st4" points="126.1,28.1 126.1,0 106.3,9.9 106.3,9.9 103.7,11.2 103.7,11.2 102,12 101.3,12.4 101.3,12.4 
		81.4,22.4 81.4,22.4 78.6,23.8 58.1,34 58.1,63.3 80.5,26.9 80.5,124.4 103.7,136 103.7,14.9 104.4,14.5 	"/>
	<g>
		<path class="st4" d="M481,53.5C481,53.5,481,53.5,481,53.5l-19.9-10l0,0l-0.7-0.4l-20.6,10.3l0,0l-19.9,10c0,0,0,0,0,0l-0.9,0.5v1
			v17.4V85l2.4-1.2c0,0,0,0,0,0l19.9-10l0,0l0.9-0.5v-1V56l16.6-8.3v26.1l-19.4,9.7l-19.4,9.7c0,0,0,0,0,0l-0.9,0.5v1v32.3v1
			l0.9,0.5l0,0l19.9,10l0,0l0.8,0.4l19.9-12.4l19.1,9.5c0,0,0,0,0,0l2.4,1.2v-2.7V54.9v-1L481,53.5z M458.7,123.7l-16.6,10.4V85.8
			l16.6-8.3V123.7z"/>
	</g>
	<g>
		<polygon class="st4" points="195.7,53.5 195.7,53.5 175.8,43.5 175.8,43.5 175,43.1 156.8,52.3 156.8,5.2 156.8,2.5 154.4,3.7 
			154.4,3.7 134.5,13.6 134.5,13.6 133.6,14.1 133.6,15.1 133.6,124.6 133.6,125.6 134.5,126.1 134.5,126.1 154.4,136.1 
			154.4,136.1 156.8,137.3 156.8,134.6 156.8,56 173.4,47.7 173.4,124.6 173.4,125.6 174.3,126.1 174.3,126.1 194.2,136.1 
			194.2,136.1 196.6,137.3 196.6,134.6 196.6,54.9 196.6,53.9 		"/>
	</g>
	<g>
		<polygon class="st4" points="915.8,53.5 915.8,53.5 895.9,43.5 895.9,43.5 895.2,43.1 876.9,52.3 876.9,47.5 876.9,44.8 874.5,46 
			874.5,46 854.6,55.9 854.6,55.9 853.7,56.4 853.7,57.4 853.7,124.6 853.7,125.6 854.6,126.1 854.6,126.1 874.5,136.1 874.5,136.1 
			876.9,137.3 876.9,134.6 876.9,56 893.5,47.7 893.5,124.6 893.5,125.6 894.4,126.1 894.4,126.1 914.3,136.1 914.3,136.1 
			916.7,137.3 916.7,134.6 916.7,54.9 916.7,53.9 		"/>
	</g>
	<g>
		<polygon class="st4" points="1282.6,843.8 1259.4,832.2 1259.4,872 1259.4,873.6 1242.8,881.9 1242.8,792.3 1219.6,804 
			1219.6,915.5 1242.8,927.1 1242.8,885.6 1259.4,877.3 1259.4,915.5 1282.6,927.1 1282.6,883.6 1264.8,874.7 1282.6,865.7 		"/>
	</g>
	<g>
		<path class="st4" d="M273.7,53.5C273.7,53.5,273.7,53.5,273.7,53.5l-19.9-10c0,0,0,0,0,0l-0.7-0.4l-20.6,10.3l0,0l-19.9,10l0,0
			l-0.9,0.5v1v62.2v1l0.9,0.5l0,0l19.9,10c0,0,0,0,0,0l0.7,0.4l20.6-10.3c0,0,0,0,0,0l19.9-10c0,0,0,0,0,0l0.9-0.5v-1V99.7v-1
			l-0.9-0.5c0,0,0,0,0,0l-19.9-10c0,0,0,0,0,0l-2.4-1.2v2.7v36.3l-16.6,8.3V90.8l19-9.5c0,0,0,0,0,0l19.9-10c0,0,0,0,0,0l0.9-0.5v-1
			V54.9v-1L273.7,53.5z M234.8,56l16.6-8.3v31.1l-16.6,8.3V56z"/>
	</g>
	<g>
		<polygon class="st4" points="1200.4,447.8 1200.4,447.8 1180.4,437.8 1180.4,437.8 1179.7,437.4 1161.5,446.6 1161.5,399.5 
			1161.5,396.8 1159.1,398 1159.1,398 1139.1,407.9 1139.1,407.9 1138.2,408.4 1138.2,409.4 1138.2,518.9 1138.2,519.9 
			1139.1,520.4 1139.1,520.4 1159.1,530.4 1159.1,530.4 1161.5,531.6 1161.5,528.9 1161.5,450.3 1178,442 1178,518.9 1178,519.9 
			1179,520.4 1179,520.4 1198.9,530.4 1198.9,530.4 1201.3,531.6 1201.3,528.9 1201.3,449.2 1201.3,448.2 		"/>
	</g>
	<g>
		<path class="st4" d="M1278.3,447.8C1278.3,447.8,1278.3,447.8,1278.3,447.8l-19.9-10c0,0,0,0,0,0l-0.7-0.4l-20.6,10.3l0,0
			l-19.9,10l0,0l-0.9,0.5v1v62.2v1l0.9,0.5l0,0l19.9,10l0,0l0.7,0.4l20.6-10.3c0,0,0,0,0,0l19.9-10l0,0l0.9-0.5v-1V494v-1l-0.9-0.5
			c0,0,0,0,0,0l-19.9-10c0,0,0,0,0,0l-2.4-1.2v2.7v36.3l-16.6,8.3v-43.6l19-9.5l0,0l19.9-10c0,0,0,0,0,0l0.9-0.5v-1v-14.9v-1
			L1278.3,447.8z M1239.4,450.3l16.6-8.3v31.1l-16.6,8.3V450.3z"/>
	</g>
	<g>
		<polygon class="st4" points="1125.8,843.3 1125.8,843.3 1105.9,833.4 1105.9,833.4 1105.1,833 1087.7,842.9 1068.5,833.4 
			1068.5,833.4 1067.7,833 1052,841.9 1052,834.6 1028.8,846.3 1028.8,852.3 1028.8,915.5 1052,927.1 1052,845.8 1066.1,837.7 
			1066.1,852.3 1066.1,914.5 1066.1,915.5 1067.1,916 1067.1,916 1087,925.9 1087,925.9 1089.4,927.1 1089.4,924.4 1089.4,854.7 
			1089.4,845.8 1103.5,837.7 1103.5,914.5 1103.5,915.5 1104.4,916 1104.4,916 1124.3,925.9 1124.3,925.9 1126.7,927.1 
			1126.7,924.4 1126.7,844.8 1126.7,843.8 		"/>
	</g>
	<g>
		<polygon class="st4" points="112.1,595.8 112.1,595.8 72.3,615.7 72.3,615.7 71.3,616.1 71.3,617.2 71.3,675.9 61.4,680.8 
			61.4,684.5 71.3,679.6 71.3,716.7 71.3,717.7 72.3,718.2 72.3,718.2 92.2,728.1 92.2,728.1 94.6,729.3 94.6,726.6 94.6,668 
			114.5,658 114.5,654.3 94.6,664.2 94.6,609.9 112.1,618.6 112.1,618.6 114.5,619.8 114.5,617.2 114.5,597.3 114.5,594.6 		"/>
	</g>
	<g>
		<polygon class="st4" points="182.6,638.1 182.6,638.1 162.7,648 162.7,648 161.8,648.5 161.8,649.5 161.8,715.8 145.2,726.1 
			145.2,639.6 145.2,636.9 142.8,638.1 142.8,638.1 122.9,648 122.9,648 121.9,648.5 121.9,649.5 121.9,719.2 121.9,720.2 
			122.9,720.7 122.9,720.7 142.8,730.6 142.8,730.6 143.6,731 144.4,730.6 144.4,730.6 144.4,730.6 163.5,718.6 182.6,728.1 
			182.6,728.1 185,729.3 185,726.6 185,639.6 185,636.9 		"/>
	</g>
	<g>
		<polygon class="st4" points="579.1,834.6 555.9,846.3 555.9,915.9 539.3,924.2 539.3,837.3 539.3,834.6 536.9,835.8 536.9,835.8 
			517,845.8 517,845.8 516.1,846.3 516.1,847.3 516.1,917 516.1,918 517,918.4 517,918.4 536.9,928.4 536.9,928.4 537.6,928.8 
			538.4,928.4 538.4,928.4 555.9,919.6 555.9,953.3 539.3,961.5 539.3,941.8 539.3,940.8 538.4,940.4 538.4,940.4 518.5,930.4 
			518.5,930.4 516.1,929.2 516.1,931.9 516.1,954.3 516.1,955.3 517,955.8 517,955.8 536.9,965.7 536.9,965.7 537.6,966.1 
			578.2,945.8 578.2,945.8 579.1,945.4 		"/>
	</g>
	<g>
		<path class="st4" d="M403.1,53.5C403.1,53.5,403.1,53.5,403.1,53.5l-7.5-3.7l0,0l-12.4-6.2c0,0,0,0,0,0l-0.7-0.4l-18.2,9.1v-7.5
			l-23.2,11.6v109.1l23.2,11.6v-39l19-9.5l19.9-10l0,0l0.9-0.5v-1V54.9v-1L403.1,53.5z M380.8,47.7v78.4l-16.6,8.3V56L380.8,47.7z"
			/>
	</g>
	<g>
		<polygon class="st4" points="627.2,39.8 607.3,49.8 607.3,12.4 584.1,24.1 584.1,61.3 567.4,69.6 567.4,96.1 584.1,67.1 
			584.1,125.6 607.3,137.3 607.3,54.6 627.2,64.9 		"/>
	</g>
	<g>
		<polygon class="st4" points="438.1,829.7 418.2,839.6 418.2,802.3 394.9,813.9 394.9,851.2 378.3,859.5 378.3,886 394.9,856.9 
			394.9,915.5 418.2,927.1 418.2,844.5 438.1,854.7 		"/>
	</g>
	<g>
		<polygon class="st4" points="891.9,829.7 872,839.6 872,802.3 848.8,813.9 848.8,851.2 832.1,859.5 832.1,886 848.8,856.9 
			848.8,915.5 872,927.1 872,844.5 891.9,854.7 		"/>
	</g>
	<g>
		<polygon class="st4" points="1130.8,434.1 1110.9,444.1 1110.9,406.7 1087.6,418.4 1087.6,455.6 1070.9,464 1070.9,490.4 
			1087.6,461.4 1087.6,519.9 1110.9,531.6 1110.9,448.9 1130.8,459.2 		"/>
	</g>
	<g>
		<polygon class="st4" points="559,53.5 559,53.5 539.1,43.5 539.1,43.5 538.4,43.1 537.6,43.5 537.6,43.5 497.8,63.4 497.8,63.4 
			496.9,63.9 496.9,107.4 499.3,106.2 499.3,106.2 536.7,87.5 536.7,126.1 520.1,134.4 520.1,107.2 520.1,104.5 517.7,105.7 
			517.7,105.7 497.8,115.7 497.8,115.7 496.9,116.1 496.9,117.2 496.9,127.1 496.9,128.1 497.8,128.6 497.8,128.6 517.7,138.5 
			517.7,138.6 518.5,138.9 519.2,138.5 519.2,138.5 536.7,129.8 536.7,129.8 543.9,126.2 559,118.6 559,118.6 559.9,118.2 
			559.9,72.2 537.6,83.3 537.6,83.3 520.1,92.1 520.1,56 536.7,47.7 536.7,72.4 536.7,75.1 539.1,73.9 539.1,73.9 559,63.9 
			559,63.9 559.9,63.4 559.9,62.4 559.9,54.9 559.9,53.9 		"/>
	</g>
	<g>
		<g>
			<polygon class="st4" points="686.1,24.1 686.1,47.7 709.3,36.1 709.3,12.4 			"/>
			<polygon class="st4" points="686.1,125.6 709.3,137.3 709.3,44.8 686.1,56.4 			"/>
		</g>
	</g>
	<g>
		<polygon class="st4" points="786.4,53.5 786.4,53.5 766.5,43.5 766.5,43.5 765.8,43.1 765,43.5 765,43.5 725.2,63.4 725.2,63.4 
			724.3,63.9 724.3,107.4 726.7,106.2 726.7,106.2 764.1,87.5 764.1,126.1 747.5,134.4 747.5,107.2 747.5,104.5 745.1,105.7 
			745.1,105.7 725.2,115.7 725.2,115.7 724.3,116.1 724.3,117.2 724.3,127.1 724.3,128.1 725.2,128.6 725.2,128.6 745.1,138.5 
			745.1,138.6 745.8,138.9 746.6,138.5 746.6,138.5 764.1,129.8 764.1,129.8 771.3,126.2 786.4,118.6 786.4,118.6 787.3,118.2 
			787.3,72.2 765,83.3 765,83.3 747.5,92.1 747.5,56 764.1,47.7 764.1,72.4 764.1,75.1 766.5,73.9 766.5,73.9 786.4,63.9 
			786.4,63.9 787.3,63.4 787.3,62.4 787.3,54.9 787.3,53.9 		"/>
	</g>
	<g>
		<polygon class="st4" points="1373.1,903.5 1373.1,927.1 1396.3,915.5 1396.3,891.9 		"/>
	</g>
	<g>
		<polygon class="st4" points="3.3,18.6 23.2,8.7 23.2,5 0,16.6 0,31.5 0,32.6 0,55.1 23.2,43.5 23.2,19.9 3.3,29.9 		"/>
		<polygon class="st4" points="30.7,18.6 50.6,8.7 50.6,5 27.4,16.6 27.4,31.5 27.4,32.6 27.4,55.1 50.6,43.5 50.6,19.9 30.7,29.9 
					"/>
	</g>
	<g>
		<polygon class="st4" points="1426.2,831.3 1406.2,841.3 1406.2,845 1429.5,833.4 1429.5,818.4 1429.5,817.4 1429.5,794.8 
			1406.2,806.4 1406.2,830.1 1426.2,820.1 		"/>
		<polygon class="st4" points="1453.5,831.3 1433.6,841.3 1433.6,845 1456.8,833.4 1456.8,818.4 1456.8,817.4 1456.8,794.8 
			1433.6,806.4 1433.6,830.1 1453.5,820.1 		"/>
	</g>
	<g>
		<polygon class="st4" points="1062,39.8 1042.1,49.8 1042.1,12.4 1018.9,24.1 1018.9,61.3 1002.2,69.6 1002.2,96.1 1018.9,67.1 
			1018.9,125.6 1042.1,137.3 1042.1,54.6 1062,64.9 		"/>
	</g>
	<g>
		<polygon class="st4" points="252.3,631.9 232.4,641.8 232.4,604.5 209.1,616.1 209.1,653.4 192.5,661.7 192.5,688.2 209.1,659.2 
			209.1,717.7 232.4,729.3 232.4,646.7 252.3,657 		"/>
	</g>
	<g>
		<path class="st4" d="M993.8,53.5L993.8,53.5l-19.9-10l0,0l-0.7-0.4l-20.6,10.3l0,0l-19.9,10c0,0,0,0,0,0l-0.9,0.5v1v62.2v1
			l0.9,0.5c0,0,0,0,0,0l19.9,10c0,0,0,0,0,0l0.7,0.4l20.6-10.3l0,0l19.9-10l0,0l0.9-0.5v-1V54.9v-1L993.8,53.5z M954.9,56l16.6-8.3
			v78.4l-16.6,8.3V56z"/>
	</g>
	<g>
		<polygon class="st4" points="127.7,843.3 127.7,843.3 107.8,833.4 107.8,833.4 107,833 88.8,842.1 88.8,837.3 88.8,834.6 
			86.4,835.8 86.4,835.8 66.5,845.8 66.5,845.8 65.5,846.3 65.5,847.3 65.5,914.5 65.5,915.5 66.5,916 66.5,916 86.4,925.9 
			86.4,925.9 88.8,927.1 88.8,924.4 88.8,845.8 105.3,837.5 105.3,914.5 105.3,915.5 106.3,916 106.3,916 126.2,925.9 126.2,925.9 
			128.6,927.1 128.6,924.4 128.6,844.8 128.6,843.8 		"/>
	</g>
	<g>
		<path class="st4" d="M205.6,843.3L205.6,843.3l-19.9-10c0,0,0,0,0,0L185,833l-20.6,10.3l0,0l-19.9,10c0,0,0,0,0,0l-0.9,0.5v1V917
			v1l0.9,0.5c0,0,0,0,0,0l19.9,10c0,0,0,0,0,0l0.7,0.4l20.6-10.3l0,0l19.9-10l0,0l0.9-0.5v-1v-62.2v-1L205.6,843.3z M166.7,845.8
			l16.6-8.3v78.4l-16.6,8.3V845.8z"/>
	</g>
	<g>
		<path class="st4" d="M961.5,843.3L961.5,843.3l-19.9-10c0,0,0,0,0,0l-0.7-0.4l-20.6,10.3l0,0l-19.9,10c0,0,0,0,0,0l-0.9,0.5v1V917
			v1l0.9,0.5c0,0,0,0,0,0l19.9,10c0,0,0,0,0,0l0.7,0.4l20.6-10.3l0,0l19.9-10l0,0l0.9-0.5v-1v-62.2v-1L961.5,843.3z M922.6,845.8
			l16.6-8.3v78.4l-16.6,8.3V845.8z"/>
	</g>
	<g>
		<path class="st4" d="M1339,53.5C1339,53.5,1339,53.5,1339,53.5l-19.9-10l0,0l-0.7-0.4l-20.6,10.3l0,0l-19.9,10l0,0l-0.9,0.5v1
			v17.4V85l2.4-1.2l0,0l19.9-10l0,0l0.9-0.5v-1V56l16.6-8.3v26.1l-19.4,9.7l-19.4,9.7c0,0,0,0,0,0l-0.9,0.5v1v32.3v1l0.9,0.5l0,0
			l19.9,10l0,0l0.8,0.4l19.9-12.4l19.1,9.5c0,0,0,0,0,0l2.4,1.2v-2.7V54.9v-1L1339,53.5z M1316.7,123.7l-16.6,10.4V85.8l16.6-8.3
			V123.7z"/>
	</g>
	<g>
		<path class="st4" d="M1181.5,1.2L1181.5,1.2l-19.9,10l0,0l-0.9,0.5v1V44l-19,9.5l0,0l-19.9,10l0,0l-0.9,0.5v1v62.2v1l0.9,0.5l0,0
			l19.9,10l0,0l0.8,0.4l19.9-12.4l19.1,9.5l0,0l2.4,1.2v-2.7V2.7V0L1181.5,1.2z M1160.7,123.7l-16.6,10.4V56l16.6-8.3V123.7z"/>
	</g>
	<g>
		<path class="st4" d="M1415.5,1.2L1415.5,1.2l-19.9,10l0,0l-0.9,0.5v1V44l-19,9.5l0,0l-19.9,10l0,0l-0.9,0.5v1v62.2v1l0.9,0.5l0,0
			l19.9,10l0,0l0.8,0.4l19.9-12.4l19.1,9.5l0,0l2.4,1.2v-2.7V2.7V0L1415.5,1.2z M1394.6,123.7l-16.6,10.4V56l16.6-8.3V123.7z"/>
	</g>
	<g>
		<path class="st4" d="M1261,53.5C1261,53.5,1261,53.5,1261,53.5l-19.9-10c0,0,0,0,0,0l-0.7-0.4l-20.6,10.3l0,0l-19.9,10l0,0
			l-0.9,0.5v1v62.2v1l0.9,0.5l0,0l19.9,10l0,0l0.7,0.4l20.6-10.3c0,0,0,0,0,0l19.9-10c0,0,0,0,0,0l0.9-0.5v-1V99.7v-1l-0.9-0.5
			c0,0,0,0,0,0l-19.9-10c0,0,0,0,0,0l-2.4-1.2v2.7v36.3l-16.6,8.3V90.8l19-9.5l0,0l19.9-10l0,0l0.9-0.5v-1V54.9v-1L1261,53.5z
			 M1222.1,56l16.6-8.3v31.1l-16.6,8.3V56z"/>
	</g>
	<g>
		<polygon class="st4" points="1432.8,113.6 1432.8,137.3 1452.7,127.3 1452.7,138.5 1432.8,148.5 1432.8,152.2 1456,140.6 
			1456,125.6 1456,124.6 1456,102 		"/>
	</g>
	<g>
		<path class="st4" d="M751.7,833L731,843.3l0,0l-19.9,10c0,0,0,0,0,0l-0.9,0.5v1V917v1l0.9,0.5l0,0l19.9,10c0,0,0,0,0,0l0.7,0.4
			l18.2-9.1v33.6l-16.6,8.3v-19.7v-1l-0.9-0.5c0,0,0,0,0,0l-19.9-10c0,0,0,0,0,0l-2.4-1.2v2.7v22.4v1l0.9,0.5c0,0,0,0,0,0l19.9,10
			c0,0,0,0,0,0l0.7,0.4l20.6-10.3c0,0,0,0,0,0l19.9-10c0,0,0,0,0,0l0.9-0.5v-1v-99.3v-1.3L751.7,833z M733.4,924.2v-78.4l16.6-8.3
			v78.4L733.4,924.2z"/>
	</g>
	<g>
		<g>
			<polygon class="st4" points="594,813.9 594,837.5 617.3,825.9 617.3,802.3 			"/>
			<polygon class="st4" points="594,915.5 617.3,927.1 617.3,834.6 594,846.3 			"/>
		</g>
	</g>
	<g>
		<polygon class="st4" points="694.3,843.3 694.3,843.3 674.4,833.4 674.4,833.4 673.7,833 655.4,842.1 655.4,837.3 655.4,834.6 
			653,835.8 653,835.8 633.1,845.8 633.1,845.8 632.2,846.3 632.2,847.3 632.2,914.5 632.2,915.5 633.1,916 633.1,916 653,925.9 
			653,925.9 655.4,927.1 655.4,924.4 655.4,845.8 672,837.5 672,914.5 672,915.5 672.9,916 672.9,916 692.8,925.9 692.8,925.9 
			695.2,927.1 695.2,924.4 695.2,844.8 695.2,843.8 		"/>
	</g>
	<g>
		<polygon class="st4" points="1011.1,447.8 1011.1,447.8 991.2,437.8 991.2,437.8 990.5,437.4 972.2,446.6 972.2,441.8 
			972.2,439.1 969.8,440.3 969.8,440.3 949.9,450.2 949.9,450.3 949,450.7 949,451.7 949,518.9 949,519.9 949.9,520.4 949.9,520.4 
			969.8,530.4 969.8,530.4 972.2,531.6 972.2,528.9 972.2,450.3 988.8,442 988.8,518.9 988.8,519.9 989.7,520.4 989.7,520.4 
			1009.6,530.4 1009.6,530.4 1012,531.6 1012,528.9 1012,449.2 1012,448.2 		"/>
	</g>
	<g>
		<g>
			<polygon class="st4" points="910.8,418.4 910.8,442 934.1,430.4 934.1,406.7 			"/>
			<polygon class="st4" points="910.8,519.9 934.1,531.6 934.1,439.1 910.8,450.7 			"/>
		</g>
	</g>
	<g>
		<g>
			<polygon class="st4" points="880.1,250 880.1,250 860.2,240 860.2,240 859.5,239.7 841.3,248.8 841.3,244 841.3,241.3 
				838.8,242.5 838.8,242.5 818.9,252.5 818.9,252.5 818,252.9 818,254 818,321.1 818,322.2 818.9,322.6 818.9,322.6 838.8,332.6 
				838.8,332.6 841.3,333.8 841.3,331.1 841.3,252.5 857.8,244.2 857.8,321.1 857.8,322.2 858.8,322.6 858.8,322.6 878.7,332.6 
				878.7,332.6 881.1,333.8 881.1,331.1 881.1,251.5 881.1,250.4 			"/>
		</g>
		<g>
			<polygon class="st4" points="1103.4,310.2 1103.4,333.8 1123.3,323.8 1123.3,335.1 1103.4,345 1103.4,348.7 1126.6,337.1 
				1126.6,322.2 1126.6,321.1 1126.6,298.6 			"/>
		</g>
		<g>
			<polygon class="st4" points="1008.1,242.5 1008.1,242.5 988.2,252.5 988.2,252.5 987.2,252.9 987.2,254 987.2,320.2 970.7,330.6 
				970.7,244 970.7,241.3 968.3,242.5 968.3,242.5 948.3,252.5 948.3,252.5 947.4,252.9 947.4,254 947.4,323.6 947.4,324.7 
				948.3,325.1 948.3,325.1 968.3,335.1 968.3,335.1 969.1,335.5 969.9,335 969.9,335 969.9,335 989,323.1 1008.1,332.6 
				1008.1,332.6 1010.5,333.8 1010.5,331.1 1010.5,244 1010.5,241.3 			"/>
		</g>
		<g>
			<polygon class="st4" points="1087.5,250 1087.5,250 1067.6,240 1067.6,240 1066.9,239.7 1066.1,240 1066.1,240 1026.3,259.9 
				1026.3,259.9 1025.4,260.4 1025.4,303.9 1027.8,302.7 1027.8,302.7 1065.2,284 1065.2,322.6 1048.6,330.9 1048.6,303.7 
				1048.6,301 1046.2,302.2 1046.2,302.2 1026.3,312.2 1026.3,312.2 1025.4,312.7 1025.4,313.7 1025.4,323.6 1025.4,324.7 
				1026.3,325.1 1026.3,325.1 1046.2,335.1 1046.2,335.1 1047,335.4 1047.7,335.1 1047.7,335.1 1065.2,326.3 1065.2,326.3 
				1072.4,322.7 1087.5,315.2 1087.5,315.2 1088.4,314.7 1088.4,268.7 1066.1,279.8 1066.1,279.8 1048.6,288.6 1048.6,252.5 
				1065.2,244.2 1065.2,268.9 1065.2,271.6 1067.6,270.4 1067.6,270.4 1087.5,260.4 1087.5,260.4 1088.4,260 1088.4,258.9 
				1088.4,251.5 1088.4,250.4 			"/>
		</g>
		<g>
			<polygon class="st4" points="156,236.3 136.1,246.3 136.1,209 112.9,220.6 112.9,257.9 96.2,266.2 96.2,292.6 112.9,263.6 
				112.9,322.2 136.1,333.8 136.1,251.2 156,261.4 			"/>
		</g>
		<g>
			<g>
				<polygon class="st4" points="214.9,220.6 214.9,244.2 238.2,232.6 238.2,209 				"/>
				<polygon class="st4" points="214.9,322.2 238.2,333.8 238.2,241.3 214.9,252.9 				"/>
			</g>
		</g>
		<g>
			<g>
				<polygon class="st4" points="779.9,220.6 779.9,244.2 803.1,232.6 803.1,209 				"/>
				<polygon class="st4" points="779.9,322.2 803.1,333.8 803.1,241.3 779.9,252.9 				"/>
			</g>
		</g>
		<g>
			<g>
				<polygon class="st4" points="65.5,220.6 65.5,244.2 88.8,232.6 88.8,209 				"/>
				<polygon class="st4" points="65.5,322.2 88.8,333.8 88.8,241.3 65.5,252.9 				"/>
			</g>
		</g>
		<g>
			<polygon class="st4" points="315.2,250 315.2,250 295.3,240 295.3,240 294.6,239.7 293.8,240 293.8,240 254,259.9 254,259.9 
				253.1,260.4 253.1,303.9 255.5,302.7 255.5,302.7 292.9,284 292.9,322.6 276.3,330.9 276.3,303.7 276.3,301 273.9,302.2 
				273.9,302.2 254,312.2 254,312.2 253.1,312.7 253.1,313.7 253.1,323.6 253.1,324.7 254,325.1 254,325.1 273.9,335.1 273.9,335.1 
				274.7,335.4 275.4,335.1 275.4,335.1 292.9,326.3 292.9,326.3 300.1,322.7 315.2,315.2 315.2,315.2 316.1,314.7 316.1,268.7 
				293.8,279.8 293.8,279.8 276.3,288.6 276.3,252.5 292.9,244.2 292.9,268.9 292.9,271.6 295.3,270.4 295.3,270.4 315.2,260.4 
				315.2,260.4 316.1,260 316.1,258.9 316.1,251.5 316.1,250.4 			"/>
		</g>
		<g>
			<path class="st4" d="M691.9,239.7L671.3,250l0,0l-19.9,10c0,0,0,0,0,0l-0.9,0.5v1v62.2v1l0.9,0.5c0,0,0,0,0,0l19.9,10
				c0,0,0,0,0,0l0.7,0.4l18.2-9.1v33.6l-16.6,8.3v-19.7v-1l-0.9-0.5c0,0,0,0,0,0l-19.9-10c0,0,0,0,0,0l-2.4-1.2v2.7V361v1l0.9,0.5
				c0,0,0,0,0,0l19.9,10c0,0,0,0,0,0l0.7,0.4l20.6-10.3c0,0,0,0,0,0l19.9-10c0,0,0,0,0,0l0.9-0.5v-1v-99.3v-1.3L691.9,239.7z
				 M673.7,330.9v-78.4l16.6-8.3v78.4L673.7,330.9z"/>
		</g>
		<g>
			<g>
				<polygon class="st4" points="420.7,220.6 420.7,244.2 443.9,232.6 443.9,209 				"/>
				<polygon class="st4" points="420.7,322.2 443.9,333.8 443.9,241.3 420.7,252.9 				"/>
			</g>
		</g>
		<g>
			<g>
				<polygon class="st4" points="534.3,220.6 534.3,244.2 557.5,232.6 557.5,209 				"/>
				<polygon class="st4" points="534.3,322.2 557.5,333.8 557.5,241.3 534.3,252.9 				"/>
			</g>
		</g>
		<g>
			<polygon class="st4" points="382.5,210.6 382.5,322.2 405.7,333.8 405.7,199 			"/>
		</g>
		<g>
			<polygon class="st4" points="634.6,250 634.6,250 614.7,240 614.7,240 614,239.7 595.7,248.8 595.7,244 595.7,241.3 593.3,242.5 
				593.3,242.5 573.4,252.5 573.4,252.5 572.5,252.9 572.5,254 572.5,321.1 572.5,322.2 573.4,322.6 573.4,322.6 593.3,332.6 
				593.3,332.6 595.7,333.8 595.7,331.1 595.7,252.5 612.3,244.2 612.3,321.1 612.3,322.2 613.2,322.6 613.2,322.6 633.1,332.6 
				633.1,332.6 635.5,333.8 635.5,331.1 635.5,251.5 635.5,250.4 			"/>
		</g>
		<g>
			<polygon class="st4" points="519.5,242.5 519.5,242.5 499.6,252.5 499.6,252.5 498.6,252.9 498.6,254 498.6,311.2 498.6,311.8 
				482.1,329.4 482.1,244 482.1,241.3 479.7,242.5 479.7,242.5 459.7,252.5 459.7,252.5 458.8,252.9 458.8,254 458.8,323.6 
				458.8,324.7 459.7,325.1 459.7,325.1 479.7,335.1 479.7,335.1 480.8,335.6 481.6,334.7 481.6,334.7 521.9,291.9 521.9,291.3 
				521.9,244 521.9,241.3 			"/>
		</g>
		<g>
			<path class="st4" d="M1255.1,250C1255.1,250,1255.1,250,1255.1,250l-19.9-10l0,0l-0.7-0.4l-20.6,10.3l0,0l-19.9,10l0,0l-0.9,0.5
				v1v17.4v2.7l2.4-1.2c0,0,0,0,0,0l19.9-10l0,0l0.9-0.5v-1v-16.4l16.6-8.3v26.1l-19.4,9.7l-19.4,9.7c0,0,0,0,0,0l-0.9,0.5v1v32.3v1
				l0.9,0.5l0,0l19.9,10l0,0l0.8,0.4l19.9-12.4l19.1,9.5c0,0,0,0,0,0l2.4,1.2v-2.7v-79.6v-1L1255.1,250z M1232.8,320.2l-16.6,10.4
				v-48.2l16.6-8.3V320.2z"/>
		</g>
		<g>
			<polygon class="st4" points="1333.1,250 1333.1,250 1313.2,240 1313.2,240 1312.4,239.7 1294.2,248.8 1294.2,244 1294.2,241.3 
				1291.8,242.5 1291.8,242.5 1271.9,252.5 1271.9,252.5 1270.9,252.9 1270.9,254 1270.9,321.1 1270.9,322.2 1271.9,322.6 
				1271.9,322.6 1291.8,332.6 1291.8,332.6 1294.2,333.8 1294.2,331.1 1294.2,252.5 1310.8,244.2 1310.8,321.1 1310.8,322.2 
				1311.7,322.6 1311.7,322.6 1331.6,332.6 1331.6,332.6 1334,333.8 1334,331.1 1334,251.5 1334,250.4 			"/>
		</g>
		<g>
			<path class="st4" d="M1409.6,197.7L1409.6,197.7l-19.9,10c0,0,0,0,0,0l-0.9,0.5v1v31.3l-19,9.5l0,0l-19.9,10l0,0l-0.9,0.5v1v62.2
				v1l0.9,0.5l0,0l19.9,10l0,0l0.8,0.4l19.9-12.4l19.1,9.5l0,0l2.4,1.2v-2.7V199.2v-2.7L1409.6,197.7z M1388.7,320.2l-16.6,10.4
				v-78.1l16.6-8.3V320.2z"/>
		</g>
	</g>
	<g>
		<polygon class="st4" points="216.5,408.4 216.5,519.9 239.7,531.6 239.7,396.8 		"/>
	</g>
	<g>
		<polygon class="st4" points="254.7,408.4 254.7,519.9 277.9,531.6 277.9,396.8 		"/>
	</g>
	<g>
		<g>
			<polygon class="st4" points="178.3,418.4 178.3,442 201.6,430.4 201.6,406.7 			"/>
			<polygon class="st4" points="178.3,519.9 201.6,531.6 201.6,439.1 178.3,450.7 			"/>
		</g>
	</g>
	<g>
		<polygon class="st4" points="161,440.3 161,440.3 141.1,450.2 141.1,450.3 140.2,450.7 140.2,451.7 140.2,518.1 126.1,528.1 
			126.1,441.8 126.1,439.1 123.7,440.3 123.7,440.3 103.8,450.2 103.8,450.3 102.9,450.7 102.9,451.7 102.9,520.4 88.8,528.5 
			88.8,441.8 88.8,439.1 86.4,440.3 86.4,440.3 66.5,450.2 66.5,450.3 65.5,450.7 65.5,451.7 65.5,521.4 65.5,522.4 66.5,522.9 
			66.5,522.9 86.4,532.9 86.4,532.9 87.2,533.2 104.6,523.3 123.7,532.9 123.7,532.9 124.6,533.3 142,520.9 161,530.4 161,530.4 
			163.4,531.6 163.4,528.9 163.4,441.8 163.4,439.1 		"/>
	</g>
	<g>
		<polygon class="st4" points="317,835.8 317,835.8 297.1,845.8 297.1,845.8 296.1,846.3 296.1,847.3 296.1,913.6 282,923.7 
			282,837.3 282,834.6 279.6,835.8 279.6,835.8 259.7,845.8 259.7,845.8 258.8,846.3 258.8,847.3 258.8,916 244.7,924 244.7,837.3 
			244.7,834.6 242.3,835.8 242.3,835.8 222.4,845.8 222.4,845.8 221.5,846.3 221.5,847.3 221.5,917 221.5,918 222.4,918.4 
			222.4,918.4 242.3,928.4 242.3,928.4 243.1,928.8 260.5,918.8 279.6,928.4 279.6,928.4 280.5,928.8 298,916.4 317,925.9 
			317,925.9 319.4,927.1 319.4,924.4 319.4,837.3 319.4,834.6 		"/>
	</g>
	<g>
		<path class="st4" d="M406.4,447.8L406.4,447.8l-19.9-10l0,0l-0.7-0.4l-18.2,9.1V397v-2.7l-2.4,1.2l0,0l-19.9,10c0,0,0,0,0,0
			l-0.9,0.5v1v114.5v1l0.9,0.5l0,0l19.9,10c0,0,0,0,0,0l0.7,0.4l20.7-10.3l0,0l19.9-10l0,0l0.9-0.5v-1v-62.2v-1L406.4,447.8z
			 M384.1,442v78.4l-16.6,8.3v-78.4L384.1,442z"/>
	</g>
	<g>
		<path class="st4" d="M484.4,447.8C484.4,447.8,484.4,447.8,484.4,447.8l-19.9-10c0,0,0,0,0,0l-0.7-0.4l-20.6,10.3l0,0l-19.9,10
			c0,0,0,0,0,0l-0.9,0.5v1v62.2v1l0.9,0.5l0,0l19.9,10c0,0,0,0,0,0l0.7,0.4l20.6-10.3c0,0,0,0,0,0l19.9-10c0,0,0,0,0,0l0.9-0.5v-1
			V494v-1l-0.9-0.5c0,0,0,0,0,0l-19.9-10c0,0,0,0,0,0l-2.4-1.2v2.7v36.3l-16.6,8.3v-43.6l19-9.5l0,0l19.9-10c0,0,0,0,0,0l0.9-0.5v-1
			v-14.9v-1L484.4,447.8z M445.5,450.3l16.6-8.3v31.1l-16.6,8.3V450.3z"/>
	</g>
	<g>
		<g>
			<polygon class="st4" points="667.8,418.4 667.8,442 691,430.4 691,406.7 			"/>
			<polygon class="st4" points="667.8,519.9 691,531.6 691,439.1 667.8,450.7 			"/>
		</g>
	</g>
	<g>
		<polygon class="st4" points="766.6,440.3 766.6,440.3 746.7,450.2 746.7,450.3 745.8,450.7 745.8,451.7 745.8,509 745.8,509.6 
			729.2,527.2 729.2,441.8 729.2,439.1 726.8,440.3 726.8,440.3 706.9,450.2 706.9,450.3 705.9,450.7 705.9,451.7 705.9,521.4 
			705.9,522.4 706.9,522.9 706.9,522.9 726.8,532.9 726.8,532.9 727.9,533.4 728.7,532.5 728.7,532.5 769,489.7 769,489.1 
			769,441.8 769,439.1 		"/>
	</g>
	<g>
		<path class="st4" d="M613.8,447.8C613.8,447.8,613.8,447.8,613.8,447.8l-19.9-10l0,0l-0.7-0.4l-20.6,10.3l0,0l-19.9,10
			c0,0,0,0,0,0l-0.9,0.5v1v17.4v2.7l2.4-1.2c0,0,0,0,0,0l19.9-10l0,0l0.9-0.5v-1v-16.4l16.6-8.3v26.1l-19.4,9.7l-19.4,9.7
			c0,0,0,0,0,0l-0.9,0.5v1v32.3v1l0.9,0.5l0,0l19.9,10l0,0l0.8,0.4l19.9-12.4l19.1,9.5c0,0,0,0,0,0l2.4,1.2v-2.7v-79.6v-1
			L613.8,447.8z M591.5,518l-16.6,10.4v-48.2l16.6-8.3V518z"/>
	</g>
	<g>
		<path class="st4" d="M1203.8,843.3L1203.8,843.3l-19.9-10l0,0l-0.7-0.4l-20.6,10.3l0,0l-19.9,10c0,0,0,0,0,0l-0.9,0.5v1v17.4v2.7
			l2.4-1.2c0,0,0,0,0,0l19.9-10l0,0l0.9-0.5v-1v-16.4l16.6-8.3v26.1l-19.4,9.7l-19.4,9.7c0,0,0,0,0,0l-0.9,0.5v1V917v1l0.9,0.5l0,0
			l19.9,10l0,0l0.8,0.4l19.9-12.4l19.1,9.5c0,0,0,0,0,0l2.4,1.2v-2.7v-79.6v-1L1203.8,843.3z M1181.4,913.5l-16.6,10.4v-48.2
			l16.6-8.3V913.5z"/>
	</g>
	<g>
		<polygon class="st4" points="629.6,408.4 629.6,519.9 652.9,531.6 652.9,396.8 		"/>
	</g>
	<g>
		<path class="st4" d="M843.6,447.8C843.6,447.8,843.6,447.8,843.6,447.8l-19.9-10c0,0,0,0,0,0l-0.7-0.4l-20.6,10.3l0,0l-19.9,10
			c0,0,0,0,0,0l-0.9,0.5v1v62.2v1l0.9,0.5l0,0l19.9,10c0,0,0,0,0,0l0.7,0.4l20.6-10.3c0,0,0,0,0,0l19.9-10c0,0,0,0,0,0l0.9-0.5v-1
			V494v-1l-0.9-0.5c0,0,0,0,0,0l-19.9-10c0,0,0,0,0,0l-2.4-1.2v2.7v36.3l-16.6,8.3v-43.6l19-9.5l0,0l19.9-10l0,0l0.9-0.5v-1v-14.9
			v-1L843.6,447.8z M804.7,450.3l16.6-8.3v31.1l-16.6,8.3V450.3z"/>
	</g>
	<g>
		<polygon class="st4" points="507.7,843.3 507.7,843.3 487.8,833.4 487.8,833.4 487,833 468.8,842.1 468.8,837.3 468.8,834.6 
			466.4,835.8 466.4,835.8 446.5,845.8 446.5,845.8 445.6,846.3 445.6,847.3 445.6,914.5 445.6,915.5 446.5,916 446.5,916 
			466.4,925.9 466.4,925.9 468.8,927.1 468.8,924.4 468.8,849.8 468.8,845.8 485.4,837.5 485.4,859.7 485.4,860.8 486.3,861.2 
			486.3,861.2 506.2,871.2 506.2,871.2 508.6,872.4 508.6,869.7 508.6,844.8 508.6,843.8 		"/>
	</g>
	<g>
		<path class="st4" d="M1357.2,843.3C1357.2,843.3,1357.2,843.3,1357.2,843.3l-19.9-10c0,0,0,0,0,0l-0.7-0.4l-20.6,10.3l0,0
			l-19.9,10c0,0,0,0,0,0l-0.9,0.5v1V917v1l0.9,0.5l0,0l19.9,10c0,0,0,0,0,0l0.7,0.4l20.6-10.3c0,0,0,0,0,0l19.9-10c0,0,0,0,0,0
			l0.9-0.5v-1v-17.4v-1l-0.9-0.5c0,0,0,0,0,0l-19.9-10c0,0,0,0,0,0l-2.4-1.2v2.7v36.3l-16.6,8.3v-43.6l19-9.5c0,0,0,0,0,0l19.9-10
			c0,0,0,0,0,0l0.9-0.5v-1v-14.9v-1L1357.2,843.3z M1318.3,845.8l16.6-8.3v31.1l-16.6,8.3V845.8z"/>
	</g>
	<g>
		<path class="st4" d="M1148.9,645.5C1148.9,645.5,1148.9,645.5,1148.9,645.5l-19.9-10c0,0,0,0,0,0l-0.7-0.4l-20.6,10.3l0,0
			l-19.9,10c0,0,0,0,0,0l-0.9,0.5v1v62.2v1l0.9,0.5l0,0l19.9,10c0,0,0,0,0,0l0.7,0.4l20.6-10.3c0,0,0,0,0,0l19.9-10l0,0l0.9-0.5v-1
			v-17.4v-1l-0.9-0.5c0,0,0,0,0,0l-19.9-10c0,0,0,0,0,0l-2.4-1.2v2.7v36.3l-16.6,8.3v-43.6l19-9.5l0,0l19.9-10c0,0,0,0,0,0l0.9-0.5
			v-1V647v-1L1148.9,645.5z M1110,648l16.6-8.3v31.1l-16.6,8.3V648z"/>
	</g>
	<g>
		<polygon class="st4" points="320.4,638.1 320.4,638.1 300.5,648 300.5,648 299.6,648.5 299.6,649.5 299.6,715.8 283,726.1 
			283,639.6 283,636.9 280.6,638.1 280.6,638.1 260.7,648 260.7,648 259.7,648.5 259.7,649.5 259.7,719.2 259.7,720.2 260.7,720.7 
			260.7,720.7 280.6,730.6 280.6,730.6 281.4,731 282.2,730.6 282.2,730.6 282.2,730.6 301.3,718.6 320.4,728.1 320.4,728.1 
			322.8,729.3 322.8,726.6 322.8,639.6 322.8,636.9 		"/>
	</g>
	<g>
		<polygon class="st4" points="633.1,638.1 633.1,638.1 613.2,648 613.2,648 612.3,648.5 612.3,649.5 612.3,715.8 598.2,725.9 
			598.2,639.6 598.2,636.9 595.8,638.1 595.8,638.1 575.9,648 575.9,648 575,648.5 575,649.5 575,718.2 560.9,726.3 560.9,639.6 
			560.9,636.9 558.5,638.1 558.5,638.1 538.5,648 538.5,648 537.6,648.5 537.6,649.5 537.6,719.2 537.6,720.2 538.5,720.7 
			538.5,720.7 558.5,730.6 558.5,730.6 559.3,731 576.7,721.1 595.8,730.6 595.8,730.6 596.7,731.1 614.1,718.6 633.1,728.1 
			633.1,728.1 635.5,729.3 635.5,726.6 635.5,639.6 635.5,636.9 		"/>
	</g>
	<g>
		<polygon class="st4" points="1069.4,638.1 1069.4,638.1 1049.5,648 1049.5,648 1048.6,648.5 1048.6,649.5 1048.6,715.8 
			1034.5,725.9 1034.5,639.6 1034.5,636.9 1032.1,638.1 1032.1,638.1 1012.2,648 1012.2,648 1011.3,648.5 1011.3,649.5 
			1011.3,718.2 997.2,726.3 997.2,639.6 997.2,636.9 994.8,638.1 994.8,638.1 974.9,648 974.9,648 974,648.5 974,649.5 974,719.2 
			974,720.2 974.9,720.7 974.9,720.7 994.8,730.6 994.8,730.6 995.6,731 1013,721.1 1032.1,730.6 1032.1,730.6 1033,731.1 
			1050.4,718.6 1069.4,728.1 1069.4,728.1 1071.8,729.3 1071.8,726.6 1071.8,639.6 1071.8,636.9 		"/>
	</g>
	<g>
		<path class="st4" d="M1278.3,645.5C1278.3,645.5,1278.3,645.5,1278.3,645.5l-19.9-10l0,0l-0.7-0.4l-20.6,10.3l0,0l-19.9,10
			c0,0,0,0,0,0l-0.9,0.5v1v17.4v2.7l2.4-1.2c0,0,0,0,0,0l19.9-10l0,0l0.9-0.5v-1V648l16.6-8.3v26.1l-19.4,9.7l-19.4,9.7c0,0,0,0,0,0
			l-0.9,0.5v1v32.3v1l0.9,0.5l0,0l19.9,10l0,0l0.8,0.4l19.9-12.4l19.1,9.5c0,0,0,0,0,0l2.4,1.2v-2.7V647v-1L1278.3,645.5z
			 M1256,715.8l-16.6,10.4v-48.2l16.6-8.3V715.8z"/>
	</g>
	<g>
		<polygon class="st4" points="399.8,645.5 399.8,645.5 379.9,635.6 379.9,635.6 379.2,635.2 360.9,644.3 360.9,639.6 360.9,636.9 
			358.5,638.1 358.5,638.1 338.6,648 338.6,648 337.7,648.5 337.7,649.5 337.7,716.7 337.7,717.7 338.6,718.2 338.6,718.2 
			358.5,728.1 358.5,728.1 360.9,729.3 360.9,726.6 360.9,652 360.9,648 377.5,639.8 377.5,662 377.5,663 378.4,663.4 378.4,663.4 
			398.4,673.4 398.4,673.4 400.8,674.6 400.8,671.9 400.8,647 400.8,646 		"/>
	</g>
	<g>
		<path class="st4" d="M470.4,645.5C470.4,645.5,470.4,645.5,470.4,645.5l-19.9-10c0,0,0,0,0,0l-0.7-0.4l-20.6,10.3l0,0l-19.9,10
			c0,0,0,0,0,0l-0.9,0.5v1v62.2v1l0.9,0.5l0,0l19.9,10c0,0,0,0,0,0l0.7,0.4l20.6-10.3c0,0,0,0,0,0l19.9-10l0,0l0.9-0.5v-1v-17.4v-1
			l-0.9-0.5c0,0,0,0,0,0l-19.9-10c0,0,0,0,0,0l-2.4-1.2v2.7v36.3l-16.6,8.3v-43.6l19-9.5c0,0,0,0,0,0l19.9-10c0,0,0,0,0,0l0.9-0.5
			v-1V647v-1L470.4,645.5z M431.5,648l16.6-8.3v31.1l-16.6,8.3V648z"/>
	</g>
	<g>
		<polygon class="st4" points="1356.3,645.5 1356.3,645.5 1336.4,635.6 1336.4,635.6 1335.6,635.2 1317.4,644.3 1317.4,639.6 
			1317.4,636.9 1315,638.1 1315,638.1 1295.1,648 1295.1,648 1294.2,648.5 1294.2,649.5 1294.2,716.7 1294.2,717.7 1295.1,718.2 
			1295.1,718.2 1315,728.1 1315,728.1 1317.4,729.3 1317.4,726.6 1317.4,652 1317.4,648 1334,639.8 1334,662 1334,663 1334.9,663.4 
			1334.9,663.4 1354.8,673.4 1354.8,673.4 1357.2,674.6 1357.2,671.9 1357.2,647 1357.2,646 		"/>
	</g>
	<g>
		<path class="st4" d="M1426.8,645.5C1426.8,645.5,1426.8,645.5,1426.8,645.5l-19.9-10c0,0,0,0,0,0l-0.7-0.4l-20.6,10.3l0,0
			l-19.9,10c0,0,0,0,0,0l-0.9,0.5v1v62.2v1l0.9,0.5l0,0l19.9,10c0,0,0,0,0,0l0.7,0.4l20.6-10.3c0,0,0,0,0,0l19.9-10l0,0l0.9-0.5v-1
			v-17.4v-1l-0.9-0.5c0,0,0,0,0,0l-19.9-10c0,0,0,0,0,0l-2.4-1.2v2.7v36.3l-16.6,8.3v-43.6l19-9.5l0,0l19.9-10c0,0,0,0,0,0l0.9-0.5
			v-1V647v-1L1426.8,645.5z M1387.9,648l16.6-8.3v31.1l-16.6,8.3V648z"/>
	</g>
	<g>
		<g>
			<polygon class="st4" points="728.4,616.1 728.4,639.8 751.7,628.1 751.7,604.5 			"/>
			<polygon class="st4" points="728.4,717.7 751.7,729.3 751.7,636.9 728.4,648.5 			"/>
		</g>
	</g>
	<g>
		<polygon class="st4" points="712.6,645.5 712.6,645.5 692.7,635.6 692.7,635.6 691.9,635.2 673.7,644.3 673.7,597.3 673.7,594.6 
			671.3,595.8 671.3,595.8 651.4,605.7 651.4,605.7 650.4,606.2 650.4,607.2 650.4,716.7 650.4,717.7 651.4,718.2 651.4,718.2 
			671.3,728.1 671.3,728.1 673.7,729.3 673.7,726.6 673.7,648 690.3,639.8 690.3,716.7 690.3,717.7 691.2,718.2 691.2,718.2 
			711.1,728.1 711.1,728.1 713.5,729.3 713.5,726.6 713.5,647 713.5,646 		"/>
	</g>
	<g>
		<polygon class="st4" points="906.7,645.5 906.7,645.5 886.8,635.6 886.8,635.6 886,635.2 867.8,644.3 867.8,597.3 867.8,594.6 
			865.4,595.8 865.4,595.8 845.5,605.7 845.5,605.7 844.6,606.2 844.6,607.2 844.6,716.7 844.6,717.7 845.5,718.2 845.5,718.2 
			865.4,728.1 865.4,728.1 867.8,729.3 867.8,726.6 867.8,648 884.4,639.8 884.4,716.7 884.4,717.7 885.3,718.2 885.3,718.2 
			905.2,728.1 905.2,728.1 907.6,729.3 907.6,726.6 907.6,647 907.6,646 		"/>
	</g>
	<g>
		<polygon class="st4" points="828.7,645.5 828.7,645.5 808.8,635.6 808.8,635.6 808.1,635.2 787.4,645.5 787.4,645.5 767.5,655.5 
			767.5,655.5 766.6,655.9 766.6,657 766.6,719.2 766.6,720.2 767.5,720.7 767.5,720.7 787.4,730.6 787.4,730.6 788.2,731 
			788.9,730.6 788.9,730.6 808.8,720.7 808.8,720.7 828.7,710.7 828.7,710.7 829.6,710.3 829.6,709.2 829.6,686.8 829.6,684.1 
			827.2,685.3 827.2,685.3 807.3,695.3 807.3,695.3 806.4,695.8 806.4,696.8 806.4,718.2 789.8,726.4 789.8,648 806.4,639.8 
			806.4,659.5 806.4,660.5 807.3,660.9 807.3,660.9 827.2,670.9 827.2,670.9 829.6,672.1 829.6,669.4 829.6,647 829.6,646 		"/>
	</g>
</g>
</svg>
